<?xml version="1.0" encoding="utf-8" standalone="no"?>
<!DOCTYPE svg PUBLIC "-//W3C//DTD SVG 1.1//EN"
  "http://www.w3.org/Graphics/SVG/1.1/DTD/svg11.dtd">
<svg xmlns:xlink="http://www.w3.org/1999/xlink" width="460.8pt" height="345.6pt" viewBox="0 0 460.8 345.6" xmlns="http://www.w3.org/2000/svg" version="1.1">
 <metadata>
  <rdf:RDF xmlns:dc="http://purl.org/dc/elements/1.1/" xmlns:cc="http://creativecommons.org/ns#" xmlns:rdf="http://www.w3.org/1999/02/22-rdf-syntax-ns#">
   <cc:Work>
    <dc:type rdf:resource="http://purl.org/dc/dcmitype/StillImage"/>
    <dc:date>2025-10-16T16:17:54.368853</dc:date>
    <dc:format>image/svg+xml</dc:format>
    <dc:creator>
     <cc:Agent>
      <dc:title>Matplotlib v3.10.6, https://matplotlib.org/</dc:title>
     </cc:Agent>
    </dc:creator>
   </cc:Work>
  </rdf:RDF>
 </metadata>
 <defs>
  <style type="text/css">*{stroke-linejoin: round; stroke-linecap: butt}</style>
 </defs>
 <g id="figure_1">
  <g id="patch_1">
   <path d="M 0 345.6 
L 460.8 345.6 
L 460.8 0 
L 0 0 
z
" style="fill: #ffffff"/>
  </g>
  <g id="axes_1">
   <g id="patch_2">
    <path d="M 46.64 303.64 
L 366.88992 303.64 
L 366.88992 45.856 
L 46.64 45.856 
z
" style="fill: #ffffff"/>
   </g>
   <g id="QuadContourSet_1">
    <path d="M 174.739968 232.563241 
L 175.456881 226.3048 
L 174.739968 225.382264 
L 174.345053 226.3048 
z
M 206.76496 194.494089 
L 214.991139 174.748 
L 206.76496 155.813737 
L 197.896294 174.748 
z
" clip-path="url(#p5dafe9503e)" style="fill: #46085c"/>
    <path d="M 142.714976 303.64 
L 152.911984 303.64 
L 174.739968 280.430771 
L 175.919547 277.8616 
L 187.467531 252.0832 
L 198.941496 226.3048 
L 206.76496 218.510188 
L 214.85705 200.5264 
L 225.851482 174.748 
L 235.67145 148.9696 
L 238.789952 146.877127 
L 247.517573 123.1912 
L 250.469436 97.4128 
L 238.789952 82.196643 
L 230.447561 97.4128 
L 219.911319 123.1912 
L 206.76496 135.038236 
L 198.986843 148.9696 
L 186.187728 174.748 
L 174.739968 196.56529 
L 172.662292 200.5264 
L 161.40844 226.3048 
L 153.929404 252.0832 
L 142.714976 270.443854 
L 139.765561 277.8616 
L 134.719697 303.64 
z
M 174.345053 226.3048 
L 174.739968 225.382264 
L 175.456881 226.3048 
L 174.739968 232.563241 
z
M 197.896294 174.748 
L 206.76496 155.813737 
L 214.991139 174.748 
L 206.76496 194.494089 
z
" clip-path="url(#p5dafe9503e)" style="fill: #481a6c"/>
    <path d="M 139.765561 277.8616 
L 142.714976 270.443854 
L 153.929404 252.0832 
L 161.40844 226.3048 
L 172.662292 200.5264 
L 174.739968 196.56529 
L 186.187728 174.748 
L 198.986843 148.9696 
L 206.76496 135.038236 
L 219.911319 123.1912 
L 230.447561 97.4128 
L 238.789952 82.196643 
L 250.469436 97.4128 
L 247.517573 123.1912 
L 238.789952 146.877127 
L 235.67145 148.9696 
L 225.851482 174.748 
L 214.85705 200.5264 
L 206.76496 218.510188 
L 198.941496 226.3048 
L 187.467531 252.0832 
L 175.919547 277.8616 
L 174.739968 280.430771 
L 152.911984 303.64 
L 174.739968 303.64 
L 177.215525 303.64 
L 189.064839 277.8616 
L 201.534445 252.0832 
L 206.76496 242.855114 
L 213.969536 226.3048 
L 225.385355 200.5264 
L 236.711826 174.748 
L 238.789952 170.31613 
L 247.493378 148.9696 
L 257.358937 123.1912 
L 266.552821 97.4128 
L 270.814944 90.183553 
L 277.044825 71.6344 
L 282.542232 45.856 
L 270.814944 45.856 
L 255.089929 45.856 
L 238.789952 63.174922 
L 233.669792 71.6344 
L 218.959562 97.4128 
L 206.76496 116.363538 
L 202.730119 123.1912 
L 188.276214 148.9696 
L 174.739968 174.301522 
L 174.486042 174.748 
L 160.958007 200.5264 
L 148.471826 226.3048 
L 142.714976 238.286339 
L 135.914828 252.0832 
L 124.792435 277.8616 
L 113.606703 303.64 
L 134.719697 303.64 
z
" clip-path="url(#p5dafe9503e)" style="fill: #482979"/>
    <path d="M 110.689984 303.64 
L 113.606703 303.64 
L 124.792435 277.8616 
L 135.914828 252.0832 
L 142.714976 238.286339 
L 148.471826 226.3048 
L 160.958007 200.5264 
L 174.486042 174.748 
L 174.739968 174.301522 
L 188.276214 148.9696 
L 202.730119 123.1912 
L 206.76496 116.363538 
L 218.959562 97.4128 
L 233.669792 71.6344 
L 238.789952 63.174922 
L 255.089929 45.856 
L 239.035461 45.856 
L 238.789952 46.116856 
L 223.345275 71.6344 
L 207.471563 97.4128 
L 206.76496 98.51088 
L 192.180002 123.1912 
L 177.565585 148.9696 
L 174.739968 154.2575 
L 163.086381 174.748 
L 149.253722 200.5264 
L 142.714976 213.458041 
L 135.699921 226.3048 
L 122.644357 252.0832 
L 110.689984 276.29848 
L 109.867567 277.8616 
L 97.693571 303.64 
z
M 202.210131 277.8616 
L 206.76496 268.697261 
L 213.730939 252.0832 
L 224.773129 226.3048 
L 235.91366 200.5264 
L 238.789952 194.016641 
L 246.553076 174.748 
L 256.936634 148.9696 
L 267.2003 123.1912 
L 270.814944 114.601647 
L 277.210433 97.4128 
L 286.207033 71.6344 
L 294.515217 45.856 
L 282.542232 45.856 
L 277.044825 71.6344 
L 270.814944 90.183553 
L 266.552821 97.4128 
L 257.358937 123.1912 
L 247.493378 148.9696 
L 238.789952 170.31613 
L 236.711826 174.748 
L 225.385355 200.5264 
L 213.969536 226.3048 
L 206.76496 242.855114 
L 201.534445 252.0832 
L 189.064839 277.8616 
L 177.215525 303.64 
L 190.288372 303.64 
z
" clip-path="url(#p5dafe9503e)" style="fill: #453781"/>
    <path d="M 109.867567 277.8616 
L 110.689984 276.29848 
L 122.644357 252.0832 
L 135.699921 226.3048 
L 142.714976 213.458041 
L 149.253722 200.5264 
L 163.086381 174.748 
L 174.739968 154.2575 
L 177.565585 148.9696 
L 192.180002 123.1912 
L 206.76496 98.51088 
L 207.471563 97.4128 
L 223.345275 71.6344 
L 238.789952 46.116856 
L 239.035461 45.856 
L 238.789952 45.856 
L 229.059423 45.856 
L 213.020757 71.6344 
L 206.76496 81.74802 
L 197.006288 97.4128 
L 181.629885 123.1912 
L 174.739968 135.309226 
L 166.473309 148.9696 
L 151.68672 174.748 
L 142.714976 191.264448 
L 137.277545 200.5264 
L 123.060081 226.3048 
L 110.689984 249.711247 
L 109.338067 252.0832 
L 95.724331 277.8616 
L 82.613937 303.64 
L 97.693571 303.64 
z
M 206.76496 296.295562 
L 214.199845 277.8616 
L 224.820279 252.0832 
L 235.576721 226.3048 
L 238.789952 218.819078 
L 245.944304 200.5264 
L 256.153178 174.748 
L 266.37989 148.9696 
L 270.814944 137.986908 
L 276.336632 123.1912 
L 285.911799 97.4128 
L 295.369242 71.6344 
L 302.839936 52.868734 
L 305.267956 45.856 
L 302.839936 45.856 
L 294.515217 45.856 
L 286.207033 71.6344 
L 277.210433 97.4128 
L 270.814944 114.601647 
L 267.2003 123.1912 
L 256.936634 148.9696 
L 246.553076 174.748 
L 238.789952 194.016641 
L 235.91366 200.5264 
L 224.773129 226.3048 
L 213.730939 252.0832 
L 206.76496 268.697261 
L 202.210131 277.8616 
L 190.288372 303.64 
L 203.361219 303.64 
z
" clip-path="url(#p5dafe9503e)" style="fill: #404588"/>
    <path d="M 78.664992 303.64 
L 82.613937 303.64 
L 95.724331 277.8616 
L 109.338067 252.0832 
L 110.689984 249.711247 
L 123.060081 226.3048 
L 137.277545 200.5264 
L 142.714976 191.264448 
L 151.68672 174.748 
L 166.473309 148.9696 
L 174.739968 135.309226 
L 181.629885 123.1912 
L 197.006288 97.4128 
L 206.76496 81.74802 
L 213.020757 71.6344 
L 229.059423 45.856 
L 219.177781 45.856 
L 206.76496 65.478398 
L 202.725839 71.6344 
L 186.60804 97.4128 
L 174.739968 117.182001 
L 170.892589 123.1912 
L 155.244269 148.9696 
L 142.714976 170.616132 
L 140.135325 174.748 
L 124.957196 200.5264 
L 110.689984 225.838336 
L 110.405958 226.3048 
L 95.706435 252.0832 
L 81.581096 277.8616 
L 78.664992 283.490132 
L 67.494029 303.64 
z
M 206.76496 303.64 
L 215.395099 303.64 
L 225.576849 277.8616 
L 235.909619 252.0832 
L 238.789952 245.125351 
L 245.894252 226.3048 
L 255.787884 200.5264 
L 265.75328 174.748 
L 270.814944 161.896532 
L 275.530293 148.9696 
L 285.063689 123.1912 
L 294.613164 97.4128 
L 302.839936 75.845775 
L 304.306462 71.6344 
L 313.236299 45.856 
L 305.267956 45.856 
L 302.839936 52.868734 
L 295.369242 71.6344 
L 285.911799 97.4128 
L 276.336632 123.1912 
L 270.814944 137.986908 
L 266.37989 148.9696 
L 256.153178 174.748 
L 245.944304 200.5264 
L 238.789952 218.819078 
L 235.576721 226.3048 
L 224.820279 252.0832 
L 214.199845 277.8616 
L 206.76496 296.295562 
L 203.361219 303.64 
z
" clip-path="url(#p5dafe9503e)" style="fill: #3b528b"/>
    <path d="M 78.664992 283.490132 
L 81.581096 277.8616 
L 95.706435 252.0832 
L 110.405958 226.3048 
L 110.689984 225.838336 
L 124.957196 200.5264 
L 140.135325 174.748 
L 142.714976 170.616132 
L 155.244269 148.9696 
L 170.892589 123.1912 
L 174.739968 117.182001 
L 186.60804 97.4128 
L 202.725839 71.6344 
L 206.76496 65.478398 
L 219.177781 45.856 
L 209.29614 45.856 
L 206.76496 49.857332 
L 192.476429 71.6344 
L 176.209793 97.4128 
L 174.739968 99.861157 
L 159.802951 123.1912 
L 144.015228 148.9696 
L 142.714976 151.216012 
L 128.023239 174.748 
L 112.636847 200.5264 
L 110.689984 203.980395 
L 97.09686 226.3048 
L 82.074803 252.0832 
L 78.664992 258.259896 
L 67.016997 277.8616 
L 52.359832 303.64 
L 67.494029 303.64 
z
M 236.953854 277.8616 
L 238.789952 273.2475 
L 246.481387 252.0832 
L 256.006018 226.3048 
L 265.631463 200.5264 
L 270.814944 186.942835 
L 275.120804 174.748 
L 284.421356 148.9696 
L 293.790746 123.1912 
L 302.839936 98.701005 
L 303.27941 97.4128 
L 312.250001 71.6344 
L 321.204643 45.856 
L 313.236299 45.856 
L 304.306462 71.6344 
L 302.839936 75.845775 
L 294.613164 97.4128 
L 285.063689 123.1912 
L 275.530293 148.9696 
L 270.814944 161.896532 
L 265.75328 174.748 
L 255.787884 200.5264 
L 245.894252 226.3048 
L 238.789952 245.125351 
L 235.909619 252.0832 
L 225.576849 277.8616 
L 215.395099 303.64 
L 227.063238 303.64 
z
" clip-path="url(#p5dafe9503e)" style="fill: #355e8d"/>
    <path d="M 67.016997 277.8616 
L 78.664992 258.259896 
L 82.074803 252.0832 
L 97.09686 226.3048 
L 110.689984 203.980395 
L 112.636847 200.5264 
L 128.023239 174.748 
L 142.714976 151.216012 
L 144.015228 148.9696 
L 159.802951 123.1912 
L 174.739968 99.861157 
L 176.209793 97.4128 
L 192.476429 71.6344 
L 206.76496 49.857332 
L 209.29614 45.856 
L 206.76496 45.856 
L 199.246863 45.856 
L 182.227019 71.6344 
L 174.739968 83.484109 
L 165.327137 97.4128 
L 148.713312 123.1912 
L 142.714976 132.975359 
L 132.147387 148.9696 
L 115.911153 174.748 
L 110.689984 183.47689 
L 99.676914 200.5264 
L 83.787761 226.3048 
L 78.664992 235.048698 
L 67.90405 252.0832 
L 52.343586 277.8616 
L 46.64 287.775037 
L 46.64 303.64 
L 52.359832 303.64 
z
M 238.789952 303.486606 
L 247.742658 277.8616 
L 256.871551 252.0832 
L 266.117784 226.3048 
L 270.814944 213.537779 
L 275.241886 200.5264 
L 284.228936 174.748 
L 293.312419 148.9696 
L 302.517803 123.1912 
L 302.839936 122.319398 
L 311.336885 97.4128 
L 320.19354 71.6344 
L 329.172987 45.856 
L 321.204643 45.856 
L 312.250001 71.6344 
L 303.27941 97.4128 
L 302.839936 98.701005 
L 293.790746 123.1912 
L 284.421356 148.9696 
L 275.120804 174.748 
L 270.814944 186.942835 
L 265.631463 200.5264 
L 256.006018 226.3048 
L 246.481387 252.0832 
L 238.789952 273.2475 
L 236.953854 277.8616 
L 227.063238 303.64 
L 238.731378 303.64 
z
" clip-path="url(#p5dafe9503e)" style="fill: #306a8e"/>
    <path d="M 52.343586 277.8616 
L 67.90405 252.0832 
L 78.664992 235.048698 
L 83.787761 226.3048 
L 99.676914 200.5264 
L 110.689984 183.47689 
L 115.911153 174.748 
L 132.147387 148.9696 
L 142.714976 132.975359 
L 148.713312 123.1912 
L 165.327137 97.4128 
L 174.739968 83.484109 
L 182.227019 71.6344 
L 199.246863 45.856 
L 189.139861 45.856 
L 174.739968 67.533703 
L 171.817366 71.6344 
L 154.364736 97.4128 
L 142.714976 115.414271 
L 137.289725 123.1912 
L 120.19589 148.9696 
L 110.689984 163.998128 
L 103.349287 174.748 
L 86.596946 200.5264 
L 78.664992 213.324087 
L 69.986531 226.3048 
L 53.553455 252.0832 
L 46.64 263.444825 
L 46.64 277.8616 
L 46.64 287.775037 
z
M 238.789952 303.64 
L 249.701657 303.64 
L 258.418267 277.8616 
L 267.261715 252.0832 
L 270.814944 242.036316 
L 275.960475 226.3048 
L 284.592965 200.5264 
L 293.337068 174.748 
L 302.203482 148.9696 
L 302.839936 147.186126 
L 310.770253 123.1912 
L 319.39436 97.4128 
L 328.13708 71.6344 
L 334.864928 52.357975 
L 336.944763 45.856 
L 334.864928 45.856 
L 329.172987 45.856 
L 320.19354 71.6344 
L 311.336885 97.4128 
L 302.839936 122.319398 
L 302.517803 123.1912 
L 293.312419 148.9696 
L 284.228936 174.748 
L 275.241886 200.5264 
L 270.814944 213.537779 
L 266.117784 226.3048 
L 256.871551 252.0832 
L 247.742658 277.8616 
L 238.789952 303.486606 
L 238.731378 303.64 
z
" clip-path="url(#p5dafe9503e)" style="fill: #2b748e"/>
    <path d="M 269.093875 277.8616 
L 270.814944 272.788738 
L 277.314928 252.0832 
L 285.569743 226.3048 
L 293.944045 200.5264 
L 302.445199 174.748 
L 302.839936 173.598319 
L 310.680152 148.9696 
L 319.004513 123.1912 
L 327.451835 97.4128 
L 334.864928 75.310927 
L 336.002403 71.6344 
L 344.225039 45.856 
L 336.944763 45.856 
L 334.864928 52.357975 
L 328.13708 71.6344 
L 319.39436 97.4128 
L 310.770253 123.1912 
L 302.839936 147.186126 
L 302.203482 148.9696 
L 293.337068 174.748 
L 284.592965 200.5264 
L 275.960475 226.3048 
L 270.814944 242.036316 
L 267.261715 252.0832 
L 258.418267 277.8616 
L 249.701657 303.64 
L 260.668416 303.64 
z
M 53.553455 252.0832 
L 69.986531 226.3048 
L 78.664992 213.324087 
L 86.596946 200.5264 
L 103.349287 174.748 
L 110.689984 163.998128 
L 120.19589 148.9696 
L 137.289725 123.1912 
L 142.714976 115.414271 
L 154.364736 97.4128 
L 171.817366 71.6344 
L 174.739968 67.533703 
L 189.139861 45.856 
L 179.032858 45.856 
L 174.739968 52.318547 
L 160.973395 71.6344 
L 143.402335 97.4128 
L 142.714976 98.474923 
L 125.472696 123.1912 
L 110.689984 145.345689 
L 108.079218 148.9696 
L 90.446627 174.748 
L 78.664992 192.761888 
L 73.186039 200.5264 
L 55.87734 226.3048 
L 46.64 240.693493 
L 46.64 252.0832 
L 46.64 263.444825 
z
" clip-path="url(#p5dafe9503e)" style="fill: #27808e"/>
    <path d="M 270.814944 303.64 
L 271.595698 303.64 
L 279.33284 277.8616 
L 287.193024 252.0832 
L 295.179011 226.3048 
L 302.839936 202.009792 
L 303.274207 200.5264 
L 311.139842 174.748 
L 319.124872 148.9696 
L 327.238774 123.1912 
L 334.864928 99.461834 
L 335.474309 97.4128 
L 343.434863 71.6344 
L 351.505315 45.856 
L 344.225039 45.856 
L 336.002403 71.6344 
L 334.864928 75.310927 
L 327.451835 97.4128 
L 319.004513 123.1912 
L 310.680152 148.9696 
L 302.839936 173.598319 
L 302.445199 174.748 
L 293.944045 200.5264 
L 285.569743 226.3048 
L 277.314928 252.0832 
L 270.814944 272.788738 
L 269.093875 277.8616 
L 260.668416 303.64 
z
M 55.87734 226.3048 
L 73.186039 200.5264 
L 78.664992 192.761888 
L 90.446627 174.748 
L 108.079218 148.9696 
L 110.689984 145.345689 
L 125.472696 123.1912 
L 142.714976 98.474923 
L 143.402335 97.4128 
L 160.973395 71.6344 
L 174.739968 52.318547 
L 179.032858 45.856 
L 174.739968 45.856 
L 168.564336 45.856 
L 150.129424 71.6344 
L 142.714976 82.507499 
L 131.748904 97.4128 
L 113.655666 123.1912 
L 110.689984 127.635795 
L 95.320516 148.9696 
L 78.664992 173.139368 
L 77.468748 174.748 
L 59.265227 200.5264 
L 46.64 219.196523 
L 46.64 226.3048 
L 46.64 240.693493 
z
" clip-path="url(#p5dafe9503e)" style="fill: #228b8d"/>
    <path d="M 289.487881 277.8616 
L 297.07112 252.0832 
L 302.839936 232.948197 
L 304.700793 226.3048 
L 312.195556 200.5264 
L 319.815753 174.748 
L 327.569591 148.9696 
L 334.864928 125.221341 
L 335.443173 123.1912 
L 343.094135 97.4128 
L 350.867324 71.6344 
L 358.785591 45.856 
L 351.505315 45.856 
L 343.434863 71.6344 
L 335.474309 97.4128 
L 334.864928 99.461834 
L 327.238774 123.1912 
L 319.124872 148.9696 
L 311.139842 174.748 
L 303.274207 200.5264 
L 302.839936 202.009792 
L 295.179011 226.3048 
L 287.193024 252.0832 
L 279.33284 277.8616 
L 271.595698 303.64 
L 282.034632 303.64 
z
M 59.265227 200.5264 
L 77.468748 174.748 
L 78.664992 173.139368 
L 95.320516 148.9696 
L 110.689984 127.635795 
L 113.655666 123.1912 
L 131.748904 97.4128 
L 142.714976 82.507499 
L 150.129424 71.6344 
L 168.564336 45.856 
L 157.828884 45.856 
L 142.714976 66.905762 
L 139.046768 71.6344 
L 120.049247 97.4128 
L 110.689984 110.725766 
L 101.223447 123.1912 
L 82.561814 148.9696 
L 78.664992 154.624497 
L 63.700349 174.748 
L 46.64 198.725457 
L 46.64 200.5264 
L 46.64 219.196523 
z
" clip-path="url(#p5dafe9503e)" style="fill: #1f958b"/>
    <path d="M 299.642923 277.8616 
L 302.839936 266.756855 
L 306.768433 252.0832 
L 313.878579 226.3048 
L 321.116906 200.5264 
L 328.491665 174.748 
L 334.864928 152.999247 
L 335.96142 148.9696 
L 343.27309 123.1912 
L 350.713962 97.4128 
L 358.299784 71.6344 
L 366.065867 45.856 
L 358.785591 45.856 
L 350.867324 71.6344 
L 343.094135 97.4128 
L 335.443173 123.1912 
L 334.864928 125.221341 
L 327.569591 148.9696 
L 319.815753 174.748 
L 312.195556 200.5264 
L 304.700793 226.3048 
L 302.839936 232.948197 
L 297.07112 252.0832 
L 289.487881 277.8616 
L 282.034632 303.64 
L 292.473566 303.64 
z
M 63.700349 174.748 
L 78.664992 154.624497 
L 82.561814 148.9696 
L 101.223447 123.1912 
L 110.689984 110.725766 
L 120.049247 97.4128 
L 139.046768 71.6344 
L 142.714976 66.905762 
L 157.828884 45.856 
L 147.093433 45.856 
L 142.714976 51.954057 
L 127.448085 71.6344 
L 110.689984 94.277775 
L 108.181481 97.4128 
L 88.585106 123.1912 
L 78.664992 136.86749 
L 69.18756 148.9696 
L 49.93195 174.748 
L 46.64 179.374669 
L 46.64 198.725457 
z
" clip-path="url(#p5dafe9503e)" style="fill: #1fa188"/>
    <path d="M 302.839936 303.64 
L 302.909427 303.64 
L 309.497665 277.8616 
L 316.211953 252.0832 
L 323.056364 226.3048 
L 330.038255 200.5264 
L 334.864928 183.231999 
L 337.066376 174.748 
L 344.017545 148.9696 
L 351.103007 123.1912 
L 358.333788 97.4128 
L 365.732244 71.6344 
L 366.88992 67.783119 
L 366.88992 45.856 
L 366.065867 45.856 
L 358.299784 71.6344 
L 350.713962 97.4128 
L 343.27309 123.1912 
L 335.96142 148.9696 
L 334.864928 152.999247 
L 328.491665 174.748 
L 321.116906 200.5264 
L 313.878579 226.3048 
L 306.768433 252.0832 
L 302.839936 266.756855 
L 299.642923 277.8616 
L 292.473566 303.64 
z
M 49.93195 174.748 
L 69.18756 148.9696 
L 78.664992 136.86749 
L 88.585106 123.1912 
L 108.181481 97.4128 
L 110.689984 94.277775 
L 127.448085 71.6344 
L 142.714976 51.954057 
L 147.093433 45.856 
L 142.714976 45.856 
L 135.897327 45.856 
L 115.849403 71.6344 
L 110.689984 78.605754 
L 95.641449 97.4128 
L 78.664992 119.65719 
L 75.751405 123.1912 
L 55.542632 148.9696 
L 46.64 160.869732 
L 46.64 174.748 
L 46.64 179.374669 
z
" clip-path="url(#p5dafe9503e)" style="fill: #25ac82"/>
    <path d="M 319.214428 277.8616 
L 325.655474 252.0832 
L 332.23415 226.3048 
L 334.864928 216.394565 
L 338.785946 200.5264 
L 345.36099 174.748 
L 352.07367 148.9696 
L 358.932924 123.1912 
L 365.953614 97.4128 
L 366.88992 94.137516 
L 366.88992 71.6344 
L 366.88992 67.783119 
L 365.732244 71.6344 
L 358.333788 97.4128 
L 351.103007 123.1912 
L 344.017545 148.9696 
L 337.066376 174.748 
L 334.864928 183.231999 
L 330.038255 200.5264 
L 323.056364 226.3048 
L 316.211953 252.0832 
L 309.497665 277.8616 
L 302.909427 303.64 
L 312.906237 303.64 
z
M 55.542632 148.9696 
L 75.751405 123.1912 
L 78.664992 119.65719 
L 95.641449 97.4128 
L 110.689984 78.605754 
L 115.849403 71.6344 
L 135.897327 45.856 
L 124.383941 45.856 
L 110.689984 63.43096 
L 103.772803 71.6344 
L 83.101417 97.4128 
L 78.664992 103.225884 
L 62.204743 123.1912 
L 46.64 142.982864 
L 46.64 148.9696 
L 46.64 160.869732 
z
" clip-path="url(#p5dafe9503e)" style="fill: #32b67a"/>
    <path d="M 328.931191 277.8616 
L 334.864928 253.088686 
L 335.089589 252.0832 
L 341.142222 226.3048 
L 347.328932 200.5264 
L 353.655603 174.748 
L 360.129794 148.9696 
L 366.762841 123.1912 
L 366.88992 122.722871 
L 366.88992 97.4128 
L 366.88992 94.137516 
L 365.953614 97.4128 
L 358.932924 123.1912 
L 352.07367 148.9696 
L 345.36099 174.748 
L 338.785946 200.5264 
L 334.864928 216.394565 
L 332.23415 226.3048 
L 325.655474 252.0832 
L 319.214428 277.8616 
L 312.906237 303.64 
L 322.903047 303.64 
z
M 62.204743 123.1912 
L 78.664992 103.225884 
L 83.101417 97.4128 
L 103.772803 71.6344 
L 110.689984 63.43096 
L 124.383941 45.856 
L 112.870555 45.856 
L 110.689984 48.654566 
L 91.313273 71.6344 
L 78.664992 87.385828 
L 69.960062 97.4128 
L 48.65808 123.1912 
L 46.64 125.757331 
L 46.64 142.982864 
z
" clip-path="url(#p5dafe9503e)" style="fill: #46c06f"/>
    <path d="M 334.864928 294.991326 
L 338.499354 277.8616 
L 344.153619 252.0832 
L 349.941915 226.3048 
L 355.871919 200.5264 
L 361.950216 174.748 
L 366.88992 154.452134 
L 366.88992 148.9696 
L 366.88992 123.1912 
L 366.88992 122.722871 
L 366.762841 123.1912 
L 360.129794 148.9696 
L 353.655603 174.748 
L 347.328932 200.5264 
L 341.142222 226.3048 
L 335.089589 252.0832 
L 334.864928 253.088686 
L 328.931191 277.8616 
L 322.903047 303.64 
L 332.899857 303.64 
z
M 48.65808 123.1912 
L 69.960062 97.4128 
L 78.664992 87.385828 
L 91.313273 71.6344 
L 110.689984 48.654566 
L 112.870555 45.856 
L 110.689984 45.856 
L 100.638029 45.856 
L 78.853744 71.6344 
L 78.664992 71.86946 
L 56.489506 97.4128 
L 46.64 109.325749 
L 46.64 123.1912 
L 46.64 125.757331 
z
" clip-path="url(#p5dafe9503e)" style="fill: #5ec962"/>
    <path d="M 334.864928 303.64 
L 342.588423 303.64 
L 347.834435 277.8616 
L 353.21765 252.0832 
L 358.741609 226.3048 
L 364.414905 200.5264 
L 366.88992 189.767918 
L 366.88992 174.748 
L 366.88992 154.452134 
L 361.950216 174.748 
L 355.871919 200.5264 
L 349.941915 226.3048 
L 344.153619 252.0832 
L 338.499354 277.8616 
L 334.864928 294.991326 
L 332.899857 303.64 
z
M 56.489506 97.4128 
L 78.664992 71.86946 
L 78.853744 71.6344 
L 100.638029 45.856 
L 88.237478 45.856 
L 78.664992 57.183123 
L 65.449935 71.6344 
L 46.64 93.264911 
L 46.64 97.4128 
L 46.64 109.325749 
z
" clip-path="url(#p5dafe9503e)" style="fill: #77d153"/>
    <path d="M 357.169515 277.8616 
L 362.281681 252.0832 
L 366.88992 229.58106 
L 366.88992 226.3048 
L 366.88992 200.5264 
L 366.88992 189.767918 
L 364.414905 200.5264 
L 358.741609 226.3048 
L 353.21765 252.0832 
L 347.834435 277.8616 
L 342.588423 303.64 
L 352.201574 303.64 
z
M 65.449935 71.6344 
L 78.664992 57.183123 
L 88.237478 45.856 
L 78.664992 45.856 
L 75.611549 45.856 
L 52.031602 71.6344 
L 46.64 77.83448 
L 46.64 93.264911 
z
" clip-path="url(#p5dafe9503e)" style="fill: #95d840"/>
    <path d="M 366.504596 277.8616 
L 366.88992 275.864752 
L 366.88992 252.0832 
L 366.88992 229.58106 
L 362.281681 252.0832 
L 357.169515 277.8616 
L 352.201574 303.64 
L 361.814725 303.64 
z
M 52.031602 71.6344 
L 75.611549 45.856 
L 62.222752 45.856 
L 46.64 62.883024 
L 46.64 71.6344 
L 46.64 77.83448 
z
" clip-path="url(#p5dafe9503e)" style="fill: #b2dd2d"/>
    <path d="M 366.88992 303.64 
L 366.88992 277.8616 
L 366.88992 275.864752 
L 366.504596 277.8616 
L 361.814725 303.64 
z
M 62.222752 45.856 
L 48.833954 45.856 
L 46.64 48.253299 
L 46.64 62.883024 
z
" clip-path="url(#p5dafe9503e)" style="fill: #d2e21b"/>
    <path d="M 48.833954 45.856 
L 46.64 45.856 
L 46.64 48.253299 
z
" clip-path="url(#p5dafe9503e)" style="fill: #f1e51d"/>
   </g>
   <g id="PathCollection_1">
    <defs>
     <path id="m9d8fd7123d" d="M 0 3 
C 0.795609 3 1.55874 2.683901 2.12132 2.12132 
C 2.683901 1.55874 3 0.795609 3 0 
C 3 -0.795609 2.683901 -1.55874 2.12132 -2.12132 
C 1.55874 -2.683901 0.795609 -3 0 -3 
C -0.795609 -3 -1.55874 -2.683901 -2.12132 -2.12132 
C -2.683901 -1.55874 -3 -0.795609 -3 0 
C -3 0.795609 -2.683901 1.55874 -2.12132 2.12132 
C -1.55874 2.683901 -0.795609 3 0 3 
z
" style="stroke: #ff0000"/>
    </defs>
    <g clip-path="url(#p5dafe9503e)">
     <use xlink:href="#m9d8fd7123d" x="238.78995" y="197.304098" style="fill: #ff0000; stroke: #ff0000"/>
    </g>
   </g>
   <g id="matplotlib.axis_1">
    <g id="xtick_1">
     <g id="line2d_1">
      <defs>
       <path id="m6de5ada452" d="M 0 0 
L 0 3.5 
" style="stroke: #000000; stroke-width: 0.8"/>
      </defs>
      <g>
       <use xlink:href="#m6de5ada452" x="46.64" y="303.64" style="stroke: #000000; stroke-width: 0.8"/>
      </g>
     </g>
     <g id="text_1">
      <!-- −4 -->
      <g transform="translate(39.268906 318.238437) scale(0.1 -0.1)">
       <defs>
        <path id="DejaVuSans-2212" d="M 678 2272 
L 4684 2272 
L 4684 1741 
L 678 1741 
L 678 2272 
z
" transform="scale(0.015625)"/>
        <path id="DejaVuSans-34" d="M 2419 4116 
L 825 1625 
L 2419 1625 
L 2419 4116 
z
M 2253 4666 
L 3047 4666 
L 3047 1625 
L 3713 1625 
L 3713 1100 
L 3047 1100 
L 3047 0 
L 2419 0 
L 2419 1100 
L 313 1100 
L 313 1709 
L 2253 4666 
z
" transform="scale(0.015625)"/>
       </defs>
       <use xlink:href="#DejaVuSans-2212"/>
       <use xlink:href="#DejaVuSans-34" transform="translate(83.789062 0)"/>
      </g>
     </g>
    </g>
    <g id="xtick_2">
     <g id="line2d_2">
      <g>
       <use xlink:href="#m6de5ada452" x="86.67124" y="303.64" style="stroke: #000000; stroke-width: 0.8"/>
      </g>
     </g>
     <g id="text_2">
      <!-- −3 -->
      <g transform="translate(79.300146 318.238437) scale(0.1 -0.1)">
       <defs>
        <path id="DejaVuSans-33" d="M 2597 2516 
Q 3050 2419 3304 2112 
Q 3559 1806 3559 1356 
Q 3559 666 3084 287 
Q 2609 -91 1734 -91 
Q 1441 -91 1130 -33 
Q 819 25 488 141 
L 488 750 
Q 750 597 1062 519 
Q 1375 441 1716 441 
Q 2309 441 2620 675 
Q 2931 909 2931 1356 
Q 2931 1769 2642 2001 
Q 2353 2234 1838 2234 
L 1294 2234 
L 1294 2753 
L 1863 2753 
Q 2328 2753 2575 2939 
Q 2822 3125 2822 3475 
Q 2822 3834 2567 4026 
Q 2313 4219 1838 4219 
Q 1578 4219 1281 4162 
Q 984 4106 628 3988 
L 628 4550 
Q 988 4650 1302 4700 
Q 1616 4750 1894 4750 
Q 2613 4750 3031 4423 
Q 3450 4097 3450 3541 
Q 3450 3153 3228 2886 
Q 3006 2619 2597 2516 
z
" transform="scale(0.015625)"/>
       </defs>
       <use xlink:href="#DejaVuSans-2212"/>
       <use xlink:href="#DejaVuSans-33" transform="translate(83.789062 0)"/>
      </g>
     </g>
    </g>
    <g id="xtick_3">
     <g id="line2d_3">
      <g>
       <use xlink:href="#m6de5ada452" x="126.70248" y="303.64" style="stroke: #000000; stroke-width: 0.8"/>
      </g>
     </g>
     <g id="text_3">
      <!-- −2 -->
      <g transform="translate(119.331386 318.238437) scale(0.1 -0.1)">
       <defs>
        <path id="DejaVuSans-32" d="M 1228 531 
L 3431 531 
L 3431 0 
L 469 0 
L 469 531 
Q 828 903 1448 1529 
Q 2069 2156 2228 2338 
Q 2531 2678 2651 2914 
Q 2772 3150 2772 3378 
Q 2772 3750 2511 3984 
Q 2250 4219 1831 4219 
Q 1534 4219 1204 4116 
Q 875 4013 500 3803 
L 500 4441 
Q 881 4594 1212 4672 
Q 1544 4750 1819 4750 
Q 2544 4750 2975 4387 
Q 3406 4025 3406 3419 
Q 3406 3131 3298 2873 
Q 3191 2616 2906 2266 
Q 2828 2175 2409 1742 
Q 1991 1309 1228 531 
z
" transform="scale(0.015625)"/>
       </defs>
       <use xlink:href="#DejaVuSans-2212"/>
       <use xlink:href="#DejaVuSans-32" transform="translate(83.789062 0)"/>
      </g>
     </g>
    </g>
    <g id="xtick_4">
     <g id="line2d_4">
      <g>
       <use xlink:href="#m6de5ada452" x="166.73372" y="303.64" style="stroke: #000000; stroke-width: 0.8"/>
      </g>
     </g>
     <g id="text_4">
      <!-- −1 -->
      <g transform="translate(159.362626 318.238437) scale(0.1 -0.1)">
       <defs>
        <path id="DejaVuSans-31" d="M 794 531 
L 1825 531 
L 1825 4091 
L 703 3866 
L 703 4441 
L 1819 4666 
L 2450 4666 
L 2450 531 
L 3481 531 
L 3481 0 
L 794 0 
L 794 531 
z
" transform="scale(0.015625)"/>
       </defs>
       <use xlink:href="#DejaVuSans-2212"/>
       <use xlink:href="#DejaVuSans-31" transform="translate(83.789062 0)"/>
      </g>
     </g>
    </g>
    <g id="xtick_5">
     <g id="line2d_5">
      <g>
       <use xlink:href="#m6de5ada452" x="206.76496" y="303.64" style="stroke: #000000; stroke-width: 0.8"/>
      </g>
     </g>
     <g id="text_5">
      <!-- 0 -->
      <g transform="translate(203.58371 318.238437) scale(0.1 -0.1)">
       <defs>
        <path id="DejaVuSans-30" d="M 2034 4250 
Q 1547 4250 1301 3770 
Q 1056 3291 1056 2328 
Q 1056 1369 1301 889 
Q 1547 409 2034 409 
Q 2525 409 2770 889 
Q 3016 1369 3016 2328 
Q 3016 3291 2770 3770 
Q 2525 4250 2034 4250 
z
M 2034 4750 
Q 2819 4750 3233 4129 
Q 3647 3509 3647 2328 
Q 3647 1150 3233 529 
Q 2819 -91 2034 -91 
Q 1250 -91 836 529 
Q 422 1150 422 2328 
Q 422 3509 836 4129 
Q 1250 4750 2034 4750 
z
" transform="scale(0.015625)"/>
       </defs>
       <use xlink:href="#DejaVuSans-30"/>
      </g>
     </g>
    </g>
    <g id="xtick_6">
     <g id="line2d_6">
      <g>
       <use xlink:href="#m6de5ada452" x="246.7962" y="303.64" style="stroke: #000000; stroke-width: 0.8"/>
      </g>
     </g>
     <g id="text_6">
      <!-- 1 -->
      <g transform="translate(243.61495 318.238437) scale(0.1 -0.1)">
       <use xlink:href="#DejaVuSans-31"/>
      </g>
     </g>
    </g>
    <g id="xtick_7">
     <g id="line2d_7">
      <g>
       <use xlink:href="#m6de5ada452" x="286.82744" y="303.64" style="stroke: #000000; stroke-width: 0.8"/>
      </g>
     </g>
     <g id="text_7">
      <!-- 2 -->
      <g transform="translate(283.64619 318.238437) scale(0.1 -0.1)">
       <use xlink:href="#DejaVuSans-32"/>
      </g>
     </g>
    </g>
    <g id="xtick_8">
     <g id="line2d_8">
      <g>
       <use xlink:href="#m6de5ada452" x="326.85868" y="303.64" style="stroke: #000000; stroke-width: 0.8"/>
      </g>
     </g>
     <g id="text_8">
      <!-- 3 -->
      <g transform="translate(323.67743 318.238437) scale(0.1 -0.1)">
       <use xlink:href="#DejaVuSans-33"/>
      </g>
     </g>
    </g>
    <g id="xtick_9">
     <g id="line2d_9">
      <g>
       <use xlink:href="#m6de5ada452" x="366.88992" y="303.64" style="stroke: #000000; stroke-width: 0.8"/>
      </g>
     </g>
     <g id="text_9">
      <!-- 4 -->
      <g transform="translate(363.70867 318.238437) scale(0.1 -0.1)">
       <use xlink:href="#DejaVuSans-34"/>
      </g>
     </g>
    </g>
    <g id="text_10">
     <!-- Relative distance in first direction -->
     <g transform="translate(122.82121 331.916562) scale(0.1 -0.1)">
      <defs>
       <path id="DejaVuSans-52" d="M 2841 2188 
Q 3044 2119 3236 1894 
Q 3428 1669 3622 1275 
L 4263 0 
L 3584 0 
L 2988 1197 
Q 2756 1666 2539 1819 
Q 2322 1972 1947 1972 
L 1259 1972 
L 1259 0 
L 628 0 
L 628 4666 
L 2053 4666 
Q 2853 4666 3247 4331 
Q 3641 3997 3641 3322 
Q 3641 2881 3436 2590 
Q 3231 2300 2841 2188 
z
M 1259 4147 
L 1259 2491 
L 2053 2491 
Q 2509 2491 2742 2702 
Q 2975 2913 2975 3322 
Q 2975 3731 2742 3939 
Q 2509 4147 2053 4147 
L 1259 4147 
z
" transform="scale(0.015625)"/>
       <path id="DejaVuSans-65" d="M 3597 1894 
L 3597 1613 
L 953 1613 
Q 991 1019 1311 708 
Q 1631 397 2203 397 
Q 2534 397 2845 478 
Q 3156 559 3463 722 
L 3463 178 
Q 3153 47 2828 -22 
Q 2503 -91 2169 -91 
Q 1331 -91 842 396 
Q 353 884 353 1716 
Q 353 2575 817 3079 
Q 1281 3584 2069 3584 
Q 2775 3584 3186 3129 
Q 3597 2675 3597 1894 
z
M 3022 2063 
Q 3016 2534 2758 2815 
Q 2500 3097 2075 3097 
Q 1594 3097 1305 2825 
Q 1016 2553 972 2059 
L 3022 2063 
z
" transform="scale(0.015625)"/>
       <path id="DejaVuSans-6c" d="M 603 4863 
L 1178 4863 
L 1178 0 
L 603 0 
L 603 4863 
z
" transform="scale(0.015625)"/>
       <path id="DejaVuSans-61" d="M 2194 1759 
Q 1497 1759 1228 1600 
Q 959 1441 959 1056 
Q 959 750 1161 570 
Q 1363 391 1709 391 
Q 2188 391 2477 730 
Q 2766 1069 2766 1631 
L 2766 1759 
L 2194 1759 
z
M 3341 1997 
L 3341 0 
L 2766 0 
L 2766 531 
Q 2569 213 2275 61 
Q 1981 -91 1556 -91 
Q 1019 -91 701 211 
Q 384 513 384 1019 
Q 384 1609 779 1909 
Q 1175 2209 1959 2209 
L 2766 2209 
L 2766 2266 
Q 2766 2663 2505 2880 
Q 2244 3097 1772 3097 
Q 1472 3097 1187 3025 
Q 903 2953 641 2809 
L 641 3341 
Q 956 3463 1253 3523 
Q 1550 3584 1831 3584 
Q 2591 3584 2966 3190 
Q 3341 2797 3341 1997 
z
" transform="scale(0.015625)"/>
       <path id="DejaVuSans-74" d="M 1172 4494 
L 1172 3500 
L 2356 3500 
L 2356 3053 
L 1172 3053 
L 1172 1153 
Q 1172 725 1289 603 
Q 1406 481 1766 481 
L 2356 481 
L 2356 0 
L 1766 0 
Q 1100 0 847 248 
Q 594 497 594 1153 
L 594 3053 
L 172 3053 
L 172 3500 
L 594 3500 
L 594 4494 
L 1172 4494 
z
" transform="scale(0.015625)"/>
       <path id="DejaVuSans-69" d="M 603 3500 
L 1178 3500 
L 1178 0 
L 603 0 
L 603 3500 
z
M 603 4863 
L 1178 4863 
L 1178 4134 
L 603 4134 
L 603 4863 
z
" transform="scale(0.015625)"/>
       <path id="DejaVuSans-76" d="M 191 3500 
L 800 3500 
L 1894 563 
L 2988 3500 
L 3597 3500 
L 2284 0 
L 1503 0 
L 191 3500 
z
" transform="scale(0.015625)"/>
       <path id="DejaVuSans-20" transform="scale(0.015625)"/>
       <path id="DejaVuSans-64" d="M 2906 2969 
L 2906 4863 
L 3481 4863 
L 3481 0 
L 2906 0 
L 2906 525 
Q 2725 213 2448 61 
Q 2172 -91 1784 -91 
Q 1150 -91 751 415 
Q 353 922 353 1747 
Q 353 2572 751 3078 
Q 1150 3584 1784 3584 
Q 2172 3584 2448 3432 
Q 2725 3281 2906 2969 
z
M 947 1747 
Q 947 1113 1208 752 
Q 1469 391 1925 391 
Q 2381 391 2643 752 
Q 2906 1113 2906 1747 
Q 2906 2381 2643 2742 
Q 2381 3103 1925 3103 
Q 1469 3103 1208 2742 
Q 947 2381 947 1747 
z
" transform="scale(0.015625)"/>
       <path id="DejaVuSans-73" d="M 2834 3397 
L 2834 2853 
Q 2591 2978 2328 3040 
Q 2066 3103 1784 3103 
Q 1356 3103 1142 2972 
Q 928 2841 928 2578 
Q 928 2378 1081 2264 
Q 1234 2150 1697 2047 
L 1894 2003 
Q 2506 1872 2764 1633 
Q 3022 1394 3022 966 
Q 3022 478 2636 193 
Q 2250 -91 1575 -91 
Q 1294 -91 989 -36 
Q 684 19 347 128 
L 347 722 
Q 666 556 975 473 
Q 1284 391 1588 391 
Q 1994 391 2212 530 
Q 2431 669 2431 922 
Q 2431 1156 2273 1281 
Q 2116 1406 1581 1522 
L 1381 1569 
Q 847 1681 609 1914 
Q 372 2147 372 2553 
Q 372 3047 722 3315 
Q 1072 3584 1716 3584 
Q 2034 3584 2315 3537 
Q 2597 3491 2834 3397 
z
" transform="scale(0.015625)"/>
       <path id="DejaVuSans-6e" d="M 3513 2113 
L 3513 0 
L 2938 0 
L 2938 2094 
Q 2938 2591 2744 2837 
Q 2550 3084 2163 3084 
Q 1697 3084 1428 2787 
Q 1159 2491 1159 1978 
L 1159 0 
L 581 0 
L 581 3500 
L 1159 3500 
L 1159 2956 
Q 1366 3272 1645 3428 
Q 1925 3584 2291 3584 
Q 2894 3584 3203 3211 
Q 3513 2838 3513 2113 
z
" transform="scale(0.015625)"/>
       <path id="DejaVuSans-63" d="M 3122 3366 
L 3122 2828 
Q 2878 2963 2633 3030 
Q 2388 3097 2138 3097 
Q 1578 3097 1268 2742 
Q 959 2388 959 1747 
Q 959 1106 1268 751 
Q 1578 397 2138 397 
Q 2388 397 2633 464 
Q 2878 531 3122 666 
L 3122 134 
Q 2881 22 2623 -34 
Q 2366 -91 2075 -91 
Q 1284 -91 818 406 
Q 353 903 353 1747 
Q 353 2603 823 3093 
Q 1294 3584 2113 3584 
Q 2378 3584 2631 3529 
Q 2884 3475 3122 3366 
z
" transform="scale(0.015625)"/>
       <path id="DejaVuSans-66" d="M 2375 4863 
L 2375 4384 
L 1825 4384 
Q 1516 4384 1395 4259 
Q 1275 4134 1275 3809 
L 1275 3500 
L 2222 3500 
L 2222 3053 
L 1275 3053 
L 1275 0 
L 697 0 
L 697 3053 
L 147 3053 
L 147 3500 
L 697 3500 
L 697 3744 
Q 697 4328 969 4595 
Q 1241 4863 1831 4863 
L 2375 4863 
z
" transform="scale(0.015625)"/>
       <path id="DejaVuSans-72" d="M 2631 2963 
Q 2534 3019 2420 3045 
Q 2306 3072 2169 3072 
Q 1681 3072 1420 2755 
Q 1159 2438 1159 1844 
L 1159 0 
L 581 0 
L 581 3500 
L 1159 3500 
L 1159 2956 
Q 1341 3275 1631 3429 
Q 1922 3584 2338 3584 
Q 2397 3584 2469 3576 
Q 2541 3569 2628 3553 
L 2631 2963 
z
" transform="scale(0.015625)"/>
       <path id="DejaVuSans-6f" d="M 1959 3097 
Q 1497 3097 1228 2736 
Q 959 2375 959 1747 
Q 959 1119 1226 758 
Q 1494 397 1959 397 
Q 2419 397 2687 759 
Q 2956 1122 2956 1747 
Q 2956 2369 2687 2733 
Q 2419 3097 1959 3097 
z
M 1959 3584 
Q 2709 3584 3137 3096 
Q 3566 2609 3566 1747 
Q 3566 888 3137 398 
Q 2709 -91 1959 -91 
Q 1206 -91 779 398 
Q 353 888 353 1747 
Q 353 2609 779 3096 
Q 1206 3584 1959 3584 
z
" transform="scale(0.015625)"/>
      </defs>
      <use xlink:href="#DejaVuSans-52"/>
      <use xlink:href="#DejaVuSans-65" transform="translate(64.982422 0)"/>
      <use xlink:href="#DejaVuSans-6c" transform="translate(126.505859 0)"/>
      <use xlink:href="#DejaVuSans-61" transform="translate(154.289062 0)"/>
      <use xlink:href="#DejaVuSans-74" transform="translate(215.568359 0)"/>
      <use xlink:href="#DejaVuSans-69" transform="translate(254.777344 0)"/>
      <use xlink:href="#DejaVuSans-76" transform="translate(282.560547 0)"/>
      <use xlink:href="#DejaVuSans-65" transform="translate(341.740234 0)"/>
      <use xlink:href="#DejaVuSans-20" transform="translate(403.263672 0)"/>
      <use xlink:href="#DejaVuSans-64" transform="translate(435.050781 0)"/>
      <use xlink:href="#DejaVuSans-69" transform="translate(498.527344 0)"/>
      <use xlink:href="#DejaVuSans-73" transform="translate(526.310547 0)"/>
      <use xlink:href="#DejaVuSans-74" transform="translate(578.410156 0)"/>
      <use xlink:href="#DejaVuSans-61" transform="translate(617.619141 0)"/>
      <use xlink:href="#DejaVuSans-6e" transform="translate(678.898438 0)"/>
      <use xlink:href="#DejaVuSans-63" transform="translate(742.277344 0)"/>
      <use xlink:href="#DejaVuSans-65" transform="translate(797.257812 0)"/>
      <use xlink:href="#DejaVuSans-20" transform="translate(858.78125 0)"/>
      <use xlink:href="#DejaVuSans-69" transform="translate(890.568359 0)"/>
      <use xlink:href="#DejaVuSans-6e" transform="translate(918.351562 0)"/>
      <use xlink:href="#DejaVuSans-20" transform="translate(981.730469 0)"/>
      <use xlink:href="#DejaVuSans-66" transform="translate(1013.517578 0)"/>
      <use xlink:href="#DejaVuSans-69" transform="translate(1048.722656 0)"/>
      <use xlink:href="#DejaVuSans-72" transform="translate(1076.505859 0)"/>
      <use xlink:href="#DejaVuSans-73" transform="translate(1117.619141 0)"/>
      <use xlink:href="#DejaVuSans-74" transform="translate(1169.71875 0)"/>
      <use xlink:href="#DejaVuSans-20" transform="translate(1208.927734 0)"/>
      <use xlink:href="#DejaVuSans-64" transform="translate(1240.714844 0)"/>
      <use xlink:href="#DejaVuSans-69" transform="translate(1304.191406 0)"/>
      <use xlink:href="#DejaVuSans-72" transform="translate(1331.974609 0)"/>
      <use xlink:href="#DejaVuSans-65" transform="translate(1370.837891 0)"/>
      <use xlink:href="#DejaVuSans-63" transform="translate(1432.361328 0)"/>
      <use xlink:href="#DejaVuSans-74" transform="translate(1487.341797 0)"/>
      <use xlink:href="#DejaVuSans-69" transform="translate(1526.550781 0)"/>
      <use xlink:href="#DejaVuSans-6f" transform="translate(1554.333984 0)"/>
      <use xlink:href="#DejaVuSans-6e" transform="translate(1615.515625 0)"/>
     </g>
    </g>
   </g>
   <g id="matplotlib.axis_2">
    <g id="ytick_1">
     <g id="line2d_10">
      <defs>
       <path id="mdd78d4d6c3" d="M 0 0 
L -3.5 0 
" style="stroke: #000000; stroke-width: 0.8"/>
      </defs>
      <g>
       <use xlink:href="#mdd78d4d6c3" x="46.64" y="303.64" style="stroke: #000000; stroke-width: 0.8"/>
      </g>
     </g>
     <g id="text_11">
      <!-- −4 -->
      <g transform="translate(24.897813 307.439219) scale(0.1 -0.1)">
       <use xlink:href="#DejaVuSans-2212"/>
       <use xlink:href="#DejaVuSans-34" transform="translate(83.789062 0)"/>
      </g>
     </g>
    </g>
    <g id="ytick_2">
     <g id="line2d_11">
      <g>
       <use xlink:href="#mdd78d4d6c3" x="46.64" y="271.417" style="stroke: #000000; stroke-width: 0.8"/>
      </g>
     </g>
     <g id="text_12">
      <!-- −3 -->
      <g transform="translate(24.897813 275.216219) scale(0.1 -0.1)">
       <use xlink:href="#DejaVuSans-2212"/>
       <use xlink:href="#DejaVuSans-33" transform="translate(83.789062 0)"/>
      </g>
     </g>
    </g>
    <g id="ytick_3">
     <g id="line2d_12">
      <g>
       <use xlink:href="#mdd78d4d6c3" x="46.64" y="239.194" style="stroke: #000000; stroke-width: 0.8"/>
      </g>
     </g>
     <g id="text_13">
      <!-- −2 -->
      <g transform="translate(24.897813 242.993219) scale(0.1 -0.1)">
       <use xlink:href="#DejaVuSans-2212"/>
       <use xlink:href="#DejaVuSans-32" transform="translate(83.789062 0)"/>
      </g>
     </g>
    </g>
    <g id="ytick_4">
     <g id="line2d_13">
      <g>
       <use xlink:href="#mdd78d4d6c3" x="46.64" y="206.971" style="stroke: #000000; stroke-width: 0.8"/>
      </g>
     </g>
     <g id="text_14">
      <!-- −1 -->
      <g transform="translate(24.897813 210.770219) scale(0.1 -0.1)">
       <use xlink:href="#DejaVuSans-2212"/>
       <use xlink:href="#DejaVuSans-31" transform="translate(83.789062 0)"/>
      </g>
     </g>
    </g>
    <g id="ytick_5">
     <g id="line2d_14">
      <g>
       <use xlink:href="#mdd78d4d6c3" x="46.64" y="174.748" style="stroke: #000000; stroke-width: 0.8"/>
      </g>
     </g>
     <g id="text_15">
      <!-- 0 -->
      <g transform="translate(33.2775 178.547219) scale(0.1 -0.1)">
       <use xlink:href="#DejaVuSans-30"/>
      </g>
     </g>
    </g>
    <g id="ytick_6">
     <g id="line2d_15">
      <g>
       <use xlink:href="#mdd78d4d6c3" x="46.64" y="142.525" style="stroke: #000000; stroke-width: 0.8"/>
      </g>
     </g>
     <g id="text_16">
      <!-- 1 -->
      <g transform="translate(33.2775 146.324219) scale(0.1 -0.1)">
       <use xlink:href="#DejaVuSans-31"/>
      </g>
     </g>
    </g>
    <g id="ytick_7">
     <g id="line2d_16">
      <g>
       <use xlink:href="#mdd78d4d6c3" x="46.64" y="110.302" style="stroke: #000000; stroke-width: 0.8"/>
      </g>
     </g>
     <g id="text_17">
      <!-- 2 -->
      <g transform="translate(33.2775 114.101219) scale(0.1 -0.1)">
       <use xlink:href="#DejaVuSans-32"/>
      </g>
     </g>
    </g>
    <g id="ytick_8">
     <g id="line2d_17">
      <g>
       <use xlink:href="#mdd78d4d6c3" x="46.64" y="78.079" style="stroke: #000000; stroke-width: 0.8"/>
      </g>
     </g>
     <g id="text_18">
      <!-- 3 -->
      <g transform="translate(33.2775 81.878219) scale(0.1 -0.1)">
       <use xlink:href="#DejaVuSans-33"/>
      </g>
     </g>
    </g>
    <g id="ytick_9">
     <g id="line2d_18">
      <g>
       <use xlink:href="#mdd78d4d6c3" x="46.64" y="45.856" style="stroke: #000000; stroke-width: 0.8"/>
      </g>
     </g>
     <g id="text_19">
      <!-- 4 -->
      <g transform="translate(33.2775 49.655219) scale(0.1 -0.1)">
       <use xlink:href="#DejaVuSans-34"/>
      </g>
     </g>
    </g>
    <g id="text_20">
     <!-- Relative distance in second direction -->
     <g transform="translate(18.818125 266.755031) rotate(-90) scale(0.1 -0.1)">
      <use xlink:href="#DejaVuSans-52"/>
      <use xlink:href="#DejaVuSans-65" transform="translate(64.982422 0)"/>
      <use xlink:href="#DejaVuSans-6c" transform="translate(126.505859 0)"/>
      <use xlink:href="#DejaVuSans-61" transform="translate(154.289062 0)"/>
      <use xlink:href="#DejaVuSans-74" transform="translate(215.568359 0)"/>
      <use xlink:href="#DejaVuSans-69" transform="translate(254.777344 0)"/>
      <use xlink:href="#DejaVuSans-76" transform="translate(282.560547 0)"/>
      <use xlink:href="#DejaVuSans-65" transform="translate(341.740234 0)"/>
      <use xlink:href="#DejaVuSans-20" transform="translate(403.263672 0)"/>
      <use xlink:href="#DejaVuSans-64" transform="translate(435.050781 0)"/>
      <use xlink:href="#DejaVuSans-69" transform="translate(498.527344 0)"/>
      <use xlink:href="#DejaVuSans-73" transform="translate(526.310547 0)"/>
      <use xlink:href="#DejaVuSans-74" transform="translate(578.410156 0)"/>
      <use xlink:href="#DejaVuSans-61" transform="translate(617.619141 0)"/>
      <use xlink:href="#DejaVuSans-6e" transform="translate(678.898438 0)"/>
      <use xlink:href="#DejaVuSans-63" transform="translate(742.277344 0)"/>
      <use xlink:href="#DejaVuSans-65" transform="translate(797.257812 0)"/>
      <use xlink:href="#DejaVuSans-20" transform="translate(858.78125 0)"/>
      <use xlink:href="#DejaVuSans-69" transform="translate(890.568359 0)"/>
      <use xlink:href="#DejaVuSans-6e" transform="translate(918.351562 0)"/>
      <use xlink:href="#DejaVuSans-20" transform="translate(981.730469 0)"/>
      <use xlink:href="#DejaVuSans-73" transform="translate(1013.517578 0)"/>
      <use xlink:href="#DejaVuSans-65" transform="translate(1065.617188 0)"/>
      <use xlink:href="#DejaVuSans-63" transform="translate(1127.140625 0)"/>
      <use xlink:href="#DejaVuSans-6f" transform="translate(1182.121094 0)"/>
      <use xlink:href="#DejaVuSans-6e" transform="translate(1243.302734 0)"/>
      <use xlink:href="#DejaVuSans-64" transform="translate(1306.681641 0)"/>
      <use xlink:href="#DejaVuSans-20" transform="translate(1370.158203 0)"/>
      <use xlink:href="#DejaVuSans-64" transform="translate(1401.945312 0)"/>
      <use xlink:href="#DejaVuSans-69" transform="translate(1465.421875 0)"/>
      <use xlink:href="#DejaVuSans-72" transform="translate(1493.205078 0)"/>
      <use xlink:href="#DejaVuSans-65" transform="translate(1532.068359 0)"/>
      <use xlink:href="#DejaVuSans-63" transform="translate(1593.591797 0)"/>
      <use xlink:href="#DejaVuSans-74" transform="translate(1648.572266 0)"/>
      <use xlink:href="#DejaVuSans-69" transform="translate(1687.78125 0)"/>
      <use xlink:href="#DejaVuSans-6f" transform="translate(1715.564453 0)"/>
      <use xlink:href="#DejaVuSans-6e" transform="translate(1776.746094 0)"/>
     </g>
    </g>
   </g>
   <g id="line2d_19">
    <path d="M 238.78995 197.304098 
L 276.368707 227.874592 
L 234.281805 194.146066 
L 198.851223 165.794381 
L 197.629359 164.986784 
L 217.514882 181.444516 
L 254.977488 212.252316 
L 250.763325 208.962315 
L 199.287965 167.53433 
L 168.98628 143.297756 
L 163.458498 139.123014 
L 162.788516 138.759266 
L 162.579951 138.776634 
L 162.295607 139.297012 
L 161.65408 139.279016 
L 160.909618 139.151087 
L 159.960753 138.643161 
L 160.083233 138.764536 
L 162.391841 140.557071 
L 168.514941 144.986741 
L 172.149314 147.645037 
L 183.481428 157.11899 
L 182.334446 156.010812 
L 184.584625 157.645656 
L 195.984433 166.602905 
L 198.758259 168.714188 
L 203.176359 172.218482 
L 202.472272 171.544254 
L 202.158447 171.25197 
L 202.831392 171.753811 
L 207.595977 175.450983 
L 205.718598 173.903335 
L 205.464962 173.679912 
L 208.433692 176.096888 
L 206.731063 174.720214 
" clip-path="url(#p5dafe9503e)" style="fill: none; stroke: #ff0000; stroke-width: 1.5; stroke-linecap: square"/>
   </g>
   <g id="patch_3">
    <path d="M 46.64 303.64 
L 46.64 45.856 
" style="fill: none; stroke: #000000; stroke-width: 0.8; stroke-linejoin: miter; stroke-linecap: square"/>
   </g>
   <g id="patch_4">
    <path d="M 366.88992 303.64 
L 366.88992 45.856 
" style="fill: none; stroke: #000000; stroke-width: 0.8; stroke-linejoin: miter; stroke-linecap: square"/>
   </g>
   <g id="patch_5">
    <path d="M 46.64 303.64 
L 366.88992 303.64 
" style="fill: none; stroke: #000000; stroke-width: 0.8; stroke-linejoin: miter; stroke-linecap: square"/>
   </g>
   <g id="patch_6">
    <path d="M 46.64 45.856 
L 366.88992 45.856 
" style="fill: none; stroke: #000000; stroke-width: 0.8; stroke-linejoin: miter; stroke-linecap: square"/>
   </g>
   <g id="text_21">
    <!-- Relative error across two random directions -->
    <g transform="translate(75.663085 22.418625) scale(0.12 -0.12)">
     <defs>
      <path id="DejaVuSans-77" d="M 269 3500 
L 844 3500 
L 1563 769 
L 2278 3500 
L 2956 3500 
L 3675 769 
L 4391 3500 
L 4966 3500 
L 4050 0 
L 3372 0 
L 2619 2869 
L 1863 0 
L 1184 0 
L 269 3500 
z
" transform="scale(0.015625)"/>
      <path id="DejaVuSans-6d" d="M 3328 2828 
Q 3544 3216 3844 3400 
Q 4144 3584 4550 3584 
Q 5097 3584 5394 3201 
Q 5691 2819 5691 2113 
L 5691 0 
L 5113 0 
L 5113 2094 
Q 5113 2597 4934 2840 
Q 4756 3084 4391 3084 
Q 3944 3084 3684 2787 
Q 3425 2491 3425 1978 
L 3425 0 
L 2847 0 
L 2847 2094 
Q 2847 2600 2669 2842 
Q 2491 3084 2119 3084 
Q 1678 3084 1418 2786 
Q 1159 2488 1159 1978 
L 1159 0 
L 581 0 
L 581 3500 
L 1159 3500 
L 1159 2956 
Q 1356 3278 1631 3431 
Q 1906 3584 2284 3584 
Q 2666 3584 2933 3390 
Q 3200 3197 3328 2828 
z
" transform="scale(0.015625)"/>
     </defs>
     <use xlink:href="#DejaVuSans-52"/>
     <use xlink:href="#DejaVuSans-65" transform="translate(64.982422 0)"/>
     <use xlink:href="#DejaVuSans-6c" transform="translate(126.505859 0)"/>
     <use xlink:href="#DejaVuSans-61" transform="translate(154.289062 0)"/>
     <use xlink:href="#DejaVuSans-74" transform="translate(215.568359 0)"/>
     <use xlink:href="#DejaVuSans-69" transform="translate(254.777344 0)"/>
     <use xlink:href="#DejaVuSans-76" transform="translate(282.560547 0)"/>
     <use xlink:href="#DejaVuSans-65" transform="translate(341.740234 0)"/>
     <use xlink:href="#DejaVuSans-20" transform="translate(403.263672 0)"/>
     <use xlink:href="#DejaVuSans-65" transform="translate(435.050781 0)"/>
     <use xlink:href="#DejaVuSans-72" transform="translate(496.574219 0)"/>
     <use xlink:href="#DejaVuSans-72" transform="translate(535.9375 0)"/>
     <use xlink:href="#DejaVuSans-6f" transform="translate(574.800781 0)"/>
     <use xlink:href="#DejaVuSans-72" transform="translate(635.982422 0)"/>
     <use xlink:href="#DejaVuSans-20" transform="translate(677.095703 0)"/>
     <use xlink:href="#DejaVuSans-61" transform="translate(708.882812 0)"/>
     <use xlink:href="#DejaVuSans-63" transform="translate(770.162109 0)"/>
     <use xlink:href="#DejaVuSans-72" transform="translate(825.142578 0)"/>
     <use xlink:href="#DejaVuSans-6f" transform="translate(864.005859 0)"/>
     <use xlink:href="#DejaVuSans-73" transform="translate(925.1875 0)"/>
     <use xlink:href="#DejaVuSans-73" transform="translate(977.287109 0)"/>
     <use xlink:href="#DejaVuSans-20" transform="translate(1029.386719 0)"/>
     <use xlink:href="#DejaVuSans-74" transform="translate(1061.173828 0)"/>
     <use xlink:href="#DejaVuSans-77" transform="translate(1100.382812 0)"/>
     <use xlink:href="#DejaVuSans-6f" transform="translate(1182.169922 0)"/>
     <use xlink:href="#DejaVuSans-20" transform="translate(1243.351562 0)"/>
     <use xlink:href="#DejaVuSans-72" transform="translate(1275.138672 0)"/>
     <use xlink:href="#DejaVuSans-61" transform="translate(1316.251953 0)"/>
     <use xlink:href="#DejaVuSans-6e" transform="translate(1377.53125 0)"/>
     <use xlink:href="#DejaVuSans-64" transform="translate(1440.910156 0)"/>
     <use xlink:href="#DejaVuSans-6f" transform="translate(1504.386719 0)"/>
     <use xlink:href="#DejaVuSans-6d" transform="translate(1565.568359 0)"/>
     <use xlink:href="#DejaVuSans-20" transform="translate(1662.980469 0)"/>
     <use xlink:href="#DejaVuSans-64" transform="translate(1694.767578 0)"/>
     <use xlink:href="#DejaVuSans-69" transform="translate(1758.244141 0)"/>
     <use xlink:href="#DejaVuSans-72" transform="translate(1786.027344 0)"/>
     <use xlink:href="#DejaVuSans-65" transform="translate(1824.890625 0)"/>
     <use xlink:href="#DejaVuSans-63" transform="translate(1886.414062 0)"/>
     <use xlink:href="#DejaVuSans-74" transform="translate(1941.394531 0)"/>
     <use xlink:href="#DejaVuSans-69" transform="translate(1980.603516 0)"/>
     <use xlink:href="#DejaVuSans-6f" transform="translate(2008.386719 0)"/>
     <use xlink:href="#DejaVuSans-6e" transform="translate(2069.568359 0)"/>
     <use xlink:href="#DejaVuSans-73" transform="translate(2132.947266 0)"/>
    </g>
    <!-- in unknown parameters -->
    <g transform="translate(135.41746 35.856) scale(0.12 -0.12)">
     <defs>
      <path id="DejaVuSans-75" d="M 544 1381 
L 544 3500 
L 1119 3500 
L 1119 1403 
Q 1119 906 1312 657 
Q 1506 409 1894 409 
Q 2359 409 2629 706 
Q 2900 1003 2900 1516 
L 2900 3500 
L 3475 3500 
L 3475 0 
L 2900 0 
L 2900 538 
Q 2691 219 2414 64 
Q 2138 -91 1772 -91 
Q 1169 -91 856 284 
Q 544 659 544 1381 
z
M 1991 3584 
L 1991 3584 
z
" transform="scale(0.015625)"/>
      <path id="DejaVuSans-6b" d="M 581 4863 
L 1159 4863 
L 1159 1991 
L 2875 3500 
L 3609 3500 
L 1753 1863 
L 3688 0 
L 2938 0 
L 1159 1709 
L 1159 0 
L 581 0 
L 581 4863 
z
" transform="scale(0.015625)"/>
      <path id="DejaVuSans-70" d="M 1159 525 
L 1159 -1331 
L 581 -1331 
L 581 3500 
L 1159 3500 
L 1159 2969 
Q 1341 3281 1617 3432 
Q 1894 3584 2278 3584 
Q 2916 3584 3314 3078 
Q 3713 2572 3713 1747 
Q 3713 922 3314 415 
Q 2916 -91 2278 -91 
Q 1894 -91 1617 61 
Q 1341 213 1159 525 
z
M 3116 1747 
Q 3116 2381 2855 2742 
Q 2594 3103 2138 3103 
Q 1681 3103 1420 2742 
Q 1159 2381 1159 1747 
Q 1159 1113 1420 752 
Q 1681 391 2138 391 
Q 2594 391 2855 752 
Q 3116 1113 3116 1747 
z
" transform="scale(0.015625)"/>
     </defs>
     <use xlink:href="#DejaVuSans-69"/>
     <use xlink:href="#DejaVuSans-6e" transform="translate(27.783203 0)"/>
     <use xlink:href="#DejaVuSans-20" transform="translate(91.162109 0)"/>
     <use xlink:href="#DejaVuSans-75" transform="translate(122.949219 0)"/>
     <use xlink:href="#DejaVuSans-6e" transform="translate(186.328125 0)"/>
     <use xlink:href="#DejaVuSans-6b" transform="translate(249.707031 0)"/>
     <use xlink:href="#DejaVuSans-6e" transform="translate(307.617188 0)"/>
     <use xlink:href="#DejaVuSans-6f" transform="translate(370.996094 0)"/>
     <use xlink:href="#DejaVuSans-77" transform="translate(432.177734 0)"/>
     <use xlink:href="#DejaVuSans-6e" transform="translate(513.964844 0)"/>
     <use xlink:href="#DejaVuSans-20" transform="translate(577.34375 0)"/>
     <use xlink:href="#DejaVuSans-70" transform="translate(609.130859 0)"/>
     <use xlink:href="#DejaVuSans-61" transform="translate(672.607422 0)"/>
     <use xlink:href="#DejaVuSans-72" transform="translate(733.886719 0)"/>
     <use xlink:href="#DejaVuSans-61" transform="translate(775 0)"/>
     <use xlink:href="#DejaVuSans-6d" transform="translate(836.279297 0)"/>
     <use xlink:href="#DejaVuSans-65" transform="translate(933.691406 0)"/>
     <use xlink:href="#DejaVuSans-74" transform="translate(995.214844 0)"/>
     <use xlink:href="#DejaVuSans-65" transform="translate(1034.423828 0)"/>
     <use xlink:href="#DejaVuSans-72" transform="translate(1095.947266 0)"/>
     <use xlink:href="#DejaVuSans-73" transform="translate(1137.060547 0)"/>
    </g>
   </g>
  </g>
  <g id="axes_2">
   <g id="patch_7">
    <path d="M 386.90554 303.64 
L 399.79474 303.64 
L 399.79474 45.856 
L 386.90554 45.856 
z
" style="fill: #ffffff"/>
   </g>
   <g id="QuadMesh_1">
    <path d="M 386.90554 303.64 
L 399.79474 303.64 
L 399.79474 291.922545 
L 386.90554 291.922545 
L 386.90554 303.64 
" clip-path="url(#p035bede73b)" style="fill: #46085c"/>
    <path d="M 386.90554 291.922545 
L 399.79474 291.922545 
L 399.79474 280.205091 
L 386.90554 280.205091 
L 386.90554 291.922545 
" clip-path="url(#p035bede73b)" style="fill: #481a6c"/>
    <path d="M 386.90554 280.205091 
L 399.79474 280.205091 
L 399.79474 268.487636 
L 386.90554 268.487636 
L 386.90554 280.205091 
" clip-path="url(#p035bede73b)" style="fill: #482979"/>
    <path d="M 386.90554 268.487636 
L 399.79474 268.487636 
L 399.79474 256.770182 
L 386.90554 256.770182 
L 386.90554 268.487636 
" clip-path="url(#p035bede73b)" style="fill: #453781"/>
    <path d="M 386.90554 256.770182 
L 399.79474 256.770182 
L 399.79474 245.052727 
L 386.90554 245.052727 
L 386.90554 256.770182 
" clip-path="url(#p035bede73b)" style="fill: #404588"/>
    <path d="M 386.90554 245.052727 
L 399.79474 245.052727 
L 399.79474 233.335273 
L 386.90554 233.335273 
L 386.90554 245.052727 
" clip-path="url(#p035bede73b)" style="fill: #3b528b"/>
    <path d="M 386.90554 233.335273 
L 399.79474 233.335273 
L 399.79474 221.617818 
L 386.90554 221.617818 
L 386.90554 233.335273 
" clip-path="url(#p035bede73b)" style="fill: #355e8d"/>
    <path d="M 386.90554 221.617818 
L 399.79474 221.617818 
L 399.79474 209.900364 
L 386.90554 209.900364 
L 386.90554 221.617818 
" clip-path="url(#p035bede73b)" style="fill: #306a8e"/>
    <path d="M 386.90554 209.900364 
L 399.79474 209.900364 
L 399.79474 198.182909 
L 386.90554 198.182909 
L 386.90554 209.900364 
" clip-path="url(#p035bede73b)" style="fill: #2b748e"/>
    <path d="M 386.90554 198.182909 
L 399.79474 198.182909 
L 399.79474 186.465455 
L 386.90554 186.465455 
L 386.90554 198.182909 
" clip-path="url(#p035bede73b)" style="fill: #27808e"/>
    <path d="M 386.90554 186.465455 
L 399.79474 186.465455 
L 399.79474 174.748 
L 386.90554 174.748 
L 386.90554 186.465455 
" clip-path="url(#p035bede73b)" style="fill: #228b8d"/>
    <path d="M 386.90554 174.748 
L 399.79474 174.748 
L 399.79474 163.030545 
L 386.90554 163.030545 
L 386.90554 174.748 
" clip-path="url(#p035bede73b)" style="fill: #1f958b"/>
    <path d="M 386.90554 163.030545 
L 399.79474 163.030545 
L 399.79474 151.313091 
L 386.90554 151.313091 
L 386.90554 163.030545 
" clip-path="url(#p035bede73b)" style="fill: #1fa188"/>
    <path d="M 386.90554 151.313091 
L 399.79474 151.313091 
L 399.79474 139.595636 
L 386.90554 139.595636 
L 386.90554 151.313091 
" clip-path="url(#p035bede73b)" style="fill: #25ac82"/>
    <path d="M 386.90554 139.595636 
L 399.79474 139.595636 
L 399.79474 127.878182 
L 386.90554 127.878182 
L 386.90554 139.595636 
" clip-path="url(#p035bede73b)" style="fill: #32b67a"/>
    <path d="M 386.90554 127.878182 
L 399.79474 127.878182 
L 399.79474 116.160727 
L 386.90554 116.160727 
L 386.90554 127.878182 
" clip-path="url(#p035bede73b)" style="fill: #46c06f"/>
    <path d="M 386.90554 116.160727 
L 399.79474 116.160727 
L 399.79474 104.443273 
L 386.90554 104.443273 
L 386.90554 116.160727 
" clip-path="url(#p035bede73b)" style="fill: #5ec962"/>
    <path d="M 386.90554 104.443273 
L 399.79474 104.443273 
L 399.79474 92.725818 
L 386.90554 92.725818 
L 386.90554 104.443273 
" clip-path="url(#p035bede73b)" style="fill: #77d153"/>
    <path d="M 386.90554 92.725818 
L 399.79474 92.725818 
L 399.79474 81.008364 
L 386.90554 81.008364 
L 386.90554 92.725818 
" clip-path="url(#p035bede73b)" style="fill: #95d840"/>
    <path d="M 386.90554 81.008364 
L 399.79474 81.008364 
L 399.79474 69.290909 
L 386.90554 69.290909 
L 386.90554 81.008364 
" clip-path="url(#p035bede73b)" style="fill: #b2dd2d"/>
    <path d="M 386.90554 69.290909 
L 399.79474 69.290909 
L 399.79474 57.573455 
L 386.90554 57.573455 
L 386.90554 69.290909 
" clip-path="url(#p035bede73b)" style="fill: #d2e21b"/>
    <path d="M 386.90554 57.573455 
L 399.79474 57.573455 
L 399.79474 45.856 
L 386.90554 45.856 
L 386.90554 57.573455 
" clip-path="url(#p035bede73b)" style="fill: #f1e51d"/>
   </g>
   <g id="matplotlib.axis_3"/>
   <g id="matplotlib.axis_4">
    <g id="ytick_10">
     <g id="line2d_20">
      <defs>
       <path id="me2ca18c75d" d="M 0 0 
L 3.5 0 
" style="stroke: #000000; stroke-width: 0.8"/>
      </defs>
      <g>
       <use xlink:href="#me2ca18c75d" x="399.79474" y="303.64" style="stroke: #000000; stroke-width: 0.8"/>
      </g>
     </g>
     <g id="text_22">
      <!-- 0.00 -->
      <g transform="translate(406.79474 307.439219) scale(0.1 -0.1)">
       <defs>
        <path id="DejaVuSans-2e" d="M 684 794 
L 1344 794 
L 1344 0 
L 684 0 
L 684 794 
z
" transform="scale(0.015625)"/>
       </defs>
       <use xlink:href="#DejaVuSans-30"/>
       <use xlink:href="#DejaVuSans-2e" transform="translate(63.623047 0)"/>
       <use xlink:href="#DejaVuSans-30" transform="translate(95.410156 0)"/>
       <use xlink:href="#DejaVuSans-30" transform="translate(159.033203 0)"/>
      </g>
     </g>
    </g>
    <g id="ytick_11">
     <g id="line2d_21">
      <g>
       <use xlink:href="#me2ca18c75d" x="399.79474" y="268.487636" style="stroke: #000000; stroke-width: 0.8"/>
      </g>
     </g>
     <g id="text_23">
      <!-- 0.18 -->
      <g transform="translate(406.79474 272.286855) scale(0.1 -0.1)">
       <defs>
        <path id="DejaVuSans-38" d="M 2034 2216 
Q 1584 2216 1326 1975 
Q 1069 1734 1069 1313 
Q 1069 891 1326 650 
Q 1584 409 2034 409 
Q 2484 409 2743 651 
Q 3003 894 3003 1313 
Q 3003 1734 2745 1975 
Q 2488 2216 2034 2216 
z
M 1403 2484 
Q 997 2584 770 2862 
Q 544 3141 544 3541 
Q 544 4100 942 4425 
Q 1341 4750 2034 4750 
Q 2731 4750 3128 4425 
Q 3525 4100 3525 3541 
Q 3525 3141 3298 2862 
Q 3072 2584 2669 2484 
Q 3125 2378 3379 2068 
Q 3634 1759 3634 1313 
Q 3634 634 3220 271 
Q 2806 -91 2034 -91 
Q 1263 -91 848 271 
Q 434 634 434 1313 
Q 434 1759 690 2068 
Q 947 2378 1403 2484 
z
M 1172 3481 
Q 1172 3119 1398 2916 
Q 1625 2713 2034 2713 
Q 2441 2713 2670 2916 
Q 2900 3119 2900 3481 
Q 2900 3844 2670 4047 
Q 2441 4250 2034 4250 
Q 1625 4250 1398 4047 
Q 1172 3844 1172 3481 
z
" transform="scale(0.015625)"/>
       </defs>
       <use xlink:href="#DejaVuSans-30"/>
       <use xlink:href="#DejaVuSans-2e" transform="translate(63.623047 0)"/>
       <use xlink:href="#DejaVuSans-31" transform="translate(95.410156 0)"/>
       <use xlink:href="#DejaVuSans-38" transform="translate(159.033203 0)"/>
      </g>
     </g>
    </g>
    <g id="ytick_12">
     <g id="line2d_22">
      <g>
       <use xlink:href="#me2ca18c75d" x="399.79474" y="233.335273" style="stroke: #000000; stroke-width: 0.8"/>
      </g>
     </g>
     <g id="text_24">
      <!-- 0.36 -->
      <g transform="translate(406.79474 237.134491) scale(0.1 -0.1)">
       <defs>
        <path id="DejaVuSans-36" d="M 2113 2584 
Q 1688 2584 1439 2293 
Q 1191 2003 1191 1497 
Q 1191 994 1439 701 
Q 1688 409 2113 409 
Q 2538 409 2786 701 
Q 3034 994 3034 1497 
Q 3034 2003 2786 2293 
Q 2538 2584 2113 2584 
z
M 3366 4563 
L 3366 3988 
Q 3128 4100 2886 4159 
Q 2644 4219 2406 4219 
Q 1781 4219 1451 3797 
Q 1122 3375 1075 2522 
Q 1259 2794 1537 2939 
Q 1816 3084 2150 3084 
Q 2853 3084 3261 2657 
Q 3669 2231 3669 1497 
Q 3669 778 3244 343 
Q 2819 -91 2113 -91 
Q 1303 -91 875 529 
Q 447 1150 447 2328 
Q 447 3434 972 4092 
Q 1497 4750 2381 4750 
Q 2619 4750 2861 4703 
Q 3103 4656 3366 4563 
z
" transform="scale(0.015625)"/>
       </defs>
       <use xlink:href="#DejaVuSans-30"/>
       <use xlink:href="#DejaVuSans-2e" transform="translate(63.623047 0)"/>
       <use xlink:href="#DejaVuSans-33" transform="translate(95.410156 0)"/>
       <use xlink:href="#DejaVuSans-36" transform="translate(159.033203 0)"/>
      </g>
     </g>
    </g>
    <g id="ytick_13">
     <g id="line2d_23">
      <g>
       <use xlink:href="#me2ca18c75d" x="399.79474" y="198.182909" style="stroke: #000000; stroke-width: 0.8"/>
      </g>
     </g>
     <g id="text_25">
      <!-- 0.54 -->
      <g transform="translate(406.79474 201.982128) scale(0.1 -0.1)">
       <defs>
        <path id="DejaVuSans-35" d="M 691 4666 
L 3169 4666 
L 3169 4134 
L 1269 4134 
L 1269 2991 
Q 1406 3038 1543 3061 
Q 1681 3084 1819 3084 
Q 2600 3084 3056 2656 
Q 3513 2228 3513 1497 
Q 3513 744 3044 326 
Q 2575 -91 1722 -91 
Q 1428 -91 1123 -41 
Q 819 9 494 109 
L 494 744 
Q 775 591 1075 516 
Q 1375 441 1709 441 
Q 2250 441 2565 725 
Q 2881 1009 2881 1497 
Q 2881 1984 2565 2268 
Q 2250 2553 1709 2553 
Q 1456 2553 1204 2497 
Q 953 2441 691 2322 
L 691 4666 
z
" transform="scale(0.015625)"/>
       </defs>
       <use xlink:href="#DejaVuSans-30"/>
       <use xlink:href="#DejaVuSans-2e" transform="translate(63.623047 0)"/>
       <use xlink:href="#DejaVuSans-35" transform="translate(95.410156 0)"/>
       <use xlink:href="#DejaVuSans-34" transform="translate(159.033203 0)"/>
      </g>
     </g>
    </g>
    <g id="ytick_14">
     <g id="line2d_24">
      <g>
       <use xlink:href="#me2ca18c75d" x="399.79474" y="163.030545" style="stroke: #000000; stroke-width: 0.8"/>
      </g>
     </g>
     <g id="text_26">
      <!-- 0.72 -->
      <g transform="translate(406.79474 166.829764) scale(0.1 -0.1)">
       <defs>
        <path id="DejaVuSans-37" d="M 525 4666 
L 3525 4666 
L 3525 4397 
L 1831 0 
L 1172 0 
L 2766 4134 
L 525 4134 
L 525 4666 
z
" transform="scale(0.015625)"/>
       </defs>
       <use xlink:href="#DejaVuSans-30"/>
       <use xlink:href="#DejaVuSans-2e" transform="translate(63.623047 0)"/>
       <use xlink:href="#DejaVuSans-37" transform="translate(95.410156 0)"/>
       <use xlink:href="#DejaVuSans-32" transform="translate(159.033203 0)"/>
      </g>
     </g>
    </g>
    <g id="ytick_15">
     <g id="line2d_25">
      <g>
       <use xlink:href="#me2ca18c75d" x="399.79474" y="127.878182" style="stroke: #000000; stroke-width: 0.8"/>
      </g>
     </g>
     <g id="text_27">
      <!-- 0.90 -->
      <g transform="translate(406.79474 131.677401) scale(0.1 -0.1)">
       <defs>
        <path id="DejaVuSans-39" d="M 703 97 
L 703 672 
Q 941 559 1184 500 
Q 1428 441 1663 441 
Q 2288 441 2617 861 
Q 2947 1281 2994 2138 
Q 2813 1869 2534 1725 
Q 2256 1581 1919 1581 
Q 1219 1581 811 2004 
Q 403 2428 403 3163 
Q 403 3881 828 4315 
Q 1253 4750 1959 4750 
Q 2769 4750 3195 4129 
Q 3622 3509 3622 2328 
Q 3622 1225 3098 567 
Q 2575 -91 1691 -91 
Q 1453 -91 1209 -44 
Q 966 3 703 97 
z
M 1959 2075 
Q 2384 2075 2632 2365 
Q 2881 2656 2881 3163 
Q 2881 3666 2632 3958 
Q 2384 4250 1959 4250 
Q 1534 4250 1286 3958 
Q 1038 3666 1038 3163 
Q 1038 2656 1286 2365 
Q 1534 2075 1959 2075 
z
" transform="scale(0.015625)"/>
       </defs>
       <use xlink:href="#DejaVuSans-30"/>
       <use xlink:href="#DejaVuSans-2e" transform="translate(63.623047 0)"/>
       <use xlink:href="#DejaVuSans-39" transform="translate(95.410156 0)"/>
       <use xlink:href="#DejaVuSans-30" transform="translate(159.033203 0)"/>
      </g>
     </g>
    </g>
    <g id="ytick_16">
     <g id="line2d_26">
      <g>
       <use xlink:href="#me2ca18c75d" x="399.79474" y="92.725818" style="stroke: #000000; stroke-width: 0.8"/>
      </g>
     </g>
     <g id="text_28">
      <!-- 1.08 -->
      <g transform="translate(406.79474 96.525037) scale(0.1 -0.1)">
       <use xlink:href="#DejaVuSans-31"/>
       <use xlink:href="#DejaVuSans-2e" transform="translate(63.623047 0)"/>
       <use xlink:href="#DejaVuSans-30" transform="translate(95.410156 0)"/>
       <use xlink:href="#DejaVuSans-38" transform="translate(159.033203 0)"/>
      </g>
     </g>
    </g>
    <g id="ytick_17">
     <g id="line2d_27">
      <g>
       <use xlink:href="#me2ca18c75d" x="399.79474" y="57.573455" style="stroke: #000000; stroke-width: 0.8"/>
      </g>
     </g>
     <g id="text_29">
      <!-- 1.26 -->
      <g transform="translate(406.79474 61.372673) scale(0.1 -0.1)">
       <use xlink:href="#DejaVuSans-31"/>
       <use xlink:href="#DejaVuSans-2e" transform="translate(63.623047 0)"/>
       <use xlink:href="#DejaVuSans-32" transform="translate(95.410156 0)"/>
       <use xlink:href="#DejaVuSans-36" transform="translate(159.033203 0)"/>
      </g>
     </g>
    </g>
    <g id="text_30">
     <!-- Relative error -->
     <g transform="translate(440.658802 208.603469) rotate(-90) scale(0.1 -0.1)">
      <use xlink:href="#DejaVuSans-52"/>
      <use xlink:href="#DejaVuSans-65" transform="translate(64.982422 0)"/>
      <use xlink:href="#DejaVuSans-6c" transform="translate(126.505859 0)"/>
      <use xlink:href="#DejaVuSans-61" transform="translate(154.289062 0)"/>
      <use xlink:href="#DejaVuSans-74" transform="translate(215.568359 0)"/>
      <use xlink:href="#DejaVuSans-69" transform="translate(254.777344 0)"/>
      <use xlink:href="#DejaVuSans-76" transform="translate(282.560547 0)"/>
      <use xlink:href="#DejaVuSans-65" transform="translate(341.740234 0)"/>
      <use xlink:href="#DejaVuSans-20" transform="translate(403.263672 0)"/>
      <use xlink:href="#DejaVuSans-65" transform="translate(435.050781 0)"/>
      <use xlink:href="#DejaVuSans-72" transform="translate(496.574219 0)"/>
      <use xlink:href="#DejaVuSans-72" transform="translate(535.9375 0)"/>
      <use xlink:href="#DejaVuSans-6f" transform="translate(574.800781 0)"/>
      <use xlink:href="#DejaVuSans-72" transform="translate(635.982422 0)"/>
     </g>
    </g>
   </g>
   <g id="LineCollection_1"/>
   <g id="patch_8">
    <path d="M 386.90554 303.64 
L 393.35014 303.64 
L 399.79474 303.64 
L 399.79474 45.856 
L 393.35014 45.856 
L 386.90554 45.856 
L 386.90554 303.64 
z
" style="fill: none; stroke: #000000; stroke-width: 0.8; stroke-linejoin: miter; stroke-linecap: square"/>
   </g>
  </g>
 </g>
 <defs>
  <clipPath id="p5dafe9503e">
   <rect x="46.64" y="45.856" width="320.24992" height="257.784"/>
  </clipPath>
  <clipPath id="p035bede73b">
   <rect x="386.90554" y="45.856" width="12.8892" height="257.784"/>
  </clipPath>
 </defs>
</svg>
