<?xml version="1.0" encoding="utf-8" standalone="no"?>
<!DOCTYPE svg PUBLIC "-//W3C//DTD SVG 1.1//EN"
  "http://www.w3.org/Graphics/SVG/1.1/DTD/svg11.dtd">
<svg xmlns:xlink="http://www.w3.org/1999/xlink" width="460.8pt" height="345.6pt" viewBox="0 0 460.8 345.6" xmlns="http://www.w3.org/2000/svg" version="1.1">
 <metadata>
  <rdf:RDF xmlns:dc="http://purl.org/dc/elements/1.1/" xmlns:cc="http://creativecommons.org/ns#" xmlns:rdf="http://www.w3.org/1999/02/22-rdf-syntax-ns#">
   <cc:Work>
    <dc:type rdf:resource="http://purl.org/dc/dcmitype/StillImage"/>
    <dc:date>2025-10-15T20:26:58.745866</dc:date>
    <dc:format>image/svg+xml</dc:format>
    <dc:creator>
     <cc:Agent>
      <dc:title>Matplotlib v3.10.6, https://matplotlib.org/</dc:title>
     </cc:Agent>
    </dc:creator>
   </cc:Work>
  </rdf:RDF>
 </metadata>
 <defs>
  <style type="text/css">*{stroke-linejoin: round; stroke-linecap: butt}</style>
 </defs>
 <g id="figure_1">
  <g id="patch_1">
   <path d="M 0 345.6 
L 460.8 345.6 
L 460.8 0 
L 0 0 
z
" style="fill: #ffffff"/>
  </g>
  <g id="axes_1">
   <g id="patch_2">
    <path d="M 62.39 303.64 
L 372.478 303.64 
L 372.478 45.856 
L 62.39 45.856 
z
" style="fill: #ffffff"/>
   </g>
   <g id="QuadContourSet_1">
    <path d="M 372.478 202.142837 
L 372.478 200.5264 
L 372.478 197.763043 
L 359.990626 200.5264 
z
M 186.4252 177.711022 
L 217.434 181.577959 
L 248.4428 178.931939 
L 269.732411 174.748 
L 248.4428 171.777993 
L 217.434 167.683355 
L 186.4252 170.226123 
L 163.75908 174.748 
z
M 79.612759 148.9696 
L 62.39 146.583242 
L 62.39 148.9696 
L 62.39 152.719138 
z
" clip-path="url(#p1aa5073738)" style="fill: #460a5d"/>
    <path d="M 310.4604 200.864823 
L 341.4692 204.871449 
L 372.478 208.849262 
L 372.478 202.142837 
L 359.990626 200.5264 
L 372.478 197.763043 
L 372.478 186.298172 
L 341.4692 184.56828 
L 321.27836 174.748 
L 310.4604 173.200556 
L 279.4516 168.824093 
L 248.4428 164.508758 
L 217.434 160.348907 
L 186.4252 159.428461 
L 155.4164 157.101751 
L 134.354549 148.9696 
L 124.4076 147.548886 
L 93.3988 143.181627 
L 62.39 138.88626 
L 62.39 146.583242 
L 79.612759 148.9696 
L 62.39 152.719138 
L 62.39 164.812935 
L 93.3988 167.845791 
L 108.732314 174.748 
L 124.4076 176.774092 
L 155.4164 180.785788 
L 186.4252 184.78634 
L 217.434 188.668759 
L 248.4428 189.17233 
L 279.4516 190.303528 
L 307.831318 200.5264 
z
M 163.75908 174.748 
L 186.4252 170.226123 
L 217.434 167.683355 
L 248.4428 171.777993 
L 269.732411 174.748 
L 248.4428 178.931939 
L 217.434 181.577959 
L 186.4252 177.711022 
z
" clip-path="url(#p1aa5073738)" style="fill: #481d6f"/>
    <path d="M 279.4516 203.743905 
L 310.4604 207.698112 
L 341.4692 211.634127 
L 372.478 215.555686 
L 372.478 208.849262 
L 341.4692 204.871449 
L 310.4604 200.864823 
L 307.831318 200.5264 
L 279.4516 190.303528 
L 248.4428 189.17233 
L 217.434 188.668759 
L 186.4252 184.78634 
L 155.4164 180.785788 
L 124.4076 176.774092 
L 108.732314 174.748 
L 93.3988 167.845791 
L 62.39 164.812935 
L 62.39 174.748 
L 62.39 176.06446 
L 93.3988 180.032742 
L 124.4076 183.983389 
L 155.4164 187.92384 
L 186.4252 191.861658 
L 217.434 195.759558 
L 248.4428 199.41272 
L 254.31641 200.5264 
z
M 341.4692 184.56828 
L 372.478 186.298172 
L 372.478 174.8333 
L 372.10106 174.748 
L 341.4692 170.312234 
L 310.4604 165.895798 
L 279.4516 161.541892 
L 248.4428 157.239524 
L 217.434 153.014458 
L 188.094494 148.9696 
L 186.4252 148.725275 
L 155.4164 144.242417 
L 124.4076 139.831644 
L 93.3988 135.483099 
L 62.39 131.189277 
L 62.39 138.88626 
L 93.3988 143.181627 
L 124.4076 147.548886 
L 134.354549 148.9696 
L 155.4164 157.101751 
L 186.4252 159.428461 
L 217.434 160.348907 
L 248.4428 164.508758 
L 279.4516 168.824093 
L 310.4604 173.200556 
L 321.27836 174.748 
z
" clip-path="url(#p1aa5073738)" style="fill: #472e7c"/>
    <path d="M 217.434 202.852958 
L 248.4428 206.76704 
L 279.4516 210.657411 
L 310.4604 214.531402 
L 341.4692 218.396806 
L 372.478 222.262111 
L 372.478 215.555686 
L 341.4692 211.634127 
L 310.4604 207.698112 
L 279.4516 203.743905 
L 254.31641 200.5264 
L 248.4428 199.41272 
L 217.434 195.759558 
L 186.4252 191.861658 
L 155.4164 187.92384 
L 124.4076 183.983389 
L 93.3988 180.032742 
L 62.39 176.06446 
L 62.39 183.439627 
L 93.3988 187.321148 
L 124.4076 191.192686 
L 155.4164 195.061893 
L 186.4252 198.936976 
L 199.035807 200.5264 
z
M 372.478 174.8333 
L 372.478 174.748 
L 372.478 167.425454 
L 341.4692 162.975745 
L 310.4604 158.59104 
L 279.4516 154.259692 
L 248.4428 149.97029 
L 241.160481 148.9696 
L 217.434 145.455167 
L 186.4252 140.93861 
L 155.4164 136.49537 
L 124.4076 132.114402 
L 93.3988 127.784571 
L 62.39 123.492295 
L 62.39 131.189277 
L 93.3988 135.483099 
L 124.4076 139.831644 
L 155.4164 144.242417 
L 186.4252 148.725275 
L 188.094494 148.9696 
L 217.434 153.014458 
L 248.4428 157.239524 
L 279.4516 161.541892 
L 310.4604 165.895798 
L 341.4692 170.312234 
L 372.10106 174.748 
z
" clip-path="url(#p1aa5073738)" style="fill: #423f85"/>
    <path d="M 372.478 229.026602 
L 372.478 226.3048 
L 372.478 222.262111 
L 341.4692 218.396806 
L 310.4604 214.531402 
L 279.4516 210.657411 
L 248.4428 206.76704 
L 217.434 202.852958 
L 199.035807 200.5264 
L 186.4252 198.936976 
L 155.4164 195.061893 
L 124.4076 191.192686 
L 93.3988 187.321148 
L 62.39 183.439627 
L 62.39 190.814794 
L 93.3988 194.609555 
L 124.4076 198.401983 
L 141.676639 200.5264 
L 155.4164 202.241365 
L 186.4252 206.111285 
L 217.434 209.951694 
L 248.4428 213.76919 
L 279.4516 217.570917 
L 310.4604 221.364691 
L 341.4692 225.159484 
L 350.738633 226.3048 
z
M 248.4428 149.97029 
L 279.4516 154.259692 
L 310.4604 158.59104 
L 341.4692 162.975745 
L 372.478 167.425454 
L 372.478 160.04802 
L 341.4692 155.639256 
L 310.4604 151.286282 
L 293.811927 148.9696 
L 279.4516 146.791461 
L 248.4428 142.162068 
L 217.434 137.61941 
L 186.4252 133.151944 
L 155.4164 128.748322 
L 124.4076 124.397159 
L 115.748592 123.1912 
L 93.3988 119.810244 
L 62.39 115.199953 
L 62.39 123.1912 
L 62.39 123.492295 
L 93.3988 127.784571 
L 124.4076 132.114402 
L 155.4164 136.49537 
L 186.4252 140.93861 
L 217.434 145.455167 
L 241.160481 148.9696 
z
" clip-path="url(#p1aa5073738)" style="fill: #3d4e8a"/>
    <path d="M 310.4604 228.268751 
L 341.4692 232.091771 
L 372.478 235.879217 
L 372.478 229.026602 
L 350.738633 226.3048 
L 341.4692 225.159484 
L 310.4604 221.364691 
L 279.4516 217.570917 
L 248.4428 213.76919 
L 217.434 209.951694 
L 186.4252 206.111285 
L 155.4164 202.241365 
L 141.676639 200.5264 
L 124.4076 198.401983 
L 93.3988 194.609555 
L 62.39 190.814794 
L 62.39 198.18996 
L 81.843225 200.5264 
L 93.3988 201.949064 
L 124.4076 205.769595 
L 155.4164 209.55608 
L 186.4252 213.314274 
L 217.434 217.050429 
L 248.4428 220.771339 
L 279.4516 224.484424 
L 294.56161 226.3048 
z
M 310.4604 151.286282 
L 341.4692 155.639256 
L 372.478 160.04802 
L 372.478 152.670585 
L 346.225671 148.9696 
L 341.4692 148.230912 
L 310.4604 143.47961 
L 279.4516 138.829223 
L 248.4428 134.267803 
L 217.434 129.783652 
L 186.4252 125.365278 
L 171.016642 123.1912 
L 155.4164 120.776394 
L 124.4076 116.055226 
L 93.3988 111.427937 
L 62.39 106.883374 
L 62.39 115.199953 
L 93.3988 119.810244 
L 115.748592 123.1912 
L 124.4076 124.397159 
L 155.4164 128.748322 
L 186.4252 133.151944 
L 217.434 137.61941 
L 248.4428 142.162068 
L 279.4516 146.791461 
L 293.811927 148.9696 
z
" clip-path="url(#p1aa5073738)" style="fill: #365d8d"/>
    <path d="M 248.4428 227.847398 
L 279.4516 231.622251 
L 310.4604 235.357482 
L 341.4692 239.05864 
L 372.478 242.731833 
L 372.478 235.879217 
L 341.4692 232.091771 
L 310.4604 228.268751 
L 294.56161 226.3048 
L 279.4516 224.484424 
L 248.4428 220.771339 
L 217.434 217.050429 
L 186.4252 213.314274 
L 155.4164 209.55608 
L 124.4076 205.769595 
L 93.3988 201.949064 
L 81.843225 200.5264 
L 62.39 198.18996 
L 62.39 200.5264 
L 62.39 205.78242 
L 93.3988 209.509028 
L 124.4076 213.203349 
L 155.4164 216.870795 
L 186.4252 220.517263 
L 217.434 224.149165 
L 235.774552 226.3048 
z
M 372.478 152.670585 
L 372.478 148.9696 
L 372.478 144.871207 
L 341.4692 140.10388 
L 310.4604 135.439827 
L 279.4516 130.866985 
L 248.4428 126.373539 
L 226.192037 123.1912 
L 217.434 121.804142 
L 186.4252 116.965517 
L 155.4164 112.233809 
L 124.4076 107.597594 
L 93.3988 103.045629 
L 62.39 98.566794 
L 62.39 106.883374 
L 93.3988 111.427937 
L 124.4076 116.055226 
L 155.4164 120.776394 
L 171.016642 123.1912 
L 186.4252 125.365278 
L 217.434 129.783652 
L 248.4428 134.267803 
L 279.4516 138.829223 
L 310.4604 143.47961 
L 341.4692 148.230912 
L 346.225671 148.9696 
z
" clip-path="url(#p1aa5073738)" style="fill: #306a8e"/>
    <path d="M 186.4252 227.807838 
L 217.434 231.526013 
L 248.4428 235.201918 
L 279.4516 238.840255 
L 310.4604 242.446213 
L 341.4692 246.025508 
L 372.478 249.584448 
L 372.478 242.731833 
L 341.4692 239.05864 
L 310.4604 235.357482 
L 279.4516 231.622251 
L 248.4428 227.847398 
L 235.774552 226.3048 
L 217.434 224.149165 
L 186.4252 220.517263 
L 155.4164 216.870795 
L 124.4076 213.203349 
L 93.3988 209.509028 
L 62.39 205.78242 
L 62.39 213.475636 
L 93.3988 217.068993 
L 124.4076 220.637102 
L 155.4164 224.18551 
L 173.893273 226.3048 
z
M 248.4428 126.373539 
L 279.4516 130.866985 
L 310.4604 135.439827 
L 341.4692 140.10388 
L 372.478 144.871207 
L 372.478 136.647068 
L 341.4692 131.976848 
L 310.4604 127.400044 
L 281.445577 123.1912 
L 279.4516 122.868101 
L 248.4428 117.905105 
L 217.434 113.062398 
L 186.4252 108.328269 
L 155.4164 103.691224 
L 124.4076 99.139961 
L 112.509564 97.4128 
L 93.3988 94.33006 
L 62.39 89.423073 
L 62.39 97.4128 
L 62.39 98.566794 
L 93.3988 103.045629 
L 124.4076 107.597594 
L 155.4164 112.233809 
L 186.4252 116.965517 
L 217.434 121.804142 
L 226.192037 123.1912 
z
" clip-path="url(#p1aa5073738)" style="fill: #2a778e"/>
    <path d="M 341.4692 253.061322 
L 372.478 256.742842 
L 372.478 252.0832 
L 372.478 249.584448 
L 341.4692 246.025508 
L 310.4604 242.446213 
L 279.4516 238.840255 
L 248.4428 235.201918 
L 217.434 231.526013 
L 186.4252 227.807838 
L 173.893273 226.3048 
L 155.4164 224.18551 
L 124.4076 220.637102 
L 93.3988 217.068993 
L 62.39 213.475636 
L 62.39 221.168853 
L 93.3988 224.628957 
L 108.366435 226.3048 
L 124.4076 228.198306 
L 155.4164 231.849243 
L 186.4252 235.456538 
L 217.434 239.024143 
L 248.4428 242.556438 
L 279.4516 246.058259 
L 310.4604 249.534944 
L 333.210397 252.0832 
z
M 310.4604 127.400044 
L 341.4692 131.976848 
L 372.478 136.647068 
L 372.478 128.422929 
L 341.4692 123.849816 
L 336.961959 123.1912 
L 310.4604 118.847544 
L 279.4516 113.887263 
L 248.4428 109.048888 
L 217.434 104.320654 
L 186.4252 99.691021 
L 170.958242 97.4128 
L 155.4164 94.84944 
L 124.4076 89.829152 
L 93.3988 84.931743 
L 62.39 80.146088 
L 62.39 89.423073 
L 93.3988 94.33006 
L 112.509564 97.4128 
L 124.4076 99.139961 
L 155.4164 103.691224 
L 186.4252 108.328269 
L 217.434 113.062398 
L 248.4428 117.905105 
L 279.4516 122.868101 
L 281.445577 123.1912 
z
" clip-path="url(#p1aa5073738)" style="fill: #25838e"/>
    <path d="M 279.4516 253.378787 
L 310.4604 256.991734 
L 341.4692 260.556509 
L 372.478 264.076725 
L 372.478 256.742842 
L 341.4692 253.061322 
L 333.210397 252.0832 
L 310.4604 249.534944 
L 279.4516 246.058259 
L 248.4428 242.556438 
L 217.434 239.024143 
L 186.4252 235.456538 
L 155.4164 231.849243 
L 124.4076 228.198306 
L 108.366435 226.3048 
L 93.3988 224.628957 
L 62.39 221.168853 
L 62.39 226.3048 
L 62.39 229.069806 
L 93.3988 232.641113 
L 124.4076 236.168526 
L 155.4164 239.655345 
L 186.4252 243.105237 
L 217.434 246.522273 
L 248.4428 249.910958 
L 268.325091 252.0832 
z
M 341.4692 123.849816 
L 372.478 128.422929 
L 372.478 123.1912 
L 372.478 119.764559 
L 341.4692 114.680447 
L 310.4604 109.73175 
L 279.4516 104.906424 
L 248.4428 100.19267 
L 229.856203 97.4128 
L 217.434 95.317786 
L 186.4252 90.180326 
L 155.4164 85.177987 
L 124.4076 80.299403 
L 93.3988 75.533426 
L 67.533265 71.6344 
L 62.39 70.762407 
L 62.39 71.6344 
L 62.39 80.146088 
L 93.3988 84.931743 
L 124.4076 89.829152 
L 155.4164 94.84944 
L 170.958242 97.4128 
L 186.4252 99.691021 
L 217.434 104.320654 
L 248.4428 109.048888 
L 279.4516 113.887263 
L 310.4604 118.847544 
L 336.961959 123.1912 
z
" clip-path="url(#p1aa5073738)" style="fill: #21908d"/>
    <path d="M 217.434 254.203775 
L 248.4428 257.734271 
L 279.4516 261.217058 
L 310.4604 264.65509 
L 341.4692 268.051696 
L 372.478 271.410609 
L 372.478 264.076725 
L 341.4692 260.556509 
L 310.4604 256.991734 
L 279.4516 253.378787 
L 268.325091 252.0832 
L 248.4428 249.910958 
L 217.434 246.522273 
L 186.4252 243.105237 
L 155.4164 239.655345 
L 124.4076 236.168526 
L 93.3988 232.641113 
L 62.39 229.069806 
L 62.39 237.38797 
L 93.3988 240.782056 
L 124.4076 244.138747 
L 155.4164 247.461447 
L 186.4252 250.753936 
L 198.895482 252.0832 
z
M 248.4428 100.19267 
L 279.4516 104.906424 
L 310.4604 109.73175 
L 341.4692 114.680447 
L 372.478 119.764559 
L 372.478 110.34701 
L 341.4692 105.419157 
L 310.4604 100.615956 
L 289.384236 97.4128 
L 279.4516 95.69966 
L 248.4428 90.44176 
L 217.434 85.331319 
L 186.4252 80.356705 
L 155.4164 75.506535 
L 130.137062 71.6344 
L 124.4076 70.641581 
L 93.3988 65.344058 
L 62.39 60.192051 
L 62.39 70.762407 
L 67.533265 71.6344 
L 93.3988 75.533426 
L 124.4076 80.299403 
L 155.4164 85.177987 
L 186.4252 90.180326 
L 217.434 95.317786 
L 229.856203 97.4128 
z
" clip-path="url(#p1aa5073738)" style="fill: #1e9d89"/>
    <path d="M 372.478 278.840492 
L 372.478 277.8616 
L 372.478 271.410609 
L 341.4692 268.051696 
L 310.4604 264.65509 
L 279.4516 261.217058 
L 248.4428 257.734271 
L 217.434 254.203775 
L 198.895482 252.0832 
L 186.4252 250.753936 
L 155.4164 247.461447 
L 124.4076 244.138747 
L 93.3988 240.782056 
L 62.39 237.38797 
L 62.39 245.706134 
L 93.3988 248.922999 
L 124.151478 252.0832 
L 124.4076 252.111683 
L 155.4164 255.592711 
L 186.4252 259.025335 
L 217.434 262.411661 
L 248.4428 265.754087 
L 279.4516 269.055328 
L 310.4604 272.318447 
L 341.4692 275.546884 
L 363.780656 277.8616 
z
M 310.4604 100.615956 
L 341.4692 105.419157 
L 372.478 110.34701 
L 372.478 100.92946 
L 349.725501 97.4128 
L 341.4692 95.956201 
L 310.4604 90.575434 
L 279.4516 85.354519 
L 248.4428 80.281538 
L 217.434 75.344853 
L 193.612865 71.6344 
L 186.4252 70.361148 
L 155.4164 64.952447 
L 124.4076 59.700422 
L 93.3988 54.593831 
L 62.39 49.621695 
L 62.39 60.192051 
L 93.3988 65.344058 
L 124.4076 70.641581 
L 130.137062 71.6344 
L 155.4164 75.506535 
L 186.4252 80.356705 
L 217.434 85.331319 
L 248.4428 90.44176 
L 279.4516 95.69966 
L 289.384236 97.4128 
z
" clip-path="url(#p1aa5073738)" style="fill: #23a983"/>
    <path d="M 310.4604 280.226919 
L 341.4692 283.624 
L 372.478 286.971808 
L 372.478 278.840492 
L 363.780656 277.8616 
L 341.4692 275.546884 
L 310.4604 272.318447 
L 279.4516 269.055328 
L 248.4428 265.754087 
L 217.434 262.411661 
L 186.4252 259.025335 
L 155.4164 255.592711 
L 124.4076 252.111683 
L 124.151478 252.0832 
L 93.3988 248.922999 
L 62.39 245.706134 
L 62.39 252.0832 
L 62.39 254.240057 
L 93.3988 257.603887 
L 124.4076 260.921946 
L 155.4164 264.195914 
L 186.4252 267.427715 
L 217.434 270.619547 
L 248.4428 273.773903 
L 279.4516 276.893598 
L 289.021386 277.8616 
z
M 372.478 100.92946 
L 372.478 97.4128 
L 372.478 90.539363 
L 341.4692 85.206631 
L 310.4604 80.033942 
L 279.4516 75.009379 
L 258.161422 71.6344 
L 248.4428 69.873983 
L 217.434 64.355018 
L 186.4252 59.003877 
L 155.4164 53.809035 
L 124.4076 48.759264 
L 106.225528 45.856 
L 93.3988 45.856 
L 62.39 45.856 
L 62.39 49.621695 
L 93.3988 54.593831 
L 124.4076 59.700422 
L 155.4164 64.952447 
L 186.4252 70.361148 
L 193.612865 71.6344 
L 217.434 75.344853 
L 248.4428 80.281538 
L 279.4516 85.354519 
L 310.4604 90.575434 
L 341.4692 95.956201 
L 349.725501 97.4128 
z
" clip-path="url(#p1aa5073738)" style="fill: #32b67a"/>
    <path d="M 217.434 278.946904 
L 248.4428 282.270586 
L 279.4516 285.546578 
L 310.4604 288.776231 
L 341.4692 291.961132 
L 372.478 295.103125 
L 372.478 286.971808 
L 341.4692 283.624 
L 310.4604 280.226919 
L 289.021386 277.8616 
L 279.4516 276.893598 
L 248.4428 273.773903 
L 217.434 270.619547 
L 186.4252 267.427715 
L 155.4164 264.195914 
L 124.4076 260.921946 
L 93.3988 257.603887 
L 62.39 254.240057 
L 62.39 263.482809 
L 93.3988 266.62736 
L 124.4076 269.73221 
L 155.4164 272.799117 
L 186.4252 275.830096 
L 207.282763 277.8616 
z
M 279.4516 75.009379 
L 310.4604 80.033942 
L 341.4692 85.206631 
L 372.478 90.539363 
L 372.478 79.569674 
L 341.4692 74.457062 
L 323.987822 71.6344 
L 310.4604 69.127992 
L 279.4516 63.501003 
L 248.4428 58.052946 
L 217.434 52.771981 
L 186.4252 47.646606 
L 175.413258 45.856 
L 155.4164 45.856 
L 124.4076 45.856 
L 106.225528 45.856 
L 124.4076 48.759264 
L 155.4164 53.809035 
L 186.4252 59.003877 
L 217.434 64.355018 
L 248.4428 69.873983 
L 258.161422 71.6344 
z
" clip-path="url(#p1aa5073738)" style="fill: #48c16e"/>
    <path d="M 124.4076 278.63066 
L 155.4164 281.854841 
L 186.4252 285.034369 
L 217.434 288.170085 
L 248.4428 291.263006 
L 279.4516 294.314348 
L 310.4604 297.325543 
L 341.4692 300.298263 
L 372.478 303.234441 
L 372.478 295.103125 
L 341.4692 291.961132 
L 310.4604 288.776231 
L 279.4516 285.546578 
L 248.4428 282.270586 
L 217.434 278.946904 
L 207.282763 277.8616 
L 186.4252 275.830096 
L 155.4164 272.799117 
L 124.4076 269.73221 
L 93.3988 266.62736 
L 62.39 263.482809 
L 62.39 272.72556 
L 93.3988 275.650834 
L 116.971865 277.8616 
z
M 341.4692 74.457062 
L 372.478 79.569674 
L 372.478 71.6344 
L 372.478 68.065268 
L 341.4692 62.334066 
L 310.4604 56.792834 
L 279.4516 51.429384 
L 248.4428 46.231909 
L 246.174496 45.856 
L 217.434 45.856 
L 186.4252 45.856 
L 175.413258 45.856 
L 186.4252 47.646606 
L 217.434 52.771981 
L 248.4428 58.052946 
L 279.4516 63.501003 
L 310.4604 69.127992 
L 323.987822 71.6344 
z
" clip-path="url(#p1aa5073738)" style="fill: #65cb5e"/>
    <path d="M 93.3988 285.567001 
L 124.4076 288.582041 
L 155.4164 291.557574 
L 186.4252 294.494345 
L 217.434 297.393265 
L 248.4428 300.255425 
L 279.4516 303.082118 
L 285.521848 303.64 
L 310.4604 303.64 
L 341.4692 303.64 
L 372.478 303.64 
L 372.478 303.234441 
L 341.4692 300.298263 
L 310.4604 297.325543 
L 279.4516 294.314348 
L 248.4428 291.263006 
L 217.434 288.170085 
L 186.4252 285.034369 
L 155.4164 281.854841 
L 124.4076 278.63066 
L 116.971865 277.8616 
L 93.3988 275.650834 
L 62.39 272.72556 
L 62.39 277.8616 
L 62.39 282.511858 
z
M 248.4428 46.231909 
L 279.4516 51.429384 
L 310.4604 56.792834 
L 341.4692 62.334066 
L 372.478 68.065268 
L 372.478 55.162533 
L 341.4692 49.722011 
L 318.832001 45.856 
L 310.4604 45.856 
L 279.4516 45.856 
L 248.4428 45.856 
L 246.174496 45.856 
z
" clip-path="url(#p1aa5073738)" style="fill: #84d44b"/>
    <path d="M 93.3988 295.772852 
L 124.4076 298.533422 
L 155.4164 301.260307 
L 182.725514 303.64 
L 186.4252 303.64 
L 217.434 303.64 
L 248.4428 303.64 
L 279.4516 303.64 
L 285.521848 303.64 
L 279.4516 303.082118 
L 248.4428 300.255425 
L 217.434 297.393265 
L 186.4252 294.494345 
L 155.4164 291.557574 
L 124.4076 288.582041 
L 93.3988 285.567001 
L 62.39 282.511858 
L 62.39 292.977939 
z
M 341.4692 49.722011 
L 372.478 55.162533 
L 372.478 45.856 
L 341.4692 45.856 
L 318.832001 45.856 
z
" clip-path="url(#p1aa5073738)" style="fill: #a8db34"/>
    <path d="M 93.3988 303.64 
L 124.4076 303.64 
L 155.4164 303.64 
L 182.725514 303.64 
L 155.4164 301.260307 
L 124.4076 298.533422 
L 93.3988 295.772852 
L 62.39 292.977939 
L 62.39 303.44402 
L 64.73247 303.64 
z
" clip-path="url(#p1aa5073738)" style="fill: #cae11f"/>
    <path d="M 62.39 303.44402 
L 62.39 303.64 
L 64.73247 303.64 
z
" clip-path="url(#p1aa5073738)" style="fill: #efe51c"/>
   </g>
   <g id="matplotlib.axis_1">
    <g id="xtick_1">
     <g id="line2d_1">
      <defs>
       <path id="m270cecfe81" d="M 0 0 
L 0 3.5 
" style="stroke: #000000; stroke-width: 0.8"/>
      </defs>
      <g>
       <use xlink:href="#m270cecfe81" x="62.39" y="303.64" style="stroke: #000000; stroke-width: 0.8"/>
      </g>
     </g>
     <g id="text_1">
      <!-- −1.00 -->
      <g transform="translate(47.067344 318.238437) scale(0.1 -0.1)">
       <defs>
        <path id="DejaVuSans-2212" d="M 678 2272 
L 4684 2272 
L 4684 1741 
L 678 1741 
L 678 2272 
z
" transform="scale(0.015625)"/>
        <path id="DejaVuSans-31" d="M 794 531 
L 1825 531 
L 1825 4091 
L 703 3866 
L 703 4441 
L 1819 4666 
L 2450 4666 
L 2450 531 
L 3481 531 
L 3481 0 
L 794 0 
L 794 531 
z
" transform="scale(0.015625)"/>
        <path id="DejaVuSans-2e" d="M 684 794 
L 1344 794 
L 1344 0 
L 684 0 
L 684 794 
z
" transform="scale(0.015625)"/>
        <path id="DejaVuSans-30" d="M 2034 4250 
Q 1547 4250 1301 3770 
Q 1056 3291 1056 2328 
Q 1056 1369 1301 889 
Q 1547 409 2034 409 
Q 2525 409 2770 889 
Q 3016 1369 3016 2328 
Q 3016 3291 2770 3770 
Q 2525 4250 2034 4250 
z
M 2034 4750 
Q 2819 4750 3233 4129 
Q 3647 3509 3647 2328 
Q 3647 1150 3233 529 
Q 2819 -91 2034 -91 
Q 1250 -91 836 529 
Q 422 1150 422 2328 
Q 422 3509 836 4129 
Q 1250 4750 2034 4750 
z
" transform="scale(0.015625)"/>
       </defs>
       <use xlink:href="#DejaVuSans-2212"/>
       <use xlink:href="#DejaVuSans-31" transform="translate(83.789062 0)"/>
       <use xlink:href="#DejaVuSans-2e" transform="translate(147.412109 0)"/>
       <use xlink:href="#DejaVuSans-30" transform="translate(179.199219 0)"/>
       <use xlink:href="#DejaVuSans-30" transform="translate(242.822266 0)"/>
      </g>
     </g>
    </g>
    <g id="xtick_2">
     <g id="line2d_2">
      <g>
       <use xlink:href="#m270cecfe81" x="101.151" y="303.64" style="stroke: #000000; stroke-width: 0.8"/>
      </g>
     </g>
     <g id="text_2">
      <!-- −0.75 -->
      <g transform="translate(85.828344 318.238437) scale(0.1 -0.1)">
       <defs>
        <path id="DejaVuSans-37" d="M 525 4666 
L 3525 4666 
L 3525 4397 
L 1831 0 
L 1172 0 
L 2766 4134 
L 525 4134 
L 525 4666 
z
" transform="scale(0.015625)"/>
        <path id="DejaVuSans-35" d="M 691 4666 
L 3169 4666 
L 3169 4134 
L 1269 4134 
L 1269 2991 
Q 1406 3038 1543 3061 
Q 1681 3084 1819 3084 
Q 2600 3084 3056 2656 
Q 3513 2228 3513 1497 
Q 3513 744 3044 326 
Q 2575 -91 1722 -91 
Q 1428 -91 1123 -41 
Q 819 9 494 109 
L 494 744 
Q 775 591 1075 516 
Q 1375 441 1709 441 
Q 2250 441 2565 725 
Q 2881 1009 2881 1497 
Q 2881 1984 2565 2268 
Q 2250 2553 1709 2553 
Q 1456 2553 1204 2497 
Q 953 2441 691 2322 
L 691 4666 
z
" transform="scale(0.015625)"/>
       </defs>
       <use xlink:href="#DejaVuSans-2212"/>
       <use xlink:href="#DejaVuSans-30" transform="translate(83.789062 0)"/>
       <use xlink:href="#DejaVuSans-2e" transform="translate(147.412109 0)"/>
       <use xlink:href="#DejaVuSans-37" transform="translate(179.199219 0)"/>
       <use xlink:href="#DejaVuSans-35" transform="translate(242.822266 0)"/>
      </g>
     </g>
    </g>
    <g id="xtick_3">
     <g id="line2d_3">
      <g>
       <use xlink:href="#m270cecfe81" x="139.912" y="303.64" style="stroke: #000000; stroke-width: 0.8"/>
      </g>
     </g>
     <g id="text_3">
      <!-- −0.50 -->
      <g transform="translate(124.589344 318.238437) scale(0.1 -0.1)">
       <use xlink:href="#DejaVuSans-2212"/>
       <use xlink:href="#DejaVuSans-30" transform="translate(83.789062 0)"/>
       <use xlink:href="#DejaVuSans-2e" transform="translate(147.412109 0)"/>
       <use xlink:href="#DejaVuSans-35" transform="translate(179.199219 0)"/>
       <use xlink:href="#DejaVuSans-30" transform="translate(242.822266 0)"/>
      </g>
     </g>
    </g>
    <g id="xtick_4">
     <g id="line2d_4">
      <g>
       <use xlink:href="#m270cecfe81" x="178.673" y="303.64" style="stroke: #000000; stroke-width: 0.8"/>
      </g>
     </g>
     <g id="text_4">
      <!-- −0.25 -->
      <g transform="translate(163.350344 318.238437) scale(0.1 -0.1)">
       <defs>
        <path id="DejaVuSans-32" d="M 1228 531 
L 3431 531 
L 3431 0 
L 469 0 
L 469 531 
Q 828 903 1448 1529 
Q 2069 2156 2228 2338 
Q 2531 2678 2651 2914 
Q 2772 3150 2772 3378 
Q 2772 3750 2511 3984 
Q 2250 4219 1831 4219 
Q 1534 4219 1204 4116 
Q 875 4013 500 3803 
L 500 4441 
Q 881 4594 1212 4672 
Q 1544 4750 1819 4750 
Q 2544 4750 2975 4387 
Q 3406 4025 3406 3419 
Q 3406 3131 3298 2873 
Q 3191 2616 2906 2266 
Q 2828 2175 2409 1742 
Q 1991 1309 1228 531 
z
" transform="scale(0.015625)"/>
       </defs>
       <use xlink:href="#DejaVuSans-2212"/>
       <use xlink:href="#DejaVuSans-30" transform="translate(83.789062 0)"/>
       <use xlink:href="#DejaVuSans-2e" transform="translate(147.412109 0)"/>
       <use xlink:href="#DejaVuSans-32" transform="translate(179.199219 0)"/>
       <use xlink:href="#DejaVuSans-35" transform="translate(242.822266 0)"/>
      </g>
     </g>
    </g>
    <g id="xtick_5">
     <g id="line2d_5">
      <g>
       <use xlink:href="#m270cecfe81" x="217.434" y="303.64" style="stroke: #000000; stroke-width: 0.8"/>
      </g>
     </g>
     <g id="text_5">
      <!-- 0.00 -->
      <g transform="translate(206.301187 318.238437) scale(0.1 -0.1)">
       <use xlink:href="#DejaVuSans-30"/>
       <use xlink:href="#DejaVuSans-2e" transform="translate(63.623047 0)"/>
       <use xlink:href="#DejaVuSans-30" transform="translate(95.410156 0)"/>
       <use xlink:href="#DejaVuSans-30" transform="translate(159.033203 0)"/>
      </g>
     </g>
    </g>
    <g id="xtick_6">
     <g id="line2d_6">
      <g>
       <use xlink:href="#m270cecfe81" x="256.195" y="303.64" style="stroke: #000000; stroke-width: 0.8"/>
      </g>
     </g>
     <g id="text_6">
      <!-- 0.25 -->
      <g transform="translate(245.062187 318.238437) scale(0.1 -0.1)">
       <use xlink:href="#DejaVuSans-30"/>
       <use xlink:href="#DejaVuSans-2e" transform="translate(63.623047 0)"/>
       <use xlink:href="#DejaVuSans-32" transform="translate(95.410156 0)"/>
       <use xlink:href="#DejaVuSans-35" transform="translate(159.033203 0)"/>
      </g>
     </g>
    </g>
    <g id="xtick_7">
     <g id="line2d_7">
      <g>
       <use xlink:href="#m270cecfe81" x="294.956" y="303.64" style="stroke: #000000; stroke-width: 0.8"/>
      </g>
     </g>
     <g id="text_7">
      <!-- 0.50 -->
      <g transform="translate(283.823188 318.238437) scale(0.1 -0.1)">
       <use xlink:href="#DejaVuSans-30"/>
       <use xlink:href="#DejaVuSans-2e" transform="translate(63.623047 0)"/>
       <use xlink:href="#DejaVuSans-35" transform="translate(95.410156 0)"/>
       <use xlink:href="#DejaVuSans-30" transform="translate(159.033203 0)"/>
      </g>
     </g>
    </g>
    <g id="xtick_8">
     <g id="line2d_8">
      <g>
       <use xlink:href="#m270cecfe81" x="333.717" y="303.64" style="stroke: #000000; stroke-width: 0.8"/>
      </g>
     </g>
     <g id="text_8">
      <!-- 0.75 -->
      <g transform="translate(322.584187 318.238437) scale(0.1 -0.1)">
       <use xlink:href="#DejaVuSans-30"/>
       <use xlink:href="#DejaVuSans-2e" transform="translate(63.623047 0)"/>
       <use xlink:href="#DejaVuSans-37" transform="translate(95.410156 0)"/>
       <use xlink:href="#DejaVuSans-35" transform="translate(159.033203 0)"/>
      </g>
     </g>
    </g>
    <g id="xtick_9">
     <g id="line2d_9">
      <g>
       <use xlink:href="#m270cecfe81" x="372.478" y="303.64" style="stroke: #000000; stroke-width: 0.8"/>
      </g>
     </g>
     <g id="text_9">
      <!-- 1.00 -->
      <g transform="translate(361.345187 318.238437) scale(0.1 -0.1)">
       <use xlink:href="#DejaVuSans-31"/>
       <use xlink:href="#DejaVuSans-2e" transform="translate(63.623047 0)"/>
       <use xlink:href="#DejaVuSans-30" transform="translate(95.410156 0)"/>
       <use xlink:href="#DejaVuSans-30" transform="translate(159.033203 0)"/>
      </g>
     </g>
    </g>
    <g id="text_10">
     <!-- Relative distance in first direction -->
     <g transform="translate(133.49025 331.916562) scale(0.1 -0.1)">
      <defs>
       <path id="DejaVuSans-52" d="M 2841 2188 
Q 3044 2119 3236 1894 
Q 3428 1669 3622 1275 
L 4263 0 
L 3584 0 
L 2988 1197 
Q 2756 1666 2539 1819 
Q 2322 1972 1947 1972 
L 1259 1972 
L 1259 0 
L 628 0 
L 628 4666 
L 2053 4666 
Q 2853 4666 3247 4331 
Q 3641 3997 3641 3322 
Q 3641 2881 3436 2590 
Q 3231 2300 2841 2188 
z
M 1259 4147 
L 1259 2491 
L 2053 2491 
Q 2509 2491 2742 2702 
Q 2975 2913 2975 3322 
Q 2975 3731 2742 3939 
Q 2509 4147 2053 4147 
L 1259 4147 
z
" transform="scale(0.015625)"/>
       <path id="DejaVuSans-65" d="M 3597 1894 
L 3597 1613 
L 953 1613 
Q 991 1019 1311 708 
Q 1631 397 2203 397 
Q 2534 397 2845 478 
Q 3156 559 3463 722 
L 3463 178 
Q 3153 47 2828 -22 
Q 2503 -91 2169 -91 
Q 1331 -91 842 396 
Q 353 884 353 1716 
Q 353 2575 817 3079 
Q 1281 3584 2069 3584 
Q 2775 3584 3186 3129 
Q 3597 2675 3597 1894 
z
M 3022 2063 
Q 3016 2534 2758 2815 
Q 2500 3097 2075 3097 
Q 1594 3097 1305 2825 
Q 1016 2553 972 2059 
L 3022 2063 
z
" transform="scale(0.015625)"/>
       <path id="DejaVuSans-6c" d="M 603 4863 
L 1178 4863 
L 1178 0 
L 603 0 
L 603 4863 
z
" transform="scale(0.015625)"/>
       <path id="DejaVuSans-61" d="M 2194 1759 
Q 1497 1759 1228 1600 
Q 959 1441 959 1056 
Q 959 750 1161 570 
Q 1363 391 1709 391 
Q 2188 391 2477 730 
Q 2766 1069 2766 1631 
L 2766 1759 
L 2194 1759 
z
M 3341 1997 
L 3341 0 
L 2766 0 
L 2766 531 
Q 2569 213 2275 61 
Q 1981 -91 1556 -91 
Q 1019 -91 701 211 
Q 384 513 384 1019 
Q 384 1609 779 1909 
Q 1175 2209 1959 2209 
L 2766 2209 
L 2766 2266 
Q 2766 2663 2505 2880 
Q 2244 3097 1772 3097 
Q 1472 3097 1187 3025 
Q 903 2953 641 2809 
L 641 3341 
Q 956 3463 1253 3523 
Q 1550 3584 1831 3584 
Q 2591 3584 2966 3190 
Q 3341 2797 3341 1997 
z
" transform="scale(0.015625)"/>
       <path id="DejaVuSans-74" d="M 1172 4494 
L 1172 3500 
L 2356 3500 
L 2356 3053 
L 1172 3053 
L 1172 1153 
Q 1172 725 1289 603 
Q 1406 481 1766 481 
L 2356 481 
L 2356 0 
L 1766 0 
Q 1100 0 847 248 
Q 594 497 594 1153 
L 594 3053 
L 172 3053 
L 172 3500 
L 594 3500 
L 594 4494 
L 1172 4494 
z
" transform="scale(0.015625)"/>
       <path id="DejaVuSans-69" d="M 603 3500 
L 1178 3500 
L 1178 0 
L 603 0 
L 603 3500 
z
M 603 4863 
L 1178 4863 
L 1178 4134 
L 603 4134 
L 603 4863 
z
" transform="scale(0.015625)"/>
       <path id="DejaVuSans-76" d="M 191 3500 
L 800 3500 
L 1894 563 
L 2988 3500 
L 3597 3500 
L 2284 0 
L 1503 0 
L 191 3500 
z
" transform="scale(0.015625)"/>
       <path id="DejaVuSans-20" transform="scale(0.015625)"/>
       <path id="DejaVuSans-64" d="M 2906 2969 
L 2906 4863 
L 3481 4863 
L 3481 0 
L 2906 0 
L 2906 525 
Q 2725 213 2448 61 
Q 2172 -91 1784 -91 
Q 1150 -91 751 415 
Q 353 922 353 1747 
Q 353 2572 751 3078 
Q 1150 3584 1784 3584 
Q 2172 3584 2448 3432 
Q 2725 3281 2906 2969 
z
M 947 1747 
Q 947 1113 1208 752 
Q 1469 391 1925 391 
Q 2381 391 2643 752 
Q 2906 1113 2906 1747 
Q 2906 2381 2643 2742 
Q 2381 3103 1925 3103 
Q 1469 3103 1208 2742 
Q 947 2381 947 1747 
z
" transform="scale(0.015625)"/>
       <path id="DejaVuSans-73" d="M 2834 3397 
L 2834 2853 
Q 2591 2978 2328 3040 
Q 2066 3103 1784 3103 
Q 1356 3103 1142 2972 
Q 928 2841 928 2578 
Q 928 2378 1081 2264 
Q 1234 2150 1697 2047 
L 1894 2003 
Q 2506 1872 2764 1633 
Q 3022 1394 3022 966 
Q 3022 478 2636 193 
Q 2250 -91 1575 -91 
Q 1294 -91 989 -36 
Q 684 19 347 128 
L 347 722 
Q 666 556 975 473 
Q 1284 391 1588 391 
Q 1994 391 2212 530 
Q 2431 669 2431 922 
Q 2431 1156 2273 1281 
Q 2116 1406 1581 1522 
L 1381 1569 
Q 847 1681 609 1914 
Q 372 2147 372 2553 
Q 372 3047 722 3315 
Q 1072 3584 1716 3584 
Q 2034 3584 2315 3537 
Q 2597 3491 2834 3397 
z
" transform="scale(0.015625)"/>
       <path id="DejaVuSans-6e" d="M 3513 2113 
L 3513 0 
L 2938 0 
L 2938 2094 
Q 2938 2591 2744 2837 
Q 2550 3084 2163 3084 
Q 1697 3084 1428 2787 
Q 1159 2491 1159 1978 
L 1159 0 
L 581 0 
L 581 3500 
L 1159 3500 
L 1159 2956 
Q 1366 3272 1645 3428 
Q 1925 3584 2291 3584 
Q 2894 3584 3203 3211 
Q 3513 2838 3513 2113 
z
" transform="scale(0.015625)"/>
       <path id="DejaVuSans-63" d="M 3122 3366 
L 3122 2828 
Q 2878 2963 2633 3030 
Q 2388 3097 2138 3097 
Q 1578 3097 1268 2742 
Q 959 2388 959 1747 
Q 959 1106 1268 751 
Q 1578 397 2138 397 
Q 2388 397 2633 464 
Q 2878 531 3122 666 
L 3122 134 
Q 2881 22 2623 -34 
Q 2366 -91 2075 -91 
Q 1284 -91 818 406 
Q 353 903 353 1747 
Q 353 2603 823 3093 
Q 1294 3584 2113 3584 
Q 2378 3584 2631 3529 
Q 2884 3475 3122 3366 
z
" transform="scale(0.015625)"/>
       <path id="DejaVuSans-66" d="M 2375 4863 
L 2375 4384 
L 1825 4384 
Q 1516 4384 1395 4259 
Q 1275 4134 1275 3809 
L 1275 3500 
L 2222 3500 
L 2222 3053 
L 1275 3053 
L 1275 0 
L 697 0 
L 697 3053 
L 147 3053 
L 147 3500 
L 697 3500 
L 697 3744 
Q 697 4328 969 4595 
Q 1241 4863 1831 4863 
L 2375 4863 
z
" transform="scale(0.015625)"/>
       <path id="DejaVuSans-72" d="M 2631 2963 
Q 2534 3019 2420 3045 
Q 2306 3072 2169 3072 
Q 1681 3072 1420 2755 
Q 1159 2438 1159 1844 
L 1159 0 
L 581 0 
L 581 3500 
L 1159 3500 
L 1159 2956 
Q 1341 3275 1631 3429 
Q 1922 3584 2338 3584 
Q 2397 3584 2469 3576 
Q 2541 3569 2628 3553 
L 2631 2963 
z
" transform="scale(0.015625)"/>
       <path id="DejaVuSans-6f" d="M 1959 3097 
Q 1497 3097 1228 2736 
Q 959 2375 959 1747 
Q 959 1119 1226 758 
Q 1494 397 1959 397 
Q 2419 397 2687 759 
Q 2956 1122 2956 1747 
Q 2956 2369 2687 2733 
Q 2419 3097 1959 3097 
z
M 1959 3584 
Q 2709 3584 3137 3096 
Q 3566 2609 3566 1747 
Q 3566 888 3137 398 
Q 2709 -91 1959 -91 
Q 1206 -91 779 398 
Q 353 888 353 1747 
Q 353 2609 779 3096 
Q 1206 3584 1959 3584 
z
" transform="scale(0.015625)"/>
      </defs>
      <use xlink:href="#DejaVuSans-52"/>
      <use xlink:href="#DejaVuSans-65" transform="translate(64.982422 0)"/>
      <use xlink:href="#DejaVuSans-6c" transform="translate(126.505859 0)"/>
      <use xlink:href="#DejaVuSans-61" transform="translate(154.289062 0)"/>
      <use xlink:href="#DejaVuSans-74" transform="translate(215.568359 0)"/>
      <use xlink:href="#DejaVuSans-69" transform="translate(254.777344 0)"/>
      <use xlink:href="#DejaVuSans-76" transform="translate(282.560547 0)"/>
      <use xlink:href="#DejaVuSans-65" transform="translate(341.740234 0)"/>
      <use xlink:href="#DejaVuSans-20" transform="translate(403.263672 0)"/>
      <use xlink:href="#DejaVuSans-64" transform="translate(435.050781 0)"/>
      <use xlink:href="#DejaVuSans-69" transform="translate(498.527344 0)"/>
      <use xlink:href="#DejaVuSans-73" transform="translate(526.310547 0)"/>
      <use xlink:href="#DejaVuSans-74" transform="translate(578.410156 0)"/>
      <use xlink:href="#DejaVuSans-61" transform="translate(617.619141 0)"/>
      <use xlink:href="#DejaVuSans-6e" transform="translate(678.898438 0)"/>
      <use xlink:href="#DejaVuSans-63" transform="translate(742.277344 0)"/>
      <use xlink:href="#DejaVuSans-65" transform="translate(797.257812 0)"/>
      <use xlink:href="#DejaVuSans-20" transform="translate(858.78125 0)"/>
      <use xlink:href="#DejaVuSans-69" transform="translate(890.568359 0)"/>
      <use xlink:href="#DejaVuSans-6e" transform="translate(918.351562 0)"/>
      <use xlink:href="#DejaVuSans-20" transform="translate(981.730469 0)"/>
      <use xlink:href="#DejaVuSans-66" transform="translate(1013.517578 0)"/>
      <use xlink:href="#DejaVuSans-69" transform="translate(1048.722656 0)"/>
      <use xlink:href="#DejaVuSans-72" transform="translate(1076.505859 0)"/>
      <use xlink:href="#DejaVuSans-73" transform="translate(1117.619141 0)"/>
      <use xlink:href="#DejaVuSans-74" transform="translate(1169.71875 0)"/>
      <use xlink:href="#DejaVuSans-20" transform="translate(1208.927734 0)"/>
      <use xlink:href="#DejaVuSans-64" transform="translate(1240.714844 0)"/>
      <use xlink:href="#DejaVuSans-69" transform="translate(1304.191406 0)"/>
      <use xlink:href="#DejaVuSans-72" transform="translate(1331.974609 0)"/>
      <use xlink:href="#DejaVuSans-65" transform="translate(1370.837891 0)"/>
      <use xlink:href="#DejaVuSans-63" transform="translate(1432.361328 0)"/>
      <use xlink:href="#DejaVuSans-74" transform="translate(1487.341797 0)"/>
      <use xlink:href="#DejaVuSans-69" transform="translate(1526.550781 0)"/>
      <use xlink:href="#DejaVuSans-6f" transform="translate(1554.333984 0)"/>
      <use xlink:href="#DejaVuSans-6e" transform="translate(1615.515625 0)"/>
     </g>
    </g>
   </g>
   <g id="matplotlib.axis_2">
    <g id="ytick_1">
     <g id="line2d_10">
      <defs>
       <path id="m418cac6d91" d="M 0 0 
L -3.5 0 
" style="stroke: #000000; stroke-width: 0.8"/>
      </defs>
      <g>
       <use xlink:href="#m418cac6d91" x="62.39" y="303.64" style="stroke: #000000; stroke-width: 0.8"/>
      </g>
     </g>
     <g id="text_11">
      <!-- −1.00 -->
      <g transform="translate(24.744688 307.439219) scale(0.1 -0.1)">
       <use xlink:href="#DejaVuSans-2212"/>
       <use xlink:href="#DejaVuSans-31" transform="translate(83.789062 0)"/>
       <use xlink:href="#DejaVuSans-2e" transform="translate(147.412109 0)"/>
       <use xlink:href="#DejaVuSans-30" transform="translate(179.199219 0)"/>
       <use xlink:href="#DejaVuSans-30" transform="translate(242.822266 0)"/>
      </g>
     </g>
    </g>
    <g id="ytick_2">
     <g id="line2d_11">
      <g>
       <use xlink:href="#m418cac6d91" x="62.39" y="271.417" style="stroke: #000000; stroke-width: 0.8"/>
      </g>
     </g>
     <g id="text_12">
      <!-- −0.75 -->
      <g transform="translate(24.744688 275.216219) scale(0.1 -0.1)">
       <use xlink:href="#DejaVuSans-2212"/>
       <use xlink:href="#DejaVuSans-30" transform="translate(83.789062 0)"/>
       <use xlink:href="#DejaVuSans-2e" transform="translate(147.412109 0)"/>
       <use xlink:href="#DejaVuSans-37" transform="translate(179.199219 0)"/>
       <use xlink:href="#DejaVuSans-35" transform="translate(242.822266 0)"/>
      </g>
     </g>
    </g>
    <g id="ytick_3">
     <g id="line2d_12">
      <g>
       <use xlink:href="#m418cac6d91" x="62.39" y="239.194" style="stroke: #000000; stroke-width: 0.8"/>
      </g>
     </g>
     <g id="text_13">
      <!-- −0.50 -->
      <g transform="translate(24.744688 242.993219) scale(0.1 -0.1)">
       <use xlink:href="#DejaVuSans-2212"/>
       <use xlink:href="#DejaVuSans-30" transform="translate(83.789062 0)"/>
       <use xlink:href="#DejaVuSans-2e" transform="translate(147.412109 0)"/>
       <use xlink:href="#DejaVuSans-35" transform="translate(179.199219 0)"/>
       <use xlink:href="#DejaVuSans-30" transform="translate(242.822266 0)"/>
      </g>
     </g>
    </g>
    <g id="ytick_4">
     <g id="line2d_13">
      <g>
       <use xlink:href="#m418cac6d91" x="62.39" y="206.971" style="stroke: #000000; stroke-width: 0.8"/>
      </g>
     </g>
     <g id="text_14">
      <!-- −0.25 -->
      <g transform="translate(24.744688 210.770219) scale(0.1 -0.1)">
       <use xlink:href="#DejaVuSans-2212"/>
       <use xlink:href="#DejaVuSans-30" transform="translate(83.789062 0)"/>
       <use xlink:href="#DejaVuSans-2e" transform="translate(147.412109 0)"/>
       <use xlink:href="#DejaVuSans-32" transform="translate(179.199219 0)"/>
       <use xlink:href="#DejaVuSans-35" transform="translate(242.822266 0)"/>
      </g>
     </g>
    </g>
    <g id="ytick_5">
     <g id="line2d_14">
      <g>
       <use xlink:href="#m418cac6d91" x="62.39" y="174.748" style="stroke: #000000; stroke-width: 0.8"/>
      </g>
     </g>
     <g id="text_15">
      <!-- 0.00 -->
      <g transform="translate(33.124375 178.547219) scale(0.1 -0.1)">
       <use xlink:href="#DejaVuSans-30"/>
       <use xlink:href="#DejaVuSans-2e" transform="translate(63.623047 0)"/>
       <use xlink:href="#DejaVuSans-30" transform="translate(95.410156 0)"/>
       <use xlink:href="#DejaVuSans-30" transform="translate(159.033203 0)"/>
      </g>
     </g>
    </g>
    <g id="ytick_6">
     <g id="line2d_15">
      <g>
       <use xlink:href="#m418cac6d91" x="62.39" y="142.525" style="stroke: #000000; stroke-width: 0.8"/>
      </g>
     </g>
     <g id="text_16">
      <!-- 0.25 -->
      <g transform="translate(33.124375 146.324219) scale(0.1 -0.1)">
       <use xlink:href="#DejaVuSans-30"/>
       <use xlink:href="#DejaVuSans-2e" transform="translate(63.623047 0)"/>
       <use xlink:href="#DejaVuSans-32" transform="translate(95.410156 0)"/>
       <use xlink:href="#DejaVuSans-35" transform="translate(159.033203 0)"/>
      </g>
     </g>
    </g>
    <g id="ytick_7">
     <g id="line2d_16">
      <g>
       <use xlink:href="#m418cac6d91" x="62.39" y="110.302" style="stroke: #000000; stroke-width: 0.8"/>
      </g>
     </g>
     <g id="text_17">
      <!-- 0.50 -->
      <g transform="translate(33.124375 114.101219) scale(0.1 -0.1)">
       <use xlink:href="#DejaVuSans-30"/>
       <use xlink:href="#DejaVuSans-2e" transform="translate(63.623047 0)"/>
       <use xlink:href="#DejaVuSans-35" transform="translate(95.410156 0)"/>
       <use xlink:href="#DejaVuSans-30" transform="translate(159.033203 0)"/>
      </g>
     </g>
    </g>
    <g id="ytick_8">
     <g id="line2d_17">
      <g>
       <use xlink:href="#m418cac6d91" x="62.39" y="78.079" style="stroke: #000000; stroke-width: 0.8"/>
      </g>
     </g>
     <g id="text_18">
      <!-- 0.75 -->
      <g transform="translate(33.124375 81.878219) scale(0.1 -0.1)">
       <use xlink:href="#DejaVuSans-30"/>
       <use xlink:href="#DejaVuSans-2e" transform="translate(63.623047 0)"/>
       <use xlink:href="#DejaVuSans-37" transform="translate(95.410156 0)"/>
       <use xlink:href="#DejaVuSans-35" transform="translate(159.033203 0)"/>
      </g>
     </g>
    </g>
    <g id="ytick_9">
     <g id="line2d_18">
      <g>
       <use xlink:href="#m418cac6d91" x="62.39" y="45.856" style="stroke: #000000; stroke-width: 0.8"/>
      </g>
     </g>
     <g id="text_19">
      <!-- 1.00 -->
      <g transform="translate(33.124375 49.655219) scale(0.1 -0.1)">
       <use xlink:href="#DejaVuSans-31"/>
       <use xlink:href="#DejaVuSans-2e" transform="translate(63.623047 0)"/>
       <use xlink:href="#DejaVuSans-30" transform="translate(95.410156 0)"/>
       <use xlink:href="#DejaVuSans-30" transform="translate(159.033203 0)"/>
      </g>
     </g>
    </g>
    <g id="text_20">
     <!-- Relative distance in second direction -->
     <g transform="translate(18.665 266.755031) rotate(-90) scale(0.1 -0.1)">
      <use xlink:href="#DejaVuSans-52"/>
      <use xlink:href="#DejaVuSans-65" transform="translate(64.982422 0)"/>
      <use xlink:href="#DejaVuSans-6c" transform="translate(126.505859 0)"/>
      <use xlink:href="#DejaVuSans-61" transform="translate(154.289062 0)"/>
      <use xlink:href="#DejaVuSans-74" transform="translate(215.568359 0)"/>
      <use xlink:href="#DejaVuSans-69" transform="translate(254.777344 0)"/>
      <use xlink:href="#DejaVuSans-76" transform="translate(282.560547 0)"/>
      <use xlink:href="#DejaVuSans-65" transform="translate(341.740234 0)"/>
      <use xlink:href="#DejaVuSans-20" transform="translate(403.263672 0)"/>
      <use xlink:href="#DejaVuSans-64" transform="translate(435.050781 0)"/>
      <use xlink:href="#DejaVuSans-69" transform="translate(498.527344 0)"/>
      <use xlink:href="#DejaVuSans-73" transform="translate(526.310547 0)"/>
      <use xlink:href="#DejaVuSans-74" transform="translate(578.410156 0)"/>
      <use xlink:href="#DejaVuSans-61" transform="translate(617.619141 0)"/>
      <use xlink:href="#DejaVuSans-6e" transform="translate(678.898438 0)"/>
      <use xlink:href="#DejaVuSans-63" transform="translate(742.277344 0)"/>
      <use xlink:href="#DejaVuSans-65" transform="translate(797.257812 0)"/>
      <use xlink:href="#DejaVuSans-20" transform="translate(858.78125 0)"/>
      <use xlink:href="#DejaVuSans-69" transform="translate(890.568359 0)"/>
      <use xlink:href="#DejaVuSans-6e" transform="translate(918.351562 0)"/>
      <use xlink:href="#DejaVuSans-20" transform="translate(981.730469 0)"/>
      <use xlink:href="#DejaVuSans-73" transform="translate(1013.517578 0)"/>
      <use xlink:href="#DejaVuSans-65" transform="translate(1065.617188 0)"/>
      <use xlink:href="#DejaVuSans-63" transform="translate(1127.140625 0)"/>
      <use xlink:href="#DejaVuSans-6f" transform="translate(1182.121094 0)"/>
      <use xlink:href="#DejaVuSans-6e" transform="translate(1243.302734 0)"/>
      <use xlink:href="#DejaVuSans-64" transform="translate(1306.681641 0)"/>
      <use xlink:href="#DejaVuSans-20" transform="translate(1370.158203 0)"/>
      <use xlink:href="#DejaVuSans-64" transform="translate(1401.945312 0)"/>
      <use xlink:href="#DejaVuSans-69" transform="translate(1465.421875 0)"/>
      <use xlink:href="#DejaVuSans-72" transform="translate(1493.205078 0)"/>
      <use xlink:href="#DejaVuSans-65" transform="translate(1532.068359 0)"/>
      <use xlink:href="#DejaVuSans-63" transform="translate(1593.591797 0)"/>
      <use xlink:href="#DejaVuSans-74" transform="translate(1648.572266 0)"/>
      <use xlink:href="#DejaVuSans-69" transform="translate(1687.78125 0)"/>
      <use xlink:href="#DejaVuSans-6f" transform="translate(1715.564453 0)"/>
      <use xlink:href="#DejaVuSans-6e" transform="translate(1776.746094 0)"/>
     </g>
    </g>
   </g>
   <g id="patch_3">
    <path d="M 62.39 303.64 
L 62.39 45.856 
" style="fill: none; stroke: #000000; stroke-width: 0.8; stroke-linejoin: miter; stroke-linecap: square"/>
   </g>
   <g id="patch_4">
    <path d="M 372.478 303.64 
L 372.478 45.856 
" style="fill: none; stroke: #000000; stroke-width: 0.8; stroke-linejoin: miter; stroke-linecap: square"/>
   </g>
   <g id="patch_5">
    <path d="M 62.39 303.64 
L 372.478 303.64 
" style="fill: none; stroke: #000000; stroke-width: 0.8; stroke-linejoin: miter; stroke-linecap: square"/>
   </g>
   <g id="patch_6">
    <path d="M 62.39 45.856 
L 372.478 45.856 
" style="fill: none; stroke: #000000; stroke-width: 0.8; stroke-linejoin: miter; stroke-linecap: square"/>
   </g>
   <g id="text_21">
    <!-- Relative error across two random directions -->
    <g transform="translate(86.332125 22.418625) scale(0.12 -0.12)">
     <defs>
      <path id="DejaVuSans-77" d="M 269 3500 
L 844 3500 
L 1563 769 
L 2278 3500 
L 2956 3500 
L 3675 769 
L 4391 3500 
L 4966 3500 
L 4050 0 
L 3372 0 
L 2619 2869 
L 1863 0 
L 1184 0 
L 269 3500 
z
" transform="scale(0.015625)"/>
      <path id="DejaVuSans-6d" d="M 3328 2828 
Q 3544 3216 3844 3400 
Q 4144 3584 4550 3584 
Q 5097 3584 5394 3201 
Q 5691 2819 5691 2113 
L 5691 0 
L 5113 0 
L 5113 2094 
Q 5113 2597 4934 2840 
Q 4756 3084 4391 3084 
Q 3944 3084 3684 2787 
Q 3425 2491 3425 1978 
L 3425 0 
L 2847 0 
L 2847 2094 
Q 2847 2600 2669 2842 
Q 2491 3084 2119 3084 
Q 1678 3084 1418 2786 
Q 1159 2488 1159 1978 
L 1159 0 
L 581 0 
L 581 3500 
L 1159 3500 
L 1159 2956 
Q 1356 3278 1631 3431 
Q 1906 3584 2284 3584 
Q 2666 3584 2933 3390 
Q 3200 3197 3328 2828 
z
" transform="scale(0.015625)"/>
     </defs>
     <use xlink:href="#DejaVuSans-52"/>
     <use xlink:href="#DejaVuSans-65" transform="translate(64.982422 0)"/>
     <use xlink:href="#DejaVuSans-6c" transform="translate(126.505859 0)"/>
     <use xlink:href="#DejaVuSans-61" transform="translate(154.289062 0)"/>
     <use xlink:href="#DejaVuSans-74" transform="translate(215.568359 0)"/>
     <use xlink:href="#DejaVuSans-69" transform="translate(254.777344 0)"/>
     <use xlink:href="#DejaVuSans-76" transform="translate(282.560547 0)"/>
     <use xlink:href="#DejaVuSans-65" transform="translate(341.740234 0)"/>
     <use xlink:href="#DejaVuSans-20" transform="translate(403.263672 0)"/>
     <use xlink:href="#DejaVuSans-65" transform="translate(435.050781 0)"/>
     <use xlink:href="#DejaVuSans-72" transform="translate(496.574219 0)"/>
     <use xlink:href="#DejaVuSans-72" transform="translate(535.9375 0)"/>
     <use xlink:href="#DejaVuSans-6f" transform="translate(574.800781 0)"/>
     <use xlink:href="#DejaVuSans-72" transform="translate(635.982422 0)"/>
     <use xlink:href="#DejaVuSans-20" transform="translate(677.095703 0)"/>
     <use xlink:href="#DejaVuSans-61" transform="translate(708.882812 0)"/>
     <use xlink:href="#DejaVuSans-63" transform="translate(770.162109 0)"/>
     <use xlink:href="#DejaVuSans-72" transform="translate(825.142578 0)"/>
     <use xlink:href="#DejaVuSans-6f" transform="translate(864.005859 0)"/>
     <use xlink:href="#DejaVuSans-73" transform="translate(925.1875 0)"/>
     <use xlink:href="#DejaVuSans-73" transform="translate(977.287109 0)"/>
     <use xlink:href="#DejaVuSans-20" transform="translate(1029.386719 0)"/>
     <use xlink:href="#DejaVuSans-74" transform="translate(1061.173828 0)"/>
     <use xlink:href="#DejaVuSans-77" transform="translate(1100.382812 0)"/>
     <use xlink:href="#DejaVuSans-6f" transform="translate(1182.169922 0)"/>
     <use xlink:href="#DejaVuSans-20" transform="translate(1243.351562 0)"/>
     <use xlink:href="#DejaVuSans-72" transform="translate(1275.138672 0)"/>
     <use xlink:href="#DejaVuSans-61" transform="translate(1316.251953 0)"/>
     <use xlink:href="#DejaVuSans-6e" transform="translate(1377.53125 0)"/>
     <use xlink:href="#DejaVuSans-64" transform="translate(1440.910156 0)"/>
     <use xlink:href="#DejaVuSans-6f" transform="translate(1504.386719 0)"/>
     <use xlink:href="#DejaVuSans-6d" transform="translate(1565.568359 0)"/>
     <use xlink:href="#DejaVuSans-20" transform="translate(1662.980469 0)"/>
     <use xlink:href="#DejaVuSans-64" transform="translate(1694.767578 0)"/>
     <use xlink:href="#DejaVuSans-69" transform="translate(1758.244141 0)"/>
     <use xlink:href="#DejaVuSans-72" transform="translate(1786.027344 0)"/>
     <use xlink:href="#DejaVuSans-65" transform="translate(1824.890625 0)"/>
     <use xlink:href="#DejaVuSans-63" transform="translate(1886.414062 0)"/>
     <use xlink:href="#DejaVuSans-74" transform="translate(1941.394531 0)"/>
     <use xlink:href="#DejaVuSans-69" transform="translate(1980.603516 0)"/>
     <use xlink:href="#DejaVuSans-6f" transform="translate(2008.386719 0)"/>
     <use xlink:href="#DejaVuSans-6e" transform="translate(2069.568359 0)"/>
     <use xlink:href="#DejaVuSans-73" transform="translate(2132.947266 0)"/>
    </g>
    <!-- in unknown parameters -->
    <g transform="translate(146.0865 35.856) scale(0.12 -0.12)">
     <defs>
      <path id="DejaVuSans-75" d="M 544 1381 
L 544 3500 
L 1119 3500 
L 1119 1403 
Q 1119 906 1312 657 
Q 1506 409 1894 409 
Q 2359 409 2629 706 
Q 2900 1003 2900 1516 
L 2900 3500 
L 3475 3500 
L 3475 0 
L 2900 0 
L 2900 538 
Q 2691 219 2414 64 
Q 2138 -91 1772 -91 
Q 1169 -91 856 284 
Q 544 659 544 1381 
z
M 1991 3584 
L 1991 3584 
z
" transform="scale(0.015625)"/>
      <path id="DejaVuSans-6b" d="M 581 4863 
L 1159 4863 
L 1159 1991 
L 2875 3500 
L 3609 3500 
L 1753 1863 
L 3688 0 
L 2938 0 
L 1159 1709 
L 1159 0 
L 581 0 
L 581 4863 
z
" transform="scale(0.015625)"/>
      <path id="DejaVuSans-70" d="M 1159 525 
L 1159 -1331 
L 581 -1331 
L 581 3500 
L 1159 3500 
L 1159 2969 
Q 1341 3281 1617 3432 
Q 1894 3584 2278 3584 
Q 2916 3584 3314 3078 
Q 3713 2572 3713 1747 
Q 3713 922 3314 415 
Q 2916 -91 2278 -91 
Q 1894 -91 1617 61 
Q 1341 213 1159 525 
z
M 3116 1747 
Q 3116 2381 2855 2742 
Q 2594 3103 2138 3103 
Q 1681 3103 1420 2742 
Q 1159 2381 1159 1747 
Q 1159 1113 1420 752 
Q 1681 391 2138 391 
Q 2594 391 2855 752 
Q 3116 1113 3116 1747 
z
" transform="scale(0.015625)"/>
     </defs>
     <use xlink:href="#DejaVuSans-69"/>
     <use xlink:href="#DejaVuSans-6e" transform="translate(27.783203 0)"/>
     <use xlink:href="#DejaVuSans-20" transform="translate(91.162109 0)"/>
     <use xlink:href="#DejaVuSans-75" transform="translate(122.949219 0)"/>
     <use xlink:href="#DejaVuSans-6e" transform="translate(186.328125 0)"/>
     <use xlink:href="#DejaVuSans-6b" transform="translate(249.707031 0)"/>
     <use xlink:href="#DejaVuSans-6e" transform="translate(307.617188 0)"/>
     <use xlink:href="#DejaVuSans-6f" transform="translate(370.996094 0)"/>
     <use xlink:href="#DejaVuSans-77" transform="translate(432.177734 0)"/>
     <use xlink:href="#DejaVuSans-6e" transform="translate(513.964844 0)"/>
     <use xlink:href="#DejaVuSans-20" transform="translate(577.34375 0)"/>
     <use xlink:href="#DejaVuSans-70" transform="translate(609.130859 0)"/>
     <use xlink:href="#DejaVuSans-61" transform="translate(672.607422 0)"/>
     <use xlink:href="#DejaVuSans-72" transform="translate(733.886719 0)"/>
     <use xlink:href="#DejaVuSans-61" transform="translate(775 0)"/>
     <use xlink:href="#DejaVuSans-6d" transform="translate(836.279297 0)"/>
     <use xlink:href="#DejaVuSans-65" transform="translate(933.691406 0)"/>
     <use xlink:href="#DejaVuSans-74" transform="translate(995.214844 0)"/>
     <use xlink:href="#DejaVuSans-65" transform="translate(1034.423828 0)"/>
     <use xlink:href="#DejaVuSans-72" transform="translate(1095.947266 0)"/>
     <use xlink:href="#DejaVuSans-73" transform="translate(1137.060547 0)"/>
    </g>
   </g>
  </g>
  <g id="axes_2">
   <g id="patch_7">
    <path d="M 391.8585 303.64 
L 404.7477 303.64 
L 404.7477 45.856 
L 391.8585 45.856 
z
" style="fill: #ffffff"/>
   </g>
   <g id="QuadMesh_1">
    <path d="M 391.8585 303.64 
L 404.7477 303.64 
L 404.7477 290.072421 
L 391.8585 290.072421 
L 391.8585 303.64 
" clip-path="url(#p7a1d586296)" style="fill: #460a5d"/>
    <path d="M 391.8585 290.072421 
L 404.7477 290.072421 
L 404.7477 276.504842 
L 391.8585 276.504842 
L 391.8585 290.072421 
" clip-path="url(#p7a1d586296)" style="fill: #481d6f"/>
    <path d="M 391.8585 276.504842 
L 404.7477 276.504842 
L 404.7477 262.937263 
L 391.8585 262.937263 
L 391.8585 276.504842 
" clip-path="url(#p7a1d586296)" style="fill: #472e7c"/>
    <path d="M 391.8585 262.937263 
L 404.7477 262.937263 
L 404.7477 249.369684 
L 391.8585 249.369684 
L 391.8585 262.937263 
" clip-path="url(#p7a1d586296)" style="fill: #423f85"/>
    <path d="M 391.8585 249.369684 
L 404.7477 249.369684 
L 404.7477 235.802105 
L 391.8585 235.802105 
L 391.8585 249.369684 
" clip-path="url(#p7a1d586296)" style="fill: #3d4e8a"/>
    <path d="M 391.8585 235.802105 
L 404.7477 235.802105 
L 404.7477 222.234526 
L 391.8585 222.234526 
L 391.8585 235.802105 
" clip-path="url(#p7a1d586296)" style="fill: #365d8d"/>
    <path d="M 391.8585 222.234526 
L 404.7477 222.234526 
L 404.7477 208.666947 
L 391.8585 208.666947 
L 391.8585 222.234526 
" clip-path="url(#p7a1d586296)" style="fill: #306a8e"/>
    <path d="M 391.8585 208.666947 
L 404.7477 208.666947 
L 404.7477 195.099368 
L 391.8585 195.099368 
L 391.8585 208.666947 
" clip-path="url(#p7a1d586296)" style="fill: #2a778e"/>
    <path d="M 391.8585 195.099368 
L 404.7477 195.099368 
L 404.7477 181.531789 
L 391.8585 181.531789 
L 391.8585 195.099368 
" clip-path="url(#p7a1d586296)" style="fill: #25838e"/>
    <path d="M 391.8585 181.531789 
L 404.7477 181.531789 
L 404.7477 167.964211 
L 391.8585 167.964211 
L 391.8585 181.531789 
" clip-path="url(#p7a1d586296)" style="fill: #21908d"/>
    <path d="M 391.8585 167.964211 
L 404.7477 167.964211 
L 404.7477 154.396632 
L 391.8585 154.396632 
L 391.8585 167.964211 
" clip-path="url(#p7a1d586296)" style="fill: #1e9d89"/>
    <path d="M 391.8585 154.396632 
L 404.7477 154.396632 
L 404.7477 140.829053 
L 391.8585 140.829053 
L 391.8585 154.396632 
" clip-path="url(#p7a1d586296)" style="fill: #23a983"/>
    <path d="M 391.8585 140.829053 
L 404.7477 140.829053 
L 404.7477 127.261474 
L 391.8585 127.261474 
L 391.8585 140.829053 
" clip-path="url(#p7a1d586296)" style="fill: #32b67a"/>
    <path d="M 391.8585 127.261474 
L 404.7477 127.261474 
L 404.7477 113.693895 
L 391.8585 113.693895 
L 391.8585 127.261474 
" clip-path="url(#p7a1d586296)" style="fill: #48c16e"/>
    <path d="M 391.8585 113.693895 
L 404.7477 113.693895 
L 404.7477 100.126316 
L 391.8585 100.126316 
L 391.8585 113.693895 
" clip-path="url(#p7a1d586296)" style="fill: #65cb5e"/>
    <path d="M 391.8585 100.126316 
L 404.7477 100.126316 
L 404.7477 86.558737 
L 391.8585 86.558737 
L 391.8585 100.126316 
" clip-path="url(#p7a1d586296)" style="fill: #84d44b"/>
    <path d="M 391.8585 86.558737 
L 404.7477 86.558737 
L 404.7477 72.991158 
L 391.8585 72.991158 
L 391.8585 86.558737 
" clip-path="url(#p7a1d586296)" style="fill: #a8db34"/>
    <path d="M 391.8585 72.991158 
L 404.7477 72.991158 
L 404.7477 59.423579 
L 391.8585 59.423579 
L 391.8585 72.991158 
" clip-path="url(#p7a1d586296)" style="fill: #cae11f"/>
    <path d="M 391.8585 59.423579 
L 404.7477 59.423579 
L 404.7477 45.856 
L 391.8585 45.856 
L 391.8585 59.423579 
" clip-path="url(#p7a1d586296)" style="fill: #efe51c"/>
   </g>
   <g id="matplotlib.axis_3"/>
   <g id="matplotlib.axis_4">
    <g id="ytick_10">
     <g id="line2d_19">
      <defs>
       <path id="ma507bd0a4a" d="M 0 0 
L 3.5 0 
" style="stroke: #000000; stroke-width: 0.8"/>
      </defs>
      <g>
       <use xlink:href="#ma507bd0a4a" x="404.7477" y="303.64" style="stroke: #000000; stroke-width: 0.8"/>
      </g>
     </g>
     <g id="text_22">
      <!-- 0.0 -->
      <g transform="translate(411.7477 307.439219) scale(0.1 -0.1)">
       <use xlink:href="#DejaVuSans-30"/>
       <use xlink:href="#DejaVuSans-2e" transform="translate(63.623047 0)"/>
       <use xlink:href="#DejaVuSans-30" transform="translate(95.410156 0)"/>
      </g>
     </g>
    </g>
    <g id="ytick_11">
     <g id="line2d_20">
      <g>
       <use xlink:href="#ma507bd0a4a" x="404.7477" y="276.504842" style="stroke: #000000; stroke-width: 0.8"/>
      </g>
     </g>
     <g id="text_23">
      <!-- 0.4 -->
      <g transform="translate(411.7477 280.304061) scale(0.1 -0.1)">
       <defs>
        <path id="DejaVuSans-34" d="M 2419 4116 
L 825 1625 
L 2419 1625 
L 2419 4116 
z
M 2253 4666 
L 3047 4666 
L 3047 1625 
L 3713 1625 
L 3713 1100 
L 3047 1100 
L 3047 0 
L 2419 0 
L 2419 1100 
L 313 1100 
L 313 1709 
L 2253 4666 
z
" transform="scale(0.015625)"/>
       </defs>
       <use xlink:href="#DejaVuSans-30"/>
       <use xlink:href="#DejaVuSans-2e" transform="translate(63.623047 0)"/>
       <use xlink:href="#DejaVuSans-34" transform="translate(95.410156 0)"/>
      </g>
     </g>
    </g>
    <g id="ytick_12">
     <g id="line2d_21">
      <g>
       <use xlink:href="#ma507bd0a4a" x="404.7477" y="249.369684" style="stroke: #000000; stroke-width: 0.8"/>
      </g>
     </g>
     <g id="text_24">
      <!-- 0.8 -->
      <g transform="translate(411.7477 253.168903) scale(0.1 -0.1)">
       <defs>
        <path id="DejaVuSans-38" d="M 2034 2216 
Q 1584 2216 1326 1975 
Q 1069 1734 1069 1313 
Q 1069 891 1326 650 
Q 1584 409 2034 409 
Q 2484 409 2743 651 
Q 3003 894 3003 1313 
Q 3003 1734 2745 1975 
Q 2488 2216 2034 2216 
z
M 1403 2484 
Q 997 2584 770 2862 
Q 544 3141 544 3541 
Q 544 4100 942 4425 
Q 1341 4750 2034 4750 
Q 2731 4750 3128 4425 
Q 3525 4100 3525 3541 
Q 3525 3141 3298 2862 
Q 3072 2584 2669 2484 
Q 3125 2378 3379 2068 
Q 3634 1759 3634 1313 
Q 3634 634 3220 271 
Q 2806 -91 2034 -91 
Q 1263 -91 848 271 
Q 434 634 434 1313 
Q 434 1759 690 2068 
Q 947 2378 1403 2484 
z
M 1172 3481 
Q 1172 3119 1398 2916 
Q 1625 2713 2034 2713 
Q 2441 2713 2670 2916 
Q 2900 3119 2900 3481 
Q 2900 3844 2670 4047 
Q 2441 4250 2034 4250 
Q 1625 4250 1398 4047 
Q 1172 3844 1172 3481 
z
" transform="scale(0.015625)"/>
       </defs>
       <use xlink:href="#DejaVuSans-30"/>
       <use xlink:href="#DejaVuSans-2e" transform="translate(63.623047 0)"/>
       <use xlink:href="#DejaVuSans-38" transform="translate(95.410156 0)"/>
      </g>
     </g>
    </g>
    <g id="ytick_13">
     <g id="line2d_22">
      <g>
       <use xlink:href="#ma507bd0a4a" x="404.7477" y="222.234526" style="stroke: #000000; stroke-width: 0.8"/>
      </g>
     </g>
     <g id="text_25">
      <!-- 1.2 -->
      <g transform="translate(411.7477 226.033745) scale(0.1 -0.1)">
       <use xlink:href="#DejaVuSans-31"/>
       <use xlink:href="#DejaVuSans-2e" transform="translate(63.623047 0)"/>
       <use xlink:href="#DejaVuSans-32" transform="translate(95.410156 0)"/>
      </g>
     </g>
    </g>
    <g id="ytick_14">
     <g id="line2d_23">
      <g>
       <use xlink:href="#ma507bd0a4a" x="404.7477" y="195.099368" style="stroke: #000000; stroke-width: 0.8"/>
      </g>
     </g>
     <g id="text_26">
      <!-- 1.6 -->
      <g transform="translate(411.7477 198.898587) scale(0.1 -0.1)">
       <defs>
        <path id="DejaVuSans-36" d="M 2113 2584 
Q 1688 2584 1439 2293 
Q 1191 2003 1191 1497 
Q 1191 994 1439 701 
Q 1688 409 2113 409 
Q 2538 409 2786 701 
Q 3034 994 3034 1497 
Q 3034 2003 2786 2293 
Q 2538 2584 2113 2584 
z
M 3366 4563 
L 3366 3988 
Q 3128 4100 2886 4159 
Q 2644 4219 2406 4219 
Q 1781 4219 1451 3797 
Q 1122 3375 1075 2522 
Q 1259 2794 1537 2939 
Q 1816 3084 2150 3084 
Q 2853 3084 3261 2657 
Q 3669 2231 3669 1497 
Q 3669 778 3244 343 
Q 2819 -91 2113 -91 
Q 1303 -91 875 529 
Q 447 1150 447 2328 
Q 447 3434 972 4092 
Q 1497 4750 2381 4750 
Q 2619 4750 2861 4703 
Q 3103 4656 3366 4563 
z
" transform="scale(0.015625)"/>
       </defs>
       <use xlink:href="#DejaVuSans-31"/>
       <use xlink:href="#DejaVuSans-2e" transform="translate(63.623047 0)"/>
       <use xlink:href="#DejaVuSans-36" transform="translate(95.410156 0)"/>
      </g>
     </g>
    </g>
    <g id="ytick_15">
     <g id="line2d_24">
      <g>
       <use xlink:href="#ma507bd0a4a" x="404.7477" y="167.964211" style="stroke: #000000; stroke-width: 0.8"/>
      </g>
     </g>
     <g id="text_27">
      <!-- 2.0 -->
      <g transform="translate(411.7477 171.763429) scale(0.1 -0.1)">
       <use xlink:href="#DejaVuSans-32"/>
       <use xlink:href="#DejaVuSans-2e" transform="translate(63.623047 0)"/>
       <use xlink:href="#DejaVuSans-30" transform="translate(95.410156 0)"/>
      </g>
     </g>
    </g>
    <g id="ytick_16">
     <g id="line2d_25">
      <g>
       <use xlink:href="#ma507bd0a4a" x="404.7477" y="140.829053" style="stroke: #000000; stroke-width: 0.8"/>
      </g>
     </g>
     <g id="text_28">
      <!-- 2.4 -->
      <g transform="translate(411.7477 144.628271) scale(0.1 -0.1)">
       <use xlink:href="#DejaVuSans-32"/>
       <use xlink:href="#DejaVuSans-2e" transform="translate(63.623047 0)"/>
       <use xlink:href="#DejaVuSans-34" transform="translate(95.410156 0)"/>
      </g>
     </g>
    </g>
    <g id="ytick_17">
     <g id="line2d_26">
      <g>
       <use xlink:href="#ma507bd0a4a" x="404.7477" y="113.693895" style="stroke: #000000; stroke-width: 0.8"/>
      </g>
     </g>
     <g id="text_29">
      <!-- 2.8 -->
      <g transform="translate(411.7477 117.493113) scale(0.1 -0.1)">
       <use xlink:href="#DejaVuSans-32"/>
       <use xlink:href="#DejaVuSans-2e" transform="translate(63.623047 0)"/>
       <use xlink:href="#DejaVuSans-38" transform="translate(95.410156 0)"/>
      </g>
     </g>
    </g>
    <g id="ytick_18">
     <g id="line2d_27">
      <g>
       <use xlink:href="#ma507bd0a4a" x="404.7477" y="86.558737" style="stroke: #000000; stroke-width: 0.8"/>
      </g>
     </g>
     <g id="text_30">
      <!-- 3.2 -->
      <g transform="translate(411.7477 90.357956) scale(0.1 -0.1)">
       <defs>
        <path id="DejaVuSans-33" d="M 2597 2516 
Q 3050 2419 3304 2112 
Q 3559 1806 3559 1356 
Q 3559 666 3084 287 
Q 2609 -91 1734 -91 
Q 1441 -91 1130 -33 
Q 819 25 488 141 
L 488 750 
Q 750 597 1062 519 
Q 1375 441 1716 441 
Q 2309 441 2620 675 
Q 2931 909 2931 1356 
Q 2931 1769 2642 2001 
Q 2353 2234 1838 2234 
L 1294 2234 
L 1294 2753 
L 1863 2753 
Q 2328 2753 2575 2939 
Q 2822 3125 2822 3475 
Q 2822 3834 2567 4026 
Q 2313 4219 1838 4219 
Q 1578 4219 1281 4162 
Q 984 4106 628 3988 
L 628 4550 
Q 988 4650 1302 4700 
Q 1616 4750 1894 4750 
Q 2613 4750 3031 4423 
Q 3450 4097 3450 3541 
Q 3450 3153 3228 2886 
Q 3006 2619 2597 2516 
z
" transform="scale(0.015625)"/>
       </defs>
       <use xlink:href="#DejaVuSans-33"/>
       <use xlink:href="#DejaVuSans-2e" transform="translate(63.623047 0)"/>
       <use xlink:href="#DejaVuSans-32" transform="translate(95.410156 0)"/>
      </g>
     </g>
    </g>
    <g id="ytick_19">
     <g id="line2d_28">
      <g>
       <use xlink:href="#ma507bd0a4a" x="404.7477" y="59.423579" style="stroke: #000000; stroke-width: 0.8"/>
      </g>
     </g>
     <g id="text_31">
      <!-- 3.6 -->
      <g transform="translate(411.7477 63.222798) scale(0.1 -0.1)">
       <use xlink:href="#DejaVuSans-33"/>
       <use xlink:href="#DejaVuSans-2e" transform="translate(63.623047 0)"/>
       <use xlink:href="#DejaVuSans-36" transform="translate(95.410156 0)"/>
      </g>
     </g>
    </g>
    <g id="text_32">
     <!-- Relative error -->
     <g transform="translate(439.249262 208.603469) rotate(-90) scale(0.1 -0.1)">
      <use xlink:href="#DejaVuSans-52"/>
      <use xlink:href="#DejaVuSans-65" transform="translate(64.982422 0)"/>
      <use xlink:href="#DejaVuSans-6c" transform="translate(126.505859 0)"/>
      <use xlink:href="#DejaVuSans-61" transform="translate(154.289062 0)"/>
      <use xlink:href="#DejaVuSans-74" transform="translate(215.568359 0)"/>
      <use xlink:href="#DejaVuSans-69" transform="translate(254.777344 0)"/>
      <use xlink:href="#DejaVuSans-76" transform="translate(282.560547 0)"/>
      <use xlink:href="#DejaVuSans-65" transform="translate(341.740234 0)"/>
      <use xlink:href="#DejaVuSans-20" transform="translate(403.263672 0)"/>
      <use xlink:href="#DejaVuSans-65" transform="translate(435.050781 0)"/>
      <use xlink:href="#DejaVuSans-72" transform="translate(496.574219 0)"/>
      <use xlink:href="#DejaVuSans-72" transform="translate(535.9375 0)"/>
      <use xlink:href="#DejaVuSans-6f" transform="translate(574.800781 0)"/>
      <use xlink:href="#DejaVuSans-72" transform="translate(635.982422 0)"/>
     </g>
    </g>
   </g>
   <g id="LineCollection_1"/>
   <g id="patch_8">
    <path d="M 391.8585 303.64 
L 398.3031 303.64 
L 404.7477 303.64 
L 404.7477 45.856 
L 398.3031 45.856 
L 391.8585 45.856 
L 391.8585 303.64 
z
" style="fill: none; stroke: #000000; stroke-width: 0.8; stroke-linejoin: miter; stroke-linecap: square"/>
   </g>
  </g>
 </g>
 <defs>
  <clipPath id="p1aa5073738">
   <rect x="62.39" y="45.856" width="310.088" height="257.784"/>
  </clipPath>
  <clipPath id="p7a1d586296">
   <rect x="391.8585" y="45.856" width="12.8892" height="257.784"/>
  </clipPath>
 </defs>
</svg>
