<?xml version="1.0" encoding="utf-8" standalone="no"?>
<!DOCTYPE svg PUBLIC "-//W3C//DTD SVG 1.1//EN"
  "http://www.w3.org/Graphics/SVG/1.1/DTD/svg11.dtd">
<svg xmlns:xlink="http://www.w3.org/1999/xlink" width="460.8pt" height="345.6pt" viewBox="0 0 460.8 345.6" xmlns="http://www.w3.org/2000/svg" version="1.1">
 <metadata>
  <rdf:RDF xmlns:dc="http://purl.org/dc/elements/1.1/" xmlns:cc="http://creativecommons.org/ns#" xmlns:rdf="http://www.w3.org/1999/02/22-rdf-syntax-ns#">
   <cc:Work>
    <dc:type rdf:resource="http://purl.org/dc/dcmitype/StillImage"/>
    <dc:date>2025-10-16T16:17:54.637850</dc:date>
    <dc:format>image/svg+xml</dc:format>
    <dc:creator>
     <cc:Agent>
      <dc:title>Matplotlib v3.10.6, https://matplotlib.org/</dc:title>
     </cc:Agent>
    </dc:creator>
   </cc:Work>
  </rdf:RDF>
 </metadata>
 <defs>
  <style type="text/css">*{stroke-linejoin: round; stroke-linecap: butt}</style>
 </defs>
 <g id="figure_1">
  <g id="patch_1">
   <path d="M 0 345.6 
L 460.8 345.6 
L 460.8 0 
L 0 0 
z
" style="fill: #ffffff"/>
  </g>
  <g id="axes_1">
   <g id="patch_2">
    <path d="M 46.64 303.64 
L 369.328 303.64 
L 369.328 45.856 
L 46.64 45.856 
z
" style="fill: #ffffff"/>
   </g>
   <g id="QuadContourSet_1">
    <path d="M 339.450125 228.204809 
L 339.450125 226.3048 
L 339.450125 224.153299 
L 329.827963 226.3048 
z
M 251.607087 203.874079 
L 280.8881 204.594743 
L 287.8021 200.5264 
L 280.8881 197.860554 
L 251.607087 194.306308 
L 240.637305 200.5264 
z
M 163.76405 174.968395 
L 193.045062 184.099087 
L 220.738666 174.748 
L 193.045062 164.721547 
L 163.76405 173.495017 
L 163.076907 174.748 
z
M 105.202025 153.706915 
L 134.483037 157.6204 
L 149.6444 148.9696 
L 134.483037 143.41365 
L 105.202025 140.119139 
L 90.509116 148.9696 
z
M 75.921012 123.98426 
L 76.39565 123.1912 
L 75.921012 123.018292 
L 46.64 116.73916 
L 46.64 123.1912 
L 46.64 129.074225 
z
" clip-path="url(#p5fdb1853ab)" style="fill: #460b5e"/>
    <path d="M 310.169112 231.325521 
L 339.450125 238.070713 
L 339.450125 228.204809 
L 329.827963 226.3048 
L 339.450125 224.153299 
L 339.450125 212.981505 
L 313.396155 200.5264 
L 310.169112 199.193915 
L 280.8881 187.854782 
L 251.607087 177.289107 
L 247.623356 174.748 
L 222.326075 164.669073 
L 193.045062 153.617815 
L 180.72524 148.9696 
L 163.76405 142.194565 
L 134.483037 131.200901 
L 112.990505 123.1912 
L 105.202025 120.079881 
L 75.921012 109.252677 
L 46.64 98.451515 
L 46.64 116.73916 
L 75.921012 123.018292 
L 76.39565 123.1912 
L 75.921012 123.98426 
L 46.64 129.074225 
L 46.64 145.749056 
L 53.732065 148.9696 
L 75.921012 156.074355 
L 105.202025 165.592633 
L 131.139667 174.748 
L 134.483037 175.781402 
L 163.76405 185.150592 
L 193.045062 194.45489 
L 210.631643 200.5264 
L 222.326075 204.09723 
L 251.607087 213.032804 
L 280.8881 219.864534 
L 292.897909 226.3048 
z
M 240.637305 200.5264 
L 251.607087 194.306308 
L 280.8881 197.860554 
L 287.8021 200.5264 
L 280.8881 204.594743 
L 251.607087 203.874079 
z
M 163.076907 174.748 
L 163.76405 173.495017 
L 193.045062 164.721547 
L 220.738666 174.748 
L 193.045062 184.099087 
L 163.76405 174.968395 
z
M 90.509116 148.9696 
L 105.202025 140.119139 
L 134.483037 143.41365 
L 149.6444 148.9696 
L 134.483037 157.6204 
L 105.202025 153.706915 
z
" clip-path="url(#p5fdb1853ab)" style="fill: #482071"/>
    <path d="M 280.8881 231.088595 
L 310.169112 239.603207 
L 339.450125 247.936618 
L 339.450125 238.070713 
L 310.169112 231.325521 
L 292.897909 226.3048 
L 280.8881 219.864534 
L 251.607087 213.032804 
L 222.326075 204.09723 
L 210.631643 200.5264 
L 193.045062 194.45489 
L 163.76405 185.150592 
L 134.483037 175.781402 
L 131.139667 174.748 
L 105.202025 165.592633 
L 75.921012 156.074355 
L 53.732065 148.9696 
L 46.64 145.749056 
L 46.64 148.9696 
L 46.64 158.583095 
L 75.921012 167.83192 
L 96.978514 174.748 
L 105.202025 177.195444 
L 134.483037 186.18935 
L 163.76405 195.332789 
L 179.931696 200.5264 
L 193.045062 204.399696 
L 222.326075 213.256452 
L 251.607087 222.19153 
L 264.407449 226.3048 
z
M 339.450125 212.981505 
L 339.450125 201.809711 
L 336.765657 200.5264 
L 310.169112 189.544365 
L 280.8881 177.849009 
L 273.068989 174.748 
L 251.607087 165.773728 
L 222.326075 154.039992 
L 209.129024 148.9696 
L 193.045062 142.200764 
L 163.76405 130.439032 
L 144.972416 123.1912 
L 134.483037 118.758038 
L 105.202025 106.988767 
L 80.621897 97.4128 
L 75.921012 95.419618 
L 46.64 83.667138 
L 46.64 97.4128 
L 46.64 98.451515 
L 75.921012 109.252677 
L 105.202025 120.079881 
L 112.990505 123.1912 
L 134.483037 131.200901 
L 163.76405 142.194565 
L 180.72524 148.9696 
L 193.045062 153.617815 
L 222.326075 164.669073 
L 247.623356 174.748 
L 251.607087 177.289107 
L 280.8881 187.854782 
L 310.169112 199.193915 
L 313.396155 200.5264 
z
" clip-path="url(#p5fdb1853ab)" style="fill: #46337f"/>
    <path d="M 339.450125 256.397394 
L 339.450125 252.0832 
L 339.450125 247.936618 
L 310.169112 239.603207 
L 280.8881 231.088595 
L 264.407449 226.3048 
L 251.607087 222.19153 
L 222.326075 213.256452 
L 193.045062 204.399696 
L 179.931696 200.5264 
L 163.76405 195.332789 
L 134.483037 186.18935 
L 105.202025 177.195444 
L 96.978514 174.748 
L 75.921012 167.83192 
L 46.64 158.583095 
L 46.64 170.497765 
L 60.231698 174.748 
L 75.921012 179.243671 
L 105.202025 187.849615 
L 134.483037 196.597298 
L 147.226102 200.5264 
L 163.76405 205.232186 
L 193.045062 213.762057 
L 222.326075 222.415673 
L 235.071393 226.3048 
L 251.607087 230.958554 
L 280.8881 239.361696 
L 310.169112 247.880893 
L 323.839677 252.0832 
z
M 339.450125 201.809711 
L 339.450125 200.5264 
L 339.450125 192.091303 
L 310.169112 179.894815 
L 297.40382 174.748 
L 280.8881 167.501314 
L 251.607087 155.224129 
L 236.049461 148.9696 
L 222.326075 142.906842 
L 193.045062 130.558111 
L 174.812907 123.1912 
L 163.76405 118.285083 
L 134.483037 105.876649 
L 113.696601 97.4128 
L 105.202025 93.62612 
L 75.921012 81.171895 
L 52.690129 71.6344 
L 46.64 68.929282 
L 46.64 71.6344 
L 46.64 83.667138 
L 75.921012 95.419618 
L 80.621897 97.4128 
L 105.202025 106.988767 
L 134.483037 118.758038 
L 144.972416 123.1912 
L 163.76405 130.439032 
L 193.045062 142.200764 
L 209.129024 148.9696 
L 222.326075 154.039992 
L 251.607087 165.773728 
L 273.068989 174.748 
L 280.8881 177.849009 
L 310.169112 189.544365 
L 336.765657 200.5264 
z
" clip-path="url(#p5fdb1853ab)" style="fill: #404588"/>
    <path d="M 310.169112 255.829701 
L 339.450125 263.839434 
L 339.450125 256.397394 
L 323.839677 252.0832 
L 310.169112 247.880893 
L 280.8881 239.361696 
L 251.607087 230.958554 
L 235.071393 226.3048 
L 222.326075 222.415673 
L 193.045062 213.762057 
L 163.76405 205.232186 
L 147.226102 200.5264 
L 134.483037 196.597298 
L 105.202025 187.849615 
L 75.921012 179.243671 
L 60.231698 174.748 
L 46.64 170.497765 
L 46.64 174.748 
L 46.64 181.951375 
L 75.921012 190.161424 
L 105.202025 198.503787 
L 112.045007 200.5264 
L 134.483037 206.669965 
L 163.76405 214.837162 
L 193.045062 223.124417 
L 203.914784 226.3048 
L 222.326075 231.297094 
L 251.607087 239.406244 
L 280.8881 247.634797 
L 296.173361 252.0832 
z
M 310.169112 179.894815 
L 339.450125 192.091303 
L 339.450125 182.561513 
L 320.789378 174.748 
L 310.169112 169.855002 
L 280.8881 157.000058 
L 261.780113 148.9696 
L 251.607087 144.253902 
L 222.326075 131.313902 
L 203.114657 123.1912 
L 193.045062 118.501809 
L 163.76405 105.490532 
L 144.789735 97.4128 
L 134.483037 92.595866 
L 105.202025 79.523766 
L 86.797216 71.6344 
L 75.921012 66.537849 
L 46.64 53.412614 
L 46.64 68.929282 
L 52.690129 71.6344 
L 75.921012 81.171895 
L 105.202025 93.62612 
L 113.696601 97.4128 
L 134.483037 105.876649 
L 163.76405 118.285083 
L 174.812907 123.1912 
L 193.045062 130.558111 
L 222.326075 142.906842 
L 236.049461 148.9696 
L 251.607087 155.224129 
L 280.8881 167.501314 
L 297.40382 174.748 
z
" clip-path="url(#p5fdb1853ab)" style="fill: #39558c"/>
    <path d="M 280.8881 255.704014 
L 310.169112 263.439388 
L 339.450125 271.281474 
L 339.450125 263.839434 
L 310.169112 255.829701 
L 296.173361 252.0832 
L 280.8881 247.634797 
L 251.607087 239.406244 
L 222.326075 231.297094 
L 203.914784 226.3048 
L 193.045062 223.124417 
L 163.76405 214.837162 
L 134.483037 206.669965 
L 112.045007 200.5264 
L 105.202025 198.503787 
L 75.921012 190.161424 
L 46.64 181.951375 
L 46.64 193.149308 
L 73.831239 200.5264 
L 75.921012 201.055491 
L 105.202025 208.750957 
L 134.483037 216.5393 
L 163.76405 224.442138 
L 170.411422 226.3048 
L 193.045062 232.20421 
L 222.326075 239.973509 
L 251.607087 247.853935 
L 266.830452 252.0832 
z
M 339.450125 182.561513 
L 339.450125 174.748 
L 339.450125 172.8557 
L 310.169112 159.369103 
L 286.502728 148.9696 
L 280.8881 146.238007 
L 251.607087 132.671151 
L 230.167404 123.1912 
L 222.326075 119.362785 
L 193.045062 105.732809 
L 174.344622 97.4128 
L 163.76405 92.233459 
L 134.483037 78.549859 
L 119.029935 71.6344 
L 105.202025 64.853228 
L 75.921012 51.121561 
L 64.217692 45.856 
L 46.64 45.856 
L 46.64 53.412614 
L 75.921012 66.537849 
L 86.797216 71.6344 
L 105.202025 79.523766 
L 134.483037 92.595866 
L 144.789735 97.4128 
L 163.76405 105.490532 
L 193.045062 118.501809 
L 203.114657 123.1912 
L 222.326075 131.313902 
L 251.607087 144.253902 
L 261.780113 148.9696 
L 280.8881 157.000058 
L 310.169112 169.855002 
L 320.789378 174.748 
z
" clip-path="url(#p5fdb1853ab)" style="fill: #32658e"/>
    <path d="M 339.450125 278.679057 
L 339.450125 277.8616 
L 339.450125 271.281474 
L 310.169112 263.439388 
L 280.8881 255.704014 
L 266.830452 252.0832 
L 251.607087 247.853935 
L 222.326075 239.973509 
L 193.045062 232.20421 
L 170.411422 226.3048 
L 163.76405 224.442138 
L 134.483037 216.5393 
L 105.202025 208.750957 
L 75.921012 201.055491 
L 73.831239 200.5264 
L 46.64 193.149308 
L 46.64 200.5264 
L 46.64 204.198752 
L 75.921012 211.505407 
L 105.202025 218.902756 
L 134.066542 226.3048 
L 134.483037 226.404858 
L 163.76405 233.731605 
L 193.045062 241.138633 
L 222.326075 248.649923 
L 235.271075 252.0832 
L 251.607087 256.120982 
L 280.8881 263.536097 
L 310.169112 271.049074 
L 336.095988 277.8616 
z
M 310.169112 159.369103 
L 339.450125 172.8557 
L 339.450125 162.348528 
L 310.357364 148.9696 
L 310.169112 148.873387 
L 280.8881 134.628333 
L 256.163457 123.1912 
L 251.607087 120.857693 
L 222.326075 106.573291 
L 202.627472 97.4128 
L 193.045062 92.499265 
L 163.76405 78.184299 
L 149.746581 71.6344 
L 134.483037 63.803002 
L 105.202025 49.461202 
L 97.519033 45.856 
L 75.921012 45.856 
L 64.217692 45.856 
L 75.921012 51.121561 
L 105.202025 64.853228 
L 119.029935 71.6344 
L 134.483037 78.549859 
L 163.76405 92.233459 
L 174.344622 97.4128 
L 193.045062 105.732809 
L 222.326075 119.362785 
L 230.167404 123.1912 
L 251.607087 132.671151 
L 280.8881 146.238007 
L 286.502728 148.9696 
z
" clip-path="url(#p5fdb1853ab)" style="fill: #2c738e"/>
    <path d="M 310.169112 278.62759 
L 339.450125 285.737243 
L 339.450125 278.679057 
L 336.095988 277.8616 
L 310.169112 271.049074 
L 280.8881 263.536097 
L 251.607087 256.120982 
L 235.271075 252.0832 
L 222.326075 248.649923 
L 193.045062 241.138633 
L 163.76405 233.731605 
L 134.483037 226.404858 
L 134.066542 226.3048 
L 105.202025 218.902756 
L 75.921012 211.505407 
L 46.64 204.198752 
L 46.64 214.9615 
L 75.921012 221.955324 
L 93.658813 226.3048 
L 105.202025 228.965275 
L 134.483037 235.915228 
L 163.76405 242.945167 
L 193.045062 250.073055 
L 200.989119 252.0832 
L 222.326075 257.136677 
L 251.607087 264.20692 
L 280.8881 271.36818 
L 306.88442 277.8616 
z
M 339.450125 162.348528 
L 339.450125 151.841356 
L 333.205432 148.9696 
L 310.169112 137.196059 
L 281.246507 123.1912 
L 280.8881 122.998539 
L 251.607087 108.004147 
L 229.826365 97.4128 
L 222.326075 93.382383 
L 193.045062 78.396981 
L 179.188347 71.6344 
L 163.76405 63.352518 
L 134.483037 48.376438 
L 129.334267 45.856 
L 105.202025 45.856 
L 97.519033 45.856 
L 105.202025 49.461202 
L 134.483037 63.803002 
L 149.746581 71.6344 
L 163.76405 78.184299 
L 193.045062 92.499265 
L 202.627472 97.4128 
L 222.326075 106.573291 
L 251.607087 120.857693 
L 256.163457 123.1912 
L 280.8881 134.628333 
L 310.169112 148.873387 
L 310.357364 148.9696 
z
" clip-path="url(#p5fdb1853ab)" style="fill: #26828e"/>
    <path d="M 280.8881 279.158675 
L 310.169112 285.939718 
L 339.450125 292.795429 
L 339.450125 285.737243 
L 310.169112 278.62759 
L 306.88442 277.8616 
L 280.8881 271.36818 
L 251.607087 264.20692 
L 222.326075 257.136677 
L 200.989119 252.0832 
L 193.045062 250.073055 
L 163.76405 242.945167 
L 134.483037 235.915228 
L 105.202025 228.965275 
L 93.658813 226.3048 
L 75.921012 221.955324 
L 46.64 214.9615 
L 46.64 225.724249 
L 49.1167 226.3048 
L 75.921012 232.229216 
L 105.202025 238.78746 
L 134.483037 245.425598 
L 163.425136 252.0832 
L 163.76405 252.15672 
L 193.045062 258.792979 
L 222.326075 265.499238 
L 251.607087 272.292859 
L 275.066045 277.8616 
z
M 339.450125 151.841356 
L 339.450125 148.9696 
L 339.450125 140.402894 
L 310.169112 125.518731 
L 305.362334 123.1912 
L 280.8881 110.035139 
L 256.08952 97.4128 
L 251.607087 94.886323 
L 222.326075 79.178211 
L 207.537485 71.6344 
L 193.045062 63.486285 
L 163.76405 47.837189 
L 159.886703 45.856 
L 134.483037 45.856 
L 129.334267 45.856 
L 134.483037 48.376438 
L 163.76405 63.352518 
L 179.188347 71.6344 
L 193.045062 78.396981 
L 222.326075 93.382383 
L 229.826365 97.4128 
L 251.607087 108.004147 
L 280.8881 122.998539 
L 281.246507 123.1912 
L 310.169112 137.196059 
L 333.205432 148.9696 
z
" clip-path="url(#p5fdb1853ab)" style="fill: #21918c"/>
    <path d="M 251.607087 280.315894 
L 280.8881 286.747432 
L 310.169112 293.251847 
L 339.450125 299.853615 
L 339.450125 292.795429 
L 310.169112 285.939718 
L 280.8881 279.158675 
L 275.066045 277.8616 
L 251.607087 272.292859 
L 222.326075 265.499238 
L 193.045062 258.792979 
L 163.76405 252.15672 
L 163.425136 252.0832 
L 134.483037 245.425598 
L 105.202025 238.78746 
L 75.921012 232.229216 
L 49.1167 226.3048 
L 46.64 225.724249 
L 46.64 226.3048 
L 46.64 236.226403 
L 75.921012 242.377607 
L 105.202025 248.609644 
L 121.044937 252.0832 
L 134.483037 254.871128 
L 163.76405 261.125349 
L 193.045062 267.450634 
L 222.326075 273.861798 
L 240.062897 277.8616 
z
M 310.169112 125.518731 
L 339.450125 140.402894 
L 339.450125 128.614166 
L 328.765805 123.1912 
L 310.169112 112.685868 
L 281.535268 97.4128 
L 280.8881 97.029726 
L 251.607087 80.531182 
L 234.937783 71.6344 
L 222.326075 64.202351 
L 193.045062 47.830742 
L 189.345891 45.856 
L 163.76405 45.856 
L 159.886703 45.856 
L 163.76405 47.837189 
L 193.045062 63.486285 
L 207.537485 71.6344 
L 222.326075 79.178211 
L 251.607087 94.886323 
L 256.08952 97.4128 
L 280.8881 110.035139 
L 305.362334 123.1912 
z
" clip-path="url(#p5fdb1853ab)" style="fill: #1f9f88"/>
    <path d="M 222.326075 282.136912 
L 251.607087 288.19977 
L 280.8881 294.33619 
L 310.169112 300.563975 
L 324.099753 303.64 
L 339.450125 303.64 
L 339.450125 299.853615 
L 310.169112 293.251847 
L 280.8881 286.747432 
L 251.607087 280.315894 
L 240.062897 277.8616 
L 222.326075 273.861798 
L 193.045062 267.450634 
L 163.76405 261.125349 
L 134.483037 254.871128 
L 121.044937 252.0832 
L 105.202025 248.609644 
L 75.921012 242.377607 
L 46.64 236.226403 
L 46.64 246.713699 
L 73.621654 252.0832 
L 75.921012 252.518784 
L 105.202025 258.309052 
L 134.483037 264.165337 
L 163.76405 270.093979 
L 193.045062 276.108289 
L 201.233031 277.8616 
z
M 339.450125 128.614166 
L 339.450125 123.1912 
L 339.450125 115.991183 
L 310.169112 99.565348 
L 306.13353 97.4128 
L 280.8881 82.469441 
L 261.509129 71.6344 
L 251.607087 65.511203 
L 222.326075 48.352447 
L 217.854423 45.856 
L 193.045062 45.856 
L 189.345891 45.856 
L 193.045062 47.830742 
L 222.326075 64.202351 
L 234.937783 71.6344 
L 251.607087 80.531182 
L 280.8881 97.029726 
L 281.535268 97.4128 
L 310.169112 112.685868 
L 328.765805 123.1912 
z
" clip-path="url(#p5fdb1853ab)" style="fill: #26ad81"/>
    <path d="M 163.76405 279.047802 
L 193.045062 284.656257 
L 222.326075 290.331853 
L 251.607087 296.083646 
L 280.8881 301.924948 
L 289.105258 303.64 
L 310.169112 303.64 
L 324.099753 303.64 
L 310.169112 300.563975 
L 280.8881 294.33619 
L 251.607087 288.19977 
L 222.326075 282.136912 
L 201.233031 277.8616 
L 193.045062 276.108289 
L 163.76405 270.093979 
L 134.483037 264.165337 
L 105.202025 258.309052 
L 75.921012 252.518784 
L 73.621654 252.0832 
L 46.64 246.713699 
L 46.64 252.0832 
L 46.64 257.131489 
L 75.921012 262.501833 
L 105.202025 267.941284 
L 134.483037 273.459546 
L 157.310085 277.8616 
z
M 310.169112 99.565348 
L 339.450125 115.991183 
L 339.450125 102.657505 
L 330.080866 97.4128 
L 310.169112 85.019195 
L 287.353874 71.6344 
L 280.8881 67.433188 
L 251.607087 49.407583 
L 245.532247 45.856 
L 222.326075 45.856 
L 217.854423 45.856 
L 222.326075 48.352447 
L 251.607087 65.511203 
L 261.509129 71.6344 
L 280.8881 82.469441 
L 306.13353 97.4128 
z
" clip-path="url(#p5fdb1853ab)" style="fill: #3aba76"/>
    <path d="M 134.483037 282.708255 
L 163.76405 287.905863 
L 193.045062 293.176372 
L 222.326075 298.526795 
L 249.779215 303.64 
L 251.607087 303.64 
L 280.8881 303.64 
L 289.105258 303.64 
L 280.8881 301.924948 
L 251.607087 296.083646 
L 222.326075 290.331853 
L 193.045062 284.656257 
L 163.76405 279.047802 
L 157.310085 277.8616 
L 134.483037 273.459546 
L 105.202025 267.941284 
L 75.921012 262.501833 
L 46.64 257.131489 
L 46.64 267.476356 
L 75.921012 272.484882 
L 105.202025 277.573516 
L 106.776332 277.8616 
z
M 339.450125 102.657505 
L 339.450125 97.4128 
L 339.450125 88.218735 
L 312.557909 71.6344 
L 310.169112 70.000594 
L 280.8881 51.01256 
L 272.479106 45.856 
L 251.607087 45.856 
L 245.532247 45.856 
L 251.607087 49.407583 
L 280.8881 67.433188 
L 287.353874 71.6344 
L 310.169112 85.019195 
L 330.080866 97.4128 
z
" clip-path="url(#p5fdb1853ab)" style="fill: #56c667"/>
    <path d="M 75.921012 282.447825 
L 105.202025 287.144116 
L 134.483037 291.916021 
L 163.76405 296.763925 
L 193.045062 301.696487 
L 204.100462 303.64 
L 222.326075 303.64 
L 249.779215 303.64 
L 222.326075 298.526795 
L 193.045062 293.176372 
L 163.76405 287.905863 
L 134.483037 282.708255 
L 106.776332 277.8616 
L 105.202025 277.573516 
L 75.921012 272.484882 
L 46.64 267.476356 
L 46.64 277.821223 
L 46.885608 277.8616 
z
M 339.450125 88.218735 
L 339.450125 73.063451 
L 337.132857 71.6344 
L 310.169112 53.192672 
L 298.782465 45.856 
L 280.8881 45.856 
L 272.479106 45.856 
L 280.8881 51.01256 
L 310.169112 70.000594 
L 312.557909 71.6344 
z
" clip-path="url(#p5fdb1853ab)" style="fill: #77d153"/>
    <path d="M 75.921012 292.387297 
L 105.202025 296.712815 
L 134.483037 301.123788 
L 150.582266 303.64 
L 163.76405 303.64 
L 193.045062 303.64 
L 204.100462 303.64 
L 193.045062 301.696487 
L 163.76405 296.763925 
L 134.483037 291.916021 
L 105.202025 287.144116 
L 75.921012 282.447825 
L 46.885608 277.8616 
L 46.64 277.821223 
L 46.64 277.8616 
L 46.64 288.142074 
z
M 339.450125 73.063451 
L 339.450125 71.6344 
L 339.450125 55.986885 
L 324.518124 45.856 
L 310.169112 45.856 
L 298.782465 45.856 
L 310.169112 53.192672 
L 337.132857 71.6344 
z
" clip-path="url(#p5fdb1853ab)" style="fill: #9dd93b"/>
    <path d="M 75.921012 302.32677 
L 85.398891 303.64 
L 105.202025 303.64 
L 134.483037 303.64 
L 150.582266 303.64 
L 134.483037 301.123788 
L 105.202025 296.712815 
L 75.921012 292.387297 
L 46.64 288.142074 
L 46.64 298.46283 
z
M 339.450125 55.986885 
L 339.450125 45.856 
L 324.518124 45.856 
z
" clip-path="url(#p5fdb1853ab)" style="fill: #c5e021"/>
    <path d="M 75.921012 303.64 
L 85.398891 303.64 
L 75.921012 302.32677 
L 46.64 298.46283 
L 46.64 303.64 
z
" clip-path="url(#p5fdb1853ab)" style="fill: #ece51b"/>
   </g>
   <g id="PathCollection_1">
    <defs>
     <path id="m655311a689" d="M 0 3 
C 0.795609 3 1.55874 2.683901 2.12132 2.12132 
C 2.683901 1.55874 3 0.795609 3 0 
C 3 -0.795609 2.683901 -1.55874 2.12132 -2.12132 
C 1.55874 -2.683901 0.795609 -3 0 -3 
C -0.795609 -3 -1.55874 -2.683901 -2.12132 -2.12132 
C -2.683901 -1.55874 -3 -0.795609 -3 0 
C -3 0.795609 -2.683901 1.55874 -2.12132 2.12132 
C -1.55874 2.683901 -0.795609 3 0 3 
z
" style="stroke: #ff0000"/>
    </defs>
    <g clip-path="url(#p5fdb1853ab)">
     <use xlink:href="#m655311a689" x="222.326074" y="197.304099" style="fill: #ff0000; stroke: #ff0000"/>
    </g>
   </g>
   <g id="matplotlib.axis_1">
    <g id="xtick_1">
     <g id="line2d_1">
      <defs>
       <path id="m992c150902" d="M 0 0 
L 0 3.5 
" style="stroke: #000000; stroke-width: 0.8"/>
      </defs>
      <g>
       <use xlink:href="#m992c150902" x="46.64" y="303.64" style="stroke: #000000; stroke-width: 0.8"/>
      </g>
     </g>
     <g id="text_1">
      <!-- −4 -->
      <g transform="translate(39.268906 318.238437) scale(0.1 -0.1)">
       <defs>
        <path id="DejaVuSans-2212" d="M 678 2272 
L 4684 2272 
L 4684 1741 
L 678 1741 
L 678 2272 
z
" transform="scale(0.015625)"/>
        <path id="DejaVuSans-34" d="M 2419 4116 
L 825 1625 
L 2419 1625 
L 2419 4116 
z
M 2253 4666 
L 3047 4666 
L 3047 1625 
L 3713 1625 
L 3713 1100 
L 3047 1100 
L 3047 0 
L 2419 0 
L 2419 1100 
L 313 1100 
L 313 1709 
L 2253 4666 
z
" transform="scale(0.015625)"/>
       </defs>
       <use xlink:href="#DejaVuSans-2212"/>
       <use xlink:href="#DejaVuSans-34" transform="translate(83.789062 0)"/>
      </g>
     </g>
    </g>
    <g id="xtick_2">
     <g id="line2d_2">
      <g>
       <use xlink:href="#m992c150902" x="83.241266" y="303.64" style="stroke: #000000; stroke-width: 0.8"/>
      </g>
     </g>
     <g id="text_2">
      <!-- −3 -->
      <g transform="translate(75.870172 318.238437) scale(0.1 -0.1)">
       <defs>
        <path id="DejaVuSans-33" d="M 2597 2516 
Q 3050 2419 3304 2112 
Q 3559 1806 3559 1356 
Q 3559 666 3084 287 
Q 2609 -91 1734 -91 
Q 1441 -91 1130 -33 
Q 819 25 488 141 
L 488 750 
Q 750 597 1062 519 
Q 1375 441 1716 441 
Q 2309 441 2620 675 
Q 2931 909 2931 1356 
Q 2931 1769 2642 2001 
Q 2353 2234 1838 2234 
L 1294 2234 
L 1294 2753 
L 1863 2753 
Q 2328 2753 2575 2939 
Q 2822 3125 2822 3475 
Q 2822 3834 2567 4026 
Q 2313 4219 1838 4219 
Q 1578 4219 1281 4162 
Q 984 4106 628 3988 
L 628 4550 
Q 988 4650 1302 4700 
Q 1616 4750 1894 4750 
Q 2613 4750 3031 4423 
Q 3450 4097 3450 3541 
Q 3450 3153 3228 2886 
Q 3006 2619 2597 2516 
z
" transform="scale(0.015625)"/>
       </defs>
       <use xlink:href="#DejaVuSans-2212"/>
       <use xlink:href="#DejaVuSans-33" transform="translate(83.789062 0)"/>
      </g>
     </g>
    </g>
    <g id="xtick_3">
     <g id="line2d_3">
      <g>
       <use xlink:href="#m992c150902" x="119.842531" y="303.64" style="stroke: #000000; stroke-width: 0.8"/>
      </g>
     </g>
     <g id="text_3">
      <!-- −2 -->
      <g transform="translate(112.471437 318.238437) scale(0.1 -0.1)">
       <defs>
        <path id="DejaVuSans-32" d="M 1228 531 
L 3431 531 
L 3431 0 
L 469 0 
L 469 531 
Q 828 903 1448 1529 
Q 2069 2156 2228 2338 
Q 2531 2678 2651 2914 
Q 2772 3150 2772 3378 
Q 2772 3750 2511 3984 
Q 2250 4219 1831 4219 
Q 1534 4219 1204 4116 
Q 875 4013 500 3803 
L 500 4441 
Q 881 4594 1212 4672 
Q 1544 4750 1819 4750 
Q 2544 4750 2975 4387 
Q 3406 4025 3406 3419 
Q 3406 3131 3298 2873 
Q 3191 2616 2906 2266 
Q 2828 2175 2409 1742 
Q 1991 1309 1228 531 
z
" transform="scale(0.015625)"/>
       </defs>
       <use xlink:href="#DejaVuSans-2212"/>
       <use xlink:href="#DejaVuSans-32" transform="translate(83.789062 0)"/>
      </g>
     </g>
    </g>
    <g id="xtick_4">
     <g id="line2d_4">
      <g>
       <use xlink:href="#m992c150902" x="156.443797" y="303.64" style="stroke: #000000; stroke-width: 0.8"/>
      </g>
     </g>
     <g id="text_4">
      <!-- −1 -->
      <g transform="translate(149.072703 318.238437) scale(0.1 -0.1)">
       <defs>
        <path id="DejaVuSans-31" d="M 794 531 
L 1825 531 
L 1825 4091 
L 703 3866 
L 703 4441 
L 1819 4666 
L 2450 4666 
L 2450 531 
L 3481 531 
L 3481 0 
L 794 0 
L 794 531 
z
" transform="scale(0.015625)"/>
       </defs>
       <use xlink:href="#DejaVuSans-2212"/>
       <use xlink:href="#DejaVuSans-31" transform="translate(83.789062 0)"/>
      </g>
     </g>
    </g>
    <g id="xtick_5">
     <g id="line2d_5">
      <g>
       <use xlink:href="#m992c150902" x="193.045062" y="303.64" style="stroke: #000000; stroke-width: 0.8"/>
      </g>
     </g>
     <g id="text_5">
      <!-- 0 -->
      <g transform="translate(189.863812 318.238437) scale(0.1 -0.1)">
       <defs>
        <path id="DejaVuSans-30" d="M 2034 4250 
Q 1547 4250 1301 3770 
Q 1056 3291 1056 2328 
Q 1056 1369 1301 889 
Q 1547 409 2034 409 
Q 2525 409 2770 889 
Q 3016 1369 3016 2328 
Q 3016 3291 2770 3770 
Q 2525 4250 2034 4250 
z
M 2034 4750 
Q 2819 4750 3233 4129 
Q 3647 3509 3647 2328 
Q 3647 1150 3233 529 
Q 2819 -91 2034 -91 
Q 1250 -91 836 529 
Q 422 1150 422 2328 
Q 422 3509 836 4129 
Q 1250 4750 2034 4750 
z
" transform="scale(0.015625)"/>
       </defs>
       <use xlink:href="#DejaVuSans-30"/>
      </g>
     </g>
    </g>
    <g id="xtick_6">
     <g id="line2d_6">
      <g>
       <use xlink:href="#m992c150902" x="229.646328" y="303.64" style="stroke: #000000; stroke-width: 0.8"/>
      </g>
     </g>
     <g id="text_6">
      <!-- 1 -->
      <g transform="translate(226.465078 318.238437) scale(0.1 -0.1)">
       <use xlink:href="#DejaVuSans-31"/>
      </g>
     </g>
    </g>
    <g id="xtick_7">
     <g id="line2d_7">
      <g>
       <use xlink:href="#m992c150902" x="266.247594" y="303.64" style="stroke: #000000; stroke-width: 0.8"/>
      </g>
     </g>
     <g id="text_7">
      <!-- 2 -->
      <g transform="translate(263.066344 318.238437) scale(0.1 -0.1)">
       <use xlink:href="#DejaVuSans-32"/>
      </g>
     </g>
    </g>
    <g id="xtick_8">
     <g id="line2d_8">
      <g>
       <use xlink:href="#m992c150902" x="302.848859" y="303.64" style="stroke: #000000; stroke-width: 0.8"/>
      </g>
     </g>
     <g id="text_8">
      <!-- 3 -->
      <g transform="translate(299.667609 318.238437) scale(0.1 -0.1)">
       <use xlink:href="#DejaVuSans-33"/>
      </g>
     </g>
    </g>
    <g id="xtick_9">
     <g id="line2d_9">
      <g>
       <use xlink:href="#m992c150902" x="339.450125" y="303.64" style="stroke: #000000; stroke-width: 0.8"/>
      </g>
     </g>
     <g id="text_9">
      <!-- 4 -->
      <g transform="translate(336.268875 318.238437) scale(0.1 -0.1)">
       <use xlink:href="#DejaVuSans-34"/>
      </g>
     </g>
    </g>
    <g id="text_10">
     <!-- Relative distance in first direction -->
     <g transform="translate(124.04025 331.916562) scale(0.1 -0.1)">
      <defs>
       <path id="DejaVuSans-52" d="M 2841 2188 
Q 3044 2119 3236 1894 
Q 3428 1669 3622 1275 
L 4263 0 
L 3584 0 
L 2988 1197 
Q 2756 1666 2539 1819 
Q 2322 1972 1947 1972 
L 1259 1972 
L 1259 0 
L 628 0 
L 628 4666 
L 2053 4666 
Q 2853 4666 3247 4331 
Q 3641 3997 3641 3322 
Q 3641 2881 3436 2590 
Q 3231 2300 2841 2188 
z
M 1259 4147 
L 1259 2491 
L 2053 2491 
Q 2509 2491 2742 2702 
Q 2975 2913 2975 3322 
Q 2975 3731 2742 3939 
Q 2509 4147 2053 4147 
L 1259 4147 
z
" transform="scale(0.015625)"/>
       <path id="DejaVuSans-65" d="M 3597 1894 
L 3597 1613 
L 953 1613 
Q 991 1019 1311 708 
Q 1631 397 2203 397 
Q 2534 397 2845 478 
Q 3156 559 3463 722 
L 3463 178 
Q 3153 47 2828 -22 
Q 2503 -91 2169 -91 
Q 1331 -91 842 396 
Q 353 884 353 1716 
Q 353 2575 817 3079 
Q 1281 3584 2069 3584 
Q 2775 3584 3186 3129 
Q 3597 2675 3597 1894 
z
M 3022 2063 
Q 3016 2534 2758 2815 
Q 2500 3097 2075 3097 
Q 1594 3097 1305 2825 
Q 1016 2553 972 2059 
L 3022 2063 
z
" transform="scale(0.015625)"/>
       <path id="DejaVuSans-6c" d="M 603 4863 
L 1178 4863 
L 1178 0 
L 603 0 
L 603 4863 
z
" transform="scale(0.015625)"/>
       <path id="DejaVuSans-61" d="M 2194 1759 
Q 1497 1759 1228 1600 
Q 959 1441 959 1056 
Q 959 750 1161 570 
Q 1363 391 1709 391 
Q 2188 391 2477 730 
Q 2766 1069 2766 1631 
L 2766 1759 
L 2194 1759 
z
M 3341 1997 
L 3341 0 
L 2766 0 
L 2766 531 
Q 2569 213 2275 61 
Q 1981 -91 1556 -91 
Q 1019 -91 701 211 
Q 384 513 384 1019 
Q 384 1609 779 1909 
Q 1175 2209 1959 2209 
L 2766 2209 
L 2766 2266 
Q 2766 2663 2505 2880 
Q 2244 3097 1772 3097 
Q 1472 3097 1187 3025 
Q 903 2953 641 2809 
L 641 3341 
Q 956 3463 1253 3523 
Q 1550 3584 1831 3584 
Q 2591 3584 2966 3190 
Q 3341 2797 3341 1997 
z
" transform="scale(0.015625)"/>
       <path id="DejaVuSans-74" d="M 1172 4494 
L 1172 3500 
L 2356 3500 
L 2356 3053 
L 1172 3053 
L 1172 1153 
Q 1172 725 1289 603 
Q 1406 481 1766 481 
L 2356 481 
L 2356 0 
L 1766 0 
Q 1100 0 847 248 
Q 594 497 594 1153 
L 594 3053 
L 172 3053 
L 172 3500 
L 594 3500 
L 594 4494 
L 1172 4494 
z
" transform="scale(0.015625)"/>
       <path id="DejaVuSans-69" d="M 603 3500 
L 1178 3500 
L 1178 0 
L 603 0 
L 603 3500 
z
M 603 4863 
L 1178 4863 
L 1178 4134 
L 603 4134 
L 603 4863 
z
" transform="scale(0.015625)"/>
       <path id="DejaVuSans-76" d="M 191 3500 
L 800 3500 
L 1894 563 
L 2988 3500 
L 3597 3500 
L 2284 0 
L 1503 0 
L 191 3500 
z
" transform="scale(0.015625)"/>
       <path id="DejaVuSans-20" transform="scale(0.015625)"/>
       <path id="DejaVuSans-64" d="M 2906 2969 
L 2906 4863 
L 3481 4863 
L 3481 0 
L 2906 0 
L 2906 525 
Q 2725 213 2448 61 
Q 2172 -91 1784 -91 
Q 1150 -91 751 415 
Q 353 922 353 1747 
Q 353 2572 751 3078 
Q 1150 3584 1784 3584 
Q 2172 3584 2448 3432 
Q 2725 3281 2906 2969 
z
M 947 1747 
Q 947 1113 1208 752 
Q 1469 391 1925 391 
Q 2381 391 2643 752 
Q 2906 1113 2906 1747 
Q 2906 2381 2643 2742 
Q 2381 3103 1925 3103 
Q 1469 3103 1208 2742 
Q 947 2381 947 1747 
z
" transform="scale(0.015625)"/>
       <path id="DejaVuSans-73" d="M 2834 3397 
L 2834 2853 
Q 2591 2978 2328 3040 
Q 2066 3103 1784 3103 
Q 1356 3103 1142 2972 
Q 928 2841 928 2578 
Q 928 2378 1081 2264 
Q 1234 2150 1697 2047 
L 1894 2003 
Q 2506 1872 2764 1633 
Q 3022 1394 3022 966 
Q 3022 478 2636 193 
Q 2250 -91 1575 -91 
Q 1294 -91 989 -36 
Q 684 19 347 128 
L 347 722 
Q 666 556 975 473 
Q 1284 391 1588 391 
Q 1994 391 2212 530 
Q 2431 669 2431 922 
Q 2431 1156 2273 1281 
Q 2116 1406 1581 1522 
L 1381 1569 
Q 847 1681 609 1914 
Q 372 2147 372 2553 
Q 372 3047 722 3315 
Q 1072 3584 1716 3584 
Q 2034 3584 2315 3537 
Q 2597 3491 2834 3397 
z
" transform="scale(0.015625)"/>
       <path id="DejaVuSans-6e" d="M 3513 2113 
L 3513 0 
L 2938 0 
L 2938 2094 
Q 2938 2591 2744 2837 
Q 2550 3084 2163 3084 
Q 1697 3084 1428 2787 
Q 1159 2491 1159 1978 
L 1159 0 
L 581 0 
L 581 3500 
L 1159 3500 
L 1159 2956 
Q 1366 3272 1645 3428 
Q 1925 3584 2291 3584 
Q 2894 3584 3203 3211 
Q 3513 2838 3513 2113 
z
" transform="scale(0.015625)"/>
       <path id="DejaVuSans-63" d="M 3122 3366 
L 3122 2828 
Q 2878 2963 2633 3030 
Q 2388 3097 2138 3097 
Q 1578 3097 1268 2742 
Q 959 2388 959 1747 
Q 959 1106 1268 751 
Q 1578 397 2138 397 
Q 2388 397 2633 464 
Q 2878 531 3122 666 
L 3122 134 
Q 2881 22 2623 -34 
Q 2366 -91 2075 -91 
Q 1284 -91 818 406 
Q 353 903 353 1747 
Q 353 2603 823 3093 
Q 1294 3584 2113 3584 
Q 2378 3584 2631 3529 
Q 2884 3475 3122 3366 
z
" transform="scale(0.015625)"/>
       <path id="DejaVuSans-66" d="M 2375 4863 
L 2375 4384 
L 1825 4384 
Q 1516 4384 1395 4259 
Q 1275 4134 1275 3809 
L 1275 3500 
L 2222 3500 
L 2222 3053 
L 1275 3053 
L 1275 0 
L 697 0 
L 697 3053 
L 147 3053 
L 147 3500 
L 697 3500 
L 697 3744 
Q 697 4328 969 4595 
Q 1241 4863 1831 4863 
L 2375 4863 
z
" transform="scale(0.015625)"/>
       <path id="DejaVuSans-72" d="M 2631 2963 
Q 2534 3019 2420 3045 
Q 2306 3072 2169 3072 
Q 1681 3072 1420 2755 
Q 1159 2438 1159 1844 
L 1159 0 
L 581 0 
L 581 3500 
L 1159 3500 
L 1159 2956 
Q 1341 3275 1631 3429 
Q 1922 3584 2338 3584 
Q 2397 3584 2469 3576 
Q 2541 3569 2628 3553 
L 2631 2963 
z
" transform="scale(0.015625)"/>
       <path id="DejaVuSans-6f" d="M 1959 3097 
Q 1497 3097 1228 2736 
Q 959 2375 959 1747 
Q 959 1119 1226 758 
Q 1494 397 1959 397 
Q 2419 397 2687 759 
Q 2956 1122 2956 1747 
Q 2956 2369 2687 2733 
Q 2419 3097 1959 3097 
z
M 1959 3584 
Q 2709 3584 3137 3096 
Q 3566 2609 3566 1747 
Q 3566 888 3137 398 
Q 2709 -91 1959 -91 
Q 1206 -91 779 398 
Q 353 888 353 1747 
Q 353 2609 779 3096 
Q 1206 3584 1959 3584 
z
" transform="scale(0.015625)"/>
      </defs>
      <use xlink:href="#DejaVuSans-52"/>
      <use xlink:href="#DejaVuSans-65" transform="translate(64.982422 0)"/>
      <use xlink:href="#DejaVuSans-6c" transform="translate(126.505859 0)"/>
      <use xlink:href="#DejaVuSans-61" transform="translate(154.289062 0)"/>
      <use xlink:href="#DejaVuSans-74" transform="translate(215.568359 0)"/>
      <use xlink:href="#DejaVuSans-69" transform="translate(254.777344 0)"/>
      <use xlink:href="#DejaVuSans-76" transform="translate(282.560547 0)"/>
      <use xlink:href="#DejaVuSans-65" transform="translate(341.740234 0)"/>
      <use xlink:href="#DejaVuSans-20" transform="translate(403.263672 0)"/>
      <use xlink:href="#DejaVuSans-64" transform="translate(435.050781 0)"/>
      <use xlink:href="#DejaVuSans-69" transform="translate(498.527344 0)"/>
      <use xlink:href="#DejaVuSans-73" transform="translate(526.310547 0)"/>
      <use xlink:href="#DejaVuSans-74" transform="translate(578.410156 0)"/>
      <use xlink:href="#DejaVuSans-61" transform="translate(617.619141 0)"/>
      <use xlink:href="#DejaVuSans-6e" transform="translate(678.898438 0)"/>
      <use xlink:href="#DejaVuSans-63" transform="translate(742.277344 0)"/>
      <use xlink:href="#DejaVuSans-65" transform="translate(797.257812 0)"/>
      <use xlink:href="#DejaVuSans-20" transform="translate(858.78125 0)"/>
      <use xlink:href="#DejaVuSans-69" transform="translate(890.568359 0)"/>
      <use xlink:href="#DejaVuSans-6e" transform="translate(918.351562 0)"/>
      <use xlink:href="#DejaVuSans-20" transform="translate(981.730469 0)"/>
      <use xlink:href="#DejaVuSans-66" transform="translate(1013.517578 0)"/>
      <use xlink:href="#DejaVuSans-69" transform="translate(1048.722656 0)"/>
      <use xlink:href="#DejaVuSans-72" transform="translate(1076.505859 0)"/>
      <use xlink:href="#DejaVuSans-73" transform="translate(1117.619141 0)"/>
      <use xlink:href="#DejaVuSans-74" transform="translate(1169.71875 0)"/>
      <use xlink:href="#DejaVuSans-20" transform="translate(1208.927734 0)"/>
      <use xlink:href="#DejaVuSans-64" transform="translate(1240.714844 0)"/>
      <use xlink:href="#DejaVuSans-69" transform="translate(1304.191406 0)"/>
      <use xlink:href="#DejaVuSans-72" transform="translate(1331.974609 0)"/>
      <use xlink:href="#DejaVuSans-65" transform="translate(1370.837891 0)"/>
      <use xlink:href="#DejaVuSans-63" transform="translate(1432.361328 0)"/>
      <use xlink:href="#DejaVuSans-74" transform="translate(1487.341797 0)"/>
      <use xlink:href="#DejaVuSans-69" transform="translate(1526.550781 0)"/>
      <use xlink:href="#DejaVuSans-6f" transform="translate(1554.333984 0)"/>
      <use xlink:href="#DejaVuSans-6e" transform="translate(1615.515625 0)"/>
     </g>
    </g>
   </g>
   <g id="matplotlib.axis_2">
    <g id="ytick_1">
     <g id="line2d_10">
      <defs>
       <path id="mbba100298b" d="M 0 0 
L -3.5 0 
" style="stroke: #000000; stroke-width: 0.8"/>
      </defs>
      <g>
       <use xlink:href="#mbba100298b" x="46.64" y="303.64" style="stroke: #000000; stroke-width: 0.8"/>
      </g>
     </g>
     <g id="text_11">
      <!-- −4 -->
      <g transform="translate(24.897813 307.439219) scale(0.1 -0.1)">
       <use xlink:href="#DejaVuSans-2212"/>
       <use xlink:href="#DejaVuSans-34" transform="translate(83.789062 0)"/>
      </g>
     </g>
    </g>
    <g id="ytick_2">
     <g id="line2d_11">
      <g>
       <use xlink:href="#mbba100298b" x="46.64" y="271.417" style="stroke: #000000; stroke-width: 0.8"/>
      </g>
     </g>
     <g id="text_12">
      <!-- −3 -->
      <g transform="translate(24.897813 275.216219) scale(0.1 -0.1)">
       <use xlink:href="#DejaVuSans-2212"/>
       <use xlink:href="#DejaVuSans-33" transform="translate(83.789062 0)"/>
      </g>
     </g>
    </g>
    <g id="ytick_3">
     <g id="line2d_12">
      <g>
       <use xlink:href="#mbba100298b" x="46.64" y="239.194" style="stroke: #000000; stroke-width: 0.8"/>
      </g>
     </g>
     <g id="text_13">
      <!-- −2 -->
      <g transform="translate(24.897813 242.993219) scale(0.1 -0.1)">
       <use xlink:href="#DejaVuSans-2212"/>
       <use xlink:href="#DejaVuSans-32" transform="translate(83.789062 0)"/>
      </g>
     </g>
    </g>
    <g id="ytick_4">
     <g id="line2d_13">
      <g>
       <use xlink:href="#mbba100298b" x="46.64" y="206.971" style="stroke: #000000; stroke-width: 0.8"/>
      </g>
     </g>
     <g id="text_14">
      <!-- −1 -->
      <g transform="translate(24.897813 210.770219) scale(0.1 -0.1)">
       <use xlink:href="#DejaVuSans-2212"/>
       <use xlink:href="#DejaVuSans-31" transform="translate(83.789062 0)"/>
      </g>
     </g>
    </g>
    <g id="ytick_5">
     <g id="line2d_14">
      <g>
       <use xlink:href="#mbba100298b" x="46.64" y="174.748" style="stroke: #000000; stroke-width: 0.8"/>
      </g>
     </g>
     <g id="text_15">
      <!-- 0 -->
      <g transform="translate(33.2775 178.547219) scale(0.1 -0.1)">
       <use xlink:href="#DejaVuSans-30"/>
      </g>
     </g>
    </g>
    <g id="ytick_6">
     <g id="line2d_15">
      <g>
       <use xlink:href="#mbba100298b" x="46.64" y="142.525" style="stroke: #000000; stroke-width: 0.8"/>
      </g>
     </g>
     <g id="text_16">
      <!-- 1 -->
      <g transform="translate(33.2775 146.324219) scale(0.1 -0.1)">
       <use xlink:href="#DejaVuSans-31"/>
      </g>
     </g>
    </g>
    <g id="ytick_7">
     <g id="line2d_16">
      <g>
       <use xlink:href="#mbba100298b" x="46.64" y="110.302" style="stroke: #000000; stroke-width: 0.8"/>
      </g>
     </g>
     <g id="text_17">
      <!-- 2 -->
      <g transform="translate(33.2775 114.101219) scale(0.1 -0.1)">
       <use xlink:href="#DejaVuSans-32"/>
      </g>
     </g>
    </g>
    <g id="ytick_8">
     <g id="line2d_17">
      <g>
       <use xlink:href="#mbba100298b" x="46.64" y="78.079" style="stroke: #000000; stroke-width: 0.8"/>
      </g>
     </g>
     <g id="text_18">
      <!-- 3 -->
      <g transform="translate(33.2775 81.878219) scale(0.1 -0.1)">
       <use xlink:href="#DejaVuSans-33"/>
      </g>
     </g>
    </g>
    <g id="ytick_9">
     <g id="line2d_18">
      <g>
       <use xlink:href="#mbba100298b" x="46.64" y="45.856" style="stroke: #000000; stroke-width: 0.8"/>
      </g>
     </g>
     <g id="text_19">
      <!-- 4 -->
      <g transform="translate(33.2775 49.655219) scale(0.1 -0.1)">
       <use xlink:href="#DejaVuSans-34"/>
      </g>
     </g>
    </g>
    <g id="text_20">
     <!-- Relative distance in second direction -->
     <g transform="translate(18.818125 266.755031) rotate(-90) scale(0.1 -0.1)">
      <use xlink:href="#DejaVuSans-52"/>
      <use xlink:href="#DejaVuSans-65" transform="translate(64.982422 0)"/>
      <use xlink:href="#DejaVuSans-6c" transform="translate(126.505859 0)"/>
      <use xlink:href="#DejaVuSans-61" transform="translate(154.289062 0)"/>
      <use xlink:href="#DejaVuSans-74" transform="translate(215.568359 0)"/>
      <use xlink:href="#DejaVuSans-69" transform="translate(254.777344 0)"/>
      <use xlink:href="#DejaVuSans-76" transform="translate(282.560547 0)"/>
      <use xlink:href="#DejaVuSans-65" transform="translate(341.740234 0)"/>
      <use xlink:href="#DejaVuSans-20" transform="translate(403.263672 0)"/>
      <use xlink:href="#DejaVuSans-64" transform="translate(435.050781 0)"/>
      <use xlink:href="#DejaVuSans-69" transform="translate(498.527344 0)"/>
      <use xlink:href="#DejaVuSans-73" transform="translate(526.310547 0)"/>
      <use xlink:href="#DejaVuSans-74" transform="translate(578.410156 0)"/>
      <use xlink:href="#DejaVuSans-61" transform="translate(617.619141 0)"/>
      <use xlink:href="#DejaVuSans-6e" transform="translate(678.898438 0)"/>
      <use xlink:href="#DejaVuSans-63" transform="translate(742.277344 0)"/>
      <use xlink:href="#DejaVuSans-65" transform="translate(797.257812 0)"/>
      <use xlink:href="#DejaVuSans-20" transform="translate(858.78125 0)"/>
      <use xlink:href="#DejaVuSans-69" transform="translate(890.568359 0)"/>
      <use xlink:href="#DejaVuSans-6e" transform="translate(918.351562 0)"/>
      <use xlink:href="#DejaVuSans-20" transform="translate(981.730469 0)"/>
      <use xlink:href="#DejaVuSans-73" transform="translate(1013.517578 0)"/>
      <use xlink:href="#DejaVuSans-65" transform="translate(1065.617188 0)"/>
      <use xlink:href="#DejaVuSans-63" transform="translate(1127.140625 0)"/>
      <use xlink:href="#DejaVuSans-6f" transform="translate(1182.121094 0)"/>
      <use xlink:href="#DejaVuSans-6e" transform="translate(1243.302734 0)"/>
      <use xlink:href="#DejaVuSans-64" transform="translate(1306.681641 0)"/>
      <use xlink:href="#DejaVuSans-20" transform="translate(1370.158203 0)"/>
      <use xlink:href="#DejaVuSans-64" transform="translate(1401.945312 0)"/>
      <use xlink:href="#DejaVuSans-69" transform="translate(1465.421875 0)"/>
      <use xlink:href="#DejaVuSans-72" transform="translate(1493.205078 0)"/>
      <use xlink:href="#DejaVuSans-65" transform="translate(1532.068359 0)"/>
      <use xlink:href="#DejaVuSans-63" transform="translate(1593.591797 0)"/>
      <use xlink:href="#DejaVuSans-74" transform="translate(1648.572266 0)"/>
      <use xlink:href="#DejaVuSans-69" transform="translate(1687.78125 0)"/>
      <use xlink:href="#DejaVuSans-6f" transform="translate(1715.564453 0)"/>
      <use xlink:href="#DejaVuSans-6e" transform="translate(1776.746094 0)"/>
     </g>
    </g>
   </g>
   <g id="line2d_19">
    <path d="M 222.326074 197.304099 
L 353.096544 79.529564 
L 353.961905 78.573894 
L 352.618969 79.589746 
L 338.698035 91.632997 
L 289.604555 134.510972 
L 286.246385 137.246034 
L 286.80681 136.619657 
L 291.528003 132.159154 
L 310.852309 114.429272 
L 338.265584 89.422247 
L 330.877491 95.746511 
L 297.822791 124.410948 
L 294.793522 126.876785 
L 294.806828 126.74428 
L 297.135676 124.425271 
L 312.482143 110.132891 
L 327.132716 96.450516 
L 327.386753 96.142624 
L 327.070991 96.349215 
L 313.98427 107.747194 
L 287.854983 130.596039 
L 287.098787 131.186276 
L 287.402663 130.825193 
L 290.600785 127.774609 
L 309.484043 110.388753 
L 321.36861 99.388095 
L 317.395314 102.74822 
L 297.521318 119.919484 
L 296.311681 120.826553 
L 296.605497 120.472509 
L 301.262788 115.840635 
L 310.415951 107.207869 
L 310.180999 107.334537 
L 309.367925 107.982085 
L 292.448515 122.452904 
L 293.367427 121.382031 
L 292.983874 121.635406 
L 292.961976 121.568258 
L 296.11286 118.478746 
L 297.548574 117.102124 
L 290.801441 122.624662 
L 290.851331 122.477233 
L 293.396401 119.90377 
L 301.621987 112.052883 
L 300.664167 112.802594 
L 289.941726 121.678782 
L 290.325539 121.23435 
L 289.642478 121.738031 
L 284.656178 125.771807 
L 286.052627 124.309496 
L 287.22288 123.160122 
L 284.960015 124.952337 
L 283.753949 125.806527 
L 283.970673 125.503423 
L 285.582786 123.849223 
L 294.754171 114.923969 
L 294.353808 115.190251 
L 282.689423 125.015163 
L 282.682802 124.937547 
L 284.642061 122.917973 
L 279.845208 126.692624 
L 279.235615 127.030695 
L 279.392739 126.788189 
L 282.188052 123.980646 
L 286.764763 119.40525 
L 285.601429 120.112932 
L 280.50492 124.440736 
L 277.221229 127.154513 
L 277.194573 127.101115 
L 280.602009 123.803669 
L 286.287244 118.389008 
L 282.753318 121.397688 
L 265.512013 136.347288 
L 265.255906 136.482569 
L 266.312744 135.341296 
L 271.776495 130.128955 
L 285.545559 117.117157 
L 286.763544 115.874682 
L 265.61231 134.142101 
L 265.649652 134.028503 
L 267.456906 132.235726 
L 280.377688 120.046057 
L 278.852845 121.314337 
L 273.609542 125.830433 
L 245.236731 150.657685 
L 244.195017 151.467722 
L 244.297965 151.246817 
L 245.251956 150.251205 
L 253.74622 142.180829 
L 274.495214 122.724624 
L 274.059425 122.992408 
L 257.007838 137.369657 
L 256.985618 137.299238 
L 258.43652 135.813418 
L 261.101465 133.147223 
L 259.969605 133.979262 
L 256.954365 136.430653 
L 245.496479 145.995898 
L 246.935446 144.48881 
L 260.012688 131.637036 
L 260.188841 131.396019 
L 259.987217 131.498359 
L 257.462022 133.554318 
L 244.845778 144.123014 
L 243.759695 144.877891 
L 243.775678 144.783019 
L 244.849909 143.653509 
L 249.859355 138.542823 
L 250.157846 138.145835 
L 251.185041 137.028065 
L 251.115159 137.02865 
L 251.179379 136.796468 
L 250.4627 137.32965 
L 242.004202 144.277286 
L 242.202607 144.040048 
L 244.667288 141.572027 
L 246.44048 139.670221 
L 241.879899 143.171065 
L 237.287687 146.693409 
L 237.07985 146.832317 
L 237.07624 146.785952 
L 238.860197 144.872979 
L 241.675484 142.088566 
L 241.269705 142.356566 
L 239.023838 144.005221 
L 239.222888 143.742085 
L 239.163762 143.753167 
L 238.165365 144.575292 
L 231.113566 150.573665 
L 231.214609 150.27091 
L 232.838129 148.591132 
L 235.410748 145.911389 
L 235.363572 145.907887 
L 234.113987 146.905596 
L 231.230874 149.204452 
L 231.126148 149.224654 
L 231.023725 149.280216 
L 231.054907 149.213269 
L 231.918764 148.162151 
L 231.880714 148.1611 
L 228.210999 151.221617 
L 225.016912 153.763314 
L 225.062749 153.684366 
L 227.49802 151.123807 
L 226.659019 151.806977 
L 225.929963 152.314801 
L 225.959343 152.250793 
L 226.08445 152.099547 
L 225.705599 152.403025 
L 222.54049 155.00451 
L 219.353504 157.623692 
L 219.287705 157.645767 
L 219.371463 157.529373 
L 220.63216 156.219576 
L 223.741877 153.01249 
L 219.287221 156.54363 
L 219.464985 156.305161 
L 219.934553 155.750857 
L 219.641555 155.971789 
L 217.086992 158.145027 
L 214.28039 160.530461 
L 214.28039 160.530461 
" clip-path="url(#p5fdb1853ab)" style="fill: none; stroke: #ff0000; stroke-width: 1.5; stroke-linecap: square"/>
   </g>
   <g id="patch_3">
    <path d="M 46.64 303.64 
L 46.64 45.856 
" style="fill: none; stroke: #000000; stroke-width: 0.8; stroke-linejoin: miter; stroke-linecap: square"/>
   </g>
   <g id="patch_4">
    <path d="M 369.328 303.64 
L 369.328 45.856 
" style="fill: none; stroke: #000000; stroke-width: 0.8; stroke-linejoin: miter; stroke-linecap: square"/>
   </g>
   <g id="patch_5">
    <path d="M 46.64 303.64 
L 369.328 303.64 
" style="fill: none; stroke: #000000; stroke-width: 0.8; stroke-linejoin: miter; stroke-linecap: square"/>
   </g>
   <g id="patch_6">
    <path d="M 46.64 45.856 
L 369.328 45.856 
" style="fill: none; stroke: #000000; stroke-width: 0.8; stroke-linejoin: miter; stroke-linecap: square"/>
   </g>
   <g id="text_21">
    <!-- Relative error across two random directions -->
    <g transform="translate(76.882125 22.418625) scale(0.12 -0.12)">
     <defs>
      <path id="DejaVuSans-77" d="M 269 3500 
L 844 3500 
L 1563 769 
L 2278 3500 
L 2956 3500 
L 3675 769 
L 4391 3500 
L 4966 3500 
L 4050 0 
L 3372 0 
L 2619 2869 
L 1863 0 
L 1184 0 
L 269 3500 
z
" transform="scale(0.015625)"/>
      <path id="DejaVuSans-6d" d="M 3328 2828 
Q 3544 3216 3844 3400 
Q 4144 3584 4550 3584 
Q 5097 3584 5394 3201 
Q 5691 2819 5691 2113 
L 5691 0 
L 5113 0 
L 5113 2094 
Q 5113 2597 4934 2840 
Q 4756 3084 4391 3084 
Q 3944 3084 3684 2787 
Q 3425 2491 3425 1978 
L 3425 0 
L 2847 0 
L 2847 2094 
Q 2847 2600 2669 2842 
Q 2491 3084 2119 3084 
Q 1678 3084 1418 2786 
Q 1159 2488 1159 1978 
L 1159 0 
L 581 0 
L 581 3500 
L 1159 3500 
L 1159 2956 
Q 1356 3278 1631 3431 
Q 1906 3584 2284 3584 
Q 2666 3584 2933 3390 
Q 3200 3197 3328 2828 
z
" transform="scale(0.015625)"/>
     </defs>
     <use xlink:href="#DejaVuSans-52"/>
     <use xlink:href="#DejaVuSans-65" transform="translate(64.982422 0)"/>
     <use xlink:href="#DejaVuSans-6c" transform="translate(126.505859 0)"/>
     <use xlink:href="#DejaVuSans-61" transform="translate(154.289062 0)"/>
     <use xlink:href="#DejaVuSans-74" transform="translate(215.568359 0)"/>
     <use xlink:href="#DejaVuSans-69" transform="translate(254.777344 0)"/>
     <use xlink:href="#DejaVuSans-76" transform="translate(282.560547 0)"/>
     <use xlink:href="#DejaVuSans-65" transform="translate(341.740234 0)"/>
     <use xlink:href="#DejaVuSans-20" transform="translate(403.263672 0)"/>
     <use xlink:href="#DejaVuSans-65" transform="translate(435.050781 0)"/>
     <use xlink:href="#DejaVuSans-72" transform="translate(496.574219 0)"/>
     <use xlink:href="#DejaVuSans-72" transform="translate(535.9375 0)"/>
     <use xlink:href="#DejaVuSans-6f" transform="translate(574.800781 0)"/>
     <use xlink:href="#DejaVuSans-72" transform="translate(635.982422 0)"/>
     <use xlink:href="#DejaVuSans-20" transform="translate(677.095703 0)"/>
     <use xlink:href="#DejaVuSans-61" transform="translate(708.882812 0)"/>
     <use xlink:href="#DejaVuSans-63" transform="translate(770.162109 0)"/>
     <use xlink:href="#DejaVuSans-72" transform="translate(825.142578 0)"/>
     <use xlink:href="#DejaVuSans-6f" transform="translate(864.005859 0)"/>
     <use xlink:href="#DejaVuSans-73" transform="translate(925.1875 0)"/>
     <use xlink:href="#DejaVuSans-73" transform="translate(977.287109 0)"/>
     <use xlink:href="#DejaVuSans-20" transform="translate(1029.386719 0)"/>
     <use xlink:href="#DejaVuSans-74" transform="translate(1061.173828 0)"/>
     <use xlink:href="#DejaVuSans-77" transform="translate(1100.382812 0)"/>
     <use xlink:href="#DejaVuSans-6f" transform="translate(1182.169922 0)"/>
     <use xlink:href="#DejaVuSans-20" transform="translate(1243.351562 0)"/>
     <use xlink:href="#DejaVuSans-72" transform="translate(1275.138672 0)"/>
     <use xlink:href="#DejaVuSans-61" transform="translate(1316.251953 0)"/>
     <use xlink:href="#DejaVuSans-6e" transform="translate(1377.53125 0)"/>
     <use xlink:href="#DejaVuSans-64" transform="translate(1440.910156 0)"/>
     <use xlink:href="#DejaVuSans-6f" transform="translate(1504.386719 0)"/>
     <use xlink:href="#DejaVuSans-6d" transform="translate(1565.568359 0)"/>
     <use xlink:href="#DejaVuSans-20" transform="translate(1662.980469 0)"/>
     <use xlink:href="#DejaVuSans-64" transform="translate(1694.767578 0)"/>
     <use xlink:href="#DejaVuSans-69" transform="translate(1758.244141 0)"/>
     <use xlink:href="#DejaVuSans-72" transform="translate(1786.027344 0)"/>
     <use xlink:href="#DejaVuSans-65" transform="translate(1824.890625 0)"/>
     <use xlink:href="#DejaVuSans-63" transform="translate(1886.414062 0)"/>
     <use xlink:href="#DejaVuSans-74" transform="translate(1941.394531 0)"/>
     <use xlink:href="#DejaVuSans-69" transform="translate(1980.603516 0)"/>
     <use xlink:href="#DejaVuSans-6f" transform="translate(2008.386719 0)"/>
     <use xlink:href="#DejaVuSans-6e" transform="translate(2069.568359 0)"/>
     <use xlink:href="#DejaVuSans-73" transform="translate(2132.947266 0)"/>
    </g>
    <!-- in unknown parameters -->
    <g transform="translate(136.6365 35.856) scale(0.12 -0.12)">
     <defs>
      <path id="DejaVuSans-75" d="M 544 1381 
L 544 3500 
L 1119 3500 
L 1119 1403 
Q 1119 906 1312 657 
Q 1506 409 1894 409 
Q 2359 409 2629 706 
Q 2900 1003 2900 1516 
L 2900 3500 
L 3475 3500 
L 3475 0 
L 2900 0 
L 2900 538 
Q 2691 219 2414 64 
Q 2138 -91 1772 -91 
Q 1169 -91 856 284 
Q 544 659 544 1381 
z
M 1991 3584 
L 1991 3584 
z
" transform="scale(0.015625)"/>
      <path id="DejaVuSans-6b" d="M 581 4863 
L 1159 4863 
L 1159 1991 
L 2875 3500 
L 3609 3500 
L 1753 1863 
L 3688 0 
L 2938 0 
L 1159 1709 
L 1159 0 
L 581 0 
L 581 4863 
z
" transform="scale(0.015625)"/>
      <path id="DejaVuSans-70" d="M 1159 525 
L 1159 -1331 
L 581 -1331 
L 581 3500 
L 1159 3500 
L 1159 2969 
Q 1341 3281 1617 3432 
Q 1894 3584 2278 3584 
Q 2916 3584 3314 3078 
Q 3713 2572 3713 1747 
Q 3713 922 3314 415 
Q 2916 -91 2278 -91 
Q 1894 -91 1617 61 
Q 1341 213 1159 525 
z
M 3116 1747 
Q 3116 2381 2855 2742 
Q 2594 3103 2138 3103 
Q 1681 3103 1420 2742 
Q 1159 2381 1159 1747 
Q 1159 1113 1420 752 
Q 1681 391 2138 391 
Q 2594 391 2855 752 
Q 3116 1113 3116 1747 
z
" transform="scale(0.015625)"/>
     </defs>
     <use xlink:href="#DejaVuSans-69"/>
     <use xlink:href="#DejaVuSans-6e" transform="translate(27.783203 0)"/>
     <use xlink:href="#DejaVuSans-20" transform="translate(91.162109 0)"/>
     <use xlink:href="#DejaVuSans-75" transform="translate(122.949219 0)"/>
     <use xlink:href="#DejaVuSans-6e" transform="translate(186.328125 0)"/>
     <use xlink:href="#DejaVuSans-6b" transform="translate(249.707031 0)"/>
     <use xlink:href="#DejaVuSans-6e" transform="translate(307.617188 0)"/>
     <use xlink:href="#DejaVuSans-6f" transform="translate(370.996094 0)"/>
     <use xlink:href="#DejaVuSans-77" transform="translate(432.177734 0)"/>
     <use xlink:href="#DejaVuSans-6e" transform="translate(513.964844 0)"/>
     <use xlink:href="#DejaVuSans-20" transform="translate(577.34375 0)"/>
     <use xlink:href="#DejaVuSans-70" transform="translate(609.130859 0)"/>
     <use xlink:href="#DejaVuSans-61" transform="translate(672.607422 0)"/>
     <use xlink:href="#DejaVuSans-72" transform="translate(733.886719 0)"/>
     <use xlink:href="#DejaVuSans-61" transform="translate(775 0)"/>
     <use xlink:href="#DejaVuSans-6d" transform="translate(836.279297 0)"/>
     <use xlink:href="#DejaVuSans-65" transform="translate(933.691406 0)"/>
     <use xlink:href="#DejaVuSans-74" transform="translate(995.214844 0)"/>
     <use xlink:href="#DejaVuSans-65" transform="translate(1034.423828 0)"/>
     <use xlink:href="#DejaVuSans-72" transform="translate(1095.947266 0)"/>
     <use xlink:href="#DejaVuSans-73" transform="translate(1137.060547 0)"/>
    </g>
   </g>
  </g>
  <g id="axes_2">
   <g id="patch_7">
    <path d="M 389.496 303.64 
L 402.3852 303.64 
L 402.3852 45.856 
L 389.496 45.856 
z
" style="fill: #ffffff"/>
   </g>
   <g id="QuadMesh_1">
    <path d="M 389.496 303.64 
L 402.3852 303.64 
L 402.3852 288.476235 
L 389.496 288.476235 
L 389.496 303.64 
" clip-path="url(#p668e0f20f6)" style="fill: #460b5e"/>
    <path d="M 389.496 288.476235 
L 402.3852 288.476235 
L 402.3852 273.312471 
L 389.496 273.312471 
L 389.496 288.476235 
" clip-path="url(#p668e0f20f6)" style="fill: #482071"/>
    <path d="M 389.496 273.312471 
L 402.3852 273.312471 
L 402.3852 258.148706 
L 389.496 258.148706 
L 389.496 273.312471 
" clip-path="url(#p668e0f20f6)" style="fill: #46337f"/>
    <path d="M 389.496 258.148706 
L 402.3852 258.148706 
L 402.3852 242.984941 
L 389.496 242.984941 
L 389.496 258.148706 
" clip-path="url(#p668e0f20f6)" style="fill: #404588"/>
    <path d="M 389.496 242.984941 
L 402.3852 242.984941 
L 402.3852 227.821176 
L 389.496 227.821176 
L 389.496 242.984941 
" clip-path="url(#p668e0f20f6)" style="fill: #39558c"/>
    <path d="M 389.496 227.821176 
L 402.3852 227.821176 
L 402.3852 212.657412 
L 389.496 212.657412 
L 389.496 227.821176 
" clip-path="url(#p668e0f20f6)" style="fill: #32658e"/>
    <path d="M 389.496 212.657412 
L 402.3852 212.657412 
L 402.3852 197.493647 
L 389.496 197.493647 
L 389.496 212.657412 
" clip-path="url(#p668e0f20f6)" style="fill: #2c738e"/>
    <path d="M 389.496 197.493647 
L 402.3852 197.493647 
L 402.3852 182.329882 
L 389.496 182.329882 
L 389.496 197.493647 
" clip-path="url(#p668e0f20f6)" style="fill: #26828e"/>
    <path d="M 389.496 182.329882 
L 402.3852 182.329882 
L 402.3852 167.166118 
L 389.496 167.166118 
L 389.496 182.329882 
" clip-path="url(#p668e0f20f6)" style="fill: #21918c"/>
    <path d="M 389.496 167.166118 
L 402.3852 167.166118 
L 402.3852 152.002353 
L 389.496 152.002353 
L 389.496 167.166118 
" clip-path="url(#p668e0f20f6)" style="fill: #1f9f88"/>
    <path d="M 389.496 152.002353 
L 402.3852 152.002353 
L 402.3852 136.838588 
L 389.496 136.838588 
L 389.496 152.002353 
" clip-path="url(#p668e0f20f6)" style="fill: #26ad81"/>
    <path d="M 389.496 136.838588 
L 402.3852 136.838588 
L 402.3852 121.674824 
L 389.496 121.674824 
L 389.496 136.838588 
" clip-path="url(#p668e0f20f6)" style="fill: #3aba76"/>
    <path d="M 389.496 121.674824 
L 402.3852 121.674824 
L 402.3852 106.511059 
L 389.496 106.511059 
L 389.496 121.674824 
" clip-path="url(#p668e0f20f6)" style="fill: #56c667"/>
    <path d="M 389.496 106.511059 
L 402.3852 106.511059 
L 402.3852 91.347294 
L 389.496 91.347294 
L 389.496 106.511059 
" clip-path="url(#p668e0f20f6)" style="fill: #77d153"/>
    <path d="M 389.496 91.347294 
L 402.3852 91.347294 
L 402.3852 76.183529 
L 389.496 76.183529 
L 389.496 91.347294 
" clip-path="url(#p668e0f20f6)" style="fill: #9dd93b"/>
    <path d="M 389.496 76.183529 
L 402.3852 76.183529 
L 402.3852 61.019765 
L 389.496 61.019765 
L 389.496 76.183529 
" clip-path="url(#p668e0f20f6)" style="fill: #c5e021"/>
    <path d="M 389.496 61.019765 
L 402.3852 61.019765 
L 402.3852 45.856 
L 389.496 45.856 
L 389.496 61.019765 
" clip-path="url(#p668e0f20f6)" style="fill: #ece51b"/>
   </g>
   <g id="matplotlib.axis_3"/>
   <g id="matplotlib.axis_4">
    <g id="ytick_10">
     <g id="line2d_20">
      <defs>
       <path id="m887a07910c" d="M 0 0 
L 3.5 0 
" style="stroke: #000000; stroke-width: 0.8"/>
      </defs>
      <g>
       <use xlink:href="#m887a07910c" x="402.3852" y="303.64" style="stroke: #000000; stroke-width: 0.8"/>
      </g>
     </g>
     <g id="text_22">
      <!-- 0.0 -->
      <g transform="translate(409.3852 307.439219) scale(0.1 -0.1)">
       <defs>
        <path id="DejaVuSans-2e" d="M 684 794 
L 1344 794 
L 1344 0 
L 684 0 
L 684 794 
z
" transform="scale(0.015625)"/>
       </defs>
       <use xlink:href="#DejaVuSans-30"/>
       <use xlink:href="#DejaVuSans-2e" transform="translate(63.623047 0)"/>
       <use xlink:href="#DejaVuSans-30" transform="translate(95.410156 0)"/>
      </g>
     </g>
    </g>
    <g id="ytick_11">
     <g id="line2d_21">
      <g>
       <use xlink:href="#m887a07910c" x="402.3852" y="273.312471" style="stroke: #000000; stroke-width: 0.8"/>
      </g>
     </g>
     <g id="text_23">
      <!-- 0.3 -->
      <g transform="translate(409.3852 277.111689) scale(0.1 -0.1)">
       <use xlink:href="#DejaVuSans-30"/>
       <use xlink:href="#DejaVuSans-2e" transform="translate(63.623047 0)"/>
       <use xlink:href="#DejaVuSans-33" transform="translate(95.410156 0)"/>
      </g>
     </g>
    </g>
    <g id="ytick_12">
     <g id="line2d_22">
      <g>
       <use xlink:href="#m887a07910c" x="402.3852" y="242.984941" style="stroke: #000000; stroke-width: 0.8"/>
      </g>
     </g>
     <g id="text_24">
      <!-- 0.6 -->
      <g transform="translate(409.3852 246.78416) scale(0.1 -0.1)">
       <defs>
        <path id="DejaVuSans-36" d="M 2113 2584 
Q 1688 2584 1439 2293 
Q 1191 2003 1191 1497 
Q 1191 994 1439 701 
Q 1688 409 2113 409 
Q 2538 409 2786 701 
Q 3034 994 3034 1497 
Q 3034 2003 2786 2293 
Q 2538 2584 2113 2584 
z
M 3366 4563 
L 3366 3988 
Q 3128 4100 2886 4159 
Q 2644 4219 2406 4219 
Q 1781 4219 1451 3797 
Q 1122 3375 1075 2522 
Q 1259 2794 1537 2939 
Q 1816 3084 2150 3084 
Q 2853 3084 3261 2657 
Q 3669 2231 3669 1497 
Q 3669 778 3244 343 
Q 2819 -91 2113 -91 
Q 1303 -91 875 529 
Q 447 1150 447 2328 
Q 447 3434 972 4092 
Q 1497 4750 2381 4750 
Q 2619 4750 2861 4703 
Q 3103 4656 3366 4563 
z
" transform="scale(0.015625)"/>
       </defs>
       <use xlink:href="#DejaVuSans-30"/>
       <use xlink:href="#DejaVuSans-2e" transform="translate(63.623047 0)"/>
       <use xlink:href="#DejaVuSans-36" transform="translate(95.410156 0)"/>
      </g>
     </g>
    </g>
    <g id="ytick_13">
     <g id="line2d_23">
      <g>
       <use xlink:href="#m887a07910c" x="402.3852" y="212.657412" style="stroke: #000000; stroke-width: 0.8"/>
      </g>
     </g>
     <g id="text_25">
      <!-- 0.9 -->
      <g transform="translate(409.3852 216.456631) scale(0.1 -0.1)">
       <defs>
        <path id="DejaVuSans-39" d="M 703 97 
L 703 672 
Q 941 559 1184 500 
Q 1428 441 1663 441 
Q 2288 441 2617 861 
Q 2947 1281 2994 2138 
Q 2813 1869 2534 1725 
Q 2256 1581 1919 1581 
Q 1219 1581 811 2004 
Q 403 2428 403 3163 
Q 403 3881 828 4315 
Q 1253 4750 1959 4750 
Q 2769 4750 3195 4129 
Q 3622 3509 3622 2328 
Q 3622 1225 3098 567 
Q 2575 -91 1691 -91 
Q 1453 -91 1209 -44 
Q 966 3 703 97 
z
M 1959 2075 
Q 2384 2075 2632 2365 
Q 2881 2656 2881 3163 
Q 2881 3666 2632 3958 
Q 2384 4250 1959 4250 
Q 1534 4250 1286 3958 
Q 1038 3666 1038 3163 
Q 1038 2656 1286 2365 
Q 1534 2075 1959 2075 
z
" transform="scale(0.015625)"/>
       </defs>
       <use xlink:href="#DejaVuSans-30"/>
       <use xlink:href="#DejaVuSans-2e" transform="translate(63.623047 0)"/>
       <use xlink:href="#DejaVuSans-39" transform="translate(95.410156 0)"/>
      </g>
     </g>
    </g>
    <g id="ytick_14">
     <g id="line2d_24">
      <g>
       <use xlink:href="#m887a07910c" x="402.3852" y="182.329882" style="stroke: #000000; stroke-width: 0.8"/>
      </g>
     </g>
     <g id="text_26">
      <!-- 1.2 -->
      <g transform="translate(409.3852 186.129101) scale(0.1 -0.1)">
       <use xlink:href="#DejaVuSans-31"/>
       <use xlink:href="#DejaVuSans-2e" transform="translate(63.623047 0)"/>
       <use xlink:href="#DejaVuSans-32" transform="translate(95.410156 0)"/>
      </g>
     </g>
    </g>
    <g id="ytick_15">
     <g id="line2d_25">
      <g>
       <use xlink:href="#m887a07910c" x="402.3852" y="152.002353" style="stroke: #000000; stroke-width: 0.8"/>
      </g>
     </g>
     <g id="text_27">
      <!-- 1.5 -->
      <g transform="translate(409.3852 155.801572) scale(0.1 -0.1)">
       <defs>
        <path id="DejaVuSans-35" d="M 691 4666 
L 3169 4666 
L 3169 4134 
L 1269 4134 
L 1269 2991 
Q 1406 3038 1543 3061 
Q 1681 3084 1819 3084 
Q 2600 3084 3056 2656 
Q 3513 2228 3513 1497 
Q 3513 744 3044 326 
Q 2575 -91 1722 -91 
Q 1428 -91 1123 -41 
Q 819 9 494 109 
L 494 744 
Q 775 591 1075 516 
Q 1375 441 1709 441 
Q 2250 441 2565 725 
Q 2881 1009 2881 1497 
Q 2881 1984 2565 2268 
Q 2250 2553 1709 2553 
Q 1456 2553 1204 2497 
Q 953 2441 691 2322 
L 691 4666 
z
" transform="scale(0.015625)"/>
       </defs>
       <use xlink:href="#DejaVuSans-31"/>
       <use xlink:href="#DejaVuSans-2e" transform="translate(63.623047 0)"/>
       <use xlink:href="#DejaVuSans-35" transform="translate(95.410156 0)"/>
      </g>
     </g>
    </g>
    <g id="ytick_16">
     <g id="line2d_26">
      <g>
       <use xlink:href="#m887a07910c" x="402.3852" y="121.674824" style="stroke: #000000; stroke-width: 0.8"/>
      </g>
     </g>
     <g id="text_28">
      <!-- 1.8 -->
      <g transform="translate(409.3852 125.474042) scale(0.1 -0.1)">
       <defs>
        <path id="DejaVuSans-38" d="M 2034 2216 
Q 1584 2216 1326 1975 
Q 1069 1734 1069 1313 
Q 1069 891 1326 650 
Q 1584 409 2034 409 
Q 2484 409 2743 651 
Q 3003 894 3003 1313 
Q 3003 1734 2745 1975 
Q 2488 2216 2034 2216 
z
M 1403 2484 
Q 997 2584 770 2862 
Q 544 3141 544 3541 
Q 544 4100 942 4425 
Q 1341 4750 2034 4750 
Q 2731 4750 3128 4425 
Q 3525 4100 3525 3541 
Q 3525 3141 3298 2862 
Q 3072 2584 2669 2484 
Q 3125 2378 3379 2068 
Q 3634 1759 3634 1313 
Q 3634 634 3220 271 
Q 2806 -91 2034 -91 
Q 1263 -91 848 271 
Q 434 634 434 1313 
Q 434 1759 690 2068 
Q 947 2378 1403 2484 
z
M 1172 3481 
Q 1172 3119 1398 2916 
Q 1625 2713 2034 2713 
Q 2441 2713 2670 2916 
Q 2900 3119 2900 3481 
Q 2900 3844 2670 4047 
Q 2441 4250 2034 4250 
Q 1625 4250 1398 4047 
Q 1172 3844 1172 3481 
z
" transform="scale(0.015625)"/>
       </defs>
       <use xlink:href="#DejaVuSans-31"/>
       <use xlink:href="#DejaVuSans-2e" transform="translate(63.623047 0)"/>
       <use xlink:href="#DejaVuSans-38" transform="translate(95.410156 0)"/>
      </g>
     </g>
    </g>
    <g id="ytick_17">
     <g id="line2d_27">
      <g>
       <use xlink:href="#m887a07910c" x="402.3852" y="91.347294" style="stroke: #000000; stroke-width: 0.8"/>
      </g>
     </g>
     <g id="text_29">
      <!-- 2.1 -->
      <g transform="translate(409.3852 95.146513) scale(0.1 -0.1)">
       <use xlink:href="#DejaVuSans-32"/>
       <use xlink:href="#DejaVuSans-2e" transform="translate(63.623047 0)"/>
       <use xlink:href="#DejaVuSans-31" transform="translate(95.410156 0)"/>
      </g>
     </g>
    </g>
    <g id="ytick_18">
     <g id="line2d_28">
      <g>
       <use xlink:href="#m887a07910c" x="402.3852" y="61.019765" style="stroke: #000000; stroke-width: 0.8"/>
      </g>
     </g>
     <g id="text_30">
      <!-- 2.4 -->
      <g transform="translate(409.3852 64.818983) scale(0.1 -0.1)">
       <use xlink:href="#DejaVuSans-32"/>
       <use xlink:href="#DejaVuSans-2e" transform="translate(63.623047 0)"/>
       <use xlink:href="#DejaVuSans-34" transform="translate(95.410156 0)"/>
      </g>
     </g>
    </g>
    <g id="text_31">
     <!-- Relative error -->
     <g transform="translate(436.886762 208.603469) rotate(-90) scale(0.1 -0.1)">
      <use xlink:href="#DejaVuSans-52"/>
      <use xlink:href="#DejaVuSans-65" transform="translate(64.982422 0)"/>
      <use xlink:href="#DejaVuSans-6c" transform="translate(126.505859 0)"/>
      <use xlink:href="#DejaVuSans-61" transform="translate(154.289062 0)"/>
      <use xlink:href="#DejaVuSans-74" transform="translate(215.568359 0)"/>
      <use xlink:href="#DejaVuSans-69" transform="translate(254.777344 0)"/>
      <use xlink:href="#DejaVuSans-76" transform="translate(282.560547 0)"/>
      <use xlink:href="#DejaVuSans-65" transform="translate(341.740234 0)"/>
      <use xlink:href="#DejaVuSans-20" transform="translate(403.263672 0)"/>
      <use xlink:href="#DejaVuSans-65" transform="translate(435.050781 0)"/>
      <use xlink:href="#DejaVuSans-72" transform="translate(496.574219 0)"/>
      <use xlink:href="#DejaVuSans-72" transform="translate(535.9375 0)"/>
      <use xlink:href="#DejaVuSans-6f" transform="translate(574.800781 0)"/>
      <use xlink:href="#DejaVuSans-72" transform="translate(635.982422 0)"/>
     </g>
    </g>
   </g>
   <g id="LineCollection_1"/>
   <g id="patch_8">
    <path d="M 389.496 303.64 
L 395.9406 303.64 
L 402.3852 303.64 
L 402.3852 45.856 
L 395.9406 45.856 
L 389.496 45.856 
L 389.496 303.64 
z
" style="fill: none; stroke: #000000; stroke-width: 0.8; stroke-linejoin: miter; stroke-linecap: square"/>
   </g>
  </g>
 </g>
 <defs>
  <clipPath id="p5fdb1853ab">
   <rect x="46.64" y="45.856" width="322.688" height="257.784"/>
  </clipPath>
  <clipPath id="p668e0f20f6">
   <rect x="389.496" y="45.856" width="12.8892" height="257.784"/>
  </clipPath>
 </defs>
</svg>
