<?xml version="1.0" encoding="utf-8" standalone="no"?>
<!DOCTYPE svg PUBLIC "-//W3C//DTD SVG 1.1//EN"
  "http://www.w3.org/Graphics/SVG/1.1/DTD/svg11.dtd">
<svg xmlns:xlink="http://www.w3.org/1999/xlink" width="460.8pt" height="345.6pt" viewBox="0 0 460.8 345.6" xmlns="http://www.w3.org/2000/svg" version="1.1">
 <metadata>
  <rdf:RDF xmlns:dc="http://purl.org/dc/elements/1.1/" xmlns:cc="http://creativecommons.org/ns#" xmlns:rdf="http://www.w3.org/1999/02/22-rdf-syntax-ns#">
   <cc:Work>
    <dc:type rdf:resource="http://purl.org/dc/dcmitype/StillImage"/>
    <dc:date>2025-10-16T16:17:54.198303</dc:date>
    <dc:format>image/svg+xml</dc:format>
    <dc:creator>
     <cc:Agent>
      <dc:title>Matplotlib v3.10.6, https://matplotlib.org/</dc:title>
     </cc:Agent>
    </dc:creator>
   </cc:Work>
  </rdf:RDF>
 </metadata>
 <defs>
  <style type="text/css">*{stroke-linejoin: round; stroke-linecap: butt}</style>
 </defs>
 <g id="figure_1">
  <g id="patch_1">
   <path d="M 0 345.6 
L 460.8 345.6 
L 460.8 0 
L 0 0 
z
" style="fill: #ffffff"/>
  </g>
  <g id="axes_1">
   <g id="patch_2">
    <path d="M 46.64 303.64 
L 366.88992 303.64 
L 366.88992 45.856 
L 46.64 45.856 
z
" style="fill: #ffffff"/>
   </g>
   <g id="QuadContourSet_1">
    <path d="M 270.814944 254.752539 
L 273.189666 252.0832 
L 270.814944 248.288301 
L 268.724875 252.0832 
z
M 238.789952 226.685625 
L 239.934763 226.3048 
L 241.198835 200.5264 
L 238.789952 197.831903 
L 232.132868 200.5264 
L 238.485794 226.3048 
z
M 206.76496 189.555666 
L 218.778978 174.748 
L 206.76496 161.128736 
L 195.464975 174.748 
z
M 174.739968 150.279826 
L 177.913745 148.9696 
L 174.739968 140.18447 
L 173.7692 148.9696 
z
" clip-path="url(#p511040db11)" style="fill: #460a5d"/>
    <path d="M 270.814944 281.686428 
L 293.697946 303.64 
L 302.839936 303.64 
L 334.864928 303.64 
L 338.517159 303.64 
L 334.864928 299.06396 
L 318.15061 277.8616 
L 302.839936 257.483525 
L 298.292544 252.0832 
L 278.258792 226.3048 
L 270.814944 218.026574 
L 256.343756 200.5264 
L 238.789952 180.89129 
L 233.464456 174.748 
L 210.474724 148.9696 
L 206.76496 145.112377 
L 186.119563 123.1912 
L 174.739968 111.267219 
L 158.403234 97.4128 
L 142.714976 80.147451 
L 128.111993 97.4128 
L 142.126464 123.1912 
L 142.714976 124.025567 
L 161.686785 148.9696 
L 174.739968 166.587219 
L 181.652304 174.748 
L 201.63293 200.5264 
L 206.76496 207.238995 
L 223.51449 226.3048 
L 238.789952 245.43063 
L 246.631023 252.0832 
L 267.747157 277.8616 
z
M 268.724875 252.0832 
L 270.814944 248.288301 
L 273.189666 252.0832 
L 270.814944 254.752539 
z
M 238.485794 226.3048 
L 232.132868 200.5264 
L 238.789952 197.831903 
L 241.198835 200.5264 
L 239.934763 226.3048 
L 238.789952 226.685625 
z
M 195.464975 174.748 
L 206.76496 161.128736 
L 218.778978 174.748 
L 206.76496 189.555666 
z
M 173.7692 148.9696 
L 174.739968 140.18447 
L 177.913745 148.9696 
L 174.739968 150.279826 
z
M 110.689984 76.28713 
L 121.823181 71.6344 
L 110.689984 55.220688 
L 107.770326 71.6344 
z
" clip-path="url(#p511040db11)" style="fill: #481c6e"/>
    <path d="M 270.814944 302.814513 
L 271.675379 303.64 
L 293.697946 303.64 
L 270.814944 281.686428 
L 267.747157 277.8616 
L 246.631023 252.0832 
L 238.789952 245.43063 
L 223.51449 226.3048 
L 206.76496 207.238995 
L 201.63293 200.5264 
L 181.652304 174.748 
L 174.739968 166.587219 
L 161.686785 148.9696 
L 142.714976 124.025567 
L 142.126464 123.1912 
L 128.111993 97.4128 
L 142.714976 80.147451 
L 158.403234 97.4128 
L 174.739968 111.267219 
L 186.119563 123.1912 
L 206.76496 145.112377 
L 210.474724 148.9696 
L 233.464456 174.748 
L 238.789952 180.89129 
L 256.343756 200.5264 
L 270.814944 218.026574 
L 278.258792 226.3048 
L 298.292544 252.0832 
L 302.839936 257.483525 
L 318.15061 277.8616 
L 334.864928 299.06396 
L 338.517159 303.64 
L 361.193663 303.64 
L 339.765545 277.8616 
L 334.864928 272.534124 
L 317.46561 252.0832 
L 302.839936 235.987263 
L 294.727725 226.3048 
L 271.521146 200.5264 
L 270.814944 199.802378 
L 248.166947 174.748 
L 238.789952 165.056188 
L 224.233985 148.9696 
L 206.76496 130.806199 
L 199.593143 123.1912 
L 174.983166 97.4128 
L 174.739968 97.171983 
L 149.528558 71.6344 
L 142.714976 64.826721 
L 122.389652 45.856 
L 110.689984 45.856 
L 78.664992 45.856 
L 77.292326 45.856 
L 78.664992 48.02079 
L 95.979138 71.6344 
L 110.689984 95.077419 
L 112.615936 97.4128 
L 130.921528 123.1912 
L 142.714976 139.911461 
L 149.604371 148.9696 
L 168.760621 174.748 
L 174.739968 182.983853 
L 188.603935 200.5264 
L 206.76496 224.280665 
L 208.543186 226.3048 
L 229.363123 252.0832 
L 238.789952 264.366274 
L 250.800916 277.8616 
z
M 107.770326 71.6344 
L 110.689984 55.220688 
L 121.823181 71.6344 
L 110.689984 76.28713 
z
" clip-path="url(#p511040db11)" style="fill: #472d7b"/>
    <path d="M 238.789952 283.694576 
L 255.088156 303.64 
L 270.814944 303.64 
L 271.675379 303.64 
L 270.814944 302.814513 
L 250.800916 277.8616 
L 238.789952 264.366274 
L 229.363123 252.0832 
L 208.543186 226.3048 
L 206.76496 224.280665 
L 188.603935 200.5264 
L 174.739968 182.983853 
L 168.760621 174.748 
L 149.604371 148.9696 
L 142.714976 139.911461 
L 130.921528 123.1912 
L 112.615936 97.4128 
L 110.689984 95.077419 
L 95.979138 71.6344 
L 78.664992 48.02079 
L 77.292326 45.856 
L 67.095425 45.856 
L 78.664992 64.102006 
L 84.18795 71.6344 
L 101.628684 97.4128 
L 110.689984 110.839563 
L 119.716592 123.1912 
L 137.948809 148.9696 
L 142.714976 155.868987 
L 156.791529 174.748 
L 174.739968 199.469881 
L 175.57494 200.5264 
L 195.124506 226.3048 
L 206.76496 242.216387 
L 214.750188 252.0832 
L 234.515675 277.8616 
z
M 366.88992 303.64 
L 366.88992 286.903669 
L 359.077294 277.8616 
L 335.343581 252.0832 
L 334.864928 251.602143 
L 311.541915 226.3048 
L 302.839936 217.468315 
L 287.395906 200.5264 
L 270.814944 183.527019 
L 262.879118 174.748 
L 238.789952 149.850082 
L 237.993247 148.9696 
L 213.201283 123.1912 
L 206.76496 116.874698 
L 188.002738 97.4128 
L 174.739968 84.279868 
L 162.256011 71.6344 
L 142.714976 52.110295 
L 136.014094 45.856 
L 122.389652 45.856 
L 142.714976 64.826721 
L 149.528558 71.6344 
L 174.739968 97.171983 
L 174.983166 97.4128 
L 199.593143 123.1912 
L 206.76496 130.806199 
L 224.233985 148.9696 
L 238.789952 165.056188 
L 248.166947 174.748 
L 270.814944 199.802378 
L 271.521146 200.5264 
L 294.727725 226.3048 
L 302.839936 235.987263 
L 317.46561 252.0832 
L 334.864928 272.534124 
L 339.765545 277.8616 
L 361.193663 303.64 
z
" clip-path="url(#p511040db11)" style="fill: #443b84"/>
    <path d="M 238.789952 303.64 
L 255.088156 303.64 
L 238.789952 283.694576 
L 234.515675 277.8616 
L 214.750188 252.0832 
L 206.76496 242.216387 
L 195.124506 226.3048 
L 175.57494 200.5264 
L 174.739968 199.469881 
L 156.791529 174.748 
L 142.714976 155.868987 
L 137.948809 148.9696 
L 119.716592 123.1912 
L 110.689984 110.839563 
L 101.628684 97.4128 
L 84.18795 71.6344 
L 78.664992 64.102006 
L 67.095425 45.856 
L 56.898525 45.856 
L 73.605822 71.6344 
L 78.664992 79.46121 
L 91.28135 97.4128 
L 108.693525 123.1912 
L 110.689984 126.223831 
L 126.859538 148.9696 
L 142.714976 171.921543 
L 144.822436 174.748 
L 163.370047 200.5264 
L 174.739968 216.837951 
L 181.915097 226.3048 
L 200.682438 252.0832 
L 206.76496 260.780079 
L 219.839109 277.8616 
L 238.728324 303.64 
z
M 366.88992 286.903669 
L 366.88992 277.8616 
L 366.88992 266.053309 
L 353.851704 252.0832 
L 334.864928 233.001077 
L 328.691262 226.3048 
L 303.301586 200.5264 
L 302.839936 200.086825 
L 278.100418 174.748 
L 270.814944 167.738424 
L 252.659068 148.9696 
L 238.789952 135.489241 
L 226.962564 123.1912 
L 206.76496 103.369603 
L 201.022311 97.4128 
L 174.987368 71.6344 
L 174.739968 71.402643 
L 148.933514 45.856 
L 142.714976 45.856 
L 136.014094 45.856 
L 142.714976 52.110295 
L 162.256011 71.6344 
L 174.739968 84.279868 
L 188.002738 97.4128 
L 206.76496 116.874698 
L 213.201283 123.1912 
L 237.993247 148.9696 
L 238.789952 149.850082 
L 262.879118 174.748 
L 270.814944 183.527019 
L 287.395906 200.5264 
L 302.839936 217.468315 
L 311.541915 226.3048 
L 334.864928 251.602143 
L 335.343581 252.0832 
L 359.077294 277.8616 
z
" clip-path="url(#p511040db11)" style="fill: #3e4a89"/>
    <path d="M 206.76496 280.086882 
L 223.900394 303.64 
L 238.728324 303.64 
L 219.839109 277.8616 
L 206.76496 260.780079 
L 200.682438 252.0832 
L 181.915097 226.3048 
L 174.739968 216.837951 
L 163.370047 200.5264 
L 144.822436 174.748 
L 142.714976 171.921543 
L 126.859538 148.9696 
L 110.689984 126.223831 
L 108.693525 123.1912 
L 91.28135 97.4128 
L 78.664992 79.46121 
L 73.605822 71.6344 
L 56.898525 45.856 
L 46.701624 45.856 
L 64.089001 71.6344 
L 78.664992 94.184248 
L 80.934015 97.4128 
L 98.424096 123.1912 
L 110.689984 141.823147 
L 115.770267 148.9696 
L 133.458817 174.748 
L 142.714976 188.683325 
L 151.221582 200.5264 
L 169.092577 226.3048 
L 174.739968 234.769143 
L 187.27154 252.0832 
L 205.276836 277.8616 
z
M 366.88992 266.053309 
L 366.88992 252.0832 
L 366.88992 246.664269 
L 346.574472 226.3048 
L 334.864928 215.269976 
L 320.315869 200.5264 
L 302.839936 183.886104 
L 293.917964 174.748 
L 270.814944 152.51988 
L 267.380608 148.9696 
L 240.868464 123.1912 
L 238.789952 121.286817 
L 214.478005 97.4128 
L 206.76496 90.266971 
L 187.918888 71.6344 
L 174.739968 59.288768 
L 161.170588 45.856 
L 148.933514 45.856 
L 174.739968 71.402643 
L 174.987368 71.6344 
L 201.022311 97.4128 
L 206.76496 103.369603 
L 226.962564 123.1912 
L 238.789952 135.489241 
L 252.659068 148.9696 
L 270.814944 167.738424 
L 278.100418 174.748 
L 302.839936 200.086825 
L 303.301586 200.5264 
L 328.691262 226.3048 
L 334.864928 233.001077 
L 353.851704 252.0832 
z
" clip-path="url(#p511040db11)" style="fill: #38598c"/>
    <path d="M 206.76496 300.468272 
L 209.072465 303.64 
L 223.900394 303.64 
L 206.76496 280.086882 
L 205.276836 277.8616 
L 187.27154 252.0832 
L 174.739968 234.769143 
L 169.092577 226.3048 
L 151.221582 200.5264 
L 142.714976 188.683325 
L 133.458817 174.748 
L 115.770267 148.9696 
L 110.689984 141.823147 
L 98.424096 123.1912 
L 80.934015 97.4128 
L 78.664992 94.184248 
L 64.089001 71.6344 
L 46.701624 45.856 
L 46.64 45.856 
L 46.64 59.876986 
L 54.57218 71.6344 
L 71.257558 97.4128 
L 78.664992 109.218143 
L 88.154666 123.1912 
L 105.055321 148.9696 
L 110.689984 157.8747 
L 122.224589 174.748 
L 139.286238 200.5264 
L 142.714976 205.917432 
L 156.730092 226.3048 
L 173.914118 252.0832 
L 174.739968 253.377386 
L 191.647086 277.8616 
z
M 366.88992 246.664269 
L 366.88992 228.328627 
L 364.870469 226.3048 
L 337.515602 200.5264 
L 334.864928 198.173615 
L 310.271747 174.748 
L 302.839936 168.083619 
L 282.988224 148.9696 
L 270.814944 137.936789 
L 255.658828 123.1912 
L 238.789952 107.735529 
L 228.27787 97.4128 
L 206.76496 77.481947 
L 200.850409 71.6344 
L 174.739968 47.174894 
L 173.407661 45.856 
L 161.170588 45.856 
L 174.739968 59.288768 
L 187.918888 71.6344 
L 206.76496 90.266971 
L 214.478005 97.4128 
L 238.789952 121.286817 
L 240.868464 123.1912 
L 267.380608 148.9696 
L 270.814944 152.51988 
L 293.917964 174.748 
L 302.839936 183.886104 
L 320.315869 200.5264 
L 334.864928 215.269976 
L 346.574472 226.3048 
z
" clip-path="url(#p511040db11)" style="fill: #31668e"/>
    <path d="M 206.76496 303.64 
L 209.072465 303.64 
L 206.76496 300.468272 
L 191.647086 277.8616 
L 174.739968 253.377386 
L 173.914118 252.0832 
L 156.730092 226.3048 
L 142.714976 205.917432 
L 139.286238 200.5264 
L 122.224589 174.748 
L 110.689984 157.8747 
L 105.055321 148.9696 
L 88.154666 123.1912 
L 78.664992 109.218143 
L 71.257558 97.4128 
L 54.57218 71.6344 
L 46.64 59.876986 
L 46.64 71.6344 
L 46.64 74.071707 
L 61.769536 97.4128 
L 77.934789 123.1912 
L 78.664992 124.404056 
L 94.656847 148.9696 
L 110.689984 174.308595 
L 110.990362 174.748 
L 127.848697 200.5264 
L 142.714976 223.900768 
L 144.367607 226.3048 
L 161.318813 252.0832 
L 174.739968 273.115447 
L 178.017335 277.8616 
L 195.057042 303.64 
z
M 366.88992 228.328627 
L 366.88992 226.3048 
L 366.88992 210.967883 
L 355.809812 200.5264 
L 334.864928 181.935348 
L 327.319352 174.748 
L 302.839936 152.796399 
L 298.865444 148.9696 
L 270.814944 123.547045 
L 270.449192 123.1912 
L 242.340388 97.4128 
L 238.789952 94.346428 
L 214.296592 71.6344 
L 206.76496 65.054283 
L 186.27385 45.856 
L 174.739968 45.856 
L 173.407661 45.856 
L 174.739968 47.174894 
L 200.850409 71.6344 
L 206.76496 77.481947 
L 228.27787 97.4128 
L 238.789952 107.735529 
L 255.658828 123.1912 
L 270.814944 137.936789 
L 282.988224 148.9696 
L 302.839936 168.083619 
L 310.271747 174.748 
L 334.864928 198.173615 
L 337.515602 200.5264 
L 364.870469 226.3048 
z
" clip-path="url(#p511040db11)" style="fill: #2c728e"/>
    <path d="M 174.739968 293.847451 
L 181.191363 303.64 
L 195.057042 303.64 
L 178.017335 277.8616 
L 174.739968 273.115447 
L 161.318813 252.0832 
L 144.367607 226.3048 
L 142.714976 223.900768 
L 127.848697 200.5264 
L 110.990362 174.748 
L 110.689984 174.308595 
L 94.656847 148.9696 
L 78.664992 124.404056 
L 77.934789 123.1912 
L 61.769536 97.4128 
L 46.64 74.071707 
L 46.64 88.709354 
L 52.281513 97.4128 
L 68.31797 123.1912 
L 78.664992 140.377449 
L 84.258373 148.9696 
L 100.380656 174.748 
L 110.689984 191.775225 
L 116.411156 200.5264 
L 132.606329 226.3048 
L 142.714976 242.928969 
L 148.723508 252.0832 
L 164.985148 277.8616 
z
M 366.88992 210.967883 
L 366.88992 200.5264 
L 366.88992 194.081562 
L 345.121646 174.748 
L 334.864928 166.160941 
L 315.709178 148.9696 
L 302.839936 138.088896 
L 286.418106 123.1912 
L 270.814944 109.861046 
L 257.242695 97.4128 
L 238.789952 81.475891 
L 228.176581 71.6344 
L 206.76496 52.927835 
L 199.216903 45.856 
L 186.27385 45.856 
L 206.76496 65.054283 
L 214.296592 71.6344 
L 238.789952 94.346428 
L 242.340388 97.4128 
L 270.449192 123.1912 
L 270.814944 123.547045 
L 298.865444 148.9696 
L 302.839936 152.796399 
L 327.319352 174.748 
L 334.864928 181.935348 
L 355.809812 200.5264 
z
" clip-path="url(#p511040db11)" style="fill: #277e8e"/>
    <path d="M 174.739968 303.64 
L 181.191363 303.64 
L 174.739968 293.847451 
L 164.985148 277.8616 
L 148.723508 252.0832 
L 142.714976 242.928969 
L 132.606329 226.3048 
L 116.411156 200.5264 
L 110.689984 191.775225 
L 100.380656 174.748 
L 84.258373 148.9696 
L 78.664992 140.377449 
L 68.31797 123.1912 
L 52.281513 97.4128 
L 46.64 88.709354 
L 46.64 97.4128 
L 46.64 103.710021 
L 58.701152 123.1912 
L 74.132902 148.9696 
L 78.664992 156.847008 
L 89.788108 174.748 
L 105.282535 200.5264 
L 110.689984 209.875771 
L 120.937823 226.3048 
L 136.482424 252.0832 
L 142.714976 262.808014 
L 152.142138 277.8616 
L 167.731804 303.64 
z
M 366.88992 194.081562 
L 366.88992 177.738127 
L 363.52324 174.748 
L 334.864928 150.754885 
L 332.875643 148.9696 
L 302.839936 123.57497 
L 302.416904 123.1912 
L 272.258768 97.4128 
L 270.814944 96.250849 
L 242.334793 71.6344 
L 238.789952 68.751398 
L 212.604757 45.856 
L 206.76496 45.856 
L 199.216903 45.856 
L 206.76496 52.927835 
L 228.176581 71.6344 
L 238.789952 81.475891 
L 257.242695 97.4128 
L 270.814944 109.861046 
L 286.418106 123.1912 
L 302.839936 138.088896 
L 315.709178 148.9696 
L 334.864928 166.160941 
L 345.121646 174.748 
z
" clip-path="url(#p511040db11)" style="fill: #238a8d"/>
    <path d="M 142.714976 283.69796 
L 154.625622 303.64 
L 167.731804 303.64 
L 152.142138 277.8616 
L 142.714976 262.808014 
L 136.482424 252.0832 
L 120.937823 226.3048 
L 110.689984 209.875771 
L 105.282535 200.5264 
L 89.788108 174.748 
L 78.664992 156.847008 
L 74.132902 148.9696 
L 58.701152 123.1912 
L 46.64 103.710021 
L 46.64 119.243111 
L 49.084333 123.1912 
L 64.325222 148.9696 
L 78.664992 173.894132 
L 79.195559 174.748 
L 94.463094 200.5264 
L 109.342415 226.3048 
L 110.689984 228.745529 
L 124.564465 252.0832 
L 139.474273 277.8616 
z
M 366.88992 177.738127 
L 366.88992 174.748 
L 366.88992 162.026161 
L 351.30107 148.9696 
L 334.864928 135.990668 
L 319.734557 123.1912 
L 302.839936 109.727066 
L 288.435734 97.4128 
L 270.814944 83.232057 
L 257.396963 71.6344 
L 238.789952 56.501406 
L 226.614927 45.856 
L 212.604757 45.856 
L 238.789952 68.751398 
L 242.334793 71.6344 
L 270.814944 96.250849 
L 272.258768 97.4128 
L 302.416904 123.1912 
L 302.839936 123.57497 
L 332.875643 148.9696 
L 334.864928 150.754885 
L 363.52324 174.748 
z
" clip-path="url(#p511040db11)" style="fill: #1f968b"/>
    <path d="M 142.714976 303.64 
L 154.625622 303.64 
L 142.714976 283.69796 
L 139.474273 277.8616 
L 124.564465 252.0832 
L 110.689984 228.745529 
L 109.342415 226.3048 
L 94.463094 200.5264 
L 79.195559 174.748 
L 78.664992 173.894132 
L 64.325222 148.9696 
L 49.084333 123.1912 
L 46.64 119.243111 
L 46.64 123.1912 
L 46.64 135.603 
L 54.517542 148.9696 
L 69.135071 174.748 
L 78.664992 192.113941 
L 83.643653 200.5264 
L 98.274294 226.3048 
L 110.689984 248.792219 
L 112.646506 252.0832 
L 127.289779 277.8616 
L 141.577981 303.64 
z
M 366.88992 162.026161 
L 366.88992 148.9696 
L 366.88992 146.566596 
L 337.280072 123.1912 
L 334.864928 121.393963 
L 304.769321 97.4128 
L 302.839936 95.96509 
L 272.60687 71.6344 
L 270.814944 70.277673 
L 240.791389 45.856 
L 238.789952 45.856 
L 226.614927 45.856 
L 238.789952 56.501406 
L 257.396963 71.6344 
L 270.814944 83.232057 
L 288.435734 97.4128 
L 302.839936 109.727066 
L 319.734557 123.1912 
L 334.864928 135.990668 
L 351.30107 148.9696 
z
" clip-path="url(#p511040db11)" style="fill: #1fa287"/>
    <path d="M 127.289779 277.8616 
L 112.646506 252.0832 
L 110.689984 248.792219 
L 98.274294 226.3048 
L 83.643653 200.5264 
L 78.664992 192.113941 
L 69.135071 174.748 
L 54.517542 148.9696 
L 46.64 135.603 
L 46.64 148.9696 
L 46.64 152.49499 
L 59.102638 174.748 
L 73.115163 200.5264 
L 78.664992 211.137068 
L 87.206172 226.3048 
L 101.215793 252.0832 
L 110.689984 270.065494 
L 115.105285 277.8616 
L 129.113553 303.64 
L 141.577981 303.64 
z
M 366.88992 146.566596 
L 366.88992 131.683518 
L 356.132616 123.1912 
L 334.864928 107.364778 
L 322.375508 97.4128 
L 302.839936 82.754323 
L 289.022434 71.6344 
L 270.814944 57.848909 
L 256.071083 45.856 
L 240.791389 45.856 
L 270.814944 70.277673 
L 272.60687 71.6344 
L 302.839936 95.96509 
L 304.769321 97.4128 
L 334.864928 121.393963 
L 337.280072 123.1912 
z
" clip-path="url(#p511040db11)" style="fill: #28ae80"/>
    <path d="M 110.689984 292.593834 
L 116.649126 303.64 
L 129.113553 303.64 
L 115.105285 277.8616 
L 110.689984 270.065494 
L 101.215793 252.0832 
L 87.206172 226.3048 
L 78.664992 211.137068 
L 73.115163 200.5264 
L 59.102638 174.748 
L 46.64 152.49499 
L 46.64 170.40868 
L 49.070205 174.748 
L 62.834679 200.5264 
L 76.256956 226.3048 
L 78.664992 231.137667 
L 89.880781 252.0832 
L 103.283295 277.8616 
z
M 366.88992 131.683518 
L 366.88992 123.1912 
L 366.88992 117.066741 
L 340.442785 97.4128 
L 334.864928 93.506845 
L 305.678353 71.6344 
L 302.839936 69.632389 
L 271.401492 45.856 
L 270.814944 45.856 
L 256.071083 45.856 
L 270.814944 57.848909 
L 289.022434 71.6344 
L 302.839936 82.754323 
L 322.375508 97.4128 
L 334.864928 107.364778 
L 356.132616 123.1912 
z
" clip-path="url(#p511040db11)" style="fill: #38b977"/>
    <path d="M 110.689984 303.64 
L 116.649126 303.64 
L 110.689984 292.593834 
L 103.283295 277.8616 
L 89.880781 252.0832 
L 78.664992 231.137667 
L 76.256956 226.3048 
L 62.834679 200.5264 
L 49.070205 174.748 
L 46.64 170.40868 
L 46.64 174.748 
L 46.64 189.401606 
L 52.554195 200.5264 
L 65.709647 226.3048 
L 78.551089 252.0832 
L 78.664992 252.323176 
L 91.667321 277.8616 
L 104.473073 303.64 
z
M 366.88992 117.066741 
L 366.88992 102.803836 
L 359.635525 97.4128 
L 334.864928 80.066918 
L 323.612582 71.6344 
L 302.839936 56.982901 
L 288.127338 45.856 
L 271.401492 45.856 
L 302.839936 69.632389 
L 305.678353 71.6344 
L 334.864928 93.506845 
L 340.442785 97.4128 
z
" clip-path="url(#p511040db11)" style="fill: #50c46a"/>
    <path d="M 91.667321 277.8616 
L 78.664992 252.323176 
L 78.551089 252.0832 
L 65.709647 226.3048 
L 52.554195 200.5264 
L 46.64 189.401606 
L 46.64 200.5264 
L 46.64 209.407933 
L 55.162338 226.3048 
L 67.721933 252.0832 
L 78.664992 275.138602 
L 80.051347 277.8616 
L 92.561184 303.64 
L 104.473073 303.64 
z
M 366.88992 102.803836 
L 366.88992 97.4128 
L 366.88992 88.891079 
L 342.175216 71.6344 
L 334.864928 66.827365 
L 305.047975 45.856 
L 302.839936 45.856 
L 288.127338 45.856 
L 302.839936 56.982901 
L 323.612582 71.6344 
L 334.864928 80.066918 
L 359.635525 97.4128 
z
" clip-path="url(#p511040db11)" style="fill: #6ccd5a"/>
    <path d="M 78.664992 299.539468 
L 80.649295 303.64 
L 92.561184 303.64 
L 80.051347 277.8616 
L 78.664992 275.138602 
L 67.721933 252.0832 
L 55.162338 226.3048 
L 46.64 209.407933 
L 46.64 226.3048 
L 46.64 230.650894 
L 56.892777 252.0832 
L 68.86777 277.8616 
z
M 366.88992 88.891079 
L 366.88992 75.191091 
L 361.796092 71.6344 
L 334.864928 53.925243 
L 323.39213 45.856 
L 305.047975 45.856 
L 334.864928 66.827365 
L 342.175216 71.6344 
z
" clip-path="url(#p511040db11)" style="fill: #8bd646"/>
    <path d="M 78.664992 303.64 
L 80.649295 303.64 
L 78.664992 299.539468 
L 68.86777 277.8616 
L 56.892777 252.0832 
L 46.64 230.650894 
L 46.64 252.0832 
L 46.64 253.388383 
L 57.742793 277.8616 
L 69.137072 303.64 
z
M 366.88992 75.191091 
L 366.88992 71.6344 
L 366.88992 61.872378 
L 342.412762 45.856 
L 334.864928 45.856 
L 323.39213 45.856 
L 334.864928 53.925243 
L 361.796092 71.6344 
z
" clip-path="url(#p511040db11)" style="fill: #aadc32"/>
    <path d="M 57.742793 277.8616 
L 46.64 253.388383 
L 46.64 277.8616 
L 46.64 277.914601 
L 57.704733 303.64 
L 69.137072 303.64 
z
M 366.88992 61.872378 
L 366.88992 48.687357 
L 362.562876 45.856 
L 342.412762 45.856 
z
" clip-path="url(#p511040db11)" style="fill: #cde11d"/>
    <path d="M 46.64 277.914601 
L 46.64 303.64 
L 57.704733 303.64 
z
M 366.88992 48.687357 
L 366.88992 45.856 
L 362.562876 45.856 
z
" clip-path="url(#p511040db11)" style="fill: #efe51c"/>
   </g>
   <g id="PathCollection_1">
    <defs>
     <path id="m00bc79c5ee" d="M 0 3 
C 0.795609 3 1.55874 2.683901 2.12132 2.12132 
C 2.683901 1.55874 3 0.795609 3 0 
C 3 -0.795609 2.683901 -1.55874 2.12132 -2.12132 
C 1.55874 -2.683901 0.795609 -3 0 -3 
C -0.795609 -3 -1.55874 -2.683901 -2.12132 -2.12132 
C -2.683901 -1.55874 -3 -0.795609 -3 0 
C -3 0.795609 -2.683901 1.55874 -2.12132 2.12132 
C -1.55874 2.683901 -0.795609 3 0 3 
z
" style="stroke: #ff0000"/>
    </defs>
    <g clip-path="url(#p511040db11)">
     <use xlink:href="#m00bc79c5ee" x="238.789953" y="197.304099" style="fill: #ff0000; stroke: #ff0000"/>
    </g>
   </g>
   <g id="matplotlib.axis_1">
    <g id="xtick_1">
     <g id="line2d_1">
      <defs>
       <path id="m53b8c9352c" d="M 0 0 
L 0 3.5 
" style="stroke: #000000; stroke-width: 0.8"/>
      </defs>
      <g>
       <use xlink:href="#m53b8c9352c" x="46.64" y="303.64" style="stroke: #000000; stroke-width: 0.8"/>
      </g>
     </g>
     <g id="text_1">
      <!-- −4 -->
      <g transform="translate(39.268906 318.238437) scale(0.1 -0.1)">
       <defs>
        <path id="DejaVuSans-2212" d="M 678 2272 
L 4684 2272 
L 4684 1741 
L 678 1741 
L 678 2272 
z
" transform="scale(0.015625)"/>
        <path id="DejaVuSans-34" d="M 2419 4116 
L 825 1625 
L 2419 1625 
L 2419 4116 
z
M 2253 4666 
L 3047 4666 
L 3047 1625 
L 3713 1625 
L 3713 1100 
L 3047 1100 
L 3047 0 
L 2419 0 
L 2419 1100 
L 313 1100 
L 313 1709 
L 2253 4666 
z
" transform="scale(0.015625)"/>
       </defs>
       <use xlink:href="#DejaVuSans-2212"/>
       <use xlink:href="#DejaVuSans-34" transform="translate(83.789062 0)"/>
      </g>
     </g>
    </g>
    <g id="xtick_2">
     <g id="line2d_2">
      <g>
       <use xlink:href="#m53b8c9352c" x="86.67124" y="303.64" style="stroke: #000000; stroke-width: 0.8"/>
      </g>
     </g>
     <g id="text_2">
      <!-- −3 -->
      <g transform="translate(79.300146 318.238437) scale(0.1 -0.1)">
       <defs>
        <path id="DejaVuSans-33" d="M 2597 2516 
Q 3050 2419 3304 2112 
Q 3559 1806 3559 1356 
Q 3559 666 3084 287 
Q 2609 -91 1734 -91 
Q 1441 -91 1130 -33 
Q 819 25 488 141 
L 488 750 
Q 750 597 1062 519 
Q 1375 441 1716 441 
Q 2309 441 2620 675 
Q 2931 909 2931 1356 
Q 2931 1769 2642 2001 
Q 2353 2234 1838 2234 
L 1294 2234 
L 1294 2753 
L 1863 2753 
Q 2328 2753 2575 2939 
Q 2822 3125 2822 3475 
Q 2822 3834 2567 4026 
Q 2313 4219 1838 4219 
Q 1578 4219 1281 4162 
Q 984 4106 628 3988 
L 628 4550 
Q 988 4650 1302 4700 
Q 1616 4750 1894 4750 
Q 2613 4750 3031 4423 
Q 3450 4097 3450 3541 
Q 3450 3153 3228 2886 
Q 3006 2619 2597 2516 
z
" transform="scale(0.015625)"/>
       </defs>
       <use xlink:href="#DejaVuSans-2212"/>
       <use xlink:href="#DejaVuSans-33" transform="translate(83.789062 0)"/>
      </g>
     </g>
    </g>
    <g id="xtick_3">
     <g id="line2d_3">
      <g>
       <use xlink:href="#m53b8c9352c" x="126.70248" y="303.64" style="stroke: #000000; stroke-width: 0.8"/>
      </g>
     </g>
     <g id="text_3">
      <!-- −2 -->
      <g transform="translate(119.331386 318.238437) scale(0.1 -0.1)">
       <defs>
        <path id="DejaVuSans-32" d="M 1228 531 
L 3431 531 
L 3431 0 
L 469 0 
L 469 531 
Q 828 903 1448 1529 
Q 2069 2156 2228 2338 
Q 2531 2678 2651 2914 
Q 2772 3150 2772 3378 
Q 2772 3750 2511 3984 
Q 2250 4219 1831 4219 
Q 1534 4219 1204 4116 
Q 875 4013 500 3803 
L 500 4441 
Q 881 4594 1212 4672 
Q 1544 4750 1819 4750 
Q 2544 4750 2975 4387 
Q 3406 4025 3406 3419 
Q 3406 3131 3298 2873 
Q 3191 2616 2906 2266 
Q 2828 2175 2409 1742 
Q 1991 1309 1228 531 
z
" transform="scale(0.015625)"/>
       </defs>
       <use xlink:href="#DejaVuSans-2212"/>
       <use xlink:href="#DejaVuSans-32" transform="translate(83.789062 0)"/>
      </g>
     </g>
    </g>
    <g id="xtick_4">
     <g id="line2d_4">
      <g>
       <use xlink:href="#m53b8c9352c" x="166.73372" y="303.64" style="stroke: #000000; stroke-width: 0.8"/>
      </g>
     </g>
     <g id="text_4">
      <!-- −1 -->
      <g transform="translate(159.362626 318.238437) scale(0.1 -0.1)">
       <defs>
        <path id="DejaVuSans-31" d="M 794 531 
L 1825 531 
L 1825 4091 
L 703 3866 
L 703 4441 
L 1819 4666 
L 2450 4666 
L 2450 531 
L 3481 531 
L 3481 0 
L 794 0 
L 794 531 
z
" transform="scale(0.015625)"/>
       </defs>
       <use xlink:href="#DejaVuSans-2212"/>
       <use xlink:href="#DejaVuSans-31" transform="translate(83.789062 0)"/>
      </g>
     </g>
    </g>
    <g id="xtick_5">
     <g id="line2d_5">
      <g>
       <use xlink:href="#m53b8c9352c" x="206.76496" y="303.64" style="stroke: #000000; stroke-width: 0.8"/>
      </g>
     </g>
     <g id="text_5">
      <!-- 0 -->
      <g transform="translate(203.58371 318.238437) scale(0.1 -0.1)">
       <defs>
        <path id="DejaVuSans-30" d="M 2034 4250 
Q 1547 4250 1301 3770 
Q 1056 3291 1056 2328 
Q 1056 1369 1301 889 
Q 1547 409 2034 409 
Q 2525 409 2770 889 
Q 3016 1369 3016 2328 
Q 3016 3291 2770 3770 
Q 2525 4250 2034 4250 
z
M 2034 4750 
Q 2819 4750 3233 4129 
Q 3647 3509 3647 2328 
Q 3647 1150 3233 529 
Q 2819 -91 2034 -91 
Q 1250 -91 836 529 
Q 422 1150 422 2328 
Q 422 3509 836 4129 
Q 1250 4750 2034 4750 
z
" transform="scale(0.015625)"/>
       </defs>
       <use xlink:href="#DejaVuSans-30"/>
      </g>
     </g>
    </g>
    <g id="xtick_6">
     <g id="line2d_6">
      <g>
       <use xlink:href="#m53b8c9352c" x="246.7962" y="303.64" style="stroke: #000000; stroke-width: 0.8"/>
      </g>
     </g>
     <g id="text_6">
      <!-- 1 -->
      <g transform="translate(243.61495 318.238437) scale(0.1 -0.1)">
       <use xlink:href="#DejaVuSans-31"/>
      </g>
     </g>
    </g>
    <g id="xtick_7">
     <g id="line2d_7">
      <g>
       <use xlink:href="#m53b8c9352c" x="286.82744" y="303.64" style="stroke: #000000; stroke-width: 0.8"/>
      </g>
     </g>
     <g id="text_7">
      <!-- 2 -->
      <g transform="translate(283.64619 318.238437) scale(0.1 -0.1)">
       <use xlink:href="#DejaVuSans-32"/>
      </g>
     </g>
    </g>
    <g id="xtick_8">
     <g id="line2d_8">
      <g>
       <use xlink:href="#m53b8c9352c" x="326.85868" y="303.64" style="stroke: #000000; stroke-width: 0.8"/>
      </g>
     </g>
     <g id="text_8">
      <!-- 3 -->
      <g transform="translate(323.67743 318.238437) scale(0.1 -0.1)">
       <use xlink:href="#DejaVuSans-33"/>
      </g>
     </g>
    </g>
    <g id="xtick_9">
     <g id="line2d_9">
      <g>
       <use xlink:href="#m53b8c9352c" x="366.88992" y="303.64" style="stroke: #000000; stroke-width: 0.8"/>
      </g>
     </g>
     <g id="text_9">
      <!-- 4 -->
      <g transform="translate(363.70867 318.238437) scale(0.1 -0.1)">
       <use xlink:href="#DejaVuSans-34"/>
      </g>
     </g>
    </g>
    <g id="text_10">
     <!-- Relative distance in first direction -->
     <g transform="translate(122.82121 331.916562) scale(0.1 -0.1)">
      <defs>
       <path id="DejaVuSans-52" d="M 2841 2188 
Q 3044 2119 3236 1894 
Q 3428 1669 3622 1275 
L 4263 0 
L 3584 0 
L 2988 1197 
Q 2756 1666 2539 1819 
Q 2322 1972 1947 1972 
L 1259 1972 
L 1259 0 
L 628 0 
L 628 4666 
L 2053 4666 
Q 2853 4666 3247 4331 
Q 3641 3997 3641 3322 
Q 3641 2881 3436 2590 
Q 3231 2300 2841 2188 
z
M 1259 4147 
L 1259 2491 
L 2053 2491 
Q 2509 2491 2742 2702 
Q 2975 2913 2975 3322 
Q 2975 3731 2742 3939 
Q 2509 4147 2053 4147 
L 1259 4147 
z
" transform="scale(0.015625)"/>
       <path id="DejaVuSans-65" d="M 3597 1894 
L 3597 1613 
L 953 1613 
Q 991 1019 1311 708 
Q 1631 397 2203 397 
Q 2534 397 2845 478 
Q 3156 559 3463 722 
L 3463 178 
Q 3153 47 2828 -22 
Q 2503 -91 2169 -91 
Q 1331 -91 842 396 
Q 353 884 353 1716 
Q 353 2575 817 3079 
Q 1281 3584 2069 3584 
Q 2775 3584 3186 3129 
Q 3597 2675 3597 1894 
z
M 3022 2063 
Q 3016 2534 2758 2815 
Q 2500 3097 2075 3097 
Q 1594 3097 1305 2825 
Q 1016 2553 972 2059 
L 3022 2063 
z
" transform="scale(0.015625)"/>
       <path id="DejaVuSans-6c" d="M 603 4863 
L 1178 4863 
L 1178 0 
L 603 0 
L 603 4863 
z
" transform="scale(0.015625)"/>
       <path id="DejaVuSans-61" d="M 2194 1759 
Q 1497 1759 1228 1600 
Q 959 1441 959 1056 
Q 959 750 1161 570 
Q 1363 391 1709 391 
Q 2188 391 2477 730 
Q 2766 1069 2766 1631 
L 2766 1759 
L 2194 1759 
z
M 3341 1997 
L 3341 0 
L 2766 0 
L 2766 531 
Q 2569 213 2275 61 
Q 1981 -91 1556 -91 
Q 1019 -91 701 211 
Q 384 513 384 1019 
Q 384 1609 779 1909 
Q 1175 2209 1959 2209 
L 2766 2209 
L 2766 2266 
Q 2766 2663 2505 2880 
Q 2244 3097 1772 3097 
Q 1472 3097 1187 3025 
Q 903 2953 641 2809 
L 641 3341 
Q 956 3463 1253 3523 
Q 1550 3584 1831 3584 
Q 2591 3584 2966 3190 
Q 3341 2797 3341 1997 
z
" transform="scale(0.015625)"/>
       <path id="DejaVuSans-74" d="M 1172 4494 
L 1172 3500 
L 2356 3500 
L 2356 3053 
L 1172 3053 
L 1172 1153 
Q 1172 725 1289 603 
Q 1406 481 1766 481 
L 2356 481 
L 2356 0 
L 1766 0 
Q 1100 0 847 248 
Q 594 497 594 1153 
L 594 3053 
L 172 3053 
L 172 3500 
L 594 3500 
L 594 4494 
L 1172 4494 
z
" transform="scale(0.015625)"/>
       <path id="DejaVuSans-69" d="M 603 3500 
L 1178 3500 
L 1178 0 
L 603 0 
L 603 3500 
z
M 603 4863 
L 1178 4863 
L 1178 4134 
L 603 4134 
L 603 4863 
z
" transform="scale(0.015625)"/>
       <path id="DejaVuSans-76" d="M 191 3500 
L 800 3500 
L 1894 563 
L 2988 3500 
L 3597 3500 
L 2284 0 
L 1503 0 
L 191 3500 
z
" transform="scale(0.015625)"/>
       <path id="DejaVuSans-20" transform="scale(0.015625)"/>
       <path id="DejaVuSans-64" d="M 2906 2969 
L 2906 4863 
L 3481 4863 
L 3481 0 
L 2906 0 
L 2906 525 
Q 2725 213 2448 61 
Q 2172 -91 1784 -91 
Q 1150 -91 751 415 
Q 353 922 353 1747 
Q 353 2572 751 3078 
Q 1150 3584 1784 3584 
Q 2172 3584 2448 3432 
Q 2725 3281 2906 2969 
z
M 947 1747 
Q 947 1113 1208 752 
Q 1469 391 1925 391 
Q 2381 391 2643 752 
Q 2906 1113 2906 1747 
Q 2906 2381 2643 2742 
Q 2381 3103 1925 3103 
Q 1469 3103 1208 2742 
Q 947 2381 947 1747 
z
" transform="scale(0.015625)"/>
       <path id="DejaVuSans-73" d="M 2834 3397 
L 2834 2853 
Q 2591 2978 2328 3040 
Q 2066 3103 1784 3103 
Q 1356 3103 1142 2972 
Q 928 2841 928 2578 
Q 928 2378 1081 2264 
Q 1234 2150 1697 2047 
L 1894 2003 
Q 2506 1872 2764 1633 
Q 3022 1394 3022 966 
Q 3022 478 2636 193 
Q 2250 -91 1575 -91 
Q 1294 -91 989 -36 
Q 684 19 347 128 
L 347 722 
Q 666 556 975 473 
Q 1284 391 1588 391 
Q 1994 391 2212 530 
Q 2431 669 2431 922 
Q 2431 1156 2273 1281 
Q 2116 1406 1581 1522 
L 1381 1569 
Q 847 1681 609 1914 
Q 372 2147 372 2553 
Q 372 3047 722 3315 
Q 1072 3584 1716 3584 
Q 2034 3584 2315 3537 
Q 2597 3491 2834 3397 
z
" transform="scale(0.015625)"/>
       <path id="DejaVuSans-6e" d="M 3513 2113 
L 3513 0 
L 2938 0 
L 2938 2094 
Q 2938 2591 2744 2837 
Q 2550 3084 2163 3084 
Q 1697 3084 1428 2787 
Q 1159 2491 1159 1978 
L 1159 0 
L 581 0 
L 581 3500 
L 1159 3500 
L 1159 2956 
Q 1366 3272 1645 3428 
Q 1925 3584 2291 3584 
Q 2894 3584 3203 3211 
Q 3513 2838 3513 2113 
z
" transform="scale(0.015625)"/>
       <path id="DejaVuSans-63" d="M 3122 3366 
L 3122 2828 
Q 2878 2963 2633 3030 
Q 2388 3097 2138 3097 
Q 1578 3097 1268 2742 
Q 959 2388 959 1747 
Q 959 1106 1268 751 
Q 1578 397 2138 397 
Q 2388 397 2633 464 
Q 2878 531 3122 666 
L 3122 134 
Q 2881 22 2623 -34 
Q 2366 -91 2075 -91 
Q 1284 -91 818 406 
Q 353 903 353 1747 
Q 353 2603 823 3093 
Q 1294 3584 2113 3584 
Q 2378 3584 2631 3529 
Q 2884 3475 3122 3366 
z
" transform="scale(0.015625)"/>
       <path id="DejaVuSans-66" d="M 2375 4863 
L 2375 4384 
L 1825 4384 
Q 1516 4384 1395 4259 
Q 1275 4134 1275 3809 
L 1275 3500 
L 2222 3500 
L 2222 3053 
L 1275 3053 
L 1275 0 
L 697 0 
L 697 3053 
L 147 3053 
L 147 3500 
L 697 3500 
L 697 3744 
Q 697 4328 969 4595 
Q 1241 4863 1831 4863 
L 2375 4863 
z
" transform="scale(0.015625)"/>
       <path id="DejaVuSans-72" d="M 2631 2963 
Q 2534 3019 2420 3045 
Q 2306 3072 2169 3072 
Q 1681 3072 1420 2755 
Q 1159 2438 1159 1844 
L 1159 0 
L 581 0 
L 581 3500 
L 1159 3500 
L 1159 2956 
Q 1341 3275 1631 3429 
Q 1922 3584 2338 3584 
Q 2397 3584 2469 3576 
Q 2541 3569 2628 3553 
L 2631 2963 
z
" transform="scale(0.015625)"/>
       <path id="DejaVuSans-6f" d="M 1959 3097 
Q 1497 3097 1228 2736 
Q 959 2375 959 1747 
Q 959 1119 1226 758 
Q 1494 397 1959 397 
Q 2419 397 2687 759 
Q 2956 1122 2956 1747 
Q 2956 2369 2687 2733 
Q 2419 3097 1959 3097 
z
M 1959 3584 
Q 2709 3584 3137 3096 
Q 3566 2609 3566 1747 
Q 3566 888 3137 398 
Q 2709 -91 1959 -91 
Q 1206 -91 779 398 
Q 353 888 353 1747 
Q 353 2609 779 3096 
Q 1206 3584 1959 3584 
z
" transform="scale(0.015625)"/>
      </defs>
      <use xlink:href="#DejaVuSans-52"/>
      <use xlink:href="#DejaVuSans-65" transform="translate(64.982422 0)"/>
      <use xlink:href="#DejaVuSans-6c" transform="translate(126.505859 0)"/>
      <use xlink:href="#DejaVuSans-61" transform="translate(154.289062 0)"/>
      <use xlink:href="#DejaVuSans-74" transform="translate(215.568359 0)"/>
      <use xlink:href="#DejaVuSans-69" transform="translate(254.777344 0)"/>
      <use xlink:href="#DejaVuSans-76" transform="translate(282.560547 0)"/>
      <use xlink:href="#DejaVuSans-65" transform="translate(341.740234 0)"/>
      <use xlink:href="#DejaVuSans-20" transform="translate(403.263672 0)"/>
      <use xlink:href="#DejaVuSans-64" transform="translate(435.050781 0)"/>
      <use xlink:href="#DejaVuSans-69" transform="translate(498.527344 0)"/>
      <use xlink:href="#DejaVuSans-73" transform="translate(526.310547 0)"/>
      <use xlink:href="#DejaVuSans-74" transform="translate(578.410156 0)"/>
      <use xlink:href="#DejaVuSans-61" transform="translate(617.619141 0)"/>
      <use xlink:href="#DejaVuSans-6e" transform="translate(678.898438 0)"/>
      <use xlink:href="#DejaVuSans-63" transform="translate(742.277344 0)"/>
      <use xlink:href="#DejaVuSans-65" transform="translate(797.257812 0)"/>
      <use xlink:href="#DejaVuSans-20" transform="translate(858.78125 0)"/>
      <use xlink:href="#DejaVuSans-69" transform="translate(890.568359 0)"/>
      <use xlink:href="#DejaVuSans-6e" transform="translate(918.351562 0)"/>
      <use xlink:href="#DejaVuSans-20" transform="translate(981.730469 0)"/>
      <use xlink:href="#DejaVuSans-66" transform="translate(1013.517578 0)"/>
      <use xlink:href="#DejaVuSans-69" transform="translate(1048.722656 0)"/>
      <use xlink:href="#DejaVuSans-72" transform="translate(1076.505859 0)"/>
      <use xlink:href="#DejaVuSans-73" transform="translate(1117.619141 0)"/>
      <use xlink:href="#DejaVuSans-74" transform="translate(1169.71875 0)"/>
      <use xlink:href="#DejaVuSans-20" transform="translate(1208.927734 0)"/>
      <use xlink:href="#DejaVuSans-64" transform="translate(1240.714844 0)"/>
      <use xlink:href="#DejaVuSans-69" transform="translate(1304.191406 0)"/>
      <use xlink:href="#DejaVuSans-72" transform="translate(1331.974609 0)"/>
      <use xlink:href="#DejaVuSans-65" transform="translate(1370.837891 0)"/>
      <use xlink:href="#DejaVuSans-63" transform="translate(1432.361328 0)"/>
      <use xlink:href="#DejaVuSans-74" transform="translate(1487.341797 0)"/>
      <use xlink:href="#DejaVuSans-69" transform="translate(1526.550781 0)"/>
      <use xlink:href="#DejaVuSans-6f" transform="translate(1554.333984 0)"/>
      <use xlink:href="#DejaVuSans-6e" transform="translate(1615.515625 0)"/>
     </g>
    </g>
   </g>
   <g id="matplotlib.axis_2">
    <g id="ytick_1">
     <g id="line2d_10">
      <defs>
       <path id="mab3780f912" d="M 0 0 
L -3.5 0 
" style="stroke: #000000; stroke-width: 0.8"/>
      </defs>
      <g>
       <use xlink:href="#mab3780f912" x="46.64" y="303.64" style="stroke: #000000; stroke-width: 0.8"/>
      </g>
     </g>
     <g id="text_11">
      <!-- −4 -->
      <g transform="translate(24.897813 307.439219) scale(0.1 -0.1)">
       <use xlink:href="#DejaVuSans-2212"/>
       <use xlink:href="#DejaVuSans-34" transform="translate(83.789062 0)"/>
      </g>
     </g>
    </g>
    <g id="ytick_2">
     <g id="line2d_11">
      <g>
       <use xlink:href="#mab3780f912" x="46.64" y="271.417" style="stroke: #000000; stroke-width: 0.8"/>
      </g>
     </g>
     <g id="text_12">
      <!-- −3 -->
      <g transform="translate(24.897813 275.216219) scale(0.1 -0.1)">
       <use xlink:href="#DejaVuSans-2212"/>
       <use xlink:href="#DejaVuSans-33" transform="translate(83.789062 0)"/>
      </g>
     </g>
    </g>
    <g id="ytick_3">
     <g id="line2d_12">
      <g>
       <use xlink:href="#mab3780f912" x="46.64" y="239.194" style="stroke: #000000; stroke-width: 0.8"/>
      </g>
     </g>
     <g id="text_13">
      <!-- −2 -->
      <g transform="translate(24.897813 242.993219) scale(0.1 -0.1)">
       <use xlink:href="#DejaVuSans-2212"/>
       <use xlink:href="#DejaVuSans-32" transform="translate(83.789062 0)"/>
      </g>
     </g>
    </g>
    <g id="ytick_4">
     <g id="line2d_13">
      <g>
       <use xlink:href="#mab3780f912" x="46.64" y="206.971" style="stroke: #000000; stroke-width: 0.8"/>
      </g>
     </g>
     <g id="text_14">
      <!-- −1 -->
      <g transform="translate(24.897813 210.770219) scale(0.1 -0.1)">
       <use xlink:href="#DejaVuSans-2212"/>
       <use xlink:href="#DejaVuSans-31" transform="translate(83.789062 0)"/>
      </g>
     </g>
    </g>
    <g id="ytick_5">
     <g id="line2d_14">
      <g>
       <use xlink:href="#mab3780f912" x="46.64" y="174.748" style="stroke: #000000; stroke-width: 0.8"/>
      </g>
     </g>
     <g id="text_15">
      <!-- 0 -->
      <g transform="translate(33.2775 178.547219) scale(0.1 -0.1)">
       <use xlink:href="#DejaVuSans-30"/>
      </g>
     </g>
    </g>
    <g id="ytick_6">
     <g id="line2d_15">
      <g>
       <use xlink:href="#mab3780f912" x="46.64" y="142.525" style="stroke: #000000; stroke-width: 0.8"/>
      </g>
     </g>
     <g id="text_16">
      <!-- 1 -->
      <g transform="translate(33.2775 146.324219) scale(0.1 -0.1)">
       <use xlink:href="#DejaVuSans-31"/>
      </g>
     </g>
    </g>
    <g id="ytick_7">
     <g id="line2d_16">
      <g>
       <use xlink:href="#mab3780f912" x="46.64" y="110.302" style="stroke: #000000; stroke-width: 0.8"/>
      </g>
     </g>
     <g id="text_17">
      <!-- 2 -->
      <g transform="translate(33.2775 114.101219) scale(0.1 -0.1)">
       <use xlink:href="#DejaVuSans-32"/>
      </g>
     </g>
    </g>
    <g id="ytick_8">
     <g id="line2d_17">
      <g>
       <use xlink:href="#mab3780f912" x="46.64" y="78.079" style="stroke: #000000; stroke-width: 0.8"/>
      </g>
     </g>
     <g id="text_18">
      <!-- 3 -->
      <g transform="translate(33.2775 81.878219) scale(0.1 -0.1)">
       <use xlink:href="#DejaVuSans-33"/>
      </g>
     </g>
    </g>
    <g id="ytick_9">
     <g id="line2d_18">
      <g>
       <use xlink:href="#mab3780f912" x="46.64" y="45.856" style="stroke: #000000; stroke-width: 0.8"/>
      </g>
     </g>
     <g id="text_19">
      <!-- 4 -->
      <g transform="translate(33.2775 49.655219) scale(0.1 -0.1)">
       <use xlink:href="#DejaVuSans-34"/>
      </g>
     </g>
    </g>
    <g id="text_20">
     <!-- Relative distance in second direction -->
     <g transform="translate(18.818125 266.755031) rotate(-90) scale(0.1 -0.1)">
      <use xlink:href="#DejaVuSans-52"/>
      <use xlink:href="#DejaVuSans-65" transform="translate(64.982422 0)"/>
      <use xlink:href="#DejaVuSans-6c" transform="translate(126.505859 0)"/>
      <use xlink:href="#DejaVuSans-61" transform="translate(154.289062 0)"/>
      <use xlink:href="#DejaVuSans-74" transform="translate(215.568359 0)"/>
      <use xlink:href="#DejaVuSans-69" transform="translate(254.777344 0)"/>
      <use xlink:href="#DejaVuSans-76" transform="translate(282.560547 0)"/>
      <use xlink:href="#DejaVuSans-65" transform="translate(341.740234 0)"/>
      <use xlink:href="#DejaVuSans-20" transform="translate(403.263672 0)"/>
      <use xlink:href="#DejaVuSans-64" transform="translate(435.050781 0)"/>
      <use xlink:href="#DejaVuSans-69" transform="translate(498.527344 0)"/>
      <use xlink:href="#DejaVuSans-73" transform="translate(526.310547 0)"/>
      <use xlink:href="#DejaVuSans-74" transform="translate(578.410156 0)"/>
      <use xlink:href="#DejaVuSans-61" transform="translate(617.619141 0)"/>
      <use xlink:href="#DejaVuSans-6e" transform="translate(678.898438 0)"/>
      <use xlink:href="#DejaVuSans-63" transform="translate(742.277344 0)"/>
      <use xlink:href="#DejaVuSans-65" transform="translate(797.257812 0)"/>
      <use xlink:href="#DejaVuSans-20" transform="translate(858.78125 0)"/>
      <use xlink:href="#DejaVuSans-69" transform="translate(890.568359 0)"/>
      <use xlink:href="#DejaVuSans-6e" transform="translate(918.351562 0)"/>
      <use xlink:href="#DejaVuSans-20" transform="translate(981.730469 0)"/>
      <use xlink:href="#DejaVuSans-73" transform="translate(1013.517578 0)"/>
      <use xlink:href="#DejaVuSans-65" transform="translate(1065.617188 0)"/>
      <use xlink:href="#DejaVuSans-63" transform="translate(1127.140625 0)"/>
      <use xlink:href="#DejaVuSans-6f" transform="translate(1182.121094 0)"/>
      <use xlink:href="#DejaVuSans-6e" transform="translate(1243.302734 0)"/>
      <use xlink:href="#DejaVuSans-64" transform="translate(1306.681641 0)"/>
      <use xlink:href="#DejaVuSans-20" transform="translate(1370.158203 0)"/>
      <use xlink:href="#DejaVuSans-64" transform="translate(1401.945312 0)"/>
      <use xlink:href="#DejaVuSans-69" transform="translate(1465.421875 0)"/>
      <use xlink:href="#DejaVuSans-72" transform="translate(1493.205078 0)"/>
      <use xlink:href="#DejaVuSans-65" transform="translate(1532.068359 0)"/>
      <use xlink:href="#DejaVuSans-63" transform="translate(1593.591797 0)"/>
      <use xlink:href="#DejaVuSans-74" transform="translate(1648.572266 0)"/>
      <use xlink:href="#DejaVuSans-69" transform="translate(1687.78125 0)"/>
      <use xlink:href="#DejaVuSans-6f" transform="translate(1715.564453 0)"/>
      <use xlink:href="#DejaVuSans-6e" transform="translate(1776.746094 0)"/>
     </g>
    </g>
   </g>
   <g id="line2d_19">
    <path d="M 238.789953 197.304099 
L 162.679734 257.608791 
L 167.649282 253.299893 
L 192.806148 232.434945 
L 225.560866 205.446849 
L 234.303053 198.095799 
L 235.677515 196.672968 
L 230.334681 200.656838 
L 203.763691 221.410258 
L 154.74247 259.928755 
L 146.510338 266.243022 
L 146.980307 265.553495 
L 152.995661 260.399263 
L 180.780409 237.408399 
L 244.198377 185.154741 
L 258.138522 173.348061 
L 258.10968 173.079674 
L 254.131456 175.994535 
L 245.827512 182.390767 
L 218.146972 204.091151 
L 137.190469 267.820871 
L 125.986638 276.270984 
L 127.330847 274.904265 
L 133.810232 269.40205 
L 164.631173 244.007304 
L 257.100382 168.110469 
L 268.239837 158.856162 
L 272.954024 154.771547 
L 272.816807 154.59218 
L 267.120459 158.890315 
L 246.367541 175.030798 
L 194.585978 215.869734 
L 130.088056 266.701177 
L 116.85274 276.818717 
L 115.858661 277.353559 
L 121.381196 272.638942 
L 146.036523 252.262348 
L 261.325614 157.611958 
L 266.733994 152.999237 
L 268.43268 151.374713 
L 265.796506 153.238756 
L 259.405505 158.124754 
L 236.398314 176.129983 
L 119.517048 268.067871 
L 115.262834 271.271455 
L 113.83391 272.204327 
L 114.849003 271.170942 
L 120.043459 266.771021 
L 141.828434 248.782042 
L 255.368551 155.450593 
L 258.241185 152.931412 
L 256.813187 153.87158 
L 251.451423 157.971808 
L 218.446298 183.889714 
L 136.817156 248.212046 
L 128.002373 254.931589 
L 127.030525 255.529419 
L 127.926933 254.623672 
L 135.652649 248.038451 
L 151.421878 234.974865 
L 226.843703 172.849145 
L 237.819166 163.532668 
L 239.247089 162.230134 
L 238.027931 163.055314 
L 228.776171 170.184886 
L 198.445249 193.979496 
L 156.944937 226.527403 
L 145.893367 235.015194 
L 144.516906 235.986573 
L 144.672882 235.722119 
L 150.133106 231.044055 
L 167.888842 216.217238 
L 200.855978 188.734327 
L 205.025591 185.04097 
L 205.363877 184.659163 
L 205.197983 184.683692 
L 203.209171 186.068265 
L 195.891714 191.549047 
L 167.215776 213.358147 
L 166.213051 213.920738 
L 166.699241 213.370654 
L 168.670813 211.553611 
L 179.624612 202.031857 
L 184.500845 197.645463 
L 185.383709 196.63247 
L 185.235421 196.638457 
L 184.315193 197.162014 
L 180.655448 199.652627 
L 176.969043 202.065307 
L 176.481155 202.199733 
L 176.576578 201.983628 
L 177.386843 200.983031 
L 178.325335 199.715481 
L 178.277845 199.484485 
L 177.65113 199.163288 
L 177.77961 199.089514 
L 177.833785 199.028187 
L 177.833785 199.028187 
" clip-path="url(#p511040db11)" style="fill: none; stroke: #ff0000; stroke-width: 1.5; stroke-linecap: square"/>
   </g>
   <g id="patch_3">
    <path d="M 46.64 303.64 
L 46.64 45.856 
" style="fill: none; stroke: #000000; stroke-width: 0.8; stroke-linejoin: miter; stroke-linecap: square"/>
   </g>
   <g id="patch_4">
    <path d="M 366.88992 303.64 
L 366.88992 45.856 
" style="fill: none; stroke: #000000; stroke-width: 0.8; stroke-linejoin: miter; stroke-linecap: square"/>
   </g>
   <g id="patch_5">
    <path d="M 46.64 303.64 
L 366.88992 303.64 
" style="fill: none; stroke: #000000; stroke-width: 0.8; stroke-linejoin: miter; stroke-linecap: square"/>
   </g>
   <g id="patch_6">
    <path d="M 46.64 45.856 
L 366.88992 45.856 
" style="fill: none; stroke: #000000; stroke-width: 0.8; stroke-linejoin: miter; stroke-linecap: square"/>
   </g>
   <g id="text_21">
    <!-- Relative error across two random directions -->
    <g transform="translate(75.663085 22.418625) scale(0.12 -0.12)">
     <defs>
      <path id="DejaVuSans-77" d="M 269 3500 
L 844 3500 
L 1563 769 
L 2278 3500 
L 2956 3500 
L 3675 769 
L 4391 3500 
L 4966 3500 
L 4050 0 
L 3372 0 
L 2619 2869 
L 1863 0 
L 1184 0 
L 269 3500 
z
" transform="scale(0.015625)"/>
      <path id="DejaVuSans-6d" d="M 3328 2828 
Q 3544 3216 3844 3400 
Q 4144 3584 4550 3584 
Q 5097 3584 5394 3201 
Q 5691 2819 5691 2113 
L 5691 0 
L 5113 0 
L 5113 2094 
Q 5113 2597 4934 2840 
Q 4756 3084 4391 3084 
Q 3944 3084 3684 2787 
Q 3425 2491 3425 1978 
L 3425 0 
L 2847 0 
L 2847 2094 
Q 2847 2600 2669 2842 
Q 2491 3084 2119 3084 
Q 1678 3084 1418 2786 
Q 1159 2488 1159 1978 
L 1159 0 
L 581 0 
L 581 3500 
L 1159 3500 
L 1159 2956 
Q 1356 3278 1631 3431 
Q 1906 3584 2284 3584 
Q 2666 3584 2933 3390 
Q 3200 3197 3328 2828 
z
" transform="scale(0.015625)"/>
     </defs>
     <use xlink:href="#DejaVuSans-52"/>
     <use xlink:href="#DejaVuSans-65" transform="translate(64.982422 0)"/>
     <use xlink:href="#DejaVuSans-6c" transform="translate(126.505859 0)"/>
     <use xlink:href="#DejaVuSans-61" transform="translate(154.289062 0)"/>
     <use xlink:href="#DejaVuSans-74" transform="translate(215.568359 0)"/>
     <use xlink:href="#DejaVuSans-69" transform="translate(254.777344 0)"/>
     <use xlink:href="#DejaVuSans-76" transform="translate(282.560547 0)"/>
     <use xlink:href="#DejaVuSans-65" transform="translate(341.740234 0)"/>
     <use xlink:href="#DejaVuSans-20" transform="translate(403.263672 0)"/>
     <use xlink:href="#DejaVuSans-65" transform="translate(435.050781 0)"/>
     <use xlink:href="#DejaVuSans-72" transform="translate(496.574219 0)"/>
     <use xlink:href="#DejaVuSans-72" transform="translate(535.9375 0)"/>
     <use xlink:href="#DejaVuSans-6f" transform="translate(574.800781 0)"/>
     <use xlink:href="#DejaVuSans-72" transform="translate(635.982422 0)"/>
     <use xlink:href="#DejaVuSans-20" transform="translate(677.095703 0)"/>
     <use xlink:href="#DejaVuSans-61" transform="translate(708.882812 0)"/>
     <use xlink:href="#DejaVuSans-63" transform="translate(770.162109 0)"/>
     <use xlink:href="#DejaVuSans-72" transform="translate(825.142578 0)"/>
     <use xlink:href="#DejaVuSans-6f" transform="translate(864.005859 0)"/>
     <use xlink:href="#DejaVuSans-73" transform="translate(925.1875 0)"/>
     <use xlink:href="#DejaVuSans-73" transform="translate(977.287109 0)"/>
     <use xlink:href="#DejaVuSans-20" transform="translate(1029.386719 0)"/>
     <use xlink:href="#DejaVuSans-74" transform="translate(1061.173828 0)"/>
     <use xlink:href="#DejaVuSans-77" transform="translate(1100.382812 0)"/>
     <use xlink:href="#DejaVuSans-6f" transform="translate(1182.169922 0)"/>
     <use xlink:href="#DejaVuSans-20" transform="translate(1243.351562 0)"/>
     <use xlink:href="#DejaVuSans-72" transform="translate(1275.138672 0)"/>
     <use xlink:href="#DejaVuSans-61" transform="translate(1316.251953 0)"/>
     <use xlink:href="#DejaVuSans-6e" transform="translate(1377.53125 0)"/>
     <use xlink:href="#DejaVuSans-64" transform="translate(1440.910156 0)"/>
     <use xlink:href="#DejaVuSans-6f" transform="translate(1504.386719 0)"/>
     <use xlink:href="#DejaVuSans-6d" transform="translate(1565.568359 0)"/>
     <use xlink:href="#DejaVuSans-20" transform="translate(1662.980469 0)"/>
     <use xlink:href="#DejaVuSans-64" transform="translate(1694.767578 0)"/>
     <use xlink:href="#DejaVuSans-69" transform="translate(1758.244141 0)"/>
     <use xlink:href="#DejaVuSans-72" transform="translate(1786.027344 0)"/>
     <use xlink:href="#DejaVuSans-65" transform="translate(1824.890625 0)"/>
     <use xlink:href="#DejaVuSans-63" transform="translate(1886.414062 0)"/>
     <use xlink:href="#DejaVuSans-74" transform="translate(1941.394531 0)"/>
     <use xlink:href="#DejaVuSans-69" transform="translate(1980.603516 0)"/>
     <use xlink:href="#DejaVuSans-6f" transform="translate(2008.386719 0)"/>
     <use xlink:href="#DejaVuSans-6e" transform="translate(2069.568359 0)"/>
     <use xlink:href="#DejaVuSans-73" transform="translate(2132.947266 0)"/>
    </g>
    <!-- in unknown parameters -->
    <g transform="translate(135.41746 35.856) scale(0.12 -0.12)">
     <defs>
      <path id="DejaVuSans-75" d="M 544 1381 
L 544 3500 
L 1119 3500 
L 1119 1403 
Q 1119 906 1312 657 
Q 1506 409 1894 409 
Q 2359 409 2629 706 
Q 2900 1003 2900 1516 
L 2900 3500 
L 3475 3500 
L 3475 0 
L 2900 0 
L 2900 538 
Q 2691 219 2414 64 
Q 2138 -91 1772 -91 
Q 1169 -91 856 284 
Q 544 659 544 1381 
z
M 1991 3584 
L 1991 3584 
z
" transform="scale(0.015625)"/>
      <path id="DejaVuSans-6b" d="M 581 4863 
L 1159 4863 
L 1159 1991 
L 2875 3500 
L 3609 3500 
L 1753 1863 
L 3688 0 
L 2938 0 
L 1159 1709 
L 1159 0 
L 581 0 
L 581 4863 
z
" transform="scale(0.015625)"/>
      <path id="DejaVuSans-70" d="M 1159 525 
L 1159 -1331 
L 581 -1331 
L 581 3500 
L 1159 3500 
L 1159 2969 
Q 1341 3281 1617 3432 
Q 1894 3584 2278 3584 
Q 2916 3584 3314 3078 
Q 3713 2572 3713 1747 
Q 3713 922 3314 415 
Q 2916 -91 2278 -91 
Q 1894 -91 1617 61 
Q 1341 213 1159 525 
z
M 3116 1747 
Q 3116 2381 2855 2742 
Q 2594 3103 2138 3103 
Q 1681 3103 1420 2742 
Q 1159 2381 1159 1747 
Q 1159 1113 1420 752 
Q 1681 391 2138 391 
Q 2594 391 2855 752 
Q 3116 1113 3116 1747 
z
" transform="scale(0.015625)"/>
     </defs>
     <use xlink:href="#DejaVuSans-69"/>
     <use xlink:href="#DejaVuSans-6e" transform="translate(27.783203 0)"/>
     <use xlink:href="#DejaVuSans-20" transform="translate(91.162109 0)"/>
     <use xlink:href="#DejaVuSans-75" transform="translate(122.949219 0)"/>
     <use xlink:href="#DejaVuSans-6e" transform="translate(186.328125 0)"/>
     <use xlink:href="#DejaVuSans-6b" transform="translate(249.707031 0)"/>
     <use xlink:href="#DejaVuSans-6e" transform="translate(307.617188 0)"/>
     <use xlink:href="#DejaVuSans-6f" transform="translate(370.996094 0)"/>
     <use xlink:href="#DejaVuSans-77" transform="translate(432.177734 0)"/>
     <use xlink:href="#DejaVuSans-6e" transform="translate(513.964844 0)"/>
     <use xlink:href="#DejaVuSans-20" transform="translate(577.34375 0)"/>
     <use xlink:href="#DejaVuSans-70" transform="translate(609.130859 0)"/>
     <use xlink:href="#DejaVuSans-61" transform="translate(672.607422 0)"/>
     <use xlink:href="#DejaVuSans-72" transform="translate(733.886719 0)"/>
     <use xlink:href="#DejaVuSans-61" transform="translate(775 0)"/>
     <use xlink:href="#DejaVuSans-6d" transform="translate(836.279297 0)"/>
     <use xlink:href="#DejaVuSans-65" transform="translate(933.691406 0)"/>
     <use xlink:href="#DejaVuSans-74" transform="translate(995.214844 0)"/>
     <use xlink:href="#DejaVuSans-65" transform="translate(1034.423828 0)"/>
     <use xlink:href="#DejaVuSans-72" transform="translate(1095.947266 0)"/>
     <use xlink:href="#DejaVuSans-73" transform="translate(1137.060547 0)"/>
    </g>
   </g>
  </g>
  <g id="axes_2">
   <g id="patch_7">
    <path d="M 386.90554 303.64 
L 399.79474 303.64 
L 399.79474 45.856 
L 386.90554 45.856 
z
" style="fill: #ffffff"/>
   </g>
   <g id="QuadMesh_1">
    <path d="M 386.90554 303.64 
L 399.79474 303.64 
L 399.79474 290.7508 
L 386.90554 290.7508 
L 386.90554 303.64 
" clip-path="url(#pc7648b97f7)" style="fill: #460a5d"/>
    <path d="M 386.90554 290.7508 
L 399.79474 290.7508 
L 399.79474 277.8616 
L 386.90554 277.8616 
L 386.90554 290.7508 
" clip-path="url(#pc7648b97f7)" style="fill: #481c6e"/>
    <path d="M 386.90554 277.8616 
L 399.79474 277.8616 
L 399.79474 264.9724 
L 386.90554 264.9724 
L 386.90554 277.8616 
" clip-path="url(#pc7648b97f7)" style="fill: #472d7b"/>
    <path d="M 386.90554 264.9724 
L 399.79474 264.9724 
L 399.79474 252.0832 
L 386.90554 252.0832 
L 386.90554 264.9724 
" clip-path="url(#pc7648b97f7)" style="fill: #443b84"/>
    <path d="M 386.90554 252.0832 
L 399.79474 252.0832 
L 399.79474 239.194 
L 386.90554 239.194 
L 386.90554 252.0832 
" clip-path="url(#pc7648b97f7)" style="fill: #3e4a89"/>
    <path d="M 386.90554 239.194 
L 399.79474 239.194 
L 399.79474 226.3048 
L 386.90554 226.3048 
L 386.90554 239.194 
" clip-path="url(#pc7648b97f7)" style="fill: #38598c"/>
    <path d="M 386.90554 226.3048 
L 399.79474 226.3048 
L 399.79474 213.4156 
L 386.90554 213.4156 
L 386.90554 226.3048 
" clip-path="url(#pc7648b97f7)" style="fill: #31668e"/>
    <path d="M 386.90554 213.4156 
L 399.79474 213.4156 
L 399.79474 200.5264 
L 386.90554 200.5264 
L 386.90554 213.4156 
" clip-path="url(#pc7648b97f7)" style="fill: #2c728e"/>
    <path d="M 386.90554 200.5264 
L 399.79474 200.5264 
L 399.79474 187.6372 
L 386.90554 187.6372 
L 386.90554 200.5264 
" clip-path="url(#pc7648b97f7)" style="fill: #277e8e"/>
    <path d="M 386.90554 187.6372 
L 399.79474 187.6372 
L 399.79474 174.748 
L 386.90554 174.748 
L 386.90554 187.6372 
" clip-path="url(#pc7648b97f7)" style="fill: #238a8d"/>
    <path d="M 386.90554 174.748 
L 399.79474 174.748 
L 399.79474 161.8588 
L 386.90554 161.8588 
L 386.90554 174.748 
" clip-path="url(#pc7648b97f7)" style="fill: #1f968b"/>
    <path d="M 386.90554 161.8588 
L 399.79474 161.8588 
L 399.79474 148.9696 
L 386.90554 148.9696 
L 386.90554 161.8588 
" clip-path="url(#pc7648b97f7)" style="fill: #1fa287"/>
    <path d="M 386.90554 148.9696 
L 399.79474 148.9696 
L 399.79474 136.0804 
L 386.90554 136.0804 
L 386.90554 148.9696 
" clip-path="url(#pc7648b97f7)" style="fill: #28ae80"/>
    <path d="M 386.90554 136.0804 
L 399.79474 136.0804 
L 399.79474 123.1912 
L 386.90554 123.1912 
L 386.90554 136.0804 
" clip-path="url(#pc7648b97f7)" style="fill: #38b977"/>
    <path d="M 386.90554 123.1912 
L 399.79474 123.1912 
L 399.79474 110.302 
L 386.90554 110.302 
L 386.90554 123.1912 
" clip-path="url(#pc7648b97f7)" style="fill: #50c46a"/>
    <path d="M 386.90554 110.302 
L 399.79474 110.302 
L 399.79474 97.4128 
L 386.90554 97.4128 
L 386.90554 110.302 
" clip-path="url(#pc7648b97f7)" style="fill: #6ccd5a"/>
    <path d="M 386.90554 97.4128 
L 399.79474 97.4128 
L 399.79474 84.5236 
L 386.90554 84.5236 
L 386.90554 97.4128 
" clip-path="url(#pc7648b97f7)" style="fill: #8bd646"/>
    <path d="M 386.90554 84.5236 
L 399.79474 84.5236 
L 399.79474 71.6344 
L 386.90554 71.6344 
L 386.90554 84.5236 
" clip-path="url(#pc7648b97f7)" style="fill: #aadc32"/>
    <path d="M 386.90554 71.6344 
L 399.79474 71.6344 
L 399.79474 58.7452 
L 386.90554 58.7452 
L 386.90554 71.6344 
" clip-path="url(#pc7648b97f7)" style="fill: #cde11d"/>
    <path d="M 386.90554 58.7452 
L 399.79474 58.7452 
L 399.79474 45.856 
L 386.90554 45.856 
L 386.90554 58.7452 
" clip-path="url(#pc7648b97f7)" style="fill: #efe51c"/>
   </g>
   <g id="matplotlib.axis_3"/>
   <g id="matplotlib.axis_4">
    <g id="ytick_10">
     <g id="line2d_20">
      <defs>
       <path id="mcbfe342097" d="M 0 0 
L 3.5 0 
" style="stroke: #000000; stroke-width: 0.8"/>
      </defs>
      <g>
       <use xlink:href="#mcbfe342097" x="399.79474" y="303.64" style="stroke: #000000; stroke-width: 0.8"/>
      </g>
     </g>
     <g id="text_22">
      <!-- 0.00 -->
      <g transform="translate(406.79474 307.439219) scale(0.1 -0.1)">
       <defs>
        <path id="DejaVuSans-2e" d="M 684 794 
L 1344 794 
L 1344 0 
L 684 0 
L 684 794 
z
" transform="scale(0.015625)"/>
       </defs>
       <use xlink:href="#DejaVuSans-30"/>
       <use xlink:href="#DejaVuSans-2e" transform="translate(63.623047 0)"/>
       <use xlink:href="#DejaVuSans-30" transform="translate(95.410156 0)"/>
       <use xlink:href="#DejaVuSans-30" transform="translate(159.033203 0)"/>
      </g>
     </g>
    </g>
    <g id="ytick_11">
     <g id="line2d_21">
      <g>
       <use xlink:href="#mcbfe342097" x="399.79474" y="264.9724" style="stroke: #000000; stroke-width: 0.8"/>
      </g>
     </g>
     <g id="text_23">
      <!-- 0.24 -->
      <g transform="translate(406.79474 268.771619) scale(0.1 -0.1)">
       <use xlink:href="#DejaVuSans-30"/>
       <use xlink:href="#DejaVuSans-2e" transform="translate(63.623047 0)"/>
       <use xlink:href="#DejaVuSans-32" transform="translate(95.410156 0)"/>
       <use xlink:href="#DejaVuSans-34" transform="translate(159.033203 0)"/>
      </g>
     </g>
    </g>
    <g id="ytick_12">
     <g id="line2d_22">
      <g>
       <use xlink:href="#mcbfe342097" x="399.79474" y="226.3048" style="stroke: #000000; stroke-width: 0.8"/>
      </g>
     </g>
     <g id="text_24">
      <!-- 0.48 -->
      <g transform="translate(406.79474 230.104019) scale(0.1 -0.1)">
       <defs>
        <path id="DejaVuSans-38" d="M 2034 2216 
Q 1584 2216 1326 1975 
Q 1069 1734 1069 1313 
Q 1069 891 1326 650 
Q 1584 409 2034 409 
Q 2484 409 2743 651 
Q 3003 894 3003 1313 
Q 3003 1734 2745 1975 
Q 2488 2216 2034 2216 
z
M 1403 2484 
Q 997 2584 770 2862 
Q 544 3141 544 3541 
Q 544 4100 942 4425 
Q 1341 4750 2034 4750 
Q 2731 4750 3128 4425 
Q 3525 4100 3525 3541 
Q 3525 3141 3298 2862 
Q 3072 2584 2669 2484 
Q 3125 2378 3379 2068 
Q 3634 1759 3634 1313 
Q 3634 634 3220 271 
Q 2806 -91 2034 -91 
Q 1263 -91 848 271 
Q 434 634 434 1313 
Q 434 1759 690 2068 
Q 947 2378 1403 2484 
z
M 1172 3481 
Q 1172 3119 1398 2916 
Q 1625 2713 2034 2713 
Q 2441 2713 2670 2916 
Q 2900 3119 2900 3481 
Q 2900 3844 2670 4047 
Q 2441 4250 2034 4250 
Q 1625 4250 1398 4047 
Q 1172 3844 1172 3481 
z
" transform="scale(0.015625)"/>
       </defs>
       <use xlink:href="#DejaVuSans-30"/>
       <use xlink:href="#DejaVuSans-2e" transform="translate(63.623047 0)"/>
       <use xlink:href="#DejaVuSans-34" transform="translate(95.410156 0)"/>
       <use xlink:href="#DejaVuSans-38" transform="translate(159.033203 0)"/>
      </g>
     </g>
    </g>
    <g id="ytick_13">
     <g id="line2d_23">
      <g>
       <use xlink:href="#mcbfe342097" x="399.79474" y="187.6372" style="stroke: #000000; stroke-width: 0.8"/>
      </g>
     </g>
     <g id="text_25">
      <!-- 0.72 -->
      <g transform="translate(406.79474 191.436419) scale(0.1 -0.1)">
       <defs>
        <path id="DejaVuSans-37" d="M 525 4666 
L 3525 4666 
L 3525 4397 
L 1831 0 
L 1172 0 
L 2766 4134 
L 525 4134 
L 525 4666 
z
" transform="scale(0.015625)"/>
       </defs>
       <use xlink:href="#DejaVuSans-30"/>
       <use xlink:href="#DejaVuSans-2e" transform="translate(63.623047 0)"/>
       <use xlink:href="#DejaVuSans-37" transform="translate(95.410156 0)"/>
       <use xlink:href="#DejaVuSans-32" transform="translate(159.033203 0)"/>
      </g>
     </g>
    </g>
    <g id="ytick_14">
     <g id="line2d_24">
      <g>
       <use xlink:href="#mcbfe342097" x="399.79474" y="148.9696" style="stroke: #000000; stroke-width: 0.8"/>
      </g>
     </g>
     <g id="text_26">
      <!-- 0.96 -->
      <g transform="translate(406.79474 152.768819) scale(0.1 -0.1)">
       <defs>
        <path id="DejaVuSans-39" d="M 703 97 
L 703 672 
Q 941 559 1184 500 
Q 1428 441 1663 441 
Q 2288 441 2617 861 
Q 2947 1281 2994 2138 
Q 2813 1869 2534 1725 
Q 2256 1581 1919 1581 
Q 1219 1581 811 2004 
Q 403 2428 403 3163 
Q 403 3881 828 4315 
Q 1253 4750 1959 4750 
Q 2769 4750 3195 4129 
Q 3622 3509 3622 2328 
Q 3622 1225 3098 567 
Q 2575 -91 1691 -91 
Q 1453 -91 1209 -44 
Q 966 3 703 97 
z
M 1959 2075 
Q 2384 2075 2632 2365 
Q 2881 2656 2881 3163 
Q 2881 3666 2632 3958 
Q 2384 4250 1959 4250 
Q 1534 4250 1286 3958 
Q 1038 3666 1038 3163 
Q 1038 2656 1286 2365 
Q 1534 2075 1959 2075 
z
" transform="scale(0.015625)"/>
        <path id="DejaVuSans-36" d="M 2113 2584 
Q 1688 2584 1439 2293 
Q 1191 2003 1191 1497 
Q 1191 994 1439 701 
Q 1688 409 2113 409 
Q 2538 409 2786 701 
Q 3034 994 3034 1497 
Q 3034 2003 2786 2293 
Q 2538 2584 2113 2584 
z
M 3366 4563 
L 3366 3988 
Q 3128 4100 2886 4159 
Q 2644 4219 2406 4219 
Q 1781 4219 1451 3797 
Q 1122 3375 1075 2522 
Q 1259 2794 1537 2939 
Q 1816 3084 2150 3084 
Q 2853 3084 3261 2657 
Q 3669 2231 3669 1497 
Q 3669 778 3244 343 
Q 2819 -91 2113 -91 
Q 1303 -91 875 529 
Q 447 1150 447 2328 
Q 447 3434 972 4092 
Q 1497 4750 2381 4750 
Q 2619 4750 2861 4703 
Q 3103 4656 3366 4563 
z
" transform="scale(0.015625)"/>
       </defs>
       <use xlink:href="#DejaVuSans-30"/>
       <use xlink:href="#DejaVuSans-2e" transform="translate(63.623047 0)"/>
       <use xlink:href="#DejaVuSans-39" transform="translate(95.410156 0)"/>
       <use xlink:href="#DejaVuSans-36" transform="translate(159.033203 0)"/>
      </g>
     </g>
    </g>
    <g id="ytick_15">
     <g id="line2d_25">
      <g>
       <use xlink:href="#mcbfe342097" x="399.79474" y="110.302" style="stroke: #000000; stroke-width: 0.8"/>
      </g>
     </g>
     <g id="text_27">
      <!-- 1.20 -->
      <g transform="translate(406.79474 114.101219) scale(0.1 -0.1)">
       <use xlink:href="#DejaVuSans-31"/>
       <use xlink:href="#DejaVuSans-2e" transform="translate(63.623047 0)"/>
       <use xlink:href="#DejaVuSans-32" transform="translate(95.410156 0)"/>
       <use xlink:href="#DejaVuSans-30" transform="translate(159.033203 0)"/>
      </g>
     </g>
    </g>
    <g id="ytick_16">
     <g id="line2d_26">
      <g>
       <use xlink:href="#mcbfe342097" x="399.79474" y="71.6344" style="stroke: #000000; stroke-width: 0.8"/>
      </g>
     </g>
     <g id="text_28">
      <!-- 1.44 -->
      <g transform="translate(406.79474 75.433619) scale(0.1 -0.1)">
       <use xlink:href="#DejaVuSans-31"/>
       <use xlink:href="#DejaVuSans-2e" transform="translate(63.623047 0)"/>
       <use xlink:href="#DejaVuSans-34" transform="translate(95.410156 0)"/>
       <use xlink:href="#DejaVuSans-34" transform="translate(159.033203 0)"/>
      </g>
     </g>
    </g>
    <g id="text_29">
     <!-- Relative error -->
     <g transform="translate(440.658802 208.603469) rotate(-90) scale(0.1 -0.1)">
      <use xlink:href="#DejaVuSans-52"/>
      <use xlink:href="#DejaVuSans-65" transform="translate(64.982422 0)"/>
      <use xlink:href="#DejaVuSans-6c" transform="translate(126.505859 0)"/>
      <use xlink:href="#DejaVuSans-61" transform="translate(154.289062 0)"/>
      <use xlink:href="#DejaVuSans-74" transform="translate(215.568359 0)"/>
      <use xlink:href="#DejaVuSans-69" transform="translate(254.777344 0)"/>
      <use xlink:href="#DejaVuSans-76" transform="translate(282.560547 0)"/>
      <use xlink:href="#DejaVuSans-65" transform="translate(341.740234 0)"/>
      <use xlink:href="#DejaVuSans-20" transform="translate(403.263672 0)"/>
      <use xlink:href="#DejaVuSans-65" transform="translate(435.050781 0)"/>
      <use xlink:href="#DejaVuSans-72" transform="translate(496.574219 0)"/>
      <use xlink:href="#DejaVuSans-72" transform="translate(535.9375 0)"/>
      <use xlink:href="#DejaVuSans-6f" transform="translate(574.800781 0)"/>
      <use xlink:href="#DejaVuSans-72" transform="translate(635.982422 0)"/>
     </g>
    </g>
   </g>
   <g id="LineCollection_1"/>
   <g id="patch_8">
    <path d="M 386.90554 303.64 
L 393.35014 303.64 
L 399.79474 303.64 
L 399.79474 45.856 
L 393.35014 45.856 
L 386.90554 45.856 
L 386.90554 303.64 
z
" style="fill: none; stroke: #000000; stroke-width: 0.8; stroke-linejoin: miter; stroke-linecap: square"/>
   </g>
  </g>
 </g>
 <defs>
  <clipPath id="p511040db11">
   <rect x="46.64" y="45.856" width="320.24992" height="257.784"/>
  </clipPath>
  <clipPath id="pc7648b97f7">
   <rect x="386.90554" y="45.856" width="12.8892" height="257.784"/>
  </clipPath>
 </defs>
</svg>
