<?xml version="1.0" encoding="utf-8" standalone="no"?>
<!DOCTYPE svg PUBLIC "-//W3C//DTD SVG 1.1//EN"
  "http://www.w3.org/Graphics/SVG/1.1/DTD/svg11.dtd">
<svg xmlns:xlink="http://www.w3.org/1999/xlink" width="460.8pt" height="345.6pt" viewBox="0 0 460.8 345.6" xmlns="http://www.w3.org/2000/svg" version="1.1">
 <metadata>
  <rdf:RDF xmlns:dc="http://purl.org/dc/elements/1.1/" xmlns:cc="http://creativecommons.org/ns#" xmlns:rdf="http://www.w3.org/1999/02/22-rdf-syntax-ns#">
   <cc:Work>
    <dc:type rdf:resource="http://purl.org/dc/dcmitype/StillImage"/>
    <dc:date>2025-10-15T22:43:34.919860</dc:date>
    <dc:format>image/svg+xml</dc:format>
    <dc:creator>
     <cc:Agent>
      <dc:title>Matplotlib v3.10.6, https://matplotlib.org/</dc:title>
     </cc:Agent>
    </dc:creator>
   </cc:Work>
  </rdf:RDF>
 </metadata>
 <defs>
  <style type="text/css">*{stroke-linejoin: round; stroke-linecap: butt}</style>
 </defs>
 <g id="figure_1">
  <g id="patch_1">
   <path d="M 0 345.6 
L 460.8 345.6 
L 460.8 0 
L 0 0 
z
" style="fill: #ffffff"/>
  </g>
  <g id="axes_1">
   <g id="patch_2">
    <path d="M 46.64 303.64 
L 361.92192 303.64 
L 361.92192 45.856 
L 46.64 45.856 
z
" style="fill: #ffffff"/>
   </g>
   <g id="QuadContourSet_1">
    <path d="M 109.696384 265.222553 
L 110.006628 264.9724 
L 109.696384 262.293812 
L 108.920486 264.9724 
z
M 125.46048 254.122867 
L 127.919059 252.0832 
L 141.224576 242.219278 
L 144.793706 239.194 
L 156.988672 229.694475 
L 160.920275 226.3048 
L 172.752768 216.657793 
L 176.459558 213.4156 
L 188.516864 203.177694 
L 191.508802 200.5264 
L 204.28096 189.302787 
L 206.137421 187.6372 
L 220.045056 175.07143 
L 220.401252 174.748 
L 234.220212 161.8588 
L 235.809152 160.272773 
L 247.593239 148.9696 
L 251.573248 144.900781 
L 260.561808 136.0804 
L 267.337344 129.044774 
L 273.185819 123.1912 
L 283.10144 112.761816 
L 285.517259 110.302 
L 291.164136 97.4128 
L 283.10144 96.198825 
L 281.608678 97.4128 
L 267.337344 107.793489 
L 264.34091 110.302 
L 251.573248 120.109296 
L 247.973889 123.1912 
L 235.809152 133.018074 
L 232.297834 136.0804 
L 220.045056 146.432834 
L 217.182361 148.9696 
L 204.28096 160.287088 
L 202.532804 161.8588 
L 188.516864 174.524555 
L 188.27165 174.748 
L 174.490878 187.6372 
L 172.752768 189.363432 
L 161.133866 200.5264 
L 156.988672 204.730035 
L 148.136029 213.4156 
L 141.224576 220.507735 
L 135.41523 226.3048 
L 125.46048 236.607123 
L 122.903021 239.194 
L 114.256952 252.0832 
z
" clip-path="url(#pb6d22ad0a4)" style="fill: #460a5d"/>
    <path d="M 62.404096 303.64 
L 78.168192 303.64 
L 86.873751 303.64 
L 93.932288 298.195239 
L 102.85175 290.7508 
L 109.696384 285.336404 
L 118.538104 277.8616 
L 125.46048 272.257271 
L 133.979811 264.9724 
L 141.224576 258.980412 
L 149.207601 252.0832 
L 156.988672 245.520117 
L 164.241141 239.194 
L 172.752768 231.884862 
L 179.092881 226.3048 
L 188.516864 218.079309 
L 193.770844 213.4156 
L 204.28096 204.105841 
L 208.280556 200.5264 
L 220.045056 189.965643 
L 222.62628 187.6372 
L 235.809152 175.659397 
L 236.811742 174.748 
L 250.842464 161.8588 
L 251.573248 161.17154 
L 264.706282 148.9696 
L 267.337344 146.458279 
L 278.385982 136.0804 
L 283.10144 131.522162 
L 291.87835 123.1912 
L 298.865536 116.361308 
L 305.18528 110.302 
L 314.629632 100.977116 
L 318.311437 97.4128 
L 330.393728 85.372791 
L 331.262821 84.5236 
L 343.615659 71.6344 
L 346.157824 68.851298 
L 355.584026 58.7452 
L 361.92192 51.74795 
L 361.92192 45.856 
L 346.157824 45.856 
L 330.393728 45.856 
L 324.051929 45.856 
L 314.629632 52.8907 
L 307.436136 58.7452 
L 298.865536 65.34716 
L 291.287558 71.6344 
L 283.10144 78.12479 
L 275.517507 84.5236 
L 267.337344 91.183938 
L 260.06366 97.4128 
L 251.573248 104.495748 
L 244.882652 110.302 
L 235.809152 118.039528 
L 229.944066 123.1912 
L 220.045056 131.800135 
L 215.225747 136.0804 
L 204.28096 145.765711 
L 200.710387 148.9696 
L 188.516864 159.925976 
L 186.383282 161.8588 
L 172.752768 174.271111 
L 172.23101 174.748 
L 158.255653 187.6372 
L 156.988672 188.829438 
L 144.457086 200.5264 
L 141.224576 203.610586 
L 130.830651 213.4156 
L 125.46048 218.596593 
L 117.367759 226.3048 
L 109.696384 233.773721 
L 104.055203 239.194 
L 93.932288 249.125158 
L 90.877824 252.0832 
L 78.168192 264.632883 
L 77.820077 264.9724 
L 65.338499 277.8616 
L 62.404096 280.956763 
L 53.026435 290.7508 
L 46.64 297.5041 
L 46.64 303.64 
z
M 108.920486 264.9724 
L 109.696384 262.293812 
L 110.006628 264.9724 
L 109.696384 265.222553 
z
M 114.256952 252.0832 
L 122.903021 239.194 
L 125.46048 236.607123 
L 135.41523 226.3048 
L 141.224576 220.507735 
L 148.136029 213.4156 
L 156.988672 204.730035 
L 161.133866 200.5264 
L 172.752768 189.363432 
L 174.490878 187.6372 
L 188.27165 174.748 
L 188.516864 174.524555 
L 202.532804 161.8588 
L 204.28096 160.287088 
L 217.182361 148.9696 
L 220.045056 146.432834 
L 232.297834 136.0804 
L 235.809152 133.018074 
L 247.973889 123.1912 
L 251.573248 120.109296 
L 264.34091 110.302 
L 267.337344 107.793489 
L 281.608678 97.4128 
L 283.10144 96.198825 
L 291.164136 97.4128 
L 285.517259 110.302 
L 283.10144 112.761816 
L 273.185819 123.1912 
L 267.337344 129.044774 
L 260.561808 136.0804 
L 251.573248 144.900781 
L 247.593239 148.9696 
L 235.809152 160.272773 
L 234.220212 161.8588 
L 220.401252 174.748 
L 220.045056 175.07143 
L 206.137421 187.6372 
L 204.28096 189.302787 
L 191.508802 200.5264 
L 188.516864 203.177694 
L 176.459558 213.4156 
L 172.752768 216.657793 
L 160.920275 226.3048 
L 156.988672 229.694475 
L 144.793706 239.194 
L 141.224576 242.219278 
L 127.919059 252.0832 
L 125.46048 254.122867 
z
" clip-path="url(#pb6d22ad0a4)" style="fill: #481c6e"/>
    <path d="M 53.026435 290.7508 
L 62.404096 280.956763 
L 65.338499 277.8616 
L 77.820077 264.9724 
L 78.168192 264.632883 
L 90.877824 252.0832 
L 93.932288 249.125158 
L 104.055203 239.194 
L 109.696384 233.773721 
L 117.367759 226.3048 
L 125.46048 218.596593 
L 130.830651 213.4156 
L 141.224576 203.610586 
L 144.457086 200.5264 
L 156.988672 188.829438 
L 158.255653 187.6372 
L 172.23101 174.748 
L 172.752768 174.271111 
L 186.383282 161.8588 
L 188.516864 159.925976 
L 200.710387 148.9696 
L 204.28096 145.765711 
L 215.225747 136.0804 
L 220.045056 131.800135 
L 229.944066 123.1912 
L 235.809152 118.039528 
L 244.882652 110.302 
L 251.573248 104.495748 
L 260.06366 97.4128 
L 267.337344 91.183938 
L 275.517507 84.5236 
L 283.10144 78.12479 
L 291.287558 71.6344 
L 298.865536 65.34716 
L 307.436136 58.7452 
L 314.629632 52.8907 
L 324.051929 45.856 
L 314.629632 45.856 
L 303.366042 45.856 
L 298.865536 49.520892 
L 287.966496 58.7452 
L 283.10144 62.776076 
L 272.754227 71.6344 
L 267.337344 76.195193 
L 257.711662 84.5236 
L 251.573248 89.769324 
L 242.82564 97.4128 
L 235.809152 103.49164 
L 228.086122 110.302 
L 220.045056 117.356708 
L 213.485153 123.1912 
L 204.28096 131.359893 
L 199.01605 136.0804 
L 188.516864 145.496905 
L 184.672828 148.9696 
L 172.752768 159.763463 
L 170.449803 161.8588 
L 156.988672 174.155097 
L 156.341364 174.748 
L 142.351326 187.6372 
L 141.224576 188.685975 
L 128.476482 200.5264 
L 125.46048 203.359006 
L 114.710859 213.4156 
L 109.696384 218.16258 
L 101.051316 226.3048 
L 93.932288 233.091438 
L 87.493119 239.194 
L 78.168192 248.139036 
L 74.030458 252.0832 
L 62.404096 263.297969 
L 60.656856 264.9724 
L 47.408619 277.8616 
L 46.64 278.628409 
L 46.64 290.7508 
L 46.64 297.5041 
z
M 93.932288 303.64 
L 107.067912 303.64 
L 109.696384 301.451234 
L 122.147958 290.7508 
L 125.46048 287.957877 
L 137.123885 277.8616 
L 141.224576 274.363511 
L 151.998671 264.9724 
L 156.988672 260.668747 
L 166.773686 252.0832 
L 172.752768 246.873142 
L 181.449235 239.194 
L 188.516864 232.975561 
L 196.024977 226.3048 
L 204.28096 218.974449 
L 210.500234 213.4156 
L 220.045056 204.868049 
L 224.874216 200.5264 
L 235.809152 190.654543 
L 239.146162 187.6372 
L 251.573248 176.332158 
L 253.315432 174.748 
L 267.337344 161.899217 
L 267.381549 161.8588 
L 281.351537 148.9696 
L 283.10144 147.330713 
L 295.208029 136.0804 
L 298.865536 132.625276 
L 308.946668 123.1912 
L 314.629632 117.779174 
L 322.564916 110.302 
L 330.393728 102.789389 
L 336.06141 97.4128 
L 346.157824 87.653712 
L 349.435656 84.5236 
L 361.92192 72.37052 
L 361.92192 71.6344 
L 361.92192 58.7452 
L 361.92192 51.74795 
L 355.584026 58.7452 
L 346.157824 68.851298 
L 343.615659 71.6344 
L 331.262821 84.5236 
L 330.393728 85.372791 
L 318.311437 97.4128 
L 314.629632 100.977116 
L 305.18528 110.302 
L 298.865536 116.361308 
L 291.87835 123.1912 
L 283.10144 131.522162 
L 278.385982 136.0804 
L 267.337344 146.458279 
L 264.706282 148.9696 
L 251.573248 161.17154 
L 250.842464 161.8588 
L 236.811742 174.748 
L 235.809152 175.659397 
L 222.62628 187.6372 
L 220.045056 189.965643 
L 208.280556 200.5264 
L 204.28096 204.105841 
L 193.770844 213.4156 
L 188.516864 218.079309 
L 179.092881 226.3048 
L 172.752768 231.884862 
L 164.241141 239.194 
L 156.988672 245.520117 
L 149.207601 252.0832 
L 141.224576 258.980412 
L 133.979811 264.9724 
L 125.46048 272.257271 
L 118.538104 277.8616 
L 109.696384 285.336404 
L 102.85175 290.7508 
L 93.932288 298.195239 
L 86.873751 303.64 
z
" clip-path="url(#pb6d22ad0a4)" style="fill: #472d7b"/>
    <path d="M 109.696384 303.64 
L 125.051419 303.64 
L 125.46048 303.288976 
L 139.84565 290.7508 
L 141.224576 289.558403 
L 154.575809 277.8616 
L 156.988672 275.759775 
L 169.240668 264.9724 
L 172.752768 261.891503 
L 183.8388 252.0832 
L 188.516864 247.951822 
L 198.368682 239.194 
L 204.28096 233.938866 
L 212.828763 226.3048 
L 220.045056 219.850723 
L 227.217523 213.4156 
L 235.809152 205.685476 
L 241.533512 200.5264 
L 251.573248 191.441234 
L 255.775371 187.6372 
L 267.337344 177.116151 
L 269.941852 174.748 
L 283.10144 162.708435 
L 284.03182 161.8588 
L 298.049256 148.9696 
L 298.865536 148.21143 
L 311.990836 136.0804 
L 314.629632 133.613859 
L 325.847017 123.1912 
L 330.393728 118.91524 
L 339.615349 110.302 
L 346.157824 104.112659 
L 353.293863 97.4128 
L 361.92192 89.203514 
L 361.92192 84.5236 
L 361.92192 72.37052 
L 349.435656 84.5236 
L 346.157824 87.653712 
L 336.06141 97.4128 
L 330.393728 102.789389 
L 322.564916 110.302 
L 314.629632 117.779174 
L 308.946668 123.1912 
L 298.865536 132.625276 
L 295.208029 136.0804 
L 283.10144 147.330713 
L 281.351537 148.9696 
L 267.381549 161.8588 
L 267.337344 161.899217 
L 253.315432 174.748 
L 251.573248 176.332158 
L 239.146162 187.6372 
L 235.809152 190.654543 
L 224.874216 200.5264 
L 220.045056 204.868049 
L 210.500234 213.4156 
L 204.28096 218.974449 
L 196.024977 226.3048 
L 188.516864 232.975561 
L 181.449235 239.194 
L 172.752768 246.873142 
L 166.773686 252.0832 
L 156.988672 260.668747 
L 151.998671 264.9724 
L 141.224576 274.363511 
L 137.123885 277.8616 
L 125.46048 287.957877 
L 122.147958 290.7508 
L 109.696384 301.451234 
L 107.067912 303.64 
z
M 47.408619 277.8616 
L 60.656856 264.9724 
L 62.404096 263.297969 
L 74.030458 252.0832 
L 78.168192 248.139036 
L 87.493119 239.194 
L 93.932288 233.091438 
L 101.051316 226.3048 
L 109.696384 218.16258 
L 114.710859 213.4156 
L 125.46048 203.359006 
L 128.476482 200.5264 
L 141.224576 188.685975 
L 142.351326 187.6372 
L 156.341364 174.748 
L 156.988672 174.155097 
L 170.449803 161.8588 
L 172.752768 159.763463 
L 184.672828 148.9696 
L 188.516864 145.496905 
L 199.01605 136.0804 
L 204.28096 131.359893 
L 213.485153 123.1912 
L 220.045056 117.356708 
L 228.086122 110.302 
L 235.809152 103.49164 
L 242.82564 97.4128 
L 251.573248 89.769324 
L 257.711662 84.5236 
L 267.337344 76.195193 
L 272.754227 71.6344 
L 283.10144 62.776076 
L 287.966496 58.7452 
L 298.865536 49.520892 
L 303.366042 45.856 
L 298.865536 45.856 
L 285.654519 45.856 
L 283.10144 48.01362 
L 270.669211 58.7452 
L 267.337344 61.593543 
L 255.802879 71.6344 
L 251.573248 75.289392 
L 241.049297 84.5236 
L 235.809152 89.097676 
L 226.40339 97.4128 
L 220.045056 103.015389 
L 211.860876 110.302 
L 204.28096 117.039801 
L 197.417973 123.1912 
L 188.516864 131.168279 
L 183.071181 136.0804 
L 172.752768 145.398156 
L 168.817124 148.9696 
L 156.988672 159.726649 
L 154.652444 161.8588 
L 141.224576 174.150797 
L 140.573737 174.748 
L 126.586107 187.6372 
L 125.46048 188.681186 
L 112.685539 200.5264 
L 109.696384 203.317156 
L 98.865895 213.4156 
L 93.932288 218.049656 
L 85.125023 226.3048 
L 78.168192 232.875409 
L 71.460118 239.194 
L 62.404096 247.790567 
L 57.867876 252.0832 
L 46.64 262.790849 
L 46.64 264.9724 
L 46.64 277.8616 
L 46.64 278.628409 
z
" clip-path="url(#pb6d22ad0a4)" style="fill: #443b84"/>
    <path d="M 125.46048 303.64 
L 141.224576 303.64 
L 142.496769 303.64 
L 156.988672 290.900604 
L 157.158163 290.7508 
L 171.763774 277.8616 
L 172.752768 276.990739 
L 186.319375 264.9724 
L 188.516864 263.027563 
L 200.824054 252.0832 
L 204.28096 249.008642 
L 215.27626 239.194 
L 220.045056 234.932284 
L 229.674484 226.3048 
L 235.809152 220.796798 
L 244.01727 213.4156 
L 251.573248 206.600503 
L 258.303226 200.5264 
L 267.337344 192.341738 
L 272.531024 187.6372 
L 283.10144 178.018861 
L 286.699405 174.748 
L 298.865536 163.630253 
L 300.807177 161.8588 
L 314.629632 149.174315 
L 314.853215 148.9696 
L 328.845916 136.0804 
L 330.393728 134.642485 
L 342.773338 123.1912 
L 346.157824 120.031691 
L 356.631914 110.302 
L 361.92192 105.340043 
L 361.92192 97.4128 
L 361.92192 89.203514 
L 353.293863 97.4128 
L 346.157824 104.112659 
L 339.615349 110.302 
L 330.393728 118.91524 
L 325.847017 123.1912 
L 314.629632 133.613859 
L 311.990836 136.0804 
L 298.865536 148.21143 
L 298.049256 148.9696 
L 284.03182 161.8588 
L 283.10144 162.708435 
L 269.941852 174.748 
L 267.337344 177.116151 
L 255.775371 187.6372 
L 251.573248 191.441234 
L 241.533512 200.5264 
L 235.809152 205.685476 
L 227.217523 213.4156 
L 220.045056 219.850723 
L 212.828763 226.3048 
L 204.28096 233.938866 
L 198.368682 239.194 
L 188.516864 247.951822 
L 183.8388 252.0832 
L 172.752768 261.891503 
L 169.240668 264.9724 
L 156.988672 275.759775 
L 154.575809 277.8616 
L 141.224576 289.558403 
L 139.84565 290.7508 
L 125.46048 303.288976 
L 125.051419 303.64 
z
M 57.867876 252.0832 
L 62.404096 247.790567 
L 71.460118 239.194 
L 78.168192 232.875409 
L 85.125023 226.3048 
L 93.932288 218.049656 
L 98.865895 213.4156 
L 109.696384 203.317156 
L 112.685539 200.5264 
L 125.46048 188.681186 
L 126.586107 187.6372 
L 140.573737 174.748 
L 141.224576 174.150797 
L 154.652444 161.8588 
L 156.988672 159.726649 
L 168.817124 148.9696 
L 172.752768 145.398156 
L 183.071181 136.0804 
L 188.516864 131.168279 
L 197.417973 123.1912 
L 204.28096 117.039801 
L 211.860876 110.302 
L 220.045056 103.015389 
L 226.40339 97.4128 
L 235.809152 89.097676 
L 241.049297 84.5236 
L 251.573248 75.289392 
L 255.802879 71.6344 
L 267.337344 61.593543 
L 270.669211 58.7452 
L 283.10144 48.01362 
L 285.654519 45.856 
L 283.10144 45.856 
L 268.86916 45.856 
L 267.337344 47.176928 
L 254.102435 58.7452 
L 251.573248 60.944923 
L 239.425899 71.6344 
L 235.809152 74.805527 
L 224.83627 84.5236 
L 220.045056 88.756635 
L 210.330655 97.4128 
L 204.28096 102.796251 
L 195.906415 110.302 
L 188.516864 116.922415 
L 181.561063 123.1912 
L 172.752768 131.133137 
L 167.292181 136.0804 
L 156.988672 145.426351 
L 153.097372 148.9696 
L 141.224576 159.799889 
L 138.974213 161.8588 
L 125.46048 174.251459 
L 124.920234 174.748 
L 110.942028 187.6372 
L 109.696384 188.790968 
L 97.033809 200.5264 
L 93.932288 203.414326 
L 83.190318 213.4156 
L 78.168192 218.114806 
L 69.4098 226.3048 
L 62.404096 232.889935 
L 55.690188 239.194 
L 46.64 247.736954 
L 46.64 252.0832 
L 46.64 262.790849 
z
" clip-path="url(#pb6d22ad0a4)" style="fill: #3e4a89"/>
    <path d="M 156.988672 303.64 
L 159.81312 303.64 
L 172.752768 292.199054 
L 174.385022 290.7508 
L 188.516864 278.214451 
L 188.91348 277.8616 
L 203.401573 264.9724 
L 204.28096 264.189971 
L 217.849342 252.0832 
L 220.045056 250.122015 
L 232.254337 239.194 
L 235.809152 236.006814 
L 246.615241 226.3048 
L 251.573248 221.84292 
L 260.930777 213.4156 
L 267.337344 207.628893 
L 275.19971 200.5264 
L 283.10144 193.363298 
L 289.420844 187.6372 
L 298.865536 179.044704 
L 303.593025 174.748 
L 314.629632 164.671686 
L 317.715139 161.8588 
L 330.393728 150.242819 
L 331.786107 148.9696 
L 345.807255 136.0804 
L 346.157824 135.756043 
L 359.783623 123.1912 
L 361.92192 121.204817 
L 361.92192 110.302 
L 361.92192 105.340043 
L 356.631914 110.302 
L 346.157824 120.031691 
L 342.773338 123.1912 
L 330.393728 134.642485 
L 328.845916 136.0804 
L 314.853215 148.9696 
L 314.629632 149.174315 
L 300.807177 161.8588 
L 298.865536 163.630253 
L 286.699405 174.748 
L 283.10144 178.018861 
L 272.531024 187.6372 
L 267.337344 192.341738 
L 258.303226 200.5264 
L 251.573248 206.600503 
L 244.01727 213.4156 
L 235.809152 220.796798 
L 229.674484 226.3048 
L 220.045056 234.932284 
L 215.27626 239.194 
L 204.28096 249.008642 
L 200.824054 252.0832 
L 188.516864 263.027563 
L 186.319375 264.9724 
L 172.752768 276.990739 
L 171.763774 277.8616 
L 157.158163 290.7508 
L 156.988672 290.900604 
L 142.496769 303.64 
z
M 55.690188 239.194 
L 62.404096 232.889935 
L 69.4098 226.3048 
L 78.168192 218.114806 
L 83.190318 213.4156 
L 93.932288 203.414326 
L 97.033809 200.5264 
L 109.696384 188.790968 
L 110.942028 187.6372 
L 124.920234 174.748 
L 125.46048 174.251459 
L 138.974213 161.8588 
L 141.224576 159.799889 
L 153.097372 148.9696 
L 156.988672 145.426351 
L 167.292181 136.0804 
L 172.752768 131.133137 
L 181.561063 123.1912 
L 188.516864 116.922415 
L 195.906415 110.302 
L 204.28096 102.796251 
L 210.330655 97.4128 
L 220.045056 88.756635 
L 224.83627 84.5236 
L 235.809152 74.805527 
L 239.425899 71.6344 
L 251.573248 60.944923 
L 254.102435 58.7452 
L 267.337344 47.176928 
L 268.86916 45.856 
L 267.337344 45.856 
L 252.538227 45.856 
L 251.573248 46.698872 
L 237.913602 58.7452 
L 235.809152 60.595948 
L 223.363012 71.6344 
L 220.045056 74.571354 
L 208.884227 84.5236 
L 204.28096 88.623463 
L 194.475174 97.4128 
L 188.516864 102.750658 
L 180.133876 110.302 
L 172.752768 116.951301 
L 165.858407 123.1912 
L 156.988672 131.223704 
L 151.646862 136.0804 
L 141.224576 145.566113 
L 137.497328 148.9696 
L 125.46048 159.976697 
L 123.407869 161.8588 
L 109.696384 174.45354 
L 109.376519 174.748 
L 95.411839 187.6372 
L 93.932288 189.007186 
L 81.504915 200.5264 
L 78.168192 203.629654 
L 67.652169 213.4156 
L 62.404096 218.316685 
L 53.852083 226.3048 
L 46.64 233.066247 
L 46.64 239.194 
L 46.64 247.736954 
z
" clip-path="url(#pb6d22ad0a4)" style="fill: #38598c"/>
    <path d="M 172.752768 303.64 
L 177.129436 303.64 
L 188.516864 293.530983 
L 191.641387 290.7508 
L 204.28096 279.499341 
L 206.117309 277.8616 
L 220.045056 265.429638 
L 220.556565 264.9724 
L 234.963853 252.0832 
L 235.809152 251.326081 
L 249.337854 239.194 
L 251.573248 237.185515 
L 263.674566 226.3048 
L 267.337344 223.0036 
L 277.972879 213.4156 
L 283.10144 208.779091 
L 292.231709 200.5264 
L 298.865536 194.510738 
L 306.449996 187.6372 
L 314.629632 180.197289 
L 320.626704 174.748 
L 330.393728 165.837489 
L 334.760818 161.8588 
L 346.157824 151.430072 
L 348.851344 148.9696 
L 361.92192 136.973766 
L 361.92192 136.0804 
L 361.92192 123.1912 
L 361.92192 121.204817 
L 359.783623 123.1912 
L 346.157824 135.756043 
L 345.807255 136.0804 
L 331.786107 148.9696 
L 330.393728 150.242819 
L 317.715139 161.8588 
L 314.629632 164.671686 
L 303.593025 174.748 
L 298.865536 179.044704 
L 289.420844 187.6372 
L 283.10144 193.363298 
L 275.19971 200.5264 
L 267.337344 207.628893 
L 260.930777 213.4156 
L 251.573248 221.84292 
L 246.615241 226.3048 
L 235.809152 236.006814 
L 232.254337 239.194 
L 220.045056 250.122015 
L 217.849342 252.0832 
L 204.28096 264.189971 
L 203.401573 264.9724 
L 188.91348 277.8616 
L 188.516864 278.214451 
L 174.385022 290.7508 
L 172.752768 292.199054 
L 159.81312 303.64 
z
M 53.852083 226.3048 
L 62.404096 218.316685 
L 67.652169 213.4156 
L 78.168192 203.629654 
L 81.504915 200.5264 
L 93.932288 189.007186 
L 95.411839 187.6372 
L 109.376519 174.748 
L 109.696384 174.45354 
L 123.407869 161.8588 
L 125.46048 159.976697 
L 137.497328 148.9696 
L 141.224576 145.566113 
L 151.646862 136.0804 
L 156.988672 131.223704 
L 165.858407 123.1912 
L 172.752768 116.951301 
L 180.133876 110.302 
L 188.516864 102.750658 
L 194.475174 97.4128 
L 204.28096 88.623463 
L 208.884227 84.5236 
L 220.045056 74.571354 
L 223.363012 71.6344 
L 235.809152 60.595948 
L 237.913602 58.7452 
L 251.573248 46.698872 
L 252.538227 45.856 
L 251.573248 45.856 
L 236.492738 45.856 
L 235.809152 46.458527 
L 221.971966 58.7452 
L 220.045056 60.453344 
L 207.514647 71.6344 
L 204.28096 74.516628 
L 193.119031 84.5236 
L 188.516864 88.646971 
L 178.783438 97.4128 
L 172.752768 102.842944 
L 164.506231 110.302 
L 156.988672 117.103088 
L 150.285794 123.1912 
L 141.224576 131.425897 
L 136.120513 136.0804 
L 125.46048 145.809815 
L 122.008766 148.9696 
L 109.696384 160.25323 
L 107.948915 161.8588 
L 93.939352 174.748 
L 93.932288 174.754516 
L 79.991039 187.6372 
L 78.168192 189.325463 
L 66.090696 200.5264 
L 62.404096 203.95381 
L 52.237081 213.4156 
L 46.64 218.637917 
L 46.64 226.3048 
L 46.64 233.066247 
z
" clip-path="url(#pb6d22ad0a4)" style="fill: #31668e"/>
    <path d="M 188.516864 303.64 
L 194.506492 303.64 
L 204.28096 294.937455 
L 208.976005 290.7508 
L 220.045056 280.872456 
L 223.414713 277.8616 
L 235.809152 266.774538 
L 237.821977 264.9724 
L 251.573248 252.64293 
L 252.19715 252.0832 
L 266.545388 239.194 
L 267.337344 238.481385 
L 280.865619 226.3048 
L 283.10144 224.287633 
L 295.152558 213.4156 
L 298.865536 210.056883 
L 309.405247 200.5264 
L 314.629632 195.788036 
L 323.622744 187.6372 
L 330.393728 181.479986 
L 337.804119 174.748 
L 346.157824 167.131614 
L 351.948454 161.8588 
L 361.92192 152.741791 
L 361.92192 148.9696 
L 361.92192 136.973766 
L 348.851344 148.9696 
L 346.157824 151.430072 
L 334.760818 161.8588 
L 330.393728 165.837489 
L 320.626704 174.748 
L 314.629632 180.197289 
L 306.449996 187.6372 
L 298.865536 194.510738 
L 292.231709 200.5264 
L 283.10144 208.779091 
L 277.972879 213.4156 
L 267.337344 223.0036 
L 263.674566 226.3048 
L 251.573248 237.185515 
L 249.337854 239.194 
L 235.809152 251.326081 
L 234.963853 252.0832 
L 220.556565 264.9724 
L 220.045056 265.429638 
L 206.117309 277.8616 
L 204.28096 279.499341 
L 191.641387 290.7508 
L 188.516864 293.530983 
L 177.129436 303.64 
z
M 52.237081 213.4156 
L 62.404096 203.95381 
L 66.090696 200.5264 
L 78.168192 189.325463 
L 79.991039 187.6372 
L 93.932288 174.754516 
L 93.939352 174.748 
L 107.948915 161.8588 
L 109.696384 160.25323 
L 122.008766 148.9696 
L 125.46048 145.809815 
L 136.120513 136.0804 
L 141.224576 131.425897 
L 150.285794 123.1912 
L 156.988672 117.103088 
L 164.506231 110.302 
L 172.752768 102.842944 
L 178.783438 97.4128 
L 188.516864 88.646971 
L 193.119031 84.5236 
L 204.28096 74.516628 
L 207.514647 71.6344 
L 220.045056 60.453344 
L 221.971966 58.7452 
L 235.809152 46.458527 
L 236.492738 45.856 
L 235.809152 45.856 
L 220.655121 45.856 
L 220.045056 46.397462 
L 206.216193 58.7452 
L 204.28096 60.471302 
L 191.83313 71.6344 
L 188.516864 74.606304 
L 177.504445 84.5236 
L 172.752768 88.801182 
L 163.228687 97.4128 
L 156.988672 103.054627 
L 149.004426 110.302 
L 141.224576 117.365297 
L 134.830241 123.1912 
L 125.46048 131.731815 
L 120.704711 136.0804 
L 109.696384 146.152764 
L 106.626409 148.9696 
L 93.932288 160.626686 
L 92.593898 161.8588 
L 78.608734 174.748 
L 78.168192 175.154818 
L 64.676154 187.6372 
L 62.404096 189.742753 
L 50.785902 200.5264 
L 46.64 204.38141 
L 46.64 213.4156 
L 46.64 218.637917 
z
" clip-path="url(#pb6d22ad0a4)" style="fill: #2c728e"/>
    <path d="M 204.28096 303.64 
L 211.979199 303.64 
L 220.045056 296.442769 
L 226.417387 290.7508 
L 235.809152 282.353232 
L 240.828639 277.8616 
L 251.573248 268.234682 
L 255.212339 264.9724 
L 267.337344 254.086395 
L 269.567871 252.0832 
L 283.10144 239.907634 
L 283.894613 239.194 
L 298.197159 226.3048 
L 298.865536 225.701347 
L 312.476303 213.4156 
L 314.629632 211.466935 
L 326.725193 200.5264 
L 330.393728 197.198852 
L 340.942986 187.6372 
L 346.157824 182.89611 
L 355.128842 174.748 
L 361.92192 168.557706 
L 361.92192 161.8588 
L 361.92192 152.741791 
L 351.948454 161.8588 
L 346.157824 167.131614 
L 337.804119 174.748 
L 330.393728 181.479986 
L 323.622744 187.6372 
L 314.629632 195.788036 
L 309.405247 200.5264 
L 298.865536 210.056883 
L 295.152558 213.4156 
L 283.10144 224.287633 
L 280.865619 226.3048 
L 267.337344 238.481385 
L 266.545388 239.194 
L 252.19715 252.0832 
L 251.573248 252.64293 
L 237.821977 264.9724 
L 235.809152 266.774538 
L 223.414713 277.8616 
L 220.045056 280.872456 
L 208.976005 290.7508 
L 204.28096 294.937455 
L 194.506492 303.64 
z
M 50.785902 200.5264 
L 62.404096 189.742753 
L 64.676154 187.6372 
L 78.168192 175.154818 
L 78.608734 174.748 
L 92.593898 161.8588 
L 93.932288 160.626686 
L 106.626409 148.9696 
L 109.696384 146.152764 
L 120.704711 136.0804 
L 125.46048 131.731815 
L 134.830241 123.1912 
L 141.224576 117.365297 
L 149.004426 110.302 
L 156.988672 103.054627 
L 163.228687 97.4128 
L 172.752768 88.801182 
L 177.504445 84.5236 
L 188.516864 74.606304 
L 191.83313 71.6344 
L 204.28096 60.471302 
L 206.216193 58.7452 
L 220.045056 46.397462 
L 220.655121 45.856 
L 220.045056 45.856 
L 204.983673 45.856 
L 204.28096 46.483196 
L 190.612771 58.7452 
L 188.516864 60.624046 
L 176.29197 71.6344 
L 172.752768 74.820393 
L 162.01995 84.5236 
L 156.988672 89.071034 
L 147.795407 97.4128 
L 141.224576 103.374743 
L 133.617054 110.302 
L 125.46048 117.730267 
L 119.483606 123.1912 
L 109.696384 132.136325 
L 105.393782 136.0804 
L 93.932288 146.591607 
L 91.346295 148.9696 
L 78.168192 161.09477 
L 77.339852 161.8588 
L 63.379735 174.748 
L 62.404096 175.650038 
L 49.464185 187.6372 
L 46.64 190.256623 
L 46.64 200.5264 
L 46.64 204.38141 
z
" clip-path="url(#pb6d22ad0a4)" style="fill: #277e8e"/>
    <path d="M 220.045056 303.64 
L 229.56977 303.64 
L 235.809152 298.062882 
L 243.984025 290.7508 
L 251.573248 283.954742 
L 258.374314 277.8616 
L 267.337344 269.820646 
L 272.740056 264.9724 
L 283.10144 255.659919 
L 287.080668 252.0832 
L 298.865536 241.471874 
L 301.395563 239.194 
L 314.629632 227.255806 
L 315.684152 226.3048 
L 329.949414 213.4156 
L 330.393728 213.013397 
L 344.195884 200.5264 
L 346.157824 198.746733 
L 358.414476 187.6372 
L 361.92192 184.449006 
L 361.92192 174.748 
L 361.92192 168.557706 
L 355.128842 174.748 
L 346.157824 182.89611 
L 340.942986 187.6372 
L 330.393728 197.198852 
L 326.725193 200.5264 
L 314.629632 211.466935 
L 312.476303 213.4156 
L 298.865536 225.701347 
L 298.197159 226.3048 
L 283.894613 239.194 
L 283.10144 239.907634 
L 269.567871 252.0832 
L 267.337344 254.086395 
L 255.212339 264.9724 
L 251.573248 268.234682 
L 240.828639 277.8616 
L 235.809152 282.353232 
L 226.417387 290.7508 
L 220.045056 296.442769 
L 211.979199 303.64 
z
M 49.464185 187.6372 
L 62.404096 175.650038 
L 63.379735 174.748 
L 77.339852 161.8588 
L 78.168192 161.09477 
L 91.346295 148.9696 
L 93.932288 146.591607 
L 105.393782 136.0804 
L 109.696384 132.136325 
L 119.483606 123.1912 
L 125.46048 117.730267 
L 133.617054 110.302 
L 141.224576 103.374743 
L 147.795407 97.4128 
L 156.988672 89.071034 
L 162.01995 84.5236 
L 172.752768 74.820393 
L 176.29197 71.6344 
L 188.516864 60.624046 
L 190.612771 58.7452 
L 204.28096 46.483196 
L 204.983673 45.856 
L 204.28096 45.856 
L 189.453328 45.856 
L 188.516864 46.695801 
L 175.141268 58.7452 
L 172.752768 60.895583 
L 160.874751 71.6344 
L 156.988672 75.146322 
L 146.652569 84.5236 
L 141.224576 89.446877 
L 132.473529 97.4128 
L 125.46048 103.796086 
L 118.336445 110.302 
L 109.696384 118.192768 
L 104.240137 123.1912 
L 93.932288 132.635716 
L 90.183428 136.0804 
L 78.168192 147.123703 
L 76.165137 148.9696 
L 62.404096 161.65548 
L 62.184084 161.8588 
L 48.249813 174.748 
L 46.64 176.238334 
L 46.64 187.6372 
L 46.64 190.256623 
z
" clip-path="url(#pb6d22ad0a4)" style="fill: #238a8d"/>
    <path d="M 235.809152 303.64 
L 247.29361 303.64 
L 251.573248 299.809254 
L 261.689013 290.7508 
L 267.337344 285.68662 
L 276.06279 277.8616 
L 283.10144 271.54048 
L 290.414397 264.9724 
L 298.865536 257.370203 
L 304.743285 252.0832 
L 314.629632 243.175148 
L 319.048904 239.194 
L 330.393728 228.954658 
L 333.330699 226.3048 
L 346.157824 214.708063 
L 347.588111 213.4156 
L 361.821397 200.5264 
L 361.92192 200.435212 
L 361.92192 187.6372 
L 361.92192 184.449006 
L 358.414476 187.6372 
L 346.157824 198.746733 
L 344.195884 200.5264 
L 330.393728 213.013397 
L 329.949414 213.4156 
L 315.684152 226.3048 
L 314.629632 227.255806 
L 301.395563 239.194 
L 298.865536 241.471874 
L 287.080668 252.0832 
L 283.10144 255.659919 
L 272.740056 264.9724 
L 267.337344 269.820646 
L 258.374314 277.8616 
L 251.573248 283.954742 
L 243.984025 290.7508 
L 235.809152 298.062882 
L 229.56977 303.64 
z
M 48.249813 174.748 
L 62.184084 161.8588 
L 62.404096 161.65548 
L 76.165137 148.9696 
L 78.168192 147.123703 
L 90.183428 136.0804 
L 93.932288 132.635716 
L 104.240137 123.1912 
L 109.696384 118.192768 
L 118.336445 110.302 
L 125.46048 103.796086 
L 132.473529 97.4128 
L 141.224576 89.446877 
L 146.652569 84.5236 
L 156.988672 75.146322 
L 160.874751 71.6344 
L 172.752768 60.895583 
L 175.141268 58.7452 
L 188.516864 46.695801 
L 189.453328 45.856 
L 188.516864 45.856 
L 174.047684 45.856 
L 172.752768 47.022096 
L 159.788121 58.7452 
L 156.988672 61.275212 
L 145.570383 71.6344 
L 141.224576 75.575554 
L 131.393348 84.5236 
L 125.46048 89.922029 
L 117.255905 97.4128 
L 109.696384 104.313529 
L 103.156951 110.302 
L 93.932288 118.748929 
L 89.095386 123.1912 
L 78.168192 133.227085 
L 75.070114 136.0804 
L 62.404096 147.746837 
L 61.080039 148.9696 
L 47.127256 161.8588 
L 46.64 162.309283 
L 46.64 174.748 
L 46.64 176.238334 
z
" clip-path="url(#pb6d22ad0a4)" style="fill: #1f968b"/>
    <path d="M 251.573248 303.64 
L 265.162222 303.64 
L 267.337344 301.690762 
L 279.542337 290.7508 
L 283.10144 287.556535 
L 293.902707 277.8616 
L 298.865536 273.400797 
L 308.242822 264.9724 
L 314.629632 259.222959 
L 322.562169 252.0832 
L 330.393728 245.022421 
L 336.86023 239.194 
L 346.157824 230.798568 
L 351.136482 226.3048 
L 361.92192 216.550773 
L 361.92192 213.4156 
L 361.92192 200.5264 
L 361.92192 200.435212 
L 361.821397 200.5264 
L 347.588111 213.4156 
L 346.157824 214.708063 
L 333.330699 226.3048 
L 330.393728 228.954658 
L 319.048904 239.194 
L 314.629632 243.175148 
L 304.743285 252.0832 
L 298.865536 257.370203 
L 290.414397 264.9724 
L 283.10144 271.54048 
L 276.06279 277.8616 
L 267.337344 285.68662 
L 261.689013 290.7508 
L 251.573248 299.809254 
L 247.29361 303.64 
z
M 47.127256 161.8588 
L 61.080039 148.9696 
L 62.404096 147.746837 
L 75.070114 136.0804 
L 78.168192 133.227085 
L 89.095386 123.1912 
L 93.932288 118.748929 
L 103.156951 110.302 
L 109.696384 104.313529 
L 117.255905 97.4128 
L 125.46048 89.922029 
L 131.393348 84.5236 
L 141.224576 75.575554 
L 145.570383 71.6344 
L 156.988672 61.275212 
L 159.788121 58.7452 
L 172.752768 47.022096 
L 174.047684 45.856 
L 172.752768 45.856 
L 158.755248 45.856 
L 156.988672 47.452828 
L 144.543678 58.7452 
L 141.224576 61.755328 
L 130.37083 71.6344 
L 125.46048 76.101924 
L 116.235648 84.5236 
L 109.696384 90.491563 
L 102.137087 97.4128 
L 93.932288 104.923182 
L 88.074109 110.302 
L 78.168192 119.395703 
L 74.045679 123.1912 
L 62.404096 133.908034 
L 60.050768 136.0804 
L 46.64 148.45907 
L 46.64 148.9696 
L 46.64 161.8588 
L 46.64 162.309283 
z
" clip-path="url(#pb6d22ad0a4)" style="fill: #1fa287"/>
    <path d="M 267.337344 303.64 
L 283.10144 303.64 
L 283.185422 303.64 
L 297.552109 290.7508 
L 298.865536 289.57098 
L 311.901251 277.8616 
L 314.629632 275.407361 
L 326.231706 264.9724 
L 330.393728 261.223327 
L 340.542989 252.0832 
L 346.157824 247.018314 
L 354.834615 239.194 
L 361.92192 232.791746 
L 361.92192 226.3048 
L 361.92192 216.550773 
L 351.136482 226.3048 
L 346.157824 230.798568 
L 336.86023 239.194 
L 330.393728 245.022421 
L 322.562169 252.0832 
L 314.629632 259.222959 
L 308.242822 264.9724 
L 298.865536 273.400797 
L 293.902707 277.8616 
L 283.10144 287.556535 
L 279.542337 290.7508 
L 267.337344 301.690762 
L 265.162222 303.64 
z
M 60.050768 136.0804 
L 62.404096 133.908034 
L 74.045679 123.1912 
L 78.168192 119.395703 
L 88.074109 110.302 
L 93.932288 104.923182 
L 102.137087 97.4128 
L 109.696384 90.491563 
L 116.235648 84.5236 
L 125.46048 76.101924 
L 130.37083 71.6344 
L 141.224576 61.755328 
L 144.543678 58.7452 
L 156.988672 47.452828 
L 158.755248 45.856 
L 156.988672 45.856 
L 143.567497 45.856 
L 141.224576 47.981176 
L 129.400673 58.7452 
L 125.46048 62.330252 
L 115.269926 71.6344 
L 109.696384 76.720751 
L 101.174256 84.5236 
L 93.932288 91.151659 
L 87.112673 97.4128 
L 78.168192 105.621948 
L 73.084192 110.302 
L 62.404096 120.130579 
L 59.087832 123.1912 
L 46.64 134.676505 
L 46.64 136.0804 
L 46.64 148.45907 
z
" clip-path="url(#pb6d22ad0a4)" style="fill: #28ae80"/>
    <path d="M 298.865536 303.64 
L 301.38933 303.64 
L 314.629632 291.743273 
L 315.734294 290.7508 
L 330.064699 277.8616 
L 330.393728 277.565431 
L 344.386742 264.9724 
L 346.157824 263.376119 
L 358.690937 252.0832 
L 361.92192 249.167268 
L 361.92192 239.194 
L 361.92192 232.791746 
L 354.834615 239.194 
L 346.157824 247.018314 
L 340.542989 252.0832 
L 330.393728 261.223327 
L 326.231706 264.9724 
L 314.629632 275.407361 
L 311.901251 277.8616 
L 298.865536 289.57098 
L 297.552109 290.7508 
L 283.185422 303.64 
z
M 59.087832 123.1912 
L 62.404096 120.130579 
L 73.084192 110.302 
L 78.168192 105.621948 
L 87.112673 97.4128 
L 93.932288 91.151659 
L 101.174256 84.5236 
L 109.696384 76.720751 
L 115.269926 71.6344 
L 125.46048 62.330252 
L 129.400673 58.7452 
L 141.224576 47.981176 
L 143.567497 45.856 
L 141.224576 45.856 
L 128.477806 45.856 
L 125.46048 48.601903 
L 114.353361 58.7452 
L 109.696384 62.995565 
L 100.262704 71.6344 
L 93.932288 77.428338 
L 86.204882 84.5236 
L 78.168192 91.899237 
L 72.178948 97.4128 
L 62.404096 106.407265 
L 58.183963 110.302 
L 46.64 120.951418 
L 46.64 123.1912 
L 46.64 134.676505 
z
" clip-path="url(#pb6d22ad0a4)" style="fill: #38b977"/>
    <path d="M 314.629632 303.64 
L 319.763665 303.64 
L 330.393728 294.081749 
L 334.098737 290.7508 
L 346.157824 279.895388 
L 348.417602 277.8616 
L 361.92192 265.691335 
L 361.92192 264.9724 
L 361.92192 252.0832 
L 361.92192 249.167268 
L 358.690937 252.0832 
L 346.157824 263.376119 
L 344.386742 264.9724 
L 330.393728 277.565431 
L 330.064699 277.8616 
L 315.734294 290.7508 
L 314.629632 291.743273 
L 301.38933 303.64 
z
M 58.183963 110.302 
L 62.404096 106.407265 
L 72.178948 97.4128 
L 78.168192 91.899237 
L 86.204882 84.5236 
L 93.932288 77.428338 
L 100.262704 71.6344 
L 109.696384 62.995565 
L 114.353361 58.7452 
L 125.46048 48.601903 
L 128.477806 45.856 
L 125.46048 45.856 
L 113.48081 45.856 
L 109.696384 49.310852 
L 99.397021 58.7452 
L 93.932288 63.747716 
L 85.34501 71.6344 
L 78.168192 78.221663 
L 71.323861 84.5236 
L 62.404096 92.731731 
L 57.332666 97.4128 
L 46.64 107.276953 
L 46.64 110.302 
L 46.64 120.951418 
z
" clip-path="url(#pb6d22ad0a4)" style="fill: #50c46a"/>
    <path d="M 330.393728 303.64 
L 338.314451 303.64 
L 346.157824 296.582669 
L 352.640446 290.7508 
L 361.92192 282.390559 
L 361.92192 277.8616 
L 361.92192 265.691335 
L 348.417602 277.8616 
L 346.157824 279.895388 
L 334.098737 290.7508 
L 330.393728 294.081749 
L 319.763665 303.64 
z
M 57.332666 97.4128 
L 62.404096 92.731731 
L 71.323861 84.5236 
L 78.168192 78.221663 
L 85.34501 71.6344 
L 93.932288 63.747716 
L 99.397021 58.7452 
L 109.696384 49.310852 
L 113.48081 45.856 
L 109.696384 45.856 
L 98.572019 45.856 
L 93.932288 50.10463 
L 84.527641 58.7452 
L 78.168192 64.58377 
L 70.513252 71.6344 
L 62.404096 79.098192 
L 56.527968 84.5236 
L 46.64 93.646957 
L 46.64 97.4128 
L 46.64 107.276953 
z
" clip-path="url(#pb6d22ad0a4)" style="fill: #6ccd5a"/>
    <path d="M 346.157824 303.64 
L 357.047323 303.64 
L 361.92192 299.251055 
L 361.92192 290.7508 
L 361.92192 282.390559 
L 352.640446 290.7508 
L 346.157824 296.582669 
L 338.314451 303.64 
z
M 56.527968 84.5236 
L 62.404096 79.098192 
L 70.513252 71.6344 
L 78.168192 64.58377 
L 84.527641 58.7452 
L 93.932288 50.10463 
L 98.572019 45.856 
L 93.932288 45.856 
L 83.747569 45.856 
L 78.168192 50.980405 
L 69.741722 58.7452 
L 62.404096 65.50125 
L 55.764252 71.6344 
L 46.64 80.055761 
L 46.64 84.5236 
L 46.64 93.646957 
z
" clip-path="url(#pb6d22ad0a4)" style="fill: #8bd646"/>
    <path d="M 361.92192 303.64 
L 361.92192 299.251055 
L 357.047323 303.64 
z
M 55.764252 71.6344 
L 62.404096 65.50125 
L 69.741722 58.7452 
L 78.168192 50.980405 
L 83.747569 45.856 
L 78.168192 45.856 
L 69.004055 45.856 
L 62.404096 51.935769 
L 55.036142 58.7452 
L 46.64 66.498029 
L 46.64 71.6344 
L 46.64 80.055761 
z
" clip-path="url(#pb6d22ad0a4)" style="fill: #aadc32"/>
    <path d="M 55.036142 58.7452 
L 62.404096 51.935769 
L 69.004055 45.856 
L 62.404096 45.856 
L 54.338423 45.856 
L 46.64 52.968649 
L 46.64 58.7452 
L 46.64 66.498029 
z
" clip-path="url(#pb6d22ad0a4)" style="fill: #cde11d"/>
    <path d="M 54.338423 45.856 
L 46.64 45.856 
L 46.64 52.968649 
z
" clip-path="url(#pb6d22ad0a4)" style="fill: #efe51c"/>
   </g>
   <g id="PathCollection_1">
    <defs>
     <path id="mffd0c7322c" d="M 0 3 
C 0.795609 3 1.55874 2.683901 2.12132 2.12132 
C 2.683901 1.55874 3 0.795609 3 0 
C 3 -0.795609 2.683901 -1.55874 2.12132 -2.12132 
C 1.55874 -2.683901 0.795609 -3 0 -3 
C -0.795609 -3 -1.55874 -2.683901 -2.12132 -2.12132 
C -2.683901 -1.55874 -3 -0.795609 -3 0 
C -3 0.795609 -2.683901 1.55874 -2.12132 2.12132 
C -1.55874 2.683901 -0.795609 3 0 3 
z
" style="stroke: #ff0000"/>
    </defs>
    <g clip-path="url(#pb6d22ad0a4)">
     <use xlink:href="#mffd0c7322c" x="290.983488" y="190.8595" style="fill: #ff0000; stroke: #ff0000"/>
    </g>
   </g>
   <g id="matplotlib.axis_1">
    <g id="xtick_1">
     <g id="line2d_1">
      <defs>
       <path id="m1751b8c148" d="M 0 0 
L 0 3.5 
" style="stroke: #000000; stroke-width: 0.8"/>
      </defs>
      <g>
       <use xlink:href="#m1751b8c148" x="46.64" y="303.64" style="stroke: #000000; stroke-width: 0.8"/>
      </g>
     </g>
     <g id="text_1">
      <!-- −4 -->
      <g transform="translate(39.268906 318.238437) scale(0.1 -0.1)">
       <defs>
        <path id="DejaVuSans-2212" d="M 678 2272 
L 4684 2272 
L 4684 1741 
L 678 1741 
L 678 2272 
z
" transform="scale(0.015625)"/>
        <path id="DejaVuSans-34" d="M 2419 4116 
L 825 1625 
L 2419 1625 
L 2419 4116 
z
M 2253 4666 
L 3047 4666 
L 3047 1625 
L 3713 1625 
L 3713 1100 
L 3047 1100 
L 3047 0 
L 2419 0 
L 2419 1100 
L 313 1100 
L 313 1709 
L 2253 4666 
z
" transform="scale(0.015625)"/>
       </defs>
       <use xlink:href="#DejaVuSans-2212"/>
       <use xlink:href="#DejaVuSans-34" transform="translate(83.789062 0)"/>
      </g>
     </g>
    </g>
    <g id="xtick_2">
     <g id="line2d_2">
      <g>
       <use xlink:href="#m1751b8c148" x="86.05024" y="303.64" style="stroke: #000000; stroke-width: 0.8"/>
      </g>
     </g>
     <g id="text_2">
      <!-- −3 -->
      <g transform="translate(78.679146 318.238437) scale(0.1 -0.1)">
       <defs>
        <path id="DejaVuSans-33" d="M 2597 2516 
Q 3050 2419 3304 2112 
Q 3559 1806 3559 1356 
Q 3559 666 3084 287 
Q 2609 -91 1734 -91 
Q 1441 -91 1130 -33 
Q 819 25 488 141 
L 488 750 
Q 750 597 1062 519 
Q 1375 441 1716 441 
Q 2309 441 2620 675 
Q 2931 909 2931 1356 
Q 2931 1769 2642 2001 
Q 2353 2234 1838 2234 
L 1294 2234 
L 1294 2753 
L 1863 2753 
Q 2328 2753 2575 2939 
Q 2822 3125 2822 3475 
Q 2822 3834 2567 4026 
Q 2313 4219 1838 4219 
Q 1578 4219 1281 4162 
Q 984 4106 628 3988 
L 628 4550 
Q 988 4650 1302 4700 
Q 1616 4750 1894 4750 
Q 2613 4750 3031 4423 
Q 3450 4097 3450 3541 
Q 3450 3153 3228 2886 
Q 3006 2619 2597 2516 
z
" transform="scale(0.015625)"/>
       </defs>
       <use xlink:href="#DejaVuSans-2212"/>
       <use xlink:href="#DejaVuSans-33" transform="translate(83.789062 0)"/>
      </g>
     </g>
    </g>
    <g id="xtick_3">
     <g id="line2d_3">
      <g>
       <use xlink:href="#m1751b8c148" x="125.46048" y="303.64" style="stroke: #000000; stroke-width: 0.8"/>
      </g>
     </g>
     <g id="text_3">
      <!-- −2 -->
      <g transform="translate(118.089386 318.238437) scale(0.1 -0.1)">
       <defs>
        <path id="DejaVuSans-32" d="M 1228 531 
L 3431 531 
L 3431 0 
L 469 0 
L 469 531 
Q 828 903 1448 1529 
Q 2069 2156 2228 2338 
Q 2531 2678 2651 2914 
Q 2772 3150 2772 3378 
Q 2772 3750 2511 3984 
Q 2250 4219 1831 4219 
Q 1534 4219 1204 4116 
Q 875 4013 500 3803 
L 500 4441 
Q 881 4594 1212 4672 
Q 1544 4750 1819 4750 
Q 2544 4750 2975 4387 
Q 3406 4025 3406 3419 
Q 3406 3131 3298 2873 
Q 3191 2616 2906 2266 
Q 2828 2175 2409 1742 
Q 1991 1309 1228 531 
z
" transform="scale(0.015625)"/>
       </defs>
       <use xlink:href="#DejaVuSans-2212"/>
       <use xlink:href="#DejaVuSans-32" transform="translate(83.789062 0)"/>
      </g>
     </g>
    </g>
    <g id="xtick_4">
     <g id="line2d_4">
      <g>
       <use xlink:href="#m1751b8c148" x="164.87072" y="303.64" style="stroke: #000000; stroke-width: 0.8"/>
      </g>
     </g>
     <g id="text_4">
      <!-- −1 -->
      <g transform="translate(157.499626 318.238437) scale(0.1 -0.1)">
       <defs>
        <path id="DejaVuSans-31" d="M 794 531 
L 1825 531 
L 1825 4091 
L 703 3866 
L 703 4441 
L 1819 4666 
L 2450 4666 
L 2450 531 
L 3481 531 
L 3481 0 
L 794 0 
L 794 531 
z
" transform="scale(0.015625)"/>
       </defs>
       <use xlink:href="#DejaVuSans-2212"/>
       <use xlink:href="#DejaVuSans-31" transform="translate(83.789062 0)"/>
      </g>
     </g>
    </g>
    <g id="xtick_5">
     <g id="line2d_5">
      <g>
       <use xlink:href="#m1751b8c148" x="204.28096" y="303.64" style="stroke: #000000; stroke-width: 0.8"/>
      </g>
     </g>
     <g id="text_5">
      <!-- 0 -->
      <g transform="translate(201.09971 318.238437) scale(0.1 -0.1)">
       <defs>
        <path id="DejaVuSans-30" d="M 2034 4250 
Q 1547 4250 1301 3770 
Q 1056 3291 1056 2328 
Q 1056 1369 1301 889 
Q 1547 409 2034 409 
Q 2525 409 2770 889 
Q 3016 1369 3016 2328 
Q 3016 3291 2770 3770 
Q 2525 4250 2034 4250 
z
M 2034 4750 
Q 2819 4750 3233 4129 
Q 3647 3509 3647 2328 
Q 3647 1150 3233 529 
Q 2819 -91 2034 -91 
Q 1250 -91 836 529 
Q 422 1150 422 2328 
Q 422 3509 836 4129 
Q 1250 4750 2034 4750 
z
" transform="scale(0.015625)"/>
       </defs>
       <use xlink:href="#DejaVuSans-30"/>
      </g>
     </g>
    </g>
    <g id="xtick_6">
     <g id="line2d_6">
      <g>
       <use xlink:href="#m1751b8c148" x="243.6912" y="303.64" style="stroke: #000000; stroke-width: 0.8"/>
      </g>
     </g>
     <g id="text_6">
      <!-- 1 -->
      <g transform="translate(240.50995 318.238437) scale(0.1 -0.1)">
       <use xlink:href="#DejaVuSans-31"/>
      </g>
     </g>
    </g>
    <g id="xtick_7">
     <g id="line2d_7">
      <g>
       <use xlink:href="#m1751b8c148" x="283.10144" y="303.64" style="stroke: #000000; stroke-width: 0.8"/>
      </g>
     </g>
     <g id="text_7">
      <!-- 2 -->
      <g transform="translate(279.92019 318.238437) scale(0.1 -0.1)">
       <use xlink:href="#DejaVuSans-32"/>
      </g>
     </g>
    </g>
    <g id="xtick_8">
     <g id="line2d_8">
      <g>
       <use xlink:href="#m1751b8c148" x="322.51168" y="303.64" style="stroke: #000000; stroke-width: 0.8"/>
      </g>
     </g>
     <g id="text_8">
      <!-- 3 -->
      <g transform="translate(319.33043 318.238437) scale(0.1 -0.1)">
       <use xlink:href="#DejaVuSans-33"/>
      </g>
     </g>
    </g>
    <g id="xtick_9">
     <g id="line2d_9">
      <g>
       <use xlink:href="#m1751b8c148" x="361.92192" y="303.64" style="stroke: #000000; stroke-width: 0.8"/>
      </g>
     </g>
     <g id="text_9">
      <!-- 4 -->
      <g transform="translate(358.74067 318.238437) scale(0.1 -0.1)">
       <use xlink:href="#DejaVuSans-34"/>
      </g>
     </g>
    </g>
    <g id="text_10">
     <!-- Relative distance in first direction -->
     <g transform="translate(120.33721 331.916562) scale(0.1 -0.1)">
      <defs>
       <path id="DejaVuSans-52" d="M 2841 2188 
Q 3044 2119 3236 1894 
Q 3428 1669 3622 1275 
L 4263 0 
L 3584 0 
L 2988 1197 
Q 2756 1666 2539 1819 
Q 2322 1972 1947 1972 
L 1259 1972 
L 1259 0 
L 628 0 
L 628 4666 
L 2053 4666 
Q 2853 4666 3247 4331 
Q 3641 3997 3641 3322 
Q 3641 2881 3436 2590 
Q 3231 2300 2841 2188 
z
M 1259 4147 
L 1259 2491 
L 2053 2491 
Q 2509 2491 2742 2702 
Q 2975 2913 2975 3322 
Q 2975 3731 2742 3939 
Q 2509 4147 2053 4147 
L 1259 4147 
z
" transform="scale(0.015625)"/>
       <path id="DejaVuSans-65" d="M 3597 1894 
L 3597 1613 
L 953 1613 
Q 991 1019 1311 708 
Q 1631 397 2203 397 
Q 2534 397 2845 478 
Q 3156 559 3463 722 
L 3463 178 
Q 3153 47 2828 -22 
Q 2503 -91 2169 -91 
Q 1331 -91 842 396 
Q 353 884 353 1716 
Q 353 2575 817 3079 
Q 1281 3584 2069 3584 
Q 2775 3584 3186 3129 
Q 3597 2675 3597 1894 
z
M 3022 2063 
Q 3016 2534 2758 2815 
Q 2500 3097 2075 3097 
Q 1594 3097 1305 2825 
Q 1016 2553 972 2059 
L 3022 2063 
z
" transform="scale(0.015625)"/>
       <path id="DejaVuSans-6c" d="M 603 4863 
L 1178 4863 
L 1178 0 
L 603 0 
L 603 4863 
z
" transform="scale(0.015625)"/>
       <path id="DejaVuSans-61" d="M 2194 1759 
Q 1497 1759 1228 1600 
Q 959 1441 959 1056 
Q 959 750 1161 570 
Q 1363 391 1709 391 
Q 2188 391 2477 730 
Q 2766 1069 2766 1631 
L 2766 1759 
L 2194 1759 
z
M 3341 1997 
L 3341 0 
L 2766 0 
L 2766 531 
Q 2569 213 2275 61 
Q 1981 -91 1556 -91 
Q 1019 -91 701 211 
Q 384 513 384 1019 
Q 384 1609 779 1909 
Q 1175 2209 1959 2209 
L 2766 2209 
L 2766 2266 
Q 2766 2663 2505 2880 
Q 2244 3097 1772 3097 
Q 1472 3097 1187 3025 
Q 903 2953 641 2809 
L 641 3341 
Q 956 3463 1253 3523 
Q 1550 3584 1831 3584 
Q 2591 3584 2966 3190 
Q 3341 2797 3341 1997 
z
" transform="scale(0.015625)"/>
       <path id="DejaVuSans-74" d="M 1172 4494 
L 1172 3500 
L 2356 3500 
L 2356 3053 
L 1172 3053 
L 1172 1153 
Q 1172 725 1289 603 
Q 1406 481 1766 481 
L 2356 481 
L 2356 0 
L 1766 0 
Q 1100 0 847 248 
Q 594 497 594 1153 
L 594 3053 
L 172 3053 
L 172 3500 
L 594 3500 
L 594 4494 
L 1172 4494 
z
" transform="scale(0.015625)"/>
       <path id="DejaVuSans-69" d="M 603 3500 
L 1178 3500 
L 1178 0 
L 603 0 
L 603 3500 
z
M 603 4863 
L 1178 4863 
L 1178 4134 
L 603 4134 
L 603 4863 
z
" transform="scale(0.015625)"/>
       <path id="DejaVuSans-76" d="M 191 3500 
L 800 3500 
L 1894 563 
L 2988 3500 
L 3597 3500 
L 2284 0 
L 1503 0 
L 191 3500 
z
" transform="scale(0.015625)"/>
       <path id="DejaVuSans-20" transform="scale(0.015625)"/>
       <path id="DejaVuSans-64" d="M 2906 2969 
L 2906 4863 
L 3481 4863 
L 3481 0 
L 2906 0 
L 2906 525 
Q 2725 213 2448 61 
Q 2172 -91 1784 -91 
Q 1150 -91 751 415 
Q 353 922 353 1747 
Q 353 2572 751 3078 
Q 1150 3584 1784 3584 
Q 2172 3584 2448 3432 
Q 2725 3281 2906 2969 
z
M 947 1747 
Q 947 1113 1208 752 
Q 1469 391 1925 391 
Q 2381 391 2643 752 
Q 2906 1113 2906 1747 
Q 2906 2381 2643 2742 
Q 2381 3103 1925 3103 
Q 1469 3103 1208 2742 
Q 947 2381 947 1747 
z
" transform="scale(0.015625)"/>
       <path id="DejaVuSans-73" d="M 2834 3397 
L 2834 2853 
Q 2591 2978 2328 3040 
Q 2066 3103 1784 3103 
Q 1356 3103 1142 2972 
Q 928 2841 928 2578 
Q 928 2378 1081 2264 
Q 1234 2150 1697 2047 
L 1894 2003 
Q 2506 1872 2764 1633 
Q 3022 1394 3022 966 
Q 3022 478 2636 193 
Q 2250 -91 1575 -91 
Q 1294 -91 989 -36 
Q 684 19 347 128 
L 347 722 
Q 666 556 975 473 
Q 1284 391 1588 391 
Q 1994 391 2212 530 
Q 2431 669 2431 922 
Q 2431 1156 2273 1281 
Q 2116 1406 1581 1522 
L 1381 1569 
Q 847 1681 609 1914 
Q 372 2147 372 2553 
Q 372 3047 722 3315 
Q 1072 3584 1716 3584 
Q 2034 3584 2315 3537 
Q 2597 3491 2834 3397 
z
" transform="scale(0.015625)"/>
       <path id="DejaVuSans-6e" d="M 3513 2113 
L 3513 0 
L 2938 0 
L 2938 2094 
Q 2938 2591 2744 2837 
Q 2550 3084 2163 3084 
Q 1697 3084 1428 2787 
Q 1159 2491 1159 1978 
L 1159 0 
L 581 0 
L 581 3500 
L 1159 3500 
L 1159 2956 
Q 1366 3272 1645 3428 
Q 1925 3584 2291 3584 
Q 2894 3584 3203 3211 
Q 3513 2838 3513 2113 
z
" transform="scale(0.015625)"/>
       <path id="DejaVuSans-63" d="M 3122 3366 
L 3122 2828 
Q 2878 2963 2633 3030 
Q 2388 3097 2138 3097 
Q 1578 3097 1268 2742 
Q 959 2388 959 1747 
Q 959 1106 1268 751 
Q 1578 397 2138 397 
Q 2388 397 2633 464 
Q 2878 531 3122 666 
L 3122 134 
Q 2881 22 2623 -34 
Q 2366 -91 2075 -91 
Q 1284 -91 818 406 
Q 353 903 353 1747 
Q 353 2603 823 3093 
Q 1294 3584 2113 3584 
Q 2378 3584 2631 3529 
Q 2884 3475 3122 3366 
z
" transform="scale(0.015625)"/>
       <path id="DejaVuSans-66" d="M 2375 4863 
L 2375 4384 
L 1825 4384 
Q 1516 4384 1395 4259 
Q 1275 4134 1275 3809 
L 1275 3500 
L 2222 3500 
L 2222 3053 
L 1275 3053 
L 1275 0 
L 697 0 
L 697 3053 
L 147 3053 
L 147 3500 
L 697 3500 
L 697 3744 
Q 697 4328 969 4595 
Q 1241 4863 1831 4863 
L 2375 4863 
z
" transform="scale(0.015625)"/>
       <path id="DejaVuSans-72" d="M 2631 2963 
Q 2534 3019 2420 3045 
Q 2306 3072 2169 3072 
Q 1681 3072 1420 2755 
Q 1159 2438 1159 1844 
L 1159 0 
L 581 0 
L 581 3500 
L 1159 3500 
L 1159 2956 
Q 1341 3275 1631 3429 
Q 1922 3584 2338 3584 
Q 2397 3584 2469 3576 
Q 2541 3569 2628 3553 
L 2631 2963 
z
" transform="scale(0.015625)"/>
       <path id="DejaVuSans-6f" d="M 1959 3097 
Q 1497 3097 1228 2736 
Q 959 2375 959 1747 
Q 959 1119 1226 758 
Q 1494 397 1959 397 
Q 2419 397 2687 759 
Q 2956 1122 2956 1747 
Q 2956 2369 2687 2733 
Q 2419 3097 1959 3097 
z
M 1959 3584 
Q 2709 3584 3137 3096 
Q 3566 2609 3566 1747 
Q 3566 888 3137 398 
Q 2709 -91 1959 -91 
Q 1206 -91 779 398 
Q 353 888 353 1747 
Q 353 2609 779 3096 
Q 1206 3584 1959 3584 
z
" transform="scale(0.015625)"/>
      </defs>
      <use xlink:href="#DejaVuSans-52"/>
      <use xlink:href="#DejaVuSans-65" transform="translate(64.982422 0)"/>
      <use xlink:href="#DejaVuSans-6c" transform="translate(126.505859 0)"/>
      <use xlink:href="#DejaVuSans-61" transform="translate(154.289062 0)"/>
      <use xlink:href="#DejaVuSans-74" transform="translate(215.568359 0)"/>
      <use xlink:href="#DejaVuSans-69" transform="translate(254.777344 0)"/>
      <use xlink:href="#DejaVuSans-76" transform="translate(282.560547 0)"/>
      <use xlink:href="#DejaVuSans-65" transform="translate(341.740234 0)"/>
      <use xlink:href="#DejaVuSans-20" transform="translate(403.263672 0)"/>
      <use xlink:href="#DejaVuSans-64" transform="translate(435.050781 0)"/>
      <use xlink:href="#DejaVuSans-69" transform="translate(498.527344 0)"/>
      <use xlink:href="#DejaVuSans-73" transform="translate(526.310547 0)"/>
      <use xlink:href="#DejaVuSans-74" transform="translate(578.410156 0)"/>
      <use xlink:href="#DejaVuSans-61" transform="translate(617.619141 0)"/>
      <use xlink:href="#DejaVuSans-6e" transform="translate(678.898438 0)"/>
      <use xlink:href="#DejaVuSans-63" transform="translate(742.277344 0)"/>
      <use xlink:href="#DejaVuSans-65" transform="translate(797.257812 0)"/>
      <use xlink:href="#DejaVuSans-20" transform="translate(858.78125 0)"/>
      <use xlink:href="#DejaVuSans-69" transform="translate(890.568359 0)"/>
      <use xlink:href="#DejaVuSans-6e" transform="translate(918.351562 0)"/>
      <use xlink:href="#DejaVuSans-20" transform="translate(981.730469 0)"/>
      <use xlink:href="#DejaVuSans-66" transform="translate(1013.517578 0)"/>
      <use xlink:href="#DejaVuSans-69" transform="translate(1048.722656 0)"/>
      <use xlink:href="#DejaVuSans-72" transform="translate(1076.505859 0)"/>
      <use xlink:href="#DejaVuSans-73" transform="translate(1117.619141 0)"/>
      <use xlink:href="#DejaVuSans-74" transform="translate(1169.71875 0)"/>
      <use xlink:href="#DejaVuSans-20" transform="translate(1208.927734 0)"/>
      <use xlink:href="#DejaVuSans-64" transform="translate(1240.714844 0)"/>
      <use xlink:href="#DejaVuSans-69" transform="translate(1304.191406 0)"/>
      <use xlink:href="#DejaVuSans-72" transform="translate(1331.974609 0)"/>
      <use xlink:href="#DejaVuSans-65" transform="translate(1370.837891 0)"/>
      <use xlink:href="#DejaVuSans-63" transform="translate(1432.361328 0)"/>
      <use xlink:href="#DejaVuSans-74" transform="translate(1487.341797 0)"/>
      <use xlink:href="#DejaVuSans-69" transform="translate(1526.550781 0)"/>
      <use xlink:href="#DejaVuSans-6f" transform="translate(1554.333984 0)"/>
      <use xlink:href="#DejaVuSans-6e" transform="translate(1615.515625 0)"/>
     </g>
    </g>
   </g>
   <g id="matplotlib.axis_2">
    <g id="ytick_1">
     <g id="line2d_10">
      <defs>
       <path id="mc7487186d3" d="M 0 0 
L -3.5 0 
" style="stroke: #000000; stroke-width: 0.8"/>
      </defs>
      <g>
       <use xlink:href="#mc7487186d3" x="46.64" y="303.64" style="stroke: #000000; stroke-width: 0.8"/>
      </g>
     </g>
     <g id="text_11">
      <!-- −4 -->
      <g transform="translate(24.897813 307.439219) scale(0.1 -0.1)">
       <use xlink:href="#DejaVuSans-2212"/>
       <use xlink:href="#DejaVuSans-34" transform="translate(83.789062 0)"/>
      </g>
     </g>
    </g>
    <g id="ytick_2">
     <g id="line2d_11">
      <g>
       <use xlink:href="#mc7487186d3" x="46.64" y="271.417" style="stroke: #000000; stroke-width: 0.8"/>
      </g>
     </g>
     <g id="text_12">
      <!-- −3 -->
      <g transform="translate(24.897813 275.216219) scale(0.1 -0.1)">
       <use xlink:href="#DejaVuSans-2212"/>
       <use xlink:href="#DejaVuSans-33" transform="translate(83.789062 0)"/>
      </g>
     </g>
    </g>
    <g id="ytick_3">
     <g id="line2d_12">
      <g>
       <use xlink:href="#mc7487186d3" x="46.64" y="239.194" style="stroke: #000000; stroke-width: 0.8"/>
      </g>
     </g>
     <g id="text_13">
      <!-- −2 -->
      <g transform="translate(24.897813 242.993219) scale(0.1 -0.1)">
       <use xlink:href="#DejaVuSans-2212"/>
       <use xlink:href="#DejaVuSans-32" transform="translate(83.789062 0)"/>
      </g>
     </g>
    </g>
    <g id="ytick_4">
     <g id="line2d_13">
      <g>
       <use xlink:href="#mc7487186d3" x="46.64" y="206.971" style="stroke: #000000; stroke-width: 0.8"/>
      </g>
     </g>
     <g id="text_14">
      <!-- −1 -->
      <g transform="translate(24.897813 210.770219) scale(0.1 -0.1)">
       <use xlink:href="#DejaVuSans-2212"/>
       <use xlink:href="#DejaVuSans-31" transform="translate(83.789062 0)"/>
      </g>
     </g>
    </g>
    <g id="ytick_5">
     <g id="line2d_14">
      <g>
       <use xlink:href="#mc7487186d3" x="46.64" y="174.748" style="stroke: #000000; stroke-width: 0.8"/>
      </g>
     </g>
     <g id="text_15">
      <!-- 0 -->
      <g transform="translate(33.2775 178.547219) scale(0.1 -0.1)">
       <use xlink:href="#DejaVuSans-30"/>
      </g>
     </g>
    </g>
    <g id="ytick_6">
     <g id="line2d_15">
      <g>
       <use xlink:href="#mc7487186d3" x="46.64" y="142.525" style="stroke: #000000; stroke-width: 0.8"/>
      </g>
     </g>
     <g id="text_16">
      <!-- 1 -->
      <g transform="translate(33.2775 146.324219) scale(0.1 -0.1)">
       <use xlink:href="#DejaVuSans-31"/>
      </g>
     </g>
    </g>
    <g id="ytick_7">
     <g id="line2d_16">
      <g>
       <use xlink:href="#mc7487186d3" x="46.64" y="110.302" style="stroke: #000000; stroke-width: 0.8"/>
      </g>
     </g>
     <g id="text_17">
      <!-- 2 -->
      <g transform="translate(33.2775 114.101219) scale(0.1 -0.1)">
       <use xlink:href="#DejaVuSans-32"/>
      </g>
     </g>
    </g>
    <g id="ytick_8">
     <g id="line2d_17">
      <g>
       <use xlink:href="#mc7487186d3" x="46.64" y="78.079" style="stroke: #000000; stroke-width: 0.8"/>
      </g>
     </g>
     <g id="text_18">
      <!-- 3 -->
      <g transform="translate(33.2775 81.878219) scale(0.1 -0.1)">
       <use xlink:href="#DejaVuSans-33"/>
      </g>
     </g>
    </g>
    <g id="ytick_9">
     <g id="line2d_18">
      <g>
       <use xlink:href="#mc7487186d3" x="46.64" y="45.856" style="stroke: #000000; stroke-width: 0.8"/>
      </g>
     </g>
     <g id="text_19">
      <!-- 4 -->
      <g transform="translate(33.2775 49.655219) scale(0.1 -0.1)">
       <use xlink:href="#DejaVuSans-34"/>
      </g>
     </g>
    </g>
    <g id="text_20">
     <!-- Relative distance in second direction -->
     <g transform="translate(18.818125 266.755031) rotate(-90) scale(0.1 -0.1)">
      <use xlink:href="#DejaVuSans-52"/>
      <use xlink:href="#DejaVuSans-65" transform="translate(64.982422 0)"/>
      <use xlink:href="#DejaVuSans-6c" transform="translate(126.505859 0)"/>
      <use xlink:href="#DejaVuSans-61" transform="translate(154.289062 0)"/>
      <use xlink:href="#DejaVuSans-74" transform="translate(215.568359 0)"/>
      <use xlink:href="#DejaVuSans-69" transform="translate(254.777344 0)"/>
      <use xlink:href="#DejaVuSans-76" transform="translate(282.560547 0)"/>
      <use xlink:href="#DejaVuSans-65" transform="translate(341.740234 0)"/>
      <use xlink:href="#DejaVuSans-20" transform="translate(403.263672 0)"/>
      <use xlink:href="#DejaVuSans-64" transform="translate(435.050781 0)"/>
      <use xlink:href="#DejaVuSans-69" transform="translate(498.527344 0)"/>
      <use xlink:href="#DejaVuSans-73" transform="translate(526.310547 0)"/>
      <use xlink:href="#DejaVuSans-74" transform="translate(578.410156 0)"/>
      <use xlink:href="#DejaVuSans-61" transform="translate(617.619141 0)"/>
      <use xlink:href="#DejaVuSans-6e" transform="translate(678.898438 0)"/>
      <use xlink:href="#DejaVuSans-63" transform="translate(742.277344 0)"/>
      <use xlink:href="#DejaVuSans-65" transform="translate(797.257812 0)"/>
      <use xlink:href="#DejaVuSans-20" transform="translate(858.78125 0)"/>
      <use xlink:href="#DejaVuSans-69" transform="translate(890.568359 0)"/>
      <use xlink:href="#DejaVuSans-6e" transform="translate(918.351562 0)"/>
      <use xlink:href="#DejaVuSans-20" transform="translate(981.730469 0)"/>
      <use xlink:href="#DejaVuSans-73" transform="translate(1013.517578 0)"/>
      <use xlink:href="#DejaVuSans-65" transform="translate(1065.617188 0)"/>
      <use xlink:href="#DejaVuSans-63" transform="translate(1127.140625 0)"/>
      <use xlink:href="#DejaVuSans-6f" transform="translate(1182.121094 0)"/>
      <use xlink:href="#DejaVuSans-6e" transform="translate(1243.302734 0)"/>
      <use xlink:href="#DejaVuSans-64" transform="translate(1306.681641 0)"/>
      <use xlink:href="#DejaVuSans-20" transform="translate(1370.158203 0)"/>
      <use xlink:href="#DejaVuSans-64" transform="translate(1401.945312 0)"/>
      <use xlink:href="#DejaVuSans-69" transform="translate(1465.421875 0)"/>
      <use xlink:href="#DejaVuSans-72" transform="translate(1493.205078 0)"/>
      <use xlink:href="#DejaVuSans-65" transform="translate(1532.068359 0)"/>
      <use xlink:href="#DejaVuSans-63" transform="translate(1593.591797 0)"/>
      <use xlink:href="#DejaVuSans-74" transform="translate(1648.572266 0)"/>
      <use xlink:href="#DejaVuSans-69" transform="translate(1687.78125 0)"/>
      <use xlink:href="#DejaVuSans-6f" transform="translate(1715.564453 0)"/>
      <use xlink:href="#DejaVuSans-6e" transform="translate(1776.746094 0)"/>
     </g>
    </g>
   </g>
   <g id="line2d_19">
    <path d="M 290.983488 190.8595 
L 292.009036 189.282148 
L 293.126795 187.29755 
L 293.752253 186.080151 
L 294.909154 183.735414 
L 295.127093 182.888562 
L 297.147898 177.499302 
L 297.095242 177.272006 
L 297.971249 175.182032 
L 298.052054 174.867643 
L 299.322523 172.407323 
L 300.266324 170.403779 
L 302.803644 165.756641 
L 302.970214 164.737022 
L 302.906009 164.185907 
L 303.003093 163.316427 
L 303.85508 161.142778 
L 305.442272 158.400929 
L 305.71549 157.716894 
L 306.645617 155.250116 
L 306.611606 155.078004 
L 307.261168 152.270674 
L 307.121441 152.181401 
L 305.435717 152.57246 
L 303.861666 153.097774 
L 302.259689 153.283811 
L 299.621254 154.466501 
L 299.241626 154.553727 
L 299.171845 153.821576 
L 299.473623 152.216159 
L 300.138174 150.287611 
L 300.093828 150.077542 
L 300.630749 148.605502 
L 302.276201 145.837919 
L 302.699077 144.463323 
L 302.743864 143.992228 
L 302.176096 143.82006 
L 301.555715 143.92395 
L 299.70834 144.07679 
L 298.203276 144.483989 
L 297.286898 144.449978 
L 297.133265 144.265892 
L 296.966989 144.255155 
L 296.275716 142.955211 
L 296.098656 142.812112 
L 295.886586 142.434255 
L 295.916385 141.935043 
L 294.717973 141.995351 
L 293.216834 142.228226 
L 291.000893 142.208437 
L 290.818425 142.020869 
L 290.743316 141.930484 
L 288.89506 142.251862 
L 287.450112 142.802644 
L 286.099194 143.376071 
L 285.433289 143.62138 
L 284.704474 143.770041 
L 282.327752 144.882087 
L 281.211281 145.280086 
L 276.849872 147.407812 
L 275.286435 147.960706 
L 273.849254 148.491319 
L 273.134178 148.722514 
L 272.753979 148.783358 
L 272.479326 148.757593 
L 271.436262 149.037701 
L 270.729026 148.855563 
L 270.143606 148.287671 
L 269.492851 148.10841 
L 269.09229 148.128725 
L 267.569811 147.632654 
L 264.571305 149.108689 
L 257.443549 153.206304 
L 255.967217 153.755994 
L 254.564096 153.946337 
L 254.213948 154.003321 
L 253.969967 153.981548 
L 251.792644 154.878074 
L 248.428111 156.793945 
L 247.042413 157.277109 
L 245.365443 157.990003 
L 244.941568 158.039307 
L 243.91782 157.965898 
L 243.580018 157.782398 
L 243.474816 157.684927 
L 243.166965 157.660378 
L 242.579339 157.896395 
L 241.374702 158.410526 
L 240.787177 158.490917 
L 240.508416 158.559924 
L 238.593456 159.403612 
L 237.197974 159.691745 
L 236.408131 160.062369 
L 234.429523 161.071374 
L 233.321839 161.655546 
L 230.540684 163.205469 
L 229.667367 163.473122 
L 228.97878 163.572656 
L 228.778263 163.503592 
L 228.563277 163.332168 
L 228.227605 163.273082 
L 227.277653 163.353245 
L 226.775413 163.455324 
L 224.02848 164.618679 
L 221.920623 165.772998 
L 219.570235 166.627453 
L 219.189193 166.788607 
L 216.587571 168.112679 
L 215.810644 168.453385 
L 210.213828 171.302978 
L 207.673683 172.641413 
L 206.682534 173.247202 
L 204.340586 174.71036 
L 204.340586 174.71036 
" clip-path="url(#pb6d22ad0a4)" style="fill: none; stroke: #ff0000; stroke-width: 1.5; stroke-linecap: square"/>
   </g>
   <g id="patch_3">
    <path d="M 46.64 303.64 
L 46.64 45.856 
" style="fill: none; stroke: #000000; stroke-width: 0.8; stroke-linejoin: miter; stroke-linecap: square"/>
   </g>
   <g id="patch_4">
    <path d="M 361.92192 303.64 
L 361.92192 45.856 
" style="fill: none; stroke: #000000; stroke-width: 0.8; stroke-linejoin: miter; stroke-linecap: square"/>
   </g>
   <g id="patch_5">
    <path d="M 46.64 303.64 
L 361.92192 303.64 
" style="fill: none; stroke: #000000; stroke-width: 0.8; stroke-linejoin: miter; stroke-linecap: square"/>
   </g>
   <g id="patch_6">
    <path d="M 46.64 45.856 
L 361.92192 45.856 
" style="fill: none; stroke: #000000; stroke-width: 0.8; stroke-linejoin: miter; stroke-linecap: square"/>
   </g>
   <g id="text_21">
    <!-- Relative error across two random directions -->
    <g transform="translate(73.179085 22.418625) scale(0.12 -0.12)">
     <defs>
      <path id="DejaVuSans-77" d="M 269 3500 
L 844 3500 
L 1563 769 
L 2278 3500 
L 2956 3500 
L 3675 769 
L 4391 3500 
L 4966 3500 
L 4050 0 
L 3372 0 
L 2619 2869 
L 1863 0 
L 1184 0 
L 269 3500 
z
" transform="scale(0.015625)"/>
      <path id="DejaVuSans-6d" d="M 3328 2828 
Q 3544 3216 3844 3400 
Q 4144 3584 4550 3584 
Q 5097 3584 5394 3201 
Q 5691 2819 5691 2113 
L 5691 0 
L 5113 0 
L 5113 2094 
Q 5113 2597 4934 2840 
Q 4756 3084 4391 3084 
Q 3944 3084 3684 2787 
Q 3425 2491 3425 1978 
L 3425 0 
L 2847 0 
L 2847 2094 
Q 2847 2600 2669 2842 
Q 2491 3084 2119 3084 
Q 1678 3084 1418 2786 
Q 1159 2488 1159 1978 
L 1159 0 
L 581 0 
L 581 3500 
L 1159 3500 
L 1159 2956 
Q 1356 3278 1631 3431 
Q 1906 3584 2284 3584 
Q 2666 3584 2933 3390 
Q 3200 3197 3328 2828 
z
" transform="scale(0.015625)"/>
     </defs>
     <use xlink:href="#DejaVuSans-52"/>
     <use xlink:href="#DejaVuSans-65" transform="translate(64.982422 0)"/>
     <use xlink:href="#DejaVuSans-6c" transform="translate(126.505859 0)"/>
     <use xlink:href="#DejaVuSans-61" transform="translate(154.289062 0)"/>
     <use xlink:href="#DejaVuSans-74" transform="translate(215.568359 0)"/>
     <use xlink:href="#DejaVuSans-69" transform="translate(254.777344 0)"/>
     <use xlink:href="#DejaVuSans-76" transform="translate(282.560547 0)"/>
     <use xlink:href="#DejaVuSans-65" transform="translate(341.740234 0)"/>
     <use xlink:href="#DejaVuSans-20" transform="translate(403.263672 0)"/>
     <use xlink:href="#DejaVuSans-65" transform="translate(435.050781 0)"/>
     <use xlink:href="#DejaVuSans-72" transform="translate(496.574219 0)"/>
     <use xlink:href="#DejaVuSans-72" transform="translate(535.9375 0)"/>
     <use xlink:href="#DejaVuSans-6f" transform="translate(574.800781 0)"/>
     <use xlink:href="#DejaVuSans-72" transform="translate(635.982422 0)"/>
     <use xlink:href="#DejaVuSans-20" transform="translate(677.095703 0)"/>
     <use xlink:href="#DejaVuSans-61" transform="translate(708.882812 0)"/>
     <use xlink:href="#DejaVuSans-63" transform="translate(770.162109 0)"/>
     <use xlink:href="#DejaVuSans-72" transform="translate(825.142578 0)"/>
     <use xlink:href="#DejaVuSans-6f" transform="translate(864.005859 0)"/>
     <use xlink:href="#DejaVuSans-73" transform="translate(925.1875 0)"/>
     <use xlink:href="#DejaVuSans-73" transform="translate(977.287109 0)"/>
     <use xlink:href="#DejaVuSans-20" transform="translate(1029.386719 0)"/>
     <use xlink:href="#DejaVuSans-74" transform="translate(1061.173828 0)"/>
     <use xlink:href="#DejaVuSans-77" transform="translate(1100.382812 0)"/>
     <use xlink:href="#DejaVuSans-6f" transform="translate(1182.169922 0)"/>
     <use xlink:href="#DejaVuSans-20" transform="translate(1243.351562 0)"/>
     <use xlink:href="#DejaVuSans-72" transform="translate(1275.138672 0)"/>
     <use xlink:href="#DejaVuSans-61" transform="translate(1316.251953 0)"/>
     <use xlink:href="#DejaVuSans-6e" transform="translate(1377.53125 0)"/>
     <use xlink:href="#DejaVuSans-64" transform="translate(1440.910156 0)"/>
     <use xlink:href="#DejaVuSans-6f" transform="translate(1504.386719 0)"/>
     <use xlink:href="#DejaVuSans-6d" transform="translate(1565.568359 0)"/>
     <use xlink:href="#DejaVuSans-20" transform="translate(1662.980469 0)"/>
     <use xlink:href="#DejaVuSans-64" transform="translate(1694.767578 0)"/>
     <use xlink:href="#DejaVuSans-69" transform="translate(1758.244141 0)"/>
     <use xlink:href="#DejaVuSans-72" transform="translate(1786.027344 0)"/>
     <use xlink:href="#DejaVuSans-65" transform="translate(1824.890625 0)"/>
     <use xlink:href="#DejaVuSans-63" transform="translate(1886.414062 0)"/>
     <use xlink:href="#DejaVuSans-74" transform="translate(1941.394531 0)"/>
     <use xlink:href="#DejaVuSans-69" transform="translate(1980.603516 0)"/>
     <use xlink:href="#DejaVuSans-6f" transform="translate(2008.386719 0)"/>
     <use xlink:href="#DejaVuSans-6e" transform="translate(2069.568359 0)"/>
     <use xlink:href="#DejaVuSans-73" transform="translate(2132.947266 0)"/>
    </g>
    <!-- in unknown parameters -->
    <g transform="translate(132.93346 35.856) scale(0.12 -0.12)">
     <defs>
      <path id="DejaVuSans-75" d="M 544 1381 
L 544 3500 
L 1119 3500 
L 1119 1403 
Q 1119 906 1312 657 
Q 1506 409 1894 409 
Q 2359 409 2629 706 
Q 2900 1003 2900 1516 
L 2900 3500 
L 3475 3500 
L 3475 0 
L 2900 0 
L 2900 538 
Q 2691 219 2414 64 
Q 2138 -91 1772 -91 
Q 1169 -91 856 284 
Q 544 659 544 1381 
z
M 1991 3584 
L 1991 3584 
z
" transform="scale(0.015625)"/>
      <path id="DejaVuSans-6b" d="M 581 4863 
L 1159 4863 
L 1159 1991 
L 2875 3500 
L 3609 3500 
L 1753 1863 
L 3688 0 
L 2938 0 
L 1159 1709 
L 1159 0 
L 581 0 
L 581 4863 
z
" transform="scale(0.015625)"/>
      <path id="DejaVuSans-70" d="M 1159 525 
L 1159 -1331 
L 581 -1331 
L 581 3500 
L 1159 3500 
L 1159 2969 
Q 1341 3281 1617 3432 
Q 1894 3584 2278 3584 
Q 2916 3584 3314 3078 
Q 3713 2572 3713 1747 
Q 3713 922 3314 415 
Q 2916 -91 2278 -91 
Q 1894 -91 1617 61 
Q 1341 213 1159 525 
z
M 3116 1747 
Q 3116 2381 2855 2742 
Q 2594 3103 2138 3103 
Q 1681 3103 1420 2742 
Q 1159 2381 1159 1747 
Q 1159 1113 1420 752 
Q 1681 391 2138 391 
Q 2594 391 2855 752 
Q 3116 1113 3116 1747 
z
" transform="scale(0.015625)"/>
     </defs>
     <use xlink:href="#DejaVuSans-69"/>
     <use xlink:href="#DejaVuSans-6e" transform="translate(27.783203 0)"/>
     <use xlink:href="#DejaVuSans-20" transform="translate(91.162109 0)"/>
     <use xlink:href="#DejaVuSans-75" transform="translate(122.949219 0)"/>
     <use xlink:href="#DejaVuSans-6e" transform="translate(186.328125 0)"/>
     <use xlink:href="#DejaVuSans-6b" transform="translate(249.707031 0)"/>
     <use xlink:href="#DejaVuSans-6e" transform="translate(307.617188 0)"/>
     <use xlink:href="#DejaVuSans-6f" transform="translate(370.996094 0)"/>
     <use xlink:href="#DejaVuSans-77" transform="translate(432.177734 0)"/>
     <use xlink:href="#DejaVuSans-6e" transform="translate(513.964844 0)"/>
     <use xlink:href="#DejaVuSans-20" transform="translate(577.34375 0)"/>
     <use xlink:href="#DejaVuSans-70" transform="translate(609.130859 0)"/>
     <use xlink:href="#DejaVuSans-61" transform="translate(672.607422 0)"/>
     <use xlink:href="#DejaVuSans-72" transform="translate(733.886719 0)"/>
     <use xlink:href="#DejaVuSans-61" transform="translate(775 0)"/>
     <use xlink:href="#DejaVuSans-6d" transform="translate(836.279297 0)"/>
     <use xlink:href="#DejaVuSans-65" transform="translate(933.691406 0)"/>
     <use xlink:href="#DejaVuSans-74" transform="translate(995.214844 0)"/>
     <use xlink:href="#DejaVuSans-65" transform="translate(1034.423828 0)"/>
     <use xlink:href="#DejaVuSans-72" transform="translate(1095.947266 0)"/>
     <use xlink:href="#DejaVuSans-73" transform="translate(1137.060547 0)"/>
    </g>
   </g>
  </g>
  <g id="axes_2">
   <g id="patch_7">
    <path d="M 381.62704 303.64 
L 394.51624 303.64 
L 394.51624 45.856 
L 381.62704 45.856 
z
" style="fill: #ffffff"/>
   </g>
   <g id="QuadMesh_1">
    <path d="M 381.62704 303.64 
L 394.51624 303.64 
L 394.51624 290.7508 
L 381.62704 290.7508 
L 381.62704 303.64 
" clip-path="url(#p75572efa28)" style="fill: #460a5d"/>
    <path d="M 381.62704 290.7508 
L 394.51624 290.7508 
L 394.51624 277.8616 
L 381.62704 277.8616 
L 381.62704 290.7508 
" clip-path="url(#p75572efa28)" style="fill: #481c6e"/>
    <path d="M 381.62704 277.8616 
L 394.51624 277.8616 
L 394.51624 264.9724 
L 381.62704 264.9724 
L 381.62704 277.8616 
" clip-path="url(#p75572efa28)" style="fill: #472d7b"/>
    <path d="M 381.62704 264.9724 
L 394.51624 264.9724 
L 394.51624 252.0832 
L 381.62704 252.0832 
L 381.62704 264.9724 
" clip-path="url(#p75572efa28)" style="fill: #443b84"/>
    <path d="M 381.62704 252.0832 
L 394.51624 252.0832 
L 394.51624 239.194 
L 381.62704 239.194 
L 381.62704 252.0832 
" clip-path="url(#p75572efa28)" style="fill: #3e4a89"/>
    <path d="M 381.62704 239.194 
L 394.51624 239.194 
L 394.51624 226.3048 
L 381.62704 226.3048 
L 381.62704 239.194 
" clip-path="url(#p75572efa28)" style="fill: #38598c"/>
    <path d="M 381.62704 226.3048 
L 394.51624 226.3048 
L 394.51624 213.4156 
L 381.62704 213.4156 
L 381.62704 226.3048 
" clip-path="url(#p75572efa28)" style="fill: #31668e"/>
    <path d="M 381.62704 213.4156 
L 394.51624 213.4156 
L 394.51624 200.5264 
L 381.62704 200.5264 
L 381.62704 213.4156 
" clip-path="url(#p75572efa28)" style="fill: #2c728e"/>
    <path d="M 381.62704 200.5264 
L 394.51624 200.5264 
L 394.51624 187.6372 
L 381.62704 187.6372 
L 381.62704 200.5264 
" clip-path="url(#p75572efa28)" style="fill: #277e8e"/>
    <path d="M 381.62704 187.6372 
L 394.51624 187.6372 
L 394.51624 174.748 
L 381.62704 174.748 
L 381.62704 187.6372 
" clip-path="url(#p75572efa28)" style="fill: #238a8d"/>
    <path d="M 381.62704 174.748 
L 394.51624 174.748 
L 394.51624 161.8588 
L 381.62704 161.8588 
L 381.62704 174.748 
" clip-path="url(#p75572efa28)" style="fill: #1f968b"/>
    <path d="M 381.62704 161.8588 
L 394.51624 161.8588 
L 394.51624 148.9696 
L 381.62704 148.9696 
L 381.62704 161.8588 
" clip-path="url(#p75572efa28)" style="fill: #1fa287"/>
    <path d="M 381.62704 148.9696 
L 394.51624 148.9696 
L 394.51624 136.0804 
L 381.62704 136.0804 
L 381.62704 148.9696 
" clip-path="url(#p75572efa28)" style="fill: #28ae80"/>
    <path d="M 381.62704 136.0804 
L 394.51624 136.0804 
L 394.51624 123.1912 
L 381.62704 123.1912 
L 381.62704 136.0804 
" clip-path="url(#p75572efa28)" style="fill: #38b977"/>
    <path d="M 381.62704 123.1912 
L 394.51624 123.1912 
L 394.51624 110.302 
L 381.62704 110.302 
L 381.62704 123.1912 
" clip-path="url(#p75572efa28)" style="fill: #50c46a"/>
    <path d="M 381.62704 110.302 
L 394.51624 110.302 
L 394.51624 97.4128 
L 381.62704 97.4128 
L 381.62704 110.302 
" clip-path="url(#p75572efa28)" style="fill: #6ccd5a"/>
    <path d="M 381.62704 97.4128 
L 394.51624 97.4128 
L 394.51624 84.5236 
L 381.62704 84.5236 
L 381.62704 97.4128 
" clip-path="url(#p75572efa28)" style="fill: #8bd646"/>
    <path d="M 381.62704 84.5236 
L 394.51624 84.5236 
L 394.51624 71.6344 
L 381.62704 71.6344 
L 381.62704 84.5236 
" clip-path="url(#p75572efa28)" style="fill: #aadc32"/>
    <path d="M 381.62704 71.6344 
L 394.51624 71.6344 
L 394.51624 58.7452 
L 381.62704 58.7452 
L 381.62704 71.6344 
" clip-path="url(#p75572efa28)" style="fill: #cde11d"/>
    <path d="M 381.62704 58.7452 
L 394.51624 58.7452 
L 394.51624 45.856 
L 381.62704 45.856 
L 381.62704 58.7452 
" clip-path="url(#p75572efa28)" style="fill: #efe51c"/>
   </g>
   <g id="matplotlib.axis_3"/>
   <g id="matplotlib.axis_4">
    <g id="ytick_10">
     <g id="line2d_20">
      <defs>
       <path id="m331b97c7c7" d="M 0 0 
L 3.5 0 
" style="stroke: #000000; stroke-width: 0.8"/>
      </defs>
      <g>
       <use xlink:href="#m331b97c7c7" x="394.51624" y="303.64" style="stroke: #000000; stroke-width: 0.8"/>
      </g>
     </g>
     <g id="text_22">
      <!-- 0.000 -->
      <g transform="translate(401.51624 307.439219) scale(0.1 -0.1)">
       <defs>
        <path id="DejaVuSans-2e" d="M 684 794 
L 1344 794 
L 1344 0 
L 684 0 
L 684 794 
z
" transform="scale(0.015625)"/>
       </defs>
       <use xlink:href="#DejaVuSans-30"/>
       <use xlink:href="#DejaVuSans-2e" transform="translate(63.623047 0)"/>
       <use xlink:href="#DejaVuSans-30" transform="translate(95.410156 0)"/>
       <use xlink:href="#DejaVuSans-30" transform="translate(159.033203 0)"/>
       <use xlink:href="#DejaVuSans-30" transform="translate(222.65625 0)"/>
      </g>
     </g>
    </g>
    <g id="ytick_11">
     <g id="line2d_21">
      <g>
       <use xlink:href="#m331b97c7c7" x="394.51624" y="264.9724" style="stroke: #000000; stroke-width: 0.8"/>
      </g>
     </g>
     <g id="text_23">
      <!-- 0.015 -->
      <g transform="translate(401.51624 268.771619) scale(0.1 -0.1)">
       <defs>
        <path id="DejaVuSans-35" d="M 691 4666 
L 3169 4666 
L 3169 4134 
L 1269 4134 
L 1269 2991 
Q 1406 3038 1543 3061 
Q 1681 3084 1819 3084 
Q 2600 3084 3056 2656 
Q 3513 2228 3513 1497 
Q 3513 744 3044 326 
Q 2575 -91 1722 -91 
Q 1428 -91 1123 -41 
Q 819 9 494 109 
L 494 744 
Q 775 591 1075 516 
Q 1375 441 1709 441 
Q 2250 441 2565 725 
Q 2881 1009 2881 1497 
Q 2881 1984 2565 2268 
Q 2250 2553 1709 2553 
Q 1456 2553 1204 2497 
Q 953 2441 691 2322 
L 691 4666 
z
" transform="scale(0.015625)"/>
       </defs>
       <use xlink:href="#DejaVuSans-30"/>
       <use xlink:href="#DejaVuSans-2e" transform="translate(63.623047 0)"/>
       <use xlink:href="#DejaVuSans-30" transform="translate(95.410156 0)"/>
       <use xlink:href="#DejaVuSans-31" transform="translate(159.033203 0)"/>
       <use xlink:href="#DejaVuSans-35" transform="translate(222.65625 0)"/>
      </g>
     </g>
    </g>
    <g id="ytick_12">
     <g id="line2d_22">
      <g>
       <use xlink:href="#m331b97c7c7" x="394.51624" y="226.3048" style="stroke: #000000; stroke-width: 0.8"/>
      </g>
     </g>
     <g id="text_24">
      <!-- 0.030 -->
      <g transform="translate(401.51624 230.104019) scale(0.1 -0.1)">
       <use xlink:href="#DejaVuSans-30"/>
       <use xlink:href="#DejaVuSans-2e" transform="translate(63.623047 0)"/>
       <use xlink:href="#DejaVuSans-30" transform="translate(95.410156 0)"/>
       <use xlink:href="#DejaVuSans-33" transform="translate(159.033203 0)"/>
       <use xlink:href="#DejaVuSans-30" transform="translate(222.65625 0)"/>
      </g>
     </g>
    </g>
    <g id="ytick_13">
     <g id="line2d_23">
      <g>
       <use xlink:href="#m331b97c7c7" x="394.51624" y="187.6372" style="stroke: #000000; stroke-width: 0.8"/>
      </g>
     </g>
     <g id="text_25">
      <!-- 0.045 -->
      <g transform="translate(401.51624 191.436419) scale(0.1 -0.1)">
       <use xlink:href="#DejaVuSans-30"/>
       <use xlink:href="#DejaVuSans-2e" transform="translate(63.623047 0)"/>
       <use xlink:href="#DejaVuSans-30" transform="translate(95.410156 0)"/>
       <use xlink:href="#DejaVuSans-34" transform="translate(159.033203 0)"/>
       <use xlink:href="#DejaVuSans-35" transform="translate(222.65625 0)"/>
      </g>
     </g>
    </g>
    <g id="ytick_14">
     <g id="line2d_24">
      <g>
       <use xlink:href="#m331b97c7c7" x="394.51624" y="148.9696" style="stroke: #000000; stroke-width: 0.8"/>
      </g>
     </g>
     <g id="text_26">
      <!-- 0.060 -->
      <g transform="translate(401.51624 152.768819) scale(0.1 -0.1)">
       <defs>
        <path id="DejaVuSans-36" d="M 2113 2584 
Q 1688 2584 1439 2293 
Q 1191 2003 1191 1497 
Q 1191 994 1439 701 
Q 1688 409 2113 409 
Q 2538 409 2786 701 
Q 3034 994 3034 1497 
Q 3034 2003 2786 2293 
Q 2538 2584 2113 2584 
z
M 3366 4563 
L 3366 3988 
Q 3128 4100 2886 4159 
Q 2644 4219 2406 4219 
Q 1781 4219 1451 3797 
Q 1122 3375 1075 2522 
Q 1259 2794 1537 2939 
Q 1816 3084 2150 3084 
Q 2853 3084 3261 2657 
Q 3669 2231 3669 1497 
Q 3669 778 3244 343 
Q 2819 -91 2113 -91 
Q 1303 -91 875 529 
Q 447 1150 447 2328 
Q 447 3434 972 4092 
Q 1497 4750 2381 4750 
Q 2619 4750 2861 4703 
Q 3103 4656 3366 4563 
z
" transform="scale(0.015625)"/>
       </defs>
       <use xlink:href="#DejaVuSans-30"/>
       <use xlink:href="#DejaVuSans-2e" transform="translate(63.623047 0)"/>
       <use xlink:href="#DejaVuSans-30" transform="translate(95.410156 0)"/>
       <use xlink:href="#DejaVuSans-36" transform="translate(159.033203 0)"/>
       <use xlink:href="#DejaVuSans-30" transform="translate(222.65625 0)"/>
      </g>
     </g>
    </g>
    <g id="ytick_15">
     <g id="line2d_25">
      <g>
       <use xlink:href="#m331b97c7c7" x="394.51624" y="110.302" style="stroke: #000000; stroke-width: 0.8"/>
      </g>
     </g>
     <g id="text_27">
      <!-- 0.075 -->
      <g transform="translate(401.51624 114.101219) scale(0.1 -0.1)">
       <defs>
        <path id="DejaVuSans-37" d="M 525 4666 
L 3525 4666 
L 3525 4397 
L 1831 0 
L 1172 0 
L 2766 4134 
L 525 4134 
L 525 4666 
z
" transform="scale(0.015625)"/>
       </defs>
       <use xlink:href="#DejaVuSans-30"/>
       <use xlink:href="#DejaVuSans-2e" transform="translate(63.623047 0)"/>
       <use xlink:href="#DejaVuSans-30" transform="translate(95.410156 0)"/>
       <use xlink:href="#DejaVuSans-37" transform="translate(159.033203 0)"/>
       <use xlink:href="#DejaVuSans-35" transform="translate(222.65625 0)"/>
      </g>
     </g>
    </g>
    <g id="ytick_16">
     <g id="line2d_26">
      <g>
       <use xlink:href="#m331b97c7c7" x="394.51624" y="71.6344" style="stroke: #000000; stroke-width: 0.8"/>
      </g>
     </g>
     <g id="text_28">
      <!-- 0.090 -->
      <g transform="translate(401.51624 75.433619) scale(0.1 -0.1)">
       <defs>
        <path id="DejaVuSans-39" d="M 703 97 
L 703 672 
Q 941 559 1184 500 
Q 1428 441 1663 441 
Q 2288 441 2617 861 
Q 2947 1281 2994 2138 
Q 2813 1869 2534 1725 
Q 2256 1581 1919 1581 
Q 1219 1581 811 2004 
Q 403 2428 403 3163 
Q 403 3881 828 4315 
Q 1253 4750 1959 4750 
Q 2769 4750 3195 4129 
Q 3622 3509 3622 2328 
Q 3622 1225 3098 567 
Q 2575 -91 1691 -91 
Q 1453 -91 1209 -44 
Q 966 3 703 97 
z
M 1959 2075 
Q 2384 2075 2632 2365 
Q 2881 2656 2881 3163 
Q 2881 3666 2632 3958 
Q 2384 4250 1959 4250 
Q 1534 4250 1286 3958 
Q 1038 3666 1038 3163 
Q 1038 2656 1286 2365 
Q 1534 2075 1959 2075 
z
" transform="scale(0.015625)"/>
       </defs>
       <use xlink:href="#DejaVuSans-30"/>
       <use xlink:href="#DejaVuSans-2e" transform="translate(63.623047 0)"/>
       <use xlink:href="#DejaVuSans-30" transform="translate(95.410156 0)"/>
       <use xlink:href="#DejaVuSans-39" transform="translate(159.033203 0)"/>
       <use xlink:href="#DejaVuSans-30" transform="translate(222.65625 0)"/>
      </g>
     </g>
    </g>
    <g id="text_29">
     <!-- Relative error -->
     <g transform="translate(441.742802 208.603469) rotate(-90) scale(0.1 -0.1)">
      <use xlink:href="#DejaVuSans-52"/>
      <use xlink:href="#DejaVuSans-65" transform="translate(64.982422 0)"/>
      <use xlink:href="#DejaVuSans-6c" transform="translate(126.505859 0)"/>
      <use xlink:href="#DejaVuSans-61" transform="translate(154.289062 0)"/>
      <use xlink:href="#DejaVuSans-74" transform="translate(215.568359 0)"/>
      <use xlink:href="#DejaVuSans-69" transform="translate(254.777344 0)"/>
      <use xlink:href="#DejaVuSans-76" transform="translate(282.560547 0)"/>
      <use xlink:href="#DejaVuSans-65" transform="translate(341.740234 0)"/>
      <use xlink:href="#DejaVuSans-20" transform="translate(403.263672 0)"/>
      <use xlink:href="#DejaVuSans-65" transform="translate(435.050781 0)"/>
      <use xlink:href="#DejaVuSans-72" transform="translate(496.574219 0)"/>
      <use xlink:href="#DejaVuSans-72" transform="translate(535.9375 0)"/>
      <use xlink:href="#DejaVuSans-6f" transform="translate(574.800781 0)"/>
      <use xlink:href="#DejaVuSans-72" transform="translate(635.982422 0)"/>
     </g>
    </g>
   </g>
   <g id="LineCollection_1"/>
   <g id="patch_8">
    <path d="M 381.62704 303.64 
L 388.07164 303.64 
L 394.51624 303.64 
L 394.51624 45.856 
L 388.07164 45.856 
L 381.62704 45.856 
L 381.62704 303.64 
z
" style="fill: none; stroke: #000000; stroke-width: 0.8; stroke-linejoin: miter; stroke-linecap: square"/>
   </g>
  </g>
 </g>
 <defs>
  <clipPath id="pb6d22ad0a4">
   <rect x="46.64" y="45.856" width="315.28192" height="257.784"/>
  </clipPath>
  <clipPath id="p75572efa28">
   <rect x="381.62704" y="45.856" width="12.8892" height="257.784"/>
  </clipPath>
 </defs>
</svg>
