<?xml version="1.0" encoding="utf-8" standalone="no"?>
<!DOCTYPE svg PUBLIC "-//W3C//DTD SVG 1.1//EN"
  "http://www.w3.org/Graphics/SVG/1.1/DTD/svg11.dtd">
<svg xmlns:xlink="http://www.w3.org/1999/xlink" width="460.8pt" height="345.6pt" viewBox="0 0 460.8 345.6" xmlns="http://www.w3.org/2000/svg" version="1.1">
 <metadata>
  <rdf:RDF xmlns:dc="http://purl.org/dc/elements/1.1/" xmlns:cc="http://creativecommons.org/ns#" xmlns:rdf="http://www.w3.org/1999/02/22-rdf-syntax-ns#">
   <cc:Work>
    <dc:type rdf:resource="http://purl.org/dc/dcmitype/StillImage"/>
    <dc:date>2025-10-15T22:43:34.617312</dc:date>
    <dc:format>image/svg+xml</dc:format>
    <dc:creator>
     <cc:Agent>
      <dc:title>Matplotlib v3.10.6, https://matplotlib.org/</dc:title>
     </cc:Agent>
    </dc:creator>
   </cc:Work>
  </rdf:RDF>
 </metadata>
 <defs>
  <style type="text/css">*{stroke-linejoin: round; stroke-linecap: butt}</style>
 </defs>
 <g id="figure_1">
  <g id="patch_1">
   <path d="M 0 345.6 
L 460.8 345.6 
L 460.8 0 
L 0 0 
z
" style="fill: #ffffff"/>
  </g>
  <g id="axes_1">
   <g id="patch_2">
    <path d="M 46.64 303.64 
L 361.84992 303.64 
L 361.84992 45.856 
L 46.64 45.856 
z
" style="fill: #ffffff"/>
   </g>
   <g id="QuadContourSet_1">
    <path d="M 204.24496 190.04723 
L 220.005456 196.043109 
L 222.876203 187.6372 
L 220.005456 181.555457 
L 216.95554 174.748 
L 206.602973 161.8588 
L 204.24496 159.32683 
L 188.484464 153.386214 
L 185.819142 161.8588 
L 188.484464 167.628652 
L 191.669448 174.748 
L 201.993744 187.6372 
z
" clip-path="url(#pf39014806b)" style="fill: #460a5d"/>
    <path d="M 220.005456 216.795077 
L 235.765952 220.672039 
L 242.310641 213.4156 
L 242.148198 200.5264 
L 237.509416 187.6372 
L 235.765952 184.60493 
L 230.289513 174.748 
L 221.081072 161.8588 
L 220.005456 160.526542 
L 209.419348 148.9696 
L 204.24496 143.666878 
L 193.681703 136.0804 
L 188.484464 132.030713 
L 172.723968 128.458802 
L 166.957166 136.0804 
L 167.170174 148.9696 
L 171.601484 161.8588 
L 172.723968 163.878151 
L 178.664272 174.748 
L 187.745259 187.6372 
L 188.484464 188.55978 
L 199.504586 200.5264 
L 204.24496 205.338 
L 215.587579 213.4156 
z
M 201.993744 187.6372 
L 191.669448 174.748 
L 188.484464 167.628652 
L 185.819142 161.8588 
L 188.484464 153.386214 
L 204.24496 159.32683 
L 206.602973 161.8588 
L 216.95554 174.748 
L 220.005456 181.555457 
L 222.876203 187.6372 
L 220.005456 196.043109 
L 204.24496 190.04723 
z
" clip-path="url(#pf39014806b)" style="fill: #481b6d"/>
    <path d="M 235.765952 241.464338 
L 251.526448 244.243809 
L 259.663379 239.194 
L 263.806113 226.3048 
L 261.755056 213.4156 
L 257.310877 200.5264 
L 251.526448 188.547247 
L 251.107372 187.6372 
L 243.499007 174.748 
L 235.765952 163.533035 
L 234.589807 161.8588 
L 224.346523 148.9696 
L 220.005456 143.919477 
L 212.416771 136.0804 
L 204.24496 127.910619 
L 198.209936 123.1912 
L 188.484464 115.252976 
L 179.110182 110.302 
L 172.723968 106.506707 
L 156.963472 104.431866 
L 150.162254 110.302 
L 146.869079 123.1912 
L 148.638224 136.0804 
L 152.747251 148.9696 
L 156.963472 158.120613 
L 158.63958 161.8588 
L 165.997344 174.748 
L 172.723968 184.769139 
L 174.714871 187.6372 
L 184.928777 200.5264 
L 188.484464 204.664434 
L 197.055428 213.4156 
L 204.24496 220.490349 
L 211.806562 226.3048 
L 220.005456 232.832866 
L 231.916823 239.194 
z
M 215.587579 213.4156 
L 204.24496 205.338 
L 199.504586 200.5264 
L 188.484464 188.55978 
L 187.745259 187.6372 
L 178.664272 174.748 
L 172.723968 163.878151 
L 171.601484 161.8588 
L 167.170174 148.9696 
L 166.957166 136.0804 
L 172.723968 128.458802 
L 188.484464 132.030713 
L 193.681703 136.0804 
L 204.24496 143.666878 
L 209.419348 148.9696 
L 220.005456 160.526542 
L 221.081072 161.8588 
L 230.289513 174.748 
L 235.765952 184.60493 
L 237.509416 187.6372 
L 242.148198 200.5264 
L 242.310641 213.4156 
L 235.765952 220.672039 
L 220.005456 216.795077 
z
" clip-path="url(#pf39014806b)" style="fill: #472a7a"/>
    <path d="M 251.526448 265.40657 
L 267.286944 267.607179 
L 274.165729 264.9724 
L 283.04744 255.472771 
L 284.176203 252.0832 
L 284.360663 239.194 
L 283.04744 233.012452 
L 281.660119 226.3048 
L 277.175572 213.4156 
L 271.472639 200.5264 
L 267.286944 192.737061 
L 264.628538 187.6372 
L 256.809719 174.748 
L 251.526448 166.970971 
L 248.039398 161.8588 
L 238.331576 148.9696 
L 235.765952 145.779209 
L 227.546631 136.0804 
L 220.005456 127.648619 
L 215.568141 123.1912 
L 204.24496 112.035914 
L 202.120812 110.302 
L 188.484464 98.868412 
L 186.140727 97.4128 
L 172.723968 88.429091 
L 163.436532 84.5236 
L 156.963472 81.470434 
L 141.202976 80.440512 
L 135.004453 84.5236 
L 128.030296 97.4128 
L 127.832488 110.302 
L 130.271374 123.1912 
L 134.254756 136.0804 
L 139.499073 148.9696 
L 141.202976 152.337907 
L 145.962487 161.8588 
L 153.434931 174.748 
L 156.963472 180.145138 
L 161.956775 187.6372 
L 171.517765 200.5264 
L 172.723968 202.043796 
L 182.383199 213.4156 
L 188.484464 220.192915 
L 194.67747 226.3048 
L 204.24496 235.526051 
L 208.846636 239.194 
L 220.005456 248.265957 
L 226.204055 252.0832 
L 235.765952 258.341329 
L 250.636752 264.9724 
z
M 231.916823 239.194 
L 220.005456 232.832866 
L 211.806562 226.3048 
L 204.24496 220.490349 
L 197.055428 213.4156 
L 188.484464 204.664434 
L 184.928777 200.5264 
L 174.714871 187.6372 
L 172.723968 184.769139 
L 165.997344 174.748 
L 158.63958 161.8588 
L 156.963472 158.120613 
L 152.747251 148.9696 
L 148.638224 136.0804 
L 146.869079 123.1912 
L 150.162254 110.302 
L 156.963472 104.431866 
L 172.723968 106.506707 
L 179.110182 110.302 
L 188.484464 115.252976 
L 198.209936 123.1912 
L 204.24496 127.910619 
L 212.416771 136.0804 
L 220.005456 143.919477 
L 224.346523 148.9696 
L 234.589807 161.8588 
L 235.765952 163.533035 
L 243.499007 174.748 
L 251.107372 187.6372 
L 251.526448 188.547247 
L 257.310877 200.5264 
L 261.755056 213.4156 
L 263.806113 226.3048 
L 259.663379 239.194 
L 251.526448 244.243809 
L 235.765952 241.464338 
z
" clip-path="url(#pf39014806b)" style="fill: #443983"/>
    <path d="M 283.04744 290.840962 
L 283.42021 290.7508 
L 298.807936 283.641061 
L 302.510182 277.8616 
L 305.206487 264.9724 
L 304.414769 252.0832 
L 301.583432 239.194 
L 298.807936 231.053011 
L 297.241166 226.3048 
L 291.763476 213.4156 
L 285.399546 200.5264 
L 283.04744 196.379593 
L 278.19655 187.6372 
L 270.228043 174.748 
L 267.286944 170.39117 
L 261.532286 161.8588 
L 252.094161 148.9696 
L 251.526448 148.234973 
L 241.877561 136.0804 
L 235.765952 128.787226 
L 230.811241 123.1912 
L 220.005456 111.433982 
L 218.860205 110.302 
L 205.673086 97.4128 
L 204.24496 96.027272 
L 190.765542 84.5236 
L 188.484464 82.549429 
L 173.363382 71.6344 
L 172.723968 71.154821 
L 156.963472 62.265298 
L 146.752597 58.7452 
L 141.202976 56.618754 
L 125.44248 56.406475 
L 121.204349 58.7452 
L 110.430943 71.6344 
L 109.681984 75.0982 
L 108.537132 84.5236 
L 109.361331 97.4128 
L 109.681984 98.931759 
L 112.090208 110.302 
L 116.004376 123.1912 
L 120.886967 136.0804 
L 125.44248 146.13105 
L 126.713607 148.9696 
L 133.449664 161.8588 
L 140.970568 174.748 
L 141.202976 175.109858 
L 149.365604 187.6372 
L 156.963472 198.32702 
L 158.579568 200.5264 
L 168.752474 213.4156 
L 172.723968 218.175154 
L 179.987937 226.3048 
L 188.484464 235.427922 
L 192.385771 239.194 
L 204.24496 250.45103 
L 206.252277 252.0832 
L 220.005456 263.402598 
L 222.361535 264.9724 
L 235.765952 274.269794 
L 242.585033 277.8616 
L 251.526448 282.875323 
L 267.286944 288.783716 
L 282.425744 290.7508 
z
M 250.636752 264.9724 
L 235.765952 258.341329 
L 226.204055 252.0832 
L 220.005456 248.265957 
L 208.846636 239.194 
L 204.24496 235.526051 
L 194.67747 226.3048 
L 188.484464 220.192915 
L 182.383199 213.4156 
L 172.723968 202.043796 
L 171.517765 200.5264 
L 161.956775 187.6372 
L 156.963472 180.145138 
L 153.434931 174.748 
L 145.962487 161.8588 
L 141.202976 152.337907 
L 139.499073 148.9696 
L 134.254756 136.0804 
L 130.271374 123.1912 
L 127.832488 110.302 
L 128.030296 97.4128 
L 135.004453 84.5236 
L 141.202976 80.440512 
L 156.963472 81.470434 
L 163.436532 84.5236 
L 172.723968 88.429091 
L 186.140727 97.4128 
L 188.484464 98.868412 
L 202.120812 110.302 
L 204.24496 112.035914 
L 215.568141 123.1912 
L 220.005456 127.648619 
L 227.546631 136.0804 
L 235.765952 145.779209 
L 238.331576 148.9696 
L 248.039398 161.8588 
L 251.526448 166.970971 
L 256.809719 174.748 
L 264.628538 187.6372 
L 267.286944 192.737061 
L 271.472639 200.5264 
L 277.175572 213.4156 
L 281.660119 226.3048 
L 283.04744 233.012452 
L 284.360663 239.194 
L 284.176203 252.0832 
L 283.04744 255.472771 
L 274.165729 264.9724 
L 267.286944 267.607179 
L 251.526448 265.40657 
z
" clip-path="url(#pf39014806b)" style="fill: #3f4788"/>
    <path d="M 251.526448 299.241074 
L 260.90129 303.64 
L 267.286944 303.64 
L 283.04744 303.64 
L 298.807936 303.64 
L 314.568432 303.64 
L 319.701573 303.64 
L 325.373482 290.7508 
L 326.318598 277.8616 
L 324.77888 264.9724 
L 321.680786 252.0832 
L 317.424264 239.194 
L 314.568432 232.304958 
L 312.153285 226.3048 
L 306.075171 213.4156 
L 299.282938 200.5264 
L 298.807936 199.716956 
L 291.8414 187.6372 
L 283.757147 174.748 
L 283.04744 173.694186 
L 275.101655 161.8588 
L 267.286944 150.988078 
L 265.823545 148.9696 
L 255.942997 136.0804 
L 251.526448 130.58453 
L 245.396248 123.1912 
L 235.765952 112.041334 
L 234.179293 110.302 
L 222.137931 97.4128 
L 220.005456 95.170731 
L 209.053072 84.5236 
L 204.24496 79.877461 
L 194.716643 71.6344 
L 188.484464 66.182966 
L 178.598107 58.7452 
L 172.723968 54.19363 
L 159.56936 45.856 
L 156.963472 45.856 
L 141.202976 45.856 
L 125.44248 45.856 
L 109.681984 45.856 
L 93.97491 45.856 
L 93.921488 45.971802 
L 90.699518 58.7452 
L 90.190956 71.6344 
L 91.482622 84.5236 
L 93.921488 96.526006 
L 94.102719 97.4128 
L 97.96469 110.302 
L 102.605682 123.1912 
L 107.996263 136.0804 
L 109.681984 139.572022 
L 114.192312 148.9696 
L 121.067339 161.8588 
L 125.44248 169.325127 
L 128.634714 174.748 
L 136.905749 187.6372 
L 141.202976 193.873486 
L 145.89538 200.5264 
L 155.611511 213.4156 
L 156.963472 215.124426 
L 166.219419 226.3048 
L 172.723968 233.814417 
L 177.709052 239.194 
L 188.484464 250.465483 
L 190.187175 252.0832 
L 203.928035 264.9724 
L 204.24496 265.266747 
L 219.434003 277.8616 
L 220.005456 278.337849 
L 235.765952 289.697339 
L 237.576659 290.7508 
z
M 282.425744 290.7508 
L 267.286944 288.783716 
L 251.526448 282.875323 
L 242.585033 277.8616 
L 235.765952 274.269794 
L 222.361535 264.9724 
L 220.005456 263.402598 
L 206.252277 252.0832 
L 204.24496 250.45103 
L 192.385771 239.194 
L 188.484464 235.427922 
L 179.987937 226.3048 
L 172.723968 218.175154 
L 168.752474 213.4156 
L 158.579568 200.5264 
L 156.963472 198.32702 
L 149.365604 187.6372 
L 141.202976 175.109858 
L 140.970568 174.748 
L 133.449664 161.8588 
L 126.713607 148.9696 
L 125.44248 146.13105 
L 120.886967 136.0804 
L 116.004376 123.1912 
L 112.090208 110.302 
L 109.681984 98.931759 
L 109.361331 97.4128 
L 108.537132 84.5236 
L 109.681984 75.0982 
L 110.430943 71.6344 
L 121.204349 58.7452 
L 125.44248 56.406475 
L 141.202976 56.618754 
L 146.752597 58.7452 
L 156.963472 62.265298 
L 172.723968 71.154821 
L 173.363382 71.6344 
L 188.484464 82.549429 
L 190.765542 84.5236 
L 204.24496 96.027272 
L 205.673086 97.4128 
L 218.860205 110.302 
L 220.005456 111.433982 
L 230.811241 123.1912 
L 235.765952 128.787226 
L 241.877561 136.0804 
L 251.526448 148.234973 
L 252.094161 148.9696 
L 261.532286 161.8588 
L 267.286944 170.39117 
L 270.228043 174.748 
L 278.19655 187.6372 
L 283.04744 196.379593 
L 285.399546 200.5264 
L 291.763476 213.4156 
L 297.241166 226.3048 
L 298.807936 231.053011 
L 301.583432 239.194 
L 304.414769 252.0832 
L 305.206487 264.9724 
L 302.510182 277.8616 
L 298.807936 283.641061 
L 283.42021 290.7508 
L 283.04744 290.840962 
z
" clip-path="url(#pf39014806b)" style="fill: #39558c"/>
    <path d="M 220.005456 293.107806 
L 234.235123 303.64 
L 235.765952 303.64 
L 251.526448 303.64 
L 260.90129 303.64 
L 251.526448 299.241074 
L 237.576659 290.7508 
L 235.765952 289.697339 
L 220.005456 278.337849 
L 219.434003 277.8616 
L 204.24496 265.266747 
L 203.928035 264.9724 
L 190.187175 252.0832 
L 188.484464 250.465483 
L 177.709052 239.194 
L 172.723968 233.814417 
L 166.219419 226.3048 
L 156.963472 215.124426 
L 155.611511 213.4156 
L 145.89538 200.5264 
L 141.202976 193.873486 
L 136.905749 187.6372 
L 128.634714 174.748 
L 125.44248 169.325127 
L 121.067339 161.8588 
L 114.192312 148.9696 
L 109.681984 139.572022 
L 107.996263 136.0804 
L 102.605682 123.1912 
L 97.96469 110.302 
L 94.102719 97.4128 
L 93.921488 96.526006 
L 91.482622 84.5236 
L 90.190956 71.6344 
L 90.699518 58.7452 
L 93.921488 45.971802 
L 93.97491 45.856 
L 93.921488 45.856 
L 78.160992 45.856 
L 71.912674 45.856 
L 72.153266 58.7452 
L 73.774995 71.6344 
L 76.457162 84.5236 
L 78.160992 90.507232 
L 80.125524 97.4128 
L 84.589242 110.302 
L 89.683019 123.1912 
L 93.921488 132.683315 
L 95.430097 136.0804 
L 101.835155 148.9696 
L 108.79818 161.8588 
L 109.681984 163.366074 
L 116.395157 174.748 
L 124.559603 187.6372 
L 125.44248 188.948881 
L 133.379354 200.5264 
L 141.202976 211.279638 
L 142.803249 213.4156 
L 152.950507 226.3048 
L 156.963472 231.190907 
L 163.853999 239.194 
L 172.723968 249.132627 
L 175.535011 252.0832 
L 188.114788 264.9724 
L 188.484464 265.344536 
L 201.957662 277.8616 
L 204.24496 279.96817 
L 217.185777 290.7508 
z
M 330.328928 303.64 
L 346.089424 303.64 
L 347.619599 303.64 
L 347.428927 290.7508 
L 346.089424 282.102592 
L 345.444451 277.8616 
L 342.079602 264.9724 
L 337.779033 252.0832 
L 332.669971 239.194 
L 330.328928 234.13436 
L 326.79712 226.3048 
L 320.29718 213.4156 
L 314.568432 203.047018 
L 313.203687 200.5264 
L 305.579396 187.6372 
L 298.807936 176.968147 
L 297.413266 174.748 
L 288.764338 161.8588 
L 283.04744 153.811098 
L 279.596529 148.9696 
L 269.924953 136.0804 
L 267.286944 132.702617 
L 259.717552 123.1912 
L 251.526448 113.300063 
L 248.959319 110.302 
L 237.601075 97.4128 
L 235.765952 95.373464 
L 225.494691 84.5236 
L 220.005456 78.816173 
L 212.586043 71.6344 
L 204.24496 63.595079 
L 198.698963 58.7452 
L 188.484464 49.731448 
L 183.48966 45.856 
L 172.723968 45.856 
L 159.56936 45.856 
L 172.723968 54.19363 
L 178.598107 58.7452 
L 188.484464 66.182966 
L 194.716643 71.6344 
L 204.24496 79.877461 
L 209.053072 84.5236 
L 220.005456 95.170731 
L 222.137931 97.4128 
L 234.179293 110.302 
L 235.765952 112.041334 
L 245.396248 123.1912 
L 251.526448 130.58453 
L 255.942997 136.0804 
L 265.823545 148.9696 
L 267.286944 150.988078 
L 275.101655 161.8588 
L 283.04744 173.694186 
L 283.757147 174.748 
L 291.8414 187.6372 
L 298.807936 199.716956 
L 299.282938 200.5264 
L 306.075171 213.4156 
L 312.153285 226.3048 
L 314.568432 232.304958 
L 317.424264 239.194 
L 321.680786 252.0832 
L 324.77888 264.9724 
L 326.318598 277.8616 
L 325.373482 290.7508 
L 319.701573 303.64 
z
" clip-path="url(#pf39014806b)" style="fill: #33628d"/>
    <path d="M 204.24496 294.567815 
L 215.100184 303.64 
L 220.005456 303.64 
L 234.235123 303.64 
L 220.005456 293.107806 
L 217.185777 290.7508 
L 204.24496 279.96817 
L 201.957662 277.8616 
L 188.484464 265.344536 
L 188.114788 264.9724 
L 175.535011 252.0832 
L 172.723968 249.132627 
L 163.853999 239.194 
L 156.963472 231.190907 
L 152.950507 226.3048 
L 142.803249 213.4156 
L 141.202976 211.279638 
L 133.379354 200.5264 
L 125.44248 188.948881 
L 124.559603 187.6372 
L 116.395157 174.748 
L 109.681984 163.366074 
L 108.79818 161.8588 
L 101.835155 148.9696 
L 95.430097 136.0804 
L 93.921488 132.683315 
L 89.683019 123.1912 
L 84.589242 110.302 
L 80.125524 97.4128 
L 78.160992 90.507232 
L 76.457162 84.5236 
L 73.774995 71.6344 
L 72.153266 58.7452 
L 71.912674 45.856 
L 62.400496 45.856 
L 54.382643 45.856 
L 56.244242 58.7452 
L 58.986092 71.6344 
L 62.400496 84.221938 
L 62.482447 84.5236 
L 66.806016 97.4128 
L 71.671284 110.302 
L 77.074707 123.1912 
L 78.160992 125.512936 
L 83.094466 136.0804 
L 89.616756 148.9696 
L 93.921488 156.850632 
L 96.663654 161.8588 
L 104.247377 174.748 
L 109.681984 183.427621 
L 112.347333 187.6372 
L 121.004253 200.5264 
L 125.44248 206.805027 
L 130.223366 213.4156 
L 140.008678 226.3048 
L 141.202976 227.820312 
L 150.49019 239.194 
L 156.963472 246.835916 
L 161.625228 252.0832 
L 172.723968 264.215392 
L 173.461227 264.9724 
L 186.248636 277.8616 
L 188.484464 280.079282 
L 200.069737 290.7508 
z
M 361.84992 303.64 
L 361.84992 290.7508 
L 361.84992 277.8616 
L 361.84992 275.279804 
L 358.38918 264.9724 
L 353.327419 252.0832 
L 347.634379 239.194 
L 346.089424 236.085713 
L 341.33342 226.3048 
L 334.513342 213.4156 
L 330.328928 206.098994 
L 327.195983 200.5264 
L 319.41997 187.6372 
L 314.568432 180.067953 
L 311.190534 174.748 
L 302.529906 161.8588 
L 298.807936 156.580229 
L 293.439099 148.9696 
L 283.905455 136.0804 
L 283.04744 134.959327 
L 273.935998 123.1912 
L 267.286944 114.91847 
L 263.496438 110.302 
L 252.583753 97.4128 
L 251.526448 96.189599 
L 241.091938 84.5236 
L 235.765952 78.689022 
L 229.007484 71.6344 
L 220.005456 62.354803 
L 216.266029 58.7452 
L 204.24496 47.177374 
L 202.747319 45.856 
L 188.484464 45.856 
L 183.48966 45.856 
L 188.484464 49.731448 
L 198.698963 58.7452 
L 204.24496 63.595079 
L 212.586043 71.6344 
L 220.005456 78.816173 
L 225.494691 84.5236 
L 235.765952 95.373464 
L 237.601075 97.4128 
L 248.959319 110.302 
L 251.526448 113.300063 
L 259.717552 123.1912 
L 267.286944 132.702617 
L 269.924953 136.0804 
L 279.596529 148.9696 
L 283.04744 153.811098 
L 288.764338 161.8588 
L 297.413266 174.748 
L 298.807936 176.968147 
L 305.579396 187.6372 
L 313.203687 200.5264 
L 314.568432 203.047018 
L 320.29718 213.4156 
L 326.79712 226.3048 
L 330.328928 234.13436 
L 332.669971 239.194 
L 337.779033 252.0832 
L 342.079602 264.9724 
L 345.444451 277.8616 
L 346.089424 282.102592 
L 347.428927 290.7508 
L 347.619599 303.64 
z
" clip-path="url(#pf39014806b)" style="fill: #2e6e8e"/>
    <path d="M 188.484464 294.695058 
L 198.268243 303.64 
L 204.24496 303.64 
L 215.100184 303.64 
L 204.24496 294.567815 
L 200.069737 290.7508 
L 188.484464 280.079282 
L 186.248636 277.8616 
L 173.461227 264.9724 
L 172.723968 264.215392 
L 161.625228 252.0832 
L 156.963472 246.835916 
L 150.49019 239.194 
L 141.202976 227.820312 
L 140.008678 226.3048 
L 130.223366 213.4156 
L 125.44248 206.805027 
L 121.004253 200.5264 
L 112.347333 187.6372 
L 109.681984 183.427621 
L 104.247377 174.748 
L 96.663654 161.8588 
L 93.921488 156.850632 
L 89.616756 148.9696 
L 83.094466 136.0804 
L 78.160992 125.512936 
L 77.074707 123.1912 
L 71.671284 110.302 
L 66.806016 97.4128 
L 62.482447 84.5236 
L 62.400496 84.221938 
L 58.986092 71.6344 
L 56.244242 58.7452 
L 54.382643 45.856 
L 46.64 45.856 
L 46.64 58.7452 
L 46.64 71.6344 
L 46.64 76.401124 
L 49.238891 84.5236 
L 53.919942 97.4128 
L 59.073598 110.302 
L 62.400496 117.859445 
L 64.743614 123.1912 
L 70.915222 136.0804 
L 77.520053 148.9696 
L 78.160992 150.134802 
L 84.636273 161.8588 
L 92.189337 174.748 
L 93.921488 177.543319 
L 100.242609 187.6372 
L 108.752469 200.5264 
L 109.681984 201.87266 
L 117.804635 213.4156 
L 125.44248 223.790068 
L 127.342816 226.3048 
L 137.465449 239.194 
L 141.202976 243.793694 
L 148.191503 252.0832 
L 156.963472 262.171605 
L 159.51676 264.9724 
L 171.547173 277.8616 
L 172.723968 279.098802 
L 184.456581 290.7508 
z
M 361.84992 275.279804 
L 361.84992 264.9724 
L 361.84992 252.0832 
L 361.84992 239.194 
L 361.84992 238.009938 
L 355.843473 226.3048 
L 348.768182 213.4156 
L 346.089424 208.852595 
L 341.27382 200.5264 
L 333.369289 187.6372 
L 330.328928 182.933701 
L 325.084095 174.748 
L 316.404592 161.8588 
L 314.568432 159.242703 
L 307.367607 148.9696 
L 298.807936 137.271049 
L 297.93311 136.0804 
L 288.132743 123.1912 
L 283.04744 116.723678 
L 277.927206 110.302 
L 267.324194 97.4128 
L 267.286944 97.368381 
L 256.256605 84.5236 
L 251.526448 79.136169 
L 244.714042 71.6344 
L 235.765952 61.944368 
L 232.672852 58.7452 
L 220.085728 45.856 
L 220.005456 45.856 
L 204.24496 45.856 
L 202.747319 45.856 
L 204.24496 47.177374 
L 216.266029 58.7452 
L 220.005456 62.354803 
L 229.007484 71.6344 
L 235.765952 78.689022 
L 241.091938 84.5236 
L 251.526448 96.189599 
L 252.583753 97.4128 
L 263.496438 110.302 
L 267.286944 114.91847 
L 273.935998 123.1912 
L 283.04744 134.959327 
L 283.905455 136.0804 
L 293.439099 148.9696 
L 298.807936 156.580229 
L 302.529906 161.8588 
L 311.190534 174.748 
L 314.568432 180.067953 
L 319.41997 187.6372 
L 327.195983 200.5264 
L 330.328928 206.098994 
L 334.513342 213.4156 
L 341.33342 226.3048 
L 346.089424 236.085713 
L 347.634379 239.194 
L 353.327419 252.0832 
L 358.38918 264.9724 
z
" clip-path="url(#pf39014806b)" style="fill: #29798e"/>
    <path d="M 172.723968 293.820573 
L 182.742374 303.64 
L 188.484464 303.64 
L 198.268243 303.64 
L 188.484464 294.695058 
L 184.456581 290.7508 
L 172.723968 279.098802 
L 171.547173 277.8616 
L 159.51676 264.9724 
L 156.963472 262.171605 
L 148.191503 252.0832 
L 141.202976 243.793694 
L 137.465449 239.194 
L 127.342816 226.3048 
L 125.44248 223.790068 
L 117.804635 213.4156 
L 109.681984 201.87266 
L 108.752469 200.5264 
L 100.242609 187.6372 
L 93.921488 177.543319 
L 92.189337 174.748 
L 84.636273 161.8588 
L 78.160992 150.134802 
L 77.520053 148.9696 
L 70.915222 136.0804 
L 64.743614 123.1912 
L 62.400496 117.859445 
L 59.073598 110.302 
L 53.919942 97.4128 
L 49.238891 84.5236 
L 46.64 76.401124 
L 46.64 84.5236 
L 46.64 97.4128 
L 46.64 110.106301 
L 46.721462 110.302 
L 52.6056 123.1912 
L 58.872898 136.0804 
L 62.400496 142.875434 
L 65.57268 148.9696 
L 72.702156 161.8588 
L 78.160992 171.210067 
L 80.241347 174.748 
L 88.231689 187.6372 
L 93.921488 196.392757 
L 96.645179 200.5264 
L 105.526182 213.4156 
L 109.681984 219.211266 
L 114.879875 226.3048 
L 124.696747 239.194 
L 125.44248 240.143855 
L 135.100291 252.0832 
L 141.202976 259.397883 
L 146.031324 264.9724 
L 156.963472 277.265097 
L 157.519203 277.8616 
L 169.757496 290.7508 
z
M 361.84992 238.009938 
L 361.84992 226.3048 
L 361.84992 213.4156 
L 361.84992 211.349879 
L 355.447942 200.5264 
L 347.431864 187.6372 
L 346.089424 185.576008 
L 339.096044 174.748 
L 330.392955 161.8588 
L 330.328928 161.76733 
L 321.393182 148.9696 
L 314.568432 139.564083 
L 312.036519 136.0804 
L 302.354395 123.1912 
L 298.807936 118.60582 
L 292.326609 110.302 
L 283.04744 98.761613 
L 281.945841 97.4128 
L 271.191861 84.5236 
L 267.286944 79.941247 
L 260.035618 71.6344 
L 251.526448 62.067478 
L 248.472415 58.7452 
L 236.466414 45.856 
L 235.765952 45.856 
L 220.085728 45.856 
L 232.672852 58.7452 
L 235.765952 61.944368 
L 244.714042 71.6344 
L 251.526448 79.136169 
L 256.256605 84.5236 
L 267.286944 97.368381 
L 267.324194 97.4128 
L 277.927206 110.302 
L 283.04744 116.723678 
L 288.132743 123.1912 
L 297.93311 136.0804 
L 298.807936 137.271049 
L 307.367607 148.9696 
L 314.568432 159.242703 
L 316.404592 161.8588 
L 325.084095 174.748 
L 330.328928 182.933701 
L 333.369289 187.6372 
L 341.27382 200.5264 
L 346.089424 208.852595 
L 348.768182 213.4156 
L 355.843473 226.3048 
z
" clip-path="url(#pf39014806b)" style="fill: #25848e"/>
    <path d="M 156.963472 292.144967 
L 168.053461 303.64 
L 172.723968 303.64 
L 182.742374 303.64 
L 172.723968 293.820573 
L 169.757496 290.7508 
L 157.519203 277.8616 
L 156.963472 277.265097 
L 146.031324 264.9724 
L 141.202976 259.397883 
L 135.100291 252.0832 
L 125.44248 240.143855 
L 124.696747 239.194 
L 114.879875 226.3048 
L 109.681984 219.211266 
L 105.526182 213.4156 
L 96.645179 200.5264 
L 93.921488 196.392757 
L 88.231689 187.6372 
L 80.241347 174.748 
L 78.160992 171.210067 
L 72.702156 161.8588 
L 65.57268 148.9696 
L 62.400496 142.875434 
L 58.872898 136.0804 
L 52.6056 123.1912 
L 46.721462 110.302 
L 46.64 110.106301 
L 46.64 110.302 
L 46.64 123.1912 
L 46.64 135.43682 
L 46.9573 136.0804 
L 53.733803 148.9696 
L 60.858144 161.8588 
L 62.400496 164.511151 
L 68.399285 174.748 
L 76.311445 187.6372 
L 78.160992 190.524124 
L 84.651354 200.5264 
L 93.372924 213.4156 
L 93.921488 214.198072 
L 102.569841 226.3048 
L 109.681984 235.904084 
L 112.177909 239.194 
L 122.274274 252.0832 
L 125.44248 256.014662 
L 132.887181 264.9724 
L 141.202976 274.711964 
L 143.995183 277.8616 
L 155.676618 290.7508 
z
M 361.84992 211.349879 
L 361.84992 200.5264 
L 361.84992 188.016624 
L 361.61354 187.6372 
L 353.228474 174.748 
L 346.089424 164.200071 
L 344.513728 161.8588 
L 335.523827 148.9696 
L 330.328928 141.768197 
L 326.226298 136.0804 
L 316.630255 123.1912 
L 314.568432 120.491622 
L 306.740509 110.302 
L 298.807936 100.26106 
L 296.533489 97.4128 
L 286.011439 84.5236 
L 283.04744 80.962939 
L 275.145352 71.6344 
L 267.286944 62.536424 
L 263.932271 58.7452 
L 252.354081 45.856 
L 251.526448 45.856 
L 236.466414 45.856 
L 248.472415 58.7452 
L 251.526448 62.067478 
L 260.035618 71.6344 
L 267.286944 79.941247 
L 271.191861 84.5236 
L 281.945841 97.4128 
L 283.04744 98.761613 
L 292.326609 110.302 
L 298.807936 118.60582 
L 302.354395 123.1912 
L 312.036519 136.0804 
L 314.568432 139.564083 
L 321.393182 148.9696 
L 330.328928 161.76733 
L 330.392955 161.8588 
L 339.096044 174.748 
L 346.089424 185.576008 
L 347.431864 187.6372 
L 355.447942 200.5264 
z
" clip-path="url(#pf39014806b)" style="fill: #21918c"/>
    <path d="M 156.963472 303.64 
L 168.053461 303.64 
L 156.963472 292.144967 
L 155.676618 290.7508 
L 143.995183 277.8616 
L 141.202976 274.711964 
L 132.887181 264.9724 
L 125.44248 256.014662 
L 122.274274 252.0832 
L 112.177909 239.194 
L 109.681984 235.904084 
L 102.569841 226.3048 
L 93.921488 214.198072 
L 93.372924 213.4156 
L 84.651354 200.5264 
L 78.160992 190.524124 
L 76.311445 187.6372 
L 68.399285 174.748 
L 62.400496 164.511151 
L 60.858144 161.8588 
L 53.733803 148.9696 
L 46.9573 136.0804 
L 46.64 135.43682 
L 46.64 136.0804 
L 46.64 148.9696 
L 46.64 157.382249 
L 49.1291 161.8588 
L 56.642523 174.748 
L 62.400496 184.215798 
L 64.502164 187.6372 
L 72.754595 200.5264 
L 78.160992 208.6556 
L 81.374324 213.4156 
L 90.396208 226.3048 
L 93.921488 231.179903 
L 99.836691 239.194 
L 109.664324 252.0832 
L 109.681984 252.105778 
L 120.01298 264.9724 
L 125.44248 271.55583 
L 130.808799 277.8616 
L 141.202976 289.788532 
L 142.073535 290.7508 
L 153.951181 303.64 
z
M 361.84992 188.016624 
L 361.84992 187.6372 
L 361.84992 174.748 
L 361.84992 166.446607 
L 358.754525 161.8588 
L 349.765645 148.9696 
L 346.089424 143.852678 
L 340.512761 136.0804 
L 330.980071 123.1912 
L 330.328928 122.330332 
L 321.199144 110.302 
L 314.568432 101.792637 
L 311.130594 97.4128 
L 300.785109 84.5236 
L 298.807936 82.103615 
L 290.144709 71.6344 
L 283.04744 63.223617 
L 279.200217 58.7452 
L 267.946758 45.856 
L 267.286944 45.856 
L 252.354081 45.856 
L 263.932271 58.7452 
L 267.286944 62.536424 
L 275.145352 71.6344 
L 283.04744 80.962939 
L 286.011439 84.5236 
L 296.533489 97.4128 
L 298.807936 100.26106 
L 306.740509 110.302 
L 314.568432 120.491622 
L 316.630255 123.1912 
L 326.226298 136.0804 
L 330.328928 141.768197 
L 335.523827 148.9696 
L 344.513728 161.8588 
L 346.089424 164.200071 
L 353.228474 174.748 
L 361.61354 187.6372 
z
" clip-path="url(#pf39014806b)" style="fill: #1e9c89"/>
    <path d="M 141.202976 303.64 
L 153.951181 303.64 
L 142.073535 290.7508 
L 141.202976 289.788532 
L 130.808799 277.8616 
L 125.44248 271.55583 
L 120.01298 264.9724 
L 109.681984 252.105778 
L 109.664324 252.0832 
L 99.836691 239.194 
L 93.921488 231.179903 
L 90.396208 226.3048 
L 81.374324 213.4156 
L 78.160992 208.6556 
L 72.754595 200.5264 
L 64.502164 187.6372 
L 62.400496 184.215798 
L 56.642523 174.748 
L 49.1291 161.8588 
L 46.64 157.382249 
L 46.64 161.8588 
L 46.64 174.748 
L 46.64 177.519755 
L 52.799784 187.6372 
L 60.950823 200.5264 
L 62.400496 202.740658 
L 69.486648 213.4156 
L 78.160992 226.036096 
L 78.348801 226.3048 
L 87.640494 239.194 
L 93.921488 247.644104 
L 97.294022 252.0832 
L 107.361727 264.9724 
L 109.681984 267.871916 
L 117.89429 277.8616 
L 125.44248 286.826238 
L 128.853177 290.7508 
L 140.288342 303.64 
z
M 361.84992 166.446607 
L 361.84992 161.8588 
L 361.84992 148.9696 
L 361.84992 145.796244 
L 354.90392 136.0804 
L 346.089424 124.096929 
L 345.422963 123.1912 
L 335.723644 110.302 
L 330.328928 103.303162 
L 325.7668 97.4128 
L 315.558739 84.5236 
L 314.568432 83.293069 
L 305.098205 71.6344 
L 298.807936 64.038009 
L 294.366298 58.7452 
L 283.365654 45.856 
L 283.04744 45.856 
L 267.946758 45.856 
L 279.200217 58.7452 
L 283.04744 63.223617 
L 290.144709 71.6344 
L 298.807936 82.103615 
L 300.785109 84.5236 
L 311.130594 97.4128 
L 314.568432 101.792637 
L 321.199144 110.302 
L 330.328928 122.330332 
L 330.980071 123.1912 
L 340.512761 136.0804 
L 346.089424 143.852678 
L 349.765645 148.9696 
L 358.754525 161.8588 
z
" clip-path="url(#pf39014806b)" style="fill: #22a785"/>
    <path d="M 125.44248 301.867894 
L 127.011746 303.64 
L 140.288342 303.64 
L 128.853177 290.7508 
L 125.44248 286.826238 
L 117.89429 277.8616 
L 109.681984 267.871916 
L 107.361727 264.9724 
L 97.294022 252.0832 
L 93.921488 247.644104 
L 87.640494 239.194 
L 78.348801 226.3048 
L 78.160992 226.036096 
L 69.486648 213.4156 
L 62.400496 202.740658 
L 60.950823 200.5264 
L 52.799784 187.6372 
L 46.64 177.519755 
L 46.64 187.6372 
L 46.64 196.371954 
L 49.266352 200.5264 
L 57.697622 213.4156 
L 62.400496 220.380542 
L 66.462577 226.3048 
L 75.575854 239.194 
L 78.160992 242.751506 
L 85.075536 252.0832 
L 93.921488 263.693627 
L 94.918357 264.9724 
L 105.207087 277.8616 
L 109.681984 283.339359 
L 115.904869 290.7508 
z
M 361.84992 145.796244 
L 361.84992 136.0804 
L 361.84992 125.761032 
L 359.969564 123.1912 
L 350.329492 110.302 
L 346.089424 104.75336 
L 340.463505 97.4128 
L 330.364186 84.5236 
L 330.328928 84.479247 
L 320.04951 71.6344 
L 314.568432 64.912304 
L 309.48957 58.7452 
L 298.807936 45.995354 
L 298.68957 45.856 
L 283.365654 45.856 
L 294.366298 58.7452 
L 298.807936 64.038009 
L 305.098205 71.6344 
L 314.568432 83.293069 
L 315.558739 84.5236 
L 325.7668 97.4128 
L 330.328928 103.303162 
L 335.723644 110.302 
L 345.422963 123.1912 
L 346.089424 124.096929 
L 354.90392 136.0804 
z
" clip-path="url(#pf39014806b)" style="fill: #2db27d"/>
    <path d="M 109.681984 298.55378 
L 114.034879 303.64 
L 125.44248 303.64 
L 127.011746 303.64 
L 125.44248 301.867894 
L 115.904869 290.7508 
L 109.681984 283.339359 
L 105.207087 277.8616 
L 94.918357 264.9724 
L 93.921488 263.693627 
L 85.075536 252.0832 
L 78.160992 242.751506 
L 75.575854 239.194 
L 66.462577 226.3048 
L 62.400496 220.380542 
L 57.697622 213.4156 
L 49.266352 200.5264 
L 46.64 196.371954 
L 46.64 200.5264 
L 46.64 213.4156 
L 46.64 214.374825 
L 54.680153 226.3048 
L 62.400496 237.425307 
L 63.649022 239.194 
L 72.994872 252.0832 
L 78.160992 259.024795 
L 82.678909 264.9724 
L 92.715307 277.8616 
L 93.921488 279.378489 
L 103.186467 290.7508 
z
M 361.84992 125.761032 
L 361.84992 123.1912 
L 361.84992 110.302 
L 361.84992 106.11356 
L 355.236797 97.4128 
L 346.089424 85.627643 
L 345.229132 84.5236 
L 335.029692 71.6344 
L 330.328928 65.795407 
L 324.611045 58.7452 
L 314.568432 46.569375 
L 313.973855 45.856 
L 298.807936 45.856 
L 298.68957 45.856 
L 298.807936 45.995354 
L 309.48957 58.7452 
L 314.568432 64.912304 
L 320.04951 71.6344 
L 330.328928 84.479247 
L 330.364186 84.5236 
L 340.463505 97.4128 
L 346.089424 104.75336 
L 350.329492 110.302 
L 359.969564 123.1912 
z
" clip-path="url(#pf39014806b)" style="fill: #3fbc73"/>
    <path d="M 93.921488 294.767517 
L 101.289307 303.64 
L 109.681984 303.64 
L 114.034879 303.64 
L 109.681984 298.55378 
L 103.186467 290.7508 
L 93.921488 279.378489 
L 92.715307 277.8616 
L 82.678909 264.9724 
L 78.160992 259.024795 
L 72.994872 252.0832 
L 63.649022 239.194 
L 62.400496 237.425307 
L 54.680153 226.3048 
L 46.64 214.374825 
L 46.64 226.3048 
L 46.64 231.646361 
L 51.868474 239.194 
L 61.040745 252.0832 
L 62.400496 253.949605 
L 70.582194 264.9724 
L 78.160992 274.936472 
L 80.433663 277.8616 
L 90.667224 290.7508 
z
M 361.84992 106.11356 
L 361.84992 97.4128 
L 361.84992 86.702254 
L 360.167856 84.5236 
L 350.061783 71.6344 
L 346.089424 66.647661 
L 339.760541 58.7452 
L 330.328928 47.160231 
L 329.258686 45.856 
L 314.568432 45.856 
L 313.973855 45.856 
L 314.568432 46.569375 
L 324.611045 58.7452 
L 330.328928 65.795407 
L 335.029692 71.6344 
L 345.229132 84.5236 
L 346.089424 85.627643 
L 355.236797 97.4128 
z
" clip-path="url(#pf39014806b)" style="fill: #56c667"/>
    <path d="M 93.921488 303.64 
L 101.289307 303.64 
L 93.921488 294.767517 
L 90.667224 290.7508 
L 80.433663 277.8616 
L 78.160992 274.936472 
L 70.582194 264.9724 
L 62.400496 253.949605 
L 61.040745 252.0832 
L 51.868474 239.194 
L 46.64 231.646361 
L 46.64 239.194 
L 46.64 248.423655 
L 49.239445 252.0832 
L 58.616785 264.9724 
L 62.400496 270.057275 
L 68.32148 277.8616 
L 78.160992 290.541814 
L 78.326743 290.7508 
L 88.745479 303.64 
z
M 361.84992 86.702254 
L 361.84992 84.5236 
L 361.84992 71.6344 
L 361.84992 67.437711 
L 354.960569 58.7452 
L 346.089424 47.72882 
L 344.572357 45.856 
L 330.328928 45.856 
L 329.258686 45.856 
L 330.328928 47.160231 
L 339.760541 58.7452 
L 346.089424 66.647661 
L 350.061783 71.6344 
L 360.167856 84.5236 
z
" clip-path="url(#pf39014806b)" style="fill: #73d056"/>
    <path d="M 78.160992 303.64 
L 88.745479 303.64 
L 78.326743 290.7508 
L 78.160992 290.541814 
L 68.32148 277.8616 
L 62.400496 270.057275 
L 58.616785 264.9724 
L 49.239445 252.0832 
L 46.64 248.423655 
L 46.64 252.0832 
L 46.64 264.786758 
L 46.774933 264.9724 
L 56.344478 277.8616 
L 62.400496 285.842746 
L 66.199892 290.7508 
L 76.380676 303.64 
z
M 361.84992 67.437711 
L 361.84992 58.7452 
L 361.84992 48.243721 
L 359.936592 45.856 
L 346.089424 45.856 
L 344.572357 45.856 
L 346.089424 47.72882 
L 354.960569 58.7452 
z
" clip-path="url(#pf39014806b)" style="fill: #90d743"/>
    <path d="M 62.400496 301.349177 
L 64.207187 303.64 
L 76.380676 303.64 
L 66.199892 290.7508 
L 62.400496 285.842746 
L 56.344478 277.8616 
L 46.774933 264.9724 
L 46.64 264.786758 
L 46.64 264.9724 
L 46.64 277.8616 
L 46.64 280.750581 
L 54.211372 290.7508 
z
M 361.84992 48.243721 
L 361.84992 45.856 
L 359.936592 45.856 
z
" clip-path="url(#pf39014806b)" style="fill: #b0dd2f"/>
    <path d="M 62.400496 303.64 
L 64.207187 303.64 
L 62.400496 301.349177 
L 54.211372 290.7508 
L 46.64 280.750581 
L 46.64 290.7508 
L 46.64 296.419583 
L 52.207382 303.64 
z
" clip-path="url(#pf39014806b)" style="fill: #d0e11c"/>
    <path d="M 46.64 296.419583 
L 46.64 303.64 
L 52.207382 303.64 
z
" clip-path="url(#pf39014806b)" style="fill: #efe51c"/>
   </g>
   <g id="PathCollection_1">
    <defs>
     <path id="m64fed9c024" d="M 0 3 
C 0.795609 3 1.55874 2.683901 2.12132 2.12132 
C 2.683901 1.55874 3 0.795609 3 0 
C 3 -0.795609 2.683901 -1.55874 2.12132 -2.12132 
C 1.55874 -2.683901 0.795609 -3 0 -3 
C -0.795609 -3 -1.55874 -2.683901 -2.12132 -2.12132 
C -2.683901 -1.55874 -3 -0.795609 -3 0 
C -3 0.795609 -2.683901 1.55874 -2.12132 2.12132 
C -1.55874 2.683901 -0.795609 3 0 3 
z
" style="stroke: #ff0000"/>
    </defs>
    <g clip-path="url(#pf39014806b)">
     <use xlink:href="#m64fed9c024" x="290.927688" y="190.8595" style="fill: #ff0000; stroke: #ff0000"/>
    </g>
   </g>
   <g id="matplotlib.axis_1">
    <g id="xtick_1">
     <g id="line2d_1">
      <defs>
       <path id="m6e14bee9ce" d="M 0 0 
L 0 3.5 
" style="stroke: #000000; stroke-width: 0.8"/>
      </defs>
      <g>
       <use xlink:href="#m6e14bee9ce" x="46.64" y="303.64" style="stroke: #000000; stroke-width: 0.8"/>
      </g>
     </g>
     <g id="text_1">
      <!-- −4 -->
      <g transform="translate(39.268906 318.238437) scale(0.1 -0.1)">
       <defs>
        <path id="DejaVuSans-2212" d="M 678 2272 
L 4684 2272 
L 4684 1741 
L 678 1741 
L 678 2272 
z
" transform="scale(0.015625)"/>
        <path id="DejaVuSans-34" d="M 2419 4116 
L 825 1625 
L 2419 1625 
L 2419 4116 
z
M 2253 4666 
L 3047 4666 
L 3047 1625 
L 3713 1625 
L 3713 1100 
L 3047 1100 
L 3047 0 
L 2419 0 
L 2419 1100 
L 313 1100 
L 313 1709 
L 2253 4666 
z
" transform="scale(0.015625)"/>
       </defs>
       <use xlink:href="#DejaVuSans-2212"/>
       <use xlink:href="#DejaVuSans-34" transform="translate(83.789062 0)"/>
      </g>
     </g>
    </g>
    <g id="xtick_2">
     <g id="line2d_2">
      <g>
       <use xlink:href="#m6e14bee9ce" x="86.04124" y="303.64" style="stroke: #000000; stroke-width: 0.8"/>
      </g>
     </g>
     <g id="text_2">
      <!-- −3 -->
      <g transform="translate(78.670146 318.238437) scale(0.1 -0.1)">
       <defs>
        <path id="DejaVuSans-33" d="M 2597 2516 
Q 3050 2419 3304 2112 
Q 3559 1806 3559 1356 
Q 3559 666 3084 287 
Q 2609 -91 1734 -91 
Q 1441 -91 1130 -33 
Q 819 25 488 141 
L 488 750 
Q 750 597 1062 519 
Q 1375 441 1716 441 
Q 2309 441 2620 675 
Q 2931 909 2931 1356 
Q 2931 1769 2642 2001 
Q 2353 2234 1838 2234 
L 1294 2234 
L 1294 2753 
L 1863 2753 
Q 2328 2753 2575 2939 
Q 2822 3125 2822 3475 
Q 2822 3834 2567 4026 
Q 2313 4219 1838 4219 
Q 1578 4219 1281 4162 
Q 984 4106 628 3988 
L 628 4550 
Q 988 4650 1302 4700 
Q 1616 4750 1894 4750 
Q 2613 4750 3031 4423 
Q 3450 4097 3450 3541 
Q 3450 3153 3228 2886 
Q 3006 2619 2597 2516 
z
" transform="scale(0.015625)"/>
       </defs>
       <use xlink:href="#DejaVuSans-2212"/>
       <use xlink:href="#DejaVuSans-33" transform="translate(83.789062 0)"/>
      </g>
     </g>
    </g>
    <g id="xtick_3">
     <g id="line2d_3">
      <g>
       <use xlink:href="#m6e14bee9ce" x="125.44248" y="303.64" style="stroke: #000000; stroke-width: 0.8"/>
      </g>
     </g>
     <g id="text_3">
      <!-- −2 -->
      <g transform="translate(118.071386 318.238437) scale(0.1 -0.1)">
       <defs>
        <path id="DejaVuSans-32" d="M 1228 531 
L 3431 531 
L 3431 0 
L 469 0 
L 469 531 
Q 828 903 1448 1529 
Q 2069 2156 2228 2338 
Q 2531 2678 2651 2914 
Q 2772 3150 2772 3378 
Q 2772 3750 2511 3984 
Q 2250 4219 1831 4219 
Q 1534 4219 1204 4116 
Q 875 4013 500 3803 
L 500 4441 
Q 881 4594 1212 4672 
Q 1544 4750 1819 4750 
Q 2544 4750 2975 4387 
Q 3406 4025 3406 3419 
Q 3406 3131 3298 2873 
Q 3191 2616 2906 2266 
Q 2828 2175 2409 1742 
Q 1991 1309 1228 531 
z
" transform="scale(0.015625)"/>
       </defs>
       <use xlink:href="#DejaVuSans-2212"/>
       <use xlink:href="#DejaVuSans-32" transform="translate(83.789062 0)"/>
      </g>
     </g>
    </g>
    <g id="xtick_4">
     <g id="line2d_4">
      <g>
       <use xlink:href="#m6e14bee9ce" x="164.84372" y="303.64" style="stroke: #000000; stroke-width: 0.8"/>
      </g>
     </g>
     <g id="text_4">
      <!-- −1 -->
      <g transform="translate(157.472626 318.238437) scale(0.1 -0.1)">
       <defs>
        <path id="DejaVuSans-31" d="M 794 531 
L 1825 531 
L 1825 4091 
L 703 3866 
L 703 4441 
L 1819 4666 
L 2450 4666 
L 2450 531 
L 3481 531 
L 3481 0 
L 794 0 
L 794 531 
z
" transform="scale(0.015625)"/>
       </defs>
       <use xlink:href="#DejaVuSans-2212"/>
       <use xlink:href="#DejaVuSans-31" transform="translate(83.789062 0)"/>
      </g>
     </g>
    </g>
    <g id="xtick_5">
     <g id="line2d_5">
      <g>
       <use xlink:href="#m6e14bee9ce" x="204.24496" y="303.64" style="stroke: #000000; stroke-width: 0.8"/>
      </g>
     </g>
     <g id="text_5">
      <!-- 0 -->
      <g transform="translate(201.06371 318.238437) scale(0.1 -0.1)">
       <defs>
        <path id="DejaVuSans-30" d="M 2034 4250 
Q 1547 4250 1301 3770 
Q 1056 3291 1056 2328 
Q 1056 1369 1301 889 
Q 1547 409 2034 409 
Q 2525 409 2770 889 
Q 3016 1369 3016 2328 
Q 3016 3291 2770 3770 
Q 2525 4250 2034 4250 
z
M 2034 4750 
Q 2819 4750 3233 4129 
Q 3647 3509 3647 2328 
Q 3647 1150 3233 529 
Q 2819 -91 2034 -91 
Q 1250 -91 836 529 
Q 422 1150 422 2328 
Q 422 3509 836 4129 
Q 1250 4750 2034 4750 
z
" transform="scale(0.015625)"/>
       </defs>
       <use xlink:href="#DejaVuSans-30"/>
      </g>
     </g>
    </g>
    <g id="xtick_6">
     <g id="line2d_6">
      <g>
       <use xlink:href="#m6e14bee9ce" x="243.6462" y="303.64" style="stroke: #000000; stroke-width: 0.8"/>
      </g>
     </g>
     <g id="text_6">
      <!-- 1 -->
      <g transform="translate(240.46495 318.238437) scale(0.1 -0.1)">
       <use xlink:href="#DejaVuSans-31"/>
      </g>
     </g>
    </g>
    <g id="xtick_7">
     <g id="line2d_7">
      <g>
       <use xlink:href="#m6e14bee9ce" x="283.04744" y="303.64" style="stroke: #000000; stroke-width: 0.8"/>
      </g>
     </g>
     <g id="text_7">
      <!-- 2 -->
      <g transform="translate(279.86619 318.238437) scale(0.1 -0.1)">
       <use xlink:href="#DejaVuSans-32"/>
      </g>
     </g>
    </g>
    <g id="xtick_8">
     <g id="line2d_8">
      <g>
       <use xlink:href="#m6e14bee9ce" x="322.44868" y="303.64" style="stroke: #000000; stroke-width: 0.8"/>
      </g>
     </g>
     <g id="text_8">
      <!-- 3 -->
      <g transform="translate(319.26743 318.238437) scale(0.1 -0.1)">
       <use xlink:href="#DejaVuSans-33"/>
      </g>
     </g>
    </g>
    <g id="xtick_9">
     <g id="line2d_9">
      <g>
       <use xlink:href="#m6e14bee9ce" x="361.84992" y="303.64" style="stroke: #000000; stroke-width: 0.8"/>
      </g>
     </g>
     <g id="text_9">
      <!-- 4 -->
      <g transform="translate(358.66867 318.238437) scale(0.1 -0.1)">
       <use xlink:href="#DejaVuSans-34"/>
      </g>
     </g>
    </g>
    <g id="text_10">
     <!-- Relative distance in first direction -->
     <g transform="translate(120.30121 331.916562) scale(0.1 -0.1)">
      <defs>
       <path id="DejaVuSans-52" d="M 2841 2188 
Q 3044 2119 3236 1894 
Q 3428 1669 3622 1275 
L 4263 0 
L 3584 0 
L 2988 1197 
Q 2756 1666 2539 1819 
Q 2322 1972 1947 1972 
L 1259 1972 
L 1259 0 
L 628 0 
L 628 4666 
L 2053 4666 
Q 2853 4666 3247 4331 
Q 3641 3997 3641 3322 
Q 3641 2881 3436 2590 
Q 3231 2300 2841 2188 
z
M 1259 4147 
L 1259 2491 
L 2053 2491 
Q 2509 2491 2742 2702 
Q 2975 2913 2975 3322 
Q 2975 3731 2742 3939 
Q 2509 4147 2053 4147 
L 1259 4147 
z
" transform="scale(0.015625)"/>
       <path id="DejaVuSans-65" d="M 3597 1894 
L 3597 1613 
L 953 1613 
Q 991 1019 1311 708 
Q 1631 397 2203 397 
Q 2534 397 2845 478 
Q 3156 559 3463 722 
L 3463 178 
Q 3153 47 2828 -22 
Q 2503 -91 2169 -91 
Q 1331 -91 842 396 
Q 353 884 353 1716 
Q 353 2575 817 3079 
Q 1281 3584 2069 3584 
Q 2775 3584 3186 3129 
Q 3597 2675 3597 1894 
z
M 3022 2063 
Q 3016 2534 2758 2815 
Q 2500 3097 2075 3097 
Q 1594 3097 1305 2825 
Q 1016 2553 972 2059 
L 3022 2063 
z
" transform="scale(0.015625)"/>
       <path id="DejaVuSans-6c" d="M 603 4863 
L 1178 4863 
L 1178 0 
L 603 0 
L 603 4863 
z
" transform="scale(0.015625)"/>
       <path id="DejaVuSans-61" d="M 2194 1759 
Q 1497 1759 1228 1600 
Q 959 1441 959 1056 
Q 959 750 1161 570 
Q 1363 391 1709 391 
Q 2188 391 2477 730 
Q 2766 1069 2766 1631 
L 2766 1759 
L 2194 1759 
z
M 3341 1997 
L 3341 0 
L 2766 0 
L 2766 531 
Q 2569 213 2275 61 
Q 1981 -91 1556 -91 
Q 1019 -91 701 211 
Q 384 513 384 1019 
Q 384 1609 779 1909 
Q 1175 2209 1959 2209 
L 2766 2209 
L 2766 2266 
Q 2766 2663 2505 2880 
Q 2244 3097 1772 3097 
Q 1472 3097 1187 3025 
Q 903 2953 641 2809 
L 641 3341 
Q 956 3463 1253 3523 
Q 1550 3584 1831 3584 
Q 2591 3584 2966 3190 
Q 3341 2797 3341 1997 
z
" transform="scale(0.015625)"/>
       <path id="DejaVuSans-74" d="M 1172 4494 
L 1172 3500 
L 2356 3500 
L 2356 3053 
L 1172 3053 
L 1172 1153 
Q 1172 725 1289 603 
Q 1406 481 1766 481 
L 2356 481 
L 2356 0 
L 1766 0 
Q 1100 0 847 248 
Q 594 497 594 1153 
L 594 3053 
L 172 3053 
L 172 3500 
L 594 3500 
L 594 4494 
L 1172 4494 
z
" transform="scale(0.015625)"/>
       <path id="DejaVuSans-69" d="M 603 3500 
L 1178 3500 
L 1178 0 
L 603 0 
L 603 3500 
z
M 603 4863 
L 1178 4863 
L 1178 4134 
L 603 4134 
L 603 4863 
z
" transform="scale(0.015625)"/>
       <path id="DejaVuSans-76" d="M 191 3500 
L 800 3500 
L 1894 563 
L 2988 3500 
L 3597 3500 
L 2284 0 
L 1503 0 
L 191 3500 
z
" transform="scale(0.015625)"/>
       <path id="DejaVuSans-20" transform="scale(0.015625)"/>
       <path id="DejaVuSans-64" d="M 2906 2969 
L 2906 4863 
L 3481 4863 
L 3481 0 
L 2906 0 
L 2906 525 
Q 2725 213 2448 61 
Q 2172 -91 1784 -91 
Q 1150 -91 751 415 
Q 353 922 353 1747 
Q 353 2572 751 3078 
Q 1150 3584 1784 3584 
Q 2172 3584 2448 3432 
Q 2725 3281 2906 2969 
z
M 947 1747 
Q 947 1113 1208 752 
Q 1469 391 1925 391 
Q 2381 391 2643 752 
Q 2906 1113 2906 1747 
Q 2906 2381 2643 2742 
Q 2381 3103 1925 3103 
Q 1469 3103 1208 2742 
Q 947 2381 947 1747 
z
" transform="scale(0.015625)"/>
       <path id="DejaVuSans-73" d="M 2834 3397 
L 2834 2853 
Q 2591 2978 2328 3040 
Q 2066 3103 1784 3103 
Q 1356 3103 1142 2972 
Q 928 2841 928 2578 
Q 928 2378 1081 2264 
Q 1234 2150 1697 2047 
L 1894 2003 
Q 2506 1872 2764 1633 
Q 3022 1394 3022 966 
Q 3022 478 2636 193 
Q 2250 -91 1575 -91 
Q 1294 -91 989 -36 
Q 684 19 347 128 
L 347 722 
Q 666 556 975 473 
Q 1284 391 1588 391 
Q 1994 391 2212 530 
Q 2431 669 2431 922 
Q 2431 1156 2273 1281 
Q 2116 1406 1581 1522 
L 1381 1569 
Q 847 1681 609 1914 
Q 372 2147 372 2553 
Q 372 3047 722 3315 
Q 1072 3584 1716 3584 
Q 2034 3584 2315 3537 
Q 2597 3491 2834 3397 
z
" transform="scale(0.015625)"/>
       <path id="DejaVuSans-6e" d="M 3513 2113 
L 3513 0 
L 2938 0 
L 2938 2094 
Q 2938 2591 2744 2837 
Q 2550 3084 2163 3084 
Q 1697 3084 1428 2787 
Q 1159 2491 1159 1978 
L 1159 0 
L 581 0 
L 581 3500 
L 1159 3500 
L 1159 2956 
Q 1366 3272 1645 3428 
Q 1925 3584 2291 3584 
Q 2894 3584 3203 3211 
Q 3513 2838 3513 2113 
z
" transform="scale(0.015625)"/>
       <path id="DejaVuSans-63" d="M 3122 3366 
L 3122 2828 
Q 2878 2963 2633 3030 
Q 2388 3097 2138 3097 
Q 1578 3097 1268 2742 
Q 959 2388 959 1747 
Q 959 1106 1268 751 
Q 1578 397 2138 397 
Q 2388 397 2633 464 
Q 2878 531 3122 666 
L 3122 134 
Q 2881 22 2623 -34 
Q 2366 -91 2075 -91 
Q 1284 -91 818 406 
Q 353 903 353 1747 
Q 353 2603 823 3093 
Q 1294 3584 2113 3584 
Q 2378 3584 2631 3529 
Q 2884 3475 3122 3366 
z
" transform="scale(0.015625)"/>
       <path id="DejaVuSans-66" d="M 2375 4863 
L 2375 4384 
L 1825 4384 
Q 1516 4384 1395 4259 
Q 1275 4134 1275 3809 
L 1275 3500 
L 2222 3500 
L 2222 3053 
L 1275 3053 
L 1275 0 
L 697 0 
L 697 3053 
L 147 3053 
L 147 3500 
L 697 3500 
L 697 3744 
Q 697 4328 969 4595 
Q 1241 4863 1831 4863 
L 2375 4863 
z
" transform="scale(0.015625)"/>
       <path id="DejaVuSans-72" d="M 2631 2963 
Q 2534 3019 2420 3045 
Q 2306 3072 2169 3072 
Q 1681 3072 1420 2755 
Q 1159 2438 1159 1844 
L 1159 0 
L 581 0 
L 581 3500 
L 1159 3500 
L 1159 2956 
Q 1341 3275 1631 3429 
Q 1922 3584 2338 3584 
Q 2397 3584 2469 3576 
Q 2541 3569 2628 3553 
L 2631 2963 
z
" transform="scale(0.015625)"/>
       <path id="DejaVuSans-6f" d="M 1959 3097 
Q 1497 3097 1228 2736 
Q 959 2375 959 1747 
Q 959 1119 1226 758 
Q 1494 397 1959 397 
Q 2419 397 2687 759 
Q 2956 1122 2956 1747 
Q 2956 2369 2687 2733 
Q 2419 3097 1959 3097 
z
M 1959 3584 
Q 2709 3584 3137 3096 
Q 3566 2609 3566 1747 
Q 3566 888 3137 398 
Q 2709 -91 1959 -91 
Q 1206 -91 779 398 
Q 353 888 353 1747 
Q 353 2609 779 3096 
Q 1206 3584 1959 3584 
z
" transform="scale(0.015625)"/>
      </defs>
      <use xlink:href="#DejaVuSans-52"/>
      <use xlink:href="#DejaVuSans-65" transform="translate(64.982422 0)"/>
      <use xlink:href="#DejaVuSans-6c" transform="translate(126.505859 0)"/>
      <use xlink:href="#DejaVuSans-61" transform="translate(154.289062 0)"/>
      <use xlink:href="#DejaVuSans-74" transform="translate(215.568359 0)"/>
      <use xlink:href="#DejaVuSans-69" transform="translate(254.777344 0)"/>
      <use xlink:href="#DejaVuSans-76" transform="translate(282.560547 0)"/>
      <use xlink:href="#DejaVuSans-65" transform="translate(341.740234 0)"/>
      <use xlink:href="#DejaVuSans-20" transform="translate(403.263672 0)"/>
      <use xlink:href="#DejaVuSans-64" transform="translate(435.050781 0)"/>
      <use xlink:href="#DejaVuSans-69" transform="translate(498.527344 0)"/>
      <use xlink:href="#DejaVuSans-73" transform="translate(526.310547 0)"/>
      <use xlink:href="#DejaVuSans-74" transform="translate(578.410156 0)"/>
      <use xlink:href="#DejaVuSans-61" transform="translate(617.619141 0)"/>
      <use xlink:href="#DejaVuSans-6e" transform="translate(678.898438 0)"/>
      <use xlink:href="#DejaVuSans-63" transform="translate(742.277344 0)"/>
      <use xlink:href="#DejaVuSans-65" transform="translate(797.257812 0)"/>
      <use xlink:href="#DejaVuSans-20" transform="translate(858.78125 0)"/>
      <use xlink:href="#DejaVuSans-69" transform="translate(890.568359 0)"/>
      <use xlink:href="#DejaVuSans-6e" transform="translate(918.351562 0)"/>
      <use xlink:href="#DejaVuSans-20" transform="translate(981.730469 0)"/>
      <use xlink:href="#DejaVuSans-66" transform="translate(1013.517578 0)"/>
      <use xlink:href="#DejaVuSans-69" transform="translate(1048.722656 0)"/>
      <use xlink:href="#DejaVuSans-72" transform="translate(1076.505859 0)"/>
      <use xlink:href="#DejaVuSans-73" transform="translate(1117.619141 0)"/>
      <use xlink:href="#DejaVuSans-74" transform="translate(1169.71875 0)"/>
      <use xlink:href="#DejaVuSans-20" transform="translate(1208.927734 0)"/>
      <use xlink:href="#DejaVuSans-64" transform="translate(1240.714844 0)"/>
      <use xlink:href="#DejaVuSans-69" transform="translate(1304.191406 0)"/>
      <use xlink:href="#DejaVuSans-72" transform="translate(1331.974609 0)"/>
      <use xlink:href="#DejaVuSans-65" transform="translate(1370.837891 0)"/>
      <use xlink:href="#DejaVuSans-63" transform="translate(1432.361328 0)"/>
      <use xlink:href="#DejaVuSans-74" transform="translate(1487.341797 0)"/>
      <use xlink:href="#DejaVuSans-69" transform="translate(1526.550781 0)"/>
      <use xlink:href="#DejaVuSans-6f" transform="translate(1554.333984 0)"/>
      <use xlink:href="#DejaVuSans-6e" transform="translate(1615.515625 0)"/>
     </g>
    </g>
   </g>
   <g id="matplotlib.axis_2">
    <g id="ytick_1">
     <g id="line2d_10">
      <defs>
       <path id="m0f9f91213b" d="M 0 0 
L -3.5 0 
" style="stroke: #000000; stroke-width: 0.8"/>
      </defs>
      <g>
       <use xlink:href="#m0f9f91213b" x="46.64" y="303.64" style="stroke: #000000; stroke-width: 0.8"/>
      </g>
     </g>
     <g id="text_11">
      <!-- −4 -->
      <g transform="translate(24.897813 307.439219) scale(0.1 -0.1)">
       <use xlink:href="#DejaVuSans-2212"/>
       <use xlink:href="#DejaVuSans-34" transform="translate(83.789062 0)"/>
      </g>
     </g>
    </g>
    <g id="ytick_2">
     <g id="line2d_11">
      <g>
       <use xlink:href="#m0f9f91213b" x="46.64" y="271.417" style="stroke: #000000; stroke-width: 0.8"/>
      </g>
     </g>
     <g id="text_12">
      <!-- −3 -->
      <g transform="translate(24.897813 275.216219) scale(0.1 -0.1)">
       <use xlink:href="#DejaVuSans-2212"/>
       <use xlink:href="#DejaVuSans-33" transform="translate(83.789062 0)"/>
      </g>
     </g>
    </g>
    <g id="ytick_3">
     <g id="line2d_12">
      <g>
       <use xlink:href="#m0f9f91213b" x="46.64" y="239.194" style="stroke: #000000; stroke-width: 0.8"/>
      </g>
     </g>
     <g id="text_13">
      <!-- −2 -->
      <g transform="translate(24.897813 242.993219) scale(0.1 -0.1)">
       <use xlink:href="#DejaVuSans-2212"/>
       <use xlink:href="#DejaVuSans-32" transform="translate(83.789062 0)"/>
      </g>
     </g>
    </g>
    <g id="ytick_4">
     <g id="line2d_13">
      <g>
       <use xlink:href="#m0f9f91213b" x="46.64" y="206.971" style="stroke: #000000; stroke-width: 0.8"/>
      </g>
     </g>
     <g id="text_14">
      <!-- −1 -->
      <g transform="translate(24.897813 210.770219) scale(0.1 -0.1)">
       <use xlink:href="#DejaVuSans-2212"/>
       <use xlink:href="#DejaVuSans-31" transform="translate(83.789062 0)"/>
      </g>
     </g>
    </g>
    <g id="ytick_5">
     <g id="line2d_14">
      <g>
       <use xlink:href="#m0f9f91213b" x="46.64" y="174.748" style="stroke: #000000; stroke-width: 0.8"/>
      </g>
     </g>
     <g id="text_15">
      <!-- 0 -->
      <g transform="translate(33.2775 178.547219) scale(0.1 -0.1)">
       <use xlink:href="#DejaVuSans-30"/>
      </g>
     </g>
    </g>
    <g id="ytick_6">
     <g id="line2d_15">
      <g>
       <use xlink:href="#m0f9f91213b" x="46.64" y="142.525" style="stroke: #000000; stroke-width: 0.8"/>
      </g>
     </g>
     <g id="text_16">
      <!-- 1 -->
      <g transform="translate(33.2775 146.324219) scale(0.1 -0.1)">
       <use xlink:href="#DejaVuSans-31"/>
      </g>
     </g>
    </g>
    <g id="ytick_7">
     <g id="line2d_16">
      <g>
       <use xlink:href="#m0f9f91213b" x="46.64" y="110.302" style="stroke: #000000; stroke-width: 0.8"/>
      </g>
     </g>
     <g id="text_17">
      <!-- 2 -->
      <g transform="translate(33.2775 114.101219) scale(0.1 -0.1)">
       <use xlink:href="#DejaVuSans-32"/>
      </g>
     </g>
    </g>
    <g id="ytick_8">
     <g id="line2d_17">
      <g>
       <use xlink:href="#m0f9f91213b" x="46.64" y="78.079" style="stroke: #000000; stroke-width: 0.8"/>
      </g>
     </g>
     <g id="text_18">
      <!-- 3 -->
      <g transform="translate(33.2775 81.878219) scale(0.1 -0.1)">
       <use xlink:href="#DejaVuSans-33"/>
      </g>
     </g>
    </g>
    <g id="ytick_9">
     <g id="line2d_18">
      <g>
       <use xlink:href="#m0f9f91213b" x="46.64" y="45.856" style="stroke: #000000; stroke-width: 0.8"/>
      </g>
     </g>
     <g id="text_19">
      <!-- 4 -->
      <g transform="translate(33.2775 49.655219) scale(0.1 -0.1)">
       <use xlink:href="#DejaVuSans-34"/>
      </g>
     </g>
    </g>
    <g id="text_20">
     <!-- Relative distance in second direction -->
     <g transform="translate(18.818125 266.755031) rotate(-90) scale(0.1 -0.1)">
      <use xlink:href="#DejaVuSans-52"/>
      <use xlink:href="#DejaVuSans-65" transform="translate(64.982422 0)"/>
      <use xlink:href="#DejaVuSans-6c" transform="translate(126.505859 0)"/>
      <use xlink:href="#DejaVuSans-61" transform="translate(154.289062 0)"/>
      <use xlink:href="#DejaVuSans-74" transform="translate(215.568359 0)"/>
      <use xlink:href="#DejaVuSans-69" transform="translate(254.777344 0)"/>
      <use xlink:href="#DejaVuSans-76" transform="translate(282.560547 0)"/>
      <use xlink:href="#DejaVuSans-65" transform="translate(341.740234 0)"/>
      <use xlink:href="#DejaVuSans-20" transform="translate(403.263672 0)"/>
      <use xlink:href="#DejaVuSans-64" transform="translate(435.050781 0)"/>
      <use xlink:href="#DejaVuSans-69" transform="translate(498.527344 0)"/>
      <use xlink:href="#DejaVuSans-73" transform="translate(526.310547 0)"/>
      <use xlink:href="#DejaVuSans-74" transform="translate(578.410156 0)"/>
      <use xlink:href="#DejaVuSans-61" transform="translate(617.619141 0)"/>
      <use xlink:href="#DejaVuSans-6e" transform="translate(678.898438 0)"/>
      <use xlink:href="#DejaVuSans-63" transform="translate(742.277344 0)"/>
      <use xlink:href="#DejaVuSans-65" transform="translate(797.257812 0)"/>
      <use xlink:href="#DejaVuSans-20" transform="translate(858.78125 0)"/>
      <use xlink:href="#DejaVuSans-69" transform="translate(890.568359 0)"/>
      <use xlink:href="#DejaVuSans-6e" transform="translate(918.351562 0)"/>
      <use xlink:href="#DejaVuSans-20" transform="translate(981.730469 0)"/>
      <use xlink:href="#DejaVuSans-73" transform="translate(1013.517578 0)"/>
      <use xlink:href="#DejaVuSans-65" transform="translate(1065.617188 0)"/>
      <use xlink:href="#DejaVuSans-63" transform="translate(1127.140625 0)"/>
      <use xlink:href="#DejaVuSans-6f" transform="translate(1182.121094 0)"/>
      <use xlink:href="#DejaVuSans-6e" transform="translate(1243.302734 0)"/>
      <use xlink:href="#DejaVuSans-64" transform="translate(1306.681641 0)"/>
      <use xlink:href="#DejaVuSans-20" transform="translate(1370.158203 0)"/>
      <use xlink:href="#DejaVuSans-64" transform="translate(1401.945312 0)"/>
      <use xlink:href="#DejaVuSans-69" transform="translate(1465.421875 0)"/>
      <use xlink:href="#DejaVuSans-72" transform="translate(1493.205078 0)"/>
      <use xlink:href="#DejaVuSans-65" transform="translate(1532.068359 0)"/>
      <use xlink:href="#DejaVuSans-63" transform="translate(1593.591797 0)"/>
      <use xlink:href="#DejaVuSans-74" transform="translate(1648.572266 0)"/>
      <use xlink:href="#DejaVuSans-69" transform="translate(1687.78125 0)"/>
      <use xlink:href="#DejaVuSans-6f" transform="translate(1715.564453 0)"/>
      <use xlink:href="#DejaVuSans-6e" transform="translate(1776.746094 0)"/>
     </g>
    </g>
   </g>
   <g id="line2d_19">
    <path d="M 290.927688 190.8595 
L 289.702401 190.311658 
L 289.251149 190.305232 
L 286.766796 189.486008 
L 283.309298 188.290411 
L 280.780636 187.43283 
L 275.377728 185.41035 
L 269.695321 182.920923 
L 257.92394 177.485872 
L 251.798829 174.924105 
L 245.158178 172.169807 
L 239.527601 170.310565 
L 234.281664 168.020625 
L 230.22053 166.334988 
L 224.413507 164.086083 
L 219.389275 162.510172 
L 217.938805 162.69449 
L 217.451788 162.837741 
L 215.345415 163.10435 
L 214.380229 163.936694 
L 210.90468 163.497897 
L 205.364895 162.531922 
L 204.149246 162.295341 
L 202.73428 162.229956 
L 202.200793 162.600943 
L 201.623029 163.219456 
L 201.262429 164.500895 
L 201.072561 164.806178 
L 200.364413 165.645402 
L 200.019104 166.339274 
L 200.067903 166.759194 
L 200.637667 169.465152 
L 202.806284 173.150615 
L 203.840428 174.583609 
L 204.273585 174.803768 
L 204.260978 174.759832 
L 204.24496 174.748 
" clip-path="url(#pf39014806b)" style="fill: none; stroke: #ff0000; stroke-width: 1.5; stroke-linecap: square"/>
   </g>
   <g id="patch_3">
    <path d="M 46.64 303.64 
L 46.64 45.856 
" style="fill: none; stroke: #000000; stroke-width: 0.8; stroke-linejoin: miter; stroke-linecap: square"/>
   </g>
   <g id="patch_4">
    <path d="M 361.84992 303.64 
L 361.84992 45.856 
" style="fill: none; stroke: #000000; stroke-width: 0.8; stroke-linejoin: miter; stroke-linecap: square"/>
   </g>
   <g id="patch_5">
    <path d="M 46.64 303.64 
L 361.84992 303.64 
" style="fill: none; stroke: #000000; stroke-width: 0.8; stroke-linejoin: miter; stroke-linecap: square"/>
   </g>
   <g id="patch_6">
    <path d="M 46.64 45.856 
L 361.84992 45.856 
" style="fill: none; stroke: #000000; stroke-width: 0.8; stroke-linejoin: miter; stroke-linecap: square"/>
   </g>
   <g id="text_21">
    <!-- Relative error across two random directions -->
    <g transform="translate(73.143085 22.418625) scale(0.12 -0.12)">
     <defs>
      <path id="DejaVuSans-77" d="M 269 3500 
L 844 3500 
L 1563 769 
L 2278 3500 
L 2956 3500 
L 3675 769 
L 4391 3500 
L 4966 3500 
L 4050 0 
L 3372 0 
L 2619 2869 
L 1863 0 
L 1184 0 
L 269 3500 
z
" transform="scale(0.015625)"/>
      <path id="DejaVuSans-6d" d="M 3328 2828 
Q 3544 3216 3844 3400 
Q 4144 3584 4550 3584 
Q 5097 3584 5394 3201 
Q 5691 2819 5691 2113 
L 5691 0 
L 5113 0 
L 5113 2094 
Q 5113 2597 4934 2840 
Q 4756 3084 4391 3084 
Q 3944 3084 3684 2787 
Q 3425 2491 3425 1978 
L 3425 0 
L 2847 0 
L 2847 2094 
Q 2847 2600 2669 2842 
Q 2491 3084 2119 3084 
Q 1678 3084 1418 2786 
Q 1159 2488 1159 1978 
L 1159 0 
L 581 0 
L 581 3500 
L 1159 3500 
L 1159 2956 
Q 1356 3278 1631 3431 
Q 1906 3584 2284 3584 
Q 2666 3584 2933 3390 
Q 3200 3197 3328 2828 
z
" transform="scale(0.015625)"/>
     </defs>
     <use xlink:href="#DejaVuSans-52"/>
     <use xlink:href="#DejaVuSans-65" transform="translate(64.982422 0)"/>
     <use xlink:href="#DejaVuSans-6c" transform="translate(126.505859 0)"/>
     <use xlink:href="#DejaVuSans-61" transform="translate(154.289062 0)"/>
     <use xlink:href="#DejaVuSans-74" transform="translate(215.568359 0)"/>
     <use xlink:href="#DejaVuSans-69" transform="translate(254.777344 0)"/>
     <use xlink:href="#DejaVuSans-76" transform="translate(282.560547 0)"/>
     <use xlink:href="#DejaVuSans-65" transform="translate(341.740234 0)"/>
     <use xlink:href="#DejaVuSans-20" transform="translate(403.263672 0)"/>
     <use xlink:href="#DejaVuSans-65" transform="translate(435.050781 0)"/>
     <use xlink:href="#DejaVuSans-72" transform="translate(496.574219 0)"/>
     <use xlink:href="#DejaVuSans-72" transform="translate(535.9375 0)"/>
     <use xlink:href="#DejaVuSans-6f" transform="translate(574.800781 0)"/>
     <use xlink:href="#DejaVuSans-72" transform="translate(635.982422 0)"/>
     <use xlink:href="#DejaVuSans-20" transform="translate(677.095703 0)"/>
     <use xlink:href="#DejaVuSans-61" transform="translate(708.882812 0)"/>
     <use xlink:href="#DejaVuSans-63" transform="translate(770.162109 0)"/>
     <use xlink:href="#DejaVuSans-72" transform="translate(825.142578 0)"/>
     <use xlink:href="#DejaVuSans-6f" transform="translate(864.005859 0)"/>
     <use xlink:href="#DejaVuSans-73" transform="translate(925.1875 0)"/>
     <use xlink:href="#DejaVuSans-73" transform="translate(977.287109 0)"/>
     <use xlink:href="#DejaVuSans-20" transform="translate(1029.386719 0)"/>
     <use xlink:href="#DejaVuSans-74" transform="translate(1061.173828 0)"/>
     <use xlink:href="#DejaVuSans-77" transform="translate(1100.382812 0)"/>
     <use xlink:href="#DejaVuSans-6f" transform="translate(1182.169922 0)"/>
     <use xlink:href="#DejaVuSans-20" transform="translate(1243.351562 0)"/>
     <use xlink:href="#DejaVuSans-72" transform="translate(1275.138672 0)"/>
     <use xlink:href="#DejaVuSans-61" transform="translate(1316.251953 0)"/>
     <use xlink:href="#DejaVuSans-6e" transform="translate(1377.53125 0)"/>
     <use xlink:href="#DejaVuSans-64" transform="translate(1440.910156 0)"/>
     <use xlink:href="#DejaVuSans-6f" transform="translate(1504.386719 0)"/>
     <use xlink:href="#DejaVuSans-6d" transform="translate(1565.568359 0)"/>
     <use xlink:href="#DejaVuSans-20" transform="translate(1662.980469 0)"/>
     <use xlink:href="#DejaVuSans-64" transform="translate(1694.767578 0)"/>
     <use xlink:href="#DejaVuSans-69" transform="translate(1758.244141 0)"/>
     <use xlink:href="#DejaVuSans-72" transform="translate(1786.027344 0)"/>
     <use xlink:href="#DejaVuSans-65" transform="translate(1824.890625 0)"/>
     <use xlink:href="#DejaVuSans-63" transform="translate(1886.414062 0)"/>
     <use xlink:href="#DejaVuSans-74" transform="translate(1941.394531 0)"/>
     <use xlink:href="#DejaVuSans-69" transform="translate(1980.603516 0)"/>
     <use xlink:href="#DejaVuSans-6f" transform="translate(2008.386719 0)"/>
     <use xlink:href="#DejaVuSans-6e" transform="translate(2069.568359 0)"/>
     <use xlink:href="#DejaVuSans-73" transform="translate(2132.947266 0)"/>
    </g>
    <!-- in unknown parameters -->
    <g transform="translate(132.89746 35.856) scale(0.12 -0.12)">
     <defs>
      <path id="DejaVuSans-75" d="M 544 1381 
L 544 3500 
L 1119 3500 
L 1119 1403 
Q 1119 906 1312 657 
Q 1506 409 1894 409 
Q 2359 409 2629 706 
Q 2900 1003 2900 1516 
L 2900 3500 
L 3475 3500 
L 3475 0 
L 2900 0 
L 2900 538 
Q 2691 219 2414 64 
Q 2138 -91 1772 -91 
Q 1169 -91 856 284 
Q 544 659 544 1381 
z
M 1991 3584 
L 1991 3584 
z
" transform="scale(0.015625)"/>
      <path id="DejaVuSans-6b" d="M 581 4863 
L 1159 4863 
L 1159 1991 
L 2875 3500 
L 3609 3500 
L 1753 1863 
L 3688 0 
L 2938 0 
L 1159 1709 
L 1159 0 
L 581 0 
L 581 4863 
z
" transform="scale(0.015625)"/>
      <path id="DejaVuSans-70" d="M 1159 525 
L 1159 -1331 
L 581 -1331 
L 581 3500 
L 1159 3500 
L 1159 2969 
Q 1341 3281 1617 3432 
Q 1894 3584 2278 3584 
Q 2916 3584 3314 3078 
Q 3713 2572 3713 1747 
Q 3713 922 3314 415 
Q 2916 -91 2278 -91 
Q 1894 -91 1617 61 
Q 1341 213 1159 525 
z
M 3116 1747 
Q 3116 2381 2855 2742 
Q 2594 3103 2138 3103 
Q 1681 3103 1420 2742 
Q 1159 2381 1159 1747 
Q 1159 1113 1420 752 
Q 1681 391 2138 391 
Q 2594 391 2855 752 
Q 3116 1113 3116 1747 
z
" transform="scale(0.015625)"/>
     </defs>
     <use xlink:href="#DejaVuSans-69"/>
     <use xlink:href="#DejaVuSans-6e" transform="translate(27.783203 0)"/>
     <use xlink:href="#DejaVuSans-20" transform="translate(91.162109 0)"/>
     <use xlink:href="#DejaVuSans-75" transform="translate(122.949219 0)"/>
     <use xlink:href="#DejaVuSans-6e" transform="translate(186.328125 0)"/>
     <use xlink:href="#DejaVuSans-6b" transform="translate(249.707031 0)"/>
     <use xlink:href="#DejaVuSans-6e" transform="translate(307.617188 0)"/>
     <use xlink:href="#DejaVuSans-6f" transform="translate(370.996094 0)"/>
     <use xlink:href="#DejaVuSans-77" transform="translate(432.177734 0)"/>
     <use xlink:href="#DejaVuSans-6e" transform="translate(513.964844 0)"/>
     <use xlink:href="#DejaVuSans-20" transform="translate(577.34375 0)"/>
     <use xlink:href="#DejaVuSans-70" transform="translate(609.130859 0)"/>
     <use xlink:href="#DejaVuSans-61" transform="translate(672.607422 0)"/>
     <use xlink:href="#DejaVuSans-72" transform="translate(733.886719 0)"/>
     <use xlink:href="#DejaVuSans-61" transform="translate(775 0)"/>
     <use xlink:href="#DejaVuSans-6d" transform="translate(836.279297 0)"/>
     <use xlink:href="#DejaVuSans-65" transform="translate(933.691406 0)"/>
     <use xlink:href="#DejaVuSans-74" transform="translate(995.214844 0)"/>
     <use xlink:href="#DejaVuSans-65" transform="translate(1034.423828 0)"/>
     <use xlink:href="#DejaVuSans-72" transform="translate(1095.947266 0)"/>
     <use xlink:href="#DejaVuSans-73" transform="translate(1137.060547 0)"/>
    </g>
   </g>
  </g>
  <g id="axes_2">
   <g id="patch_7">
    <path d="M 381.55054 303.64 
L 394.43974 303.64 
L 394.43974 45.856 
L 381.55054 45.856 
z
" style="fill: #ffffff"/>
   </g>
   <g id="QuadMesh_1">
    <path d="M 381.55054 303.64 
L 394.43974 303.64 
L 394.43974 291.364571 
L 381.55054 291.364571 
L 381.55054 303.64 
" clip-path="url(#pe69ec50c8f)" style="fill: #460a5d"/>
    <path d="M 381.55054 291.364571 
L 394.43974 291.364571 
L 394.43974 279.089143 
L 381.55054 279.089143 
L 381.55054 291.364571 
" clip-path="url(#pe69ec50c8f)" style="fill: #481b6d"/>
    <path d="M 381.55054 279.089143 
L 394.43974 279.089143 
L 394.43974 266.813714 
L 381.55054 266.813714 
L 381.55054 279.089143 
" clip-path="url(#pe69ec50c8f)" style="fill: #472a7a"/>
    <path d="M 381.55054 266.813714 
L 394.43974 266.813714 
L 394.43974 254.538286 
L 381.55054 254.538286 
L 381.55054 266.813714 
" clip-path="url(#pe69ec50c8f)" style="fill: #443983"/>
    <path d="M 381.55054 254.538286 
L 394.43974 254.538286 
L 394.43974 242.262857 
L 381.55054 242.262857 
L 381.55054 254.538286 
" clip-path="url(#pe69ec50c8f)" style="fill: #3f4788"/>
    <path d="M 381.55054 242.262857 
L 394.43974 242.262857 
L 394.43974 229.987429 
L 381.55054 229.987429 
L 381.55054 242.262857 
" clip-path="url(#pe69ec50c8f)" style="fill: #39558c"/>
    <path d="M 381.55054 229.987429 
L 394.43974 229.987429 
L 394.43974 217.712 
L 381.55054 217.712 
L 381.55054 229.987429 
" clip-path="url(#pe69ec50c8f)" style="fill: #33628d"/>
    <path d="M 381.55054 217.712 
L 394.43974 217.712 
L 394.43974 205.436571 
L 381.55054 205.436571 
L 381.55054 217.712 
" clip-path="url(#pe69ec50c8f)" style="fill: #2e6e8e"/>
    <path d="M 381.55054 205.436571 
L 394.43974 205.436571 
L 394.43974 193.161143 
L 381.55054 193.161143 
L 381.55054 205.436571 
" clip-path="url(#pe69ec50c8f)" style="fill: #29798e"/>
    <path d="M 381.55054 193.161143 
L 394.43974 193.161143 
L 394.43974 180.885714 
L 381.55054 180.885714 
L 381.55054 193.161143 
" clip-path="url(#pe69ec50c8f)" style="fill: #25848e"/>
    <path d="M 381.55054 180.885714 
L 394.43974 180.885714 
L 394.43974 168.610286 
L 381.55054 168.610286 
L 381.55054 180.885714 
" clip-path="url(#pe69ec50c8f)" style="fill: #21918c"/>
    <path d="M 381.55054 168.610286 
L 394.43974 168.610286 
L 394.43974 156.334857 
L 381.55054 156.334857 
L 381.55054 168.610286 
" clip-path="url(#pe69ec50c8f)" style="fill: #1e9c89"/>
    <path d="M 381.55054 156.334857 
L 394.43974 156.334857 
L 394.43974 144.059429 
L 381.55054 144.059429 
L 381.55054 156.334857 
" clip-path="url(#pe69ec50c8f)" style="fill: #22a785"/>
    <path d="M 381.55054 144.059429 
L 394.43974 144.059429 
L 394.43974 131.784 
L 381.55054 131.784 
L 381.55054 144.059429 
" clip-path="url(#pe69ec50c8f)" style="fill: #2db27d"/>
    <path d="M 381.55054 131.784 
L 394.43974 131.784 
L 394.43974 119.508571 
L 381.55054 119.508571 
L 381.55054 131.784 
" clip-path="url(#pe69ec50c8f)" style="fill: #3fbc73"/>
    <path d="M 381.55054 119.508571 
L 394.43974 119.508571 
L 394.43974 107.233143 
L 381.55054 107.233143 
L 381.55054 119.508571 
" clip-path="url(#pe69ec50c8f)" style="fill: #56c667"/>
    <path d="M 381.55054 107.233143 
L 394.43974 107.233143 
L 394.43974 94.957714 
L 381.55054 94.957714 
L 381.55054 107.233143 
" clip-path="url(#pe69ec50c8f)" style="fill: #73d056"/>
    <path d="M 381.55054 94.957714 
L 394.43974 94.957714 
L 394.43974 82.682286 
L 381.55054 82.682286 
L 381.55054 94.957714 
" clip-path="url(#pe69ec50c8f)" style="fill: #90d743"/>
    <path d="M 381.55054 82.682286 
L 394.43974 82.682286 
L 394.43974 70.406857 
L 381.55054 70.406857 
L 381.55054 82.682286 
" clip-path="url(#pe69ec50c8f)" style="fill: #b0dd2f"/>
    <path d="M 381.55054 70.406857 
L 394.43974 70.406857 
L 394.43974 58.131429 
L 381.55054 58.131429 
L 381.55054 70.406857 
" clip-path="url(#pe69ec50c8f)" style="fill: #d0e11c"/>
    <path d="M 381.55054 58.131429 
L 394.43974 58.131429 
L 394.43974 45.856 
L 381.55054 45.856 
L 381.55054 58.131429 
" clip-path="url(#pe69ec50c8f)" style="fill: #efe51c"/>
   </g>
   <g id="matplotlib.axis_3"/>
   <g id="matplotlib.axis_4">
    <g id="ytick_10">
     <g id="line2d_20">
      <defs>
       <path id="m295aafce48" d="M 0 0 
L 3.5 0 
" style="stroke: #000000; stroke-width: 0.8"/>
      </defs>
      <g>
       <use xlink:href="#m295aafce48" x="394.43974" y="303.64" style="stroke: #000000; stroke-width: 0.8"/>
      </g>
     </g>
     <g id="text_22">
      <!-- 0.000 -->
      <g transform="translate(401.43974 307.439219) scale(0.1 -0.1)">
       <defs>
        <path id="DejaVuSans-2e" d="M 684 794 
L 1344 794 
L 1344 0 
L 684 0 
L 684 794 
z
" transform="scale(0.015625)"/>
       </defs>
       <use xlink:href="#DejaVuSans-30"/>
       <use xlink:href="#DejaVuSans-2e" transform="translate(63.623047 0)"/>
       <use xlink:href="#DejaVuSans-30" transform="translate(95.410156 0)"/>
       <use xlink:href="#DejaVuSans-30" transform="translate(159.033203 0)"/>
       <use xlink:href="#DejaVuSans-30" transform="translate(222.65625 0)"/>
      </g>
     </g>
    </g>
    <g id="ytick_11">
     <g id="line2d_21">
      <g>
       <use xlink:href="#m295aafce48" x="394.43974" y="266.813714" style="stroke: #000000; stroke-width: 0.8"/>
      </g>
     </g>
     <g id="text_23">
      <!-- 0.018 -->
      <g transform="translate(401.43974 270.612933) scale(0.1 -0.1)">
       <defs>
        <path id="DejaVuSans-38" d="M 2034 2216 
Q 1584 2216 1326 1975 
Q 1069 1734 1069 1313 
Q 1069 891 1326 650 
Q 1584 409 2034 409 
Q 2484 409 2743 651 
Q 3003 894 3003 1313 
Q 3003 1734 2745 1975 
Q 2488 2216 2034 2216 
z
M 1403 2484 
Q 997 2584 770 2862 
Q 544 3141 544 3541 
Q 544 4100 942 4425 
Q 1341 4750 2034 4750 
Q 2731 4750 3128 4425 
Q 3525 4100 3525 3541 
Q 3525 3141 3298 2862 
Q 3072 2584 2669 2484 
Q 3125 2378 3379 2068 
Q 3634 1759 3634 1313 
Q 3634 634 3220 271 
Q 2806 -91 2034 -91 
Q 1263 -91 848 271 
Q 434 634 434 1313 
Q 434 1759 690 2068 
Q 947 2378 1403 2484 
z
M 1172 3481 
Q 1172 3119 1398 2916 
Q 1625 2713 2034 2713 
Q 2441 2713 2670 2916 
Q 2900 3119 2900 3481 
Q 2900 3844 2670 4047 
Q 2441 4250 2034 4250 
Q 1625 4250 1398 4047 
Q 1172 3844 1172 3481 
z
" transform="scale(0.015625)"/>
       </defs>
       <use xlink:href="#DejaVuSans-30"/>
       <use xlink:href="#DejaVuSans-2e" transform="translate(63.623047 0)"/>
       <use xlink:href="#DejaVuSans-30" transform="translate(95.410156 0)"/>
       <use xlink:href="#DejaVuSans-31" transform="translate(159.033203 0)"/>
       <use xlink:href="#DejaVuSans-38" transform="translate(222.65625 0)"/>
      </g>
     </g>
    </g>
    <g id="ytick_12">
     <g id="line2d_22">
      <g>
       <use xlink:href="#m295aafce48" x="394.43974" y="229.987429" style="stroke: #000000; stroke-width: 0.8"/>
      </g>
     </g>
     <g id="text_24">
      <!-- 0.036 -->
      <g transform="translate(401.43974 233.786647) scale(0.1 -0.1)">
       <defs>
        <path id="DejaVuSans-36" d="M 2113 2584 
Q 1688 2584 1439 2293 
Q 1191 2003 1191 1497 
Q 1191 994 1439 701 
Q 1688 409 2113 409 
Q 2538 409 2786 701 
Q 3034 994 3034 1497 
Q 3034 2003 2786 2293 
Q 2538 2584 2113 2584 
z
M 3366 4563 
L 3366 3988 
Q 3128 4100 2886 4159 
Q 2644 4219 2406 4219 
Q 1781 4219 1451 3797 
Q 1122 3375 1075 2522 
Q 1259 2794 1537 2939 
Q 1816 3084 2150 3084 
Q 2853 3084 3261 2657 
Q 3669 2231 3669 1497 
Q 3669 778 3244 343 
Q 2819 -91 2113 -91 
Q 1303 -91 875 529 
Q 447 1150 447 2328 
Q 447 3434 972 4092 
Q 1497 4750 2381 4750 
Q 2619 4750 2861 4703 
Q 3103 4656 3366 4563 
z
" transform="scale(0.015625)"/>
       </defs>
       <use xlink:href="#DejaVuSans-30"/>
       <use xlink:href="#DejaVuSans-2e" transform="translate(63.623047 0)"/>
       <use xlink:href="#DejaVuSans-30" transform="translate(95.410156 0)"/>
       <use xlink:href="#DejaVuSans-33" transform="translate(159.033203 0)"/>
       <use xlink:href="#DejaVuSans-36" transform="translate(222.65625 0)"/>
      </g>
     </g>
    </g>
    <g id="ytick_13">
     <g id="line2d_23">
      <g>
       <use xlink:href="#m295aafce48" x="394.43974" y="193.161143" style="stroke: #000000; stroke-width: 0.8"/>
      </g>
     </g>
     <g id="text_25">
      <!-- 0.054 -->
      <g transform="translate(401.43974 196.960362) scale(0.1 -0.1)">
       <defs>
        <path id="DejaVuSans-35" d="M 691 4666 
L 3169 4666 
L 3169 4134 
L 1269 4134 
L 1269 2991 
Q 1406 3038 1543 3061 
Q 1681 3084 1819 3084 
Q 2600 3084 3056 2656 
Q 3513 2228 3513 1497 
Q 3513 744 3044 326 
Q 2575 -91 1722 -91 
Q 1428 -91 1123 -41 
Q 819 9 494 109 
L 494 744 
Q 775 591 1075 516 
Q 1375 441 1709 441 
Q 2250 441 2565 725 
Q 2881 1009 2881 1497 
Q 2881 1984 2565 2268 
Q 2250 2553 1709 2553 
Q 1456 2553 1204 2497 
Q 953 2441 691 2322 
L 691 4666 
z
" transform="scale(0.015625)"/>
       </defs>
       <use xlink:href="#DejaVuSans-30"/>
       <use xlink:href="#DejaVuSans-2e" transform="translate(63.623047 0)"/>
       <use xlink:href="#DejaVuSans-30" transform="translate(95.410156 0)"/>
       <use xlink:href="#DejaVuSans-35" transform="translate(159.033203 0)"/>
       <use xlink:href="#DejaVuSans-34" transform="translate(222.65625 0)"/>
      </g>
     </g>
    </g>
    <g id="ytick_14">
     <g id="line2d_24">
      <g>
       <use xlink:href="#m295aafce48" x="394.43974" y="156.334857" style="stroke: #000000; stroke-width: 0.8"/>
      </g>
     </g>
     <g id="text_26">
      <!-- 0.072 -->
      <g transform="translate(401.43974 160.134076) scale(0.1 -0.1)">
       <defs>
        <path id="DejaVuSans-37" d="M 525 4666 
L 3525 4666 
L 3525 4397 
L 1831 0 
L 1172 0 
L 2766 4134 
L 525 4134 
L 525 4666 
z
" transform="scale(0.015625)"/>
       </defs>
       <use xlink:href="#DejaVuSans-30"/>
       <use xlink:href="#DejaVuSans-2e" transform="translate(63.623047 0)"/>
       <use xlink:href="#DejaVuSans-30" transform="translate(95.410156 0)"/>
       <use xlink:href="#DejaVuSans-37" transform="translate(159.033203 0)"/>
       <use xlink:href="#DejaVuSans-32" transform="translate(222.65625 0)"/>
      </g>
     </g>
    </g>
    <g id="ytick_15">
     <g id="line2d_25">
      <g>
       <use xlink:href="#m295aafce48" x="394.43974" y="119.508571" style="stroke: #000000; stroke-width: 0.8"/>
      </g>
     </g>
     <g id="text_27">
      <!-- 0.090 -->
      <g transform="translate(401.43974 123.30779) scale(0.1 -0.1)">
       <defs>
        <path id="DejaVuSans-39" d="M 703 97 
L 703 672 
Q 941 559 1184 500 
Q 1428 441 1663 441 
Q 2288 441 2617 861 
Q 2947 1281 2994 2138 
Q 2813 1869 2534 1725 
Q 2256 1581 1919 1581 
Q 1219 1581 811 2004 
Q 403 2428 403 3163 
Q 403 3881 828 4315 
Q 1253 4750 1959 4750 
Q 2769 4750 3195 4129 
Q 3622 3509 3622 2328 
Q 3622 1225 3098 567 
Q 2575 -91 1691 -91 
Q 1453 -91 1209 -44 
Q 966 3 703 97 
z
M 1959 2075 
Q 2384 2075 2632 2365 
Q 2881 2656 2881 3163 
Q 2881 3666 2632 3958 
Q 2384 4250 1959 4250 
Q 1534 4250 1286 3958 
Q 1038 3666 1038 3163 
Q 1038 2656 1286 2365 
Q 1534 2075 1959 2075 
z
" transform="scale(0.015625)"/>
       </defs>
       <use xlink:href="#DejaVuSans-30"/>
       <use xlink:href="#DejaVuSans-2e" transform="translate(63.623047 0)"/>
       <use xlink:href="#DejaVuSans-30" transform="translate(95.410156 0)"/>
       <use xlink:href="#DejaVuSans-39" transform="translate(159.033203 0)"/>
       <use xlink:href="#DejaVuSans-30" transform="translate(222.65625 0)"/>
      </g>
     </g>
    </g>
    <g id="ytick_16">
     <g id="line2d_26">
      <g>
       <use xlink:href="#m295aafce48" x="394.43974" y="82.682286" style="stroke: #000000; stroke-width: 0.8"/>
      </g>
     </g>
     <g id="text_28">
      <!-- 0.108 -->
      <g transform="translate(401.43974 86.481504) scale(0.1 -0.1)">
       <use xlink:href="#DejaVuSans-30"/>
       <use xlink:href="#DejaVuSans-2e" transform="translate(63.623047 0)"/>
       <use xlink:href="#DejaVuSans-31" transform="translate(95.410156 0)"/>
       <use xlink:href="#DejaVuSans-30" transform="translate(159.033203 0)"/>
       <use xlink:href="#DejaVuSans-38" transform="translate(222.65625 0)"/>
      </g>
     </g>
    </g>
    <g id="ytick_17">
     <g id="line2d_27">
      <g>
       <use xlink:href="#m295aafce48" x="394.43974" y="45.856" style="stroke: #000000; stroke-width: 0.8"/>
      </g>
     </g>
     <g id="text_29">
      <!-- 0.126 -->
      <g transform="translate(401.43974 49.655219) scale(0.1 -0.1)">
       <use xlink:href="#DejaVuSans-30"/>
       <use xlink:href="#DejaVuSans-2e" transform="translate(63.623047 0)"/>
       <use xlink:href="#DejaVuSans-31" transform="translate(95.410156 0)"/>
       <use xlink:href="#DejaVuSans-32" transform="translate(159.033203 0)"/>
       <use xlink:href="#DejaVuSans-36" transform="translate(222.65625 0)"/>
      </g>
     </g>
    </g>
    <g id="text_30">
     <!-- Relative error -->
     <g transform="translate(441.666302 208.603469) rotate(-90) scale(0.1 -0.1)">
      <use xlink:href="#DejaVuSans-52"/>
      <use xlink:href="#DejaVuSans-65" transform="translate(64.982422 0)"/>
      <use xlink:href="#DejaVuSans-6c" transform="translate(126.505859 0)"/>
      <use xlink:href="#DejaVuSans-61" transform="translate(154.289062 0)"/>
      <use xlink:href="#DejaVuSans-74" transform="translate(215.568359 0)"/>
      <use xlink:href="#DejaVuSans-69" transform="translate(254.777344 0)"/>
      <use xlink:href="#DejaVuSans-76" transform="translate(282.560547 0)"/>
      <use xlink:href="#DejaVuSans-65" transform="translate(341.740234 0)"/>
      <use xlink:href="#DejaVuSans-20" transform="translate(403.263672 0)"/>
      <use xlink:href="#DejaVuSans-65" transform="translate(435.050781 0)"/>
      <use xlink:href="#DejaVuSans-72" transform="translate(496.574219 0)"/>
      <use xlink:href="#DejaVuSans-72" transform="translate(535.9375 0)"/>
      <use xlink:href="#DejaVuSans-6f" transform="translate(574.800781 0)"/>
      <use xlink:href="#DejaVuSans-72" transform="translate(635.982422 0)"/>
     </g>
    </g>
   </g>
   <g id="LineCollection_1"/>
   <g id="patch_8">
    <path d="M 381.55054 303.64 
L 387.99514 303.64 
L 394.43974 303.64 
L 394.43974 45.856 
L 387.99514 45.856 
L 381.55054 45.856 
L 381.55054 303.64 
z
" style="fill: none; stroke: #000000; stroke-width: 0.8; stroke-linejoin: miter; stroke-linecap: square"/>
   </g>
  </g>
 </g>
 <defs>
  <clipPath id="pf39014806b">
   <rect x="46.64" y="45.856" width="315.20992" height="257.784"/>
  </clipPath>
  <clipPath id="pe69ec50c8f">
   <rect x="381.55054" y="45.856" width="12.8892" height="257.784"/>
  </clipPath>
 </defs>
</svg>
