<?xml version="1.0" encoding="utf-8" standalone="no"?>
<!DOCTYPE svg PUBLIC "-//W3C//DTD SVG 1.1//EN"
  "http://www.w3.org/Graphics/SVG/1.1/DTD/svg11.dtd">
<svg xmlns:xlink="http://www.w3.org/1999/xlink" width="460.8pt" height="345.6pt" viewBox="0 0 460.8 345.6" xmlns="http://www.w3.org/2000/svg" version="1.1">
 <metadata>
  <rdf:RDF xmlns:dc="http://purl.org/dc/elements/1.1/" xmlns:cc="http://creativecommons.org/ns#" xmlns:rdf="http://www.w3.org/1999/02/22-rdf-syntax-ns#">
   <cc:Work>
    <dc:type rdf:resource="http://purl.org/dc/dcmitype/StillImage"/>
    <dc:date>2025-10-16T16:19:44.759907</dc:date>
    <dc:format>image/svg+xml</dc:format>
    <dc:creator>
     <cc:Agent>
      <dc:title>Matplotlib v3.10.6, https://matplotlib.org/</dc:title>
     </cc:Agent>
    </dc:creator>
   </cc:Work>
  </rdf:RDF>
 </metadata>
 <defs>
  <style type="text/css">*{stroke-linejoin: round; stroke-linecap: butt}</style>
 </defs>
 <g id="figure_1">
  <g id="patch_1">
   <path d="M 0 345.6 
L 460.8 345.6 
L 460.8 0 
L 0 0 
z
" style="fill: #ffffff"/>
  </g>
  <g id="axes_1">
   <g id="patch_2">
    <path d="M 46.64 303.64 
L 361.84992 303.64 
L 361.84992 45.856 
L 46.64 45.856 
z
" style="fill: #ffffff"/>
   </g>
   <g id="QuadContourSet_1">
    <path d="M 141.202976 238.862063 
L 156.963472 227.684662 
L 158.635268 226.3048 
L 172.723968 215.472363 
L 175.15278 213.4156 
L 188.484464 202.580714 
L 190.857387 200.5264 
L 204.24496 189.080219 
L 205.878462 187.6372 
L 220.005456 175.022041 
L 220.309743 174.748 
L 234.00066 161.8588 
L 235.765952 160.024606 
L 246.975573 148.9696 
L 251.526448 144.033128 
L 259.280381 136.0804 
L 267.286944 127.139897 
L 271.006422 123.1912 
L 267.286944 111.935175 
L 251.526448 121.972553 
L 250.040009 123.1912 
L 235.765952 134.061807 
L 233.378582 136.0804 
L 220.005456 146.90017 
L 217.620778 148.9696 
L 204.24496 160.403581 
L 202.606428 161.8588 
L 188.484464 174.504306 
L 188.215905 174.748 
L 174.600207 187.6372 
L 172.723968 189.578724 
L 161.676136 200.5264 
L 156.963472 205.598031 
L 149.360104 213.4156 
L 141.202976 222.405777 
L 137.524589 226.3048 
z
" clip-path="url(#pedabbff588)" style="fill: #460a5d"/>
    <path d="M 62.400496 303.64 
L 78.160992 303.64 
L 78.942079 303.64 
L 93.921488 293.005921 
L 96.80838 290.7508 
L 109.681984 281.297801 
L 113.983408 277.8616 
L 125.44248 269.177401 
L 130.602889 264.9724 
L 141.202976 256.696532 
L 146.764792 252.0832 
L 156.963472 243.89364 
L 162.538674 239.194 
L 172.723968 230.795627 
L 177.972782 226.3048 
L 188.484464 217.419858 
L 193.099792 213.4156 
L 204.24496 203.776314 
L 207.94151 200.5264 
L 220.005456 189.869706 
L 222.512613 187.6372 
L 235.765952 175.701339 
L 236.823421 174.748 
L 250.878651 161.8588 
L 251.526448 161.241773 
L 264.655791 148.9696 
L 267.286944 146.402802 
L 278.134601 136.0804 
L 283.04744 131.188963 
L 291.307938 123.1912 
L 298.807936 115.588528 
L 304.177775 110.302 
L 314.568432 99.596599 
L 316.751329 97.4128 
L 328.666214 84.5236 
L 330.328928 82.50819 
L 339.579998 71.6344 
L 346.089424 63.612821 
L 350.150672 58.7452 
L 358.331292 45.856 
L 346.089424 45.856 
L 333.631625 45.856 
L 330.328928 47.369468 
L 314.568432 57.564513 
L 313.014138 58.7452 
L 298.807936 68.884036 
L 295.293906 71.6344 
L 283.04744 80.70999 
L 278.302117 84.5236 
L 267.286944 92.982474 
L 261.902246 97.4128 
L 251.526448 105.653051 
L 245.993662 110.302 
L 235.765952 118.684789 
L 230.503985 123.1912 
L 220.005456 132.051062 
L 215.381993 136.0804 
L 204.24496 145.733336 
L 200.591183 148.9696 
L 188.484464 159.718467 
L 186.104383 161.8588 
L 172.723968 173.996126 
L 171.899734 174.748 
L 157.970437 187.6372 
L 156.963472 188.600419 
L 144.328479 200.5264 
L 141.202976 203.585603 
L 130.973037 213.4156 
L 125.44248 218.930837 
L 117.894395 226.3048 
L 109.681984 234.622889 
L 105.073452 239.194 
L 93.921488 250.64008 
L 92.48657 252.0832 
L 80.629274 264.9724 
L 78.160992 267.839379 
L 69.383744 277.8616 
L 62.400496 286.034264 
L 58.314104 290.7508 
L 48.29099 303.64 
z
M 137.524589 226.3048 
L 141.202976 222.405777 
L 149.360104 213.4156 
L 156.963472 205.598031 
L 161.676136 200.5264 
L 172.723968 189.578724 
L 174.600207 187.6372 
L 188.215905 174.748 
L 188.484464 174.504306 
L 202.606428 161.8588 
L 204.24496 160.403581 
L 217.620778 148.9696 
L 220.005456 146.90017 
L 233.378582 136.0804 
L 235.765952 134.061807 
L 250.040009 123.1912 
L 251.526448 121.972553 
L 267.286944 111.935175 
L 271.006422 123.1912 
L 267.286944 127.139897 
L 259.280381 136.0804 
L 251.526448 144.033128 
L 246.975573 148.9696 
L 235.765952 160.024606 
L 234.00066 161.8588 
L 220.309743 174.748 
L 220.005456 175.022041 
L 205.878462 187.6372 
L 204.24496 189.080219 
L 190.857387 200.5264 
L 188.484464 202.580714 
L 175.15278 213.4156 
L 172.723968 215.472363 
L 158.635268 226.3048 
L 156.963472 227.684662 
L 141.202976 238.862063 
z
" clip-path="url(#pedabbff588)" style="fill: #481d6f"/>
    <path d="M 58.314104 290.7508 
L 62.400496 286.034264 
L 69.383744 277.8616 
L 78.160992 267.839379 
L 80.629274 264.9724 
L 92.48657 252.0832 
L 93.921488 250.64008 
L 105.073452 239.194 
L 109.681984 234.622889 
L 117.894395 226.3048 
L 125.44248 218.930837 
L 130.973037 213.4156 
L 141.202976 203.585603 
L 144.328479 200.5264 
L 156.963472 188.600419 
L 157.970437 187.6372 
L 171.899734 174.748 
L 172.723968 173.996126 
L 186.104383 161.8588 
L 188.484464 159.718467 
L 200.591183 148.9696 
L 204.24496 145.733336 
L 215.381993 136.0804 
L 220.005456 132.051062 
L 230.503985 123.1912 
L 235.765952 118.684789 
L 245.993662 110.302 
L 251.526448 105.653051 
L 261.902246 97.4128 
L 267.286944 92.982474 
L 278.302117 84.5236 
L 283.04744 80.70999 
L 295.293906 71.6344 
L 298.807936 68.884036 
L 313.014138 58.7452 
L 314.568432 57.564513 
L 330.328928 47.369468 
L 333.631625 45.856 
L 330.328928 45.856 
L 314.568432 45.856 
L 306.8511 45.856 
L 298.807936 52.032016 
L 290.510259 58.7452 
L 283.04744 64.615449 
L 274.524069 71.6344 
L 267.286944 77.45906 
L 258.84789 84.5236 
L 251.526448 90.545341 
L 243.447233 97.4128 
L 235.765952 103.860961 
L 228.2959 110.302 
L 220.005456 117.396135 
L 213.374162 123.1912 
L 204.24496 131.143815 
L 198.667044 136.0804 
L 188.484464 145.09881 
L 184.162835 148.9696 
L 172.723968 159.256964 
L 169.851863 161.8588 
L 156.963472 173.614452 
L 155.725582 174.748 
L 141.779365 187.6372 
L 141.202976 188.179124 
L 128.017901 200.5264 
L 125.44248 202.984208 
L 114.436394 213.4156 
L 109.681984 218.013446 
L 101.032269 226.3048 
L 93.921488 233.263319 
L 87.799864 239.194 
L 78.160992 248.727186 
L 74.731231 252.0832 
L 62.400496 264.395983 
L 61.816866 264.9724 
L 49.248388 277.8616 
L 46.64 280.621117 
L 46.64 290.7508 
L 46.64 303.64 
L 48.29099 303.64 
z
M 93.921488 303.64 
L 102.374854 303.64 
L 109.681984 297.894353 
L 118.378473 290.7508 
L 125.44248 285.093177 
L 134.138338 277.8616 
L 141.202976 272.103274 
L 149.678977 264.9724 
L 156.963472 258.934648 
L 165.018479 252.0832 
L 172.723968 245.593886 
L 180.169776 239.194 
L 188.484464 232.084713 
L 195.141771 226.3048 
L 204.24496 218.408557 
L 209.940329 213.4156 
L 220.005456 204.565088 
L 224.569122 200.5264 
L 235.765952 190.552707 
L 239.030319 187.6372 
L 251.526448 176.368963 
L 253.325134 174.748 
L 267.286944 162.01089 
L 267.454228 161.8588 
L 281.415624 148.9696 
L 283.04744 147.426601 
L 295.195304 136.0804 
L 298.807936 132.616917 
L 308.786022 123.1912 
L 314.568432 117.575572 
L 322.18325 110.302 
L 330.328928 102.29464 
L 335.38446 97.4128 
L 346.089424 86.767701 
L 348.388676 84.5236 
L 361.138711 71.6344 
L 361.84992 70.869908 
L 361.84992 58.7452 
L 361.84992 45.856 
L 358.331292 45.856 
L 350.150672 58.7452 
L 346.089424 63.612821 
L 339.579998 71.6344 
L 330.328928 82.50819 
L 328.666214 84.5236 
L 316.751329 97.4128 
L 314.568432 99.596599 
L 304.177775 110.302 
L 298.807936 115.588528 
L 291.307938 123.1912 
L 283.04744 131.188963 
L 278.134601 136.0804 
L 267.286944 146.402802 
L 264.655791 148.9696 
L 251.526448 161.241773 
L 250.878651 161.8588 
L 236.823421 174.748 
L 235.765952 175.701339 
L 222.512613 187.6372 
L 220.005456 189.869706 
L 207.94151 200.5264 
L 204.24496 203.776314 
L 193.099792 213.4156 
L 188.484464 217.419858 
L 177.972782 226.3048 
L 172.723968 230.795627 
L 162.538674 239.194 
L 156.963472 243.89364 
L 146.764792 252.0832 
L 141.202976 256.696532 
L 130.602889 264.9724 
L 125.44248 269.177401 
L 113.983408 277.8616 
L 109.681984 281.297801 
L 96.80838 290.7508 
L 93.921488 293.005921 
L 78.942079 303.64 
z
" clip-path="url(#pedabbff588)" style="fill: #472e7c"/>
    <path d="M 109.681984 303.64 
L 121.32719 303.64 
L 125.44248 300.260287 
L 136.75777 290.7508 
L 141.202976 287.056199 
L 152.050368 277.8616 
L 156.963472 273.73078 
L 167.211325 264.9724 
L 172.723968 260.285774 
L 182.245145 252.0832 
L 188.484464 246.721786 
L 197.154845 239.194 
L 204.24496 233.038469 
L 211.942262 226.3048 
L 220.005456 219.234708 
L 226.608327 213.4156 
L 235.765952 205.30879 
L 241.153297 200.5264 
L 251.526448 191.258549 
L 255.57695 187.6372 
L 267.286944 177.081493 
L 269.878746 174.748 
L 283.04744 162.774908 
L 284.057951 161.8588 
L 298.115002 148.9696 
L 298.807936 148.323648 
L 312.044563 136.0804 
L 314.568432 133.703814 
L 325.838735 123.1912 
L 330.328928 118.921929 
L 339.493669 110.302 
L 346.089424 103.97205 
L 353.006233 97.4128 
L 361.84992 88.848717 
L 361.84992 84.5236 
L 361.84992 71.6344 
L 361.84992 70.869908 
L 361.138711 71.6344 
L 348.388676 84.5236 
L 346.089424 86.767701 
L 335.38446 97.4128 
L 330.328928 102.29464 
L 322.18325 110.302 
L 314.568432 117.575572 
L 308.786022 123.1912 
L 298.807936 132.616917 
L 295.195304 136.0804 
L 283.04744 147.426601 
L 281.415624 148.9696 
L 267.454228 161.8588 
L 267.286944 162.01089 
L 253.325134 174.748 
L 251.526448 176.368963 
L 239.030319 187.6372 
L 235.765952 190.552707 
L 224.569122 200.5264 
L 220.005456 204.565088 
L 209.940329 213.4156 
L 204.24496 218.408557 
L 195.141771 226.3048 
L 188.484464 232.084713 
L 180.169776 239.194 
L 172.723968 245.593886 
L 165.018479 252.0832 
L 156.963472 258.934648 
L 149.678977 264.9724 
L 141.202976 272.103274 
L 134.138338 277.8616 
L 125.44248 285.093177 
L 118.378473 290.7508 
L 109.681984 297.894353 
L 102.374854 303.64 
z
M 49.248388 277.8616 
L 61.816866 264.9724 
L 62.400496 264.395983 
L 74.731231 252.0832 
L 78.160992 248.727186 
L 87.799864 239.194 
L 93.921488 233.263319 
L 101.032269 226.3048 
L 109.681984 218.013446 
L 114.436394 213.4156 
L 125.44248 202.984208 
L 128.017901 200.5264 
L 141.202976 188.179124 
L 141.779365 187.6372 
L 155.725582 174.748 
L 156.963472 173.614452 
L 169.851863 161.8588 
L 172.723968 159.256964 
L 184.162835 148.9696 
L 188.484464 145.09881 
L 198.667044 136.0804 
L 204.24496 131.143815 
L 213.374162 123.1912 
L 220.005456 117.396135 
L 228.2959 110.302 
L 235.765952 103.860961 
L 243.447233 97.4128 
L 251.526448 90.545341 
L 258.84789 84.5236 
L 267.286944 77.45906 
L 274.524069 71.6344 
L 283.04744 64.615449 
L 290.510259 58.7452 
L 298.807936 52.032016 
L 306.8511 45.856 
L 298.807936 45.856 
L 287.327084 45.856 
L 283.04744 49.320368 
L 271.756107 58.7452 
L 267.286944 62.424564 
L 256.395327 71.6344 
L 251.526448 75.707785 
L 241.227982 84.5236 
L 235.765952 89.163499 
L 226.24079 97.4128 
L 220.005456 102.786704 
L 211.423247 110.302 
L 204.24496 116.573581 
L 196.76696 123.1912 
L 188.484464 130.521125 
L 182.265064 136.0804 
L 172.723968 144.626807 
L 167.911721 148.9696 
L 156.963472 158.888274 
L 153.701724 161.8588 
L 141.202976 173.303108 
L 139.630186 174.748 
L 125.693453 187.6372 
L 125.44248 187.871888 
L 111.896164 200.5264 
L 109.681984 202.61974 
L 98.231477 213.4156 
L 93.921488 217.531674 
L 84.697484 226.3048 
L 78.160992 232.605437 
L 71.291054 239.194 
L 62.400496 247.837429 
L 58.008029 252.0832 
L 46.64 263.222887 
L 46.64 264.9724 
L 46.64 277.8616 
L 46.64 280.621117 
z
" clip-path="url(#pedabbff588)" style="fill: #423f85"/>
    <path d="M 125.44248 303.64 
L 139.078483 303.64 
L 141.202976 301.855384 
L 154.245683 290.7508 
L 156.963472 288.448015 
L 169.316329 277.8616 
L 172.723968 274.950003 
L 184.292158 264.9724 
L 188.484464 261.361068 
L 199.174229 252.0832 
L 204.24496 247.680461 
L 213.96304 239.194 
L 220.005456 233.907034 
L 228.65864 226.3048 
L 235.765952 220.03931 
L 243.260721 213.4156 
L 251.526448 206.075542 
L 257.768704 200.5264 
L 267.286944 192.013771 
L 272.18181 187.6372 
L 283.04744 177.851871 
L 286.499116 174.748 
L 298.807936 163.587589 
L 300.719604 161.8588 
L 314.568432 149.218573 
L 314.842204 148.9696 
L 328.868653 136.0804 
L 330.328928 134.720148 
L 342.790915 123.1912 
L 346.089424 120.095096 
L 356.605206 110.302 
L 361.84992 105.342342 
L 361.84992 97.4128 
L 361.84992 88.848717 
L 353.006233 97.4128 
L 346.089424 103.97205 
L 339.493669 110.302 
L 330.328928 118.921929 
L 325.838735 123.1912 
L 314.568432 133.703814 
L 312.044563 136.0804 
L 298.807936 148.323648 
L 298.115002 148.9696 
L 284.057951 161.8588 
L 283.04744 162.774908 
L 269.878746 174.748 
L 267.286944 177.081493 
L 255.57695 187.6372 
L 251.526448 191.258549 
L 241.153297 200.5264 
L 235.765952 205.30879 
L 226.608327 213.4156 
L 220.005456 219.234708 
L 211.942262 226.3048 
L 204.24496 233.038469 
L 197.154845 239.194 
L 188.484464 246.721786 
L 182.245145 252.0832 
L 172.723968 260.285774 
L 167.211325 264.9724 
L 156.963472 273.73078 
L 152.050368 277.8616 
L 141.202976 287.056199 
L 136.75777 290.7508 
L 125.44248 300.260287 
L 121.32719 303.64 
z
M 58.008029 252.0832 
L 62.400496 247.837429 
L 71.291054 239.194 
L 78.160992 232.605437 
L 84.697484 226.3048 
L 93.921488 217.531674 
L 98.231477 213.4156 
L 109.681984 202.61974 
L 111.896164 200.5264 
L 125.44248 187.871888 
L 125.693453 187.6372 
L 139.630186 174.748 
L 141.202976 173.303108 
L 153.701724 161.8588 
L 156.963472 158.888274 
L 167.911721 148.9696 
L 172.723968 144.626807 
L 182.265064 136.0804 
L 188.484464 130.521125 
L 196.76696 123.1912 
L 204.24496 116.573581 
L 211.423247 110.302 
L 220.005456 102.786704 
L 226.24079 97.4128 
L 235.765952 89.163499 
L 241.227982 84.5236 
L 251.526448 75.707785 
L 256.395327 71.6344 
L 267.286944 62.424564 
L 271.756107 58.7452 
L 283.04744 49.320368 
L 287.327084 45.856 
L 283.04744 45.856 
L 269.339666 45.856 
L 267.286944 47.568664 
L 254.158555 58.7452 
L 251.526448 60.969799 
L 239.129129 71.6344 
L 235.765952 74.512161 
L 224.243149 84.5236 
L 220.005456 88.192566 
L 209.493833 97.4128 
L 204.24496 102.008431 
L 194.875539 110.302 
L 188.484464 115.957589 
L 180.383486 123.1912 
L 172.723968 130.038129 
L 166.013501 136.0804 
L 156.963472 144.248242 
L 151.761817 148.9696 
L 141.202976 158.586094 
L 137.624906 161.8588 
L 125.44248 173.049729 
L 123.599352 174.748 
L 109.681984 187.636994 
L 109.681763 187.6372 
L 95.877716 200.5264 
L 93.921488 202.368389 
L 82.179368 213.4156 
L 78.160992 217.230258 
L 68.584973 226.3048 
L 62.400496 232.220655 
L 55.092206 239.194 
L 46.64 247.336946 
L 46.64 252.0832 
L 46.64 263.222887 
z
" clip-path="url(#pedabbff588)" style="fill: #3d4e8a"/>
    <path d="M 141.202976 303.64 
L 156.37605 303.64 
L 156.963472 303.139983 
L 171.396773 290.7508 
L 172.723968 289.613535 
L 186.342544 277.8616 
L 188.484464 276.014212 
L 201.213652 264.9724 
L 204.24496 262.341215 
L 216.010083 252.0832 
L 220.005456 248.593513 
L 230.73157 239.194 
L 235.765952 234.769875 
L 245.377639 226.3048 
L 251.526448 220.868898 
L 259.947645 213.4156 
L 267.286944 206.889034 
L 274.44081 200.5264 
L 283.04744 192.828611 
L 288.856252 187.6372 
L 298.807936 178.685857 
L 303.193009 174.748 
L 314.568432 164.458911 
L 317.450066 161.8588 
L 330.328928 150.145842 
L 331.626365 148.9696 
L 345.721935 136.0804 
L 346.089424 135.740644 
L 359.736804 123.1912 
L 361.84992 121.225315 
L 361.84992 110.302 
L 361.84992 105.342342 
L 356.605206 110.302 
L 346.089424 120.095096 
L 342.790915 123.1912 
L 330.328928 134.720148 
L 328.868653 136.0804 
L 314.842204 148.9696 
L 314.568432 149.218573 
L 300.719604 161.8588 
L 298.807936 163.587589 
L 286.499116 174.748 
L 283.04744 177.851871 
L 272.18181 187.6372 
L 267.286944 192.013771 
L 257.768704 200.5264 
L 251.526448 206.075542 
L 243.260721 213.4156 
L 235.765952 220.03931 
L 228.65864 226.3048 
L 220.005456 233.907034 
L 213.96304 239.194 
L 204.24496 247.680461 
L 199.174229 252.0832 
L 188.484464 261.361068 
L 184.292158 264.9724 
L 172.723968 274.950003 
L 169.316329 277.8616 
L 156.963472 288.448015 
L 154.245683 290.7508 
L 141.202976 301.855384 
L 139.078483 303.64 
z
M 55.092206 239.194 
L 62.400496 232.220655 
L 68.584973 226.3048 
L 78.160992 217.230258 
L 82.179368 213.4156 
L 93.921488 202.368389 
L 95.877716 200.5264 
L 109.681763 187.6372 
L 109.681984 187.636994 
L 123.599352 174.748 
L 125.44248 173.049729 
L 137.624906 161.8588 
L 141.202976 158.586094 
L 151.761817 148.9696 
L 156.963472 144.248242 
L 166.013501 136.0804 
L 172.723968 130.038129 
L 180.383486 123.1912 
L 188.484464 115.957589 
L 194.875539 110.302 
L 204.24496 102.008431 
L 209.493833 97.4128 
L 220.005456 88.192566 
L 224.243149 84.5236 
L 235.765952 74.512161 
L 239.129129 71.6344 
L 251.526448 60.969799 
L 254.158555 58.7452 
L 267.286944 47.568664 
L 269.339666 45.856 
L 267.286944 45.856 
L 252.020492 45.856 
L 251.526448 46.276437 
L 237.085184 58.7452 
L 235.765952 59.879704 
L 222.270814 71.6344 
L 220.005456 73.602213 
L 207.57243 84.5236 
L 204.24496 87.441956 
L 192.985782 97.4128 
L 188.484464 101.397165 
L 178.507165 110.302 
L 172.723968 115.466218 
L 164.133279 123.1912 
L 156.963472 129.647561 
L 149.86111 136.0804 
L 141.202976 143.939628 
L 135.687833 148.9696 
L 125.44248 158.340782 
L 121.610727 161.8588 
L 109.681984 172.849274 
L 107.627118 174.748 
L 93.921488 187.463201 
L 93.734334 187.6372 
L 79.936827 200.5264 
L 78.160992 202.195775 
L 66.228242 213.4156 
L 62.400496 217.038638 
L 52.606265 226.3048 
L 46.64 231.988688 
L 46.64 239.194 
L 46.64 247.336946 
z
" clip-path="url(#pedabbff588)" style="fill: #365d8d"/>
    <path d="M 156.963472 303.64 
L 172.723968 303.64 
L 173.477436 303.64 
L 188.411494 290.7508 
L 188.484464 290.687829 
L 203.280934 277.8616 
L 204.24496 277.025263 
L 218.08855 264.9724 
L 220.005456 263.300726 
L 232.833967 252.0832 
L 235.765952 249.513193 
L 247.516676 239.194 
L 251.526448 235.661521 
L 262.136057 226.3048 
L 267.286944 221.744464 
L 276.691397 213.4156 
L 283.04744 207.760688 
L 291.181906 200.5264 
L 298.807936 193.708775 
L 305.606729 187.6372 
L 314.568432 179.587238 
L 319.964966 174.748 
L 330.328928 165.394526 
L 334.255674 161.8588 
L 346.089424 151.129033 
L 348.477881 148.9696 
L 361.84992 136.789098 
L 361.84992 136.0804 
L 361.84992 123.1912 
L 361.84992 121.225315 
L 359.736804 123.1912 
L 346.089424 135.740644 
L 345.721935 136.0804 
L 331.626365 148.9696 
L 330.328928 150.145842 
L 317.450066 161.8588 
L 314.568432 164.458911 
L 303.193009 174.748 
L 298.807936 178.685857 
L 288.856252 187.6372 
L 283.04744 192.828611 
L 274.44081 200.5264 
L 267.286944 206.889034 
L 259.947645 213.4156 
L 251.526448 220.868898 
L 245.377639 226.3048 
L 235.765952 234.769875 
L 230.73157 239.194 
L 220.005456 248.593513 
L 216.010083 252.0832 
L 204.24496 262.341215 
L 201.213652 264.9724 
L 188.484464 276.014212 
L 186.342544 277.8616 
L 172.723968 289.613535 
L 171.396773 290.7508 
L 156.963472 303.139983 
L 156.37605 303.64 
z
M 52.606265 226.3048 
L 62.400496 217.038638 
L 66.228242 213.4156 
L 78.160992 202.195775 
L 79.936827 200.5264 
L 93.734334 187.6372 
L 93.921488 187.463201 
L 107.627118 174.748 
L 109.681984 172.849274 
L 121.610727 161.8588 
L 125.44248 158.340782 
L 135.687833 148.9696 
L 141.202976 143.939628 
L 149.86111 136.0804 
L 156.963472 129.647561 
L 164.133279 123.1912 
L 172.723968 115.466218 
L 178.507165 110.302 
L 188.484464 101.397165 
L 192.985782 97.4128 
L 204.24496 87.441956 
L 207.57243 84.5236 
L 220.005456 73.602213 
L 222.270814 71.6344 
L 235.765952 59.879704 
L 237.085184 58.7452 
L 251.526448 46.276437 
L 252.020492 45.856 
L 251.526448 45.856 
L 235.765952 45.856 
L 235.076607 45.856 
L 220.308726 58.7452 
L 220.005456 59.009318 
L 205.65164 71.6344 
L 204.24496 72.869954 
L 191.093031 84.5236 
L 188.484464 86.833649 
L 176.629823 97.4128 
L 172.723968 100.898943 
L 162.259232 110.302 
L 156.963472 115.064417 
L 147.978689 123.1912 
L 141.202976 129.328647 
L 133.785779 136.0804 
L 125.44248 143.690167 
L 119.678184 148.9696 
L 109.681984 158.147438 
L 105.653642 161.8588 
L 93.921488 172.698822 
L 91.70991 174.748 
L 78.160992 187.342569 
L 77.844747 187.6372 
L 64.062024 200.5264 
L 62.400496 202.087768 
L 50.356338 213.4156 
L 46.64 216.928742 
L 46.64 226.3048 
L 46.64 231.988688 
z
" clip-path="url(#pedabbff588)" style="fill: #306a8e"/>
    <path d="M 188.484464 303.64 
L 190.50635 303.64 
L 204.24496 291.738208 
L 205.382094 290.7508 
L 220.005456 278.033783 
L 220.203092 277.8616 
L 234.97103 264.9724 
L 235.765952 264.277133 
L 249.685892 252.0832 
L 251.526448 250.466413 
L 264.346843 239.194 
L 267.286944 236.600294 
L 278.953245 226.3048 
L 283.04744 222.677685 
L 293.504403 213.4156 
L 298.807936 208.697436 
L 307.999572 200.5264 
L 314.568432 194.658339 
L 322.437968 187.6372 
L 330.328928 180.559131 
L 336.818766 174.748 
L 346.089424 166.398502 
L 351.141118 161.8588 
L 361.84992 152.175095 
L 361.84992 148.9696 
L 361.84992 136.789098 
L 348.477881 148.9696 
L 346.089424 151.129033 
L 334.255674 161.8588 
L 330.328928 165.394526 
L 319.964966 174.748 
L 314.568432 179.587238 
L 305.606729 187.6372 
L 298.807936 193.708775 
L 291.181906 200.5264 
L 283.04744 207.760688 
L 276.691397 213.4156 
L 267.286944 221.744464 
L 262.136057 226.3048 
L 251.526448 235.661521 
L 247.516676 239.194 
L 235.765952 249.513193 
L 232.833967 252.0832 
L 220.005456 263.300726 
L 218.08855 264.9724 
L 204.24496 277.025263 
L 203.280934 277.8616 
L 188.484464 290.687829 
L 188.411494 290.7508 
L 173.477436 303.64 
z
M 50.356338 213.4156 
L 62.400496 202.087768 
L 64.062024 200.5264 
L 77.844747 187.6372 
L 78.160992 187.342569 
L 91.70991 174.748 
L 93.921488 172.698822 
L 105.653642 161.8588 
L 109.681984 158.147438 
L 119.678184 148.9696 
L 125.44248 143.690167 
L 133.785779 136.0804 
L 141.202976 129.328647 
L 147.978689 123.1912 
L 156.963472 115.064417 
L 162.259232 110.302 
L 172.723968 100.898943 
L 176.629823 97.4128 
L 188.484464 86.833649 
L 191.093031 84.5236 
L 204.24496 72.869954 
L 205.65164 71.6344 
L 220.005456 59.009318 
L 220.308726 58.7452 
L 235.076607 45.856 
L 220.005456 45.856 
L 218.363597 45.856 
L 204.24496 58.288699 
L 203.730454 58.7452 
L 189.193492 71.6344 
L 188.484464 72.262651 
L 174.746888 84.5236 
L 172.723968 86.328931 
L 160.384044 97.4128 
L 156.963472 100.486543 
L 146.102676 110.302 
L 141.202976 114.734146 
L 131.90063 123.1912 
L 125.44248 129.070373 
L 117.77584 136.0804 
L 109.681984 143.493808 
L 103.726298 148.9696 
L 93.921488 158.002965 
L 89.750033 161.8588 
L 78.160992 172.596282 
L 75.845083 174.748 
L 62.400496 187.272108 
L 62.009488 187.6372 
L 48.246841 200.5264 
L 46.64 202.037032 
L 46.64 213.4156 
L 46.64 216.928742 
z
" clip-path="url(#pedabbff588)" style="fill: #2a778e"/>
    <path d="M 204.24496 303.64 
L 207.524132 303.64 
L 220.005456 292.799882 
L 222.361279 290.7508 
L 235.765952 279.069703 
L 237.150831 277.8616 
L 251.526448 265.292716 
L 251.892563 264.9724 
L 266.588796 252.0832 
L 267.286944 251.469166 
L 281.238926 239.194 
L 283.04744 237.597485 
L 295.841176 226.3048 
L 298.807936 223.67619 
L 310.394899 213.4156 
L 314.568432 209.704282 
L 324.899412 200.5264 
L 330.328928 195.680719 
L 339.354 187.6372 
L 346.089424 181.604419 
L 353.757923 174.748 
L 361.84992 167.474258 
L 361.84992 161.8588 
L 361.84992 152.175095 
L 351.141118 161.8588 
L 346.089424 166.398502 
L 336.818766 174.748 
L 330.328928 180.559131 
L 322.437968 187.6372 
L 314.568432 194.658339 
L 307.999572 200.5264 
L 298.807936 208.697436 
L 293.504403 213.4156 
L 283.04744 222.677685 
L 278.953245 226.3048 
L 267.286944 236.600294 
L 264.346843 239.194 
L 251.526448 250.466413 
L 249.685892 252.0832 
L 235.765952 264.277133 
L 234.97103 264.9724 
L 220.203092 277.8616 
L 220.005456 278.033783 
L 205.382094 290.7508 
L 204.24496 291.738208 
L 190.50635 303.64 
z
M 48.246841 200.5264 
L 62.009488 187.6372 
L 62.400496 187.272108 
L 75.845083 174.748 
L 78.160992 172.596282 
L 89.750033 161.8588 
L 93.921488 158.002965 
L 103.726298 148.9696 
L 109.681984 143.493808 
L 117.77584 136.0804 
L 125.44248 129.070373 
L 131.90063 123.1912 
L 141.202976 114.734146 
L 146.102676 110.302 
L 156.963472 100.486543 
L 160.384044 97.4128 
L 172.723968 86.328931 
L 174.746888 84.5236 
L 188.484464 72.262651 
L 189.193492 71.6344 
L 203.730454 58.7452 
L 204.24496 58.288699 
L 218.363597 45.856 
L 204.24496 45.856 
L 201.81027 45.856 
L 188.484464 57.679644 
L 187.291387 58.7452 
L 172.854531 71.6344 
L 172.723968 71.750934 
L 158.50238 84.5236 
L 156.963472 85.905955 
L 144.225207 97.4128 
L 141.202976 100.14436 
L 130.021034 110.302 
L 125.44248 114.464843 
L 115.887963 123.1912 
L 109.681984 128.866063 
L 101.824156 136.0804 
L 93.921488 143.346629 
L 87.827814 148.9696 
L 78.160992 157.905096 
L 73.897161 161.8588 
L 62.400496 172.539953 
L 60.030434 174.748 
L 46.64 187.249622 
L 46.64 187.6372 
L 46.64 200.5264 
L 46.64 202.037032 
z
" clip-path="url(#pedabbff588)" style="fill: #25838e"/>
    <path d="M 220.005456 303.64 
L 224.565288 303.64 
L 235.765952 293.895415 
L 239.377319 290.7508 
L 251.526448 280.149695 
L 254.147252 277.8616 
L 267.286944 266.36233 
L 268.874807 264.9724 
L 283.04744 252.532755 
L 283.55967 252.0832 
L 298.204232 239.194 
L 298.807936 238.660957 
L 312.808306 226.3048 
L 314.568432 224.745652 
L 327.369142 213.4156 
L 330.328928 210.785323 
L 341.886117 200.5264 
L 346.089424 196.779063 
L 356.358587 187.6372 
L 361.84992 182.72593 
L 361.84992 174.748 
L 361.84992 167.474258 
L 353.757923 174.748 
L 346.089424 181.604419 
L 339.354 187.6372 
L 330.328928 195.680719 
L 324.899412 200.5264 
L 314.568432 209.704282 
L 310.394899 213.4156 
L 298.807936 223.67619 
L 295.841176 226.3048 
L 283.04744 237.597485 
L 281.238926 239.194 
L 267.286944 251.469166 
L 266.588796 252.0832 
L 251.892563 264.9724 
L 251.526448 265.292716 
L 237.150831 277.8616 
L 235.765952 279.069703 
L 222.361279 290.7508 
L 220.005456 292.799882 
L 207.524132 303.64 
z
M 60.030434 174.748 
L 62.400496 172.539953 
L 73.897161 161.8588 
L 78.160992 157.905096 
L 87.827814 148.9696 
L 93.921488 143.346629 
L 101.824156 136.0804 
L 109.681984 128.866063 
L 115.887963 123.1912 
L 125.44248 114.464843 
L 130.021034 110.302 
L 141.202976 100.14436 
L 144.225207 97.4128 
L 156.963472 85.905955 
L 158.50238 84.5236 
L 172.723968 71.750934 
L 172.854531 71.6344 
L 187.291387 58.7452 
L 188.484464 57.679644 
L 201.81027 45.856 
L 188.484464 45.856 
L 185.379242 45.856 
L 172.723968 57.159214 
L 170.958636 58.7452 
L 156.963472 71.316543 
L 156.611528 71.6344 
L 142.340411 84.5236 
L 141.202976 85.551163 
L 128.139028 97.4128 
L 125.44248 99.862551 
L 114.003948 110.302 
L 109.681984 114.24968 
L 99.933446 123.1912 
L 93.921488 128.71122 
L 85.925843 136.0804 
L 78.160992 143.2458 
L 71.979489 148.9696 
L 62.400496 157.852002 
L 58.092751 161.8588 
L 46.64 172.528355 
L 46.64 174.748 
L 46.64 187.249622 
z
" clip-path="url(#pedabbff588)" style="fill: #21908d"/>
    <path d="M 235.765952 303.64 
L 241.652876 303.64 
L 251.526448 295.040303 
L 256.449322 290.7508 
L 267.286944 281.286355 
L 271.20802 277.8616 
L 283.04744 267.494931 
L 285.928669 264.9724 
L 298.807936 253.6655 
L 300.61094 252.0832 
L 314.568432 239.797507 
L 315.254484 239.194 
L 329.861271 226.3048 
L 330.328928 225.890736 
L 344.432384 213.4156 
L 346.089424 211.944224 
L 358.963957 200.5264 
L 361.84992 197.956428 
L 361.84992 187.6372 
L 361.84992 182.72593 
L 356.358587 187.6372 
L 346.089424 196.779063 
L 341.886117 200.5264 
L 330.328928 210.785323 
L 327.369142 213.4156 
L 314.568432 224.745652 
L 312.808306 226.3048 
L 298.807936 238.660957 
L 298.204232 239.194 
L 283.55967 252.0832 
L 283.04744 252.532755 
L 268.874807 264.9724 
L 267.286944 266.36233 
L 254.147252 277.8616 
L 251.526448 280.149695 
L 239.377319 290.7508 
L 235.765952 293.895415 
L 224.565288 303.64 
z
M 58.092751 161.8588 
L 62.400496 157.852002 
L 71.979489 148.9696 
L 78.160992 143.2458 
L 85.925843 136.0804 
L 93.921488 128.71122 
L 99.933446 123.1912 
L 109.681984 114.24968 
L 114.003948 110.302 
L 125.44248 99.862551 
L 128.139028 97.4128 
L 141.202976 85.551163 
L 142.340411 84.5236 
L 156.611528 71.6344 
L 156.963472 71.316543 
L 170.958636 58.7452 
L 172.723968 57.159214 
L 185.379242 45.856 
L 172.723968 45.856 
L 169.046434 45.856 
L 156.963472 56.712282 
L 154.712886 58.7452 
L 141.202976 70.94779 
L 140.446583 71.6344 
L 126.248489 84.5236 
L 125.44248 85.255499 
L 112.115984 97.4128 
L 109.681984 99.634417 
L 98.044335 110.302 
L 93.921488 114.083879 
L 84.031944 123.1912 
L 78.160992 128.602561 
L 70.077248 136.0804 
L 62.400496 143.189105 
L 56.178706 148.9696 
L 46.64 157.842115 
L 46.64 161.8588 
L 46.64 172.528355 
z
" clip-path="url(#pedabbff588)" style="fill: #1e9d89"/>
    <path d="M 251.526448 303.64 
L 258.803431 303.64 
L 267.286944 296.245915 
L 273.591249 290.7508 
L 283.04744 282.48913 
L 288.344841 277.8616 
L 298.807936 268.698296 
L 303.063899 264.9724 
L 314.568432 254.87292 
L 317.748096 252.0832 
L 330.328928 241.012486 
L 332.397086 239.194 
L 346.089424 227.116459 
L 347.010508 226.3048 
L 361.589367 213.4156 
L 361.84992 213.184452 
L 361.84992 200.5264 
L 361.84992 197.956428 
L 358.963957 200.5264 
L 346.089424 211.944224 
L 344.432384 213.4156 
L 330.328928 225.890736 
L 329.861271 226.3048 
L 315.254484 239.194 
L 314.568432 239.797507 
L 300.61094 252.0832 
L 298.807936 253.6655 
L 285.928669 264.9724 
L 283.04744 267.494931 
L 271.20802 277.8616 
L 267.286944 281.286355 
L 256.449322 290.7508 
L 251.526448 295.040303 
L 241.652876 303.64 
z
M 56.178706 148.9696 
L 62.400496 143.189105 
L 70.077248 136.0804 
L 78.160992 128.602561 
L 84.031944 123.1912 
L 93.921488 114.083879 
L 98.044335 110.302 
L 109.681984 99.634417 
L 112.115984 97.4128 
L 125.44248 85.255499 
L 126.248489 84.5236 
L 140.446583 71.6344 
L 141.202976 70.94779 
L 154.712886 58.7452 
L 156.963472 56.712282 
L 169.046434 45.856 
L 156.963472 45.856 
L 152.79544 45.856 
L 141.202976 56.328362 
L 138.540832 58.7452 
L 125.44248 70.636456 
L 124.348332 71.6344 
L 110.217887 84.5236 
L 109.681984 85.012537 
L 96.149286 97.4128 
L 93.921488 99.455109 
L 82.13701 110.302 
L 78.160992 113.963878 
L 68.179556 123.1912 
L 62.400496 128.537527 
L 54.275448 136.0804 
L 46.64 143.174706 
L 46.64 148.9696 
L 46.64 157.842115 
z
" clip-path="url(#pedabbff588)" style="fill: #23a983"/>
    <path d="M 267.286944 303.64 
L 276.029583 303.64 
L 283.04744 297.521141 
L 290.813984 290.7508 
L 298.807936 283.765582 
L 305.567057 277.8616 
L 314.568432 269.978835 
L 320.288499 264.9724 
L 330.328928 256.16044 
L 334.977989 252.0832 
L 346.089424 242.30992 
L 349.635193 239.194 
L 361.84992 228.42678 
L 361.84992 226.3048 
L 361.84992 213.4156 
L 361.84992 213.184452 
L 361.589367 213.4156 
L 347.010508 226.3048 
L 346.089424 227.116459 
L 332.397086 239.194 
L 330.328928 241.012486 
L 317.748096 252.0832 
L 314.568432 254.87292 
L 303.063899 264.9724 
L 298.807936 268.698296 
L 288.344841 277.8616 
L 283.04744 282.48913 
L 273.591249 290.7508 
L 267.286944 296.245915 
L 258.803431 303.64 
z
M 54.275448 136.0804 
L 62.400496 128.537527 
L 68.179556 123.1912 
L 78.160992 113.963878 
L 82.13701 110.302 
L 93.921488 99.455109 
L 96.149286 97.4128 
L 109.681984 85.012537 
L 110.217887 84.5236 
L 124.348332 71.6344 
L 125.44248 70.636456 
L 138.540832 58.7452 
L 141.202976 56.328362 
L 152.79544 45.856 
L 141.202976 45.856 
L 136.614537 45.856 
L 125.44248 55.999839 
L 122.432858 58.7452 
L 109.681984 70.376436 
L 108.308979 71.6344 
L 94.242168 84.5236 
L 93.921488 84.817479 
L 80.23382 97.4128 
L 78.160992 99.320926 
L 66.277956 110.302 
L 62.400496 113.886879 
L 52.373144 123.1912 
L 46.64 128.514022 
L 46.64 136.0804 
L 46.64 143.174706 
z
" clip-path="url(#pedabbff588)" style="fill: #32b67a"/>
    <path d="M 283.04744 303.64 
L 293.341545 303.64 
L 298.807936 298.873335 
L 308.126507 290.7508 
L 314.568432 285.122121 
L 322.88256 277.8616 
L 330.328928 271.342133 
L 337.609408 264.9724 
L 346.089424 257.532943 
L 352.306742 252.0832 
L 361.84992 243.694107 
L 361.84992 239.194 
L 361.84992 228.42678 
L 349.635193 239.194 
L 346.089424 242.30992 
L 334.977989 252.0832 
L 330.328928 256.16044 
L 320.288499 264.9724 
L 314.568432 269.978835 
L 305.567057 277.8616 
L 298.807936 283.765582 
L 290.813984 290.7508 
L 283.04744 297.521141 
L 276.029583 303.64 
z
M 52.373144 123.1912 
L 62.400496 113.886879 
L 66.277956 110.302 
L 78.160992 99.320926 
L 80.23382 97.4128 
L 93.921488 84.817479 
L 94.242168 84.5236 
L 108.308979 71.6344 
L 109.681984 70.376436 
L 122.432858 58.7452 
L 125.44248 55.999839 
L 136.614537 45.856 
L 125.44248 45.856 
L 120.494996 45.856 
L 109.681984 55.720957 
L 106.381717 58.7452 
L 93.921488 70.163059 
L 92.322564 71.6344 
L 78.316359 84.5236 
L 78.160992 84.666586 
L 64.365549 97.4128 
L 62.400496 99.228921 
L 50.463912 110.302 
L 46.64 113.850585 
L 46.64 123.1912 
L 46.64 128.514022 
z
" clip-path="url(#pedabbff588)" style="fill: #48c16e"/>
    <path d="M 298.807936 303.64 
L 310.747999 303.64 
L 314.568432 300.30888 
L 325.536607 290.7508 
L 330.328928 286.56444 
L 340.298346 277.8616 
L 346.089424 272.793282 
L 355.032929 264.9724 
L 361.84992 258.995007 
L 361.84992 252.0832 
L 361.84992 243.694107 
L 352.306742 252.0832 
L 346.089424 257.532943 
L 337.609408 264.9724 
L 330.328928 271.342133 
L 322.88256 277.8616 
L 314.568432 285.122121 
L 308.126507 290.7508 
L 298.807936 298.873335 
L 293.341545 303.64 
z
M 50.463912 110.302 
L 62.400496 99.228921 
L 64.365549 97.4128 
L 78.160992 84.666586 
L 78.316359 84.5236 
L 92.322564 71.6344 
L 93.921488 70.163059 
L 106.381717 58.7452 
L 109.681984 55.720957 
L 120.494996 45.856 
L 109.681984 45.856 
L 104.430075 45.856 
L 93.921488 55.487205 
L 90.381745 58.7452 
L 78.160992 69.992617 
L 76.384356 71.6344 
L 62.436465 84.5236 
L 62.400496 84.556838 
L 48.541159 97.4128 
L 46.64 99.176663 
L 46.64 110.302 
L 46.64 113.850585 
z
" clip-path="url(#pedabbff588)" style="fill: #65cb5e"/>
    <path d="M 314.568432 303.64 
L 328.256649 303.64 
L 330.328928 301.833559 
L 343.051324 290.7508 
L 346.089424 288.097806 
L 357.820862 277.8616 
L 361.84992 274.337099 
L 361.84992 264.9724 
L 361.84992 258.995007 
L 355.032929 264.9724 
L 346.089424 272.793282 
L 340.298346 277.8616 
L 330.328928 286.56444 
L 325.536607 290.7508 
L 314.568432 300.30888 
L 310.747999 303.64 
z
M 48.541159 97.4128 
L 62.400496 84.556838 
L 62.436465 84.5236 
L 76.384356 71.6344 
L 78.160992 69.992617 
L 90.381745 58.7452 
L 93.921488 55.487205 
L 104.430075 45.856 
L 93.921488 45.856 
L 88.414403 45.856 
L 78.160992 55.294942 
L 74.42837 58.7452 
L 62.400496 69.862075 
L 60.490484 71.6344 
L 46.64 84.485663 
L 46.64 84.5236 
L 46.64 97.4128 
L 46.64 99.176663 
z
" clip-path="url(#pedabbff588)" style="fill: #84d44b"/>
    <path d="M 330.328928 303.64 
L 345.874583 303.64 
L 346.089424 303.452786 
L 360.67724 290.7508 
L 361.84992 289.72724 
L 361.84992 277.8616 
L 361.84992 274.337099 
L 357.820862 277.8616 
L 346.089424 288.097806 
L 343.051324 290.7508 
L 330.328928 301.833559 
L 328.256649 303.64 
z
M 60.490484 71.6344 
L 62.400496 69.862075 
L 74.42837 58.7452 
L 78.160992 55.294942 
L 88.414403 45.856 
L 78.160992 45.856 
L 72.443577 45.856 
L 62.400496 55.141143 
L 58.517798 58.7452 
L 46.64 69.768884 
L 46.64 71.6344 
L 46.64 84.485663 
z
" clip-path="url(#pedabbff588)" style="fill: #a8db34"/>
    <path d="M 346.089424 303.64 
L 361.84992 303.64 
L 361.84992 290.7508 
L 361.84992 289.72724 
L 360.67724 290.7508 
L 346.089424 303.452786 
L 345.874583 303.64 
z
M 58.517798 58.7452 
L 62.400496 55.141143 
L 72.443577 45.856 
L 62.400496 45.856 
L 56.513895 45.856 
L 46.64 55.02324 
L 46.64 58.7452 
L 46.64 69.768884 
z
" clip-path="url(#pedabbff588)" style="fill: #cae11f"/>
    <path d="M 56.513895 45.856 
L 46.64 45.856 
L 46.64 55.02324 
z
" clip-path="url(#pedabbff588)" style="fill: #efe51c"/>
   </g>
   <g id="PathCollection_1">
    <defs>
     <path id="m9ef77df839" d="M 0 3 
C 0.795609 3 1.55874 2.683901 2.12132 2.12132 
C 2.683901 1.55874 3 0.795609 3 0 
C 3 -0.795609 2.683901 -1.55874 2.12132 -2.12132 
C 1.55874 -2.683901 0.795609 -3 0 -3 
C -0.795609 -3 -1.55874 -2.683901 -2.12132 -2.12132 
C -2.683901 -1.55874 -3 -0.795609 -3 0 
C -3 0.795609 -2.683901 1.55874 -2.12132 2.12132 
C -1.55874 2.683901 -0.795609 3 0 3 
z
" style="stroke: #ff0000"/>
    </defs>
    <g clip-path="url(#pedabbff588)">
     <use xlink:href="#m9ef77df839" x="290.927688" y="190.8595" style="fill: #ff0000; stroke: #ff0000"/>
    </g>
   </g>
   <g id="matplotlib.axis_1">
    <g id="xtick_1">
     <g id="line2d_1">
      <defs>
       <path id="mada59cc1a5" d="M 0 0 
L 0 3.5 
" style="stroke: #000000; stroke-width: 0.8"/>
      </defs>
      <g>
       <use xlink:href="#mada59cc1a5" x="46.64" y="303.64" style="stroke: #000000; stroke-width: 0.8"/>
      </g>
     </g>
     <g id="text_1">
      <!-- −4 -->
      <g transform="translate(39.268906 318.238437) scale(0.1 -0.1)">
       <defs>
        <path id="DejaVuSans-2212" d="M 678 2272 
L 4684 2272 
L 4684 1741 
L 678 1741 
L 678 2272 
z
" transform="scale(0.015625)"/>
        <path id="DejaVuSans-34" d="M 2419 4116 
L 825 1625 
L 2419 1625 
L 2419 4116 
z
M 2253 4666 
L 3047 4666 
L 3047 1625 
L 3713 1625 
L 3713 1100 
L 3047 1100 
L 3047 0 
L 2419 0 
L 2419 1100 
L 313 1100 
L 313 1709 
L 2253 4666 
z
" transform="scale(0.015625)"/>
       </defs>
       <use xlink:href="#DejaVuSans-2212"/>
       <use xlink:href="#DejaVuSans-34" transform="translate(83.789062 0)"/>
      </g>
     </g>
    </g>
    <g id="xtick_2">
     <g id="line2d_2">
      <g>
       <use xlink:href="#mada59cc1a5" x="86.04124" y="303.64" style="stroke: #000000; stroke-width: 0.8"/>
      </g>
     </g>
     <g id="text_2">
      <!-- −3 -->
      <g transform="translate(78.670146 318.238437) scale(0.1 -0.1)">
       <defs>
        <path id="DejaVuSans-33" d="M 2597 2516 
Q 3050 2419 3304 2112 
Q 3559 1806 3559 1356 
Q 3559 666 3084 287 
Q 2609 -91 1734 -91 
Q 1441 -91 1130 -33 
Q 819 25 488 141 
L 488 750 
Q 750 597 1062 519 
Q 1375 441 1716 441 
Q 2309 441 2620 675 
Q 2931 909 2931 1356 
Q 2931 1769 2642 2001 
Q 2353 2234 1838 2234 
L 1294 2234 
L 1294 2753 
L 1863 2753 
Q 2328 2753 2575 2939 
Q 2822 3125 2822 3475 
Q 2822 3834 2567 4026 
Q 2313 4219 1838 4219 
Q 1578 4219 1281 4162 
Q 984 4106 628 3988 
L 628 4550 
Q 988 4650 1302 4700 
Q 1616 4750 1894 4750 
Q 2613 4750 3031 4423 
Q 3450 4097 3450 3541 
Q 3450 3153 3228 2886 
Q 3006 2619 2597 2516 
z
" transform="scale(0.015625)"/>
       </defs>
       <use xlink:href="#DejaVuSans-2212"/>
       <use xlink:href="#DejaVuSans-33" transform="translate(83.789062 0)"/>
      </g>
     </g>
    </g>
    <g id="xtick_3">
     <g id="line2d_3">
      <g>
       <use xlink:href="#mada59cc1a5" x="125.44248" y="303.64" style="stroke: #000000; stroke-width: 0.8"/>
      </g>
     </g>
     <g id="text_3">
      <!-- −2 -->
      <g transform="translate(118.071386 318.238437) scale(0.1 -0.1)">
       <defs>
        <path id="DejaVuSans-32" d="M 1228 531 
L 3431 531 
L 3431 0 
L 469 0 
L 469 531 
Q 828 903 1448 1529 
Q 2069 2156 2228 2338 
Q 2531 2678 2651 2914 
Q 2772 3150 2772 3378 
Q 2772 3750 2511 3984 
Q 2250 4219 1831 4219 
Q 1534 4219 1204 4116 
Q 875 4013 500 3803 
L 500 4441 
Q 881 4594 1212 4672 
Q 1544 4750 1819 4750 
Q 2544 4750 2975 4387 
Q 3406 4025 3406 3419 
Q 3406 3131 3298 2873 
Q 3191 2616 2906 2266 
Q 2828 2175 2409 1742 
Q 1991 1309 1228 531 
z
" transform="scale(0.015625)"/>
       </defs>
       <use xlink:href="#DejaVuSans-2212"/>
       <use xlink:href="#DejaVuSans-32" transform="translate(83.789062 0)"/>
      </g>
     </g>
    </g>
    <g id="xtick_4">
     <g id="line2d_4">
      <g>
       <use xlink:href="#mada59cc1a5" x="164.84372" y="303.64" style="stroke: #000000; stroke-width: 0.8"/>
      </g>
     </g>
     <g id="text_4">
      <!-- −1 -->
      <g transform="translate(157.472626 318.238437) scale(0.1 -0.1)">
       <defs>
        <path id="DejaVuSans-31" d="M 794 531 
L 1825 531 
L 1825 4091 
L 703 3866 
L 703 4441 
L 1819 4666 
L 2450 4666 
L 2450 531 
L 3481 531 
L 3481 0 
L 794 0 
L 794 531 
z
" transform="scale(0.015625)"/>
       </defs>
       <use xlink:href="#DejaVuSans-2212"/>
       <use xlink:href="#DejaVuSans-31" transform="translate(83.789062 0)"/>
      </g>
     </g>
    </g>
    <g id="xtick_5">
     <g id="line2d_5">
      <g>
       <use xlink:href="#mada59cc1a5" x="204.24496" y="303.64" style="stroke: #000000; stroke-width: 0.8"/>
      </g>
     </g>
     <g id="text_5">
      <!-- 0 -->
      <g transform="translate(201.06371 318.238437) scale(0.1 -0.1)">
       <defs>
        <path id="DejaVuSans-30" d="M 2034 4250 
Q 1547 4250 1301 3770 
Q 1056 3291 1056 2328 
Q 1056 1369 1301 889 
Q 1547 409 2034 409 
Q 2525 409 2770 889 
Q 3016 1369 3016 2328 
Q 3016 3291 2770 3770 
Q 2525 4250 2034 4250 
z
M 2034 4750 
Q 2819 4750 3233 4129 
Q 3647 3509 3647 2328 
Q 3647 1150 3233 529 
Q 2819 -91 2034 -91 
Q 1250 -91 836 529 
Q 422 1150 422 2328 
Q 422 3509 836 4129 
Q 1250 4750 2034 4750 
z
" transform="scale(0.015625)"/>
       </defs>
       <use xlink:href="#DejaVuSans-30"/>
      </g>
     </g>
    </g>
    <g id="xtick_6">
     <g id="line2d_6">
      <g>
       <use xlink:href="#mada59cc1a5" x="243.6462" y="303.64" style="stroke: #000000; stroke-width: 0.8"/>
      </g>
     </g>
     <g id="text_6">
      <!-- 1 -->
      <g transform="translate(240.46495 318.238437) scale(0.1 -0.1)">
       <use xlink:href="#DejaVuSans-31"/>
      </g>
     </g>
    </g>
    <g id="xtick_7">
     <g id="line2d_7">
      <g>
       <use xlink:href="#mada59cc1a5" x="283.04744" y="303.64" style="stroke: #000000; stroke-width: 0.8"/>
      </g>
     </g>
     <g id="text_7">
      <!-- 2 -->
      <g transform="translate(279.86619 318.238437) scale(0.1 -0.1)">
       <use xlink:href="#DejaVuSans-32"/>
      </g>
     </g>
    </g>
    <g id="xtick_8">
     <g id="line2d_8">
      <g>
       <use xlink:href="#mada59cc1a5" x="322.44868" y="303.64" style="stroke: #000000; stroke-width: 0.8"/>
      </g>
     </g>
     <g id="text_8">
      <!-- 3 -->
      <g transform="translate(319.26743 318.238437) scale(0.1 -0.1)">
       <use xlink:href="#DejaVuSans-33"/>
      </g>
     </g>
    </g>
    <g id="xtick_9">
     <g id="line2d_9">
      <g>
       <use xlink:href="#mada59cc1a5" x="361.84992" y="303.64" style="stroke: #000000; stroke-width: 0.8"/>
      </g>
     </g>
     <g id="text_9">
      <!-- 4 -->
      <g transform="translate(358.66867 318.238437) scale(0.1 -0.1)">
       <use xlink:href="#DejaVuSans-34"/>
      </g>
     </g>
    </g>
    <g id="text_10">
     <!-- Relative distance in first direction -->
     <g transform="translate(120.30121 331.916562) scale(0.1 -0.1)">
      <defs>
       <path id="DejaVuSans-52" d="M 2841 2188 
Q 3044 2119 3236 1894 
Q 3428 1669 3622 1275 
L 4263 0 
L 3584 0 
L 2988 1197 
Q 2756 1666 2539 1819 
Q 2322 1972 1947 1972 
L 1259 1972 
L 1259 0 
L 628 0 
L 628 4666 
L 2053 4666 
Q 2853 4666 3247 4331 
Q 3641 3997 3641 3322 
Q 3641 2881 3436 2590 
Q 3231 2300 2841 2188 
z
M 1259 4147 
L 1259 2491 
L 2053 2491 
Q 2509 2491 2742 2702 
Q 2975 2913 2975 3322 
Q 2975 3731 2742 3939 
Q 2509 4147 2053 4147 
L 1259 4147 
z
" transform="scale(0.015625)"/>
       <path id="DejaVuSans-65" d="M 3597 1894 
L 3597 1613 
L 953 1613 
Q 991 1019 1311 708 
Q 1631 397 2203 397 
Q 2534 397 2845 478 
Q 3156 559 3463 722 
L 3463 178 
Q 3153 47 2828 -22 
Q 2503 -91 2169 -91 
Q 1331 -91 842 396 
Q 353 884 353 1716 
Q 353 2575 817 3079 
Q 1281 3584 2069 3584 
Q 2775 3584 3186 3129 
Q 3597 2675 3597 1894 
z
M 3022 2063 
Q 3016 2534 2758 2815 
Q 2500 3097 2075 3097 
Q 1594 3097 1305 2825 
Q 1016 2553 972 2059 
L 3022 2063 
z
" transform="scale(0.015625)"/>
       <path id="DejaVuSans-6c" d="M 603 4863 
L 1178 4863 
L 1178 0 
L 603 0 
L 603 4863 
z
" transform="scale(0.015625)"/>
       <path id="DejaVuSans-61" d="M 2194 1759 
Q 1497 1759 1228 1600 
Q 959 1441 959 1056 
Q 959 750 1161 570 
Q 1363 391 1709 391 
Q 2188 391 2477 730 
Q 2766 1069 2766 1631 
L 2766 1759 
L 2194 1759 
z
M 3341 1997 
L 3341 0 
L 2766 0 
L 2766 531 
Q 2569 213 2275 61 
Q 1981 -91 1556 -91 
Q 1019 -91 701 211 
Q 384 513 384 1019 
Q 384 1609 779 1909 
Q 1175 2209 1959 2209 
L 2766 2209 
L 2766 2266 
Q 2766 2663 2505 2880 
Q 2244 3097 1772 3097 
Q 1472 3097 1187 3025 
Q 903 2953 641 2809 
L 641 3341 
Q 956 3463 1253 3523 
Q 1550 3584 1831 3584 
Q 2591 3584 2966 3190 
Q 3341 2797 3341 1997 
z
" transform="scale(0.015625)"/>
       <path id="DejaVuSans-74" d="M 1172 4494 
L 1172 3500 
L 2356 3500 
L 2356 3053 
L 1172 3053 
L 1172 1153 
Q 1172 725 1289 603 
Q 1406 481 1766 481 
L 2356 481 
L 2356 0 
L 1766 0 
Q 1100 0 847 248 
Q 594 497 594 1153 
L 594 3053 
L 172 3053 
L 172 3500 
L 594 3500 
L 594 4494 
L 1172 4494 
z
" transform="scale(0.015625)"/>
       <path id="DejaVuSans-69" d="M 603 3500 
L 1178 3500 
L 1178 0 
L 603 0 
L 603 3500 
z
M 603 4863 
L 1178 4863 
L 1178 4134 
L 603 4134 
L 603 4863 
z
" transform="scale(0.015625)"/>
       <path id="DejaVuSans-76" d="M 191 3500 
L 800 3500 
L 1894 563 
L 2988 3500 
L 3597 3500 
L 2284 0 
L 1503 0 
L 191 3500 
z
" transform="scale(0.015625)"/>
       <path id="DejaVuSans-20" transform="scale(0.015625)"/>
       <path id="DejaVuSans-64" d="M 2906 2969 
L 2906 4863 
L 3481 4863 
L 3481 0 
L 2906 0 
L 2906 525 
Q 2725 213 2448 61 
Q 2172 -91 1784 -91 
Q 1150 -91 751 415 
Q 353 922 353 1747 
Q 353 2572 751 3078 
Q 1150 3584 1784 3584 
Q 2172 3584 2448 3432 
Q 2725 3281 2906 2969 
z
M 947 1747 
Q 947 1113 1208 752 
Q 1469 391 1925 391 
Q 2381 391 2643 752 
Q 2906 1113 2906 1747 
Q 2906 2381 2643 2742 
Q 2381 3103 1925 3103 
Q 1469 3103 1208 2742 
Q 947 2381 947 1747 
z
" transform="scale(0.015625)"/>
       <path id="DejaVuSans-73" d="M 2834 3397 
L 2834 2853 
Q 2591 2978 2328 3040 
Q 2066 3103 1784 3103 
Q 1356 3103 1142 2972 
Q 928 2841 928 2578 
Q 928 2378 1081 2264 
Q 1234 2150 1697 2047 
L 1894 2003 
Q 2506 1872 2764 1633 
Q 3022 1394 3022 966 
Q 3022 478 2636 193 
Q 2250 -91 1575 -91 
Q 1294 -91 989 -36 
Q 684 19 347 128 
L 347 722 
Q 666 556 975 473 
Q 1284 391 1588 391 
Q 1994 391 2212 530 
Q 2431 669 2431 922 
Q 2431 1156 2273 1281 
Q 2116 1406 1581 1522 
L 1381 1569 
Q 847 1681 609 1914 
Q 372 2147 372 2553 
Q 372 3047 722 3315 
Q 1072 3584 1716 3584 
Q 2034 3584 2315 3537 
Q 2597 3491 2834 3397 
z
" transform="scale(0.015625)"/>
       <path id="DejaVuSans-6e" d="M 3513 2113 
L 3513 0 
L 2938 0 
L 2938 2094 
Q 2938 2591 2744 2837 
Q 2550 3084 2163 3084 
Q 1697 3084 1428 2787 
Q 1159 2491 1159 1978 
L 1159 0 
L 581 0 
L 581 3500 
L 1159 3500 
L 1159 2956 
Q 1366 3272 1645 3428 
Q 1925 3584 2291 3584 
Q 2894 3584 3203 3211 
Q 3513 2838 3513 2113 
z
" transform="scale(0.015625)"/>
       <path id="DejaVuSans-63" d="M 3122 3366 
L 3122 2828 
Q 2878 2963 2633 3030 
Q 2388 3097 2138 3097 
Q 1578 3097 1268 2742 
Q 959 2388 959 1747 
Q 959 1106 1268 751 
Q 1578 397 2138 397 
Q 2388 397 2633 464 
Q 2878 531 3122 666 
L 3122 134 
Q 2881 22 2623 -34 
Q 2366 -91 2075 -91 
Q 1284 -91 818 406 
Q 353 903 353 1747 
Q 353 2603 823 3093 
Q 1294 3584 2113 3584 
Q 2378 3584 2631 3529 
Q 2884 3475 3122 3366 
z
" transform="scale(0.015625)"/>
       <path id="DejaVuSans-66" d="M 2375 4863 
L 2375 4384 
L 1825 4384 
Q 1516 4384 1395 4259 
Q 1275 4134 1275 3809 
L 1275 3500 
L 2222 3500 
L 2222 3053 
L 1275 3053 
L 1275 0 
L 697 0 
L 697 3053 
L 147 3053 
L 147 3500 
L 697 3500 
L 697 3744 
Q 697 4328 969 4595 
Q 1241 4863 1831 4863 
L 2375 4863 
z
" transform="scale(0.015625)"/>
       <path id="DejaVuSans-72" d="M 2631 2963 
Q 2534 3019 2420 3045 
Q 2306 3072 2169 3072 
Q 1681 3072 1420 2755 
Q 1159 2438 1159 1844 
L 1159 0 
L 581 0 
L 581 3500 
L 1159 3500 
L 1159 2956 
Q 1341 3275 1631 3429 
Q 1922 3584 2338 3584 
Q 2397 3584 2469 3576 
Q 2541 3569 2628 3553 
L 2631 2963 
z
" transform="scale(0.015625)"/>
       <path id="DejaVuSans-6f" d="M 1959 3097 
Q 1497 3097 1228 2736 
Q 959 2375 959 1747 
Q 959 1119 1226 758 
Q 1494 397 1959 397 
Q 2419 397 2687 759 
Q 2956 1122 2956 1747 
Q 2956 2369 2687 2733 
Q 2419 3097 1959 3097 
z
M 1959 3584 
Q 2709 3584 3137 3096 
Q 3566 2609 3566 1747 
Q 3566 888 3137 398 
Q 2709 -91 1959 -91 
Q 1206 -91 779 398 
Q 353 888 353 1747 
Q 353 2609 779 3096 
Q 1206 3584 1959 3584 
z
" transform="scale(0.015625)"/>
      </defs>
      <use xlink:href="#DejaVuSans-52"/>
      <use xlink:href="#DejaVuSans-65" transform="translate(64.982422 0)"/>
      <use xlink:href="#DejaVuSans-6c" transform="translate(126.505859 0)"/>
      <use xlink:href="#DejaVuSans-61" transform="translate(154.289062 0)"/>
      <use xlink:href="#DejaVuSans-74" transform="translate(215.568359 0)"/>
      <use xlink:href="#DejaVuSans-69" transform="translate(254.777344 0)"/>
      <use xlink:href="#DejaVuSans-76" transform="translate(282.560547 0)"/>
      <use xlink:href="#DejaVuSans-65" transform="translate(341.740234 0)"/>
      <use xlink:href="#DejaVuSans-20" transform="translate(403.263672 0)"/>
      <use xlink:href="#DejaVuSans-64" transform="translate(435.050781 0)"/>
      <use xlink:href="#DejaVuSans-69" transform="translate(498.527344 0)"/>
      <use xlink:href="#DejaVuSans-73" transform="translate(526.310547 0)"/>
      <use xlink:href="#DejaVuSans-74" transform="translate(578.410156 0)"/>
      <use xlink:href="#DejaVuSans-61" transform="translate(617.619141 0)"/>
      <use xlink:href="#DejaVuSans-6e" transform="translate(678.898438 0)"/>
      <use xlink:href="#DejaVuSans-63" transform="translate(742.277344 0)"/>
      <use xlink:href="#DejaVuSans-65" transform="translate(797.257812 0)"/>
      <use xlink:href="#DejaVuSans-20" transform="translate(858.78125 0)"/>
      <use xlink:href="#DejaVuSans-69" transform="translate(890.568359 0)"/>
      <use xlink:href="#DejaVuSans-6e" transform="translate(918.351562 0)"/>
      <use xlink:href="#DejaVuSans-20" transform="translate(981.730469 0)"/>
      <use xlink:href="#DejaVuSans-66" transform="translate(1013.517578 0)"/>
      <use xlink:href="#DejaVuSans-69" transform="translate(1048.722656 0)"/>
      <use xlink:href="#DejaVuSans-72" transform="translate(1076.505859 0)"/>
      <use xlink:href="#DejaVuSans-73" transform="translate(1117.619141 0)"/>
      <use xlink:href="#DejaVuSans-74" transform="translate(1169.71875 0)"/>
      <use xlink:href="#DejaVuSans-20" transform="translate(1208.927734 0)"/>
      <use xlink:href="#DejaVuSans-64" transform="translate(1240.714844 0)"/>
      <use xlink:href="#DejaVuSans-69" transform="translate(1304.191406 0)"/>
      <use xlink:href="#DejaVuSans-72" transform="translate(1331.974609 0)"/>
      <use xlink:href="#DejaVuSans-65" transform="translate(1370.837891 0)"/>
      <use xlink:href="#DejaVuSans-63" transform="translate(1432.361328 0)"/>
      <use xlink:href="#DejaVuSans-74" transform="translate(1487.341797 0)"/>
      <use xlink:href="#DejaVuSans-69" transform="translate(1526.550781 0)"/>
      <use xlink:href="#DejaVuSans-6f" transform="translate(1554.333984 0)"/>
      <use xlink:href="#DejaVuSans-6e" transform="translate(1615.515625 0)"/>
     </g>
    </g>
   </g>
   <g id="matplotlib.axis_2">
    <g id="ytick_1">
     <g id="line2d_10">
      <defs>
       <path id="mf275c10c73" d="M 0 0 
L -3.5 0 
" style="stroke: #000000; stroke-width: 0.8"/>
      </defs>
      <g>
       <use xlink:href="#mf275c10c73" x="46.64" y="303.64" style="stroke: #000000; stroke-width: 0.8"/>
      </g>
     </g>
     <g id="text_11">
      <!-- −4 -->
      <g transform="translate(24.897813 307.439219) scale(0.1 -0.1)">
       <use xlink:href="#DejaVuSans-2212"/>
       <use xlink:href="#DejaVuSans-34" transform="translate(83.789062 0)"/>
      </g>
     </g>
    </g>
    <g id="ytick_2">
     <g id="line2d_11">
      <g>
       <use xlink:href="#mf275c10c73" x="46.64" y="271.417" style="stroke: #000000; stroke-width: 0.8"/>
      </g>
     </g>
     <g id="text_12">
      <!-- −3 -->
      <g transform="translate(24.897813 275.216219) scale(0.1 -0.1)">
       <use xlink:href="#DejaVuSans-2212"/>
       <use xlink:href="#DejaVuSans-33" transform="translate(83.789062 0)"/>
      </g>
     </g>
    </g>
    <g id="ytick_3">
     <g id="line2d_12">
      <g>
       <use xlink:href="#mf275c10c73" x="46.64" y="239.194" style="stroke: #000000; stroke-width: 0.8"/>
      </g>
     </g>
     <g id="text_13">
      <!-- −2 -->
      <g transform="translate(24.897813 242.993219) scale(0.1 -0.1)">
       <use xlink:href="#DejaVuSans-2212"/>
       <use xlink:href="#DejaVuSans-32" transform="translate(83.789062 0)"/>
      </g>
     </g>
    </g>
    <g id="ytick_4">
     <g id="line2d_13">
      <g>
       <use xlink:href="#mf275c10c73" x="46.64" y="206.971" style="stroke: #000000; stroke-width: 0.8"/>
      </g>
     </g>
     <g id="text_14">
      <!-- −1 -->
      <g transform="translate(24.897813 210.770219) scale(0.1 -0.1)">
       <use xlink:href="#DejaVuSans-2212"/>
       <use xlink:href="#DejaVuSans-31" transform="translate(83.789062 0)"/>
      </g>
     </g>
    </g>
    <g id="ytick_5">
     <g id="line2d_14">
      <g>
       <use xlink:href="#mf275c10c73" x="46.64" y="174.748" style="stroke: #000000; stroke-width: 0.8"/>
      </g>
     </g>
     <g id="text_15">
      <!-- 0 -->
      <g transform="translate(33.2775 178.547219) scale(0.1 -0.1)">
       <use xlink:href="#DejaVuSans-30"/>
      </g>
     </g>
    </g>
    <g id="ytick_6">
     <g id="line2d_15">
      <g>
       <use xlink:href="#mf275c10c73" x="46.64" y="142.525" style="stroke: #000000; stroke-width: 0.8"/>
      </g>
     </g>
     <g id="text_16">
      <!-- 1 -->
      <g transform="translate(33.2775 146.324219) scale(0.1 -0.1)">
       <use xlink:href="#DejaVuSans-31"/>
      </g>
     </g>
    </g>
    <g id="ytick_7">
     <g id="line2d_16">
      <g>
       <use xlink:href="#mf275c10c73" x="46.64" y="110.302" style="stroke: #000000; stroke-width: 0.8"/>
      </g>
     </g>
     <g id="text_17">
      <!-- 2 -->
      <g transform="translate(33.2775 114.101219) scale(0.1 -0.1)">
       <use xlink:href="#DejaVuSans-32"/>
      </g>
     </g>
    </g>
    <g id="ytick_8">
     <g id="line2d_17">
      <g>
       <use xlink:href="#mf275c10c73" x="46.64" y="78.079" style="stroke: #000000; stroke-width: 0.8"/>
      </g>
     </g>
     <g id="text_18">
      <!-- 3 -->
      <g transform="translate(33.2775 81.878219) scale(0.1 -0.1)">
       <use xlink:href="#DejaVuSans-33"/>
      </g>
     </g>
    </g>
    <g id="ytick_9">
     <g id="line2d_18">
      <g>
       <use xlink:href="#mf275c10c73" x="46.64" y="45.856" style="stroke: #000000; stroke-width: 0.8"/>
      </g>
     </g>
     <g id="text_19">
      <!-- 4 -->
      <g transform="translate(33.2775 49.655219) scale(0.1 -0.1)">
       <use xlink:href="#DejaVuSans-34"/>
      </g>
     </g>
    </g>
    <g id="text_20">
     <!-- Relative distance in second direction -->
     <g transform="translate(18.818125 266.755031) rotate(-90) scale(0.1 -0.1)">
      <use xlink:href="#DejaVuSans-52"/>
      <use xlink:href="#DejaVuSans-65" transform="translate(64.982422 0)"/>
      <use xlink:href="#DejaVuSans-6c" transform="translate(126.505859 0)"/>
      <use xlink:href="#DejaVuSans-61" transform="translate(154.289062 0)"/>
      <use xlink:href="#DejaVuSans-74" transform="translate(215.568359 0)"/>
      <use xlink:href="#DejaVuSans-69" transform="translate(254.777344 0)"/>
      <use xlink:href="#DejaVuSans-76" transform="translate(282.560547 0)"/>
      <use xlink:href="#DejaVuSans-65" transform="translate(341.740234 0)"/>
      <use xlink:href="#DejaVuSans-20" transform="translate(403.263672 0)"/>
      <use xlink:href="#DejaVuSans-64" transform="translate(435.050781 0)"/>
      <use xlink:href="#DejaVuSans-69" transform="translate(498.527344 0)"/>
      <use xlink:href="#DejaVuSans-73" transform="translate(526.310547 0)"/>
      <use xlink:href="#DejaVuSans-74" transform="translate(578.410156 0)"/>
      <use xlink:href="#DejaVuSans-61" transform="translate(617.619141 0)"/>
      <use xlink:href="#DejaVuSans-6e" transform="translate(678.898438 0)"/>
      <use xlink:href="#DejaVuSans-63" transform="translate(742.277344 0)"/>
      <use xlink:href="#DejaVuSans-65" transform="translate(797.257812 0)"/>
      <use xlink:href="#DejaVuSans-20" transform="translate(858.78125 0)"/>
      <use xlink:href="#DejaVuSans-69" transform="translate(890.568359 0)"/>
      <use xlink:href="#DejaVuSans-6e" transform="translate(918.351562 0)"/>
      <use xlink:href="#DejaVuSans-20" transform="translate(981.730469 0)"/>
      <use xlink:href="#DejaVuSans-73" transform="translate(1013.517578 0)"/>
      <use xlink:href="#DejaVuSans-65" transform="translate(1065.617188 0)"/>
      <use xlink:href="#DejaVuSans-63" transform="translate(1127.140625 0)"/>
      <use xlink:href="#DejaVuSans-6f" transform="translate(1182.121094 0)"/>
      <use xlink:href="#DejaVuSans-6e" transform="translate(1243.302734 0)"/>
      <use xlink:href="#DejaVuSans-64" transform="translate(1306.681641 0)"/>
      <use xlink:href="#DejaVuSans-20" transform="translate(1370.158203 0)"/>
      <use xlink:href="#DejaVuSans-64" transform="translate(1401.945312 0)"/>
      <use xlink:href="#DejaVuSans-69" transform="translate(1465.421875 0)"/>
      <use xlink:href="#DejaVuSans-72" transform="translate(1493.205078 0)"/>
      <use xlink:href="#DejaVuSans-65" transform="translate(1532.068359 0)"/>
      <use xlink:href="#DejaVuSans-63" transform="translate(1593.591797 0)"/>
      <use xlink:href="#DejaVuSans-74" transform="translate(1648.572266 0)"/>
      <use xlink:href="#DejaVuSans-69" transform="translate(1687.78125 0)"/>
      <use xlink:href="#DejaVuSans-6f" transform="translate(1715.564453 0)"/>
      <use xlink:href="#DejaVuSans-6e" transform="translate(1776.746094 0)"/>
     </g>
    </g>
   </g>
   <g id="line2d_19">
    <path d="M 290.927688 190.8595 
L 291.50916 189.978656 
L 291.592344 189.553513 
L 292.024442 188.462305 
L 292.139626 188.010845 
L 292.414659 187.412811 
L 292.370578 187.101029 
L 292.608643 186.188834 
L 292.565408 185.881508 
L 292.728887 185.38864 
L 292.575512 185.176266 
L 292.366977 184.337672 
L 292.486795 183.889134 
L 292.412672 183.623287 
L 292.69216 182.733991 
L 292.517839 182.578848 
L 292.635333 181.900463 
L 292.468471 181.763837 
L 292.56278 181.143156 
L 292.279255 181.110878 
L 292.633586 178.996707 
L 293.13518 177.820214 
L 294.496239 174.577595 
L 295.62547 172.27796 
L 296.207506 171.271185 
L 296.043568 170.514446 
L 295.836538 170.367741 
L 295.528695 169.530695 
L 295.558405 169.264705 
L 295.426869 169.133513 
L 295.732417 167.928936 
L 296.539387 166.359305 
L 296.929951 165.137965 
L 296.909261 164.729495 
L 296.730788 164.674854 
L 296.845039 163.94707 
L 295.91971 163.162177 
L 296.0767 162.405315 
L 295.757899 162.204345 
L 295.661504 162.078225 
L 295.319201 162.142239 
L 288.008676 165.354554 
L 287.673363 165.430074 
L 286.245952 166.146398 
L 282.619145 167.969834 
L 282.084342 167.590509 
L 281.813377 167.043333 
L 282.347654 163.357577 
L 283.571094 161.270563 
L 283.868064 160.240596 
L 283.804444 159.828081 
L 283.674673 159.50451 
L 282.695145 159.640059 
L 280.8203 160.343279 
L 279.83239 160.506096 
L 276.498813 161.935178 
L 275.062233 162.280067 
L 274.771661 162.198393 
L 274.368338 162.199692 
L 274.087497 161.960698 
L 273.94855 161.76265 
L 273.224696 161.333374 
L 272.935617 161.252681 
L 272.574285 160.945775 
L 272.565933 160.442411 
L 266.987614 161.395671 
L 266.161394 161.375927 
L 265.755492 161.338114 
L 265.586516 161.102986 
L 262.959804 161.759871 
L 261.345652 162.418872 
L 260.153846 162.912467 
L 257.883003 163.795855 
L 257.189608 163.981114 
L 253.979228 165.488618 
L 252.48514 166.031702 
L 247.043648 168.707759 
L 244.529817 169.613373 
L 242.618517 170.305888 
L 241.930016 170.546108 
L 241.083901 170.593308 
L 240.931249 170.56606 
L 239.81068 170.879391 
L 239.056492 170.544934 
L 238.7459 169.456785 
L 238.346805 169.409479 
L 237.680131 169.224117 
L 237.31253 169.33135 
L 235.764378 168.638722 
L 235.632284 168.38915 
L 235.380371 168.399521 
L 232.191152 169.80385 
L 229.755386 171.190055 
L 225.837756 173.424147 
L 224.681499 173.96828 
L 222.968715 174.773617 
L 221.221866 175.248739 
L 220.803935 175.24841 
L 220.063823 175.04823 
L 219.427226 174.771294 
L 219.353803 174.686293 
L 216.86585 175.385339 
L 212.762683 177.485195 
L 212.349867 177.50485 
L 211.749759 177.442804 
L 209.530888 177.979397 
L 209.260621 177.930574 
L 208.991475 177.994913 
L 208.744191 177.838419 
L 208.470804 177.678809 
L 208.393793 177.571342 
L 208.146202 177.591322 
L 207.642072 176.678877 
L 207.642072 176.678877 
" clip-path="url(#pedabbff588)" style="fill: none; stroke: #ff0000; stroke-width: 1.5; stroke-linecap: square"/>
   </g>
   <g id="patch_3">
    <path d="M 46.64 303.64 
L 46.64 45.856 
" style="fill: none; stroke: #000000; stroke-width: 0.8; stroke-linejoin: miter; stroke-linecap: square"/>
   </g>
   <g id="patch_4">
    <path d="M 361.84992 303.64 
L 361.84992 45.856 
" style="fill: none; stroke: #000000; stroke-width: 0.8; stroke-linejoin: miter; stroke-linecap: square"/>
   </g>
   <g id="patch_5">
    <path d="M 46.64 303.64 
L 361.84992 303.64 
" style="fill: none; stroke: #000000; stroke-width: 0.8; stroke-linejoin: miter; stroke-linecap: square"/>
   </g>
   <g id="patch_6">
    <path d="M 46.64 45.856 
L 361.84992 45.856 
" style="fill: none; stroke: #000000; stroke-width: 0.8; stroke-linejoin: miter; stroke-linecap: square"/>
   </g>
   <g id="text_21">
    <!-- Relative error across two random directions -->
    <g transform="translate(73.143085 22.418625) scale(0.12 -0.12)">
     <defs>
      <path id="DejaVuSans-77" d="M 269 3500 
L 844 3500 
L 1563 769 
L 2278 3500 
L 2956 3500 
L 3675 769 
L 4391 3500 
L 4966 3500 
L 4050 0 
L 3372 0 
L 2619 2869 
L 1863 0 
L 1184 0 
L 269 3500 
z
" transform="scale(0.015625)"/>
      <path id="DejaVuSans-6d" d="M 3328 2828 
Q 3544 3216 3844 3400 
Q 4144 3584 4550 3584 
Q 5097 3584 5394 3201 
Q 5691 2819 5691 2113 
L 5691 0 
L 5113 0 
L 5113 2094 
Q 5113 2597 4934 2840 
Q 4756 3084 4391 3084 
Q 3944 3084 3684 2787 
Q 3425 2491 3425 1978 
L 3425 0 
L 2847 0 
L 2847 2094 
Q 2847 2600 2669 2842 
Q 2491 3084 2119 3084 
Q 1678 3084 1418 2786 
Q 1159 2488 1159 1978 
L 1159 0 
L 581 0 
L 581 3500 
L 1159 3500 
L 1159 2956 
Q 1356 3278 1631 3431 
Q 1906 3584 2284 3584 
Q 2666 3584 2933 3390 
Q 3200 3197 3328 2828 
z
" transform="scale(0.015625)"/>
     </defs>
     <use xlink:href="#DejaVuSans-52"/>
     <use xlink:href="#DejaVuSans-65" transform="translate(64.982422 0)"/>
     <use xlink:href="#DejaVuSans-6c" transform="translate(126.505859 0)"/>
     <use xlink:href="#DejaVuSans-61" transform="translate(154.289062 0)"/>
     <use xlink:href="#DejaVuSans-74" transform="translate(215.568359 0)"/>
     <use xlink:href="#DejaVuSans-69" transform="translate(254.777344 0)"/>
     <use xlink:href="#DejaVuSans-76" transform="translate(282.560547 0)"/>
     <use xlink:href="#DejaVuSans-65" transform="translate(341.740234 0)"/>
     <use xlink:href="#DejaVuSans-20" transform="translate(403.263672 0)"/>
     <use xlink:href="#DejaVuSans-65" transform="translate(435.050781 0)"/>
     <use xlink:href="#DejaVuSans-72" transform="translate(496.574219 0)"/>
     <use xlink:href="#DejaVuSans-72" transform="translate(535.9375 0)"/>
     <use xlink:href="#DejaVuSans-6f" transform="translate(574.800781 0)"/>
     <use xlink:href="#DejaVuSans-72" transform="translate(635.982422 0)"/>
     <use xlink:href="#DejaVuSans-20" transform="translate(677.095703 0)"/>
     <use xlink:href="#DejaVuSans-61" transform="translate(708.882812 0)"/>
     <use xlink:href="#DejaVuSans-63" transform="translate(770.162109 0)"/>
     <use xlink:href="#DejaVuSans-72" transform="translate(825.142578 0)"/>
     <use xlink:href="#DejaVuSans-6f" transform="translate(864.005859 0)"/>
     <use xlink:href="#DejaVuSans-73" transform="translate(925.1875 0)"/>
     <use xlink:href="#DejaVuSans-73" transform="translate(977.287109 0)"/>
     <use xlink:href="#DejaVuSans-20" transform="translate(1029.386719 0)"/>
     <use xlink:href="#DejaVuSans-74" transform="translate(1061.173828 0)"/>
     <use xlink:href="#DejaVuSans-77" transform="translate(1100.382812 0)"/>
     <use xlink:href="#DejaVuSans-6f" transform="translate(1182.169922 0)"/>
     <use xlink:href="#DejaVuSans-20" transform="translate(1243.351562 0)"/>
     <use xlink:href="#DejaVuSans-72" transform="translate(1275.138672 0)"/>
     <use xlink:href="#DejaVuSans-61" transform="translate(1316.251953 0)"/>
     <use xlink:href="#DejaVuSans-6e" transform="translate(1377.53125 0)"/>
     <use xlink:href="#DejaVuSans-64" transform="translate(1440.910156 0)"/>
     <use xlink:href="#DejaVuSans-6f" transform="translate(1504.386719 0)"/>
     <use xlink:href="#DejaVuSans-6d" transform="translate(1565.568359 0)"/>
     <use xlink:href="#DejaVuSans-20" transform="translate(1662.980469 0)"/>
     <use xlink:href="#DejaVuSans-64" transform="translate(1694.767578 0)"/>
     <use xlink:href="#DejaVuSans-69" transform="translate(1758.244141 0)"/>
     <use xlink:href="#DejaVuSans-72" transform="translate(1786.027344 0)"/>
     <use xlink:href="#DejaVuSans-65" transform="translate(1824.890625 0)"/>
     <use xlink:href="#DejaVuSans-63" transform="translate(1886.414062 0)"/>
     <use xlink:href="#DejaVuSans-74" transform="translate(1941.394531 0)"/>
     <use xlink:href="#DejaVuSans-69" transform="translate(1980.603516 0)"/>
     <use xlink:href="#DejaVuSans-6f" transform="translate(2008.386719 0)"/>
     <use xlink:href="#DejaVuSans-6e" transform="translate(2069.568359 0)"/>
     <use xlink:href="#DejaVuSans-73" transform="translate(2132.947266 0)"/>
    </g>
    <!-- in unknown parameters -->
    <g transform="translate(132.89746 35.856) scale(0.12 -0.12)">
     <defs>
      <path id="DejaVuSans-75" d="M 544 1381 
L 544 3500 
L 1119 3500 
L 1119 1403 
Q 1119 906 1312 657 
Q 1506 409 1894 409 
Q 2359 409 2629 706 
Q 2900 1003 2900 1516 
L 2900 3500 
L 3475 3500 
L 3475 0 
L 2900 0 
L 2900 538 
Q 2691 219 2414 64 
Q 2138 -91 1772 -91 
Q 1169 -91 856 284 
Q 544 659 544 1381 
z
M 1991 3584 
L 1991 3584 
z
" transform="scale(0.015625)"/>
      <path id="DejaVuSans-6b" d="M 581 4863 
L 1159 4863 
L 1159 1991 
L 2875 3500 
L 3609 3500 
L 1753 1863 
L 3688 0 
L 2938 0 
L 1159 1709 
L 1159 0 
L 581 0 
L 581 4863 
z
" transform="scale(0.015625)"/>
      <path id="DejaVuSans-70" d="M 1159 525 
L 1159 -1331 
L 581 -1331 
L 581 3500 
L 1159 3500 
L 1159 2969 
Q 1341 3281 1617 3432 
Q 1894 3584 2278 3584 
Q 2916 3584 3314 3078 
Q 3713 2572 3713 1747 
Q 3713 922 3314 415 
Q 2916 -91 2278 -91 
Q 1894 -91 1617 61 
Q 1341 213 1159 525 
z
M 3116 1747 
Q 3116 2381 2855 2742 
Q 2594 3103 2138 3103 
Q 1681 3103 1420 2742 
Q 1159 2381 1159 1747 
Q 1159 1113 1420 752 
Q 1681 391 2138 391 
Q 2594 391 2855 752 
Q 3116 1113 3116 1747 
z
" transform="scale(0.015625)"/>
     </defs>
     <use xlink:href="#DejaVuSans-69"/>
     <use xlink:href="#DejaVuSans-6e" transform="translate(27.783203 0)"/>
     <use xlink:href="#DejaVuSans-20" transform="translate(91.162109 0)"/>
     <use xlink:href="#DejaVuSans-75" transform="translate(122.949219 0)"/>
     <use xlink:href="#DejaVuSans-6e" transform="translate(186.328125 0)"/>
     <use xlink:href="#DejaVuSans-6b" transform="translate(249.707031 0)"/>
     <use xlink:href="#DejaVuSans-6e" transform="translate(307.617188 0)"/>
     <use xlink:href="#DejaVuSans-6f" transform="translate(370.996094 0)"/>
     <use xlink:href="#DejaVuSans-77" transform="translate(432.177734 0)"/>
     <use xlink:href="#DejaVuSans-6e" transform="translate(513.964844 0)"/>
     <use xlink:href="#DejaVuSans-20" transform="translate(577.34375 0)"/>
     <use xlink:href="#DejaVuSans-70" transform="translate(609.130859 0)"/>
     <use xlink:href="#DejaVuSans-61" transform="translate(672.607422 0)"/>
     <use xlink:href="#DejaVuSans-72" transform="translate(733.886719 0)"/>
     <use xlink:href="#DejaVuSans-61" transform="translate(775 0)"/>
     <use xlink:href="#DejaVuSans-6d" transform="translate(836.279297 0)"/>
     <use xlink:href="#DejaVuSans-65" transform="translate(933.691406 0)"/>
     <use xlink:href="#DejaVuSans-74" transform="translate(995.214844 0)"/>
     <use xlink:href="#DejaVuSans-65" transform="translate(1034.423828 0)"/>
     <use xlink:href="#DejaVuSans-72" transform="translate(1095.947266 0)"/>
     <use xlink:href="#DejaVuSans-73" transform="translate(1137.060547 0)"/>
    </g>
   </g>
  </g>
  <g id="axes_2">
   <g id="patch_7">
    <path d="M 381.55054 303.64 
L 394.43974 303.64 
L 394.43974 45.856 
L 381.55054 45.856 
z
" style="fill: #ffffff"/>
   </g>
   <g id="QuadMesh_1">
    <path d="M 381.55054 303.64 
L 394.43974 303.64 
L 394.43974 290.072421 
L 381.55054 290.072421 
L 381.55054 303.64 
" clip-path="url(#pd387076572)" style="fill: #460a5d"/>
    <path d="M 381.55054 290.072421 
L 394.43974 290.072421 
L 394.43974 276.504842 
L 381.55054 276.504842 
L 381.55054 290.072421 
" clip-path="url(#pd387076572)" style="fill: #481d6f"/>
    <path d="M 381.55054 276.504842 
L 394.43974 276.504842 
L 394.43974 262.937263 
L 381.55054 262.937263 
L 381.55054 276.504842 
" clip-path="url(#pd387076572)" style="fill: #472e7c"/>
    <path d="M 381.55054 262.937263 
L 394.43974 262.937263 
L 394.43974 249.369684 
L 381.55054 249.369684 
L 381.55054 262.937263 
" clip-path="url(#pd387076572)" style="fill: #423f85"/>
    <path d="M 381.55054 249.369684 
L 394.43974 249.369684 
L 394.43974 235.802105 
L 381.55054 235.802105 
L 381.55054 249.369684 
" clip-path="url(#pd387076572)" style="fill: #3d4e8a"/>
    <path d="M 381.55054 235.802105 
L 394.43974 235.802105 
L 394.43974 222.234526 
L 381.55054 222.234526 
L 381.55054 235.802105 
" clip-path="url(#pd387076572)" style="fill: #365d8d"/>
    <path d="M 381.55054 222.234526 
L 394.43974 222.234526 
L 394.43974 208.666947 
L 381.55054 208.666947 
L 381.55054 222.234526 
" clip-path="url(#pd387076572)" style="fill: #306a8e"/>
    <path d="M 381.55054 208.666947 
L 394.43974 208.666947 
L 394.43974 195.099368 
L 381.55054 195.099368 
L 381.55054 208.666947 
" clip-path="url(#pd387076572)" style="fill: #2a778e"/>
    <path d="M 381.55054 195.099368 
L 394.43974 195.099368 
L 394.43974 181.531789 
L 381.55054 181.531789 
L 381.55054 195.099368 
" clip-path="url(#pd387076572)" style="fill: #25838e"/>
    <path d="M 381.55054 181.531789 
L 394.43974 181.531789 
L 394.43974 167.964211 
L 381.55054 167.964211 
L 381.55054 181.531789 
" clip-path="url(#pd387076572)" style="fill: #21908d"/>
    <path d="M 381.55054 167.964211 
L 394.43974 167.964211 
L 394.43974 154.396632 
L 381.55054 154.396632 
L 381.55054 167.964211 
" clip-path="url(#pd387076572)" style="fill: #1e9d89"/>
    <path d="M 381.55054 154.396632 
L 394.43974 154.396632 
L 394.43974 140.829053 
L 381.55054 140.829053 
L 381.55054 154.396632 
" clip-path="url(#pd387076572)" style="fill: #23a983"/>
    <path d="M 381.55054 140.829053 
L 394.43974 140.829053 
L 394.43974 127.261474 
L 381.55054 127.261474 
L 381.55054 140.829053 
" clip-path="url(#pd387076572)" style="fill: #32b67a"/>
    <path d="M 381.55054 127.261474 
L 394.43974 127.261474 
L 394.43974 113.693895 
L 381.55054 113.693895 
L 381.55054 127.261474 
" clip-path="url(#pd387076572)" style="fill: #48c16e"/>
    <path d="M 381.55054 113.693895 
L 394.43974 113.693895 
L 394.43974 100.126316 
L 381.55054 100.126316 
L 381.55054 113.693895 
" clip-path="url(#pd387076572)" style="fill: #65cb5e"/>
    <path d="M 381.55054 100.126316 
L 394.43974 100.126316 
L 394.43974 86.558737 
L 381.55054 86.558737 
L 381.55054 100.126316 
" clip-path="url(#pd387076572)" style="fill: #84d44b"/>
    <path d="M 381.55054 86.558737 
L 394.43974 86.558737 
L 394.43974 72.991158 
L 381.55054 72.991158 
L 381.55054 86.558737 
" clip-path="url(#pd387076572)" style="fill: #a8db34"/>
    <path d="M 381.55054 72.991158 
L 394.43974 72.991158 
L 394.43974 59.423579 
L 381.55054 59.423579 
L 381.55054 72.991158 
" clip-path="url(#pd387076572)" style="fill: #cae11f"/>
    <path d="M 381.55054 59.423579 
L 394.43974 59.423579 
L 394.43974 45.856 
L 381.55054 45.856 
L 381.55054 59.423579 
" clip-path="url(#pd387076572)" style="fill: #efe51c"/>
   </g>
   <g id="matplotlib.axis_3"/>
   <g id="matplotlib.axis_4">
    <g id="ytick_10">
     <g id="line2d_20">
      <defs>
       <path id="m278f56a45a" d="M 0 0 
L 3.5 0 
" style="stroke: #000000; stroke-width: 0.8"/>
      </defs>
      <g>
       <use xlink:href="#m278f56a45a" x="394.43974" y="303.64" style="stroke: #000000; stroke-width: 0.8"/>
      </g>
     </g>
     <g id="text_22">
      <!-- 0.000 -->
      <g transform="translate(401.43974 307.439219) scale(0.1 -0.1)">
       <defs>
        <path id="DejaVuSans-2e" d="M 684 794 
L 1344 794 
L 1344 0 
L 684 0 
L 684 794 
z
" transform="scale(0.015625)"/>
       </defs>
       <use xlink:href="#DejaVuSans-30"/>
       <use xlink:href="#DejaVuSans-2e" transform="translate(63.623047 0)"/>
       <use xlink:href="#DejaVuSans-30" transform="translate(95.410156 0)"/>
       <use xlink:href="#DejaVuSans-30" transform="translate(159.033203 0)"/>
       <use xlink:href="#DejaVuSans-30" transform="translate(222.65625 0)"/>
      </g>
     </g>
    </g>
    <g id="ytick_11">
     <g id="line2d_21">
      <g>
       <use xlink:href="#m278f56a45a" x="394.43974" y="276.504842" style="stroke: #000000; stroke-width: 0.8"/>
      </g>
     </g>
     <g id="text_23">
      <!-- 0.012 -->
      <g transform="translate(401.43974 280.304061) scale(0.1 -0.1)">
       <use xlink:href="#DejaVuSans-30"/>
       <use xlink:href="#DejaVuSans-2e" transform="translate(63.623047 0)"/>
       <use xlink:href="#DejaVuSans-30" transform="translate(95.410156 0)"/>
       <use xlink:href="#DejaVuSans-31" transform="translate(159.033203 0)"/>
       <use xlink:href="#DejaVuSans-32" transform="translate(222.65625 0)"/>
      </g>
     </g>
    </g>
    <g id="ytick_12">
     <g id="line2d_22">
      <g>
       <use xlink:href="#m278f56a45a" x="394.43974" y="249.369684" style="stroke: #000000; stroke-width: 0.8"/>
      </g>
     </g>
     <g id="text_24">
      <!-- 0.024 -->
      <g transform="translate(401.43974 253.168903) scale(0.1 -0.1)">
       <use xlink:href="#DejaVuSans-30"/>
       <use xlink:href="#DejaVuSans-2e" transform="translate(63.623047 0)"/>
       <use xlink:href="#DejaVuSans-30" transform="translate(95.410156 0)"/>
       <use xlink:href="#DejaVuSans-32" transform="translate(159.033203 0)"/>
       <use xlink:href="#DejaVuSans-34" transform="translate(222.65625 0)"/>
      </g>
     </g>
    </g>
    <g id="ytick_13">
     <g id="line2d_23">
      <g>
       <use xlink:href="#m278f56a45a" x="394.43974" y="222.234526" style="stroke: #000000; stroke-width: 0.8"/>
      </g>
     </g>
     <g id="text_25">
      <!-- 0.036 -->
      <g transform="translate(401.43974 226.033745) scale(0.1 -0.1)">
       <defs>
        <path id="DejaVuSans-36" d="M 2113 2584 
Q 1688 2584 1439 2293 
Q 1191 2003 1191 1497 
Q 1191 994 1439 701 
Q 1688 409 2113 409 
Q 2538 409 2786 701 
Q 3034 994 3034 1497 
Q 3034 2003 2786 2293 
Q 2538 2584 2113 2584 
z
M 3366 4563 
L 3366 3988 
Q 3128 4100 2886 4159 
Q 2644 4219 2406 4219 
Q 1781 4219 1451 3797 
Q 1122 3375 1075 2522 
Q 1259 2794 1537 2939 
Q 1816 3084 2150 3084 
Q 2853 3084 3261 2657 
Q 3669 2231 3669 1497 
Q 3669 778 3244 343 
Q 2819 -91 2113 -91 
Q 1303 -91 875 529 
Q 447 1150 447 2328 
Q 447 3434 972 4092 
Q 1497 4750 2381 4750 
Q 2619 4750 2861 4703 
Q 3103 4656 3366 4563 
z
" transform="scale(0.015625)"/>
       </defs>
       <use xlink:href="#DejaVuSans-30"/>
       <use xlink:href="#DejaVuSans-2e" transform="translate(63.623047 0)"/>
       <use xlink:href="#DejaVuSans-30" transform="translate(95.410156 0)"/>
       <use xlink:href="#DejaVuSans-33" transform="translate(159.033203 0)"/>
       <use xlink:href="#DejaVuSans-36" transform="translate(222.65625 0)"/>
      </g>
     </g>
    </g>
    <g id="ytick_14">
     <g id="line2d_24">
      <g>
       <use xlink:href="#m278f56a45a" x="394.43974" y="195.099368" style="stroke: #000000; stroke-width: 0.8"/>
      </g>
     </g>
     <g id="text_26">
      <!-- 0.048 -->
      <g transform="translate(401.43974 198.898587) scale(0.1 -0.1)">
       <defs>
        <path id="DejaVuSans-38" d="M 2034 2216 
Q 1584 2216 1326 1975 
Q 1069 1734 1069 1313 
Q 1069 891 1326 650 
Q 1584 409 2034 409 
Q 2484 409 2743 651 
Q 3003 894 3003 1313 
Q 3003 1734 2745 1975 
Q 2488 2216 2034 2216 
z
M 1403 2484 
Q 997 2584 770 2862 
Q 544 3141 544 3541 
Q 544 4100 942 4425 
Q 1341 4750 2034 4750 
Q 2731 4750 3128 4425 
Q 3525 4100 3525 3541 
Q 3525 3141 3298 2862 
Q 3072 2584 2669 2484 
Q 3125 2378 3379 2068 
Q 3634 1759 3634 1313 
Q 3634 634 3220 271 
Q 2806 -91 2034 -91 
Q 1263 -91 848 271 
Q 434 634 434 1313 
Q 434 1759 690 2068 
Q 947 2378 1403 2484 
z
M 1172 3481 
Q 1172 3119 1398 2916 
Q 1625 2713 2034 2713 
Q 2441 2713 2670 2916 
Q 2900 3119 2900 3481 
Q 2900 3844 2670 4047 
Q 2441 4250 2034 4250 
Q 1625 4250 1398 4047 
Q 1172 3844 1172 3481 
z
" transform="scale(0.015625)"/>
       </defs>
       <use xlink:href="#DejaVuSans-30"/>
       <use xlink:href="#DejaVuSans-2e" transform="translate(63.623047 0)"/>
       <use xlink:href="#DejaVuSans-30" transform="translate(95.410156 0)"/>
       <use xlink:href="#DejaVuSans-34" transform="translate(159.033203 0)"/>
       <use xlink:href="#DejaVuSans-38" transform="translate(222.65625 0)"/>
      </g>
     </g>
    </g>
    <g id="ytick_15">
     <g id="line2d_25">
      <g>
       <use xlink:href="#m278f56a45a" x="394.43974" y="167.964211" style="stroke: #000000; stroke-width: 0.8"/>
      </g>
     </g>
     <g id="text_27">
      <!-- 0.060 -->
      <g transform="translate(401.43974 171.763429) scale(0.1 -0.1)">
       <use xlink:href="#DejaVuSans-30"/>
       <use xlink:href="#DejaVuSans-2e" transform="translate(63.623047 0)"/>
       <use xlink:href="#DejaVuSans-30" transform="translate(95.410156 0)"/>
       <use xlink:href="#DejaVuSans-36" transform="translate(159.033203 0)"/>
       <use xlink:href="#DejaVuSans-30" transform="translate(222.65625 0)"/>
      </g>
     </g>
    </g>
    <g id="ytick_16">
     <g id="line2d_26">
      <g>
       <use xlink:href="#m278f56a45a" x="394.43974" y="140.829053" style="stroke: #000000; stroke-width: 0.8"/>
      </g>
     </g>
     <g id="text_28">
      <!-- 0.072 -->
      <g transform="translate(401.43974 144.628271) scale(0.1 -0.1)">
       <defs>
        <path id="DejaVuSans-37" d="M 525 4666 
L 3525 4666 
L 3525 4397 
L 1831 0 
L 1172 0 
L 2766 4134 
L 525 4134 
L 525 4666 
z
" transform="scale(0.015625)"/>
       </defs>
       <use xlink:href="#DejaVuSans-30"/>
       <use xlink:href="#DejaVuSans-2e" transform="translate(63.623047 0)"/>
       <use xlink:href="#DejaVuSans-30" transform="translate(95.410156 0)"/>
       <use xlink:href="#DejaVuSans-37" transform="translate(159.033203 0)"/>
       <use xlink:href="#DejaVuSans-32" transform="translate(222.65625 0)"/>
      </g>
     </g>
    </g>
    <g id="ytick_17">
     <g id="line2d_27">
      <g>
       <use xlink:href="#m278f56a45a" x="394.43974" y="113.693895" style="stroke: #000000; stroke-width: 0.8"/>
      </g>
     </g>
     <g id="text_29">
      <!-- 0.084 -->
      <g transform="translate(401.43974 117.493113) scale(0.1 -0.1)">
       <use xlink:href="#DejaVuSans-30"/>
       <use xlink:href="#DejaVuSans-2e" transform="translate(63.623047 0)"/>
       <use xlink:href="#DejaVuSans-30" transform="translate(95.410156 0)"/>
       <use xlink:href="#DejaVuSans-38" transform="translate(159.033203 0)"/>
       <use xlink:href="#DejaVuSans-34" transform="translate(222.65625 0)"/>
      </g>
     </g>
    </g>
    <g id="ytick_18">
     <g id="line2d_28">
      <g>
       <use xlink:href="#m278f56a45a" x="394.43974" y="86.558737" style="stroke: #000000; stroke-width: 0.8"/>
      </g>
     </g>
     <g id="text_30">
      <!-- 0.096 -->
      <g transform="translate(401.43974 90.357956) scale(0.1 -0.1)">
       <defs>
        <path id="DejaVuSans-39" d="M 703 97 
L 703 672 
Q 941 559 1184 500 
Q 1428 441 1663 441 
Q 2288 441 2617 861 
Q 2947 1281 2994 2138 
Q 2813 1869 2534 1725 
Q 2256 1581 1919 1581 
Q 1219 1581 811 2004 
Q 403 2428 403 3163 
Q 403 3881 828 4315 
Q 1253 4750 1959 4750 
Q 2769 4750 3195 4129 
Q 3622 3509 3622 2328 
Q 3622 1225 3098 567 
Q 2575 -91 1691 -91 
Q 1453 -91 1209 -44 
Q 966 3 703 97 
z
M 1959 2075 
Q 2384 2075 2632 2365 
Q 2881 2656 2881 3163 
Q 2881 3666 2632 3958 
Q 2384 4250 1959 4250 
Q 1534 4250 1286 3958 
Q 1038 3666 1038 3163 
Q 1038 2656 1286 2365 
Q 1534 2075 1959 2075 
z
" transform="scale(0.015625)"/>
       </defs>
       <use xlink:href="#DejaVuSans-30"/>
       <use xlink:href="#DejaVuSans-2e" transform="translate(63.623047 0)"/>
       <use xlink:href="#DejaVuSans-30" transform="translate(95.410156 0)"/>
       <use xlink:href="#DejaVuSans-39" transform="translate(159.033203 0)"/>
       <use xlink:href="#DejaVuSans-36" transform="translate(222.65625 0)"/>
      </g>
     </g>
    </g>
    <g id="ytick_19">
     <g id="line2d_29">
      <g>
       <use xlink:href="#m278f56a45a" x="394.43974" y="59.423579" style="stroke: #000000; stroke-width: 0.8"/>
      </g>
     </g>
     <g id="text_31">
      <!-- 0.108 -->
      <g transform="translate(401.43974 63.222798) scale(0.1 -0.1)">
       <use xlink:href="#DejaVuSans-30"/>
       <use xlink:href="#DejaVuSans-2e" transform="translate(63.623047 0)"/>
       <use xlink:href="#DejaVuSans-31" transform="translate(95.410156 0)"/>
       <use xlink:href="#DejaVuSans-30" transform="translate(159.033203 0)"/>
       <use xlink:href="#DejaVuSans-38" transform="translate(222.65625 0)"/>
      </g>
     </g>
    </g>
    <g id="text_32">
     <!-- Relative error -->
     <g transform="translate(441.666302 208.603469) rotate(-90) scale(0.1 -0.1)">
      <use xlink:href="#DejaVuSans-52"/>
      <use xlink:href="#DejaVuSans-65" transform="translate(64.982422 0)"/>
      <use xlink:href="#DejaVuSans-6c" transform="translate(126.505859 0)"/>
      <use xlink:href="#DejaVuSans-61" transform="translate(154.289062 0)"/>
      <use xlink:href="#DejaVuSans-74" transform="translate(215.568359 0)"/>
      <use xlink:href="#DejaVuSans-69" transform="translate(254.777344 0)"/>
      <use xlink:href="#DejaVuSans-76" transform="translate(282.560547 0)"/>
      <use xlink:href="#DejaVuSans-65" transform="translate(341.740234 0)"/>
      <use xlink:href="#DejaVuSans-20" transform="translate(403.263672 0)"/>
      <use xlink:href="#DejaVuSans-65" transform="translate(435.050781 0)"/>
      <use xlink:href="#DejaVuSans-72" transform="translate(496.574219 0)"/>
      <use xlink:href="#DejaVuSans-72" transform="translate(535.9375 0)"/>
      <use xlink:href="#DejaVuSans-6f" transform="translate(574.800781 0)"/>
      <use xlink:href="#DejaVuSans-72" transform="translate(635.982422 0)"/>
     </g>
    </g>
   </g>
   <g id="LineCollection_1"/>
   <g id="patch_8">
    <path d="M 381.55054 303.64 
L 387.99514 303.64 
L 394.43974 303.64 
L 394.43974 45.856 
L 387.99514 45.856 
L 381.55054 45.856 
L 381.55054 303.64 
z
" style="fill: none; stroke: #000000; stroke-width: 0.8; stroke-linejoin: miter; stroke-linecap: square"/>
   </g>
  </g>
 </g>
 <defs>
  <clipPath id="pedabbff588">
   <rect x="46.64" y="45.856" width="315.20992" height="257.784"/>
  </clipPath>
  <clipPath id="pd387076572">
   <rect x="381.55054" y="45.856" width="12.8892" height="257.784"/>
  </clipPath>
 </defs>
</svg>
