<?xml version="1.0" encoding="utf-8" standalone="no"?>
<!DOCTYPE svg PUBLIC "-//W3C//DTD SVG 1.1//EN"
  "http://www.w3.org/Graphics/SVG/1.1/DTD/svg11.dtd">
<svg xmlns:xlink="http://www.w3.org/1999/xlink" width="460.8pt" height="345.6pt" viewBox="0 0 460.8 345.6" xmlns="http://www.w3.org/2000/svg" version="1.1">
 <metadata>
  <rdf:RDF xmlns:dc="http://purl.org/dc/elements/1.1/" xmlns:cc="http://creativecommons.org/ns#" xmlns:rdf="http://www.w3.org/1999/02/22-rdf-syntax-ns#">
   <cc:Work>
    <dc:type rdf:resource="http://purl.org/dc/dcmitype/StillImage"/>
    <dc:date>2025-10-15T22:43:35.055191</dc:date>
    <dc:format>image/svg+xml</dc:format>
    <dc:creator>
     <cc:Agent>
      <dc:title>Matplotlib v3.10.6, https://matplotlib.org/</dc:title>
     </cc:Agent>
    </dc:creator>
   </cc:Work>
  </rdf:RDF>
 </metadata>
 <defs>
  <style type="text/css">*{stroke-linejoin: round; stroke-linecap: butt}</style>
 </defs>
 <g id="figure_1">
  <g id="patch_1">
   <path d="M 0 345.6 
L 460.8 345.6 
L 460.8 0 
L 0 0 
z
" style="fill: #ffffff"/>
  </g>
  <g id="axes_1">
   <g id="patch_2">
    <path d="M 46.64 303.64 
L 361.92192 303.64 
L 361.92192 45.856 
L 46.64 45.856 
z
" style="fill: #ffffff"/>
   </g>
   <g id="QuadContourSet_1">
    <path d="M 235.809152 205.969349 
L 241.204397 200.5264 
L 235.809152 193.273064 
L 232.284239 187.6372 
L 220.045056 174.822618 
L 219.983422 174.748 
L 204.824973 161.8588 
L 204.28096 161.414572 
L 188.516864 150.470203 
L 184.306863 148.9696 
L 172.752768 143.594165 
L 167.552456 148.9696 
L 172.752768 156.011362 
L 176.393293 161.8588 
L 188.516864 174.558289 
L 188.673722 174.748 
L 203.847053 187.6372 
L 204.28096 187.991002 
L 220.045056 198.935996 
L 224.383854 200.5264 
z
" clip-path="url(#p3dc2f44def)" style="fill: #460a5d"/>
    <path d="M 267.337344 241.014798 
L 283.10144 242.547376 
L 285.850508 239.194 
L 283.10144 231.305392 
L 281.488139 226.3048 
L 272.481508 213.4156 
L 267.337344 207.55442 
L 261.60602 200.5264 
L 251.573248 190.051399 
L 249.400706 187.6372 
L 235.957756 174.748 
L 235.809152 174.614697 
L 221.406658 161.8588 
L 220.045056 160.700329 
L 205.678982 148.9696 
L 204.28096 147.843321 
L 188.604572 136.0804 
L 188.516864 136.013722 
L 172.752768 125.369709 
L 168.68858 123.1912 
L 156.988672 116.208144 
L 144.242327 110.302 
L 141.224576 108.740342 
L 125.46048 108.463072 
L 124.02588 110.302 
L 125.46048 114.649453 
L 128.086737 123.1912 
L 136.586753 136.0804 
L 141.224576 141.398385 
L 147.365075 148.9696 
L 156.988672 159.030893 
L 159.531596 161.8588 
L 172.752768 174.518251 
L 172.986205 174.748 
L 187.59272 187.6372 
L 188.516864 188.4207 
L 203.36362 200.5264 
L 204.28096 201.264287 
L 220.045056 213.117373 
L 220.520967 213.4156 
L 235.809152 223.829103 
L 240.307001 226.3048 
L 251.573248 233.179517 
L 263.963097 239.194 
z
M 224.383854 200.5264 
L 220.045056 198.935996 
L 204.28096 187.991002 
L 203.847053 187.6372 
L 188.673722 174.748 
L 188.516864 174.558289 
L 176.393293 161.8588 
L 172.752768 156.011362 
L 167.552456 148.9696 
L 172.752768 143.594165 
L 184.306863 148.9696 
L 188.516864 150.470203 
L 204.28096 161.414572 
L 204.824973 161.8588 
L 219.983422 174.748 
L 220.045056 174.822618 
L 232.284239 187.6372 
L 235.809152 193.273064 
L 241.204397 200.5264 
L 235.809152 205.969349 
z
" clip-path="url(#p3dc2f44def)" style="fill: #481b6d"/>
    <path d="M 314.629632 279.44901 
L 323.908224 277.8616 
L 326.822638 264.9724 
L 320.579937 252.0832 
L 314.629632 243.297167 
L 312.020545 239.194 
L 301.898544 226.3048 
L 298.865536 222.945667 
L 290.616238 213.4156 
L 283.10144 205.520616 
L 278.519431 200.5264 
L 267.337344 189.383349 
L 265.631181 187.6372 
L 251.995457 174.748 
L 251.573248 174.366421 
L 237.646507 161.8588 
L 235.809152 160.262593 
L 222.546605 148.9696 
L 220.045056 146.882491 
L 206.633997 136.0804 
L 204.28096 134.197665 
L 189.810012 123.1912 
L 188.516864 122.200895 
L 172.752768 110.91382 
L 171.785629 110.302 
L 156.988672 100.447219 
L 151.761668 97.4128 
L 141.224576 90.90939 
L 129.210231 84.5236 
L 125.46048 82.394352 
L 109.696384 75.896041 
L 93.932288 71.823439 
L 84.931029 84.5236 
L 89.732558 97.4128 
L 93.932288 103.81647 
L 97.936633 110.302 
L 107.669758 123.1912 
L 109.696384 125.450842 
L 118.84215 136.0804 
L 125.46048 143.048173 
L 130.884836 148.9696 
L 141.224576 159.260293 
L 143.768001 161.8588 
L 156.988672 174.315914 
L 157.44264 174.748 
L 171.870784 187.6372 
L 172.752768 188.399333 
L 187.053584 200.5264 
L 188.516864 201.742362 
L 203.028885 213.4156 
L 204.28096 214.415892 
L 219.863978 226.3048 
L 220.045056 226.443784 
L 235.809152 237.79259 
L 237.981087 239.194 
L 251.573248 248.396659 
L 257.722432 252.0832 
L 267.337344 258.186553 
L 279.506032 264.9724 
L 283.10144 267.104695 
L 298.865536 274.314225 
L 310.037903 277.8616 
z
M 263.963097 239.194 
L 251.573248 233.179517 
L 240.307001 226.3048 
L 235.809152 223.829103 
L 220.520967 213.4156 
L 220.045056 213.117373 
L 204.28096 201.264287 
L 203.36362 200.5264 
L 188.516864 188.4207 
L 187.59272 187.6372 
L 172.986205 174.748 
L 172.752768 174.518251 
L 159.531596 161.8588 
L 156.988672 159.030893 
L 147.365075 148.9696 
L 141.224576 141.398385 
L 136.586753 136.0804 
L 128.086737 123.1912 
L 125.46048 114.649453 
L 124.02588 110.302 
L 125.46048 108.463072 
L 141.224576 108.740342 
L 144.242327 110.302 
L 156.988672 116.208144 
L 168.68858 123.1912 
L 172.752768 125.369709 
L 188.516864 136.013722 
L 188.604572 136.0804 
L 204.28096 147.843321 
L 205.678982 148.9696 
L 220.045056 160.700329 
L 221.406658 161.8588 
L 235.809152 174.614697 
L 235.957756 174.748 
L 249.400706 187.6372 
L 251.573248 190.051399 
L 261.60602 200.5264 
L 267.337344 207.55442 
L 272.481508 213.4156 
L 281.488139 226.3048 
L 283.10144 231.305392 
L 285.850508 239.194 
L 283.10144 242.547376 
L 267.337344 241.014798 
z
" clip-path="url(#p3dc2f44def)" style="fill: #472a7a"/>
    <path d="M 298.865536 292.249205 
L 314.629632 300.62759 
L 321.371183 303.64 
L 330.393728 303.64 
L 346.157824 303.64 
L 361.92192 303.64 
L 361.92192 290.7508 
L 361.92192 281.209817 
L 360.227188 277.8616 
L 351.479475 264.9724 
L 346.157824 258.089529 
L 341.712021 252.0832 
L 331.144504 239.194 
L 330.393728 238.372281 
L 319.686092 226.3048 
L 314.629632 220.974921 
L 307.643512 213.4156 
L 298.865536 204.507929 
L 295.02518 200.5264 
L 283.10144 188.88118 
L 281.846158 187.6372 
L 268.130088 174.748 
L 267.337344 174.028073 
L 253.886588 161.8588 
L 251.573248 159.823083 
L 239.092352 148.9696 
L 235.809152 146.171843 
L 223.717907 136.0804 
L 220.045056 133.052248 
L 207.71774 123.1912 
L 204.28096 120.452692 
L 191.025794 110.302 
L 188.516864 108.372453 
L 173.551553 97.4128 
L 172.752768 96.820817 
L 156.988672 85.832006 
L 154.931934 84.5236 
L 141.224576 75.475109 
L 134.801593 71.6344 
L 125.46048 65.806089 
L 112.87446 58.7452 
L 109.696384 56.878136 
L 93.932288 49.123958 
L 85.648589 45.856 
L 78.168192 45.856 
L 62.404096 45.856 
L 46.64 45.856 
L 46.64 58.7452 
L 46.64 60.754023 
L 51.791543 71.6344 
L 59.52451 84.5236 
L 62.404096 88.351198 
L 68.94071 97.4128 
L 78.168192 108.976458 
L 79.181023 110.302 
L 90.447274 123.1912 
L 93.932288 126.875136 
L 102.420076 136.0804 
L 109.696384 143.459156 
L 115.01779 148.9696 
L 125.46048 159.134819 
L 128.219441 161.8588 
L 141.224576 174.018885 
L 142.000335 174.748 
L 156.344532 187.6372 
L 156.988672 188.200043 
L 171.251539 200.5264 
L 172.752768 201.797876 
L 186.73288 213.4156 
L 188.516864 214.880187 
L 202.816228 226.3048 
L 204.28096 227.470226 
L 219.542619 239.194 
L 220.045056 239.581331 
L 235.809152 251.204308 
L 237.087481 252.0832 
L 251.573248 262.311425 
L 255.645173 264.9724 
L 267.337344 272.874841 
L 275.35995 277.8616 
L 283.10144 282.863106 
L 296.436048 290.7508 
z
M 310.037903 277.8616 
L 298.865536 274.314225 
L 283.10144 267.104695 
L 279.506032 264.9724 
L 267.337344 258.186553 
L 257.722432 252.0832 
L 251.573248 248.396659 
L 237.981087 239.194 
L 235.809152 237.79259 
L 220.045056 226.443784 
L 219.863978 226.3048 
L 204.28096 214.415892 
L 203.028885 213.4156 
L 188.516864 201.742362 
L 187.053584 200.5264 
L 172.752768 188.399333 
L 171.870784 187.6372 
L 157.44264 174.748 
L 156.988672 174.315914 
L 143.768001 161.8588 
L 141.224576 159.260293 
L 130.884836 148.9696 
L 125.46048 143.048173 
L 118.84215 136.0804 
L 109.696384 125.450842 
L 107.669758 123.1912 
L 97.936633 110.302 
L 93.932288 103.81647 
L 89.732558 97.4128 
L 84.931029 84.5236 
L 93.932288 71.823439 
L 109.696384 75.896041 
L 125.46048 82.394352 
L 129.210231 84.5236 
L 141.224576 90.90939 
L 151.761668 97.4128 
L 156.988672 100.447219 
L 171.785629 110.302 
L 172.752768 110.91382 
L 188.516864 122.200895 
L 189.810012 123.1912 
L 204.28096 134.197665 
L 206.633997 136.0804 
L 220.045056 146.882491 
L 222.546605 148.9696 
L 235.809152 160.262593 
L 237.646507 161.8588 
L 251.573248 174.366421 
L 251.995457 174.748 
L 265.631181 187.6372 
L 267.337344 189.383349 
L 278.519431 200.5264 
L 283.10144 205.520616 
L 290.616238 213.4156 
L 298.865536 222.945667 
L 301.898544 226.3048 
L 312.020545 239.194 
L 314.629632 243.297167 
L 320.579937 252.0832 
L 326.822638 264.9724 
L 323.908224 277.8616 
L 314.629632 279.44901 
z
" clip-path="url(#p3dc2f44def)" style="fill: #443983"/>
    <path d="M 283.10144 297.282685 
L 293.119825 303.64 
L 298.865536 303.64 
L 314.629632 303.64 
L 321.371183 303.64 
L 314.629632 300.62759 
L 298.865536 292.249205 
L 296.436048 290.7508 
L 283.10144 282.863106 
L 275.35995 277.8616 
L 267.337344 272.874841 
L 255.645173 264.9724 
L 251.573248 262.311425 
L 237.087481 252.0832 
L 235.809152 251.204308 
L 220.045056 239.581331 
L 219.542619 239.194 
L 204.28096 227.470226 
L 202.816228 226.3048 
L 188.516864 214.880187 
L 186.73288 213.4156 
L 172.752768 201.797876 
L 171.251539 200.5264 
L 156.988672 188.200043 
L 156.344532 187.6372 
L 142.000335 174.748 
L 141.224576 174.018885 
L 128.219441 161.8588 
L 125.46048 159.134819 
L 115.01779 148.9696 
L 109.696384 143.459156 
L 102.420076 136.0804 
L 93.932288 126.875136 
L 90.447274 123.1912 
L 79.181023 110.302 
L 78.168192 108.976458 
L 68.94071 97.4128 
L 62.404096 88.351198 
L 59.52451 84.5236 
L 51.791543 71.6344 
L 46.64 60.754023 
L 46.64 71.6344 
L 46.64 84.5236 
L 46.64 92.100418 
L 50.929786 97.4128 
L 62.152518 110.302 
L 62.404096 110.568659 
L 74.079147 123.1912 
L 78.168192 127.38428 
L 86.504789 136.0804 
L 93.932288 143.451601 
L 99.418102 148.9696 
L 109.696384 158.845248 
L 112.805294 161.8588 
L 125.46048 173.635607 
L 126.652115 174.748 
L 140.94875 187.6372 
L 141.224576 187.879955 
L 155.697732 200.5264 
L 156.988672 201.633442 
L 170.899181 213.4156 
L 172.752768 214.964549 
L 186.566095 226.3048 
L 188.516864 227.893373 
L 202.718196 239.194 
L 204.28096 240.434083 
L 219.382591 252.0832 
L 220.045056 252.595384 
L 235.809152 264.374455 
L 236.650419 264.9724 
L 251.573248 275.756941 
L 254.649709 277.8616 
L 267.337344 286.731951 
L 273.438063 290.7508 
z
M 361.92192 281.209817 
L 361.92192 277.8616 
L 361.92192 264.9724 
L 361.92192 253.998069 
L 360.347965 252.0832 
L 348.843219 239.194 
L 346.157824 236.35785 
L 336.831076 226.3048 
L 330.393728 219.703424 
L 324.36921 213.4156 
L 314.629632 203.721261 
L 311.46426 200.5264 
L 298.865536 188.358928 
L 298.125055 187.6372 
L 284.368992 174.748 
L 283.10144 173.592815 
L 270.193421 161.8588 
L 267.337344 159.323111 
L 255.583633 148.9696 
L 251.573248 145.502836 
L 240.522899 136.0804 
L 235.809152 132.115366 
L 224.986293 123.1912 
L 220.045056 119.149722 
L 208.938433 110.302 
L 204.28096 106.60112 
L 192.331323 97.4128 
L 188.516864 94.471051 
L 175.102442 84.5236 
L 172.752768 82.76686 
L 157.173103 71.6344 
L 156.988672 71.50089 
L 141.224576 60.709716 
L 138.139038 58.7452 
L 125.46048 50.434929 
L 117.907718 45.856 
L 109.696384 45.856 
L 93.932288 45.856 
L 85.648589 45.856 
L 93.932288 49.123958 
L 109.696384 56.878136 
L 112.87446 58.7452 
L 125.46048 65.806089 
L 134.801593 71.6344 
L 141.224576 75.475109 
L 154.931934 84.5236 
L 156.988672 85.832006 
L 172.752768 96.820817 
L 173.551553 97.4128 
L 188.516864 108.372453 
L 191.025794 110.302 
L 204.28096 120.452692 
L 207.71774 123.1912 
L 220.045056 133.052248 
L 223.717907 136.0804 
L 235.809152 146.171843 
L 239.092352 148.9696 
L 251.573248 159.823083 
L 253.886588 161.8588 
L 267.337344 174.028073 
L 268.130088 174.748 
L 281.846158 187.6372 
L 283.10144 188.88118 
L 295.02518 200.5264 
L 298.865536 204.507929 
L 307.643512 213.4156 
L 314.629632 220.974921 
L 319.686092 226.3048 
L 330.393728 238.372281 
L 331.144504 239.194 
L 341.712021 252.0832 
L 346.157824 258.089529 
L 351.479475 264.9724 
L 360.227188 277.8616 
z
" clip-path="url(#p3dc2f44def)" style="fill: #3f4788"/>
    <path d="M 267.337344 300.177416 
L 272.40878 303.64 
L 283.10144 303.64 
L 293.119825 303.64 
L 283.10144 297.282685 
L 273.438063 290.7508 
L 267.337344 286.731951 
L 254.649709 277.8616 
L 251.573248 275.756941 
L 236.650419 264.9724 
L 235.809152 264.374455 
L 220.045056 252.595384 
L 219.382591 252.0832 
L 204.28096 240.434083 
L 202.718196 239.194 
L 188.516864 227.893373 
L 186.566095 226.3048 
L 172.752768 214.964549 
L 170.899181 213.4156 
L 156.988672 201.633442 
L 155.697732 200.5264 
L 141.224576 187.879955 
L 140.94875 187.6372 
L 126.652115 174.748 
L 125.46048 173.635607 
L 112.805294 161.8588 
L 109.696384 158.845248 
L 99.418102 148.9696 
L 93.932288 143.451601 
L 86.504789 136.0804 
L 78.168192 127.38428 
L 74.079147 123.1912 
L 62.404096 110.568659 
L 62.152518 110.302 
L 50.929786 97.4128 
L 46.64 92.100418 
L 46.64 97.4128 
L 46.64 110.302 
L 46.64 111.125837 
L 58.151761 123.1912 
L 62.404096 127.465876 
L 70.870469 136.0804 
L 78.168192 143.220309 
L 83.990058 148.9696 
L 93.932288 158.439282 
L 97.501072 161.8588 
L 109.696384 173.169895 
L 111.394336 174.748 
L 125.46048 187.455274 
L 125.662334 187.6372 
L 140.308871 200.5264 
L 141.224576 201.318506 
L 155.331254 213.4156 
L 156.988672 214.817927 
L 170.734724 226.3048 
L 172.752768 227.975018 
L 186.529603 239.194 
L 188.516864 240.802947 
L 202.730378 252.0832 
L 204.28096 253.311285 
L 219.355933 264.9724 
L 220.045056 265.506306 
L 235.809152 277.387011 
L 236.463468 277.8616 
L 251.573248 288.945247 
L 254.139353 290.7508 
z
M 361.92192 253.998069 
L 361.92192 252.0832 
L 361.92192 239.194 
L 361.92192 234.878366 
L 353.740748 226.3048 
L 346.157824 218.663222 
L 341.015678 213.4156 
L 330.393728 202.971505 
L 327.93112 200.5264 
L 314.629632 187.769737 
L 314.492302 187.6372 
L 300.716174 174.748 
L 298.865536 173.056707 
L 286.590178 161.8588 
L 283.10144 158.740929 
L 272.106342 148.9696 
L 267.337344 144.803597 
L 257.25399 136.0804 
L 251.573248 131.232122 
L 242.017759 123.1912 
L 235.809152 118.017198 
L 226.37635 110.302 
L 220.045056 105.153227 
L 210.301283 97.4128 
L 204.28096 92.638552 
L 193.755711 84.5236 
L 188.516864 80.475469 
L 176.693344 71.6344 
L 172.752768 68.670007 
L 159.057473 58.7452 
L 156.988672 57.231499 
L 141.224576 46.173015 
L 140.745512 45.856 
L 125.46048 45.856 
L 117.907718 45.856 
L 125.46048 50.434929 
L 138.139038 58.7452 
L 141.224576 60.709716 
L 156.988672 71.50089 
L 157.173103 71.6344 
L 172.752768 82.76686 
L 175.102442 84.5236 
L 188.516864 94.471051 
L 192.331323 97.4128 
L 204.28096 106.60112 
L 208.938433 110.302 
L 220.045056 119.149722 
L 224.986293 123.1912 
L 235.809152 132.115366 
L 240.522899 136.0804 
L 251.573248 145.502836 
L 255.583633 148.9696 
L 267.337344 159.323111 
L 270.193421 161.8588 
L 283.10144 173.592815 
L 284.368992 174.748 
L 298.125055 187.6372 
L 298.865536 188.358928 
L 311.46426 200.5264 
L 314.629632 203.721261 
L 324.36921 213.4156 
L 330.393728 219.703424 
L 336.831076 226.3048 
L 346.157824 236.35785 
L 348.843219 239.194 
L 360.347965 252.0832 
z
" clip-path="url(#p3dc2f44def)" style="fill: #39558c"/>
    <path d="M 251.573248 301.957298 
L 253.919945 303.64 
L 267.337344 303.64 
L 272.40878 303.64 
L 267.337344 300.177416 
L 254.139353 290.7508 
L 251.573248 288.945247 
L 236.463468 277.8616 
L 235.809152 277.387011 
L 220.045056 265.506306 
L 219.355933 264.9724 
L 204.28096 253.311285 
L 202.730378 252.0832 
L 188.516864 240.802947 
L 186.529603 239.194 
L 172.752768 227.975018 
L 170.734724 226.3048 
L 156.988672 214.817927 
L 155.331254 213.4156 
L 141.224576 201.318506 
L 140.308871 200.5264 
L 125.662334 187.6372 
L 125.46048 187.455274 
L 111.394336 174.748 
L 109.696384 173.169895 
L 97.501072 161.8588 
L 93.932288 158.439282 
L 83.990058 148.9696 
L 78.168192 143.220309 
L 70.870469 136.0804 
L 62.404096 127.465876 
L 58.151761 123.1912 
L 46.64 111.125837 
L 46.64 123.1912 
L 46.64 127.291402 
L 55.428456 136.0804 
L 62.404096 142.835809 
L 68.694937 148.9696 
L 78.168192 157.935524 
L 82.295716 161.8588 
L 93.932288 172.624386 
L 96.224372 174.748 
L 109.696384 186.93355 
L 110.475629 187.6372 
L 125.049297 200.5264 
L 125.46048 200.88435 
L 139.948082 213.4156 
L 141.224576 214.505545 
L 155.170514 226.3048 
L 156.988672 227.827659 
L 170.722267 239.194 
L 172.752768 240.862432 
L 186.611539 252.0832 
L 188.516864 253.619149 
L 202.849227 264.9724 
L 204.28096 266.104771 
L 219.448996 277.8616 
L 220.045056 278.324135 
L 235.809152 290.276341 
L 236.45445 290.7508 
z
M 361.92192 234.878366 
L 361.92192 226.3048 
L 361.92192 217.689206 
L 357.670344 213.4156 
L 346.157824 202.189745 
L 344.464244 200.5264 
L 330.962735 187.6372 
L 330.393728 187.105882 
L 317.174722 174.748 
L 314.629632 172.416596 
L 303.088036 161.8588 
L 298.865536 158.065541 
L 288.697512 148.9696 
L 283.10144 144.041348 
L 273.995756 136.0804 
L 267.337344 130.334334 
L 258.97245 123.1912 
L 251.573248 116.936854 
L 243.613627 110.302 
L 235.809152 103.843595 
L 227.900903 97.4128 
L 220.045056 91.051797 
L 211.81073 84.5236 
L 204.28096 78.561367 
L 195.313673 71.6344 
L 188.516864 66.374868 
L 178.373732 58.7452 
L 172.752768 54.497406 
L 160.947713 45.856 
L 156.988672 45.856 
L 141.224576 45.856 
L 140.745512 45.856 
L 141.224576 46.173015 
L 156.988672 57.231499 
L 159.057473 58.7452 
L 172.752768 68.670007 
L 176.693344 71.6344 
L 188.516864 80.475469 
L 193.755711 84.5236 
L 204.28096 92.638552 
L 210.301283 97.4128 
L 220.045056 105.153227 
L 226.37635 110.302 
L 235.809152 118.017198 
L 242.017759 123.1912 
L 251.573248 131.232122 
L 257.25399 136.0804 
L 267.337344 144.803597 
L 272.106342 148.9696 
L 283.10144 158.740929 
L 286.590178 161.8588 
L 298.865536 173.056707 
L 300.716174 174.748 
L 314.492302 187.6372 
L 314.629632 187.769737 
L 327.93112 200.5264 
L 330.393728 202.971505 
L 341.015678 213.4156 
L 346.157824 218.663222 
L 353.740748 226.3048 
z
" clip-path="url(#p3dc2f44def)" style="fill: #33628d"/>
    <path d="M 220.045056 291.054994 
L 235.809152 303.060099 
L 236.590203 303.64 
L 251.573248 303.64 
L 253.919945 303.64 
L 251.573248 301.957298 
L 236.45445 290.7508 
L 235.809152 290.276341 
L 220.045056 278.324135 
L 219.448996 277.8616 
L 204.28096 266.104771 
L 202.849227 264.9724 
L 188.516864 253.619149 
L 186.611539 252.0832 
L 172.752768 240.862432 
L 170.722267 239.194 
L 156.988672 227.827659 
L 155.170514 226.3048 
L 141.224576 214.505545 
L 139.948082 213.4156 
L 125.46048 200.88435 
L 125.049297 200.5264 
L 110.475629 187.6372 
L 109.696384 186.93355 
L 96.224372 174.748 
L 93.932288 172.624386 
L 82.295716 161.8588 
L 78.168192 157.935524 
L 68.694937 148.9696 
L 62.404096 142.835809 
L 55.428456 136.0804 
L 46.64 127.291402 
L 46.64 136.0804 
L 46.64 142.330518 
L 53.513284 148.9696 
L 62.404096 157.3434 
L 67.182896 161.8588 
L 78.168192 172.001268 
L 81.140003 174.748 
L 93.932288 186.327807 
L 95.380625 187.6372 
L 109.696384 200.344541 
L 109.902037 200.5264 
L 124.709572 213.4156 
L 125.46048 214.061253 
L 139.800441 226.3048 
L 141.224576 227.508572 
L 155.1764 239.194 
L 156.988672 240.700043 
L 170.842244 252.0832 
L 172.752768 253.644269 
L 186.804511 264.9724 
L 188.516864 266.348179 
L 203.071548 277.8616 
L 204.28096 278.817119 
L 219.653535 290.7508 
z
M 361.92192 217.689206 
L 361.92192 213.4156 
L 361.92192 201.343839 
L 361.083264 200.5264 
L 347.541391 187.6372 
L 346.157824 186.34543 
L 333.747406 174.748 
L 330.393728 171.669589 
L 319.693771 161.8588 
L 314.629632 157.290036 
L 305.376545 148.9696 
L 298.865536 143.198101 
L 290.790283 136.0804 
L 283.10144 129.386214 
L 275.927603 123.1912 
L 267.337344 115.848137 
L 260.778729 110.302 
L 251.573248 102.579167 
L 245.331003 97.4128 
L 235.809152 89.576313 
L 229.568391 84.5236 
L 220.045056 76.838412 
L 213.470996 71.6344 
L 204.28096 64.366191 
L 197.01458 58.7452 
L 188.516864 52.162267 
L 180.170106 45.856 
L 172.752768 45.856 
L 160.947713 45.856 
L 172.752768 54.497406 
L 178.373732 58.7452 
L 188.516864 66.374868 
L 195.313673 71.6344 
L 204.28096 78.561367 
L 211.81073 84.5236 
L 220.045056 91.051797 
L 227.900903 97.4128 
L 235.809152 103.843595 
L 243.613627 110.302 
L 251.573248 116.936854 
L 258.97245 123.1912 
L 267.337344 130.334334 
L 273.995756 136.0804 
L 283.10144 144.041348 
L 288.697512 148.9696 
L 298.865536 158.065541 
L 303.088036 161.8588 
L 314.629632 172.416596 
L 317.174722 174.748 
L 330.393728 187.105882 
L 330.962735 187.6372 
L 344.464244 200.5264 
L 346.157824 202.189745 
L 357.670344 213.4156 
z
" clip-path="url(#p3dc2f44def)" style="fill: #2e6e8e"/>
    <path d="M 204.28096 291.450718 
L 219.96374 303.64 
L 220.045056 303.64 
L 235.809152 303.64 
L 236.590203 303.64 
L 235.809152 303.060099 
L 220.045056 291.054994 
L 219.653535 290.7508 
L 204.28096 278.817119 
L 203.071548 277.8616 
L 188.516864 266.348179 
L 186.804511 264.9724 
L 172.752768 253.644269 
L 170.842244 252.0832 
L 156.988672 240.700043 
L 155.1764 239.194 
L 141.224576 227.508572 
L 139.800441 226.3048 
L 125.46048 214.061253 
L 124.709572 213.4156 
L 109.902037 200.5264 
L 109.696384 200.344541 
L 95.380625 187.6372 
L 93.932288 186.327807 
L 81.140003 174.748 
L 78.168192 172.001268 
L 67.182896 161.8588 
L 62.404096 157.3434 
L 53.513284 148.9696 
L 46.64 142.330518 
L 46.64 148.9696 
L 46.64 156.668645 
L 52.158347 161.8588 
L 62.404096 171.30251 
L 66.139209 174.748 
L 78.168192 185.642224 
L 80.373186 187.6372 
L 93.932288 199.704944 
L 94.857968 200.5264 
L 109.593148 213.4156 
L 109.696384 213.504852 
L 124.584493 226.3048 
L 125.46048 227.050577 
L 139.827739 239.194 
L 141.224576 240.365184 
L 155.325721 252.0832 
L 156.988672 253.456501 
L 171.082446 264.9724 
L 172.752768 266.331117 
L 187.103151 277.8616 
L 188.516864 278.994429 
L 203.394333 290.7508 
z
M 361.92192 201.343839 
L 361.92192 200.5264 
L 361.92192 187.6372 
L 361.92192 185.479906 
L 350.436882 174.748 
L 346.157824 170.812869 
L 336.412252 161.8588 
L 330.393728 156.409319 
L 322.155209 148.9696 
L 314.629632 142.262501 
L 307.661554 136.0804 
L 298.865536 128.366411 
L 292.925741 123.1912 
L 283.10144 114.715948 
L 277.940572 110.302 
L 267.337344 101.307066 
L 262.696878 97.4128 
L 251.573248 88.136899 
L 247.183178 84.5236 
L 235.809152 75.203867 
L 231.385343 71.6344 
L 220.045056 62.507752 
L 215.286256 58.7452 
L 204.28096 50.049729 
L 198.865477 45.856 
L 188.516864 45.856 
L 180.170106 45.856 
L 188.516864 52.162267 
L 197.01458 58.7452 
L 204.28096 64.366191 
L 213.470996 71.6344 
L 220.045056 76.838412 
L 229.568391 84.5236 
L 235.809152 89.576313 
L 245.331003 97.4128 
L 251.573248 102.579167 
L 260.778729 110.302 
L 267.337344 115.848137 
L 275.927603 123.1912 
L 283.10144 129.386214 
L 290.790283 136.0804 
L 298.865536 143.198101 
L 305.376545 148.9696 
L 314.629632 157.290036 
L 319.693771 161.8588 
L 330.393728 171.669589 
L 333.747406 174.748 
L 346.157824 186.34543 
L 347.541391 187.6372 
L 361.083264 200.5264 
z
" clip-path="url(#p3dc2f44def)" style="fill: #29798e"/>
    <path d="M 188.516864 291.561367 
L 203.814692 303.64 
L 204.28096 303.64 
L 219.96374 303.64 
L 204.28096 291.450718 
L 203.394333 290.7508 
L 188.516864 278.994429 
L 187.103151 277.8616 
L 172.752768 266.331117 
L 171.082446 264.9724 
L 156.988672 253.456501 
L 155.325721 252.0832 
L 141.224576 240.365184 
L 139.827739 239.194 
L 125.46048 227.050577 
L 124.584493 226.3048 
L 109.696384 213.504852 
L 109.593148 213.4156 
L 94.857968 200.5264 
L 93.932288 199.704944 
L 80.373186 187.6372 
L 78.168192 185.642224 
L 66.139209 174.748 
L 62.404096 171.30251 
L 52.158347 161.8588 
L 46.64 156.668645 
L 46.64 161.8588 
L 46.64 170.529948 
L 51.220087 174.748 
L 62.404096 184.879967 
L 65.450136 187.6372 
L 78.168192 198.979363 
L 79.906966 200.5264 
L 93.932288 212.840957 
L 94.589338 213.4156 
L 109.498536 226.3048 
L 109.696384 226.474215 
L 124.638313 239.194 
L 125.46048 239.888312 
L 140.005761 252.0832 
L 141.224576 253.09839 
L 155.603346 264.9724 
L 156.988672 266.110588 
L 171.4344 277.8616 
L 172.752768 278.93013 
L 187.503143 290.7508 
z
M 361.92192 185.479906 
L 361.92192 174.748 
L 361.92192 169.843624 
L 353.247425 161.8588 
L 346.157824 155.419188 
L 339.041546 148.9696 
L 330.393728 141.226532 
L 324.624777 136.0804 
L 314.629632 127.260832 
L 309.992788 123.1912 
L 298.865536 113.517901 
L 295.140066 110.302 
L 283.10144 99.994293 
L 280.059691 97.4128 
L 267.337344 86.687407 
L 264.743101 84.5236 
L 251.573248 73.595564 
L 249.179852 71.6344 
L 235.809152 60.718081 
L 233.357371 58.7452 
L 220.045056 48.055315 
L 217.260708 45.856 
L 204.28096 45.856 
L 198.865477 45.856 
L 204.28096 50.049729 
L 215.286256 58.7452 
L 220.045056 62.507752 
L 231.385343 71.6344 
L 235.809152 75.203867 
L 247.183178 84.5236 
L 251.573248 88.136899 
L 262.696878 97.4128 
L 267.337344 101.307066 
L 277.940572 110.302 
L 283.10144 114.715948 
L 292.925741 123.1912 
L 298.865536 128.366411 
L 307.661554 136.0804 
L 314.629632 142.262501 
L 322.155209 148.9696 
L 330.393728 156.409319 
L 336.412252 161.8588 
L 346.157824 170.812869 
L 350.436882 174.748 
z
" clip-path="url(#p3dc2f44def)" style="fill: #25848e"/>
    <path d="M 172.752768 291.44658 
L 188.000771 303.64 
L 188.516864 303.64 
L 203.814692 303.64 
L 188.516864 291.561367 
L 187.503143 290.7508 
L 172.752768 278.93013 
L 171.4344 277.8616 
L 156.988672 266.110588 
L 155.603346 264.9724 
L 141.224576 253.09839 
L 140.005761 252.0832 
L 125.46048 239.888312 
L 124.638313 239.194 
L 109.696384 226.474215 
L 109.498536 226.3048 
L 94.589338 213.4156 
L 93.932288 212.840957 
L 79.906966 200.5264 
L 78.168192 198.979363 
L 65.450136 187.6372 
L 62.404096 184.879967 
L 51.220087 174.748 
L 46.64 170.529948 
L 46.64 174.748 
L 46.64 184.043622 
L 50.608843 187.6372 
L 62.404096 198.172951 
L 65.043965 200.5264 
L 78.168192 212.084145 
L 79.684954 213.4156 
L 93.932288 225.787058 
L 94.531235 226.3048 
L 109.583929 239.194 
L 109.696384 239.289529 
L 124.847142 252.0832 
L 125.46048 252.597681 
L 140.317994 264.9724 
L 141.224576 265.723387 
L 155.998599 277.8616 
L 156.988672 278.671599 
L 171.891718 290.7508 
z
M 361.92192 169.843624 
L 361.92192 161.8588 
L 361.92192 154.315903 
L 356.041608 148.9696 
L 346.157824 140.083991 
L 341.690491 136.0804 
L 330.393728 126.059358 
L 327.145921 123.1912 
L 314.629632 112.238548 
L 312.403538 110.302 
L 298.865536 98.618643 
L 297.457944 97.4128 
L 283.10144 85.197339 
L 282.302537 84.5236 
L 267.337344 71.973012 
L 266.929335 71.6344 
L 251.573248 58.944778 
L 251.328795 58.7452 
L 235.809152 46.112537 
L 235.489626 45.856 
L 220.045056 45.856 
L 217.260708 45.856 
L 220.045056 48.055315 
L 233.357371 58.7452 
L 235.809152 60.718081 
L 249.179852 71.6344 
L 251.573248 73.595564 
L 264.743101 84.5236 
L 267.337344 86.687407 
L 280.059691 97.4128 
L 283.10144 99.994293 
L 295.140066 110.302 
L 298.865536 113.517901 
L 309.992788 123.1912 
L 314.629632 127.260832 
L 324.624777 136.0804 
L 330.393728 141.226532 
L 339.041546 148.9696 
L 346.157824 155.419188 
L 353.247425 161.8588 
z
" clip-path="url(#p3dc2f44def)" style="fill: #21918c"/>
    <path d="M 156.988672 291.146357 
L 172.44926 303.64 
L 172.752768 303.64 
L 188.000771 303.64 
L 172.752768 291.44658 
L 171.891718 290.7508 
L 156.988672 278.671599 
L 155.998599 277.8616 
L 141.224576 265.723387 
L 140.317994 264.9724 
L 125.46048 252.597681 
L 124.847142 252.0832 
L 109.696384 239.289529 
L 109.583929 239.194 
L 94.531235 226.3048 
L 93.932288 225.787058 
L 79.684954 213.4156 
L 78.168192 212.084145 
L 65.043965 200.5264 
L 62.404096 198.172951 
L 50.608843 187.6372 
L 46.64 184.043622 
L 46.64 187.6372 
L 46.64 197.289663 
L 50.265043 200.5264 
L 62.404096 211.242331 
L 64.872556 213.4156 
L 78.168192 225.001974 
L 79.668826 226.3048 
L 93.932288 238.576356 
L 94.653677 239.194 
L 109.696384 251.972455 
L 109.827532 252.0832 
L 125.194066 264.9724 
L 125.46048 265.194608 
L 140.752478 277.8616 
L 141.224576 278.250868 
L 156.503448 290.7508 
z
M 361.92192 154.315903 
L 361.92192 148.9696 
L 361.92192 138.829715 
L 358.866574 136.0804 
L 346.157824 124.754182 
L 344.397354 123.1912 
L 330.393728 110.866498 
L 329.749115 110.302 
L 314.918746 97.4128 
L 314.629632 97.16309 
L 299.900625 84.5236 
L 298.865536 83.640512 
L 284.685354 71.6344 
L 283.10144 70.299924 
L 269.265898 58.7452 
L 267.337344 57.141023 
L 253.634184 45.856 
L 251.573248 45.856 
L 235.809152 45.856 
L 235.489626 45.856 
L 235.809152 46.112537 
L 251.328795 58.7452 
L 251.573248 58.944778 
L 266.929335 71.6344 
L 267.337344 71.973012 
L 282.302537 84.5236 
L 283.10144 85.197339 
L 297.457944 97.4128 
L 298.865536 98.618643 
L 312.403538 110.302 
L 314.629632 112.238548 
L 327.145921 123.1912 
L 330.393728 126.059358 
L 341.690491 136.0804 
L 346.157824 140.083991 
L 356.041608 148.9696 
z
" clip-path="url(#p3dc2f44def)" style="fill: #1e9c89"/>
    <path d="M 156.988672 303.539504 
L 157.113033 303.64 
L 172.44926 303.64 
L 156.988672 291.146357 
L 156.503448 290.7508 
L 141.224576 278.250868 
L 140.752478 277.8616 
L 125.46048 265.194608 
L 125.194066 264.9724 
L 109.827532 252.0832 
L 109.696384 251.972455 
L 94.653677 239.194 
L 93.932288 238.576356 
L 79.668826 226.3048 
L 78.168192 225.001974 
L 64.872556 213.4156 
L 62.404096 211.242331 
L 50.265043 200.5264 
L 46.64 197.289663 
L 46.64 200.5264 
L 46.64 210.320586 
L 50.147048 213.4156 
L 62.404096 224.128539 
L 64.901915 226.3048 
L 78.168192 237.763436 
L 79.831203 239.194 
L 93.932288 251.231536 
L 94.934962 252.0832 
L 109.696384 264.538474 
L 110.213723 264.9724 
L 125.46048 277.68927 
L 125.668522 277.8616 
L 141.224576 290.688337 
L 141.300925 290.7508 
z
M 361.92192 138.829715 
L 361.92192 136.0804 
L 361.92192 123.338913 
L 361.756321 123.1912 
L 347.195735 110.302 
L 346.157824 109.389772 
L 332.466848 97.4128 
L 330.393728 95.611059 
L 317.564275 84.5236 
L 314.629632 82.002126 
L 302.482989 71.6344 
L 298.865536 68.562292 
L 287.217233 58.7452 
L 283.10144 55.291213 
L 271.760433 45.856 
L 267.337344 45.856 
L 253.634184 45.856 
L 267.337344 57.141023 
L 269.265898 58.7452 
L 283.10144 70.299924 
L 284.685354 71.6344 
L 298.865536 83.640512 
L 299.900625 84.5236 
L 314.629632 97.16309 
L 314.918746 97.4128 
L 329.749115 110.302 
L 330.393728 110.866498 
L 344.397354 123.1912 
L 346.157824 124.754182 
L 358.866574 136.0804 
z
" clip-path="url(#p3dc2f44def)" style="fill: #22a785"/>
    <path d="M 141.224576 303.039284 
L 141.961459 303.64 
L 156.988672 303.64 
L 157.113033 303.64 
L 156.988672 303.539504 
L 141.300925 290.7508 
L 141.224576 290.688337 
L 125.668522 277.8616 
L 125.46048 277.68927 
L 110.213723 264.9724 
L 109.696384 264.538474 
L 94.934962 252.0832 
L 93.932288 251.231536 
L 79.831203 239.194 
L 78.168192 237.763436 
L 64.901915 226.3048 
L 62.404096 224.128539 
L 50.147048 213.4156 
L 46.64 210.320586 
L 46.64 213.4156 
L 46.64 223.17258 
L 50.224503 226.3048 
L 62.404096 236.859769 
L 65.107017 239.194 
L 78.168192 250.390164 
L 80.151704 252.0832 
L 93.932288 263.768909 
L 95.358735 264.9724 
L 109.696384 277.000652 
L 110.728668 277.8616 
L 125.46048 290.089549 
L 126.262455 290.7508 
z
M 361.92192 123.338913 
L 361.92192 123.1912 
L 361.92192 110.302 
L 361.92192 107.801659 
L 350.110596 97.4128 
L 346.157824 93.95819 
L 335.30922 84.5236 
L 330.393728 80.273305 
L 320.344603 71.6344 
L 314.629632 66.74639 
L 305.211955 58.7452 
L 298.865536 53.377098 
L 289.905836 45.856 
L 283.10144 45.856 
L 271.760433 45.856 
L 283.10144 55.291213 
L 287.217233 58.7452 
L 298.865536 68.562292 
L 302.482989 71.6344 
L 314.629632 82.002126 
L 317.564275 84.5236 
L 330.393728 95.611059 
L 332.466848 97.4128 
L 346.157824 109.389772 
L 347.195735 110.302 
L 361.756321 123.1912 
z
" clip-path="url(#p3dc2f44def)" style="fill: #2db27d"/>
    <path d="M 125.46048 302.404137 
L 126.965255 303.64 
L 141.224576 303.64 
L 141.961459 303.64 
L 141.224576 303.039284 
L 126.262455 290.7508 
L 125.46048 290.089549 
L 110.728668 277.8616 
L 109.696384 277.000652 
L 95.358735 264.9724 
L 93.932288 263.768909 
L 80.151704 252.0832 
L 78.168192 250.390164 
L 65.107017 239.194 
L 62.404096 236.859769 
L 50.224503 226.3048 
L 46.64 223.17258 
L 46.64 226.3048 
L 46.64 235.87163 
L 50.474482 239.194 
L 62.404096 249.456504 
L 65.468779 252.0832 
L 78.168192 262.898089 
L 80.614623 264.9724 
L 93.932288 276.200688 
L 95.91224 277.8616 
L 109.696384 289.368201 
L 111.362168 290.7508 
z
M 361.92192 107.801659 
L 361.92192 97.4128 
L 361.92192 92.19629 
L 353.148915 84.5236 
L 346.157824 78.443801 
L 338.287375 71.6344 
L 330.393728 64.839564 
L 323.27173 58.7452 
L 314.629632 51.383257 
L 308.09741 45.856 
L 298.865536 45.856 
L 289.905836 45.856 
L 298.865536 53.377098 
L 305.211955 58.7452 
L 314.629632 66.74639 
L 320.344603 71.6344 
L 330.393728 80.273305 
L 335.30922 84.5236 
L 346.157824 93.95819 
L 350.110596 97.4128 
z
" clip-path="url(#p3dc2f44def)" style="fill: #3fbc73"/>
    <path d="M 109.696384 301.648412 
L 112.10591 303.64 
L 125.46048 303.64 
L 126.965255 303.64 
L 125.46048 302.404137 
L 111.362168 290.7508 
L 109.696384 289.368201 
L 95.91224 277.8616 
L 93.932288 276.200688 
L 80.614623 264.9724 
L 78.168192 262.898089 
L 65.468779 252.0832 
L 62.404096 249.456504 
L 50.474482 239.194 
L 46.64 235.87163 
L 46.64 239.194 
L 46.64 248.437059 
L 50.879136 252.0832 
L 62.404096 261.934156 
L 65.972209 264.9724 
L 78.168192 275.299366 
L 81.207492 277.8616 
L 93.932288 288.536343 
L 96.585229 290.7508 
z
M 361.92192 92.19629 
L 361.92192 84.5236 
L 361.92192 76.505022 
L 356.324859 71.6344 
L 346.157824 62.831408 
L 341.413401 58.7452 
L 330.393728 49.297192 
L 326.355906 45.856 
L 314.629632 45.856 
L 308.09741 45.856 
L 314.629632 51.383257 
L 323.27173 58.7452 
L 330.393728 64.839564 
L 338.287375 71.6344 
L 346.157824 78.443801 
L 353.148915 84.5236 
z
" clip-path="url(#p3dc2f44def)" style="fill: #56c667"/>
    <path d="M 93.932288 300.783442 
L 97.369255 303.64 
L 109.696384 303.64 
L 112.10591 303.64 
L 109.696384 301.648412 
L 96.585229 290.7508 
L 93.932288 288.536343 
L 81.207492 277.8616 
L 78.168192 275.299366 
L 65.972209 264.9724 
L 62.404096 261.934156 
L 50.879136 252.0832 
L 46.64 248.437059 
L 46.64 252.0832 
L 46.64 260.883683 
L 51.424203 264.9724 
L 62.404096 274.304681 
L 66.605219 277.8616 
L 78.168192 287.603553 
L 81.920158 290.7508 
z
M 361.92192 76.505022 
L 361.92192 71.6344 
L 361.92192 60.713084 
L 359.650469 58.7452 
L 346.157824 47.108465 
L 344.697742 45.856 
L 330.393728 45.856 
L 326.355906 45.856 
L 330.393728 49.297192 
L 341.413401 58.7452 
L 346.157824 62.831408 
L 356.324859 71.6344 
z
" clip-path="url(#p3dc2f44def)" style="fill: #73d056"/>
    <path d="M 78.168192 299.818369 
L 82.74416 303.64 
L 93.932288 303.64 
L 97.369255 303.64 
L 93.932288 300.783442 
L 81.920158 290.7508 
L 78.168192 287.603553 
L 66.605219 277.8616 
L 62.404096 274.304681 
L 51.424203 264.9724 
L 46.64 260.883683 
L 46.64 264.9724 
L 46.64 273.223168 
L 52.098022 277.8616 
L 62.404096 286.577604 
L 67.357838 290.7508 
z
M 361.92192 60.713084 
L 361.92192 58.7452 
L 361.92192 45.856 
L 346.157824 45.856 
L 344.697742 45.856 
L 346.157824 47.108465 
L 359.650469 58.7452 
z
" clip-path="url(#p3dc2f44def)" style="fill: #90d743"/>
    <path d="M 62.404096 298.760697 
L 68.221678 303.64 
L 78.168192 303.64 
L 82.74416 303.64 
L 78.168192 299.818369 
L 67.357838 290.7508 
L 62.404096 286.577604 
L 52.098022 277.8616 
L 46.64 273.223168 
L 46.64 277.8616 
L 46.64 285.464922 
L 52.890864 290.7508 
z
" clip-path="url(#p3dc2f44def)" style="fill: #b0dd2f"/>
    <path d="M 62.404096 303.64 
L 68.221678 303.64 
L 62.404096 298.760697 
L 52.890864 290.7508 
L 46.64 285.464922 
L 46.64 290.7508 
L 46.64 297.616692 
L 53.794469 303.64 
z
" clip-path="url(#p3dc2f44def)" style="fill: #d0e11c"/>
    <path d="M 46.64 297.616692 
L 46.64 303.64 
L 53.794469 303.64 
z
" clip-path="url(#p3dc2f44def)" style="fill: #efe51c"/>
   </g>
   <g id="PathCollection_1">
    <defs>
     <path id="mb94dbd2244" d="M 0 3 
C 0.795609 3 1.55874 2.683901 2.12132 2.12132 
C 2.683901 1.55874 3 0.795609 3 0 
C 3 -0.795609 2.683901 -1.55874 2.12132 -2.12132 
C 1.55874 -2.683901 0.795609 -3 0 -3 
C -0.795609 -3 -1.55874 -2.683901 -2.12132 -2.12132 
C -2.683901 -1.55874 -3 -0.795609 -3 0 
C -3 0.795609 -2.683901 1.55874 -2.12132 2.12132 
C -1.55874 2.683901 -0.795609 3 0 3 
z
" style="stroke: #ff0000"/>
    </defs>
    <g clip-path="url(#p3dc2f44def)">
     <use xlink:href="#mb94dbd2244" x="290.983488" y="190.8595" style="fill: #ff0000; stroke: #ff0000"/>
    </g>
   </g>
   <g id="matplotlib.axis_1">
    <g id="xtick_1">
     <g id="line2d_1">
      <defs>
       <path id="mcae65f1ca1" d="M 0 0 
L 0 3.5 
" style="stroke: #000000; stroke-width: 0.8"/>
      </defs>
      <g>
       <use xlink:href="#mcae65f1ca1" x="46.64" y="303.64" style="stroke: #000000; stroke-width: 0.8"/>
      </g>
     </g>
     <g id="text_1">
      <!-- −4 -->
      <g transform="translate(39.268906 318.238437) scale(0.1 -0.1)">
       <defs>
        <path id="DejaVuSans-2212" d="M 678 2272 
L 4684 2272 
L 4684 1741 
L 678 1741 
L 678 2272 
z
" transform="scale(0.015625)"/>
        <path id="DejaVuSans-34" d="M 2419 4116 
L 825 1625 
L 2419 1625 
L 2419 4116 
z
M 2253 4666 
L 3047 4666 
L 3047 1625 
L 3713 1625 
L 3713 1100 
L 3047 1100 
L 3047 0 
L 2419 0 
L 2419 1100 
L 313 1100 
L 313 1709 
L 2253 4666 
z
" transform="scale(0.015625)"/>
       </defs>
       <use xlink:href="#DejaVuSans-2212"/>
       <use xlink:href="#DejaVuSans-34" transform="translate(83.789062 0)"/>
      </g>
     </g>
    </g>
    <g id="xtick_2">
     <g id="line2d_2">
      <g>
       <use xlink:href="#mcae65f1ca1" x="86.05024" y="303.64" style="stroke: #000000; stroke-width: 0.8"/>
      </g>
     </g>
     <g id="text_2">
      <!-- −3 -->
      <g transform="translate(78.679146 318.238437) scale(0.1 -0.1)">
       <defs>
        <path id="DejaVuSans-33" d="M 2597 2516 
Q 3050 2419 3304 2112 
Q 3559 1806 3559 1356 
Q 3559 666 3084 287 
Q 2609 -91 1734 -91 
Q 1441 -91 1130 -33 
Q 819 25 488 141 
L 488 750 
Q 750 597 1062 519 
Q 1375 441 1716 441 
Q 2309 441 2620 675 
Q 2931 909 2931 1356 
Q 2931 1769 2642 2001 
Q 2353 2234 1838 2234 
L 1294 2234 
L 1294 2753 
L 1863 2753 
Q 2328 2753 2575 2939 
Q 2822 3125 2822 3475 
Q 2822 3834 2567 4026 
Q 2313 4219 1838 4219 
Q 1578 4219 1281 4162 
Q 984 4106 628 3988 
L 628 4550 
Q 988 4650 1302 4700 
Q 1616 4750 1894 4750 
Q 2613 4750 3031 4423 
Q 3450 4097 3450 3541 
Q 3450 3153 3228 2886 
Q 3006 2619 2597 2516 
z
" transform="scale(0.015625)"/>
       </defs>
       <use xlink:href="#DejaVuSans-2212"/>
       <use xlink:href="#DejaVuSans-33" transform="translate(83.789062 0)"/>
      </g>
     </g>
    </g>
    <g id="xtick_3">
     <g id="line2d_3">
      <g>
       <use xlink:href="#mcae65f1ca1" x="125.46048" y="303.64" style="stroke: #000000; stroke-width: 0.8"/>
      </g>
     </g>
     <g id="text_3">
      <!-- −2 -->
      <g transform="translate(118.089386 318.238437) scale(0.1 -0.1)">
       <defs>
        <path id="DejaVuSans-32" d="M 1228 531 
L 3431 531 
L 3431 0 
L 469 0 
L 469 531 
Q 828 903 1448 1529 
Q 2069 2156 2228 2338 
Q 2531 2678 2651 2914 
Q 2772 3150 2772 3378 
Q 2772 3750 2511 3984 
Q 2250 4219 1831 4219 
Q 1534 4219 1204 4116 
Q 875 4013 500 3803 
L 500 4441 
Q 881 4594 1212 4672 
Q 1544 4750 1819 4750 
Q 2544 4750 2975 4387 
Q 3406 4025 3406 3419 
Q 3406 3131 3298 2873 
Q 3191 2616 2906 2266 
Q 2828 2175 2409 1742 
Q 1991 1309 1228 531 
z
" transform="scale(0.015625)"/>
       </defs>
       <use xlink:href="#DejaVuSans-2212"/>
       <use xlink:href="#DejaVuSans-32" transform="translate(83.789062 0)"/>
      </g>
     </g>
    </g>
    <g id="xtick_4">
     <g id="line2d_4">
      <g>
       <use xlink:href="#mcae65f1ca1" x="164.87072" y="303.64" style="stroke: #000000; stroke-width: 0.8"/>
      </g>
     </g>
     <g id="text_4">
      <!-- −1 -->
      <g transform="translate(157.499626 318.238437) scale(0.1 -0.1)">
       <defs>
        <path id="DejaVuSans-31" d="M 794 531 
L 1825 531 
L 1825 4091 
L 703 3866 
L 703 4441 
L 1819 4666 
L 2450 4666 
L 2450 531 
L 3481 531 
L 3481 0 
L 794 0 
L 794 531 
z
" transform="scale(0.015625)"/>
       </defs>
       <use xlink:href="#DejaVuSans-2212"/>
       <use xlink:href="#DejaVuSans-31" transform="translate(83.789062 0)"/>
      </g>
     </g>
    </g>
    <g id="xtick_5">
     <g id="line2d_5">
      <g>
       <use xlink:href="#mcae65f1ca1" x="204.28096" y="303.64" style="stroke: #000000; stroke-width: 0.8"/>
      </g>
     </g>
     <g id="text_5">
      <!-- 0 -->
      <g transform="translate(201.09971 318.238437) scale(0.1 -0.1)">
       <defs>
        <path id="DejaVuSans-30" d="M 2034 4250 
Q 1547 4250 1301 3770 
Q 1056 3291 1056 2328 
Q 1056 1369 1301 889 
Q 1547 409 2034 409 
Q 2525 409 2770 889 
Q 3016 1369 3016 2328 
Q 3016 3291 2770 3770 
Q 2525 4250 2034 4250 
z
M 2034 4750 
Q 2819 4750 3233 4129 
Q 3647 3509 3647 2328 
Q 3647 1150 3233 529 
Q 2819 -91 2034 -91 
Q 1250 -91 836 529 
Q 422 1150 422 2328 
Q 422 3509 836 4129 
Q 1250 4750 2034 4750 
z
" transform="scale(0.015625)"/>
       </defs>
       <use xlink:href="#DejaVuSans-30"/>
      </g>
     </g>
    </g>
    <g id="xtick_6">
     <g id="line2d_6">
      <g>
       <use xlink:href="#mcae65f1ca1" x="243.6912" y="303.64" style="stroke: #000000; stroke-width: 0.8"/>
      </g>
     </g>
     <g id="text_6">
      <!-- 1 -->
      <g transform="translate(240.50995 318.238437) scale(0.1 -0.1)">
       <use xlink:href="#DejaVuSans-31"/>
      </g>
     </g>
    </g>
    <g id="xtick_7">
     <g id="line2d_7">
      <g>
       <use xlink:href="#mcae65f1ca1" x="283.10144" y="303.64" style="stroke: #000000; stroke-width: 0.8"/>
      </g>
     </g>
     <g id="text_7">
      <!-- 2 -->
      <g transform="translate(279.92019 318.238437) scale(0.1 -0.1)">
       <use xlink:href="#DejaVuSans-32"/>
      </g>
     </g>
    </g>
    <g id="xtick_8">
     <g id="line2d_8">
      <g>
       <use xlink:href="#mcae65f1ca1" x="322.51168" y="303.64" style="stroke: #000000; stroke-width: 0.8"/>
      </g>
     </g>
     <g id="text_8">
      <!-- 3 -->
      <g transform="translate(319.33043 318.238437) scale(0.1 -0.1)">
       <use xlink:href="#DejaVuSans-33"/>
      </g>
     </g>
    </g>
    <g id="xtick_9">
     <g id="line2d_9">
      <g>
       <use xlink:href="#mcae65f1ca1" x="361.92192" y="303.64" style="stroke: #000000; stroke-width: 0.8"/>
      </g>
     </g>
     <g id="text_9">
      <!-- 4 -->
      <g transform="translate(358.74067 318.238437) scale(0.1 -0.1)">
       <use xlink:href="#DejaVuSans-34"/>
      </g>
     </g>
    </g>
    <g id="text_10">
     <!-- Relative distance in first direction -->
     <g transform="translate(120.33721 331.916562) scale(0.1 -0.1)">
      <defs>
       <path id="DejaVuSans-52" d="M 2841 2188 
Q 3044 2119 3236 1894 
Q 3428 1669 3622 1275 
L 4263 0 
L 3584 0 
L 2988 1197 
Q 2756 1666 2539 1819 
Q 2322 1972 1947 1972 
L 1259 1972 
L 1259 0 
L 628 0 
L 628 4666 
L 2053 4666 
Q 2853 4666 3247 4331 
Q 3641 3997 3641 3322 
Q 3641 2881 3436 2590 
Q 3231 2300 2841 2188 
z
M 1259 4147 
L 1259 2491 
L 2053 2491 
Q 2509 2491 2742 2702 
Q 2975 2913 2975 3322 
Q 2975 3731 2742 3939 
Q 2509 4147 2053 4147 
L 1259 4147 
z
" transform="scale(0.015625)"/>
       <path id="DejaVuSans-65" d="M 3597 1894 
L 3597 1613 
L 953 1613 
Q 991 1019 1311 708 
Q 1631 397 2203 397 
Q 2534 397 2845 478 
Q 3156 559 3463 722 
L 3463 178 
Q 3153 47 2828 -22 
Q 2503 -91 2169 -91 
Q 1331 -91 842 396 
Q 353 884 353 1716 
Q 353 2575 817 3079 
Q 1281 3584 2069 3584 
Q 2775 3584 3186 3129 
Q 3597 2675 3597 1894 
z
M 3022 2063 
Q 3016 2534 2758 2815 
Q 2500 3097 2075 3097 
Q 1594 3097 1305 2825 
Q 1016 2553 972 2059 
L 3022 2063 
z
" transform="scale(0.015625)"/>
       <path id="DejaVuSans-6c" d="M 603 4863 
L 1178 4863 
L 1178 0 
L 603 0 
L 603 4863 
z
" transform="scale(0.015625)"/>
       <path id="DejaVuSans-61" d="M 2194 1759 
Q 1497 1759 1228 1600 
Q 959 1441 959 1056 
Q 959 750 1161 570 
Q 1363 391 1709 391 
Q 2188 391 2477 730 
Q 2766 1069 2766 1631 
L 2766 1759 
L 2194 1759 
z
M 3341 1997 
L 3341 0 
L 2766 0 
L 2766 531 
Q 2569 213 2275 61 
Q 1981 -91 1556 -91 
Q 1019 -91 701 211 
Q 384 513 384 1019 
Q 384 1609 779 1909 
Q 1175 2209 1959 2209 
L 2766 2209 
L 2766 2266 
Q 2766 2663 2505 2880 
Q 2244 3097 1772 3097 
Q 1472 3097 1187 3025 
Q 903 2953 641 2809 
L 641 3341 
Q 956 3463 1253 3523 
Q 1550 3584 1831 3584 
Q 2591 3584 2966 3190 
Q 3341 2797 3341 1997 
z
" transform="scale(0.015625)"/>
       <path id="DejaVuSans-74" d="M 1172 4494 
L 1172 3500 
L 2356 3500 
L 2356 3053 
L 1172 3053 
L 1172 1153 
Q 1172 725 1289 603 
Q 1406 481 1766 481 
L 2356 481 
L 2356 0 
L 1766 0 
Q 1100 0 847 248 
Q 594 497 594 1153 
L 594 3053 
L 172 3053 
L 172 3500 
L 594 3500 
L 594 4494 
L 1172 4494 
z
" transform="scale(0.015625)"/>
       <path id="DejaVuSans-69" d="M 603 3500 
L 1178 3500 
L 1178 0 
L 603 0 
L 603 3500 
z
M 603 4863 
L 1178 4863 
L 1178 4134 
L 603 4134 
L 603 4863 
z
" transform="scale(0.015625)"/>
       <path id="DejaVuSans-76" d="M 191 3500 
L 800 3500 
L 1894 563 
L 2988 3500 
L 3597 3500 
L 2284 0 
L 1503 0 
L 191 3500 
z
" transform="scale(0.015625)"/>
       <path id="DejaVuSans-20" transform="scale(0.015625)"/>
       <path id="DejaVuSans-64" d="M 2906 2969 
L 2906 4863 
L 3481 4863 
L 3481 0 
L 2906 0 
L 2906 525 
Q 2725 213 2448 61 
Q 2172 -91 1784 -91 
Q 1150 -91 751 415 
Q 353 922 353 1747 
Q 353 2572 751 3078 
Q 1150 3584 1784 3584 
Q 2172 3584 2448 3432 
Q 2725 3281 2906 2969 
z
M 947 1747 
Q 947 1113 1208 752 
Q 1469 391 1925 391 
Q 2381 391 2643 752 
Q 2906 1113 2906 1747 
Q 2906 2381 2643 2742 
Q 2381 3103 1925 3103 
Q 1469 3103 1208 2742 
Q 947 2381 947 1747 
z
" transform="scale(0.015625)"/>
       <path id="DejaVuSans-73" d="M 2834 3397 
L 2834 2853 
Q 2591 2978 2328 3040 
Q 2066 3103 1784 3103 
Q 1356 3103 1142 2972 
Q 928 2841 928 2578 
Q 928 2378 1081 2264 
Q 1234 2150 1697 2047 
L 1894 2003 
Q 2506 1872 2764 1633 
Q 3022 1394 3022 966 
Q 3022 478 2636 193 
Q 2250 -91 1575 -91 
Q 1294 -91 989 -36 
Q 684 19 347 128 
L 347 722 
Q 666 556 975 473 
Q 1284 391 1588 391 
Q 1994 391 2212 530 
Q 2431 669 2431 922 
Q 2431 1156 2273 1281 
Q 2116 1406 1581 1522 
L 1381 1569 
Q 847 1681 609 1914 
Q 372 2147 372 2553 
Q 372 3047 722 3315 
Q 1072 3584 1716 3584 
Q 2034 3584 2315 3537 
Q 2597 3491 2834 3397 
z
" transform="scale(0.015625)"/>
       <path id="DejaVuSans-6e" d="M 3513 2113 
L 3513 0 
L 2938 0 
L 2938 2094 
Q 2938 2591 2744 2837 
Q 2550 3084 2163 3084 
Q 1697 3084 1428 2787 
Q 1159 2491 1159 1978 
L 1159 0 
L 581 0 
L 581 3500 
L 1159 3500 
L 1159 2956 
Q 1366 3272 1645 3428 
Q 1925 3584 2291 3584 
Q 2894 3584 3203 3211 
Q 3513 2838 3513 2113 
z
" transform="scale(0.015625)"/>
       <path id="DejaVuSans-63" d="M 3122 3366 
L 3122 2828 
Q 2878 2963 2633 3030 
Q 2388 3097 2138 3097 
Q 1578 3097 1268 2742 
Q 959 2388 959 1747 
Q 959 1106 1268 751 
Q 1578 397 2138 397 
Q 2388 397 2633 464 
Q 2878 531 3122 666 
L 3122 134 
Q 2881 22 2623 -34 
Q 2366 -91 2075 -91 
Q 1284 -91 818 406 
Q 353 903 353 1747 
Q 353 2603 823 3093 
Q 1294 3584 2113 3584 
Q 2378 3584 2631 3529 
Q 2884 3475 3122 3366 
z
" transform="scale(0.015625)"/>
       <path id="DejaVuSans-66" d="M 2375 4863 
L 2375 4384 
L 1825 4384 
Q 1516 4384 1395 4259 
Q 1275 4134 1275 3809 
L 1275 3500 
L 2222 3500 
L 2222 3053 
L 1275 3053 
L 1275 0 
L 697 0 
L 697 3053 
L 147 3053 
L 147 3500 
L 697 3500 
L 697 3744 
Q 697 4328 969 4595 
Q 1241 4863 1831 4863 
L 2375 4863 
z
" transform="scale(0.015625)"/>
       <path id="DejaVuSans-72" d="M 2631 2963 
Q 2534 3019 2420 3045 
Q 2306 3072 2169 3072 
Q 1681 3072 1420 2755 
Q 1159 2438 1159 1844 
L 1159 0 
L 581 0 
L 581 3500 
L 1159 3500 
L 1159 2956 
Q 1341 3275 1631 3429 
Q 1922 3584 2338 3584 
Q 2397 3584 2469 3576 
Q 2541 3569 2628 3553 
L 2631 2963 
z
" transform="scale(0.015625)"/>
       <path id="DejaVuSans-6f" d="M 1959 3097 
Q 1497 3097 1228 2736 
Q 959 2375 959 1747 
Q 959 1119 1226 758 
Q 1494 397 1959 397 
Q 2419 397 2687 759 
Q 2956 1122 2956 1747 
Q 2956 2369 2687 2733 
Q 2419 3097 1959 3097 
z
M 1959 3584 
Q 2709 3584 3137 3096 
Q 3566 2609 3566 1747 
Q 3566 888 3137 398 
Q 2709 -91 1959 -91 
Q 1206 -91 779 398 
Q 353 888 353 1747 
Q 353 2609 779 3096 
Q 1206 3584 1959 3584 
z
" transform="scale(0.015625)"/>
      </defs>
      <use xlink:href="#DejaVuSans-52"/>
      <use xlink:href="#DejaVuSans-65" transform="translate(64.982422 0)"/>
      <use xlink:href="#DejaVuSans-6c" transform="translate(126.505859 0)"/>
      <use xlink:href="#DejaVuSans-61" transform="translate(154.289062 0)"/>
      <use xlink:href="#DejaVuSans-74" transform="translate(215.568359 0)"/>
      <use xlink:href="#DejaVuSans-69" transform="translate(254.777344 0)"/>
      <use xlink:href="#DejaVuSans-76" transform="translate(282.560547 0)"/>
      <use xlink:href="#DejaVuSans-65" transform="translate(341.740234 0)"/>
      <use xlink:href="#DejaVuSans-20" transform="translate(403.263672 0)"/>
      <use xlink:href="#DejaVuSans-64" transform="translate(435.050781 0)"/>
      <use xlink:href="#DejaVuSans-69" transform="translate(498.527344 0)"/>
      <use xlink:href="#DejaVuSans-73" transform="translate(526.310547 0)"/>
      <use xlink:href="#DejaVuSans-74" transform="translate(578.410156 0)"/>
      <use xlink:href="#DejaVuSans-61" transform="translate(617.619141 0)"/>
      <use xlink:href="#DejaVuSans-6e" transform="translate(678.898438 0)"/>
      <use xlink:href="#DejaVuSans-63" transform="translate(742.277344 0)"/>
      <use xlink:href="#DejaVuSans-65" transform="translate(797.257812 0)"/>
      <use xlink:href="#DejaVuSans-20" transform="translate(858.78125 0)"/>
      <use xlink:href="#DejaVuSans-69" transform="translate(890.568359 0)"/>
      <use xlink:href="#DejaVuSans-6e" transform="translate(918.351562 0)"/>
      <use xlink:href="#DejaVuSans-20" transform="translate(981.730469 0)"/>
      <use xlink:href="#DejaVuSans-66" transform="translate(1013.517578 0)"/>
      <use xlink:href="#DejaVuSans-69" transform="translate(1048.722656 0)"/>
      <use xlink:href="#DejaVuSans-72" transform="translate(1076.505859 0)"/>
      <use xlink:href="#DejaVuSans-73" transform="translate(1117.619141 0)"/>
      <use xlink:href="#DejaVuSans-74" transform="translate(1169.71875 0)"/>
      <use xlink:href="#DejaVuSans-20" transform="translate(1208.927734 0)"/>
      <use xlink:href="#DejaVuSans-64" transform="translate(1240.714844 0)"/>
      <use xlink:href="#DejaVuSans-69" transform="translate(1304.191406 0)"/>
      <use xlink:href="#DejaVuSans-72" transform="translate(1331.974609 0)"/>
      <use xlink:href="#DejaVuSans-65" transform="translate(1370.837891 0)"/>
      <use xlink:href="#DejaVuSans-63" transform="translate(1432.361328 0)"/>
      <use xlink:href="#DejaVuSans-74" transform="translate(1487.341797 0)"/>
      <use xlink:href="#DejaVuSans-69" transform="translate(1526.550781 0)"/>
      <use xlink:href="#DejaVuSans-6f" transform="translate(1554.333984 0)"/>
      <use xlink:href="#DejaVuSans-6e" transform="translate(1615.515625 0)"/>
     </g>
    </g>
   </g>
   <g id="matplotlib.axis_2">
    <g id="ytick_1">
     <g id="line2d_10">
      <defs>
       <path id="madc47a1e63" d="M 0 0 
L -3.5 0 
" style="stroke: #000000; stroke-width: 0.8"/>
      </defs>
      <g>
       <use xlink:href="#madc47a1e63" x="46.64" y="303.64" style="stroke: #000000; stroke-width: 0.8"/>
      </g>
     </g>
     <g id="text_11">
      <!-- −4 -->
      <g transform="translate(24.897813 307.439219) scale(0.1 -0.1)">
       <use xlink:href="#DejaVuSans-2212"/>
       <use xlink:href="#DejaVuSans-34" transform="translate(83.789062 0)"/>
      </g>
     </g>
    </g>
    <g id="ytick_2">
     <g id="line2d_11">
      <g>
       <use xlink:href="#madc47a1e63" x="46.64" y="271.417" style="stroke: #000000; stroke-width: 0.8"/>
      </g>
     </g>
     <g id="text_12">
      <!-- −3 -->
      <g transform="translate(24.897813 275.216219) scale(0.1 -0.1)">
       <use xlink:href="#DejaVuSans-2212"/>
       <use xlink:href="#DejaVuSans-33" transform="translate(83.789062 0)"/>
      </g>
     </g>
    </g>
    <g id="ytick_3">
     <g id="line2d_12">
      <g>
       <use xlink:href="#madc47a1e63" x="46.64" y="239.194" style="stroke: #000000; stroke-width: 0.8"/>
      </g>
     </g>
     <g id="text_13">
      <!-- −2 -->
      <g transform="translate(24.897813 242.993219) scale(0.1 -0.1)">
       <use xlink:href="#DejaVuSans-2212"/>
       <use xlink:href="#DejaVuSans-32" transform="translate(83.789062 0)"/>
      </g>
     </g>
    </g>
    <g id="ytick_4">
     <g id="line2d_13">
      <g>
       <use xlink:href="#madc47a1e63" x="46.64" y="206.971" style="stroke: #000000; stroke-width: 0.8"/>
      </g>
     </g>
     <g id="text_14">
      <!-- −1 -->
      <g transform="translate(24.897813 210.770219) scale(0.1 -0.1)">
       <use xlink:href="#DejaVuSans-2212"/>
       <use xlink:href="#DejaVuSans-31" transform="translate(83.789062 0)"/>
      </g>
     </g>
    </g>
    <g id="ytick_5">
     <g id="line2d_14">
      <g>
       <use xlink:href="#madc47a1e63" x="46.64" y="174.748" style="stroke: #000000; stroke-width: 0.8"/>
      </g>
     </g>
     <g id="text_15">
      <!-- 0 -->
      <g transform="translate(33.2775 178.547219) scale(0.1 -0.1)">
       <use xlink:href="#DejaVuSans-30"/>
      </g>
     </g>
    </g>
    <g id="ytick_6">
     <g id="line2d_15">
      <g>
       <use xlink:href="#madc47a1e63" x="46.64" y="142.525" style="stroke: #000000; stroke-width: 0.8"/>
      </g>
     </g>
     <g id="text_16">
      <!-- 1 -->
      <g transform="translate(33.2775 146.324219) scale(0.1 -0.1)">
       <use xlink:href="#DejaVuSans-31"/>
      </g>
     </g>
    </g>
    <g id="ytick_7">
     <g id="line2d_16">
      <g>
       <use xlink:href="#madc47a1e63" x="46.64" y="110.302" style="stroke: #000000; stroke-width: 0.8"/>
      </g>
     </g>
     <g id="text_17">
      <!-- 2 -->
      <g transform="translate(33.2775 114.101219) scale(0.1 -0.1)">
       <use xlink:href="#DejaVuSans-32"/>
      </g>
     </g>
    </g>
    <g id="ytick_8">
     <g id="line2d_17">
      <g>
       <use xlink:href="#madc47a1e63" x="46.64" y="78.079" style="stroke: #000000; stroke-width: 0.8"/>
      </g>
     </g>
     <g id="text_18">
      <!-- 3 -->
      <g transform="translate(33.2775 81.878219) scale(0.1 -0.1)">
       <use xlink:href="#DejaVuSans-33"/>
      </g>
     </g>
    </g>
    <g id="ytick_9">
     <g id="line2d_18">
      <g>
       <use xlink:href="#madc47a1e63" x="46.64" y="45.856" style="stroke: #000000; stroke-width: 0.8"/>
      </g>
     </g>
     <g id="text_19">
      <!-- 4 -->
      <g transform="translate(33.2775 49.655219) scale(0.1 -0.1)">
       <use xlink:href="#DejaVuSans-34"/>
      </g>
     </g>
    </g>
    <g id="text_20">
     <!-- Relative distance in second direction -->
     <g transform="translate(18.818125 266.755031) rotate(-90) scale(0.1 -0.1)">
      <use xlink:href="#DejaVuSans-52"/>
      <use xlink:href="#DejaVuSans-65" transform="translate(64.982422 0)"/>
      <use xlink:href="#DejaVuSans-6c" transform="translate(126.505859 0)"/>
      <use xlink:href="#DejaVuSans-61" transform="translate(154.289062 0)"/>
      <use xlink:href="#DejaVuSans-74" transform="translate(215.568359 0)"/>
      <use xlink:href="#DejaVuSans-69" transform="translate(254.777344 0)"/>
      <use xlink:href="#DejaVuSans-76" transform="translate(282.560547 0)"/>
      <use xlink:href="#DejaVuSans-65" transform="translate(341.740234 0)"/>
      <use xlink:href="#DejaVuSans-20" transform="translate(403.263672 0)"/>
      <use xlink:href="#DejaVuSans-64" transform="translate(435.050781 0)"/>
      <use xlink:href="#DejaVuSans-69" transform="translate(498.527344 0)"/>
      <use xlink:href="#DejaVuSans-73" transform="translate(526.310547 0)"/>
      <use xlink:href="#DejaVuSans-74" transform="translate(578.410156 0)"/>
      <use xlink:href="#DejaVuSans-61" transform="translate(617.619141 0)"/>
      <use xlink:href="#DejaVuSans-6e" transform="translate(678.898438 0)"/>
      <use xlink:href="#DejaVuSans-63" transform="translate(742.277344 0)"/>
      <use xlink:href="#DejaVuSans-65" transform="translate(797.257812 0)"/>
      <use xlink:href="#DejaVuSans-20" transform="translate(858.78125 0)"/>
      <use xlink:href="#DejaVuSans-69" transform="translate(890.568359 0)"/>
      <use xlink:href="#DejaVuSans-6e" transform="translate(918.351562 0)"/>
      <use xlink:href="#DejaVuSans-20" transform="translate(981.730469 0)"/>
      <use xlink:href="#DejaVuSans-73" transform="translate(1013.517578 0)"/>
      <use xlink:href="#DejaVuSans-65" transform="translate(1065.617188 0)"/>
      <use xlink:href="#DejaVuSans-63" transform="translate(1127.140625 0)"/>
      <use xlink:href="#DejaVuSans-6f" transform="translate(1182.121094 0)"/>
      <use xlink:href="#DejaVuSans-6e" transform="translate(1243.302734 0)"/>
      <use xlink:href="#DejaVuSans-64" transform="translate(1306.681641 0)"/>
      <use xlink:href="#DejaVuSans-20" transform="translate(1370.158203 0)"/>
      <use xlink:href="#DejaVuSans-64" transform="translate(1401.945312 0)"/>
      <use xlink:href="#DejaVuSans-69" transform="translate(1465.421875 0)"/>
      <use xlink:href="#DejaVuSans-72" transform="translate(1493.205078 0)"/>
      <use xlink:href="#DejaVuSans-65" transform="translate(1532.068359 0)"/>
      <use xlink:href="#DejaVuSans-63" transform="translate(1593.591797 0)"/>
      <use xlink:href="#DejaVuSans-74" transform="translate(1648.572266 0)"/>
      <use xlink:href="#DejaVuSans-69" transform="translate(1687.78125 0)"/>
      <use xlink:href="#DejaVuSans-6f" transform="translate(1715.564453 0)"/>
      <use xlink:href="#DejaVuSans-6e" transform="translate(1776.746094 0)"/>
     </g>
    </g>
   </g>
   <g id="line2d_19">
    <path d="M 290.983488 190.8595 
L 289.402869 189.932359 
L 282.732034 185.491372 
L 252.790239 165.644036 
L 238.091134 156.326948 
L 231.886272 152.724181 
L 230.051627 151.716981 
L 224.068385 148.316258 
L 220.675826 146.656067 
L 218.369566 145.824036 
L 218.013945 145.774803 
L 215.24356 144.362306 
L 213.213542 143.292463 
L 211.376152 142.543395 
L 210.510833 142.530099 
L 210.530698 142.965515 
L 210.491295 143.178346 
L 213.456576 148.093916 
L 215.110792 150.166118 
L 215.742345 151.044651 
L 219.078272 155.014495 
L 219.117146 155.25557 
L 219.715408 156.306505 
L 218.514073 156.084038 
L 218.356319 156.125304 
L 217.72374 155.978443 
L 217.67567 156.103272 
L 217.302514 155.984921 
L 217.192752 156.07741 
L 217.140366 156.697968 
L 216.799031 156.604005 
L 213.901213 155.178783 
L 212.969082 154.866114 
L 212.382308 154.853727 
L 212.196489 155.129585 
L 211.966496 155.179597 
L 211.234844 155.115089 
L 210.825042 155.299498 
L 210.326536 156.034567 
L 210.926349 157.409716 
L 211.559817 158.400328 
L 212.312892 159.442904 
L 212.366866 159.725179 
L 213.286127 161.428958 
L 213.081618 161.451697 
L 213.142696 161.835763 
L 212.889509 161.797769 
L 212.887329 161.958992 
L 212.987086 162.334471 
L 212.963017 162.493422 
L 213.127832 162.942282 
L 212.945946 162.945915 
L 212.973849 163.628974 
L 213.653972 164.554721 
L 216.223854 167.447791 
L 218.381608 169.735665 
L 218.782769 170.314262 
L 221.896565 174.171182 
L 221.711182 174.24455 
L 221.732709 174.467442 
L 221.649159 174.602588 
L 220.252436 174.049262 
L 219.564472 173.935269 
L 219.166841 173.82094 
L 219.160576 173.913247 
L 219.040905 174.014317 
L 219.18156 174.792747 
L 219.036486 174.859296 
L 219.052469 175.200885 
L 218.812441 175.167316 
L 218.83492 175.25812 
L 218.61772 175.24202 
L 218.653476 175.34314 
L 218.528857 175.320874 
L 218.381019 175.422247 
L 213.816214 172.764154 
L 210.321425 170.628559 
L 208.714115 169.829555 
L 208.128853 169.69941 
L 207.979024 170.035172 
L 208.611625 171.008612 
L 209.683999 172.541217 
L 210.143157 173.237041 
L 210.314692 173.619185 
L 208.651101 173.332664 
L 208.662192 173.460238 
L 208.558913 173.438925 
L 203.874607 170.867391 
L 203.858632 170.959299 
L 204.117208 171.359171 
L 206.079836 173.731473 
L 206.012308 173.727104 
L 205.918862 173.781013 
L 205.91961 173.80859 
L 205.871928 174.017557 
L 205.847721 174.016553 
L 205.365225 173.841633 
L 205.133744 173.795092 
L 205.120899 173.825707 
L 205.200123 174.251346 
L 205.267762 174.370499 
L 205.14563 174.350648 
L 204.909415 174.351231 
L 204.916175 174.370837 
L 204.797934 174.481437 
L 204.573595 174.411838 
L 204.614962 174.515306 
L 204.679473 174.76943 
L 204.571247 174.738581 
L 204.434738 174.75605 
L 204.464477 174.804949 
L 204.46651 174.817453 
L 204.28096 174.747988 
L 204.28096 174.748 
" clip-path="url(#p3dc2f44def)" style="fill: none; stroke: #ff0000; stroke-width: 1.5; stroke-linecap: square"/>
   </g>
   <g id="patch_3">
    <path d="M 46.64 303.64 
L 46.64 45.856 
" style="fill: none; stroke: #000000; stroke-width: 0.8; stroke-linejoin: miter; stroke-linecap: square"/>
   </g>
   <g id="patch_4">
    <path d="M 361.92192 303.64 
L 361.92192 45.856 
" style="fill: none; stroke: #000000; stroke-width: 0.8; stroke-linejoin: miter; stroke-linecap: square"/>
   </g>
   <g id="patch_5">
    <path d="M 46.64 303.64 
L 361.92192 303.64 
" style="fill: none; stroke: #000000; stroke-width: 0.8; stroke-linejoin: miter; stroke-linecap: square"/>
   </g>
   <g id="patch_6">
    <path d="M 46.64 45.856 
L 361.92192 45.856 
" style="fill: none; stroke: #000000; stroke-width: 0.8; stroke-linejoin: miter; stroke-linecap: square"/>
   </g>
   <g id="text_21">
    <!-- Relative error across two random directions -->
    <g transform="translate(73.179085 22.418625) scale(0.12 -0.12)">
     <defs>
      <path id="DejaVuSans-77" d="M 269 3500 
L 844 3500 
L 1563 769 
L 2278 3500 
L 2956 3500 
L 3675 769 
L 4391 3500 
L 4966 3500 
L 4050 0 
L 3372 0 
L 2619 2869 
L 1863 0 
L 1184 0 
L 269 3500 
z
" transform="scale(0.015625)"/>
      <path id="DejaVuSans-6d" d="M 3328 2828 
Q 3544 3216 3844 3400 
Q 4144 3584 4550 3584 
Q 5097 3584 5394 3201 
Q 5691 2819 5691 2113 
L 5691 0 
L 5113 0 
L 5113 2094 
Q 5113 2597 4934 2840 
Q 4756 3084 4391 3084 
Q 3944 3084 3684 2787 
Q 3425 2491 3425 1978 
L 3425 0 
L 2847 0 
L 2847 2094 
Q 2847 2600 2669 2842 
Q 2491 3084 2119 3084 
Q 1678 3084 1418 2786 
Q 1159 2488 1159 1978 
L 1159 0 
L 581 0 
L 581 3500 
L 1159 3500 
L 1159 2956 
Q 1356 3278 1631 3431 
Q 1906 3584 2284 3584 
Q 2666 3584 2933 3390 
Q 3200 3197 3328 2828 
z
" transform="scale(0.015625)"/>
     </defs>
     <use xlink:href="#DejaVuSans-52"/>
     <use xlink:href="#DejaVuSans-65" transform="translate(64.982422 0)"/>
     <use xlink:href="#DejaVuSans-6c" transform="translate(126.505859 0)"/>
     <use xlink:href="#DejaVuSans-61" transform="translate(154.289062 0)"/>
     <use xlink:href="#DejaVuSans-74" transform="translate(215.568359 0)"/>
     <use xlink:href="#DejaVuSans-69" transform="translate(254.777344 0)"/>
     <use xlink:href="#DejaVuSans-76" transform="translate(282.560547 0)"/>
     <use xlink:href="#DejaVuSans-65" transform="translate(341.740234 0)"/>
     <use xlink:href="#DejaVuSans-20" transform="translate(403.263672 0)"/>
     <use xlink:href="#DejaVuSans-65" transform="translate(435.050781 0)"/>
     <use xlink:href="#DejaVuSans-72" transform="translate(496.574219 0)"/>
     <use xlink:href="#DejaVuSans-72" transform="translate(535.9375 0)"/>
     <use xlink:href="#DejaVuSans-6f" transform="translate(574.800781 0)"/>
     <use xlink:href="#DejaVuSans-72" transform="translate(635.982422 0)"/>
     <use xlink:href="#DejaVuSans-20" transform="translate(677.095703 0)"/>
     <use xlink:href="#DejaVuSans-61" transform="translate(708.882812 0)"/>
     <use xlink:href="#DejaVuSans-63" transform="translate(770.162109 0)"/>
     <use xlink:href="#DejaVuSans-72" transform="translate(825.142578 0)"/>
     <use xlink:href="#DejaVuSans-6f" transform="translate(864.005859 0)"/>
     <use xlink:href="#DejaVuSans-73" transform="translate(925.1875 0)"/>
     <use xlink:href="#DejaVuSans-73" transform="translate(977.287109 0)"/>
     <use xlink:href="#DejaVuSans-20" transform="translate(1029.386719 0)"/>
     <use xlink:href="#DejaVuSans-74" transform="translate(1061.173828 0)"/>
     <use xlink:href="#DejaVuSans-77" transform="translate(1100.382812 0)"/>
     <use xlink:href="#DejaVuSans-6f" transform="translate(1182.169922 0)"/>
     <use xlink:href="#DejaVuSans-20" transform="translate(1243.351562 0)"/>
     <use xlink:href="#DejaVuSans-72" transform="translate(1275.138672 0)"/>
     <use xlink:href="#DejaVuSans-61" transform="translate(1316.251953 0)"/>
     <use xlink:href="#DejaVuSans-6e" transform="translate(1377.53125 0)"/>
     <use xlink:href="#DejaVuSans-64" transform="translate(1440.910156 0)"/>
     <use xlink:href="#DejaVuSans-6f" transform="translate(1504.386719 0)"/>
     <use xlink:href="#DejaVuSans-6d" transform="translate(1565.568359 0)"/>
     <use xlink:href="#DejaVuSans-20" transform="translate(1662.980469 0)"/>
     <use xlink:href="#DejaVuSans-64" transform="translate(1694.767578 0)"/>
     <use xlink:href="#DejaVuSans-69" transform="translate(1758.244141 0)"/>
     <use xlink:href="#DejaVuSans-72" transform="translate(1786.027344 0)"/>
     <use xlink:href="#DejaVuSans-65" transform="translate(1824.890625 0)"/>
     <use xlink:href="#DejaVuSans-63" transform="translate(1886.414062 0)"/>
     <use xlink:href="#DejaVuSans-74" transform="translate(1941.394531 0)"/>
     <use xlink:href="#DejaVuSans-69" transform="translate(1980.603516 0)"/>
     <use xlink:href="#DejaVuSans-6f" transform="translate(2008.386719 0)"/>
     <use xlink:href="#DejaVuSans-6e" transform="translate(2069.568359 0)"/>
     <use xlink:href="#DejaVuSans-73" transform="translate(2132.947266 0)"/>
    </g>
    <!-- in unknown parameters -->
    <g transform="translate(132.93346 35.856) scale(0.12 -0.12)">
     <defs>
      <path id="DejaVuSans-75" d="M 544 1381 
L 544 3500 
L 1119 3500 
L 1119 1403 
Q 1119 906 1312 657 
Q 1506 409 1894 409 
Q 2359 409 2629 706 
Q 2900 1003 2900 1516 
L 2900 3500 
L 3475 3500 
L 3475 0 
L 2900 0 
L 2900 538 
Q 2691 219 2414 64 
Q 2138 -91 1772 -91 
Q 1169 -91 856 284 
Q 544 659 544 1381 
z
M 1991 3584 
L 1991 3584 
z
" transform="scale(0.015625)"/>
      <path id="DejaVuSans-6b" d="M 581 4863 
L 1159 4863 
L 1159 1991 
L 2875 3500 
L 3609 3500 
L 1753 1863 
L 3688 0 
L 2938 0 
L 1159 1709 
L 1159 0 
L 581 0 
L 581 4863 
z
" transform="scale(0.015625)"/>
      <path id="DejaVuSans-70" d="M 1159 525 
L 1159 -1331 
L 581 -1331 
L 581 3500 
L 1159 3500 
L 1159 2969 
Q 1341 3281 1617 3432 
Q 1894 3584 2278 3584 
Q 2916 3584 3314 3078 
Q 3713 2572 3713 1747 
Q 3713 922 3314 415 
Q 2916 -91 2278 -91 
Q 1894 -91 1617 61 
Q 1341 213 1159 525 
z
M 3116 1747 
Q 3116 2381 2855 2742 
Q 2594 3103 2138 3103 
Q 1681 3103 1420 2742 
Q 1159 2381 1159 1747 
Q 1159 1113 1420 752 
Q 1681 391 2138 391 
Q 2594 391 2855 752 
Q 3116 1113 3116 1747 
z
" transform="scale(0.015625)"/>
     </defs>
     <use xlink:href="#DejaVuSans-69"/>
     <use xlink:href="#DejaVuSans-6e" transform="translate(27.783203 0)"/>
     <use xlink:href="#DejaVuSans-20" transform="translate(91.162109 0)"/>
     <use xlink:href="#DejaVuSans-75" transform="translate(122.949219 0)"/>
     <use xlink:href="#DejaVuSans-6e" transform="translate(186.328125 0)"/>
     <use xlink:href="#DejaVuSans-6b" transform="translate(249.707031 0)"/>
     <use xlink:href="#DejaVuSans-6e" transform="translate(307.617188 0)"/>
     <use xlink:href="#DejaVuSans-6f" transform="translate(370.996094 0)"/>
     <use xlink:href="#DejaVuSans-77" transform="translate(432.177734 0)"/>
     <use xlink:href="#DejaVuSans-6e" transform="translate(513.964844 0)"/>
     <use xlink:href="#DejaVuSans-20" transform="translate(577.34375 0)"/>
     <use xlink:href="#DejaVuSans-70" transform="translate(609.130859 0)"/>
     <use xlink:href="#DejaVuSans-61" transform="translate(672.607422 0)"/>
     <use xlink:href="#DejaVuSans-72" transform="translate(733.886719 0)"/>
     <use xlink:href="#DejaVuSans-61" transform="translate(775 0)"/>
     <use xlink:href="#DejaVuSans-6d" transform="translate(836.279297 0)"/>
     <use xlink:href="#DejaVuSans-65" transform="translate(933.691406 0)"/>
     <use xlink:href="#DejaVuSans-74" transform="translate(995.214844 0)"/>
     <use xlink:href="#DejaVuSans-65" transform="translate(1034.423828 0)"/>
     <use xlink:href="#DejaVuSans-72" transform="translate(1095.947266 0)"/>
     <use xlink:href="#DejaVuSans-73" transform="translate(1137.060547 0)"/>
    </g>
   </g>
  </g>
  <g id="axes_2">
   <g id="patch_7">
    <path d="M 381.62704 303.64 
L 394.51624 303.64 
L 394.51624 45.856 
L 381.62704 45.856 
z
" style="fill: #ffffff"/>
   </g>
   <g id="QuadMesh_1">
    <path d="M 381.62704 303.64 
L 394.51624 303.64 
L 394.51624 291.364571 
L 381.62704 291.364571 
L 381.62704 303.64 
" clip-path="url(#p350b1d6579)" style="fill: #460a5d"/>
    <path d="M 381.62704 291.364571 
L 394.51624 291.364571 
L 394.51624 279.089143 
L 381.62704 279.089143 
L 381.62704 291.364571 
" clip-path="url(#p350b1d6579)" style="fill: #481b6d"/>
    <path d="M 381.62704 279.089143 
L 394.51624 279.089143 
L 394.51624 266.813714 
L 381.62704 266.813714 
L 381.62704 279.089143 
" clip-path="url(#p350b1d6579)" style="fill: #472a7a"/>
    <path d="M 381.62704 266.813714 
L 394.51624 266.813714 
L 394.51624 254.538286 
L 381.62704 254.538286 
L 381.62704 266.813714 
" clip-path="url(#p350b1d6579)" style="fill: #443983"/>
    <path d="M 381.62704 254.538286 
L 394.51624 254.538286 
L 394.51624 242.262857 
L 381.62704 242.262857 
L 381.62704 254.538286 
" clip-path="url(#p350b1d6579)" style="fill: #3f4788"/>
    <path d="M 381.62704 242.262857 
L 394.51624 242.262857 
L 394.51624 229.987429 
L 381.62704 229.987429 
L 381.62704 242.262857 
" clip-path="url(#p350b1d6579)" style="fill: #39558c"/>
    <path d="M 381.62704 229.987429 
L 394.51624 229.987429 
L 394.51624 217.712 
L 381.62704 217.712 
L 381.62704 229.987429 
" clip-path="url(#p350b1d6579)" style="fill: #33628d"/>
    <path d="M 381.62704 217.712 
L 394.51624 217.712 
L 394.51624 205.436571 
L 381.62704 205.436571 
L 381.62704 217.712 
" clip-path="url(#p350b1d6579)" style="fill: #2e6e8e"/>
    <path d="M 381.62704 205.436571 
L 394.51624 205.436571 
L 394.51624 193.161143 
L 381.62704 193.161143 
L 381.62704 205.436571 
" clip-path="url(#p350b1d6579)" style="fill: #29798e"/>
    <path d="M 381.62704 193.161143 
L 394.51624 193.161143 
L 394.51624 180.885714 
L 381.62704 180.885714 
L 381.62704 193.161143 
" clip-path="url(#p350b1d6579)" style="fill: #25848e"/>
    <path d="M 381.62704 180.885714 
L 394.51624 180.885714 
L 394.51624 168.610286 
L 381.62704 168.610286 
L 381.62704 180.885714 
" clip-path="url(#p350b1d6579)" style="fill: #21918c"/>
    <path d="M 381.62704 168.610286 
L 394.51624 168.610286 
L 394.51624 156.334857 
L 381.62704 156.334857 
L 381.62704 168.610286 
" clip-path="url(#p350b1d6579)" style="fill: #1e9c89"/>
    <path d="M 381.62704 156.334857 
L 394.51624 156.334857 
L 394.51624 144.059429 
L 381.62704 144.059429 
L 381.62704 156.334857 
" clip-path="url(#p350b1d6579)" style="fill: #22a785"/>
    <path d="M 381.62704 144.059429 
L 394.51624 144.059429 
L 394.51624 131.784 
L 381.62704 131.784 
L 381.62704 144.059429 
" clip-path="url(#p350b1d6579)" style="fill: #2db27d"/>
    <path d="M 381.62704 131.784 
L 394.51624 131.784 
L 394.51624 119.508571 
L 381.62704 119.508571 
L 381.62704 131.784 
" clip-path="url(#p350b1d6579)" style="fill: #3fbc73"/>
    <path d="M 381.62704 119.508571 
L 394.51624 119.508571 
L 394.51624 107.233143 
L 381.62704 107.233143 
L 381.62704 119.508571 
" clip-path="url(#p350b1d6579)" style="fill: #56c667"/>
    <path d="M 381.62704 107.233143 
L 394.51624 107.233143 
L 394.51624 94.957714 
L 381.62704 94.957714 
L 381.62704 107.233143 
" clip-path="url(#p350b1d6579)" style="fill: #73d056"/>
    <path d="M 381.62704 94.957714 
L 394.51624 94.957714 
L 394.51624 82.682286 
L 381.62704 82.682286 
L 381.62704 94.957714 
" clip-path="url(#p350b1d6579)" style="fill: #90d743"/>
    <path d="M 381.62704 82.682286 
L 394.51624 82.682286 
L 394.51624 70.406857 
L 381.62704 70.406857 
L 381.62704 82.682286 
" clip-path="url(#p350b1d6579)" style="fill: #b0dd2f"/>
    <path d="M 381.62704 70.406857 
L 394.51624 70.406857 
L 394.51624 58.131429 
L 381.62704 58.131429 
L 381.62704 70.406857 
" clip-path="url(#p350b1d6579)" style="fill: #d0e11c"/>
    <path d="M 381.62704 58.131429 
L 394.51624 58.131429 
L 394.51624 45.856 
L 381.62704 45.856 
L 381.62704 58.131429 
" clip-path="url(#p350b1d6579)" style="fill: #efe51c"/>
   </g>
   <g id="matplotlib.axis_3"/>
   <g id="matplotlib.axis_4">
    <g id="ytick_10">
     <g id="line2d_20">
      <defs>
       <path id="m782bef6949" d="M 0 0 
L 3.5 0 
" style="stroke: #000000; stroke-width: 0.8"/>
      </defs>
      <g>
       <use xlink:href="#m782bef6949" x="394.51624" y="303.64" style="stroke: #000000; stroke-width: 0.8"/>
      </g>
     </g>
     <g id="text_22">
      <!-- 0.000 -->
      <g transform="translate(401.51624 307.439219) scale(0.1 -0.1)">
       <defs>
        <path id="DejaVuSans-2e" d="M 684 794 
L 1344 794 
L 1344 0 
L 684 0 
L 684 794 
z
" transform="scale(0.015625)"/>
       </defs>
       <use xlink:href="#DejaVuSans-30"/>
       <use xlink:href="#DejaVuSans-2e" transform="translate(63.623047 0)"/>
       <use xlink:href="#DejaVuSans-30" transform="translate(95.410156 0)"/>
       <use xlink:href="#DejaVuSans-30" transform="translate(159.033203 0)"/>
       <use xlink:href="#DejaVuSans-30" transform="translate(222.65625 0)"/>
      </g>
     </g>
    </g>
    <g id="ytick_11">
     <g id="line2d_21">
      <g>
       <use xlink:href="#m782bef6949" x="394.51624" y="266.813714" style="stroke: #000000; stroke-width: 0.8"/>
      </g>
     </g>
     <g id="text_23">
      <!-- 0.015 -->
      <g transform="translate(401.51624 270.612933) scale(0.1 -0.1)">
       <defs>
        <path id="DejaVuSans-35" d="M 691 4666 
L 3169 4666 
L 3169 4134 
L 1269 4134 
L 1269 2991 
Q 1406 3038 1543 3061 
Q 1681 3084 1819 3084 
Q 2600 3084 3056 2656 
Q 3513 2228 3513 1497 
Q 3513 744 3044 326 
Q 2575 -91 1722 -91 
Q 1428 -91 1123 -41 
Q 819 9 494 109 
L 494 744 
Q 775 591 1075 516 
Q 1375 441 1709 441 
Q 2250 441 2565 725 
Q 2881 1009 2881 1497 
Q 2881 1984 2565 2268 
Q 2250 2553 1709 2553 
Q 1456 2553 1204 2497 
Q 953 2441 691 2322 
L 691 4666 
z
" transform="scale(0.015625)"/>
       </defs>
       <use xlink:href="#DejaVuSans-30"/>
       <use xlink:href="#DejaVuSans-2e" transform="translate(63.623047 0)"/>
       <use xlink:href="#DejaVuSans-30" transform="translate(95.410156 0)"/>
       <use xlink:href="#DejaVuSans-31" transform="translate(159.033203 0)"/>
       <use xlink:href="#DejaVuSans-35" transform="translate(222.65625 0)"/>
      </g>
     </g>
    </g>
    <g id="ytick_12">
     <g id="line2d_22">
      <g>
       <use xlink:href="#m782bef6949" x="394.51624" y="229.987429" style="stroke: #000000; stroke-width: 0.8"/>
      </g>
     </g>
     <g id="text_24">
      <!-- 0.030 -->
      <g transform="translate(401.51624 233.786647) scale(0.1 -0.1)">
       <use xlink:href="#DejaVuSans-30"/>
       <use xlink:href="#DejaVuSans-2e" transform="translate(63.623047 0)"/>
       <use xlink:href="#DejaVuSans-30" transform="translate(95.410156 0)"/>
       <use xlink:href="#DejaVuSans-33" transform="translate(159.033203 0)"/>
       <use xlink:href="#DejaVuSans-30" transform="translate(222.65625 0)"/>
      </g>
     </g>
    </g>
    <g id="ytick_13">
     <g id="line2d_23">
      <g>
       <use xlink:href="#m782bef6949" x="394.51624" y="193.161143" style="stroke: #000000; stroke-width: 0.8"/>
      </g>
     </g>
     <g id="text_25">
      <!-- 0.045 -->
      <g transform="translate(401.51624 196.960362) scale(0.1 -0.1)">
       <use xlink:href="#DejaVuSans-30"/>
       <use xlink:href="#DejaVuSans-2e" transform="translate(63.623047 0)"/>
       <use xlink:href="#DejaVuSans-30" transform="translate(95.410156 0)"/>
       <use xlink:href="#DejaVuSans-34" transform="translate(159.033203 0)"/>
       <use xlink:href="#DejaVuSans-35" transform="translate(222.65625 0)"/>
      </g>
     </g>
    </g>
    <g id="ytick_14">
     <g id="line2d_24">
      <g>
       <use xlink:href="#m782bef6949" x="394.51624" y="156.334857" style="stroke: #000000; stroke-width: 0.8"/>
      </g>
     </g>
     <g id="text_26">
      <!-- 0.060 -->
      <g transform="translate(401.51624 160.134076) scale(0.1 -0.1)">
       <defs>
        <path id="DejaVuSans-36" d="M 2113 2584 
Q 1688 2584 1439 2293 
Q 1191 2003 1191 1497 
Q 1191 994 1439 701 
Q 1688 409 2113 409 
Q 2538 409 2786 701 
Q 3034 994 3034 1497 
Q 3034 2003 2786 2293 
Q 2538 2584 2113 2584 
z
M 3366 4563 
L 3366 3988 
Q 3128 4100 2886 4159 
Q 2644 4219 2406 4219 
Q 1781 4219 1451 3797 
Q 1122 3375 1075 2522 
Q 1259 2794 1537 2939 
Q 1816 3084 2150 3084 
Q 2853 3084 3261 2657 
Q 3669 2231 3669 1497 
Q 3669 778 3244 343 
Q 2819 -91 2113 -91 
Q 1303 -91 875 529 
Q 447 1150 447 2328 
Q 447 3434 972 4092 
Q 1497 4750 2381 4750 
Q 2619 4750 2861 4703 
Q 3103 4656 3366 4563 
z
" transform="scale(0.015625)"/>
       </defs>
       <use xlink:href="#DejaVuSans-30"/>
       <use xlink:href="#DejaVuSans-2e" transform="translate(63.623047 0)"/>
       <use xlink:href="#DejaVuSans-30" transform="translate(95.410156 0)"/>
       <use xlink:href="#DejaVuSans-36" transform="translate(159.033203 0)"/>
       <use xlink:href="#DejaVuSans-30" transform="translate(222.65625 0)"/>
      </g>
     </g>
    </g>
    <g id="ytick_15">
     <g id="line2d_25">
      <g>
       <use xlink:href="#m782bef6949" x="394.51624" y="119.508571" style="stroke: #000000; stroke-width: 0.8"/>
      </g>
     </g>
     <g id="text_27">
      <!-- 0.075 -->
      <g transform="translate(401.51624 123.30779) scale(0.1 -0.1)">
       <defs>
        <path id="DejaVuSans-37" d="M 525 4666 
L 3525 4666 
L 3525 4397 
L 1831 0 
L 1172 0 
L 2766 4134 
L 525 4134 
L 525 4666 
z
" transform="scale(0.015625)"/>
       </defs>
       <use xlink:href="#DejaVuSans-30"/>
       <use xlink:href="#DejaVuSans-2e" transform="translate(63.623047 0)"/>
       <use xlink:href="#DejaVuSans-30" transform="translate(95.410156 0)"/>
       <use xlink:href="#DejaVuSans-37" transform="translate(159.033203 0)"/>
       <use xlink:href="#DejaVuSans-35" transform="translate(222.65625 0)"/>
      </g>
     </g>
    </g>
    <g id="ytick_16">
     <g id="line2d_26">
      <g>
       <use xlink:href="#m782bef6949" x="394.51624" y="82.682286" style="stroke: #000000; stroke-width: 0.8"/>
      </g>
     </g>
     <g id="text_28">
      <!-- 0.090 -->
      <g transform="translate(401.51624 86.481504) scale(0.1 -0.1)">
       <defs>
        <path id="DejaVuSans-39" d="M 703 97 
L 703 672 
Q 941 559 1184 500 
Q 1428 441 1663 441 
Q 2288 441 2617 861 
Q 2947 1281 2994 2138 
Q 2813 1869 2534 1725 
Q 2256 1581 1919 1581 
Q 1219 1581 811 2004 
Q 403 2428 403 3163 
Q 403 3881 828 4315 
Q 1253 4750 1959 4750 
Q 2769 4750 3195 4129 
Q 3622 3509 3622 2328 
Q 3622 1225 3098 567 
Q 2575 -91 1691 -91 
Q 1453 -91 1209 -44 
Q 966 3 703 97 
z
M 1959 2075 
Q 2384 2075 2632 2365 
Q 2881 2656 2881 3163 
Q 2881 3666 2632 3958 
Q 2384 4250 1959 4250 
Q 1534 4250 1286 3958 
Q 1038 3666 1038 3163 
Q 1038 2656 1286 2365 
Q 1534 2075 1959 2075 
z
" transform="scale(0.015625)"/>
       </defs>
       <use xlink:href="#DejaVuSans-30"/>
       <use xlink:href="#DejaVuSans-2e" transform="translate(63.623047 0)"/>
       <use xlink:href="#DejaVuSans-30" transform="translate(95.410156 0)"/>
       <use xlink:href="#DejaVuSans-39" transform="translate(159.033203 0)"/>
       <use xlink:href="#DejaVuSans-30" transform="translate(222.65625 0)"/>
      </g>
     </g>
    </g>
    <g id="ytick_17">
     <g id="line2d_27">
      <g>
       <use xlink:href="#m782bef6949" x="394.51624" y="45.856" style="stroke: #000000; stroke-width: 0.8"/>
      </g>
     </g>
     <g id="text_29">
      <!-- 0.105 -->
      <g transform="translate(401.51624 49.655219) scale(0.1 -0.1)">
       <use xlink:href="#DejaVuSans-30"/>
       <use xlink:href="#DejaVuSans-2e" transform="translate(63.623047 0)"/>
       <use xlink:href="#DejaVuSans-31" transform="translate(95.410156 0)"/>
       <use xlink:href="#DejaVuSans-30" transform="translate(159.033203 0)"/>
       <use xlink:href="#DejaVuSans-35" transform="translate(222.65625 0)"/>
      </g>
     </g>
    </g>
    <g id="text_30">
     <!-- Relative error -->
     <g transform="translate(441.742802 208.603469) rotate(-90) scale(0.1 -0.1)">
      <use xlink:href="#DejaVuSans-52"/>
      <use xlink:href="#DejaVuSans-65" transform="translate(64.982422 0)"/>
      <use xlink:href="#DejaVuSans-6c" transform="translate(126.505859 0)"/>
      <use xlink:href="#DejaVuSans-61" transform="translate(154.289062 0)"/>
      <use xlink:href="#DejaVuSans-74" transform="translate(215.568359 0)"/>
      <use xlink:href="#DejaVuSans-69" transform="translate(254.777344 0)"/>
      <use xlink:href="#DejaVuSans-76" transform="translate(282.560547 0)"/>
      <use xlink:href="#DejaVuSans-65" transform="translate(341.740234 0)"/>
      <use xlink:href="#DejaVuSans-20" transform="translate(403.263672 0)"/>
      <use xlink:href="#DejaVuSans-65" transform="translate(435.050781 0)"/>
      <use xlink:href="#DejaVuSans-72" transform="translate(496.574219 0)"/>
      <use xlink:href="#DejaVuSans-72" transform="translate(535.9375 0)"/>
      <use xlink:href="#DejaVuSans-6f" transform="translate(574.800781 0)"/>
      <use xlink:href="#DejaVuSans-72" transform="translate(635.982422 0)"/>
     </g>
    </g>
   </g>
   <g id="LineCollection_1"/>
   <g id="patch_8">
    <path d="M 381.62704 303.64 
L 388.07164 303.64 
L 394.51624 303.64 
L 394.51624 45.856 
L 388.07164 45.856 
L 381.62704 45.856 
L 381.62704 303.64 
z
" style="fill: none; stroke: #000000; stroke-width: 0.8; stroke-linejoin: miter; stroke-linecap: square"/>
   </g>
  </g>
 </g>
 <defs>
  <clipPath id="p3dc2f44def">
   <rect x="46.64" y="45.856" width="315.28192" height="257.784"/>
  </clipPath>
  <clipPath id="p350b1d6579">
   <rect x="381.62704" y="45.856" width="12.8892" height="257.784"/>
  </clipPath>
 </defs>
</svg>
