<?xml version="1.0" encoding="utf-8" standalone="no"?>
<!DOCTYPE svg PUBLIC "-//W3C//DTD SVG 1.1//EN"
  "http://www.w3.org/Graphics/SVG/1.1/DTD/svg11.dtd">
<svg xmlns:xlink="http://www.w3.org/1999/xlink" width="460.8pt" height="345.6pt" viewBox="0 0 460.8 345.6" xmlns="http://www.w3.org/2000/svg" version="1.1">
 <metadata>
  <rdf:RDF xmlns:dc="http://purl.org/dc/elements/1.1/" xmlns:cc="http://creativecommons.org/ns#" xmlns:rdf="http://www.w3.org/1999/02/22-rdf-syntax-ns#">
   <cc:Work>
    <dc:type rdf:resource="http://purl.org/dc/dcmitype/StillImage"/>
    <dc:date>2025-10-16T16:19:44.586815</dc:date>
    <dc:format>image/svg+xml</dc:format>
    <dc:creator>
     <cc:Agent>
      <dc:title>Matplotlib v3.10.6, https://matplotlib.org/</dc:title>
     </cc:Agent>
    </dc:creator>
   </cc:Work>
  </rdf:RDF>
 </metadata>
 <defs>
  <style type="text/css">*{stroke-linejoin: round; stroke-linecap: butt}</style>
 </defs>
 <g id="figure_1">
  <g id="patch_1">
   <path d="M 0 345.6 
L 460.8 345.6 
L 460.8 0 
L 0 0 
z
" style="fill: #ffffff"/>
  </g>
  <g id="axes_1">
   <g id="patch_2">
    <path d="M 46.64 303.64 
L 361.84992 303.64 
L 361.84992 45.856 
L 46.64 45.856 
z
" style="fill: #ffffff"/>
   </g>
   <g id="QuadContourSet_1">
    <path d="M 235.765952 214.03005 
L 237.28364 213.4156 
L 237.492276 200.5264 
L 235.765952 198.276863 
L 227.900216 187.6372 
L 220.005456 178.102567 
L 217.110241 174.748 
L 205.180976 161.8588 
L 204.24496 160.902079 
L 190.782169 148.9696 
L 188.484464 146.796867 
L 172.723968 136.890563 
L 171.285162 148.9696 
L 172.723968 150.883561 
L 180.595812 161.8588 
L 188.484464 171.401322 
L 191.344259 174.748 
L 203.32697 187.6372 
L 204.24496 188.568724 
L 217.617295 200.5264 
L 220.005456 202.794972 
L 235.056108 213.4156 
z
" clip-path="url(#pe5a5372ef9)" style="fill: #460a5d"/>
    <path d="M 267.286944 254.606622 
L 283.04744 258.423807 
L 285.172145 252.0832 
L 283.04744 247.368964 
L 279.01433 239.194 
L 271.58478 226.3048 
L 267.286944 220.297419 
L 262.456294 213.4156 
L 252.800915 200.5264 
L 251.526448 199.008549 
L 242.154734 187.6372 
L 235.765952 180.324843 
L 230.93163 174.748 
L 220.005456 162.861944 
L 219.053003 161.8588 
L 206.453817 148.9696 
L 204.24496 146.73475 
L 192.874043 136.0804 
L 188.484464 131.883326 
L 178.005575 123.1912 
L 172.723968 118.502035 
L 161.113489 110.302 
L 156.963472 106.990089 
L 141.202976 98.674613 
L 132.888556 110.302 
L 138.02603 123.1912 
L 141.202976 127.984614 
L 146.411132 136.0804 
L 155.651631 148.9696 
L 156.963472 150.544773 
L 166.148375 161.8588 
L 172.723968 169.358275 
L 177.387802 174.748 
L 188.484464 186.709743 
L 189.367984 187.6372 
L 202.055282 200.5264 
L 204.24496 202.72078 
L 215.604796 213.4156 
L 220.005456 217.63159 
L 230.150434 226.3048 
L 235.765952 231.411545 
L 246.015773 239.194 
L 251.526448 243.882583 
L 264.027418 252.0832 
z
M 235.056108 213.4156 
L 220.005456 202.794972 
L 217.617295 200.5264 
L 204.24496 188.568724 
L 203.32697 187.6372 
L 191.344259 174.748 
L 188.484464 171.401322 
L 180.595812 161.8588 
L 172.723968 150.883561 
L 171.285162 148.9696 
L 172.723968 136.890563 
L 188.484464 146.796867 
L 190.782169 148.9696 
L 204.24496 160.902079 
L 205.180976 161.8588 
L 217.110241 174.748 
L 220.005456 178.102567 
L 227.900216 187.6372 
L 235.765952 198.276863 
L 237.492276 200.5264 
L 237.28364 213.4156 
L 235.765952 214.03005 
z
" clip-path="url(#pe5a5372ef9)" style="fill: #481b6d"/>
    <path d="M 298.807936 295.894528 
L 312.518083 303.64 
L 314.568432 303.64 
L 330.328928 303.64 
L 331.508265 303.64 
L 330.328928 298.066195 
L 328.51857 290.7508 
L 321.88357 277.8616 
L 314.888947 264.9724 
L 314.568432 264.513318 
L 305.944713 252.0832 
L 298.807936 241.889063 
L 296.938327 239.194 
L 287.235699 226.3048 
L 283.04744 221.046068 
L 277.078213 213.4156 
L 267.286944 201.396562 
L 266.59192 200.5264 
L 255.634875 187.6372 
L 251.526448 182.972094 
L 244.297072 174.748 
L 235.765952 165.360548 
L 232.55008 161.8588 
L 220.385071 148.9696 
L 220.005456 148.572794 
L 207.670043 136.0804 
L 204.24496 132.631303 
L 194.342137 123.1912 
L 188.484464 117.550635 
L 180.270901 110.302 
L 172.723968 103.423665 
L 165.22088 97.4128 
L 156.963472 90.395809 
L 148.697463 84.5236 
L 141.202976 78.718148 
L 129.608992 71.6344 
L 125.44248 68.790797 
L 109.681984 62.258291 
L 95.028535 71.6344 
L 99.098056 84.5236 
L 105.110244 97.4128 
L 109.681984 104.94271 
L 112.8712 110.302 
L 121.631518 123.1912 
L 125.44248 128.195604 
L 131.285999 136.0804 
L 141.202976 148.55771 
L 141.521297 148.9696 
L 152.401819 161.8588 
L 156.963472 167.000241 
L 163.790835 174.748 
L 172.723968 184.449907 
L 175.675119 187.6372 
L 188.010909 200.5264 
L 188.484464 201.012758 
L 200.845688 213.4156 
L 204.24496 216.799262 
L 214.194019 226.3048 
L 220.005456 231.900347 
L 228.082909 239.194 
L 235.765952 246.327754 
L 242.569296 252.0832 
L 251.526448 260.063999 
L 257.782521 264.9724 
L 267.286944 273.035457 
L 274.004004 277.8616 
L 283.04744 285.078006 
L 291.825024 290.7508 
z
M 264.027418 252.0832 
L 251.526448 243.882583 
L 246.015773 239.194 
L 235.765952 231.411545 
L 230.150434 226.3048 
L 220.005456 217.63159 
L 215.604796 213.4156 
L 204.24496 202.72078 
L 202.055282 200.5264 
L 189.367984 187.6372 
L 188.484464 186.709743 
L 177.387802 174.748 
L 172.723968 169.358275 
L 166.148375 161.8588 
L 156.963472 150.544773 
L 155.651631 148.9696 
L 146.411132 136.0804 
L 141.202976 127.984614 
L 138.02603 123.1912 
L 132.888556 110.302 
L 141.202976 98.674613 
L 156.963472 106.990089 
L 161.113489 110.302 
L 172.723968 118.502035 
L 178.005575 123.1912 
L 188.484464 131.883326 
L 192.874043 136.0804 
L 204.24496 146.73475 
L 206.453817 148.9696 
L 219.053003 161.8588 
L 220.005456 162.861944 
L 230.93163 174.748 
L 235.765952 180.324843 
L 242.154734 187.6372 
L 251.526448 199.008549 
L 252.800915 200.5264 
L 262.456294 213.4156 
L 267.286944 220.297419 
L 271.58478 226.3048 
L 279.01433 239.194 
L 283.04744 247.368964 
L 285.172145 252.0832 
L 283.04744 258.423807 
L 267.286944 254.606622 
z
" clip-path="url(#pe5a5372ef9)" style="fill: #472a7a"/>
    <path d="M 283.04744 302.058689 
L 285.142767 303.64 
L 298.807936 303.64 
L 312.518083 303.64 
L 298.807936 295.894528 
L 291.825024 290.7508 
L 283.04744 285.078006 
L 274.004004 277.8616 
L 267.286944 273.035457 
L 257.782521 264.9724 
L 251.526448 260.063999 
L 242.569296 252.0832 
L 235.765952 246.327754 
L 228.082909 239.194 
L 220.005456 231.900347 
L 214.194019 226.3048 
L 204.24496 216.799262 
L 200.845688 213.4156 
L 188.484464 201.012758 
L 188.010909 200.5264 
L 175.675119 187.6372 
L 172.723968 184.449907 
L 163.790835 174.748 
L 156.963472 167.000241 
L 152.401819 161.8588 
L 141.521297 148.9696 
L 141.202976 148.55771 
L 131.285999 136.0804 
L 125.44248 128.195604 
L 121.631518 123.1912 
L 112.8712 110.302 
L 109.681984 104.94271 
L 105.110244 97.4128 
L 99.098056 84.5236 
L 95.028535 71.6344 
L 109.681984 62.258291 
L 125.44248 68.790797 
L 129.608992 71.6344 
L 141.202976 78.718148 
L 148.697463 84.5236 
L 156.963472 90.395809 
L 165.22088 97.4128 
L 172.723968 103.423665 
L 180.270901 110.302 
L 188.484464 117.550635 
L 194.342137 123.1912 
L 204.24496 132.631303 
L 207.670043 136.0804 
L 220.005456 148.572794 
L 220.385071 148.9696 
L 232.55008 161.8588 
L 235.765952 165.360548 
L 244.297072 174.748 
L 251.526448 182.972094 
L 255.634875 187.6372 
L 266.59192 200.5264 
L 267.286944 201.396562 
L 277.078213 213.4156 
L 283.04744 221.046068 
L 287.235699 226.3048 
L 296.938327 239.194 
L 298.807936 241.889063 
L 305.944713 252.0832 
L 314.568432 264.513318 
L 314.888947 264.9724 
L 321.88357 277.8616 
L 328.51857 290.7508 
L 330.328928 298.066195 
L 331.508265 303.64 
L 346.089424 303.64 
L 357.883003 303.64 
L 349.574818 290.7508 
L 346.089424 285.771991 
L 340.566842 277.8616 
L 331.428833 264.9724 
L 330.328928 263.539119 
L 321.632276 252.0832 
L 314.568432 242.955824 
L 311.694694 239.194 
L 301.443495 226.3048 
L 298.807936 223.117174 
L 290.870458 213.4156 
L 283.04744 204.109993 
L 280.064651 200.5264 
L 268.976517 187.6372 
L 267.286944 185.723432 
L 257.595647 174.748 
L 251.526448 168.025276 
L 245.924832 161.8588 
L 235.765952 150.900741 
L 233.946609 148.9696 
L 221.624994 136.0804 
L 220.005456 134.400871 
L 208.881001 123.1912 
L 204.24496 118.534346 
L 195.683149 110.302 
L 188.484464 103.337194 
L 181.960635 97.4128 
L 172.723968 88.866118 
L 167.599696 84.5236 
L 156.963472 75.198564 
L 152.393104 71.6344 
L 141.202976 62.454369 
L 135.947359 58.7452 
L 125.44248 50.817028 
L 117.509197 45.856 
L 109.681984 45.856 
L 93.921488 45.856 
L 78.160992 45.856 
L 62.400496 45.856 
L 61.884852 45.856 
L 62.400496 47.310417 
L 66.502883 58.7452 
L 72.562895 71.6344 
L 78.160992 81.562373 
L 79.805583 84.5236 
L 88.179072 97.4128 
L 93.921488 105.557788 
L 97.189451 110.302 
L 106.810908 123.1912 
L 109.681984 126.774084 
L 117.004392 136.0804 
L 125.44248 146.272791 
L 127.637871 148.9696 
L 138.707857 161.8588 
L 141.202976 164.653925 
L 150.171658 174.748 
L 156.963472 182.145864 
L 162.012272 187.6372 
L 172.723968 198.972525 
L 174.20779 200.5264 
L 186.744252 213.4156 
L 188.484464 215.18365 
L 199.647094 226.3048 
L 204.24496 230.861388 
L 212.909618 239.194 
L 220.005456 246.045773 
L 226.532214 252.0832 
L 235.765952 260.757143 
L 240.522724 264.9724 
L 251.526448 275.005827 
L 254.906262 277.8616 
L 267.286944 288.784535 
L 269.740984 290.7508 
z
" clip-path="url(#pe5a5372ef9)" style="fill: #443983"/>
    <path d="M 267.286944 303.64 
L 283.04744 303.64 
L 285.142767 303.64 
L 283.04744 302.058689 
L 269.740984 290.7508 
L 267.286944 288.784535 
L 254.906262 277.8616 
L 251.526448 275.005827 
L 240.522724 264.9724 
L 235.765952 260.757143 
L 226.532214 252.0832 
L 220.005456 246.045773 
L 212.909618 239.194 
L 204.24496 230.861388 
L 199.647094 226.3048 
L 188.484464 215.18365 
L 186.744252 213.4156 
L 174.20779 200.5264 
L 172.723968 198.972525 
L 162.012272 187.6372 
L 156.963472 182.145864 
L 150.171658 174.748 
L 141.202976 164.653925 
L 138.707857 161.8588 
L 127.637871 148.9696 
L 125.44248 146.272791 
L 117.004392 136.0804 
L 109.681984 126.774084 
L 106.810908 123.1912 
L 97.189451 110.302 
L 93.921488 105.557788 
L 88.179072 97.4128 
L 79.805583 84.5236 
L 78.160992 81.562373 
L 72.562895 71.6344 
L 66.502883 58.7452 
L 62.400496 47.310417 
L 61.884852 45.856 
L 46.64 45.856 
L 46.64 57.676248 
L 47.195103 58.7452 
L 55.169355 71.6344 
L 62.400496 82.639318 
L 63.614598 84.5236 
L 72.77755 97.4128 
L 78.160992 104.563485 
L 82.402077 110.302 
L 92.459146 123.1912 
L 93.921488 124.967116 
L 102.954713 136.0804 
L 109.681984 144.036841 
L 113.805687 148.9696 
L 125.003206 161.8588 
L 125.44248 162.348874 
L 136.515579 174.748 
L 141.202976 179.859544 
L 148.335189 187.6372 
L 156.963472 196.831239 
L 160.448215 200.5264 
L 172.723968 213.302822 
L 172.833558 213.4156 
L 185.50115 226.3048 
L 188.484464 229.312819 
L 198.448266 239.194 
L 204.24496 244.920247 
L 211.667626 252.0832 
L 220.005456 260.147833 
L 225.152693 264.9724 
L 235.765952 275.015218 
L 238.899072 277.8616 
L 251.526448 289.537629 
L 252.907565 290.7508 
L 267.197677 303.64 
z
M 361.84992 303.64 
L 361.84992 290.7508 
L 361.84992 285.399287 
L 356.160112 277.8616 
L 346.310612 264.9724 
L 346.089424 264.696382 
L 336.067808 252.0832 
L 330.328928 244.977734 
L 325.701488 239.194 
L 315.165346 226.3048 
L 314.568432 225.596155 
L 304.371159 213.4156 
L 298.807936 206.894936 
L 293.402875 200.5264 
L 283.04744 188.575675 
L 282.236948 187.6372 
L 270.842333 174.748 
L 267.286944 170.791087 
L 259.223511 161.8588 
L 251.526448 153.461962 
L 247.367044 148.9696 
L 235.765952 136.606088 
L 235.263836 136.0804 
L 222.847728 123.1912 
L 220.005456 120.258598 
L 210.098052 110.302 
L 204.24496 104.430715 
L 196.985207 97.4128 
L 188.484464 89.159639 
L 183.462636 84.5236 
L 172.723968 74.487119 
L 169.461197 71.6344 
L 156.963472 60.46493 
L 154.86674 58.7452 
L 141.202976 47.165279 
L 139.482467 45.856 
L 125.44248 45.856 
L 117.509197 45.856 
L 125.44248 50.817028 
L 135.947359 58.7452 
L 141.202976 62.454369 
L 152.393104 71.6344 
L 156.963472 75.198564 
L 167.599696 84.5236 
L 172.723968 88.866118 
L 181.960635 97.4128 
L 188.484464 103.337194 
L 195.683149 110.302 
L 204.24496 118.534346 
L 208.881001 123.1912 
L 220.005456 134.400871 
L 221.624994 136.0804 
L 233.946609 148.9696 
L 235.765952 150.900741 
L 245.924832 161.8588 
L 251.526448 168.025276 
L 257.595647 174.748 
L 267.286944 185.723432 
L 268.976517 187.6372 
L 280.064651 200.5264 
L 283.04744 204.109993 
L 290.870458 213.4156 
L 298.807936 223.117174 
L 301.443495 226.3048 
L 311.694694 239.194 
L 314.568432 242.955824 
L 321.632276 252.0832 
L 330.328928 263.539119 
L 331.428833 264.9724 
L 340.566842 277.8616 
L 346.089424 285.771991 
L 349.574818 290.7508 
L 357.883003 303.64 
z
" clip-path="url(#pe5a5372ef9)" style="fill: #3f4788"/>
    <path d="M 251.526448 303.64 
L 267.197677 303.64 
L 252.907565 290.7508 
L 251.526448 289.537629 
L 238.899072 277.8616 
L 235.765952 275.015218 
L 225.152693 264.9724 
L 220.005456 260.147833 
L 211.667626 252.0832 
L 204.24496 244.920247 
L 198.448266 239.194 
L 188.484464 229.312819 
L 185.50115 226.3048 
L 172.833558 213.4156 
L 172.723968 213.302822 
L 160.448215 200.5264 
L 156.963472 196.831239 
L 148.335189 187.6372 
L 141.202976 179.859544 
L 136.515579 174.748 
L 125.44248 162.348874 
L 125.003206 161.8588 
L 113.805687 148.9696 
L 109.681984 144.036841 
L 102.954713 136.0804 
L 93.921488 124.967116 
L 92.459146 123.1912 
L 82.402077 110.302 
L 78.160992 104.563485 
L 72.77755 97.4128 
L 63.614598 84.5236 
L 62.400496 82.639318 
L 55.169355 71.6344 
L 47.195103 58.7452 
L 46.64 57.676248 
L 46.64 58.7452 
L 46.64 71.6344 
L 46.64 82.050124 
L 48.362952 84.5236 
L 57.965598 97.4128 
L 62.400496 103.087344 
L 67.958457 110.302 
L 78.160992 123.020994 
L 78.295638 123.1912 
L 88.98745 136.0804 
L 93.921488 141.838855 
L 99.980519 148.9696 
L 109.681984 160.040402 
L 111.265329 161.8588 
L 122.818558 174.748 
L 125.44248 177.610277 
L 134.628279 187.6372 
L 141.202976 194.671285 
L 146.68883 200.5264 
L 156.963472 211.306386 
L 158.98632 213.4156 
L 171.508797 226.3048 
L 172.723968 227.543953 
L 184.26428 239.194 
L 188.484464 243.424852 
L 197.244217 252.0832 
L 204.24496 258.981614 
L 210.440598 264.9724 
L 220.005456 274.233158 
L 223.845273 277.8616 
L 235.765952 289.196813 
L 237.45071 290.7508 
L 251.26439 303.64 
z
M 361.84992 285.399287 
L 361.84992 277.8616 
L 361.84992 266.75922 
L 360.43719 264.9724 
L 349.967162 252.0832 
L 346.089424 247.39213 
L 339.355627 239.194 
L 330.328928 228.365359 
L 328.622269 226.3048 
L 317.714031 213.4156 
L 314.568432 209.758616 
L 306.64865 200.5264 
L 298.807936 191.521237 
L 295.430343 187.6372 
L 284.041387 174.748 
L 283.04744 173.63755 
L 272.462547 161.8588 
L 267.286944 156.166972 
L 260.694395 148.9696 
L 251.526448 139.069776 
L 248.724956 136.0804 
L 236.536696 123.1912 
L 235.765952 122.380806 
L 224.070244 110.302 
L 220.005456 106.122262 
L 211.326273 97.4128 
L 204.24496 90.314548 
L 198.277131 84.5236 
L 188.484464 74.990225 
L 184.888305 71.6344 
L 172.723968 60.183355 
L 171.111325 58.7452 
L 156.963472 45.933585 
L 156.87179 45.856 
L 141.202976 45.856 
L 139.482467 45.856 
L 141.202976 47.165279 
L 154.86674 58.7452 
L 156.963472 60.46493 
L 169.461197 71.6344 
L 172.723968 74.487119 
L 183.462636 84.5236 
L 188.484464 89.159639 
L 196.985207 97.4128 
L 204.24496 104.430715 
L 210.098052 110.302 
L 220.005456 120.258598 
L 222.847728 123.1912 
L 235.263836 136.0804 
L 235.765952 136.606088 
L 247.367044 148.9696 
L 251.526448 153.461962 
L 259.223511 161.8588 
L 267.286944 170.791087 
L 270.842333 174.748 
L 282.236948 187.6372 
L 283.04744 188.575675 
L 293.402875 200.5264 
L 298.807936 206.894936 
L 304.371159 213.4156 
L 314.568432 225.596155 
L 315.165346 226.3048 
L 325.701488 239.194 
L 330.328928 244.977734 
L 336.067808 252.0832 
L 346.089424 264.696382 
L 346.310612 264.9724 
L 356.160112 277.8616 
z
" clip-path="url(#pe5a5372ef9)" style="fill: #39558c"/>
    <path d="M 235.765952 303.341317 
L 236.086529 303.64 
L 251.26439 303.64 
L 237.45071 290.7508 
L 235.765952 289.196813 
L 223.845273 277.8616 
L 220.005456 274.233158 
L 210.440598 264.9724 
L 204.24496 258.981614 
L 197.244217 252.0832 
L 188.484464 243.424852 
L 184.26428 239.194 
L 172.723968 227.543953 
L 171.508797 226.3048 
L 158.98632 213.4156 
L 156.963472 211.306386 
L 146.68883 200.5264 
L 141.202976 194.671285 
L 134.628279 187.6372 
L 125.44248 177.610277 
L 122.818558 174.748 
L 111.265329 161.8588 
L 109.681984 160.040402 
L 99.980519 148.9696 
L 93.921488 141.838855 
L 88.98745 136.0804 
L 78.295638 123.1912 
L 78.160992 123.020994 
L 67.958457 110.302 
L 62.400496 103.087344 
L 57.965598 97.4128 
L 48.362952 84.5236 
L 46.64 82.050124 
L 46.64 84.5236 
L 46.64 97.4128 
L 46.64 101.414992 
L 53.676813 110.302 
L 62.400496 120.950877 
L 64.216146 123.1912 
L 75.045825 136.0804 
L 78.160992 139.682155 
L 86.141212 148.9696 
L 93.921488 157.791853 
L 97.490053 161.8588 
L 109.079011 174.748 
L 109.681984 175.405674 
L 120.884941 187.6372 
L 125.44248 192.525231 
L 132.910863 200.5264 
L 141.202976 209.271754 
L 145.146247 213.4156 
L 156.963472 225.671105 
L 157.578537 226.3048 
L 170.204842 239.194 
L 172.723968 241.745398 
L 183.025281 252.0832 
L 188.484464 257.531666 
L 196.031643 264.9724 
L 204.24496 273.049196 
L 209.216019 277.8616 
L 220.005456 288.314086 
L 222.570304 290.7508 
z
M 361.84992 266.75922 
L 361.84992 264.9724 
L 361.84992 252.0832 
L 361.84992 250.034831 
L 352.797766 239.194 
L 346.089424 231.248624 
L 341.931995 226.3048 
L 330.950497 213.4156 
L 330.328928 212.696475 
L 319.822407 200.5264 
L 314.568432 194.507293 
L 308.572045 187.6372 
L 298.807936 176.579894 
L 297.187712 174.748 
L 285.649017 161.8588 
L 283.04744 158.979656 
L 273.949114 148.9696 
L 267.286944 141.704761 
L 262.083097 136.0804 
L 251.526448 124.762564 
L 250.041828 123.1912 
L 237.789988 110.302 
L 235.765952 108.182158 
L 225.300847 97.4128 
L 220.005456 91.980218 
L 212.569065 84.5236 
L 204.24496 76.182036 
L 199.57207 71.6344 
L 188.484464 60.816116 
L 186.282173 58.7452 
L 172.723968 45.911977 
L 172.662051 45.856 
L 156.963472 45.856 
L 156.87179 45.856 
L 156.963472 45.933585 
L 171.111325 58.7452 
L 172.723968 60.183355 
L 184.888305 71.6344 
L 188.484464 74.990225 
L 198.277131 84.5236 
L 204.24496 90.314548 
L 211.326273 97.4128 
L 220.005456 106.122262 
L 224.070244 110.302 
L 235.765952 122.380806 
L 236.536696 123.1912 
L 248.724956 136.0804 
L 251.526448 139.069776 
L 260.694395 148.9696 
L 267.286944 156.166972 
L 272.462547 161.8588 
L 283.04744 173.63755 
L 284.041387 174.748 
L 295.430343 187.6372 
L 298.807936 191.521237 
L 306.64865 200.5264 
L 314.568432 209.758616 
L 317.714031 213.4156 
L 328.622269 226.3048 
L 330.328928 228.365359 
L 339.355627 239.194 
L 346.089424 247.39213 
L 349.967162 252.0832 
L 360.43719 264.9724 
z
" clip-path="url(#pe5a5372ef9)" style="fill: #33628d"/>
    <path d="M 220.005456 302.397787 
L 221.308123 303.64 
L 235.765952 303.64 
L 236.086529 303.64 
L 235.765952 303.341317 
L 222.570304 290.7508 
L 220.005456 288.314086 
L 209.216019 277.8616 
L 204.24496 273.049196 
L 196.031643 264.9724 
L 188.484464 257.531666 
L 183.025281 252.0832 
L 172.723968 241.745398 
L 170.204842 239.194 
L 157.578537 226.3048 
L 156.963472 225.671105 
L 145.146247 213.4156 
L 141.202976 209.271754 
L 132.910863 200.5264 
L 125.44248 192.525231 
L 120.884941 187.6372 
L 109.681984 175.405674 
L 109.079011 174.748 
L 97.490053 161.8588 
L 93.921488 157.791853 
L 86.141212 148.9696 
L 78.160992 139.682155 
L 75.045825 136.0804 
L 64.216146 123.1912 
L 62.400496 120.950877 
L 53.676813 110.302 
L 46.64 101.414992 
L 46.64 110.302 
L 46.64 118.917502 
L 50.163094 123.1912 
L 61.1032 136.0804 
L 62.400496 137.569754 
L 72.276968 148.9696 
L 78.160992 155.609261 
L 83.676115 161.8588 
L 93.921488 173.22435 
L 95.2912 174.748 
L 107.101945 187.6372 
L 109.681984 190.408619 
L 119.104386 200.5264 
L 125.44248 207.23458 
L 131.294894 213.4156 
L 141.202976 223.74908 
L 143.66371 226.3048 
L 156.200932 239.194 
L 156.963472 239.972039 
L 168.907713 252.0832 
L 172.723968 255.927213 
L 181.779042 264.9724 
L 188.484464 271.640337 
L 194.807826 277.8616 
L 204.24496 287.125938 
L 207.986699 290.7508 
z
M 361.84992 250.034831 
L 361.84992 239.194 
L 361.84992 234.209019 
L 355.137265 226.3048 
L 346.089424 215.749718 
L 344.092481 213.4156 
L 332.934773 200.5264 
L 330.328928 197.544637 
L 321.664777 187.6372 
L 314.568432 179.593949 
L 310.284819 174.748 
L 298.807936 161.882832 
L 298.78642 161.8588 
L 287.14215 148.9696 
L 283.04744 144.469532 
L 275.359038 136.0804 
L 267.286944 127.332488 
L 263.427623 123.1912 
L 251.526448 110.497974 
L 251.340241 110.302 
L 239.043274 97.4128 
L 235.765952 93.989983 
L 226.544689 84.5236 
L 220.005456 77.825426 
L 213.829249 71.6344 
L 204.24496 62.030108 
L 200.877591 58.7452 
L 188.484464 46.629849 
L 187.666268 45.856 
L 172.723968 45.856 
L 172.662051 45.856 
L 172.723968 45.911977 
L 186.282173 58.7452 
L 188.484464 60.816116 
L 199.57207 71.6344 
L 204.24496 76.182036 
L 212.569065 84.5236 
L 220.005456 91.980218 
L 225.300847 97.4128 
L 235.765952 108.182158 
L 237.789988 110.302 
L 250.041828 123.1912 
L 251.526448 124.762564 
L 262.083097 136.0804 
L 267.286944 141.704761 
L 273.949114 148.9696 
L 283.04744 158.979656 
L 285.649017 161.8588 
L 297.187712 174.748 
L 298.807936 176.579894 
L 308.572045 187.6372 
L 314.568432 194.507293 
L 319.822407 200.5264 
L 330.328928 212.696475 
L 330.950497 213.4156 
L 341.931995 226.3048 
L 346.089424 231.248624 
L 352.797766 239.194 
z
" clip-path="url(#pe5a5372ef9)" style="fill: #2e6e8e"/>
    <path d="M 204.24496 301.214453 
L 206.747732 303.64 
L 220.005456 303.64 
L 221.308123 303.64 
L 220.005456 302.397787 
L 207.986699 290.7508 
L 204.24496 287.125938 
L 194.807826 277.8616 
L 188.484464 271.640337 
L 181.779042 264.9724 
L 172.723968 255.927213 
L 168.907713 252.0832 
L 156.963472 239.972039 
L 156.200932 239.194 
L 143.66371 226.3048 
L 141.202976 223.74908 
L 131.294894 213.4156 
L 125.44248 207.23458 
L 119.104386 200.5264 
L 109.681984 190.408619 
L 107.101945 187.6372 
L 95.2912 174.748 
L 93.921488 173.22435 
L 83.676115 161.8588 
L 78.160992 155.609261 
L 72.276968 148.9696 
L 62.400496 137.569754 
L 61.1032 136.0804 
L 50.163094 123.1912 
L 46.64 118.917502 
L 46.64 123.1912 
L 46.64 135.487376 
L 47.144391 136.0804 
L 58.381832 148.9696 
L 62.400496 153.486654 
L 69.822076 161.8588 
L 78.160992 171.089484 
L 81.457856 174.748 
L 93.277559 187.6372 
L 93.921488 188.329569 
L 105.263803 200.5264 
L 109.681984 205.214156 
L 117.421142 213.4156 
L 125.44248 221.815182 
L 129.741489 226.3048 
L 141.202976 238.151447 
L 142.216047 239.194 
L 154.838469 252.0832 
L 156.963472 254.238489 
L 167.609046 264.9724 
L 172.723968 270.101295 
L 180.521832 277.8616 
L 188.484464 285.75578 
L 193.570298 290.7508 
z
M 361.84992 234.209019 
L 361.84992 226.3048 
L 361.84992 218.862469 
L 357.16453 213.4156 
L 346.089424 200.639595 
L 345.991321 200.5264 
L 334.710351 187.6372 
L 330.328928 182.66511 
L 323.337525 174.748 
L 314.568432 164.887962 
L 311.865273 161.8588 
L 300.279796 148.9696 
L 298.807936 147.34146 
L 288.565455 136.0804 
L 283.04744 130.047765 
L 276.724902 123.1912 
L 267.286944 113.010086 
L 264.749962 110.302 
L 252.621718 97.4128 
L 251.526448 96.252346 
L 240.304605 84.5236 
L 235.765952 79.792993 
L 227.805591 71.6344 
L 220.005456 63.652884 
L 215.109422 58.7452 
L 204.24496 47.856002 
L 202.198889 45.856 
L 188.484464 45.856 
L 187.666268 45.856 
L 188.484464 46.629849 
L 200.877591 58.7452 
L 204.24496 62.030108 
L 213.829249 71.6344 
L 220.005456 77.825426 
L 226.544689 84.5236 
L 235.765952 93.989983 
L 239.043274 97.4128 
L 251.340241 110.302 
L 251.526448 110.497974 
L 263.427623 123.1912 
L 267.286944 127.332488 
L 275.359038 136.0804 
L 283.04744 144.469532 
L 287.14215 148.9696 
L 298.78642 161.8588 
L 298.807936 161.882832 
L 310.284819 174.748 
L 314.568432 179.593949 
L 321.664777 187.6372 
L 330.328928 197.544637 
L 332.934773 200.5264 
L 344.092481 213.4156 
L 346.089424 215.749718 
L 355.137265 226.3048 
z
" clip-path="url(#pe5a5372ef9)" style="fill: #29798e"/>
    <path d="M 188.484464 299.881825 
L 192.316694 303.64 
L 204.24496 303.64 
L 206.747732 303.64 
L 204.24496 301.214453 
L 193.570298 290.7508 
L 188.484464 285.75578 
L 180.521832 277.8616 
L 172.723968 270.101295 
L 167.609046 264.9724 
L 156.963472 254.238489 
L 154.838469 252.0832 
L 142.216047 239.194 
L 141.202976 238.151447 
L 129.741489 226.3048 
L 125.44248 221.815182 
L 117.421142 213.4156 
L 109.681984 205.214156 
L 105.263803 200.5264 
L 93.921488 188.329569 
L 93.277559 187.6372 
L 81.457856 174.748 
L 78.160992 171.089484 
L 69.822076 161.8588 
L 62.400496 153.486654 
L 58.381832 148.9696 
L 47.144391 136.0804 
L 46.64 135.487376 
L 46.64 136.0804 
L 46.64 148.9696 
L 46.64 151.420624 
L 55.927095 161.8588 
L 62.400496 169.011033 
L 67.581117 174.748 
L 78.160992 186.278246 
L 79.406361 187.6372 
L 91.385777 200.5264 
L 93.921488 203.221623 
L 103.518102 213.4156 
L 109.681984 219.889469 
L 115.800796 226.3048 
L 125.44248 236.312856 
L 128.226466 239.194 
L 140.787195 252.0832 
L 141.202976 252.50716 
L 153.479948 264.9724 
L 156.963472 268.487949 
L 166.303011 277.8616 
L 172.723968 284.275697 
L 179.250574 290.7508 
z
M 361.84992 218.862469 
L 361.84992 213.4156 
L 361.84992 203.825885 
L 358.983614 200.5264 
L 347.710014 187.6372 
L 346.089424 185.795471 
L 336.346268 174.748 
L 330.328928 167.962453 
L 324.898569 161.8588 
L 314.568432 150.313746 
L 313.360281 148.9696 
L 301.710328 136.0804 
L 298.807936 132.883727 
L 289.946738 123.1912 
L 283.04744 115.678175 
L 278.067129 110.302 
L 267.286944 98.712964 
L 266.064202 97.4128 
L 253.904808 84.5236 
L 251.526448 82.008868 
L 241.579693 71.6344 
L 235.765952 65.583367 
L 229.086752 58.7452 
L 220.005456 49.458601 
L 216.412095 45.856 
L 204.24496 45.856 
L 202.198889 45.856 
L 204.24496 47.856002 
L 215.109422 58.7452 
L 220.005456 63.652884 
L 227.805591 71.6344 
L 235.765952 79.792993 
L 240.304605 84.5236 
L 251.526448 96.252346 
L 252.621718 97.4128 
L 264.749962 110.302 
L 267.286944 113.010086 
L 276.724902 123.1912 
L 283.04744 130.047765 
L 288.565455 136.0804 
L 298.807936 147.34146 
L 300.279796 148.9696 
L 311.865273 161.8588 
L 314.568432 164.887962 
L 323.337525 174.748 
L 330.328928 182.66511 
L 334.710351 187.6372 
L 345.991321 200.5264 
L 346.089424 200.639595 
L 357.16453 213.4156 
z
" clip-path="url(#pe5a5372ef9)" style="fill: #25848e"/>
    <path d="M 172.723968 298.456357 
L 177.962521 303.64 
L 188.484464 303.64 
L 192.316694 303.64 
L 188.484464 299.881825 
L 179.250574 290.7508 
L 172.723968 284.275697 
L 166.303011 277.8616 
L 156.963472 268.487949 
L 153.479948 264.9724 
L 141.202976 252.50716 
L 140.787195 252.0832 
L 128.226466 239.194 
L 125.44248 236.312856 
L 115.800796 226.3048 
L 109.681984 219.889469 
L 103.518102 213.4156 
L 93.921488 203.221623 
L 91.385777 200.5264 
L 79.406361 187.6372 
L 78.160992 186.278246 
L 67.581117 174.748 
L 62.400496 169.011033 
L 55.927095 161.8588 
L 46.64 151.420624 
L 46.64 161.8588 
L 46.64 166.98716 
L 53.661003 174.748 
L 62.400496 184.26745 
L 65.490133 187.6372 
L 77.468228 200.5264 
L 78.160992 201.263708 
L 89.581347 213.4156 
L 93.921488 217.984378 
L 101.834286 226.3048 
L 109.681984 234.477296 
L 114.220614 239.194 
L 125.44248 250.756949 
L 126.73363 252.0832 
L 139.3662 264.9724 
L 141.202976 266.835499 
L 152.117923 277.8616 
L 156.963472 282.730949 
L 164.985132 290.7508 
z
M 361.84992 203.825885 
L 361.84992 200.5264 
L 361.84992 188.997139 
L 360.659456 187.6372 
L 349.311436 174.748 
L 346.089424 171.104527 
L 337.887062 161.8588 
L 330.328928 153.376907 
L 326.385167 148.9696 
L 314.798906 136.0804 
L 314.568432 135.824912 
L 303.101928 123.1912 
L 298.807936 118.477352 
L 291.304557 110.302 
L 283.04744 101.337056 
L 279.399544 97.4128 
L 267.37932 84.5236 
L 267.286944 84.424734 
L 255.198473 71.6344 
L 251.526448 67.757542 
L 242.873004 58.7452 
L 235.765952 51.355175 
L 230.391067 45.856 
L 220.005456 45.856 
L 216.412095 45.856 
L 220.005456 49.458601 
L 229.086752 58.7452 
L 235.765952 65.583367 
L 241.579693 71.6344 
L 251.526448 82.008868 
L 253.904808 84.5236 
L 266.064202 97.4128 
L 267.286944 98.712964 
L 278.067129 110.302 
L 283.04744 115.678175 
L 289.946738 123.1912 
L 298.807936 132.883727 
L 301.710328 136.0804 
L 313.360281 148.9696 
L 314.568432 150.313746 
L 324.898569 161.8588 
L 330.328928 167.962453 
L 336.346268 174.748 
L 346.089424 185.795471 
L 347.710014 187.6372 
L 358.983614 200.5264 
z
" clip-path="url(#pe5a5372ef9)" style="fill: #21918c"/>
    <path d="M 156.963472 296.975274 
L 163.651708 303.64 
L 172.723968 303.64 
L 177.962521 303.64 
L 172.723968 298.456357 
L 164.985132 290.7508 
L 156.963472 282.730949 
L 152.117923 277.8616 
L 141.202976 266.835499 
L 139.3662 264.9724 
L 126.73363 252.0832 
L 125.44248 250.756949 
L 114.220614 239.194 
L 109.681984 234.477296 
L 101.834286 226.3048 
L 93.921488 217.984378 
L 89.581347 213.4156 
L 78.160992 201.263708 
L 77.468228 200.5264 
L 65.490133 187.6372 
L 62.400496 184.26745 
L 53.661003 174.748 
L 46.64 166.98716 
L 46.64 174.748 
L 46.64 182.305774 
L 51.530947 187.6372 
L 62.400496 199.335834 
L 63.506053 200.5264 
L 75.607949 213.4156 
L 78.160992 216.10789 
L 87.836974 226.3048 
L 93.921488 232.657409 
L 100.191178 239.194 
L 109.681984 249.006383 
L 112.664678 252.0832 
L 125.251221 264.9724 
L 125.44248 265.167198 
L 137.944951 277.8616 
L 141.202976 281.151434 
L 150.74671 290.7508 
z
M 361.84992 188.997139 
L 361.84992 187.6372 
L 361.84992 174.748 
L 361.84992 174.313198 
L 350.831385 161.8588 
L 346.089424 156.517003 
L 339.363035 148.9696 
L 330.328928 138.868791 
L 327.822709 136.0804 
L 316.196561 123.1912 
L 314.568432 121.39116 
L 304.47131 110.302 
L 298.807936 104.100185 
L 292.652071 97.4128 
L 283.04744 87.007863 
L 280.732152 84.5236 
L 268.691976 71.6344 
L 267.286944 70.132674 
L 256.508167 58.7452 
L 251.526448 53.490915 
L 244.18831 45.856 
L 235.765952 45.856 
L 230.391067 45.856 
L 235.765952 51.355175 
L 242.873004 58.7452 
L 251.526448 67.757542 
L 255.198473 71.6344 
L 267.286944 84.424734 
L 267.37932 84.5236 
L 279.399544 97.4128 
L 283.04744 101.337056 
L 291.304557 110.302 
L 298.807936 118.477352 
L 303.101928 123.1912 
L 314.568432 135.824912 
L 314.798906 136.0804 
L 326.385167 148.9696 
L 330.328928 153.376907 
L 337.887062 161.8588 
L 346.089424 171.104527 
L 349.311436 174.748 
L 360.659456 187.6372 
z
" clip-path="url(#pe5a5372ef9)" style="fill: #1e9c89"/>
    <path d="M 141.202976 295.464129 
L 149.361704 303.64 
L 156.963472 303.64 
L 163.651708 303.64 
L 156.963472 296.975274 
L 150.74671 290.7508 
L 141.202976 281.151434 
L 137.944951 277.8616 
L 125.44248 265.167198 
L 125.251221 264.9724 
L 112.664678 252.0832 
L 109.681984 249.006383 
L 100.191178 239.194 
L 93.921488 232.657409 
L 87.836974 226.3048 
L 78.160992 216.10789 
L 75.607949 213.4156 
L 63.506053 200.5264 
L 62.400496 199.335834 
L 51.530947 187.6372 
L 46.64 182.305774 
L 46.64 187.6372 
L 46.64 197.44556 
L 49.499927 200.5264 
L 61.595927 213.4156 
L 62.400496 214.265247 
L 73.805406 226.3048 
L 78.160992 230.861697 
L 86.132985 239.194 
L 93.921488 247.268417 
L 98.573392 252.0832 
L 109.681984 263.497032 
L 111.121266 264.9724 
L 123.76946 277.8616 
L 125.44248 279.557665 
L 136.516896 290.7508 
z
M 361.84992 174.313198 
L 361.84992 161.8588 
L 361.84992 159.730963 
L 352.294991 148.9696 
L 346.089424 141.999272 
L 340.795781 136.0804 
L 330.328928 124.410386 
L 329.229378 123.1912 
L 317.573924 110.302 
L 314.568432 106.985667 
L 305.830798 97.4128 
L 298.807936 89.736125 
L 293.999127 84.5236 
L 283.04744 72.678376 
L 282.072622 71.6344 
L 270.018955 58.7452 
L 267.286944 55.827809 
L 257.838412 45.856 
L 251.526448 45.856 
L 244.18831 45.856 
L 251.526448 53.490915 
L 256.508167 58.7452 
L 267.286944 70.132674 
L 268.691976 71.6344 
L 280.732152 84.5236 
L 283.04744 87.007863 
L 292.652071 97.4128 
L 298.807936 104.100185 
L 304.47131 110.302 
L 314.568432 121.39116 
L 316.196561 123.1912 
L 327.822709 136.0804 
L 330.328928 138.868791 
L 339.363035 148.9696 
L 346.089424 156.517003 
L 350.831385 161.8588 
z
" clip-path="url(#pe5a5372ef9)" style="fill: #22a785"/>
    <path d="M 125.44248 293.941018 
L 135.076715 303.64 
L 141.202976 303.64 
L 149.361704 303.64 
L 141.202976 295.464129 
L 136.516896 290.7508 
L 125.44248 279.557665 
L 123.76946 277.8616 
L 111.121266 264.9724 
L 109.681984 263.497032 
L 98.573392 252.0832 
L 93.921488 247.268417 
L 86.132985 239.194 
L 78.160992 230.861697 
L 73.805406 226.3048 
L 62.400496 214.265247 
L 61.595927 213.4156 
L 49.499927 200.5264 
L 46.64 197.44556 
L 46.64 200.5264 
L 46.64 212.454838 
L 47.540951 213.4156 
L 59.737147 226.3048 
L 62.400496 229.095986 
L 72.042315 239.194 
L 78.160992 245.551596 
L 84.454636 252.0832 
L 93.921488 261.837583 
L 96.969274 264.9724 
L 109.581178 277.8616 
L 109.681984 277.964134 
L 122.282778 290.7508 
z
M 361.84992 159.730963 
L 361.84992 148.9696 
L 361.84992 145.210883 
L 353.720836 136.0804 
L 346.089424 127.526877 
L 342.201334 123.1912 
L 330.617223 110.302 
L 330.328928 109.981701 
L 318.942445 97.4128 
L 314.568432 92.593092 
L 307.189892 84.5236 
L 298.807936 75.372911 
L 295.353459 71.6344 
L 283.424009 58.7452 
L 283.04744 58.338644 
L 271.365299 45.856 
L 267.286944 45.856 
L 257.838412 45.856 
L 267.286944 55.827809 
L 270.018955 58.7452 
L 282.072622 71.6344 
L 283.04744 72.678376 
L 293.999127 84.5236 
L 298.807936 89.736125 
L 305.830798 97.4128 
L 314.568432 106.985667 
L 317.573924 110.302 
L 329.229378 123.1912 
L 330.328928 124.410386 
L 340.795781 136.0804 
L 346.089424 141.999272 
L 352.294991 148.9696 
z
" clip-path="url(#pe5a5372ef9)" style="fill: #2db27d"/>
    <path d="M 109.681984 292.419064 
L 120.785338 303.64 
L 125.44248 303.64 
L 135.076715 303.64 
L 125.44248 293.941018 
L 122.282778 290.7508 
L 109.681984 277.964134 
L 109.581178 277.8616 
L 96.969274 264.9724 
L 93.921488 261.837583 
L 84.454636 252.0832 
L 78.160992 245.551596 
L 72.042315 239.194 
L 62.400496 229.095986 
L 59.737147 226.3048 
L 47.540951 213.4156 
L 46.64 212.454838 
L 46.64 213.4156 
L 46.64 226.3048 
L 46.64 227.364309 
L 57.916461 239.194 
L 62.400496 243.861976 
L 70.304608 252.0832 
L 78.160992 260.197386 
L 82.790485 264.9724 
L 93.921488 276.380149 
L 95.369656 277.8616 
L 108.03503 290.7508 
z
M 361.84992 145.210883 
L 361.84992 136.0804 
L 361.84992 130.73131 
L 355.123153 123.1912 
L 346.089424 113.081341 
L 343.592052 110.302 
L 331.992107 97.4128 
L 330.328928 95.566777 
L 320.31118 84.5236 
L 314.568432 78.201426 
L 308.556221 71.6344 
L 298.807936 61.000797 
L 296.721406 58.7452 
L 284.786145 45.856 
L 283.04744 45.856 
L 271.365299 45.856 
L 283.04744 58.338644 
L 283.424009 58.7452 
L 295.353459 71.6344 
L 298.807936 75.372911 
L 307.189892 84.5236 
L 314.568432 92.593092 
L 318.942445 97.4128 
L 330.328928 109.981701 
L 330.617223 110.302 
L 342.201334 123.1912 
L 346.089424 127.526877 
L 353.720836 136.0804 
z
" clip-path="url(#pe5a5372ef9)" style="fill: #3fbc73"/>
    <path d="M 93.921488 290.907973 
L 106.479126 303.64 
L 109.681984 303.64 
L 120.785338 303.64 
L 109.681984 292.419064 
L 108.03503 290.7508 
L 95.369656 277.8616 
L 93.921488 276.380149 
L 82.790485 264.9724 
L 78.160992 260.197386 
L 70.304608 252.0832 
L 62.400496 243.861976 
L 57.916461 239.194 
L 46.64 227.364309 
L 46.64 239.194 
L 46.64 242.203888 
L 56.120468 252.0832 
L 62.400496 258.582494 
L 68.581133 264.9724 
L 78.160992 274.814344 
L 81.131358 277.8616 
L 93.766758 290.7508 
z
M 361.84992 130.73131 
L 361.84992 123.1912 
L 361.84992 116.27541 
L 356.513195 110.302 
L 346.089424 98.648204 
L 344.977792 97.4128 
L 333.368219 84.5236 
L 330.328928 81.151999 
L 321.687555 71.6344 
L 314.568432 63.800915 
L 309.936139 58.7452 
L 298.807936 46.611729 
L 298.108367 45.856 
L 284.786145 45.856 
L 296.721406 58.7452 
L 298.807936 61.000797 
L 308.556221 71.6344 
L 314.568432 78.201426 
L 320.31118 84.5236 
L 330.328928 95.566777 
L 331.992107 97.4128 
L 343.592052 110.302 
L 346.089424 113.081341 
L 355.123153 123.1912 
z
" clip-path="url(#pe5a5372ef9)" style="fill: #56c667"/>
    <path d="M 93.921488 303.64 
L 106.479126 303.64 
L 93.921488 290.907973 
L 93.766758 290.7508 
L 81.131358 277.8616 
L 78.160992 274.814344 
L 68.581133 264.9724 
L 62.400496 258.582494 
L 56.120468 252.0832 
L 46.64 242.203888 
L 46.64 252.0832 
L 46.64 256.997347 
L 54.338343 264.9724 
L 62.400496 273.27269 
L 66.862795 277.8616 
L 78.160992 289.414596 
L 79.469679 290.7508 
L 92.151705 303.64 
z
M 361.84992 116.27541 
L 361.84992 110.302 
L 361.84992 101.829682 
L 357.900133 97.4128 
L 346.365128 84.5236 
L 346.089424 84.215588 
L 334.752722 71.6344 
L 330.328928 66.727761 
L 323.077848 58.7452 
L 314.568432 49.383362 
L 311.335121 45.856 
L 298.807936 45.856 
L 298.108367 45.856 
L 298.807936 46.611729 
L 309.936139 58.7452 
L 314.568432 63.800915 
L 321.687555 71.6344 
L 330.328928 81.151999 
L 333.368219 84.5236 
L 344.977792 97.4128 
L 346.089424 98.648204 
L 356.513195 110.302 
z
" clip-path="url(#pe5a5372ef9)" style="fill: #73d056"/>
    <path d="M 78.160992 303.64 
L 92.151705 303.64 
L 79.469679 290.7508 
L 78.160992 289.414596 
L 66.862795 277.8616 
L 62.400496 273.27269 
L 54.338343 264.9724 
L 46.64 256.997347 
L 46.64 264.9724 
L 46.64 271.759613 
L 52.561123 277.8616 
L 62.400496 287.944777 
L 65.141984 290.7508 
L 77.798183 303.64 
z
M 361.84992 101.829682 
L 361.84992 97.4128 
L 361.84992 87.38298 
L 359.291645 84.5236 
L 347.755942 71.6344 
L 346.089424 69.772294 
L 336.151764 58.7452 
L 330.328928 52.285857 
L 324.487532 45.856 
L 314.568432 45.856 
L 311.335121 45.856 
L 314.568432 49.383362 
L 323.077848 58.7452 
L 330.328928 66.727761 
L 334.752722 71.6344 
L 346.089424 84.215588 
L 346.365128 84.5236 
L 357.900133 97.4128 
z
" clip-path="url(#pe5a5372ef9)" style="fill: #90d743"/>
    <path d="M 62.400496 302.608832 
L 63.412178 303.64 
L 77.798183 303.64 
L 65.141984 290.7508 
L 62.400496 287.944777 
L 52.561123 277.8616 
L 46.64 271.759613 
L 46.64 277.8616 
L 46.64 286.502884 
L 50.781218 290.7508 
z
M 361.84992 87.38298 
L 361.84992 84.5236 
L 361.84992 72.925843 
L 360.694327 71.6344 
L 349.162146 58.7452 
L 346.089424 55.310281 
L 337.570761 45.856 
L 330.328928 45.856 
L 324.487532 45.856 
L 330.328928 52.285857 
L 336.151764 58.7452 
L 346.089424 69.772294 
L 347.755942 71.6344 
L 359.291645 84.5236 
z
" clip-path="url(#pe5a5372ef9)" style="fill: #b0dd2f"/>
    <path d="M 62.400496 303.64 
L 63.412178 303.64 
L 62.400496 302.608832 
L 50.781218 290.7508 
L 46.64 286.502884 
L 46.64 290.7508 
L 46.64 301.237336 
L 48.99206 303.64 
z
M 361.84992 72.925843 
L 361.84992 71.6344 
L 361.84992 58.7452 
L 361.84992 58.449548 
L 350.589067 45.856 
L 346.089424 45.856 
L 337.570761 45.856 
L 346.089424 55.310281 
L 349.162146 58.7452 
L 360.694327 71.6344 
z
" clip-path="url(#pe5a5372ef9)" style="fill: #d0e11c"/>
    <path d="M 46.64 301.237336 
L 46.64 303.64 
L 48.99206 303.64 
z
M 361.84992 58.449548 
L 361.84992 45.856 
L 350.589067 45.856 
z
" clip-path="url(#pe5a5372ef9)" style="fill: #efe51c"/>
   </g>
   <g id="PathCollection_1">
    <defs>
     <path id="m032fd1b1b7" d="M 0 3 
C 0.795609 3 1.55874 2.683901 2.12132 2.12132 
C 2.683901 1.55874 3 0.795609 3 0 
C 3 -0.795609 2.683901 -1.55874 2.12132 -2.12132 
C 1.55874 -2.683901 0.795609 -3 0 -3 
C -0.795609 -3 -1.55874 -2.683901 -2.12132 -2.12132 
C -2.683901 -1.55874 -3 -0.795609 -3 0 
C -3 0.795609 -2.683901 1.55874 -2.12132 2.12132 
C -1.55874 2.683901 -0.795609 3 0 3 
z
" style="stroke: #ff0000"/>
    </defs>
    <g clip-path="url(#pe5a5372ef9)">
     <use xlink:href="#m032fd1b1b7" x="290.927688" y="190.8595" style="fill: #ff0000; stroke: #ff0000"/>
    </g>
   </g>
   <g id="matplotlib.axis_1">
    <g id="xtick_1">
     <g id="line2d_1">
      <defs>
       <path id="me596a18048" d="M 0 0 
L 0 3.5 
" style="stroke: #000000; stroke-width: 0.8"/>
      </defs>
      <g>
       <use xlink:href="#me596a18048" x="46.64" y="303.64" style="stroke: #000000; stroke-width: 0.8"/>
      </g>
     </g>
     <g id="text_1">
      <!-- −4 -->
      <g transform="translate(39.268906 318.238437) scale(0.1 -0.1)">
       <defs>
        <path id="DejaVuSans-2212" d="M 678 2272 
L 4684 2272 
L 4684 1741 
L 678 1741 
L 678 2272 
z
" transform="scale(0.015625)"/>
        <path id="DejaVuSans-34" d="M 2419 4116 
L 825 1625 
L 2419 1625 
L 2419 4116 
z
M 2253 4666 
L 3047 4666 
L 3047 1625 
L 3713 1625 
L 3713 1100 
L 3047 1100 
L 3047 0 
L 2419 0 
L 2419 1100 
L 313 1100 
L 313 1709 
L 2253 4666 
z
" transform="scale(0.015625)"/>
       </defs>
       <use xlink:href="#DejaVuSans-2212"/>
       <use xlink:href="#DejaVuSans-34" transform="translate(83.789062 0)"/>
      </g>
     </g>
    </g>
    <g id="xtick_2">
     <g id="line2d_2">
      <g>
       <use xlink:href="#me596a18048" x="86.04124" y="303.64" style="stroke: #000000; stroke-width: 0.8"/>
      </g>
     </g>
     <g id="text_2">
      <!-- −3 -->
      <g transform="translate(78.670146 318.238437) scale(0.1 -0.1)">
       <defs>
        <path id="DejaVuSans-33" d="M 2597 2516 
Q 3050 2419 3304 2112 
Q 3559 1806 3559 1356 
Q 3559 666 3084 287 
Q 2609 -91 1734 -91 
Q 1441 -91 1130 -33 
Q 819 25 488 141 
L 488 750 
Q 750 597 1062 519 
Q 1375 441 1716 441 
Q 2309 441 2620 675 
Q 2931 909 2931 1356 
Q 2931 1769 2642 2001 
Q 2353 2234 1838 2234 
L 1294 2234 
L 1294 2753 
L 1863 2753 
Q 2328 2753 2575 2939 
Q 2822 3125 2822 3475 
Q 2822 3834 2567 4026 
Q 2313 4219 1838 4219 
Q 1578 4219 1281 4162 
Q 984 4106 628 3988 
L 628 4550 
Q 988 4650 1302 4700 
Q 1616 4750 1894 4750 
Q 2613 4750 3031 4423 
Q 3450 4097 3450 3541 
Q 3450 3153 3228 2886 
Q 3006 2619 2597 2516 
z
" transform="scale(0.015625)"/>
       </defs>
       <use xlink:href="#DejaVuSans-2212"/>
       <use xlink:href="#DejaVuSans-33" transform="translate(83.789062 0)"/>
      </g>
     </g>
    </g>
    <g id="xtick_3">
     <g id="line2d_3">
      <g>
       <use xlink:href="#me596a18048" x="125.44248" y="303.64" style="stroke: #000000; stroke-width: 0.8"/>
      </g>
     </g>
     <g id="text_3">
      <!-- −2 -->
      <g transform="translate(118.071386 318.238437) scale(0.1 -0.1)">
       <defs>
        <path id="DejaVuSans-32" d="M 1228 531 
L 3431 531 
L 3431 0 
L 469 0 
L 469 531 
Q 828 903 1448 1529 
Q 2069 2156 2228 2338 
Q 2531 2678 2651 2914 
Q 2772 3150 2772 3378 
Q 2772 3750 2511 3984 
Q 2250 4219 1831 4219 
Q 1534 4219 1204 4116 
Q 875 4013 500 3803 
L 500 4441 
Q 881 4594 1212 4672 
Q 1544 4750 1819 4750 
Q 2544 4750 2975 4387 
Q 3406 4025 3406 3419 
Q 3406 3131 3298 2873 
Q 3191 2616 2906 2266 
Q 2828 2175 2409 1742 
Q 1991 1309 1228 531 
z
" transform="scale(0.015625)"/>
       </defs>
       <use xlink:href="#DejaVuSans-2212"/>
       <use xlink:href="#DejaVuSans-32" transform="translate(83.789062 0)"/>
      </g>
     </g>
    </g>
    <g id="xtick_4">
     <g id="line2d_4">
      <g>
       <use xlink:href="#me596a18048" x="164.84372" y="303.64" style="stroke: #000000; stroke-width: 0.8"/>
      </g>
     </g>
     <g id="text_4">
      <!-- −1 -->
      <g transform="translate(157.472626 318.238437) scale(0.1 -0.1)">
       <defs>
        <path id="DejaVuSans-31" d="M 794 531 
L 1825 531 
L 1825 4091 
L 703 3866 
L 703 4441 
L 1819 4666 
L 2450 4666 
L 2450 531 
L 3481 531 
L 3481 0 
L 794 0 
L 794 531 
z
" transform="scale(0.015625)"/>
       </defs>
       <use xlink:href="#DejaVuSans-2212"/>
       <use xlink:href="#DejaVuSans-31" transform="translate(83.789062 0)"/>
      </g>
     </g>
    </g>
    <g id="xtick_5">
     <g id="line2d_5">
      <g>
       <use xlink:href="#me596a18048" x="204.24496" y="303.64" style="stroke: #000000; stroke-width: 0.8"/>
      </g>
     </g>
     <g id="text_5">
      <!-- 0 -->
      <g transform="translate(201.06371 318.238437) scale(0.1 -0.1)">
       <defs>
        <path id="DejaVuSans-30" d="M 2034 4250 
Q 1547 4250 1301 3770 
Q 1056 3291 1056 2328 
Q 1056 1369 1301 889 
Q 1547 409 2034 409 
Q 2525 409 2770 889 
Q 3016 1369 3016 2328 
Q 3016 3291 2770 3770 
Q 2525 4250 2034 4250 
z
M 2034 4750 
Q 2819 4750 3233 4129 
Q 3647 3509 3647 2328 
Q 3647 1150 3233 529 
Q 2819 -91 2034 -91 
Q 1250 -91 836 529 
Q 422 1150 422 2328 
Q 422 3509 836 4129 
Q 1250 4750 2034 4750 
z
" transform="scale(0.015625)"/>
       </defs>
       <use xlink:href="#DejaVuSans-30"/>
      </g>
     </g>
    </g>
    <g id="xtick_6">
     <g id="line2d_6">
      <g>
       <use xlink:href="#me596a18048" x="243.6462" y="303.64" style="stroke: #000000; stroke-width: 0.8"/>
      </g>
     </g>
     <g id="text_6">
      <!-- 1 -->
      <g transform="translate(240.46495 318.238437) scale(0.1 -0.1)">
       <use xlink:href="#DejaVuSans-31"/>
      </g>
     </g>
    </g>
    <g id="xtick_7">
     <g id="line2d_7">
      <g>
       <use xlink:href="#me596a18048" x="283.04744" y="303.64" style="stroke: #000000; stroke-width: 0.8"/>
      </g>
     </g>
     <g id="text_7">
      <!-- 2 -->
      <g transform="translate(279.86619 318.238437) scale(0.1 -0.1)">
       <use xlink:href="#DejaVuSans-32"/>
      </g>
     </g>
    </g>
    <g id="xtick_8">
     <g id="line2d_8">
      <g>
       <use xlink:href="#me596a18048" x="322.44868" y="303.64" style="stroke: #000000; stroke-width: 0.8"/>
      </g>
     </g>
     <g id="text_8">
      <!-- 3 -->
      <g transform="translate(319.26743 318.238437) scale(0.1 -0.1)">
       <use xlink:href="#DejaVuSans-33"/>
      </g>
     </g>
    </g>
    <g id="xtick_9">
     <g id="line2d_9">
      <g>
       <use xlink:href="#me596a18048" x="361.84992" y="303.64" style="stroke: #000000; stroke-width: 0.8"/>
      </g>
     </g>
     <g id="text_9">
      <!-- 4 -->
      <g transform="translate(358.66867 318.238437) scale(0.1 -0.1)">
       <use xlink:href="#DejaVuSans-34"/>
      </g>
     </g>
    </g>
    <g id="text_10">
     <!-- Relative distance in first direction -->
     <g transform="translate(120.30121 331.916562) scale(0.1 -0.1)">
      <defs>
       <path id="DejaVuSans-52" d="M 2841 2188 
Q 3044 2119 3236 1894 
Q 3428 1669 3622 1275 
L 4263 0 
L 3584 0 
L 2988 1197 
Q 2756 1666 2539 1819 
Q 2322 1972 1947 1972 
L 1259 1972 
L 1259 0 
L 628 0 
L 628 4666 
L 2053 4666 
Q 2853 4666 3247 4331 
Q 3641 3997 3641 3322 
Q 3641 2881 3436 2590 
Q 3231 2300 2841 2188 
z
M 1259 4147 
L 1259 2491 
L 2053 2491 
Q 2509 2491 2742 2702 
Q 2975 2913 2975 3322 
Q 2975 3731 2742 3939 
Q 2509 4147 2053 4147 
L 1259 4147 
z
" transform="scale(0.015625)"/>
       <path id="DejaVuSans-65" d="M 3597 1894 
L 3597 1613 
L 953 1613 
Q 991 1019 1311 708 
Q 1631 397 2203 397 
Q 2534 397 2845 478 
Q 3156 559 3463 722 
L 3463 178 
Q 3153 47 2828 -22 
Q 2503 -91 2169 -91 
Q 1331 -91 842 396 
Q 353 884 353 1716 
Q 353 2575 817 3079 
Q 1281 3584 2069 3584 
Q 2775 3584 3186 3129 
Q 3597 2675 3597 1894 
z
M 3022 2063 
Q 3016 2534 2758 2815 
Q 2500 3097 2075 3097 
Q 1594 3097 1305 2825 
Q 1016 2553 972 2059 
L 3022 2063 
z
" transform="scale(0.015625)"/>
       <path id="DejaVuSans-6c" d="M 603 4863 
L 1178 4863 
L 1178 0 
L 603 0 
L 603 4863 
z
" transform="scale(0.015625)"/>
       <path id="DejaVuSans-61" d="M 2194 1759 
Q 1497 1759 1228 1600 
Q 959 1441 959 1056 
Q 959 750 1161 570 
Q 1363 391 1709 391 
Q 2188 391 2477 730 
Q 2766 1069 2766 1631 
L 2766 1759 
L 2194 1759 
z
M 3341 1997 
L 3341 0 
L 2766 0 
L 2766 531 
Q 2569 213 2275 61 
Q 1981 -91 1556 -91 
Q 1019 -91 701 211 
Q 384 513 384 1019 
Q 384 1609 779 1909 
Q 1175 2209 1959 2209 
L 2766 2209 
L 2766 2266 
Q 2766 2663 2505 2880 
Q 2244 3097 1772 3097 
Q 1472 3097 1187 3025 
Q 903 2953 641 2809 
L 641 3341 
Q 956 3463 1253 3523 
Q 1550 3584 1831 3584 
Q 2591 3584 2966 3190 
Q 3341 2797 3341 1997 
z
" transform="scale(0.015625)"/>
       <path id="DejaVuSans-74" d="M 1172 4494 
L 1172 3500 
L 2356 3500 
L 2356 3053 
L 1172 3053 
L 1172 1153 
Q 1172 725 1289 603 
Q 1406 481 1766 481 
L 2356 481 
L 2356 0 
L 1766 0 
Q 1100 0 847 248 
Q 594 497 594 1153 
L 594 3053 
L 172 3053 
L 172 3500 
L 594 3500 
L 594 4494 
L 1172 4494 
z
" transform="scale(0.015625)"/>
       <path id="DejaVuSans-69" d="M 603 3500 
L 1178 3500 
L 1178 0 
L 603 0 
L 603 3500 
z
M 603 4863 
L 1178 4863 
L 1178 4134 
L 603 4134 
L 603 4863 
z
" transform="scale(0.015625)"/>
       <path id="DejaVuSans-76" d="M 191 3500 
L 800 3500 
L 1894 563 
L 2988 3500 
L 3597 3500 
L 2284 0 
L 1503 0 
L 191 3500 
z
" transform="scale(0.015625)"/>
       <path id="DejaVuSans-20" transform="scale(0.015625)"/>
       <path id="DejaVuSans-64" d="M 2906 2969 
L 2906 4863 
L 3481 4863 
L 3481 0 
L 2906 0 
L 2906 525 
Q 2725 213 2448 61 
Q 2172 -91 1784 -91 
Q 1150 -91 751 415 
Q 353 922 353 1747 
Q 353 2572 751 3078 
Q 1150 3584 1784 3584 
Q 2172 3584 2448 3432 
Q 2725 3281 2906 2969 
z
M 947 1747 
Q 947 1113 1208 752 
Q 1469 391 1925 391 
Q 2381 391 2643 752 
Q 2906 1113 2906 1747 
Q 2906 2381 2643 2742 
Q 2381 3103 1925 3103 
Q 1469 3103 1208 2742 
Q 947 2381 947 1747 
z
" transform="scale(0.015625)"/>
       <path id="DejaVuSans-73" d="M 2834 3397 
L 2834 2853 
Q 2591 2978 2328 3040 
Q 2066 3103 1784 3103 
Q 1356 3103 1142 2972 
Q 928 2841 928 2578 
Q 928 2378 1081 2264 
Q 1234 2150 1697 2047 
L 1894 2003 
Q 2506 1872 2764 1633 
Q 3022 1394 3022 966 
Q 3022 478 2636 193 
Q 2250 -91 1575 -91 
Q 1294 -91 989 -36 
Q 684 19 347 128 
L 347 722 
Q 666 556 975 473 
Q 1284 391 1588 391 
Q 1994 391 2212 530 
Q 2431 669 2431 922 
Q 2431 1156 2273 1281 
Q 2116 1406 1581 1522 
L 1381 1569 
Q 847 1681 609 1914 
Q 372 2147 372 2553 
Q 372 3047 722 3315 
Q 1072 3584 1716 3584 
Q 2034 3584 2315 3537 
Q 2597 3491 2834 3397 
z
" transform="scale(0.015625)"/>
       <path id="DejaVuSans-6e" d="M 3513 2113 
L 3513 0 
L 2938 0 
L 2938 2094 
Q 2938 2591 2744 2837 
Q 2550 3084 2163 3084 
Q 1697 3084 1428 2787 
Q 1159 2491 1159 1978 
L 1159 0 
L 581 0 
L 581 3500 
L 1159 3500 
L 1159 2956 
Q 1366 3272 1645 3428 
Q 1925 3584 2291 3584 
Q 2894 3584 3203 3211 
Q 3513 2838 3513 2113 
z
" transform="scale(0.015625)"/>
       <path id="DejaVuSans-63" d="M 3122 3366 
L 3122 2828 
Q 2878 2963 2633 3030 
Q 2388 3097 2138 3097 
Q 1578 3097 1268 2742 
Q 959 2388 959 1747 
Q 959 1106 1268 751 
Q 1578 397 2138 397 
Q 2388 397 2633 464 
Q 2878 531 3122 666 
L 3122 134 
Q 2881 22 2623 -34 
Q 2366 -91 2075 -91 
Q 1284 -91 818 406 
Q 353 903 353 1747 
Q 353 2603 823 3093 
Q 1294 3584 2113 3584 
Q 2378 3584 2631 3529 
Q 2884 3475 3122 3366 
z
" transform="scale(0.015625)"/>
       <path id="DejaVuSans-66" d="M 2375 4863 
L 2375 4384 
L 1825 4384 
Q 1516 4384 1395 4259 
Q 1275 4134 1275 3809 
L 1275 3500 
L 2222 3500 
L 2222 3053 
L 1275 3053 
L 1275 0 
L 697 0 
L 697 3053 
L 147 3053 
L 147 3500 
L 697 3500 
L 697 3744 
Q 697 4328 969 4595 
Q 1241 4863 1831 4863 
L 2375 4863 
z
" transform="scale(0.015625)"/>
       <path id="DejaVuSans-72" d="M 2631 2963 
Q 2534 3019 2420 3045 
Q 2306 3072 2169 3072 
Q 1681 3072 1420 2755 
Q 1159 2438 1159 1844 
L 1159 0 
L 581 0 
L 581 3500 
L 1159 3500 
L 1159 2956 
Q 1341 3275 1631 3429 
Q 1922 3584 2338 3584 
Q 2397 3584 2469 3576 
Q 2541 3569 2628 3553 
L 2631 2963 
z
" transform="scale(0.015625)"/>
       <path id="DejaVuSans-6f" d="M 1959 3097 
Q 1497 3097 1228 2736 
Q 959 2375 959 1747 
Q 959 1119 1226 758 
Q 1494 397 1959 397 
Q 2419 397 2687 759 
Q 2956 1122 2956 1747 
Q 2956 2369 2687 2733 
Q 2419 3097 1959 3097 
z
M 1959 3584 
Q 2709 3584 3137 3096 
Q 3566 2609 3566 1747 
Q 3566 888 3137 398 
Q 2709 -91 1959 -91 
Q 1206 -91 779 398 
Q 353 888 353 1747 
Q 353 2609 779 3096 
Q 1206 3584 1959 3584 
z
" transform="scale(0.015625)"/>
      </defs>
      <use xlink:href="#DejaVuSans-52"/>
      <use xlink:href="#DejaVuSans-65" transform="translate(64.982422 0)"/>
      <use xlink:href="#DejaVuSans-6c" transform="translate(126.505859 0)"/>
      <use xlink:href="#DejaVuSans-61" transform="translate(154.289062 0)"/>
      <use xlink:href="#DejaVuSans-74" transform="translate(215.568359 0)"/>
      <use xlink:href="#DejaVuSans-69" transform="translate(254.777344 0)"/>
      <use xlink:href="#DejaVuSans-76" transform="translate(282.560547 0)"/>
      <use xlink:href="#DejaVuSans-65" transform="translate(341.740234 0)"/>
      <use xlink:href="#DejaVuSans-20" transform="translate(403.263672 0)"/>
      <use xlink:href="#DejaVuSans-64" transform="translate(435.050781 0)"/>
      <use xlink:href="#DejaVuSans-69" transform="translate(498.527344 0)"/>
      <use xlink:href="#DejaVuSans-73" transform="translate(526.310547 0)"/>
      <use xlink:href="#DejaVuSans-74" transform="translate(578.410156 0)"/>
      <use xlink:href="#DejaVuSans-61" transform="translate(617.619141 0)"/>
      <use xlink:href="#DejaVuSans-6e" transform="translate(678.898438 0)"/>
      <use xlink:href="#DejaVuSans-63" transform="translate(742.277344 0)"/>
      <use xlink:href="#DejaVuSans-65" transform="translate(797.257812 0)"/>
      <use xlink:href="#DejaVuSans-20" transform="translate(858.78125 0)"/>
      <use xlink:href="#DejaVuSans-69" transform="translate(890.568359 0)"/>
      <use xlink:href="#DejaVuSans-6e" transform="translate(918.351562 0)"/>
      <use xlink:href="#DejaVuSans-20" transform="translate(981.730469 0)"/>
      <use xlink:href="#DejaVuSans-66" transform="translate(1013.517578 0)"/>
      <use xlink:href="#DejaVuSans-69" transform="translate(1048.722656 0)"/>
      <use xlink:href="#DejaVuSans-72" transform="translate(1076.505859 0)"/>
      <use xlink:href="#DejaVuSans-73" transform="translate(1117.619141 0)"/>
      <use xlink:href="#DejaVuSans-74" transform="translate(1169.71875 0)"/>
      <use xlink:href="#DejaVuSans-20" transform="translate(1208.927734 0)"/>
      <use xlink:href="#DejaVuSans-64" transform="translate(1240.714844 0)"/>
      <use xlink:href="#DejaVuSans-69" transform="translate(1304.191406 0)"/>
      <use xlink:href="#DejaVuSans-72" transform="translate(1331.974609 0)"/>
      <use xlink:href="#DejaVuSans-65" transform="translate(1370.837891 0)"/>
      <use xlink:href="#DejaVuSans-63" transform="translate(1432.361328 0)"/>
      <use xlink:href="#DejaVuSans-74" transform="translate(1487.341797 0)"/>
      <use xlink:href="#DejaVuSans-69" transform="translate(1526.550781 0)"/>
      <use xlink:href="#DejaVuSans-6f" transform="translate(1554.333984 0)"/>
      <use xlink:href="#DejaVuSans-6e" transform="translate(1615.515625 0)"/>
     </g>
    </g>
   </g>
   <g id="matplotlib.axis_2">
    <g id="ytick_1">
     <g id="line2d_10">
      <defs>
       <path id="m1ad715793c" d="M 0 0 
L -3.5 0 
" style="stroke: #000000; stroke-width: 0.8"/>
      </defs>
      <g>
       <use xlink:href="#m1ad715793c" x="46.64" y="303.64" style="stroke: #000000; stroke-width: 0.8"/>
      </g>
     </g>
     <g id="text_11">
      <!-- −4 -->
      <g transform="translate(24.897813 307.439219) scale(0.1 -0.1)">
       <use xlink:href="#DejaVuSans-2212"/>
       <use xlink:href="#DejaVuSans-34" transform="translate(83.789062 0)"/>
      </g>
     </g>
    </g>
    <g id="ytick_2">
     <g id="line2d_11">
      <g>
       <use xlink:href="#m1ad715793c" x="46.64" y="271.417" style="stroke: #000000; stroke-width: 0.8"/>
      </g>
     </g>
     <g id="text_12">
      <!-- −3 -->
      <g transform="translate(24.897813 275.216219) scale(0.1 -0.1)">
       <use xlink:href="#DejaVuSans-2212"/>
       <use xlink:href="#DejaVuSans-33" transform="translate(83.789062 0)"/>
      </g>
     </g>
    </g>
    <g id="ytick_3">
     <g id="line2d_12">
      <g>
       <use xlink:href="#m1ad715793c" x="46.64" y="239.194" style="stroke: #000000; stroke-width: 0.8"/>
      </g>
     </g>
     <g id="text_13">
      <!-- −2 -->
      <g transform="translate(24.897813 242.993219) scale(0.1 -0.1)">
       <use xlink:href="#DejaVuSans-2212"/>
       <use xlink:href="#DejaVuSans-32" transform="translate(83.789062 0)"/>
      </g>
     </g>
    </g>
    <g id="ytick_4">
     <g id="line2d_13">
      <g>
       <use xlink:href="#m1ad715793c" x="46.64" y="206.971" style="stroke: #000000; stroke-width: 0.8"/>
      </g>
     </g>
     <g id="text_14">
      <!-- −1 -->
      <g transform="translate(24.897813 210.770219) scale(0.1 -0.1)">
       <use xlink:href="#DejaVuSans-2212"/>
       <use xlink:href="#DejaVuSans-31" transform="translate(83.789062 0)"/>
      </g>
     </g>
    </g>
    <g id="ytick_5">
     <g id="line2d_14">
      <g>
       <use xlink:href="#m1ad715793c" x="46.64" y="174.748" style="stroke: #000000; stroke-width: 0.8"/>
      </g>
     </g>
     <g id="text_15">
      <!-- 0 -->
      <g transform="translate(33.2775 178.547219) scale(0.1 -0.1)">
       <use xlink:href="#DejaVuSans-30"/>
      </g>
     </g>
    </g>
    <g id="ytick_6">
     <g id="line2d_15">
      <g>
       <use xlink:href="#m1ad715793c" x="46.64" y="142.525" style="stroke: #000000; stroke-width: 0.8"/>
      </g>
     </g>
     <g id="text_16">
      <!-- 1 -->
      <g transform="translate(33.2775 146.324219) scale(0.1 -0.1)">
       <use xlink:href="#DejaVuSans-31"/>
      </g>
     </g>
    </g>
    <g id="ytick_7">
     <g id="line2d_16">
      <g>
       <use xlink:href="#m1ad715793c" x="46.64" y="110.302" style="stroke: #000000; stroke-width: 0.8"/>
      </g>
     </g>
     <g id="text_17">
      <!-- 2 -->
      <g transform="translate(33.2775 114.101219) scale(0.1 -0.1)">
       <use xlink:href="#DejaVuSans-32"/>
      </g>
     </g>
    </g>
    <g id="ytick_8">
     <g id="line2d_17">
      <g>
       <use xlink:href="#m1ad715793c" x="46.64" y="78.079" style="stroke: #000000; stroke-width: 0.8"/>
      </g>
     </g>
     <g id="text_18">
      <!-- 3 -->
      <g transform="translate(33.2775 81.878219) scale(0.1 -0.1)">
       <use xlink:href="#DejaVuSans-33"/>
      </g>
     </g>
    </g>
    <g id="ytick_9">
     <g id="line2d_18">
      <g>
       <use xlink:href="#m1ad715793c" x="46.64" y="45.856" style="stroke: #000000; stroke-width: 0.8"/>
      </g>
     </g>
     <g id="text_19">
      <!-- 4 -->
      <g transform="translate(33.2775 49.655219) scale(0.1 -0.1)">
       <use xlink:href="#DejaVuSans-34"/>
      </g>
     </g>
    </g>
    <g id="text_20">
     <!-- Relative distance in second direction -->
     <g transform="translate(18.818125 266.755031) rotate(-90) scale(0.1 -0.1)">
      <use xlink:href="#DejaVuSans-52"/>
      <use xlink:href="#DejaVuSans-65" transform="translate(64.982422 0)"/>
      <use xlink:href="#DejaVuSans-6c" transform="translate(126.505859 0)"/>
      <use xlink:href="#DejaVuSans-61" transform="translate(154.289062 0)"/>
      <use xlink:href="#DejaVuSans-74" transform="translate(215.568359 0)"/>
      <use xlink:href="#DejaVuSans-69" transform="translate(254.777344 0)"/>
      <use xlink:href="#DejaVuSans-76" transform="translate(282.560547 0)"/>
      <use xlink:href="#DejaVuSans-65" transform="translate(341.740234 0)"/>
      <use xlink:href="#DejaVuSans-20" transform="translate(403.263672 0)"/>
      <use xlink:href="#DejaVuSans-64" transform="translate(435.050781 0)"/>
      <use xlink:href="#DejaVuSans-69" transform="translate(498.527344 0)"/>
      <use xlink:href="#DejaVuSans-73" transform="translate(526.310547 0)"/>
      <use xlink:href="#DejaVuSans-74" transform="translate(578.410156 0)"/>
      <use xlink:href="#DejaVuSans-61" transform="translate(617.619141 0)"/>
      <use xlink:href="#DejaVuSans-6e" transform="translate(678.898438 0)"/>
      <use xlink:href="#DejaVuSans-63" transform="translate(742.277344 0)"/>
      <use xlink:href="#DejaVuSans-65" transform="translate(797.257812 0)"/>
      <use xlink:href="#DejaVuSans-20" transform="translate(858.78125 0)"/>
      <use xlink:href="#DejaVuSans-69" transform="translate(890.568359 0)"/>
      <use xlink:href="#DejaVuSans-6e" transform="translate(918.351562 0)"/>
      <use xlink:href="#DejaVuSans-20" transform="translate(981.730469 0)"/>
      <use xlink:href="#DejaVuSans-73" transform="translate(1013.517578 0)"/>
      <use xlink:href="#DejaVuSans-65" transform="translate(1065.617188 0)"/>
      <use xlink:href="#DejaVuSans-63" transform="translate(1127.140625 0)"/>
      <use xlink:href="#DejaVuSans-6f" transform="translate(1182.121094 0)"/>
      <use xlink:href="#DejaVuSans-6e" transform="translate(1243.302734 0)"/>
      <use xlink:href="#DejaVuSans-64" transform="translate(1306.681641 0)"/>
      <use xlink:href="#DejaVuSans-20" transform="translate(1370.158203 0)"/>
      <use xlink:href="#DejaVuSans-64" transform="translate(1401.945312 0)"/>
      <use xlink:href="#DejaVuSans-69" transform="translate(1465.421875 0)"/>
      <use xlink:href="#DejaVuSans-72" transform="translate(1493.205078 0)"/>
      <use xlink:href="#DejaVuSans-65" transform="translate(1532.068359 0)"/>
      <use xlink:href="#DejaVuSans-63" transform="translate(1593.591797 0)"/>
      <use xlink:href="#DejaVuSans-74" transform="translate(1648.572266 0)"/>
      <use xlink:href="#DejaVuSans-69" transform="translate(1687.78125 0)"/>
      <use xlink:href="#DejaVuSans-6f" transform="translate(1715.564453 0)"/>
      <use xlink:href="#DejaVuSans-6e" transform="translate(1776.746094 0)"/>
     </g>
    </g>
   </g>
   <g id="line2d_19">
    <path d="M 290.927688 190.8595 
L 289.178409 189.989453 
L 288.712839 189.923356 
L 286.344598 189.201583 
L 282.597756 188.268831 
L 281.080802 187.914913 
L 280.11697 187.684993 
L 275.838019 185.848814 
L 272.37718 184.247526 
L 270.243036 183.516662 
L 269.361421 183.48672 
L 268.867654 183.521596 
L 267.362558 183.951955 
L 265.800242 183.633796 
L 263.842761 183.098686 
L 260.240545 181.804329 
L 258.163415 181.054002 
L 255.49663 179.769679 
L 252.155167 178.092425 
L 249.532479 177.074751 
L 248.085956 176.477825 
L 243.858539 174.369557 
L 239.893233 172.584604 
L 238.920344 172.205402 
L 235.648982 170.722097 
L 234.300335 170.353373 
L 233.057051 170.273005 
L 232.124948 170.744286 
L 231.850589 170.974622 
L 231.424251 171.084473 
L 230.848761 171.475687 
L 230.002346 172.286462 
L 229.071039 172.3076 
L 228.066284 172.07922 
L 224.227125 170.968036 
L 223.049992 170.652413 
L 221.373899 170.559788 
L 220.675743 170.85844 
L 220.123368 170.950483 
L 219.526683 171.25919 
L 219.393944 171.41658 
L 216.225074 171.579712 
L 215.660617 171.711442 
L 215.092195 171.833845 
L 214.911114 171.981812 
L 213.435976 172.008474 
L 212.45782 171.898072 
L 211.592197 171.774732 
L 210.995082 171.756898 
L 210.372187 171.73395 
L 209.103762 171.610185 
L 208.413874 171.566613 
L 205.840434 171.323573 
L 205.072166 171.38905 
L 204.367456 171.536045 
L 203.675655 172.326199 
L 203.558449 172.800762 
L 203.388016 173.211884 
L 201.916476 174.59513 
L 201.32524 174.609404 
L 200.502255 174.424674 
L 199.7782 174.299244 
L 198.869797 174.5678 
L 198.656872 174.8629 
L 198.437466 175.471409 
L 197.93054 175.760925 
L 197.109196 175.797696 
L 196.857721 176.231489 
L 196.143514 177.109125 
L 196.10423 177.22148 
L 196.10423 177.22148 
" clip-path="url(#pe5a5372ef9)" style="fill: none; stroke: #ff0000; stroke-width: 1.5; stroke-linecap: square"/>
   </g>
   <g id="patch_3">
    <path d="M 46.64 303.64 
L 46.64 45.856 
" style="fill: none; stroke: #000000; stroke-width: 0.8; stroke-linejoin: miter; stroke-linecap: square"/>
   </g>
   <g id="patch_4">
    <path d="M 361.84992 303.64 
L 361.84992 45.856 
" style="fill: none; stroke: #000000; stroke-width: 0.8; stroke-linejoin: miter; stroke-linecap: square"/>
   </g>
   <g id="patch_5">
    <path d="M 46.64 303.64 
L 361.84992 303.64 
" style="fill: none; stroke: #000000; stroke-width: 0.8; stroke-linejoin: miter; stroke-linecap: square"/>
   </g>
   <g id="patch_6">
    <path d="M 46.64 45.856 
L 361.84992 45.856 
" style="fill: none; stroke: #000000; stroke-width: 0.8; stroke-linejoin: miter; stroke-linecap: square"/>
   </g>
   <g id="text_21">
    <!-- Relative error across two random directions -->
    <g transform="translate(73.143085 22.418625) scale(0.12 -0.12)">
     <defs>
      <path id="DejaVuSans-77" d="M 269 3500 
L 844 3500 
L 1563 769 
L 2278 3500 
L 2956 3500 
L 3675 769 
L 4391 3500 
L 4966 3500 
L 4050 0 
L 3372 0 
L 2619 2869 
L 1863 0 
L 1184 0 
L 269 3500 
z
" transform="scale(0.015625)"/>
      <path id="DejaVuSans-6d" d="M 3328 2828 
Q 3544 3216 3844 3400 
Q 4144 3584 4550 3584 
Q 5097 3584 5394 3201 
Q 5691 2819 5691 2113 
L 5691 0 
L 5113 0 
L 5113 2094 
Q 5113 2597 4934 2840 
Q 4756 3084 4391 3084 
Q 3944 3084 3684 2787 
Q 3425 2491 3425 1978 
L 3425 0 
L 2847 0 
L 2847 2094 
Q 2847 2600 2669 2842 
Q 2491 3084 2119 3084 
Q 1678 3084 1418 2786 
Q 1159 2488 1159 1978 
L 1159 0 
L 581 0 
L 581 3500 
L 1159 3500 
L 1159 2956 
Q 1356 3278 1631 3431 
Q 1906 3584 2284 3584 
Q 2666 3584 2933 3390 
Q 3200 3197 3328 2828 
z
" transform="scale(0.015625)"/>
     </defs>
     <use xlink:href="#DejaVuSans-52"/>
     <use xlink:href="#DejaVuSans-65" transform="translate(64.982422 0)"/>
     <use xlink:href="#DejaVuSans-6c" transform="translate(126.505859 0)"/>
     <use xlink:href="#DejaVuSans-61" transform="translate(154.289062 0)"/>
     <use xlink:href="#DejaVuSans-74" transform="translate(215.568359 0)"/>
     <use xlink:href="#DejaVuSans-69" transform="translate(254.777344 0)"/>
     <use xlink:href="#DejaVuSans-76" transform="translate(282.560547 0)"/>
     <use xlink:href="#DejaVuSans-65" transform="translate(341.740234 0)"/>
     <use xlink:href="#DejaVuSans-20" transform="translate(403.263672 0)"/>
     <use xlink:href="#DejaVuSans-65" transform="translate(435.050781 0)"/>
     <use xlink:href="#DejaVuSans-72" transform="translate(496.574219 0)"/>
     <use xlink:href="#DejaVuSans-72" transform="translate(535.9375 0)"/>
     <use xlink:href="#DejaVuSans-6f" transform="translate(574.800781 0)"/>
     <use xlink:href="#DejaVuSans-72" transform="translate(635.982422 0)"/>
     <use xlink:href="#DejaVuSans-20" transform="translate(677.095703 0)"/>
     <use xlink:href="#DejaVuSans-61" transform="translate(708.882812 0)"/>
     <use xlink:href="#DejaVuSans-63" transform="translate(770.162109 0)"/>
     <use xlink:href="#DejaVuSans-72" transform="translate(825.142578 0)"/>
     <use xlink:href="#DejaVuSans-6f" transform="translate(864.005859 0)"/>
     <use xlink:href="#DejaVuSans-73" transform="translate(925.1875 0)"/>
     <use xlink:href="#DejaVuSans-73" transform="translate(977.287109 0)"/>
     <use xlink:href="#DejaVuSans-20" transform="translate(1029.386719 0)"/>
     <use xlink:href="#DejaVuSans-74" transform="translate(1061.173828 0)"/>
     <use xlink:href="#DejaVuSans-77" transform="translate(1100.382812 0)"/>
     <use xlink:href="#DejaVuSans-6f" transform="translate(1182.169922 0)"/>
     <use xlink:href="#DejaVuSans-20" transform="translate(1243.351562 0)"/>
     <use xlink:href="#DejaVuSans-72" transform="translate(1275.138672 0)"/>
     <use xlink:href="#DejaVuSans-61" transform="translate(1316.251953 0)"/>
     <use xlink:href="#DejaVuSans-6e" transform="translate(1377.53125 0)"/>
     <use xlink:href="#DejaVuSans-64" transform="translate(1440.910156 0)"/>
     <use xlink:href="#DejaVuSans-6f" transform="translate(1504.386719 0)"/>
     <use xlink:href="#DejaVuSans-6d" transform="translate(1565.568359 0)"/>
     <use xlink:href="#DejaVuSans-20" transform="translate(1662.980469 0)"/>
     <use xlink:href="#DejaVuSans-64" transform="translate(1694.767578 0)"/>
     <use xlink:href="#DejaVuSans-69" transform="translate(1758.244141 0)"/>
     <use xlink:href="#DejaVuSans-72" transform="translate(1786.027344 0)"/>
     <use xlink:href="#DejaVuSans-65" transform="translate(1824.890625 0)"/>
     <use xlink:href="#DejaVuSans-63" transform="translate(1886.414062 0)"/>
     <use xlink:href="#DejaVuSans-74" transform="translate(1941.394531 0)"/>
     <use xlink:href="#DejaVuSans-69" transform="translate(1980.603516 0)"/>
     <use xlink:href="#DejaVuSans-6f" transform="translate(2008.386719 0)"/>
     <use xlink:href="#DejaVuSans-6e" transform="translate(2069.568359 0)"/>
     <use xlink:href="#DejaVuSans-73" transform="translate(2132.947266 0)"/>
    </g>
    <!-- in unknown parameters -->
    <g transform="translate(132.89746 35.856) scale(0.12 -0.12)">
     <defs>
      <path id="DejaVuSans-75" d="M 544 1381 
L 544 3500 
L 1119 3500 
L 1119 1403 
Q 1119 906 1312 657 
Q 1506 409 1894 409 
Q 2359 409 2629 706 
Q 2900 1003 2900 1516 
L 2900 3500 
L 3475 3500 
L 3475 0 
L 2900 0 
L 2900 538 
Q 2691 219 2414 64 
Q 2138 -91 1772 -91 
Q 1169 -91 856 284 
Q 544 659 544 1381 
z
M 1991 3584 
L 1991 3584 
z
" transform="scale(0.015625)"/>
      <path id="DejaVuSans-6b" d="M 581 4863 
L 1159 4863 
L 1159 1991 
L 2875 3500 
L 3609 3500 
L 1753 1863 
L 3688 0 
L 2938 0 
L 1159 1709 
L 1159 0 
L 581 0 
L 581 4863 
z
" transform="scale(0.015625)"/>
      <path id="DejaVuSans-70" d="M 1159 525 
L 1159 -1331 
L 581 -1331 
L 581 3500 
L 1159 3500 
L 1159 2969 
Q 1341 3281 1617 3432 
Q 1894 3584 2278 3584 
Q 2916 3584 3314 3078 
Q 3713 2572 3713 1747 
Q 3713 922 3314 415 
Q 2916 -91 2278 -91 
Q 1894 -91 1617 61 
Q 1341 213 1159 525 
z
M 3116 1747 
Q 3116 2381 2855 2742 
Q 2594 3103 2138 3103 
Q 1681 3103 1420 2742 
Q 1159 2381 1159 1747 
Q 1159 1113 1420 752 
Q 1681 391 2138 391 
Q 2594 391 2855 752 
Q 3116 1113 3116 1747 
z
" transform="scale(0.015625)"/>
     </defs>
     <use xlink:href="#DejaVuSans-69"/>
     <use xlink:href="#DejaVuSans-6e" transform="translate(27.783203 0)"/>
     <use xlink:href="#DejaVuSans-20" transform="translate(91.162109 0)"/>
     <use xlink:href="#DejaVuSans-75" transform="translate(122.949219 0)"/>
     <use xlink:href="#DejaVuSans-6e" transform="translate(186.328125 0)"/>
     <use xlink:href="#DejaVuSans-6b" transform="translate(249.707031 0)"/>
     <use xlink:href="#DejaVuSans-6e" transform="translate(307.617188 0)"/>
     <use xlink:href="#DejaVuSans-6f" transform="translate(370.996094 0)"/>
     <use xlink:href="#DejaVuSans-77" transform="translate(432.177734 0)"/>
     <use xlink:href="#DejaVuSans-6e" transform="translate(513.964844 0)"/>
     <use xlink:href="#DejaVuSans-20" transform="translate(577.34375 0)"/>
     <use xlink:href="#DejaVuSans-70" transform="translate(609.130859 0)"/>
     <use xlink:href="#DejaVuSans-61" transform="translate(672.607422 0)"/>
     <use xlink:href="#DejaVuSans-72" transform="translate(733.886719 0)"/>
     <use xlink:href="#DejaVuSans-61" transform="translate(775 0)"/>
     <use xlink:href="#DejaVuSans-6d" transform="translate(836.279297 0)"/>
     <use xlink:href="#DejaVuSans-65" transform="translate(933.691406 0)"/>
     <use xlink:href="#DejaVuSans-74" transform="translate(995.214844 0)"/>
     <use xlink:href="#DejaVuSans-65" transform="translate(1034.423828 0)"/>
     <use xlink:href="#DejaVuSans-72" transform="translate(1095.947266 0)"/>
     <use xlink:href="#DejaVuSans-73" transform="translate(1137.060547 0)"/>
    </g>
   </g>
  </g>
  <g id="axes_2">
   <g id="patch_7">
    <path d="M 381.55054 303.64 
L 394.43974 303.64 
L 394.43974 45.856 
L 381.55054 45.856 
z
" style="fill: #ffffff"/>
   </g>
   <g id="QuadMesh_1">
    <path d="M 381.55054 303.64 
L 394.43974 303.64 
L 394.43974 291.364571 
L 381.55054 291.364571 
L 381.55054 303.64 
" clip-path="url(#paa5545e68a)" style="fill: #460a5d"/>
    <path d="M 381.55054 291.364571 
L 394.43974 291.364571 
L 394.43974 279.089143 
L 381.55054 279.089143 
L 381.55054 291.364571 
" clip-path="url(#paa5545e68a)" style="fill: #481b6d"/>
    <path d="M 381.55054 279.089143 
L 394.43974 279.089143 
L 394.43974 266.813714 
L 381.55054 266.813714 
L 381.55054 279.089143 
" clip-path="url(#paa5545e68a)" style="fill: #472a7a"/>
    <path d="M 381.55054 266.813714 
L 394.43974 266.813714 
L 394.43974 254.538286 
L 381.55054 254.538286 
L 381.55054 266.813714 
" clip-path="url(#paa5545e68a)" style="fill: #443983"/>
    <path d="M 381.55054 254.538286 
L 394.43974 254.538286 
L 394.43974 242.262857 
L 381.55054 242.262857 
L 381.55054 254.538286 
" clip-path="url(#paa5545e68a)" style="fill: #3f4788"/>
    <path d="M 381.55054 242.262857 
L 394.43974 242.262857 
L 394.43974 229.987429 
L 381.55054 229.987429 
L 381.55054 242.262857 
" clip-path="url(#paa5545e68a)" style="fill: #39558c"/>
    <path d="M 381.55054 229.987429 
L 394.43974 229.987429 
L 394.43974 217.712 
L 381.55054 217.712 
L 381.55054 229.987429 
" clip-path="url(#paa5545e68a)" style="fill: #33628d"/>
    <path d="M 381.55054 217.712 
L 394.43974 217.712 
L 394.43974 205.436571 
L 381.55054 205.436571 
L 381.55054 217.712 
" clip-path="url(#paa5545e68a)" style="fill: #2e6e8e"/>
    <path d="M 381.55054 205.436571 
L 394.43974 205.436571 
L 394.43974 193.161143 
L 381.55054 193.161143 
L 381.55054 205.436571 
" clip-path="url(#paa5545e68a)" style="fill: #29798e"/>
    <path d="M 381.55054 193.161143 
L 394.43974 193.161143 
L 394.43974 180.885714 
L 381.55054 180.885714 
L 381.55054 193.161143 
" clip-path="url(#paa5545e68a)" style="fill: #25848e"/>
    <path d="M 381.55054 180.885714 
L 394.43974 180.885714 
L 394.43974 168.610286 
L 381.55054 168.610286 
L 381.55054 180.885714 
" clip-path="url(#paa5545e68a)" style="fill: #21918c"/>
    <path d="M 381.55054 168.610286 
L 394.43974 168.610286 
L 394.43974 156.334857 
L 381.55054 156.334857 
L 381.55054 168.610286 
" clip-path="url(#paa5545e68a)" style="fill: #1e9c89"/>
    <path d="M 381.55054 156.334857 
L 394.43974 156.334857 
L 394.43974 144.059429 
L 381.55054 144.059429 
L 381.55054 156.334857 
" clip-path="url(#paa5545e68a)" style="fill: #22a785"/>
    <path d="M 381.55054 144.059429 
L 394.43974 144.059429 
L 394.43974 131.784 
L 381.55054 131.784 
L 381.55054 144.059429 
" clip-path="url(#paa5545e68a)" style="fill: #2db27d"/>
    <path d="M 381.55054 131.784 
L 394.43974 131.784 
L 394.43974 119.508571 
L 381.55054 119.508571 
L 381.55054 131.784 
" clip-path="url(#paa5545e68a)" style="fill: #3fbc73"/>
    <path d="M 381.55054 119.508571 
L 394.43974 119.508571 
L 394.43974 107.233143 
L 381.55054 107.233143 
L 381.55054 119.508571 
" clip-path="url(#paa5545e68a)" style="fill: #56c667"/>
    <path d="M 381.55054 107.233143 
L 394.43974 107.233143 
L 394.43974 94.957714 
L 381.55054 94.957714 
L 381.55054 107.233143 
" clip-path="url(#paa5545e68a)" style="fill: #73d056"/>
    <path d="M 381.55054 94.957714 
L 394.43974 94.957714 
L 394.43974 82.682286 
L 381.55054 82.682286 
L 381.55054 94.957714 
" clip-path="url(#paa5545e68a)" style="fill: #90d743"/>
    <path d="M 381.55054 82.682286 
L 394.43974 82.682286 
L 394.43974 70.406857 
L 381.55054 70.406857 
L 381.55054 82.682286 
" clip-path="url(#paa5545e68a)" style="fill: #b0dd2f"/>
    <path d="M 381.55054 70.406857 
L 394.43974 70.406857 
L 394.43974 58.131429 
L 381.55054 58.131429 
L 381.55054 70.406857 
" clip-path="url(#paa5545e68a)" style="fill: #d0e11c"/>
    <path d="M 381.55054 58.131429 
L 394.43974 58.131429 
L 394.43974 45.856 
L 381.55054 45.856 
L 381.55054 58.131429 
" clip-path="url(#paa5545e68a)" style="fill: #efe51c"/>
   </g>
   <g id="matplotlib.axis_3"/>
   <g id="matplotlib.axis_4">
    <g id="ytick_10">
     <g id="line2d_20">
      <defs>
       <path id="m1a1c34aa4d" d="M 0 0 
L 3.5 0 
" style="stroke: #000000; stroke-width: 0.8"/>
      </defs>
      <g>
       <use xlink:href="#m1a1c34aa4d" x="394.43974" y="303.64" style="stroke: #000000; stroke-width: 0.8"/>
      </g>
     </g>
     <g id="text_22">
      <!-- 0.000 -->
      <g transform="translate(401.43974 307.439219) scale(0.1 -0.1)">
       <defs>
        <path id="DejaVuSans-2e" d="M 684 794 
L 1344 794 
L 1344 0 
L 684 0 
L 684 794 
z
" transform="scale(0.015625)"/>
       </defs>
       <use xlink:href="#DejaVuSans-30"/>
       <use xlink:href="#DejaVuSans-2e" transform="translate(63.623047 0)"/>
       <use xlink:href="#DejaVuSans-30" transform="translate(95.410156 0)"/>
       <use xlink:href="#DejaVuSans-30" transform="translate(159.033203 0)"/>
       <use xlink:href="#DejaVuSans-30" transform="translate(222.65625 0)"/>
      </g>
     </g>
    </g>
    <g id="ytick_11">
     <g id="line2d_21">
      <g>
       <use xlink:href="#m1a1c34aa4d" x="394.43974" y="266.813714" style="stroke: #000000; stroke-width: 0.8"/>
      </g>
     </g>
     <g id="text_23">
      <!-- 0.018 -->
      <g transform="translate(401.43974 270.612933) scale(0.1 -0.1)">
       <defs>
        <path id="DejaVuSans-38" d="M 2034 2216 
Q 1584 2216 1326 1975 
Q 1069 1734 1069 1313 
Q 1069 891 1326 650 
Q 1584 409 2034 409 
Q 2484 409 2743 651 
Q 3003 894 3003 1313 
Q 3003 1734 2745 1975 
Q 2488 2216 2034 2216 
z
M 1403 2484 
Q 997 2584 770 2862 
Q 544 3141 544 3541 
Q 544 4100 942 4425 
Q 1341 4750 2034 4750 
Q 2731 4750 3128 4425 
Q 3525 4100 3525 3541 
Q 3525 3141 3298 2862 
Q 3072 2584 2669 2484 
Q 3125 2378 3379 2068 
Q 3634 1759 3634 1313 
Q 3634 634 3220 271 
Q 2806 -91 2034 -91 
Q 1263 -91 848 271 
Q 434 634 434 1313 
Q 434 1759 690 2068 
Q 947 2378 1403 2484 
z
M 1172 3481 
Q 1172 3119 1398 2916 
Q 1625 2713 2034 2713 
Q 2441 2713 2670 2916 
Q 2900 3119 2900 3481 
Q 2900 3844 2670 4047 
Q 2441 4250 2034 4250 
Q 1625 4250 1398 4047 
Q 1172 3844 1172 3481 
z
" transform="scale(0.015625)"/>
       </defs>
       <use xlink:href="#DejaVuSans-30"/>
       <use xlink:href="#DejaVuSans-2e" transform="translate(63.623047 0)"/>
       <use xlink:href="#DejaVuSans-30" transform="translate(95.410156 0)"/>
       <use xlink:href="#DejaVuSans-31" transform="translate(159.033203 0)"/>
       <use xlink:href="#DejaVuSans-38" transform="translate(222.65625 0)"/>
      </g>
     </g>
    </g>
    <g id="ytick_12">
     <g id="line2d_22">
      <g>
       <use xlink:href="#m1a1c34aa4d" x="394.43974" y="229.987429" style="stroke: #000000; stroke-width: 0.8"/>
      </g>
     </g>
     <g id="text_24">
      <!-- 0.036 -->
      <g transform="translate(401.43974 233.786647) scale(0.1 -0.1)">
       <defs>
        <path id="DejaVuSans-36" d="M 2113 2584 
Q 1688 2584 1439 2293 
Q 1191 2003 1191 1497 
Q 1191 994 1439 701 
Q 1688 409 2113 409 
Q 2538 409 2786 701 
Q 3034 994 3034 1497 
Q 3034 2003 2786 2293 
Q 2538 2584 2113 2584 
z
M 3366 4563 
L 3366 3988 
Q 3128 4100 2886 4159 
Q 2644 4219 2406 4219 
Q 1781 4219 1451 3797 
Q 1122 3375 1075 2522 
Q 1259 2794 1537 2939 
Q 1816 3084 2150 3084 
Q 2853 3084 3261 2657 
Q 3669 2231 3669 1497 
Q 3669 778 3244 343 
Q 2819 -91 2113 -91 
Q 1303 -91 875 529 
Q 447 1150 447 2328 
Q 447 3434 972 4092 
Q 1497 4750 2381 4750 
Q 2619 4750 2861 4703 
Q 3103 4656 3366 4563 
z
" transform="scale(0.015625)"/>
       </defs>
       <use xlink:href="#DejaVuSans-30"/>
       <use xlink:href="#DejaVuSans-2e" transform="translate(63.623047 0)"/>
       <use xlink:href="#DejaVuSans-30" transform="translate(95.410156 0)"/>
       <use xlink:href="#DejaVuSans-33" transform="translate(159.033203 0)"/>
       <use xlink:href="#DejaVuSans-36" transform="translate(222.65625 0)"/>
      </g>
     </g>
    </g>
    <g id="ytick_13">
     <g id="line2d_23">
      <g>
       <use xlink:href="#m1a1c34aa4d" x="394.43974" y="193.161143" style="stroke: #000000; stroke-width: 0.8"/>
      </g>
     </g>
     <g id="text_25">
      <!-- 0.054 -->
      <g transform="translate(401.43974 196.960362) scale(0.1 -0.1)">
       <defs>
        <path id="DejaVuSans-35" d="M 691 4666 
L 3169 4666 
L 3169 4134 
L 1269 4134 
L 1269 2991 
Q 1406 3038 1543 3061 
Q 1681 3084 1819 3084 
Q 2600 3084 3056 2656 
Q 3513 2228 3513 1497 
Q 3513 744 3044 326 
Q 2575 -91 1722 -91 
Q 1428 -91 1123 -41 
Q 819 9 494 109 
L 494 744 
Q 775 591 1075 516 
Q 1375 441 1709 441 
Q 2250 441 2565 725 
Q 2881 1009 2881 1497 
Q 2881 1984 2565 2268 
Q 2250 2553 1709 2553 
Q 1456 2553 1204 2497 
Q 953 2441 691 2322 
L 691 4666 
z
" transform="scale(0.015625)"/>
       </defs>
       <use xlink:href="#DejaVuSans-30"/>
       <use xlink:href="#DejaVuSans-2e" transform="translate(63.623047 0)"/>
       <use xlink:href="#DejaVuSans-30" transform="translate(95.410156 0)"/>
       <use xlink:href="#DejaVuSans-35" transform="translate(159.033203 0)"/>
       <use xlink:href="#DejaVuSans-34" transform="translate(222.65625 0)"/>
      </g>
     </g>
    </g>
    <g id="ytick_14">
     <g id="line2d_24">
      <g>
       <use xlink:href="#m1a1c34aa4d" x="394.43974" y="156.334857" style="stroke: #000000; stroke-width: 0.8"/>
      </g>
     </g>
     <g id="text_26">
      <!-- 0.072 -->
      <g transform="translate(401.43974 160.134076) scale(0.1 -0.1)">
       <defs>
        <path id="DejaVuSans-37" d="M 525 4666 
L 3525 4666 
L 3525 4397 
L 1831 0 
L 1172 0 
L 2766 4134 
L 525 4134 
L 525 4666 
z
" transform="scale(0.015625)"/>
       </defs>
       <use xlink:href="#DejaVuSans-30"/>
       <use xlink:href="#DejaVuSans-2e" transform="translate(63.623047 0)"/>
       <use xlink:href="#DejaVuSans-30" transform="translate(95.410156 0)"/>
       <use xlink:href="#DejaVuSans-37" transform="translate(159.033203 0)"/>
       <use xlink:href="#DejaVuSans-32" transform="translate(222.65625 0)"/>
      </g>
     </g>
    </g>
    <g id="ytick_15">
     <g id="line2d_25">
      <g>
       <use xlink:href="#m1a1c34aa4d" x="394.43974" y="119.508571" style="stroke: #000000; stroke-width: 0.8"/>
      </g>
     </g>
     <g id="text_27">
      <!-- 0.090 -->
      <g transform="translate(401.43974 123.30779) scale(0.1 -0.1)">
       <defs>
        <path id="DejaVuSans-39" d="M 703 97 
L 703 672 
Q 941 559 1184 500 
Q 1428 441 1663 441 
Q 2288 441 2617 861 
Q 2947 1281 2994 2138 
Q 2813 1869 2534 1725 
Q 2256 1581 1919 1581 
Q 1219 1581 811 2004 
Q 403 2428 403 3163 
Q 403 3881 828 4315 
Q 1253 4750 1959 4750 
Q 2769 4750 3195 4129 
Q 3622 3509 3622 2328 
Q 3622 1225 3098 567 
Q 2575 -91 1691 -91 
Q 1453 -91 1209 -44 
Q 966 3 703 97 
z
M 1959 2075 
Q 2384 2075 2632 2365 
Q 2881 2656 2881 3163 
Q 2881 3666 2632 3958 
Q 2384 4250 1959 4250 
Q 1534 4250 1286 3958 
Q 1038 3666 1038 3163 
Q 1038 2656 1286 2365 
Q 1534 2075 1959 2075 
z
" transform="scale(0.015625)"/>
       </defs>
       <use xlink:href="#DejaVuSans-30"/>
       <use xlink:href="#DejaVuSans-2e" transform="translate(63.623047 0)"/>
       <use xlink:href="#DejaVuSans-30" transform="translate(95.410156 0)"/>
       <use xlink:href="#DejaVuSans-39" transform="translate(159.033203 0)"/>
       <use xlink:href="#DejaVuSans-30" transform="translate(222.65625 0)"/>
      </g>
     </g>
    </g>
    <g id="ytick_16">
     <g id="line2d_26">
      <g>
       <use xlink:href="#m1a1c34aa4d" x="394.43974" y="82.682286" style="stroke: #000000; stroke-width: 0.8"/>
      </g>
     </g>
     <g id="text_28">
      <!-- 0.108 -->
      <g transform="translate(401.43974 86.481504) scale(0.1 -0.1)">
       <use xlink:href="#DejaVuSans-30"/>
       <use xlink:href="#DejaVuSans-2e" transform="translate(63.623047 0)"/>
       <use xlink:href="#DejaVuSans-31" transform="translate(95.410156 0)"/>
       <use xlink:href="#DejaVuSans-30" transform="translate(159.033203 0)"/>
       <use xlink:href="#DejaVuSans-38" transform="translate(222.65625 0)"/>
      </g>
     </g>
    </g>
    <g id="ytick_17">
     <g id="line2d_27">
      <g>
       <use xlink:href="#m1a1c34aa4d" x="394.43974" y="45.856" style="stroke: #000000; stroke-width: 0.8"/>
      </g>
     </g>
     <g id="text_29">
      <!-- 0.126 -->
      <g transform="translate(401.43974 49.655219) scale(0.1 -0.1)">
       <use xlink:href="#DejaVuSans-30"/>
       <use xlink:href="#DejaVuSans-2e" transform="translate(63.623047 0)"/>
       <use xlink:href="#DejaVuSans-31" transform="translate(95.410156 0)"/>
       <use xlink:href="#DejaVuSans-32" transform="translate(159.033203 0)"/>
       <use xlink:href="#DejaVuSans-36" transform="translate(222.65625 0)"/>
      </g>
     </g>
    </g>
    <g id="text_30">
     <!-- Relative error -->
     <g transform="translate(441.666302 208.603469) rotate(-90) scale(0.1 -0.1)">
      <use xlink:href="#DejaVuSans-52"/>
      <use xlink:href="#DejaVuSans-65" transform="translate(64.982422 0)"/>
      <use xlink:href="#DejaVuSans-6c" transform="translate(126.505859 0)"/>
      <use xlink:href="#DejaVuSans-61" transform="translate(154.289062 0)"/>
      <use xlink:href="#DejaVuSans-74" transform="translate(215.568359 0)"/>
      <use xlink:href="#DejaVuSans-69" transform="translate(254.777344 0)"/>
      <use xlink:href="#DejaVuSans-76" transform="translate(282.560547 0)"/>
      <use xlink:href="#DejaVuSans-65" transform="translate(341.740234 0)"/>
      <use xlink:href="#DejaVuSans-20" transform="translate(403.263672 0)"/>
      <use xlink:href="#DejaVuSans-65" transform="translate(435.050781 0)"/>
      <use xlink:href="#DejaVuSans-72" transform="translate(496.574219 0)"/>
      <use xlink:href="#DejaVuSans-72" transform="translate(535.9375 0)"/>
      <use xlink:href="#DejaVuSans-6f" transform="translate(574.800781 0)"/>
      <use xlink:href="#DejaVuSans-72" transform="translate(635.982422 0)"/>
     </g>
    </g>
   </g>
   <g id="LineCollection_1"/>
   <g id="patch_8">
    <path d="M 381.55054 303.64 
L 387.99514 303.64 
L 394.43974 303.64 
L 394.43974 45.856 
L 387.99514 45.856 
L 381.55054 45.856 
L 381.55054 303.64 
z
" style="fill: none; stroke: #000000; stroke-width: 0.8; stroke-linejoin: miter; stroke-linecap: square"/>
   </g>
  </g>
 </g>
 <defs>
  <clipPath id="pe5a5372ef9">
   <rect x="46.64" y="45.856" width="315.20992" height="257.784"/>
  </clipPath>
  <clipPath id="paa5545e68a">
   <rect x="381.55054" y="45.856" width="12.8892" height="257.784"/>
  </clipPath>
 </defs>
</svg>
