<?xml version="1.0" encoding="utf-8" standalone="no"?>
<!DOCTYPE svg PUBLIC "-//W3C//DTD SVG 1.1//EN"
  "http://www.w3.org/Graphics/SVG/1.1/DTD/svg11.dtd">
<svg xmlns:xlink="http://www.w3.org/1999/xlink" width="460.8pt" height="345.6pt" viewBox="0 0 460.8 345.6" xmlns="http://www.w3.org/2000/svg" version="1.1">
 <metadata>
  <rdf:RDF xmlns:dc="http://purl.org/dc/elements/1.1/" xmlns:cc="http://creativecommons.org/ns#" xmlns:rdf="http://www.w3.org/1999/02/22-rdf-syntax-ns#">
   <cc:Work>
    <dc:type rdf:resource="http://purl.org/dc/dcmitype/StillImage"/>
    <dc:date>2025-10-16T16:19:44.946783</dc:date>
    <dc:format>image/svg+xml</dc:format>
    <dc:creator>
     <cc:Agent>
      <dc:title>Matplotlib v3.10.6, https://matplotlib.org/</dc:title>
     </cc:Agent>
    </dc:creator>
   </cc:Work>
  </rdf:RDF>
 </metadata>
 <defs>
  <style type="text/css">*{stroke-linejoin: round; stroke-linecap: butt}</style>
 </defs>
 <g id="figure_1">
  <g id="patch_1">
   <path d="M 0 345.6 
L 460.8 345.6 
L 460.8 0 
L 0 0 
z
" style="fill: #ffffff"/>
  </g>
  <g id="axes_1">
   <g id="patch_2">
    <path d="M 46.64 303.64 
L 366.88992 303.64 
L 366.88992 45.856 
L 46.64 45.856 
z
" style="fill: #ffffff"/>
   </g>
   <g id="QuadContourSet_1">
    <path d="M 222.777456 204.617553 
L 224.924834 200.5264 
L 224.627389 187.6372 
L 222.777456 182.53863 
L 219.897807 174.748 
L 212.71745 161.8588 
L 206.76496 153.071862 
L 196.008445 148.9696 
L 190.752464 145.4943 
L 189.097378 148.9696 
L 189.218098 161.8588 
L 190.752464 166.352662 
L 193.747332 174.748 
L 200.853178 187.6372 
L 206.76496 196.333209 
L 216.922027 200.5264 
z
" clip-path="url(#p69279261c1)" style="fill: #460b5e"/>
    <path d="M 222.777456 232.704894 
L 238.789952 237 
L 244.76278 226.3048 
L 245.305461 213.4156 
L 243.021516 200.5264 
L 238.990132 187.6372 
L 238.789952 187.161973 
L 233.68457 174.748 
L 227.264985 161.8588 
L 222.777456 153.968818 
L 219.539123 148.9696 
L 210.450649 136.0804 
L 206.76496 131.077067 
L 197.738734 123.1912 
L 190.752464 116.411951 
L 174.739968 115.352235 
L 171.227082 123.1912 
L 170.128544 136.0804 
L 171.801897 148.9696 
L 174.739968 159.692165 
L 175.330077 161.8588 
L 180.257708 174.748 
L 186.444586 187.6372 
L 190.752464 195.34365 
L 194.11488 200.5264 
L 203.315611 213.4156 
L 206.76496 218.008494 
L 216.166127 226.3048 
z
M 216.922027 200.5264 
L 206.76496 196.333209 
L 200.853178 187.6372 
L 193.747332 174.748 
L 190.752464 166.352662 
L 189.218098 161.8588 
L 189.097378 148.9696 
L 190.752464 145.4943 
L 196.008445 148.9696 
L 206.76496 153.071862 
L 212.71745 161.8588 
L 219.897807 174.748 
L 222.777456 182.53863 
L 224.627389 187.6372 
L 224.924834 200.5264 
L 222.777456 204.617553 
z
" clip-path="url(#p69279261c1)" style="fill: #481f70"/>
    <path d="M 238.789952 266.384068 
L 254.802448 269.142718 
L 260.021292 264.9724 
L 266.005996 252.0832 
L 266.473779 239.194 
L 264.748711 226.3048 
L 261.753093 213.4156 
L 257.761408 200.5264 
L 254.802448 192.773806 
L 252.897453 187.6372 
L 247.326619 174.748 
L 241.043422 161.8588 
L 238.789952 157.634558 
L 234.025445 148.9696 
L 226.272068 136.0804 
L 222.777456 130.589649 
L 217.411809 123.1912 
L 207.745649 110.302 
L 206.76496 109.013254 
L 195.212647 97.4128 
L 190.752464 92.739481 
L 176.87074 84.5236 
L 174.739968 83.081132 
L 164.313145 84.5236 
L 158.727472 86.008253 
L 153.852998 97.4128 
L 152.170592 110.302 
L 152.708622 123.1912 
L 154.716612 136.0804 
L 157.874689 148.9696 
L 158.727472 151.579295 
L 162.074501 161.8588 
L 167.110586 174.748 
L 172.988605 187.6372 
L 174.739968 191.075334 
L 179.81212 200.5264 
L 187.523448 213.4156 
L 190.752464 218.458104 
L 196.554291 226.3048 
L 206.488457 239.194 
L 206.76496 239.545664 
L 219.374569 252.0832 
L 222.777456 255.582893 
L 236.892336 264.9724 
z
M 216.166127 226.3048 
L 206.76496 218.008494 
L 203.315611 213.4156 
L 194.11488 200.5264 
L 190.752464 195.34365 
L 186.444586 187.6372 
L 180.257708 174.748 
L 175.330077 161.8588 
L 174.739968 159.692165 
L 171.801897 148.9696 
L 170.128544 136.0804 
L 171.227082 123.1912 
L 174.739968 115.352235 
L 190.752464 116.411951 
L 197.738734 123.1912 
L 206.76496 131.077067 
L 210.450649 136.0804 
L 219.539123 148.9696 
L 222.777456 153.968818 
L 227.264985 161.8588 
L 233.68457 174.748 
L 238.789952 187.161973 
L 238.990132 187.6372 
L 243.021516 200.5264 
L 245.305461 213.4156 
L 244.76278 226.3048 
L 238.789952 237 
L 222.777456 232.704894 
z
" clip-path="url(#p69279261c1)" style="fill: #46307e"/>
    <path d="M 254.802448 299.248297 
L 270.814944 301.754377 
L 284.464425 290.7508 
L 286.82744 284.811674 
L 288.149934 277.8616 
L 288.347767 264.9724 
L 286.962814 252.0832 
L 286.82744 251.438654 
L 284.263403 239.194 
L 280.831994 226.3048 
L 276.757502 213.4156 
L 272.066237 200.5264 
L 270.814944 197.50675 
L 266.813458 187.6372 
L 261.05962 174.748 
L 254.802448 161.880424 
L 254.791969 161.8588 
L 248.037745 148.9696 
L 240.772069 136.0804 
L 238.789952 132.726298 
L 232.857876 123.1912 
L 224.422853 110.302 
L 222.777456 107.855578 
L 214.892548 97.4128 
L 206.76496 86.825983 
L 204.547854 84.5236 
L 192.478611 71.6344 
L 190.752464 69.753441 
L 176.426471 58.7452 
L 174.739968 57.350971 
L 158.727472 51.529129 
L 142.714976 58.079629 
L 142.291274 58.7452 
L 137.130597 71.6344 
L 135.017462 84.5236 
L 134.798769 97.4128 
L 135.879298 110.302 
L 137.956518 123.1912 
L 140.877505 136.0804 
L 142.714976 142.444424 
L 144.599533 148.9696 
L 149.009099 161.8588 
L 154.061642 174.748 
L 158.727472 185.329576 
L 159.764717 187.6372 
L 166.177527 200.5264 
L 173.225691 213.4156 
L 174.739968 216.021159 
L 181.157843 226.3048 
L 189.737601 239.194 
L 190.752464 240.666014 
L 199.663067 252.0832 
L 206.76496 260.979967 
L 210.677216 264.9724 
L 222.777456 277.608418 
L 223.114543 277.8616 
L 238.789952 290.59115 
L 239.125326 290.7508 
z
M 236.892336 264.9724 
L 222.777456 255.582893 
L 219.374569 252.0832 
L 206.76496 239.545664 
L 206.488457 239.194 
L 196.554291 226.3048 
L 190.752464 218.458104 
L 187.523448 213.4156 
L 179.81212 200.5264 
L 174.739968 191.075334 
L 172.988605 187.6372 
L 167.110586 174.748 
L 162.074501 161.8588 
L 158.727472 151.579295 
L 157.874689 148.9696 
L 154.716612 136.0804 
L 152.708622 123.1912 
L 152.170592 110.302 
L 153.852998 97.4128 
L 158.727472 86.008253 
L 164.313145 84.5236 
L 174.739968 83.081132 
L 176.87074 84.5236 
L 190.752464 92.739481 
L 195.212647 97.4128 
L 206.76496 109.013254 
L 207.745649 110.302 
L 217.411809 123.1912 
L 222.777456 130.589649 
L 226.272068 136.0804 
L 234.025445 148.9696 
L 238.789952 157.634558 
L 241.043422 161.8588 
L 247.326619 174.748 
L 252.897453 187.6372 
L 254.802448 192.773806 
L 257.761408 200.5264 
L 261.753093 213.4156 
L 264.748711 226.3048 
L 266.473779 239.194 
L 266.005996 252.0832 
L 260.021292 264.9724 
L 254.802448 269.142718 
L 238.789952 266.384068 
z
" clip-path="url(#p69279261c1)" style="fill: #424186"/>
    <path d="M 222.777456 299.264459 
L 227.890464 303.64 
L 238.789952 303.64 
L 254.802448 303.64 
L 270.814944 303.64 
L 286.82744 303.64 
L 302.839936 303.64 
L 310.028741 303.64 
L 310.278393 290.7508 
L 309.100149 277.8616 
L 306.919211 264.9724 
L 303.95728 252.0832 
L 302.839936 248.23332 
L 300.259432 239.194 
L 296.054027 226.3048 
L 291.397621 213.4156 
L 286.82744 201.907789 
L 286.290711 200.5264 
L 280.788284 187.6372 
L 274.890692 174.748 
L 270.814944 166.401377 
L 268.611933 161.8588 
L 261.962978 148.9696 
L 254.925007 136.0804 
L 254.802448 135.864365 
L 247.445928 123.1912 
L 239.589407 110.302 
L 238.789952 109.025215 
L 231.092113 97.4128 
L 222.777456 85.270185 
L 222.207699 84.5236 
L 212.295229 71.6344 
L 206.76496 64.502838 
L 201.453393 58.7452 
L 190.752464 46.919574 
L 189.46351 45.856 
L 174.739968 45.856 
L 158.727472 45.856 
L 142.714976 45.856 
L 126.70248 45.856 
L 121.094877 45.856 
L 118.634001 58.7452 
L 117.816266 71.6344 
L 118.186026 84.5236 
L 119.473077 97.4128 
L 121.521546 110.302 
L 124.242676 123.1912 
L 126.70248 132.626818 
L 127.606273 136.0804 
L 131.579758 148.9696 
L 136.076731 161.8588 
L 141.103806 174.748 
L 142.714976 178.507445 
L 146.690289 187.6372 
L 152.822544 200.5264 
L 158.727472 211.999306 
L 159.485142 213.4156 
L 166.818099 226.3048 
L 174.649703 239.194 
L 174.739968 239.337202 
L 183.391113 252.0832 
L 190.752464 262.483218 
L 192.728497 264.9724 
L 203.114724 277.8616 
L 206.76496 282.333581 
L 214.774445 290.7508 
z
M 239.125326 290.7508 
L 238.789952 290.59115 
L 223.114543 277.8616 
L 222.777456 277.608418 
L 210.677216 264.9724 
L 206.76496 260.979967 
L 199.663067 252.0832 
L 190.752464 240.666014 
L 189.737601 239.194 
L 181.157843 226.3048 
L 174.739968 216.021159 
L 173.225691 213.4156 
L 166.177527 200.5264 
L 159.764717 187.6372 
L 158.727472 185.329576 
L 154.061642 174.748 
L 149.009099 161.8588 
L 144.599533 148.9696 
L 142.714976 142.444424 
L 140.877505 136.0804 
L 137.956518 123.1912 
L 135.879298 110.302 
L 134.798769 97.4128 
L 135.017462 84.5236 
L 137.130597 71.6344 
L 142.291274 58.7452 
L 142.714976 58.079629 
L 158.727472 51.529129 
L 174.739968 57.350971 
L 176.426471 58.7452 
L 190.752464 69.753441 
L 192.478611 71.6344 
L 204.547854 84.5236 
L 206.76496 86.825983 
L 214.892548 97.4128 
L 222.777456 107.855578 
L 224.422853 110.302 
L 232.857876 123.1912 
L 238.789952 132.726298 
L 240.772069 136.0804 
L 248.037745 148.9696 
L 254.791969 161.8588 
L 254.802448 161.880424 
L 261.05962 174.748 
L 266.813458 187.6372 
L 270.814944 197.50675 
L 272.066237 200.5264 
L 276.757502 213.4156 
L 280.831994 226.3048 
L 284.263403 239.194 
L 286.82744 251.438654 
L 286.962814 252.0832 
L 288.347767 264.9724 
L 288.149934 277.8616 
L 286.82744 284.811674 
L 284.464425 290.7508 
L 270.814944 301.754377 
L 254.802448 299.248297 
z
" clip-path="url(#p69279261c1)" style="fill: #3b528b"/>
    <path d="M 206.76496 303.614375 
L 206.789131 303.64 
L 222.777456 303.64 
L 227.890464 303.64 
L 222.777456 299.264459 
L 214.774445 290.7508 
L 206.76496 282.333581 
L 203.114724 277.8616 
L 192.728497 264.9724 
L 190.752464 262.483218 
L 183.391113 252.0832 
L 174.739968 239.337202 
L 174.649703 239.194 
L 166.818099 226.3048 
L 159.485142 213.4156 
L 158.727472 211.999306 
L 152.822544 200.5264 
L 146.690289 187.6372 
L 142.714976 178.507445 
L 141.103806 174.748 
L 136.076731 161.8588 
L 131.579758 148.9696 
L 127.606273 136.0804 
L 126.70248 132.626818 
L 124.242676 123.1912 
L 121.521546 110.302 
L 119.473077 97.4128 
L 118.186026 84.5236 
L 117.816266 71.6344 
L 118.634001 58.7452 
L 121.094877 45.856 
L 110.689984 45.856 
L 101.675284 45.856 
L 101.44944 58.7452 
L 102.085768 71.6344 
L 103.437223 84.5236 
L 105.410836 97.4128 
L 107.948638 110.302 
L 110.689984 121.805557 
L 111.022356 123.1912 
L 114.648698 136.0804 
L 118.723796 148.9696 
L 123.253258 161.8588 
L 126.70248 170.78763 
L 128.247825 174.748 
L 133.722368 187.6372 
L 139.64423 200.5264 
L 142.714976 206.789557 
L 146.055197 213.4156 
L 152.967968 226.3048 
L 158.727472 236.450303 
L 160.361634 239.194 
L 168.376261 252.0832 
L 174.739968 261.875392 
L 176.904836 264.9724 
L 186.165822 277.8616 
L 190.752464 284.085188 
L 196.174743 290.7508 
z
M 318.852432 303.64 
L 332.062858 303.64 
L 329.949761 290.7508 
L 327.169799 277.8616 
L 323.833811 264.9724 
L 320.003471 252.0832 
L 318.852432 248.701974 
L 315.676405 239.194 
L 310.981098 226.3048 
L 305.933614 213.4156 
L 302.839936 206.078731 
L 300.542509 200.5264 
L 294.844329 187.6372 
L 288.823096 174.748 
L 286.82744 170.692937 
L 282.515809 161.8588 
L 275.903029 148.9696 
L 270.814944 139.482544 
L 268.980094 136.0804 
L 261.742291 123.1912 
L 254.802448 111.321466 
L 254.189905 110.302 
L 246.222357 97.4128 
L 238.789952 85.779851 
L 237.939865 84.5236 
L 229.067503 71.6344 
L 222.777456 62.673522 
L 219.742881 58.7452 
L 209.738091 45.856 
L 206.76496 45.856 
L 190.752464 45.856 
L 189.46351 45.856 
L 190.752464 46.919574 
L 201.453393 58.7452 
L 206.76496 64.502838 
L 212.295229 71.6344 
L 222.207699 84.5236 
L 222.777456 85.270185 
L 231.092113 97.4128 
L 238.789952 109.025215 
L 239.589407 110.302 
L 247.445928 123.1912 
L 254.802448 135.864365 
L 254.925007 136.0804 
L 261.962978 148.9696 
L 268.611933 161.8588 
L 270.814944 166.401377 
L 274.890692 174.748 
L 280.788284 187.6372 
L 286.290711 200.5264 
L 286.82744 201.907789 
L 291.397621 213.4156 
L 296.054027 226.3048 
L 300.259432 239.194 
L 302.839936 248.23332 
L 303.95728 252.0832 
L 306.919211 264.9724 
L 309.100149 277.8616 
L 310.278393 290.7508 
L 310.028741 303.64 
z
" clip-path="url(#p69279261c1)" style="fill: #34618d"/>
    <path d="M 190.752464 303.64 
L 206.76496 303.64 
L 206.789131 303.64 
L 206.76496 303.614375 
L 196.174743 290.7508 
L 190.752464 284.085188 
L 186.165822 277.8616 
L 176.904836 264.9724 
L 174.739968 261.875392 
L 168.376261 252.0832 
L 160.361634 239.194 
L 158.727472 236.450303 
L 152.967968 226.3048 
L 146.055197 213.4156 
L 142.714976 206.789557 
L 139.64423 200.5264 
L 133.722368 187.6372 
L 128.247825 174.748 
L 126.70248 170.78763 
L 123.253258 161.8588 
L 118.723796 148.9696 
L 114.648698 136.0804 
L 111.022356 123.1912 
L 110.689984 121.805557 
L 107.948638 110.302 
L 105.410836 97.4128 
L 103.437223 84.5236 
L 102.085768 71.6344 
L 101.44944 58.7452 
L 101.675284 45.856 
L 94.677488 45.856 
L 85.652195 45.856 
L 86.405063 58.7452 
L 87.748907 71.6344 
L 89.622832 84.5236 
L 91.986043 97.4128 
L 94.677488 109.682627 
L 94.814521 110.302 
L 98.143378 123.1912 
L 101.870796 136.0804 
L 105.999156 148.9696 
L 110.527374 161.8588 
L 110.689984 162.285315 
L 115.493059 174.748 
L 120.852289 187.6372 
L 126.601191 200.5264 
L 126.70248 200.741339 
L 132.810412 213.4156 
L 139.415849 226.3048 
L 142.714976 232.436296 
L 146.481139 239.194 
L 154.007167 252.0832 
L 158.727472 259.841346 
L 162.013462 264.9724 
L 170.55086 277.8616 
L 174.739968 284.002412 
L 179.671703 290.7508 
L 189.307897 303.64 
z
M 334.864928 303.64 
L 350.877424 303.64 
L 350.99911 303.64 
L 350.877424 303.163415 
L 347.738934 290.7508 
L 344.07072 277.8616 
L 340.02774 264.9724 
L 335.625495 252.0832 
L 334.864928 250.058886 
L 330.8579 239.194 
L 325.804657 226.3048 
L 320.46287 213.4156 
L 318.852432 209.757702 
L 314.855929 200.5264 
L 308.992572 187.6372 
L 302.859248 174.748 
L 302.839936 174.709134 
L 296.51215 161.8588 
L 289.898936 148.9696 
L 286.82744 143.194544 
L 283.043589 136.0804 
L 275.936145 123.1912 
L 270.814944 114.200362 
L 268.564004 110.302 
L 260.907588 97.4128 
L 254.802448 87.42326 
L 252.972226 84.5236 
L 244.669478 71.6344 
L 238.789952 62.699817 
L 236.03703 58.7452 
L 226.950774 45.856 
L 222.777456 45.856 
L 209.738091 45.856 
L 219.742881 58.7452 
L 222.777456 62.673522 
L 229.067503 71.6344 
L 237.939865 84.5236 
L 238.789952 85.779851 
L 246.222357 97.4128 
L 254.189905 110.302 
L 254.802448 111.321466 
L 261.742291 123.1912 
L 268.980094 136.0804 
L 270.814944 139.482544 
L 275.903029 148.9696 
L 282.515809 161.8588 
L 286.82744 170.692937 
L 288.823096 174.748 
L 294.844329 187.6372 
L 300.542509 200.5264 
L 302.839936 206.078731 
L 305.933614 213.4156 
L 310.981098 226.3048 
L 315.676405 239.194 
L 318.852432 248.701974 
L 320.003471 252.0832 
L 323.833811 264.9724 
L 327.169799 277.8616 
L 329.949761 290.7508 
L 332.062858 303.64 
z
" clip-path="url(#p69279261c1)" style="fill: #2e6f8e"/>
    <path d="M 174.739968 303.64 
L 189.307897 303.64 
L 179.671703 290.7508 
L 174.739968 284.002412 
L 170.55086 277.8616 
L 162.013462 264.9724 
L 158.727472 259.841346 
L 154.007167 252.0832 
L 146.481139 239.194 
L 142.714976 232.436296 
L 139.415849 226.3048 
L 132.810412 213.4156 
L 126.70248 200.741339 
L 126.601191 200.5264 
L 120.852289 187.6372 
L 115.493059 174.748 
L 110.689984 162.285315 
L 110.527374 161.8588 
L 105.999156 148.9696 
L 101.870796 136.0804 
L 98.143378 123.1912 
L 94.814521 110.302 
L 94.677488 109.682627 
L 91.986043 97.4128 
L 89.622832 84.5236 
L 87.748907 71.6344 
L 86.405063 58.7452 
L 85.652195 45.856 
L 78.664992 45.856 
L 71.100461 45.856 
L 72.395806 58.7452 
L 74.155541 71.6344 
L 76.349531 84.5236 
L 78.664992 95.951254 
L 78.964154 97.4128 
L 82.026858 110.302 
L 85.452022 123.1912 
L 89.239225 136.0804 
L 93.387198 148.9696 
L 94.677488 152.660213 
L 97.923437 161.8588 
L 102.823228 174.748 
L 108.074321 187.6372 
L 110.689984 193.679574 
L 113.703892 200.5264 
L 119.715082 213.4156 
L 126.075426 226.3048 
L 126.70248 227.523379 
L 132.87839 239.194 
L 140.040822 252.0832 
L 142.714976 256.72122 
L 147.661225 264.9724 
L 155.684625 277.8616 
L 158.727472 282.608001 
L 164.222543 290.7508 
L 173.171564 303.64 
z
M 350.877424 303.163415 
L 350.99911 303.64 
L 366.88992 303.64 
L 366.88992 298.114531 
L 364.666995 290.7508 
L 360.410239 277.8616 
L 355.870513 264.9724 
L 351.048542 252.0832 
L 350.877424 251.658153 
L 345.946856 239.194 
L 340.610686 226.3048 
L 335.031418 213.4156 
L 334.864928 213.05005 
L 329.247804 200.5264 
L 323.239453 187.6372 
L 318.852432 178.581504 
L 317.017259 174.748 
L 310.606844 161.8588 
L 303.971286 148.9696 
L 302.839936 146.837052 
L 297.150874 136.0804 
L 290.112597 123.1912 
L 286.82744 117.332952 
L 282.860681 110.302 
L 275.389523 97.4128 
L 270.814944 89.706382 
L 267.681257 84.5236 
L 259.720269 71.6344 
L 254.802448 63.827729 
L 251.489062 58.7452 
L 242.95407 45.856 
L 238.789952 45.856 
L 226.950774 45.856 
L 236.03703 58.7452 
L 238.789952 62.699817 
L 244.669478 71.6344 
L 252.972226 84.5236 
L 254.802448 87.42326 
L 260.907588 97.4128 
L 268.564004 110.302 
L 270.814944 114.200362 
L 275.936145 123.1912 
L 283.043589 136.0804 
L 286.82744 143.194544 
L 289.898936 148.9696 
L 296.51215 161.8588 
L 302.839936 174.709134 
L 302.859248 174.748 
L 308.992572 187.6372 
L 314.855929 200.5264 
L 318.852432 209.757702 
L 320.46287 213.4156 
L 325.804657 226.3048 
L 330.8579 239.194 
L 334.864928 250.058886 
L 335.625495 252.0832 
L 340.02774 264.9724 
L 344.07072 277.8616 
L 347.738934 290.7508 
z
" clip-path="url(#p69279261c1)" style="fill: #287c8e"/>
    <path d="M 158.727472 303.64 
L 173.171564 303.64 
L 164.222543 290.7508 
L 158.727472 282.608001 
L 155.684625 277.8616 
L 147.661225 264.9724 
L 142.714976 256.72122 
L 140.040822 252.0832 
L 132.87839 239.194 
L 126.70248 227.523379 
L 126.075426 226.3048 
L 119.715082 213.4156 
L 113.703892 200.5264 
L 110.689984 193.679574 
L 108.074321 187.6372 
L 102.823228 174.748 
L 97.923437 161.8588 
L 94.677488 152.660213 
L 93.387198 148.9696 
L 89.239225 136.0804 
L 85.452022 123.1912 
L 82.026858 110.302 
L 78.964154 97.4128 
L 78.664992 95.951254 
L 76.349531 84.5236 
L 74.155541 71.6344 
L 72.395806 58.7452 
L 71.100461 45.856 
L 62.652496 45.856 
L 57.370018 45.856 
L 59.006672 58.7452 
L 61.035211 71.6344 
L 62.652496 80.266284 
L 63.459327 84.5236 
L 66.27743 97.4128 
L 69.430468 110.302 
L 72.916092 123.1912 
L 76.732328 136.0804 
L 78.664992 142.086287 
L 80.899732 148.9696 
L 85.408144 161.8588 
L 90.236671 174.748 
L 94.677488 185.873535 
L 95.391023 187.6372 
L 100.908421 200.5264 
L 106.747152 213.4156 
L 110.689984 221.699433 
L 112.930063 226.3048 
L 119.486666 239.194 
L 126.358521 252.0832 
L 126.70248 252.707718 
L 133.673047 264.9724 
L 141.30273 277.8616 
L 142.714976 280.182459 
L 149.410913 290.7508 
L 157.845177 303.64 
z
M 366.88992 298.114531 
L 366.88992 290.7508 
L 366.88992 277.8616 
L 366.88992 264.9724 
L 366.88992 253.363131 
L 366.385957 252.0832 
L 361.016228 239.194 
L 355.444761 226.3048 
L 350.877424 216.140648 
L 349.671939 213.4156 
L 343.728913 200.5264 
L 337.589393 187.6372 
L 334.864928 182.105746 
L 331.282463 174.748 
L 324.804173 161.8588 
L 318.852432 150.360283 
L 318.137691 148.9696 
L 311.323641 136.0804 
L 304.316898 123.1912 
L 302.839936 120.534123 
L 297.143622 110.302 
L 289.785268 97.4128 
L 286.82744 92.333814 
L 282.232643 84.5236 
L 274.488147 71.6344 
L 270.814944 65.625314 
L 266.519375 58.7452 
L 258.335676 45.856 
L 254.802448 45.856 
L 242.95407 45.856 
L 251.489062 58.7452 
L 254.802448 63.827729 
L 259.720269 71.6344 
L 267.681257 84.5236 
L 270.814944 89.706382 
L 275.389523 97.4128 
L 282.860681 110.302 
L 286.82744 117.332952 
L 290.112597 123.1912 
L 297.150874 136.0804 
L 302.839936 146.837052 
L 303.971286 148.9696 
L 310.606844 161.8588 
L 317.017259 174.748 
L 318.852432 178.581504 
L 323.239453 187.6372 
L 329.247804 200.5264 
L 334.864928 213.05005 
L 335.031418 213.4156 
L 340.610686 226.3048 
L 345.946856 239.194 
L 350.877424 251.658153 
L 351.048542 252.0832 
L 355.870513 264.9724 
L 360.410239 277.8616 
L 364.666995 290.7508 
z
" clip-path="url(#p69279261c1)" style="fill: #23898e"/>
    <path d="M 142.714976 303.087433 
L 143.073215 303.64 
L 157.845177 303.64 
L 149.410913 290.7508 
L 142.714976 280.182459 
L 141.30273 277.8616 
L 133.673047 264.9724 
L 126.70248 252.707718 
L 126.358521 252.0832 
L 119.486666 239.194 
L 112.930063 226.3048 
L 110.689984 221.699433 
L 106.747152 213.4156 
L 100.908421 200.5264 
L 95.391023 187.6372 
L 94.677488 185.873535 
L 90.236671 174.748 
L 85.408144 161.8588 
L 80.899732 148.9696 
L 78.664992 142.086287 
L 76.732328 136.0804 
L 72.916092 123.1912 
L 69.430468 110.302 
L 66.27743 97.4128 
L 63.459327 84.5236 
L 62.652496 80.266284 
L 61.035211 71.6344 
L 59.006672 58.7452 
L 57.370018 45.856 
L 46.64 45.856 
L 46.64 58.7452 
L 46.64 62.212572 
L 48.291546 71.6344 
L 50.880852 84.5236 
L 53.783076 97.4128 
L 56.994717 110.302 
L 60.513151 123.1912 
L 62.652496 130.397116 
L 64.355085 136.0804 
L 68.518571 148.9696 
L 72.977377 161.8588 
L 77.731767 174.748 
L 78.664992 177.138951 
L 82.817573 187.6372 
L 88.208027 200.5264 
L 93.89237 213.4156 
L 94.677488 215.121063 
L 99.926469 226.3048 
L 106.26611 239.194 
L 110.689984 247.824063 
L 112.929174 252.0832 
L 119.955532 264.9724 
L 126.70248 276.877073 
L 127.278898 277.8616 
L 135.034884 290.7508 
z
M 366.88992 253.363131 
L 366.88992 252.0832 
L 366.88992 239.194 
L 366.88992 226.3048 
L 366.88992 218.876588 
L 364.394793 213.4156 
L 358.306666 200.5264 
L 352.04583 187.6372 
L 350.877424 185.301664 
L 345.656706 174.748 
L 339.10755 161.8588 
L 334.864928 153.718403 
L 332.409295 148.9696 
L 325.576157 136.0804 
L 318.852432 123.69885 
L 318.577601 123.1912 
L 311.451487 110.302 
L 304.160068 97.4128 
L 302.839936 95.118013 
L 296.715319 84.5236 
L 289.111304 71.6344 
L 286.82744 67.819626 
L 281.32446 58.7452 
L 273.373651 45.856 
L 270.814944 45.856 
L 258.335676 45.856 
L 266.519375 58.7452 
L 270.814944 65.625314 
L 274.488147 71.6344 
L 282.232643 84.5236 
L 286.82744 92.333814 
L 289.785268 97.4128 
L 297.143622 110.302 
L 302.839936 120.534123 
L 304.316898 123.1912 
L 311.323641 136.0804 
L 318.137691 148.9696 
L 318.852432 150.360283 
L 324.804173 161.8588 
L 331.282463 174.748 
L 334.864928 182.105746 
L 337.589393 187.6372 
L 343.728913 200.5264 
L 349.671939 213.4156 
L 350.877424 216.140648 
L 355.444761 226.3048 
L 361.016228 239.194 
L 366.385957 252.0832 
z
" clip-path="url(#p69279261c1)" style="fill: #1f978b"/>
    <path d="M 126.70248 300.359105 
L 128.722717 303.64 
L 142.714976 303.64 
L 143.073215 303.64 
L 142.714976 303.087433 
L 135.034884 290.7508 
L 127.278898 277.8616 
L 126.70248 276.877073 
L 119.955532 264.9724 
L 112.929174 252.0832 
L 110.689984 247.824063 
L 106.26611 239.194 
L 99.926469 226.3048 
L 94.677488 215.121063 
L 93.89237 213.4156 
L 88.208027 200.5264 
L 82.817573 187.6372 
L 78.664992 177.138951 
L 77.731767 174.748 
L 72.977377 161.8588 
L 68.518571 148.9696 
L 64.355085 136.0804 
L 62.652496 130.397116 
L 60.513151 123.1912 
L 56.994717 110.302 
L 53.783076 97.4128 
L 50.880852 84.5236 
L 48.291546 71.6344 
L 46.64 62.212572 
L 46.64 71.6344 
L 46.64 84.5236 
L 46.64 97.4128 
L 46.64 110.302 
L 46.64 117.386058 
L 48.247087 123.1912 
L 52.098594 136.0804 
L 56.225696 148.9696 
L 60.628818 161.8588 
L 62.652496 167.443768 
L 65.331174 174.748 
L 70.327375 187.6372 
L 75.598173 200.5264 
L 78.664992 207.677801 
L 81.166299 213.4156 
L 87.041932 226.3048 
L 93.191089 239.194 
L 94.677488 242.199603 
L 99.675158 252.0832 
L 106.452843 264.9724 
L 110.689984 272.757485 
L 113.545788 277.8616 
L 120.982381 290.7508 
z
M 366.88992 218.876588 
L 366.88992 213.4156 
L 366.88992 200.5264 
L 366.88992 188.201804 
L 366.614022 187.6372 
L 360.142021 174.748 
L 353.51991 161.8588 
L 350.877424 156.828907 
L 346.782791 148.9696 
L 339.918396 136.0804 
L 334.864928 126.784715 
L 332.920518 123.1912 
L 325.809499 110.302 
L 318.852432 97.941072 
L 318.555077 97.4128 
L 311.183019 84.5236 
L 303.669789 71.6344 
L 302.839936 70.228469 
L 296.012181 58.7452 
L 288.218934 45.856 
L 286.82744 45.856 
L 273.373651 45.856 
L 281.32446 58.7452 
L 286.82744 67.819626 
L 289.111304 71.6344 
L 296.715319 84.5236 
L 302.839936 95.118013 
L 304.160068 97.4128 
L 311.451487 110.302 
L 318.577601 123.1912 
L 318.852432 123.69885 
L 325.576157 136.0804 
L 332.409295 148.9696 
L 334.864928 153.718403 
L 339.10755 161.8588 
L 345.656706 174.748 
L 350.877424 185.301664 
L 352.04583 187.6372 
L 358.306666 200.5264 
L 364.394793 213.4156 
z
" clip-path="url(#p69279261c1)" style="fill: #20a486"/>
    <path d="M 110.689984 296.879188 
L 114.670464 303.64 
L 126.70248 303.64 
L 128.722717 303.64 
L 126.70248 300.359105 
L 120.982381 290.7508 
L 113.545788 277.8616 
L 110.689984 272.757485 
L 106.452843 264.9724 
L 99.675158 252.0832 
L 94.677488 242.199603 
L 93.191089 239.194 
L 87.041932 226.3048 
L 81.166299 213.4156 
L 78.664992 207.677801 
L 75.598173 200.5264 
L 70.327375 187.6372 
L 65.331174 174.748 
L 62.652496 167.443768 
L 60.628818 161.8588 
L 56.225696 148.9696 
L 52.098594 136.0804 
L 48.247087 123.1912 
L 46.64 117.386058 
L 46.64 123.1912 
L 46.64 136.0804 
L 46.64 148.9696 
L 46.64 156.758918 
L 48.37653 161.8588 
L 53.01858 174.748 
L 57.918487 187.6372 
L 62.652496 199.474812 
L 63.079171 200.5264 
L 68.543629 213.4156 
L 74.266564 226.3048 
L 78.664992 235.807457 
L 80.262608 239.194 
L 86.568197 252.0832 
L 93.1289 264.9724 
L 94.677488 267.924178 
L 100.018984 277.8616 
L 107.184954 290.7508 
z
M 366.88992 188.201804 
L 366.88992 187.6372 
L 366.88992 174.748 
L 366.88992 161.8588 
L 366.88992 159.681228 
L 361.262299 148.9696 
L 354.357767 136.0804 
L 350.877424 129.698632 
L 347.349129 123.1912 
L 340.235115 110.302 
L 334.864928 100.736337 
L 333.003056 97.4128 
L 325.670885 84.5236 
L 318.852432 72.733476 
L 318.215217 71.6344 
L 310.648494 58.7452 
L 302.962 45.856 
L 302.839936 45.856 
L 288.218934 45.856 
L 296.012181 58.7452 
L 302.839936 70.228469 
L 303.669789 71.6344 
L 311.183019 84.5236 
L 318.555077 97.4128 
L 318.852432 97.941072 
L 325.809499 110.302 
L 332.920518 123.1912 
L 334.864928 126.784715 
L 339.918396 136.0804 
L 346.782791 148.9696 
L 350.877424 156.828907 
L 353.51991 161.8588 
L 360.142021 174.748 
L 366.614022 187.6372 
z
" clip-path="url(#p69279261c1)" style="fill: #2cb17e"/>
    <path d="M 94.677488 292.709183 
L 100.860255 303.64 
L 110.689984 303.64 
L 114.670464 303.64 
L 110.689984 296.879188 
L 107.184954 290.7508 
L 100.018984 277.8616 
L 94.677488 267.924178 
L 93.1289 264.9724 
L 86.568197 252.0832 
L 80.262608 239.194 
L 78.664992 235.807457 
L 74.266564 226.3048 
L 68.543629 213.4156 
L 63.079171 200.5264 
L 62.652496 199.474812 
L 57.918487 187.6372 
L 53.01858 174.748 
L 48.37653 161.8588 
L 46.64 156.758918 
L 46.64 161.8588 
L 46.64 174.748 
L 46.64 187.6372 
L 46.64 190.331593 
L 50.673374 200.5264 
L 56.011811 213.4156 
L 61.59275 226.3048 
L 62.652496 228.664892 
L 67.464989 239.194 
L 73.592424 252.0832 
L 78.664992 262.369253 
L 79.976066 264.9724 
L 86.668078 277.8616 
L 93.597763 290.7508 
z
M 366.88992 159.681228 
L 366.88992 148.9696 
L 366.88992 136.0804 
L 366.88992 132.411526 
L 361.871382 123.1912 
L 354.741057 110.302 
L 350.877424 103.419813 
L 347.51759 97.4128 
L 340.203316 84.5236 
L 334.864928 75.247601 
L 332.785712 71.6344 
L 325.27692 58.7452 
L 318.852432 47.864452 
L 317.661414 45.856 
L 302.962 45.856 
L 310.648494 58.7452 
L 318.215217 71.6344 
L 318.852432 72.733476 
L 325.670885 84.5236 
L 333.003056 97.4128 
L 334.864928 100.736337 
L 340.235115 110.302 
L 347.349129 123.1912 
L 350.877424 129.698632 
L 354.357767 136.0804 
L 361.262299 148.9696 
z
" clip-path="url(#p69279261c1)" style="fill: #40bd72"/>
    <path d="M 94.677488 303.64 
L 100.860255 303.64 
L 94.677488 292.709183 
L 93.597763 290.7508 
L 86.668078 277.8616 
L 79.976066 264.9724 
L 78.664992 262.369253 
L 73.592424 252.0832 
L 67.464989 239.194 
L 62.652496 228.664892 
L 61.59275 226.3048 
L 56.011811 213.4156 
L 50.673374 200.5264 
L 46.64 190.331593 
L 46.64 200.5264 
L 46.64 213.4156 
L 46.64 220.705416 
L 49.038323 226.3048 
L 54.772109 239.194 
L 60.735886 252.0832 
L 62.652496 256.094766 
L 66.977238 264.9724 
L 73.471229 277.8616 
L 78.664992 287.843918 
L 80.211921 290.7508 
L 87.253828 303.64 
z
M 366.88992 132.411526 
L 366.88992 123.1912 
L 366.88992 110.302 
L 366.88992 105.951173 
L 362.110787 97.4128 
L 354.79809 84.5236 
L 350.877424 77.696332 
L 347.403186 71.6344 
L 339.927882 58.7452 
L 334.864928 50.115189 
L 332.362475 45.856 
L 318.852432 45.856 
L 317.661414 45.856 
L 318.852432 47.864452 
L 325.27692 58.7452 
L 332.785712 71.6344 
L 334.864928 75.247601 
L 340.203316 84.5236 
L 347.51759 97.4128 
L 350.877424 103.419813 
L 354.741057 110.302 
L 361.871382 123.1912 
z
" clip-path="url(#p69279261c1)" style="fill: #5ec962"/>
    <path d="M 78.664992 303.64 
L 87.253828 303.64 
L 80.211921 290.7508 
L 78.664992 287.843918 
L 73.471229 277.8616 
L 66.977238 264.9724 
L 62.652496 256.094766 
L 60.735886 252.0832 
L 54.772109 239.194 
L 49.038323 226.3048 
L 46.64 220.705416 
L 46.64 226.3048 
L 46.64 239.194 
L 46.64 249.105894 
L 48.004052 252.0832 
L 54.099 264.9724 
L 60.412179 277.8616 
L 62.652496 282.308177 
L 66.995248 290.7508 
L 73.823857 303.64 
z
M 366.88992 105.951173 
L 366.88992 97.4128 
L 366.88992 84.5236 
L 366.88992 80.032679 
L 362.083788 71.6344 
L 354.623655 58.7452 
L 350.877424 52.336372 
L 347.091696 45.856 
L 334.864928 45.856 
L 332.362475 45.856 
L 334.864928 50.115189 
L 339.927882 58.7452 
L 347.403186 71.6344 
L 350.877424 77.696332 
L 354.79809 84.5236 
L 362.110787 97.4128 
z
" clip-path="url(#p69279261c1)" style="fill: #7fd34e"/>
    <path d="M 62.652496 303.64 
L 73.823857 303.64 
L 66.995248 290.7508 
L 62.652496 282.308177 
L 60.412179 277.8616 
L 54.099 264.9724 
L 48.004052 252.0832 
L 46.64 249.105894 
L 46.64 252.0832 
L 46.64 264.9724 
L 46.64 276.113912 
L 47.488351 277.8616 
L 53.915795 290.7508 
L 60.550072 303.64 
z
M 366.88992 80.032679 
L 366.88992 71.6344 
L 366.88992 58.7452 
L 366.88992 54.477073 
L 361.868946 45.856 
L 350.877424 45.856 
L 347.091696 45.856 
L 350.877424 52.336372 
L 354.623655 58.7452 
L 362.083788 71.6344 
z
" clip-path="url(#p69279261c1)" style="fill: #a2da37"/>
    <path d="M 53.915795 290.7508 
L 47.488351 277.8616 
L 46.64 276.113912 
L 46.64 277.8616 
L 46.64 290.7508 
L 46.64 302.098411 
L 47.426777 303.64 
L 60.550072 303.64 
z
M 366.88992 54.477073 
L 366.88992 45.856 
L 361.868946 45.856 
z
" clip-path="url(#p69279261c1)" style="fill: #c8e020"/>
    <path d="M 46.64 302.098411 
L 46.64 303.64 
L 47.426777 303.64 
z
" clip-path="url(#p69279261c1)" style="fill: #ece51b"/>
   </g>
   <g id="PathCollection_1">
    <defs>
     <path id="m375ba4bc8d" d="M 0 3 
C 0.795609 3 1.55874 2.683901 2.12132 2.12132 
C 2.683901 1.55874 3 0.795609 3 0 
C 3 -0.795609 2.683901 -1.55874 2.12132 -2.12132 
C 1.55874 -2.683901 0.795609 -3 0 -3 
C -0.795609 -3 -1.55874 -2.683901 -2.12132 -2.12132 
C -2.683901 -1.55874 -3 -0.795609 -3 0 
C -3 0.795609 -2.683901 1.55874 -2.12132 2.12132 
C -1.55874 2.683901 -0.795609 3 0 3 
z
" style="stroke: #ff0000"/>
    </defs>
    <g clip-path="url(#p69279261c1)">
     <use xlink:href="#m375ba4bc8d" x="294.833688" y="190.8595" style="fill: #ff0000; stroke: #ff0000"/>
    </g>
   </g>
   <g id="matplotlib.axis_1">
    <g id="xtick_1">
     <g id="line2d_1">
      <defs>
       <path id="m379d514a07" d="M 0 0 
L 0 3.5 
" style="stroke: #000000; stroke-width: 0.8"/>
      </defs>
      <g>
       <use xlink:href="#m379d514a07" x="46.64" y="303.64" style="stroke: #000000; stroke-width: 0.8"/>
      </g>
     </g>
     <g id="text_1">
      <!-- −4 -->
      <g transform="translate(39.268906 318.238437) scale(0.1 -0.1)">
       <defs>
        <path id="DejaVuSans-2212" d="M 678 2272 
L 4684 2272 
L 4684 1741 
L 678 1741 
L 678 2272 
z
" transform="scale(0.015625)"/>
        <path id="DejaVuSans-34" d="M 2419 4116 
L 825 1625 
L 2419 1625 
L 2419 4116 
z
M 2253 4666 
L 3047 4666 
L 3047 1625 
L 3713 1625 
L 3713 1100 
L 3047 1100 
L 3047 0 
L 2419 0 
L 2419 1100 
L 313 1100 
L 313 1709 
L 2253 4666 
z
" transform="scale(0.015625)"/>
       </defs>
       <use xlink:href="#DejaVuSans-2212"/>
       <use xlink:href="#DejaVuSans-34" transform="translate(83.789062 0)"/>
      </g>
     </g>
    </g>
    <g id="xtick_2">
     <g id="line2d_2">
      <g>
       <use xlink:href="#m379d514a07" x="86.67124" y="303.64" style="stroke: #000000; stroke-width: 0.8"/>
      </g>
     </g>
     <g id="text_2">
      <!-- −3 -->
      <g transform="translate(79.300146 318.238437) scale(0.1 -0.1)">
       <defs>
        <path id="DejaVuSans-33" d="M 2597 2516 
Q 3050 2419 3304 2112 
Q 3559 1806 3559 1356 
Q 3559 666 3084 287 
Q 2609 -91 1734 -91 
Q 1441 -91 1130 -33 
Q 819 25 488 141 
L 488 750 
Q 750 597 1062 519 
Q 1375 441 1716 441 
Q 2309 441 2620 675 
Q 2931 909 2931 1356 
Q 2931 1769 2642 2001 
Q 2353 2234 1838 2234 
L 1294 2234 
L 1294 2753 
L 1863 2753 
Q 2328 2753 2575 2939 
Q 2822 3125 2822 3475 
Q 2822 3834 2567 4026 
Q 2313 4219 1838 4219 
Q 1578 4219 1281 4162 
Q 984 4106 628 3988 
L 628 4550 
Q 988 4650 1302 4700 
Q 1616 4750 1894 4750 
Q 2613 4750 3031 4423 
Q 3450 4097 3450 3541 
Q 3450 3153 3228 2886 
Q 3006 2619 2597 2516 
z
" transform="scale(0.015625)"/>
       </defs>
       <use xlink:href="#DejaVuSans-2212"/>
       <use xlink:href="#DejaVuSans-33" transform="translate(83.789062 0)"/>
      </g>
     </g>
    </g>
    <g id="xtick_3">
     <g id="line2d_3">
      <g>
       <use xlink:href="#m379d514a07" x="126.70248" y="303.64" style="stroke: #000000; stroke-width: 0.8"/>
      </g>
     </g>
     <g id="text_3">
      <!-- −2 -->
      <g transform="translate(119.331386 318.238437) scale(0.1 -0.1)">
       <defs>
        <path id="DejaVuSans-32" d="M 1228 531 
L 3431 531 
L 3431 0 
L 469 0 
L 469 531 
Q 828 903 1448 1529 
Q 2069 2156 2228 2338 
Q 2531 2678 2651 2914 
Q 2772 3150 2772 3378 
Q 2772 3750 2511 3984 
Q 2250 4219 1831 4219 
Q 1534 4219 1204 4116 
Q 875 4013 500 3803 
L 500 4441 
Q 881 4594 1212 4672 
Q 1544 4750 1819 4750 
Q 2544 4750 2975 4387 
Q 3406 4025 3406 3419 
Q 3406 3131 3298 2873 
Q 3191 2616 2906 2266 
Q 2828 2175 2409 1742 
Q 1991 1309 1228 531 
z
" transform="scale(0.015625)"/>
       </defs>
       <use xlink:href="#DejaVuSans-2212"/>
       <use xlink:href="#DejaVuSans-32" transform="translate(83.789062 0)"/>
      </g>
     </g>
    </g>
    <g id="xtick_4">
     <g id="line2d_4">
      <g>
       <use xlink:href="#m379d514a07" x="166.73372" y="303.64" style="stroke: #000000; stroke-width: 0.8"/>
      </g>
     </g>
     <g id="text_4">
      <!-- −1 -->
      <g transform="translate(159.362626 318.238437) scale(0.1 -0.1)">
       <defs>
        <path id="DejaVuSans-31" d="M 794 531 
L 1825 531 
L 1825 4091 
L 703 3866 
L 703 4441 
L 1819 4666 
L 2450 4666 
L 2450 531 
L 3481 531 
L 3481 0 
L 794 0 
L 794 531 
z
" transform="scale(0.015625)"/>
       </defs>
       <use xlink:href="#DejaVuSans-2212"/>
       <use xlink:href="#DejaVuSans-31" transform="translate(83.789062 0)"/>
      </g>
     </g>
    </g>
    <g id="xtick_5">
     <g id="line2d_5">
      <g>
       <use xlink:href="#m379d514a07" x="206.76496" y="303.64" style="stroke: #000000; stroke-width: 0.8"/>
      </g>
     </g>
     <g id="text_5">
      <!-- 0 -->
      <g transform="translate(203.58371 318.238437) scale(0.1 -0.1)">
       <defs>
        <path id="DejaVuSans-30" d="M 2034 4250 
Q 1547 4250 1301 3770 
Q 1056 3291 1056 2328 
Q 1056 1369 1301 889 
Q 1547 409 2034 409 
Q 2525 409 2770 889 
Q 3016 1369 3016 2328 
Q 3016 3291 2770 3770 
Q 2525 4250 2034 4250 
z
M 2034 4750 
Q 2819 4750 3233 4129 
Q 3647 3509 3647 2328 
Q 3647 1150 3233 529 
Q 2819 -91 2034 -91 
Q 1250 -91 836 529 
Q 422 1150 422 2328 
Q 422 3509 836 4129 
Q 1250 4750 2034 4750 
z
" transform="scale(0.015625)"/>
       </defs>
       <use xlink:href="#DejaVuSans-30"/>
      </g>
     </g>
    </g>
    <g id="xtick_6">
     <g id="line2d_6">
      <g>
       <use xlink:href="#m379d514a07" x="246.7962" y="303.64" style="stroke: #000000; stroke-width: 0.8"/>
      </g>
     </g>
     <g id="text_6">
      <!-- 1 -->
      <g transform="translate(243.61495 318.238437) scale(0.1 -0.1)">
       <use xlink:href="#DejaVuSans-31"/>
      </g>
     </g>
    </g>
    <g id="xtick_7">
     <g id="line2d_7">
      <g>
       <use xlink:href="#m379d514a07" x="286.82744" y="303.64" style="stroke: #000000; stroke-width: 0.8"/>
      </g>
     </g>
     <g id="text_7">
      <!-- 2 -->
      <g transform="translate(283.64619 318.238437) scale(0.1 -0.1)">
       <use xlink:href="#DejaVuSans-32"/>
      </g>
     </g>
    </g>
    <g id="xtick_8">
     <g id="line2d_8">
      <g>
       <use xlink:href="#m379d514a07" x="326.85868" y="303.64" style="stroke: #000000; stroke-width: 0.8"/>
      </g>
     </g>
     <g id="text_8">
      <!-- 3 -->
      <g transform="translate(323.67743 318.238437) scale(0.1 -0.1)">
       <use xlink:href="#DejaVuSans-33"/>
      </g>
     </g>
    </g>
    <g id="xtick_9">
     <g id="line2d_9">
      <g>
       <use xlink:href="#m379d514a07" x="366.88992" y="303.64" style="stroke: #000000; stroke-width: 0.8"/>
      </g>
     </g>
     <g id="text_9">
      <!-- 4 -->
      <g transform="translate(363.70867 318.238437) scale(0.1 -0.1)">
       <use xlink:href="#DejaVuSans-34"/>
      </g>
     </g>
    </g>
    <g id="text_10">
     <!-- Relative distance in first direction -->
     <g transform="translate(122.82121 331.916562) scale(0.1 -0.1)">
      <defs>
       <path id="DejaVuSans-52" d="M 2841 2188 
Q 3044 2119 3236 1894 
Q 3428 1669 3622 1275 
L 4263 0 
L 3584 0 
L 2988 1197 
Q 2756 1666 2539 1819 
Q 2322 1972 1947 1972 
L 1259 1972 
L 1259 0 
L 628 0 
L 628 4666 
L 2053 4666 
Q 2853 4666 3247 4331 
Q 3641 3997 3641 3322 
Q 3641 2881 3436 2590 
Q 3231 2300 2841 2188 
z
M 1259 4147 
L 1259 2491 
L 2053 2491 
Q 2509 2491 2742 2702 
Q 2975 2913 2975 3322 
Q 2975 3731 2742 3939 
Q 2509 4147 2053 4147 
L 1259 4147 
z
" transform="scale(0.015625)"/>
       <path id="DejaVuSans-65" d="M 3597 1894 
L 3597 1613 
L 953 1613 
Q 991 1019 1311 708 
Q 1631 397 2203 397 
Q 2534 397 2845 478 
Q 3156 559 3463 722 
L 3463 178 
Q 3153 47 2828 -22 
Q 2503 -91 2169 -91 
Q 1331 -91 842 396 
Q 353 884 353 1716 
Q 353 2575 817 3079 
Q 1281 3584 2069 3584 
Q 2775 3584 3186 3129 
Q 3597 2675 3597 1894 
z
M 3022 2063 
Q 3016 2534 2758 2815 
Q 2500 3097 2075 3097 
Q 1594 3097 1305 2825 
Q 1016 2553 972 2059 
L 3022 2063 
z
" transform="scale(0.015625)"/>
       <path id="DejaVuSans-6c" d="M 603 4863 
L 1178 4863 
L 1178 0 
L 603 0 
L 603 4863 
z
" transform="scale(0.015625)"/>
       <path id="DejaVuSans-61" d="M 2194 1759 
Q 1497 1759 1228 1600 
Q 959 1441 959 1056 
Q 959 750 1161 570 
Q 1363 391 1709 391 
Q 2188 391 2477 730 
Q 2766 1069 2766 1631 
L 2766 1759 
L 2194 1759 
z
M 3341 1997 
L 3341 0 
L 2766 0 
L 2766 531 
Q 2569 213 2275 61 
Q 1981 -91 1556 -91 
Q 1019 -91 701 211 
Q 384 513 384 1019 
Q 384 1609 779 1909 
Q 1175 2209 1959 2209 
L 2766 2209 
L 2766 2266 
Q 2766 2663 2505 2880 
Q 2244 3097 1772 3097 
Q 1472 3097 1187 3025 
Q 903 2953 641 2809 
L 641 3341 
Q 956 3463 1253 3523 
Q 1550 3584 1831 3584 
Q 2591 3584 2966 3190 
Q 3341 2797 3341 1997 
z
" transform="scale(0.015625)"/>
       <path id="DejaVuSans-74" d="M 1172 4494 
L 1172 3500 
L 2356 3500 
L 2356 3053 
L 1172 3053 
L 1172 1153 
Q 1172 725 1289 603 
Q 1406 481 1766 481 
L 2356 481 
L 2356 0 
L 1766 0 
Q 1100 0 847 248 
Q 594 497 594 1153 
L 594 3053 
L 172 3053 
L 172 3500 
L 594 3500 
L 594 4494 
L 1172 4494 
z
" transform="scale(0.015625)"/>
       <path id="DejaVuSans-69" d="M 603 3500 
L 1178 3500 
L 1178 0 
L 603 0 
L 603 3500 
z
M 603 4863 
L 1178 4863 
L 1178 4134 
L 603 4134 
L 603 4863 
z
" transform="scale(0.015625)"/>
       <path id="DejaVuSans-76" d="M 191 3500 
L 800 3500 
L 1894 563 
L 2988 3500 
L 3597 3500 
L 2284 0 
L 1503 0 
L 191 3500 
z
" transform="scale(0.015625)"/>
       <path id="DejaVuSans-20" transform="scale(0.015625)"/>
       <path id="DejaVuSans-64" d="M 2906 2969 
L 2906 4863 
L 3481 4863 
L 3481 0 
L 2906 0 
L 2906 525 
Q 2725 213 2448 61 
Q 2172 -91 1784 -91 
Q 1150 -91 751 415 
Q 353 922 353 1747 
Q 353 2572 751 3078 
Q 1150 3584 1784 3584 
Q 2172 3584 2448 3432 
Q 2725 3281 2906 2969 
z
M 947 1747 
Q 947 1113 1208 752 
Q 1469 391 1925 391 
Q 2381 391 2643 752 
Q 2906 1113 2906 1747 
Q 2906 2381 2643 2742 
Q 2381 3103 1925 3103 
Q 1469 3103 1208 2742 
Q 947 2381 947 1747 
z
" transform="scale(0.015625)"/>
       <path id="DejaVuSans-73" d="M 2834 3397 
L 2834 2853 
Q 2591 2978 2328 3040 
Q 2066 3103 1784 3103 
Q 1356 3103 1142 2972 
Q 928 2841 928 2578 
Q 928 2378 1081 2264 
Q 1234 2150 1697 2047 
L 1894 2003 
Q 2506 1872 2764 1633 
Q 3022 1394 3022 966 
Q 3022 478 2636 193 
Q 2250 -91 1575 -91 
Q 1294 -91 989 -36 
Q 684 19 347 128 
L 347 722 
Q 666 556 975 473 
Q 1284 391 1588 391 
Q 1994 391 2212 530 
Q 2431 669 2431 922 
Q 2431 1156 2273 1281 
Q 2116 1406 1581 1522 
L 1381 1569 
Q 847 1681 609 1914 
Q 372 2147 372 2553 
Q 372 3047 722 3315 
Q 1072 3584 1716 3584 
Q 2034 3584 2315 3537 
Q 2597 3491 2834 3397 
z
" transform="scale(0.015625)"/>
       <path id="DejaVuSans-6e" d="M 3513 2113 
L 3513 0 
L 2938 0 
L 2938 2094 
Q 2938 2591 2744 2837 
Q 2550 3084 2163 3084 
Q 1697 3084 1428 2787 
Q 1159 2491 1159 1978 
L 1159 0 
L 581 0 
L 581 3500 
L 1159 3500 
L 1159 2956 
Q 1366 3272 1645 3428 
Q 1925 3584 2291 3584 
Q 2894 3584 3203 3211 
Q 3513 2838 3513 2113 
z
" transform="scale(0.015625)"/>
       <path id="DejaVuSans-63" d="M 3122 3366 
L 3122 2828 
Q 2878 2963 2633 3030 
Q 2388 3097 2138 3097 
Q 1578 3097 1268 2742 
Q 959 2388 959 1747 
Q 959 1106 1268 751 
Q 1578 397 2138 397 
Q 2388 397 2633 464 
Q 2878 531 3122 666 
L 3122 134 
Q 2881 22 2623 -34 
Q 2366 -91 2075 -91 
Q 1284 -91 818 406 
Q 353 903 353 1747 
Q 353 2603 823 3093 
Q 1294 3584 2113 3584 
Q 2378 3584 2631 3529 
Q 2884 3475 3122 3366 
z
" transform="scale(0.015625)"/>
       <path id="DejaVuSans-66" d="M 2375 4863 
L 2375 4384 
L 1825 4384 
Q 1516 4384 1395 4259 
Q 1275 4134 1275 3809 
L 1275 3500 
L 2222 3500 
L 2222 3053 
L 1275 3053 
L 1275 0 
L 697 0 
L 697 3053 
L 147 3053 
L 147 3500 
L 697 3500 
L 697 3744 
Q 697 4328 969 4595 
Q 1241 4863 1831 4863 
L 2375 4863 
z
" transform="scale(0.015625)"/>
       <path id="DejaVuSans-72" d="M 2631 2963 
Q 2534 3019 2420 3045 
Q 2306 3072 2169 3072 
Q 1681 3072 1420 2755 
Q 1159 2438 1159 1844 
L 1159 0 
L 581 0 
L 581 3500 
L 1159 3500 
L 1159 2956 
Q 1341 3275 1631 3429 
Q 1922 3584 2338 3584 
Q 2397 3584 2469 3576 
Q 2541 3569 2628 3553 
L 2631 2963 
z
" transform="scale(0.015625)"/>
       <path id="DejaVuSans-6f" d="M 1959 3097 
Q 1497 3097 1228 2736 
Q 959 2375 959 1747 
Q 959 1119 1226 758 
Q 1494 397 1959 397 
Q 2419 397 2687 759 
Q 2956 1122 2956 1747 
Q 2956 2369 2687 2733 
Q 2419 3097 1959 3097 
z
M 1959 3584 
Q 2709 3584 3137 3096 
Q 3566 2609 3566 1747 
Q 3566 888 3137 398 
Q 2709 -91 1959 -91 
Q 1206 -91 779 398 
Q 353 888 353 1747 
Q 353 2609 779 3096 
Q 1206 3584 1959 3584 
z
" transform="scale(0.015625)"/>
      </defs>
      <use xlink:href="#DejaVuSans-52"/>
      <use xlink:href="#DejaVuSans-65" transform="translate(64.982422 0)"/>
      <use xlink:href="#DejaVuSans-6c" transform="translate(126.505859 0)"/>
      <use xlink:href="#DejaVuSans-61" transform="translate(154.289062 0)"/>
      <use xlink:href="#DejaVuSans-74" transform="translate(215.568359 0)"/>
      <use xlink:href="#DejaVuSans-69" transform="translate(254.777344 0)"/>
      <use xlink:href="#DejaVuSans-76" transform="translate(282.560547 0)"/>
      <use xlink:href="#DejaVuSans-65" transform="translate(341.740234 0)"/>
      <use xlink:href="#DejaVuSans-20" transform="translate(403.263672 0)"/>
      <use xlink:href="#DejaVuSans-64" transform="translate(435.050781 0)"/>
      <use xlink:href="#DejaVuSans-69" transform="translate(498.527344 0)"/>
      <use xlink:href="#DejaVuSans-73" transform="translate(526.310547 0)"/>
      <use xlink:href="#DejaVuSans-74" transform="translate(578.410156 0)"/>
      <use xlink:href="#DejaVuSans-61" transform="translate(617.619141 0)"/>
      <use xlink:href="#DejaVuSans-6e" transform="translate(678.898438 0)"/>
      <use xlink:href="#DejaVuSans-63" transform="translate(742.277344 0)"/>
      <use xlink:href="#DejaVuSans-65" transform="translate(797.257812 0)"/>
      <use xlink:href="#DejaVuSans-20" transform="translate(858.78125 0)"/>
      <use xlink:href="#DejaVuSans-69" transform="translate(890.568359 0)"/>
      <use xlink:href="#DejaVuSans-6e" transform="translate(918.351562 0)"/>
      <use xlink:href="#DejaVuSans-20" transform="translate(981.730469 0)"/>
      <use xlink:href="#DejaVuSans-66" transform="translate(1013.517578 0)"/>
      <use xlink:href="#DejaVuSans-69" transform="translate(1048.722656 0)"/>
      <use xlink:href="#DejaVuSans-72" transform="translate(1076.505859 0)"/>
      <use xlink:href="#DejaVuSans-73" transform="translate(1117.619141 0)"/>
      <use xlink:href="#DejaVuSans-74" transform="translate(1169.71875 0)"/>
      <use xlink:href="#DejaVuSans-20" transform="translate(1208.927734 0)"/>
      <use xlink:href="#DejaVuSans-64" transform="translate(1240.714844 0)"/>
      <use xlink:href="#DejaVuSans-69" transform="translate(1304.191406 0)"/>
      <use xlink:href="#DejaVuSans-72" transform="translate(1331.974609 0)"/>
      <use xlink:href="#DejaVuSans-65" transform="translate(1370.837891 0)"/>
      <use xlink:href="#DejaVuSans-63" transform="translate(1432.361328 0)"/>
      <use xlink:href="#DejaVuSans-74" transform="translate(1487.341797 0)"/>
      <use xlink:href="#DejaVuSans-69" transform="translate(1526.550781 0)"/>
      <use xlink:href="#DejaVuSans-6f" transform="translate(1554.333984 0)"/>
      <use xlink:href="#DejaVuSans-6e" transform="translate(1615.515625 0)"/>
     </g>
    </g>
   </g>
   <g id="matplotlib.axis_2">
    <g id="ytick_1">
     <g id="line2d_10">
      <defs>
       <path id="m692ee4a831" d="M 0 0 
L -3.5 0 
" style="stroke: #000000; stroke-width: 0.8"/>
      </defs>
      <g>
       <use xlink:href="#m692ee4a831" x="46.64" y="303.64" style="stroke: #000000; stroke-width: 0.8"/>
      </g>
     </g>
     <g id="text_11">
      <!-- −4 -->
      <g transform="translate(24.897813 307.439219) scale(0.1 -0.1)">
       <use xlink:href="#DejaVuSans-2212"/>
       <use xlink:href="#DejaVuSans-34" transform="translate(83.789062 0)"/>
      </g>
     </g>
    </g>
    <g id="ytick_2">
     <g id="line2d_11">
      <g>
       <use xlink:href="#m692ee4a831" x="46.64" y="271.417" style="stroke: #000000; stroke-width: 0.8"/>
      </g>
     </g>
     <g id="text_12">
      <!-- −3 -->
      <g transform="translate(24.897813 275.216219) scale(0.1 -0.1)">
       <use xlink:href="#DejaVuSans-2212"/>
       <use xlink:href="#DejaVuSans-33" transform="translate(83.789062 0)"/>
      </g>
     </g>
    </g>
    <g id="ytick_3">
     <g id="line2d_12">
      <g>
       <use xlink:href="#m692ee4a831" x="46.64" y="239.194" style="stroke: #000000; stroke-width: 0.8"/>
      </g>
     </g>
     <g id="text_13">
      <!-- −2 -->
      <g transform="translate(24.897813 242.993219) scale(0.1 -0.1)">
       <use xlink:href="#DejaVuSans-2212"/>
       <use xlink:href="#DejaVuSans-32" transform="translate(83.789062 0)"/>
      </g>
     </g>
    </g>
    <g id="ytick_4">
     <g id="line2d_13">
      <g>
       <use xlink:href="#m692ee4a831" x="46.64" y="206.971" style="stroke: #000000; stroke-width: 0.8"/>
      </g>
     </g>
     <g id="text_14">
      <!-- −1 -->
      <g transform="translate(24.897813 210.770219) scale(0.1 -0.1)">
       <use xlink:href="#DejaVuSans-2212"/>
       <use xlink:href="#DejaVuSans-31" transform="translate(83.789062 0)"/>
      </g>
     </g>
    </g>
    <g id="ytick_5">
     <g id="line2d_14">
      <g>
       <use xlink:href="#m692ee4a831" x="46.64" y="174.748" style="stroke: #000000; stroke-width: 0.8"/>
      </g>
     </g>
     <g id="text_15">
      <!-- 0 -->
      <g transform="translate(33.2775 178.547219) scale(0.1 -0.1)">
       <use xlink:href="#DejaVuSans-30"/>
      </g>
     </g>
    </g>
    <g id="ytick_6">
     <g id="line2d_15">
      <g>
       <use xlink:href="#m692ee4a831" x="46.64" y="142.525" style="stroke: #000000; stroke-width: 0.8"/>
      </g>
     </g>
     <g id="text_16">
      <!-- 1 -->
      <g transform="translate(33.2775 146.324219) scale(0.1 -0.1)">
       <use xlink:href="#DejaVuSans-31"/>
      </g>
     </g>
    </g>
    <g id="ytick_7">
     <g id="line2d_16">
      <g>
       <use xlink:href="#m692ee4a831" x="46.64" y="110.302" style="stroke: #000000; stroke-width: 0.8"/>
      </g>
     </g>
     <g id="text_17">
      <!-- 2 -->
      <g transform="translate(33.2775 114.101219) scale(0.1 -0.1)">
       <use xlink:href="#DejaVuSans-32"/>
      </g>
     </g>
    </g>
    <g id="ytick_8">
     <g id="line2d_17">
      <g>
       <use xlink:href="#m692ee4a831" x="46.64" y="78.079" style="stroke: #000000; stroke-width: 0.8"/>
      </g>
     </g>
     <g id="text_18">
      <!-- 3 -->
      <g transform="translate(33.2775 81.878219) scale(0.1 -0.1)">
       <use xlink:href="#DejaVuSans-33"/>
      </g>
     </g>
    </g>
    <g id="ytick_9">
     <g id="line2d_18">
      <g>
       <use xlink:href="#m692ee4a831" x="46.64" y="45.856" style="stroke: #000000; stroke-width: 0.8"/>
      </g>
     </g>
     <g id="text_19">
      <!-- 4 -->
      <g transform="translate(33.2775 49.655219) scale(0.1 -0.1)">
       <use xlink:href="#DejaVuSans-34"/>
      </g>
     </g>
    </g>
    <g id="text_20">
     <!-- Relative distance in second direction -->
     <g transform="translate(18.818125 266.755031) rotate(-90) scale(0.1 -0.1)">
      <use xlink:href="#DejaVuSans-52"/>
      <use xlink:href="#DejaVuSans-65" transform="translate(64.982422 0)"/>
      <use xlink:href="#DejaVuSans-6c" transform="translate(126.505859 0)"/>
      <use xlink:href="#DejaVuSans-61" transform="translate(154.289062 0)"/>
      <use xlink:href="#DejaVuSans-74" transform="translate(215.568359 0)"/>
      <use xlink:href="#DejaVuSans-69" transform="translate(254.777344 0)"/>
      <use xlink:href="#DejaVuSans-76" transform="translate(282.560547 0)"/>
      <use xlink:href="#DejaVuSans-65" transform="translate(341.740234 0)"/>
      <use xlink:href="#DejaVuSans-20" transform="translate(403.263672 0)"/>
      <use xlink:href="#DejaVuSans-64" transform="translate(435.050781 0)"/>
      <use xlink:href="#DejaVuSans-69" transform="translate(498.527344 0)"/>
      <use xlink:href="#DejaVuSans-73" transform="translate(526.310547 0)"/>
      <use xlink:href="#DejaVuSans-74" transform="translate(578.410156 0)"/>
      <use xlink:href="#DejaVuSans-61" transform="translate(617.619141 0)"/>
      <use xlink:href="#DejaVuSans-6e" transform="translate(678.898438 0)"/>
      <use xlink:href="#DejaVuSans-63" transform="translate(742.277344 0)"/>
      <use xlink:href="#DejaVuSans-65" transform="translate(797.257812 0)"/>
      <use xlink:href="#DejaVuSans-20" transform="translate(858.78125 0)"/>
      <use xlink:href="#DejaVuSans-69" transform="translate(890.568359 0)"/>
      <use xlink:href="#DejaVuSans-6e" transform="translate(918.351562 0)"/>
      <use xlink:href="#DejaVuSans-20" transform="translate(981.730469 0)"/>
      <use xlink:href="#DejaVuSans-73" transform="translate(1013.517578 0)"/>
      <use xlink:href="#DejaVuSans-65" transform="translate(1065.617188 0)"/>
      <use xlink:href="#DejaVuSans-63" transform="translate(1127.140625 0)"/>
      <use xlink:href="#DejaVuSans-6f" transform="translate(1182.121094 0)"/>
      <use xlink:href="#DejaVuSans-6e" transform="translate(1243.302734 0)"/>
      <use xlink:href="#DejaVuSans-64" transform="translate(1306.681641 0)"/>
      <use xlink:href="#DejaVuSans-20" transform="translate(1370.158203 0)"/>
      <use xlink:href="#DejaVuSans-64" transform="translate(1401.945312 0)"/>
      <use xlink:href="#DejaVuSans-69" transform="translate(1465.421875 0)"/>
      <use xlink:href="#DejaVuSans-72" transform="translate(1493.205078 0)"/>
      <use xlink:href="#DejaVuSans-65" transform="translate(1532.068359 0)"/>
      <use xlink:href="#DejaVuSans-63" transform="translate(1593.591797 0)"/>
      <use xlink:href="#DejaVuSans-74" transform="translate(1648.572266 0)"/>
      <use xlink:href="#DejaVuSans-69" transform="translate(1687.78125 0)"/>
      <use xlink:href="#DejaVuSans-6f" transform="translate(1715.564453 0)"/>
      <use xlink:href="#DejaVuSans-6e" transform="translate(1776.746094 0)"/>
     </g>
    </g>
   </g>
   <g id="line2d_19">
    <path d="M 294.833688 190.8595 
L 294.000416 189.824492 
L 296.233298 191.175584 
L 301.078285 195.017021 
L 307.260363 200.56053 
L 306.635817 200.158535 
L 301.310421 196.395963 
L 300.920267 196.160629 
L 301.085292 196.357335 
L 302.551648 198.333893 
L 304.820587 200.852506 
L 307.428455 203.444534 
L 307.18921 203.404965 
L 307.046765 203.732532 
L 306.823813 203.796239 
L 305.737768 203.50443 
L 303.872073 202.405937 
L 300.931559 200.203155 
L 300.453336 199.719758 
L 295.872058 196.218956 
L 293.775151 194.527968 
L 293.993426 194.648117 
L 294.404811 194.886378 
L 294.045208 194.798092 
L 293.91253 194.79434 
L 289.920089 192.630159 
L 288.850884 192.211999 
L 288.144339 192.174924 
L 288.051495 192.233172 
L 284.984548 190.883082 
L 287.198396 192.905059 
L 293.213571 197.912058 
L 296.242888 200.154718 
L 299.816429 202.140946 
L 299.38354 201.779365 
L 293.136922 197.61166 
L 291.37846 196.405317 
L 290.588675 195.699371 
L 290.42897 195.475694 
L 290.530366 195.517018 
L 291.116254 195.65295 
L 291.880465 196.141815 
L 292.302909 196.432853 
L 293.869899 197.16067 
L 293.15022 196.915887 
L 292.983355 197.048859 
L 292.902008 197.147069 
L 292.676097 197.088951 
L 292.982284 197.248987 
L 291.620984 196.479339 
L 291.453402 196.57349 
L 291.884164 197.160176 
L 286.472897 194.155002 
L 285.507605 193.790504 
L 286.045471 194.449734 
L 287.376219 195.678538 
L 289.516113 197.255926 
L 291.73764 198.694639 
L 293.436116 199.481492 
L 293.782605 199.610687 
L 296.049332 201.039201 
L 296.495036 201.198841 
L 296.187386 200.723233 
L 296.406546 200.648903 
L 296.338896 200.570351 
L 289.485499 195.904641 
L 284.464838 193.016188 
L 279.327121 190.109848 
L 277.729204 188.97439 
L 277.863015 189.053482 
L 278.25263 189.241513 
L 288.077903 197.058396 
L 289.532632 198.419294 
L 289.461944 198.320115 
L 289.244134 198.060427 
L 289.037892 197.802383 
L 289.113367 197.774697 
L 290.406919 198.440378 
L 292.005782 199.359029 
L 293.003885 199.470331 
L 293.003885 199.470331 
" clip-path="url(#p69279261c1)" style="fill: none; stroke: #ff0000; stroke-width: 1.5; stroke-linecap: square"/>
   </g>
   <g id="patch_3">
    <path d="M 46.64 303.64 
L 46.64 45.856 
" style="fill: none; stroke: #000000; stroke-width: 0.8; stroke-linejoin: miter; stroke-linecap: square"/>
   </g>
   <g id="patch_4">
    <path d="M 366.88992 303.64 
L 366.88992 45.856 
" style="fill: none; stroke: #000000; stroke-width: 0.8; stroke-linejoin: miter; stroke-linecap: square"/>
   </g>
   <g id="patch_5">
    <path d="M 46.64 303.64 
L 366.88992 303.64 
" style="fill: none; stroke: #000000; stroke-width: 0.8; stroke-linejoin: miter; stroke-linecap: square"/>
   </g>
   <g id="patch_6">
    <path d="M 46.64 45.856 
L 366.88992 45.856 
" style="fill: none; stroke: #000000; stroke-width: 0.8; stroke-linejoin: miter; stroke-linecap: square"/>
   </g>
   <g id="text_21">
    <!-- Relative error across two random directions -->
    <g transform="translate(75.663085 22.418625) scale(0.12 -0.12)">
     <defs>
      <path id="DejaVuSans-77" d="M 269 3500 
L 844 3500 
L 1563 769 
L 2278 3500 
L 2956 3500 
L 3675 769 
L 4391 3500 
L 4966 3500 
L 4050 0 
L 3372 0 
L 2619 2869 
L 1863 0 
L 1184 0 
L 269 3500 
z
" transform="scale(0.015625)"/>
      <path id="DejaVuSans-6d" d="M 3328 2828 
Q 3544 3216 3844 3400 
Q 4144 3584 4550 3584 
Q 5097 3584 5394 3201 
Q 5691 2819 5691 2113 
L 5691 0 
L 5113 0 
L 5113 2094 
Q 5113 2597 4934 2840 
Q 4756 3084 4391 3084 
Q 3944 3084 3684 2787 
Q 3425 2491 3425 1978 
L 3425 0 
L 2847 0 
L 2847 2094 
Q 2847 2600 2669 2842 
Q 2491 3084 2119 3084 
Q 1678 3084 1418 2786 
Q 1159 2488 1159 1978 
L 1159 0 
L 581 0 
L 581 3500 
L 1159 3500 
L 1159 2956 
Q 1356 3278 1631 3431 
Q 1906 3584 2284 3584 
Q 2666 3584 2933 3390 
Q 3200 3197 3328 2828 
z
" transform="scale(0.015625)"/>
     </defs>
     <use xlink:href="#DejaVuSans-52"/>
     <use xlink:href="#DejaVuSans-65" transform="translate(64.982422 0)"/>
     <use xlink:href="#DejaVuSans-6c" transform="translate(126.505859 0)"/>
     <use xlink:href="#DejaVuSans-61" transform="translate(154.289062 0)"/>
     <use xlink:href="#DejaVuSans-74" transform="translate(215.568359 0)"/>
     <use xlink:href="#DejaVuSans-69" transform="translate(254.777344 0)"/>
     <use xlink:href="#DejaVuSans-76" transform="translate(282.560547 0)"/>
     <use xlink:href="#DejaVuSans-65" transform="translate(341.740234 0)"/>
     <use xlink:href="#DejaVuSans-20" transform="translate(403.263672 0)"/>
     <use xlink:href="#DejaVuSans-65" transform="translate(435.050781 0)"/>
     <use xlink:href="#DejaVuSans-72" transform="translate(496.574219 0)"/>
     <use xlink:href="#DejaVuSans-72" transform="translate(535.9375 0)"/>
     <use xlink:href="#DejaVuSans-6f" transform="translate(574.800781 0)"/>
     <use xlink:href="#DejaVuSans-72" transform="translate(635.982422 0)"/>
     <use xlink:href="#DejaVuSans-20" transform="translate(677.095703 0)"/>
     <use xlink:href="#DejaVuSans-61" transform="translate(708.882812 0)"/>
     <use xlink:href="#DejaVuSans-63" transform="translate(770.162109 0)"/>
     <use xlink:href="#DejaVuSans-72" transform="translate(825.142578 0)"/>
     <use xlink:href="#DejaVuSans-6f" transform="translate(864.005859 0)"/>
     <use xlink:href="#DejaVuSans-73" transform="translate(925.1875 0)"/>
     <use xlink:href="#DejaVuSans-73" transform="translate(977.287109 0)"/>
     <use xlink:href="#DejaVuSans-20" transform="translate(1029.386719 0)"/>
     <use xlink:href="#DejaVuSans-74" transform="translate(1061.173828 0)"/>
     <use xlink:href="#DejaVuSans-77" transform="translate(1100.382812 0)"/>
     <use xlink:href="#DejaVuSans-6f" transform="translate(1182.169922 0)"/>
     <use xlink:href="#DejaVuSans-20" transform="translate(1243.351562 0)"/>
     <use xlink:href="#DejaVuSans-72" transform="translate(1275.138672 0)"/>
     <use xlink:href="#DejaVuSans-61" transform="translate(1316.251953 0)"/>
     <use xlink:href="#DejaVuSans-6e" transform="translate(1377.53125 0)"/>
     <use xlink:href="#DejaVuSans-64" transform="translate(1440.910156 0)"/>
     <use xlink:href="#DejaVuSans-6f" transform="translate(1504.386719 0)"/>
     <use xlink:href="#DejaVuSans-6d" transform="translate(1565.568359 0)"/>
     <use xlink:href="#DejaVuSans-20" transform="translate(1662.980469 0)"/>
     <use xlink:href="#DejaVuSans-64" transform="translate(1694.767578 0)"/>
     <use xlink:href="#DejaVuSans-69" transform="translate(1758.244141 0)"/>
     <use xlink:href="#DejaVuSans-72" transform="translate(1786.027344 0)"/>
     <use xlink:href="#DejaVuSans-65" transform="translate(1824.890625 0)"/>
     <use xlink:href="#DejaVuSans-63" transform="translate(1886.414062 0)"/>
     <use xlink:href="#DejaVuSans-74" transform="translate(1941.394531 0)"/>
     <use xlink:href="#DejaVuSans-69" transform="translate(1980.603516 0)"/>
     <use xlink:href="#DejaVuSans-6f" transform="translate(2008.386719 0)"/>
     <use xlink:href="#DejaVuSans-6e" transform="translate(2069.568359 0)"/>
     <use xlink:href="#DejaVuSans-73" transform="translate(2132.947266 0)"/>
    </g>
    <!-- in unknown parameters -->
    <g transform="translate(135.41746 35.856) scale(0.12 -0.12)">
     <defs>
      <path id="DejaVuSans-75" d="M 544 1381 
L 544 3500 
L 1119 3500 
L 1119 1403 
Q 1119 906 1312 657 
Q 1506 409 1894 409 
Q 2359 409 2629 706 
Q 2900 1003 2900 1516 
L 2900 3500 
L 3475 3500 
L 3475 0 
L 2900 0 
L 2900 538 
Q 2691 219 2414 64 
Q 2138 -91 1772 -91 
Q 1169 -91 856 284 
Q 544 659 544 1381 
z
M 1991 3584 
L 1991 3584 
z
" transform="scale(0.015625)"/>
      <path id="DejaVuSans-6b" d="M 581 4863 
L 1159 4863 
L 1159 1991 
L 2875 3500 
L 3609 3500 
L 1753 1863 
L 3688 0 
L 2938 0 
L 1159 1709 
L 1159 0 
L 581 0 
L 581 4863 
z
" transform="scale(0.015625)"/>
      <path id="DejaVuSans-70" d="M 1159 525 
L 1159 -1331 
L 581 -1331 
L 581 3500 
L 1159 3500 
L 1159 2969 
Q 1341 3281 1617 3432 
Q 1894 3584 2278 3584 
Q 2916 3584 3314 3078 
Q 3713 2572 3713 1747 
Q 3713 922 3314 415 
Q 2916 -91 2278 -91 
Q 1894 -91 1617 61 
Q 1341 213 1159 525 
z
M 3116 1747 
Q 3116 2381 2855 2742 
Q 2594 3103 2138 3103 
Q 1681 3103 1420 2742 
Q 1159 2381 1159 1747 
Q 1159 1113 1420 752 
Q 1681 391 2138 391 
Q 2594 391 2855 752 
Q 3116 1113 3116 1747 
z
" transform="scale(0.015625)"/>
     </defs>
     <use xlink:href="#DejaVuSans-69"/>
     <use xlink:href="#DejaVuSans-6e" transform="translate(27.783203 0)"/>
     <use xlink:href="#DejaVuSans-20" transform="translate(91.162109 0)"/>
     <use xlink:href="#DejaVuSans-75" transform="translate(122.949219 0)"/>
     <use xlink:href="#DejaVuSans-6e" transform="translate(186.328125 0)"/>
     <use xlink:href="#DejaVuSans-6b" transform="translate(249.707031 0)"/>
     <use xlink:href="#DejaVuSans-6e" transform="translate(307.617188 0)"/>
     <use xlink:href="#DejaVuSans-6f" transform="translate(370.996094 0)"/>
     <use xlink:href="#DejaVuSans-77" transform="translate(432.177734 0)"/>
     <use xlink:href="#DejaVuSans-6e" transform="translate(513.964844 0)"/>
     <use xlink:href="#DejaVuSans-20" transform="translate(577.34375 0)"/>
     <use xlink:href="#DejaVuSans-70" transform="translate(609.130859 0)"/>
     <use xlink:href="#DejaVuSans-61" transform="translate(672.607422 0)"/>
     <use xlink:href="#DejaVuSans-72" transform="translate(733.886719 0)"/>
     <use xlink:href="#DejaVuSans-61" transform="translate(775 0)"/>
     <use xlink:href="#DejaVuSans-6d" transform="translate(836.279297 0)"/>
     <use xlink:href="#DejaVuSans-65" transform="translate(933.691406 0)"/>
     <use xlink:href="#DejaVuSans-74" transform="translate(995.214844 0)"/>
     <use xlink:href="#DejaVuSans-65" transform="translate(1034.423828 0)"/>
     <use xlink:href="#DejaVuSans-72" transform="translate(1095.947266 0)"/>
     <use xlink:href="#DejaVuSans-73" transform="translate(1137.060547 0)"/>
    </g>
   </g>
  </g>
  <g id="axes_2">
   <g id="patch_7">
    <path d="M 386.90554 303.64 
L 399.79474 303.64 
L 399.79474 45.856 
L 386.90554 45.856 
z
" style="fill: #ffffff"/>
   </g>
   <g id="QuadMesh_1">
    <path d="M 386.90554 303.64 
L 399.79474 303.64 
L 399.79474 289.318667 
L 386.90554 289.318667 
L 386.90554 303.64 
" clip-path="url(#p293be8ce06)" style="fill: #460b5e"/>
    <path d="M 386.90554 289.318667 
L 399.79474 289.318667 
L 399.79474 274.997333 
L 386.90554 274.997333 
L 386.90554 289.318667 
" clip-path="url(#p293be8ce06)" style="fill: #481f70"/>
    <path d="M 386.90554 274.997333 
L 399.79474 274.997333 
L 399.79474 260.676 
L 386.90554 260.676 
L 386.90554 274.997333 
" clip-path="url(#p293be8ce06)" style="fill: #46307e"/>
    <path d="M 386.90554 260.676 
L 399.79474 260.676 
L 399.79474 246.354667 
L 386.90554 246.354667 
L 386.90554 260.676 
" clip-path="url(#p293be8ce06)" style="fill: #424186"/>
    <path d="M 386.90554 246.354667 
L 399.79474 246.354667 
L 399.79474 232.033333 
L 386.90554 232.033333 
L 386.90554 246.354667 
" clip-path="url(#p293be8ce06)" style="fill: #3b528b"/>
    <path d="M 386.90554 232.033333 
L 399.79474 232.033333 
L 399.79474 217.712 
L 386.90554 217.712 
L 386.90554 232.033333 
" clip-path="url(#p293be8ce06)" style="fill: #34618d"/>
    <path d="M 386.90554 217.712 
L 399.79474 217.712 
L 399.79474 203.390667 
L 386.90554 203.390667 
L 386.90554 217.712 
" clip-path="url(#p293be8ce06)" style="fill: #2e6f8e"/>
    <path d="M 386.90554 203.390667 
L 399.79474 203.390667 
L 399.79474 189.069333 
L 386.90554 189.069333 
L 386.90554 203.390667 
" clip-path="url(#p293be8ce06)" style="fill: #287c8e"/>
    <path d="M 386.90554 189.069333 
L 399.79474 189.069333 
L 399.79474 174.748 
L 386.90554 174.748 
L 386.90554 189.069333 
" clip-path="url(#p293be8ce06)" style="fill: #23898e"/>
    <path d="M 386.90554 174.748 
L 399.79474 174.748 
L 399.79474 160.426667 
L 386.90554 160.426667 
L 386.90554 174.748 
" clip-path="url(#p293be8ce06)" style="fill: #1f978b"/>
    <path d="M 386.90554 160.426667 
L 399.79474 160.426667 
L 399.79474 146.105333 
L 386.90554 146.105333 
L 386.90554 160.426667 
" clip-path="url(#p293be8ce06)" style="fill: #20a486"/>
    <path d="M 386.90554 146.105333 
L 399.79474 146.105333 
L 399.79474 131.784 
L 386.90554 131.784 
L 386.90554 146.105333 
" clip-path="url(#p293be8ce06)" style="fill: #2cb17e"/>
    <path d="M 386.90554 131.784 
L 399.79474 131.784 
L 399.79474 117.462667 
L 386.90554 117.462667 
L 386.90554 131.784 
" clip-path="url(#p293be8ce06)" style="fill: #40bd72"/>
    <path d="M 386.90554 117.462667 
L 399.79474 117.462667 
L 399.79474 103.141333 
L 386.90554 103.141333 
L 386.90554 117.462667 
" clip-path="url(#p293be8ce06)" style="fill: #5ec962"/>
    <path d="M 386.90554 103.141333 
L 399.79474 103.141333 
L 399.79474 88.82 
L 386.90554 88.82 
L 386.90554 103.141333 
" clip-path="url(#p293be8ce06)" style="fill: #7fd34e"/>
    <path d="M 386.90554 88.82 
L 399.79474 88.82 
L 399.79474 74.498667 
L 386.90554 74.498667 
L 386.90554 88.82 
" clip-path="url(#p293be8ce06)" style="fill: #a2da37"/>
    <path d="M 386.90554 74.498667 
L 399.79474 74.498667 
L 399.79474 60.177333 
L 386.90554 60.177333 
L 386.90554 74.498667 
" clip-path="url(#p293be8ce06)" style="fill: #c8e020"/>
    <path d="M 386.90554 60.177333 
L 399.79474 60.177333 
L 399.79474 45.856 
L 386.90554 45.856 
L 386.90554 60.177333 
" clip-path="url(#p293be8ce06)" style="fill: #ece51b"/>
   </g>
   <g id="matplotlib.axis_3"/>
   <g id="matplotlib.axis_4">
    <g id="ytick_10">
     <g id="line2d_20">
      <defs>
       <path id="mf4e57b0f60" d="M 0 0 
L 3.5 0 
" style="stroke: #000000; stroke-width: 0.8"/>
      </defs>
      <g>
       <use xlink:href="#mf4e57b0f60" x="399.79474" y="303.64" style="stroke: #000000; stroke-width: 0.8"/>
      </g>
     </g>
     <g id="text_22">
      <!-- 0.00 -->
      <g transform="translate(406.79474 307.439219) scale(0.1 -0.1)">
       <defs>
        <path id="DejaVuSans-2e" d="M 684 794 
L 1344 794 
L 1344 0 
L 684 0 
L 684 794 
z
" transform="scale(0.015625)"/>
       </defs>
       <use xlink:href="#DejaVuSans-30"/>
       <use xlink:href="#DejaVuSans-2e" transform="translate(63.623047 0)"/>
       <use xlink:href="#DejaVuSans-30" transform="translate(95.410156 0)"/>
       <use xlink:href="#DejaVuSans-30" transform="translate(159.033203 0)"/>
      </g>
     </g>
    </g>
    <g id="ytick_11">
     <g id="line2d_21">
      <g>
       <use xlink:href="#mf4e57b0f60" x="399.79474" y="274.997333" style="stroke: #000000; stroke-width: 0.8"/>
      </g>
     </g>
     <g id="text_23">
      <!-- 0.02 -->
      <g transform="translate(406.79474 278.796552) scale(0.1 -0.1)">
       <use xlink:href="#DejaVuSans-30"/>
       <use xlink:href="#DejaVuSans-2e" transform="translate(63.623047 0)"/>
       <use xlink:href="#DejaVuSans-30" transform="translate(95.410156 0)"/>
       <use xlink:href="#DejaVuSans-32" transform="translate(159.033203 0)"/>
      </g>
     </g>
    </g>
    <g id="ytick_12">
     <g id="line2d_22">
      <g>
       <use xlink:href="#mf4e57b0f60" x="399.79474" y="246.354667" style="stroke: #000000; stroke-width: 0.8"/>
      </g>
     </g>
     <g id="text_24">
      <!-- 0.04 -->
      <g transform="translate(406.79474 250.153885) scale(0.1 -0.1)">
       <use xlink:href="#DejaVuSans-30"/>
       <use xlink:href="#DejaVuSans-2e" transform="translate(63.623047 0)"/>
       <use xlink:href="#DejaVuSans-30" transform="translate(95.410156 0)"/>
       <use xlink:href="#DejaVuSans-34" transform="translate(159.033203 0)"/>
      </g>
     </g>
    </g>
    <g id="ytick_13">
     <g id="line2d_23">
      <g>
       <use xlink:href="#mf4e57b0f60" x="399.79474" y="217.712" style="stroke: #000000; stroke-width: 0.8"/>
      </g>
     </g>
     <g id="text_25">
      <!-- 0.06 -->
      <g transform="translate(406.79474 221.511219) scale(0.1 -0.1)">
       <defs>
        <path id="DejaVuSans-36" d="M 2113 2584 
Q 1688 2584 1439 2293 
Q 1191 2003 1191 1497 
Q 1191 994 1439 701 
Q 1688 409 2113 409 
Q 2538 409 2786 701 
Q 3034 994 3034 1497 
Q 3034 2003 2786 2293 
Q 2538 2584 2113 2584 
z
M 3366 4563 
L 3366 3988 
Q 3128 4100 2886 4159 
Q 2644 4219 2406 4219 
Q 1781 4219 1451 3797 
Q 1122 3375 1075 2522 
Q 1259 2794 1537 2939 
Q 1816 3084 2150 3084 
Q 2853 3084 3261 2657 
Q 3669 2231 3669 1497 
Q 3669 778 3244 343 
Q 2819 -91 2113 -91 
Q 1303 -91 875 529 
Q 447 1150 447 2328 
Q 447 3434 972 4092 
Q 1497 4750 2381 4750 
Q 2619 4750 2861 4703 
Q 3103 4656 3366 4563 
z
" transform="scale(0.015625)"/>
       </defs>
       <use xlink:href="#DejaVuSans-30"/>
       <use xlink:href="#DejaVuSans-2e" transform="translate(63.623047 0)"/>
       <use xlink:href="#DejaVuSans-30" transform="translate(95.410156 0)"/>
       <use xlink:href="#DejaVuSans-36" transform="translate(159.033203 0)"/>
      </g>
     </g>
    </g>
    <g id="ytick_14">
     <g id="line2d_24">
      <g>
       <use xlink:href="#mf4e57b0f60" x="399.79474" y="189.069333" style="stroke: #000000; stroke-width: 0.8"/>
      </g>
     </g>
     <g id="text_26">
      <!-- 0.08 -->
      <g transform="translate(406.79474 192.868552) scale(0.1 -0.1)">
       <defs>
        <path id="DejaVuSans-38" d="M 2034 2216 
Q 1584 2216 1326 1975 
Q 1069 1734 1069 1313 
Q 1069 891 1326 650 
Q 1584 409 2034 409 
Q 2484 409 2743 651 
Q 3003 894 3003 1313 
Q 3003 1734 2745 1975 
Q 2488 2216 2034 2216 
z
M 1403 2484 
Q 997 2584 770 2862 
Q 544 3141 544 3541 
Q 544 4100 942 4425 
Q 1341 4750 2034 4750 
Q 2731 4750 3128 4425 
Q 3525 4100 3525 3541 
Q 3525 3141 3298 2862 
Q 3072 2584 2669 2484 
Q 3125 2378 3379 2068 
Q 3634 1759 3634 1313 
Q 3634 634 3220 271 
Q 2806 -91 2034 -91 
Q 1263 -91 848 271 
Q 434 634 434 1313 
Q 434 1759 690 2068 
Q 947 2378 1403 2484 
z
M 1172 3481 
Q 1172 3119 1398 2916 
Q 1625 2713 2034 2713 
Q 2441 2713 2670 2916 
Q 2900 3119 2900 3481 
Q 2900 3844 2670 4047 
Q 2441 4250 2034 4250 
Q 1625 4250 1398 4047 
Q 1172 3844 1172 3481 
z
" transform="scale(0.015625)"/>
       </defs>
       <use xlink:href="#DejaVuSans-30"/>
       <use xlink:href="#DejaVuSans-2e" transform="translate(63.623047 0)"/>
       <use xlink:href="#DejaVuSans-30" transform="translate(95.410156 0)"/>
       <use xlink:href="#DejaVuSans-38" transform="translate(159.033203 0)"/>
      </g>
     </g>
    </g>
    <g id="ytick_15">
     <g id="line2d_25">
      <g>
       <use xlink:href="#mf4e57b0f60" x="399.79474" y="160.426667" style="stroke: #000000; stroke-width: 0.8"/>
      </g>
     </g>
     <g id="text_27">
      <!-- 0.10 -->
      <g transform="translate(406.79474 164.225885) scale(0.1 -0.1)">
       <use xlink:href="#DejaVuSans-30"/>
       <use xlink:href="#DejaVuSans-2e" transform="translate(63.623047 0)"/>
       <use xlink:href="#DejaVuSans-31" transform="translate(95.410156 0)"/>
       <use xlink:href="#DejaVuSans-30" transform="translate(159.033203 0)"/>
      </g>
     </g>
    </g>
    <g id="ytick_16">
     <g id="line2d_26">
      <g>
       <use xlink:href="#mf4e57b0f60" x="399.79474" y="131.784" style="stroke: #000000; stroke-width: 0.8"/>
      </g>
     </g>
     <g id="text_28">
      <!-- 0.12 -->
      <g transform="translate(406.79474 135.583219) scale(0.1 -0.1)">
       <use xlink:href="#DejaVuSans-30"/>
       <use xlink:href="#DejaVuSans-2e" transform="translate(63.623047 0)"/>
       <use xlink:href="#DejaVuSans-31" transform="translate(95.410156 0)"/>
       <use xlink:href="#DejaVuSans-32" transform="translate(159.033203 0)"/>
      </g>
     </g>
    </g>
    <g id="ytick_17">
     <g id="line2d_27">
      <g>
       <use xlink:href="#mf4e57b0f60" x="399.79474" y="103.141333" style="stroke: #000000; stroke-width: 0.8"/>
      </g>
     </g>
     <g id="text_29">
      <!-- 0.14 -->
      <g transform="translate(406.79474 106.940552) scale(0.1 -0.1)">
       <use xlink:href="#DejaVuSans-30"/>
       <use xlink:href="#DejaVuSans-2e" transform="translate(63.623047 0)"/>
       <use xlink:href="#DejaVuSans-31" transform="translate(95.410156 0)"/>
       <use xlink:href="#DejaVuSans-34" transform="translate(159.033203 0)"/>
      </g>
     </g>
    </g>
    <g id="ytick_18">
     <g id="line2d_28">
      <g>
       <use xlink:href="#mf4e57b0f60" x="399.79474" y="74.498667" style="stroke: #000000; stroke-width: 0.8"/>
      </g>
     </g>
     <g id="text_30">
      <!-- 0.16 -->
      <g transform="translate(406.79474 78.297885) scale(0.1 -0.1)">
       <use xlink:href="#DejaVuSans-30"/>
       <use xlink:href="#DejaVuSans-2e" transform="translate(63.623047 0)"/>
       <use xlink:href="#DejaVuSans-31" transform="translate(95.410156 0)"/>
       <use xlink:href="#DejaVuSans-36" transform="translate(159.033203 0)"/>
      </g>
     </g>
    </g>
    <g id="ytick_19">
     <g id="line2d_29">
      <g>
       <use xlink:href="#mf4e57b0f60" x="399.79474" y="45.856" style="stroke: #000000; stroke-width: 0.8"/>
      </g>
     </g>
     <g id="text_31">
      <!-- 0.18 -->
      <g transform="translate(406.79474 49.655219) scale(0.1 -0.1)">
       <use xlink:href="#DejaVuSans-30"/>
       <use xlink:href="#DejaVuSans-2e" transform="translate(63.623047 0)"/>
       <use xlink:href="#DejaVuSans-31" transform="translate(95.410156 0)"/>
       <use xlink:href="#DejaVuSans-38" transform="translate(159.033203 0)"/>
      </g>
     </g>
    </g>
    <g id="text_32">
     <!-- Relative error -->
     <g transform="translate(440.658802 208.603469) rotate(-90) scale(0.1 -0.1)">
      <use xlink:href="#DejaVuSans-52"/>
      <use xlink:href="#DejaVuSans-65" transform="translate(64.982422 0)"/>
      <use xlink:href="#DejaVuSans-6c" transform="translate(126.505859 0)"/>
      <use xlink:href="#DejaVuSans-61" transform="translate(154.289062 0)"/>
      <use xlink:href="#DejaVuSans-74" transform="translate(215.568359 0)"/>
      <use xlink:href="#DejaVuSans-69" transform="translate(254.777344 0)"/>
      <use xlink:href="#DejaVuSans-76" transform="translate(282.560547 0)"/>
      <use xlink:href="#DejaVuSans-65" transform="translate(341.740234 0)"/>
      <use xlink:href="#DejaVuSans-20" transform="translate(403.263672 0)"/>
      <use xlink:href="#DejaVuSans-65" transform="translate(435.050781 0)"/>
      <use xlink:href="#DejaVuSans-72" transform="translate(496.574219 0)"/>
      <use xlink:href="#DejaVuSans-72" transform="translate(535.9375 0)"/>
      <use xlink:href="#DejaVuSans-6f" transform="translate(574.800781 0)"/>
      <use xlink:href="#DejaVuSans-72" transform="translate(635.982422 0)"/>
     </g>
    </g>
   </g>
   <g id="LineCollection_1"/>
   <g id="patch_8">
    <path d="M 386.90554 303.64 
L 393.35014 303.64 
L 399.79474 303.64 
L 399.79474 45.856 
L 393.35014 45.856 
L 386.90554 45.856 
L 386.90554 303.64 
z
" style="fill: none; stroke: #000000; stroke-width: 0.8; stroke-linejoin: miter; stroke-linecap: square"/>
   </g>
  </g>
 </g>
 <defs>
  <clipPath id="p69279261c1">
   <rect x="46.64" y="45.856" width="320.24992" height="257.784"/>
  </clipPath>
  <clipPath id="p293be8ce06">
   <rect x="386.90554" y="45.856" width="12.8892" height="257.784"/>
  </clipPath>
 </defs>
</svg>
