<?xml version="1.0" encoding="utf-8" standalone="no"?>
<!DOCTYPE svg PUBLIC "-//W3C//DTD SVG 1.1//EN"
  "http://www.w3.org/Graphics/SVG/1.1/DTD/svg11.dtd">
<svg xmlns:xlink="http://www.w3.org/1999/xlink" width="460.8pt" height="345.6pt" viewBox="0 0 460.8 345.6" xmlns="http://www.w3.org/2000/svg" version="1.1">
 <metadata>
  <rdf:RDF xmlns:dc="http://purl.org/dc/elements/1.1/" xmlns:cc="http://creativecommons.org/ns#" xmlns:rdf="http://www.w3.org/1999/02/22-rdf-syntax-ns#">
   <cc:Work>
    <dc:type rdf:resource="http://purl.org/dc/dcmitype/StillImage"/>
    <dc:date>2025-10-15T22:43:34.777829</dc:date>
    <dc:format>image/svg+xml</dc:format>
    <dc:creator>
     <cc:Agent>
      <dc:title>Matplotlib v3.10.6, https://matplotlib.org/</dc:title>
     </cc:Agent>
    </dc:creator>
   </cc:Work>
  </rdf:RDF>
 </metadata>
 <defs>
  <style type="text/css">*{stroke-linejoin: round; stroke-linecap: butt}</style>
 </defs>
 <g id="figure_1">
  <g id="patch_1">
   <path d="M 0 345.6 
L 460.8 345.6 
L 460.8 0 
L 0 0 
z
" style="fill: #ffffff"/>
  </g>
  <g id="axes_1">
   <g id="patch_2">
    <path d="M 46.64 303.64 
L 361.92192 303.64 
L 361.92192 45.856 
L 46.64 45.856 
z
" style="fill: #ffffff"/>
   </g>
   <g id="QuadContourSet_1">
    <path d="M 235.809152 214.423644 
L 251.573248 219.95786 
L 253.628149 213.4156 
L 251.573248 210.892817 
L 243.609058 200.5264 
L 235.809152 191.602637 
L 232.604538 187.6372 
L 220.199575 174.748 
L 220.045056 174.601291 
L 206.264351 161.8588 
L 204.28096 160.066644 
L 190.851696 148.9696 
L 188.516864 146.976811 
L 173.425367 136.0804 
L 172.752768 135.546699 
L 156.988672 132.009011 
L 155.44178 136.0804 
L 156.988672 138.047196 
L 164.954087 148.9696 
L 172.752768 157.996687 
L 175.792345 161.8588 
L 188.23402 174.748 
L 188.516864 175.014492 
L 202.184724 187.6372 
L 204.28096 189.523565 
L 217.512601 200.5264 
L 220.045056 202.697627 
L 234.564242 213.4156 
z
" clip-path="url(#p0d8f02b754)" style="fill: #460a5d"/>
    <path d="M 283.10144 265.458886 
L 298.865536 273.375274 
L 311.527594 264.9724 
L 304.149544 252.0832 
L 298.865536 244.835475 
L 294.843661 239.194 
L 284.720651 226.3048 
L 283.10144 224.515349 
L 273.351243 213.4156 
L 267.337344 206.970042 
L 261.503286 200.5264 
L 251.573248 190.256075 
L 249.104778 187.6372 
L 236.120481 174.748 
L 235.809152 174.449434 
L 222.546015 161.8588 
L 220.045056 159.535757 
L 208.351513 148.9696 
L 204.28096 145.320208 
L 193.437312 136.0804 
L 188.516864 131.841581 
L 177.653597 123.1912 
L 172.752768 119.159233 
L 160.75399 110.302 
L 156.988672 107.368327 
L 142.330797 97.4128 
L 141.224576 96.605447 
L 125.46048 88.082517 
L 114.693015 84.5236 
L 109.696384 82.582905 
L 105.974869 84.5236 
L 106.505139 97.4128 
L 109.696384 102.471934 
L 114.434947 110.302 
L 123.704474 123.1912 
L 125.46048 125.177742 
L 134.688825 136.0804 
L 141.224576 143.148539 
L 146.386816 148.9696 
L 156.988672 159.922248 
L 158.799203 161.8588 
L 171.873574 174.748 
L 172.752768 175.581302 
L 185.527373 187.6372 
L 188.516864 190.386834 
L 199.771467 200.5264 
L 204.28096 204.54982 
L 214.634837 213.4156 
L 220.045056 218.092982 
L 230.176111 226.3048 
L 235.809152 231.013747 
L 246.506793 239.194 
L 251.573248 243.274906 
L 263.821764 252.0832 
L 267.337344 254.797849 
L 282.439749 264.9724 
z
M 234.564242 213.4156 
L 220.045056 202.697627 
L 217.512601 200.5264 
L 204.28096 189.523565 
L 202.184724 187.6372 
L 188.516864 175.014492 
L 188.23402 174.748 
L 175.792345 161.8588 
L 172.752768 157.996687 
L 164.954087 148.9696 
L 156.988672 138.047196 
L 155.44178 136.0804 
L 156.988672 132.009011 
L 172.752768 135.546699 
L 173.425367 136.0804 
L 188.516864 146.976811 
L 190.851696 148.9696 
L 204.28096 160.066644 
L 206.264351 161.8588 
L 220.045056 174.601291 
L 220.199575 174.748 
L 232.604538 187.6372 
L 235.809152 191.602637 
L 243.609058 200.5264 
L 251.573248 210.892817 
L 253.628149 213.4156 
L 251.573248 219.95786 
L 235.809152 214.423644 
z
" clip-path="url(#p0d8f02b754)" style="fill: #481c6e"/>
    <path d="M 298.865536 295.617887 
L 310.521143 303.64 
L 314.629632 303.64 
L 330.393728 303.64 
L 346.157824 303.64 
L 361.92192 303.64 
L 361.92192 300.317401 
L 355.240328 290.7508 
L 346.158158 277.8616 
L 346.157824 277.8612 
L 335.588581 264.9724 
L 330.393728 258.841807 
L 324.78579 252.0832 
L 314.629632 240.311178 
L 313.688804 239.194 
L 302.011177 226.3048 
L 298.865536 222.972784 
L 289.976324 213.4156 
L 283.10144 206.283918 
L 277.622876 200.5264 
L 267.337344 190.104044 
L 264.924517 187.6372 
L 251.864351 174.748 
L 251.573248 174.467117 
L 238.419112 161.8588 
L 235.809152 159.398679 
L 224.58332 148.9696 
L 220.045056 144.800224 
L 210.317336 136.0804 
L 204.28096 130.688994 
L 195.570259 123.1912 
L 188.516864 117.085109 
L 180.269881 110.302 
L 172.752768 104.017272 
L 164.308493 97.4128 
L 156.988672 91.528378 
L 147.525023 84.5236 
L 141.224576 79.679018 
L 129.683993 71.6344 
L 125.46048 68.547337 
L 110.450422 58.7452 
L 109.696384 58.225033 
L 93.932288 49.452419 
L 85.631385 45.856 
L 78.168192 45.856 
L 62.404096 45.856 
L 56.04399 45.856 
L 58.282706 58.7452 
L 62.404096 66.576841 
L 64.993293 71.6344 
L 73.617233 84.5236 
L 78.168192 90.391793 
L 83.410495 97.4128 
L 93.855538 110.302 
L 93.932288 110.386681 
L 105.223586 123.1912 
L 109.696384 127.976376 
L 117.080677 136.0804 
L 125.46048 144.775363 
L 129.414519 148.9696 
L 141.224576 160.85735 
L 142.203247 161.8588 
L 155.400081 174.748 
L 156.988672 176.25713 
L 168.978376 187.6372 
L 172.752768 191.143651 
L 182.937352 200.5264 
L 188.516864 205.595527 
L 197.274033 213.4156 
L 204.28096 219.640142 
L 211.991664 226.3048 
L 220.045056 233.297034 
L 227.103944 239.194 
L 235.809152 246.575502 
L 242.640211 252.0832 
L 251.573248 259.472311 
L 258.651404 264.9724 
L 267.337344 271.969842 
L 275.216837 277.8616 
L 283.10144 284.034879 
L 292.452342 290.7508 
z
M 282.439749 264.9724 
L 267.337344 254.797849 
L 263.821764 252.0832 
L 251.573248 243.274906 
L 246.506793 239.194 
L 235.809152 231.013747 
L 230.176111 226.3048 
L 220.045056 218.092982 
L 214.634837 213.4156 
L 204.28096 204.54982 
L 199.771467 200.5264 
L 188.516864 190.386834 
L 185.527373 187.6372 
L 172.752768 175.581302 
L 171.873574 174.748 
L 158.799203 161.8588 
L 156.988672 159.922248 
L 146.386816 148.9696 
L 141.224576 143.148539 
L 134.688825 136.0804 
L 125.46048 125.177742 
L 123.704474 123.1912 
L 114.434947 110.302 
L 109.696384 102.471934 
L 106.505139 97.4128 
L 105.974869 84.5236 
L 109.696384 82.582905 
L 114.693015 84.5236 
L 125.46048 88.082517 
L 141.224576 96.605447 
L 142.330797 97.4128 
L 156.988672 107.368327 
L 160.75399 110.302 
L 172.752768 119.159233 
L 177.653597 123.1912 
L 188.516864 131.841581 
L 193.437312 136.0804 
L 204.28096 145.320208 
L 208.351513 148.9696 
L 220.045056 159.535757 
L 222.546015 161.8588 
L 235.809152 174.449434 
L 236.120481 174.748 
L 249.104778 187.6372 
L 251.573248 190.256075 
L 261.503286 200.5264 
L 267.337344 206.970042 
L 273.351243 213.4156 
L 283.10144 224.515349 
L 284.720651 226.3048 
L 294.843661 239.194 
L 298.865536 244.835475 
L 304.149544 252.0832 
L 311.527594 264.9724 
L 298.865536 273.375274 
L 283.10144 265.458886 
z
" clip-path="url(#p0d8f02b754)" style="fill: #472d7b"/>
    <path d="M 283.10144 300.746768 
L 286.885459 303.64 
L 298.865536 303.64 
L 310.521143 303.64 
L 298.865536 295.617887 
L 292.452342 290.7508 
L 283.10144 284.034879 
L 275.216837 277.8616 
L 267.337344 271.969842 
L 258.651404 264.9724 
L 251.573248 259.472311 
L 242.640211 252.0832 
L 235.809152 246.575502 
L 227.103944 239.194 
L 220.045056 233.297034 
L 211.991664 226.3048 
L 204.28096 219.640142 
L 197.274033 213.4156 
L 188.516864 205.595527 
L 182.937352 200.5264 
L 172.752768 191.143651 
L 168.978376 187.6372 
L 156.988672 176.25713 
L 155.400081 174.748 
L 142.203247 161.8588 
L 141.224576 160.85735 
L 129.414519 148.9696 
L 125.46048 144.775363 
L 117.080677 136.0804 
L 109.696384 127.976376 
L 105.223586 123.1912 
L 93.932288 110.386681 
L 93.855538 110.302 
L 83.410495 97.4128 
L 78.168192 90.391793 
L 73.617233 84.5236 
L 64.993293 71.6344 
L 62.404096 66.576841 
L 58.282706 58.7452 
L 56.04399 45.856 
L 46.64 45.856 
L 46.64 58.7452 
L 46.64 71.6344 
L 46.64 76.138731 
L 53.36143 84.5236 
L 62.404096 95.145536 
L 64.280045 97.4128 
L 75.741177 110.302 
L 78.168192 112.890062 
L 87.649349 123.1912 
L 93.932288 129.733099 
L 99.9276 136.0804 
L 109.696384 146.016241 
L 112.560129 148.9696 
L 125.46048 161.791498 
L 125.527512 161.8588 
L 138.786407 174.748 
L 141.224576 177.066378 
L 152.337655 187.6372 
L 156.988672 191.981544 
L 166.172647 200.5264 
L 172.752768 206.565086 
L 180.283418 213.4156 
L 188.516864 220.840007 
L 194.664064 226.3048 
L 204.28096 234.825614 
L 209.311926 239.194 
L 220.045056 248.536864 
L 224.229002 252.0832 
L 235.809152 261.983656 
L 239.423536 264.9724 
L 251.573248 275.170149 
L 254.911757 277.8616 
L 267.337344 288.094171 
L 270.719743 290.7508 
z
M 361.92192 300.317401 
L 361.92192 290.7508 
L 361.92192 277.8616 
L 361.92192 274.393075 
L 353.664138 264.9724 
L 346.157824 256.624341 
L 342.132686 252.0832 
L 330.393728 239.210502 
L 330.378905 239.194 
L 318.257224 226.3048 
L 314.629632 222.535129 
L 305.921298 213.4156 
L 298.865536 206.198904 
L 293.352768 200.5264 
L 283.10144 190.223951 
L 280.535926 187.6372 
L 267.458496 174.748 
L 267.337344 174.630556 
L 254.0913 161.8588 
L 251.573248 159.462271 
L 240.439995 148.9696 
L 235.809152 144.649623 
L 226.48167 136.0804 
L 220.045056 130.205451 
L 212.189713 123.1912 
L 204.28096 116.142316 
L 197.530635 110.302 
L 188.516864 102.47454 
L 182.459492 97.4128 
L 172.752768 89.220703 
L 166.913874 84.5236 
L 156.988672 76.406135 
L 150.806629 71.6344 
L 141.224576 64.064811 
L 134.017543 58.7452 
L 125.46048 52.240097 
L 116.384056 45.856 
L 109.696384 45.856 
L 93.932288 45.856 
L 85.631385 45.856 
L 93.932288 49.452419 
L 109.696384 58.225033 
L 110.450422 58.7452 
L 125.46048 68.547337 
L 129.683993 71.6344 
L 141.224576 79.679018 
L 147.525023 84.5236 
L 156.988672 91.528378 
L 164.308493 97.4128 
L 172.752768 104.017272 
L 180.269881 110.302 
L 188.516864 117.085109 
L 195.570259 123.1912 
L 204.28096 130.688994 
L 210.317336 136.0804 
L 220.045056 144.800224 
L 224.58332 148.9696 
L 235.809152 159.398679 
L 238.419112 161.8588 
L 251.573248 174.467117 
L 251.864351 174.748 
L 264.924517 187.6372 
L 267.337344 190.104044 
L 277.622876 200.5264 
L 283.10144 206.283918 
L 289.976324 213.4156 
L 298.865536 222.972784 
L 302.011177 226.3048 
L 313.688804 239.194 
L 314.629632 240.311178 
L 324.78579 252.0832 
L 330.393728 258.841807 
L 335.588581 264.9724 
L 346.157824 277.8612 
L 346.158158 277.8616 
L 355.240328 290.7508 
z
" clip-path="url(#p0d8f02b754)" style="fill: #443b84"/>
    <path d="M 251.573248 290.75424 
L 267.012514 303.64 
L 267.337344 303.64 
L 283.10144 303.64 
L 286.885459 303.64 
L 283.10144 300.746768 
L 270.719743 290.7508 
L 267.337344 288.094171 
L 254.911757 277.8616 
L 251.573248 275.170149 
L 239.423536 264.9724 
L 235.809152 261.983656 
L 224.229002 252.0832 
L 220.045056 248.536864 
L 209.311926 239.194 
L 204.28096 234.825614 
L 194.664064 226.3048 
L 188.516864 220.840007 
L 180.283418 213.4156 
L 172.752768 206.565086 
L 166.172647 200.5264 
L 156.988672 191.981544 
L 152.337655 187.6372 
L 141.224576 177.066378 
L 138.786407 174.748 
L 125.527512 161.8588 
L 125.46048 161.791498 
L 112.560129 148.9696 
L 109.696384 146.016241 
L 99.9276 136.0804 
L 93.932288 129.733099 
L 87.649349 123.1912 
L 78.168192 112.890062 
L 75.741177 110.302 
L 64.280045 97.4128 
L 62.404096 95.145536 
L 53.36143 84.5236 
L 46.64 76.138731 
L 46.64 84.5236 
L 46.64 97.4128 
L 46.64 97.921789 
L 58.083458 110.302 
L 62.404096 114.815241 
L 70.314316 123.1912 
L 78.168192 131.235843 
L 82.84201 136.0804 
L 93.932288 147.224486 
L 95.652124 148.9696 
L 108.721436 161.8588 
L 109.696384 162.800361 
L 122.026511 174.748 
L 125.46048 178.014346 
L 135.568266 187.6372 
L 141.224576 192.937773 
L 149.337681 200.5264 
L 156.988672 207.591789 
L 163.326332 213.4156 
L 172.752768 221.995407 
L 177.526747 226.3048 
L 188.516864 236.165383 
L 191.932829 239.194 
L 204.28096 250.116037 
L 206.540353 252.0832 
L 220.045056 263.85904 
L 221.347506 264.9724 
L 235.809152 277.4032 
L 236.355476 277.8616 
L 251.569214 290.7508 
z
M 361.92192 274.393075 
L 361.92192 264.9724 
L 361.92192 255.875159 
L 358.441848 252.0832 
L 346.361893 239.194 
L 346.157824 238.981677 
L 334.031737 226.3048 
L 330.393728 222.56332 
L 321.533534 213.4156 
L 314.629632 206.405633 
L 308.854165 200.5264 
L 298.865536 190.525991 
L 295.98206 187.6372 
L 283.10144 174.938661 
L 282.90767 174.748 
L 269.601168 161.8588 
L 267.337344 159.688522 
L 256.070652 148.9696 
L 251.573248 144.728055 
L 242.301964 136.0804 
L 235.809152 130.064625 
L 228.277559 123.1912 
L 220.045056 115.708678 
L 213.977055 110.302 
L 204.28096 101.670701 
L 199.375405 97.4128 
L 188.516864 87.962307 
L 184.440435 84.5236 
L 172.752768 74.597503 
L 169.129764 71.6344 
L 156.988672 61.593973 
L 153.38713 58.7452 
L 141.224576 48.97415 
L 137.138253 45.856 
L 125.46048 45.856 
L 116.384056 45.856 
L 125.46048 52.240097 
L 134.017543 58.7452 
L 141.224576 64.064811 
L 150.806629 71.6344 
L 156.988672 76.406135 
L 166.913874 84.5236 
L 172.752768 89.220703 
L 182.459492 97.4128 
L 188.516864 102.47454 
L 197.530635 110.302 
L 204.28096 116.142316 
L 212.189713 123.1912 
L 220.045056 130.205451 
L 226.48167 136.0804 
L 235.809152 144.649623 
L 240.439995 148.9696 
L 251.573248 159.462271 
L 254.0913 161.8588 
L 267.337344 174.630556 
L 267.458496 174.748 
L 280.535926 187.6372 
L 283.10144 190.223951 
L 293.352768 200.5264 
L 298.865536 206.198904 
L 305.921298 213.4156 
L 314.629632 222.535129 
L 318.257224 226.3048 
L 330.378905 239.194 
L 330.393728 239.210502 
L 342.132686 252.0832 
L 346.157824 256.624341 
L 353.664138 264.9724 
z
" clip-path="url(#p0d8f02b754)" style="fill: #3e4a89"/>
    <path d="M 235.809152 292.900265 
L 248.40446 303.64 
L 251.573248 303.64 
L 267.012514 303.64 
L 251.573248 290.75424 
L 251.569214 290.7508 
L 236.355476 277.8616 
L 235.809152 277.4032 
L 221.347506 264.9724 
L 220.045056 263.85904 
L 206.540353 252.0832 
L 204.28096 250.116037 
L 191.932829 239.194 
L 188.516864 236.165383 
L 177.526747 226.3048 
L 172.752768 221.995407 
L 163.326332 213.4156 
L 156.988672 207.591789 
L 149.337681 200.5264 
L 141.224576 192.937773 
L 135.568266 187.6372 
L 125.46048 178.014346 
L 122.026511 174.748 
L 109.696384 162.800361 
L 108.721436 161.8588 
L 95.652124 148.9696 
L 93.932288 147.224486 
L 82.84201 136.0804 
L 78.168192 131.235843 
L 70.314316 123.1912 
L 62.404096 114.815241 
L 58.083458 110.302 
L 46.64 97.921789 
L 46.64 110.302 
L 46.64 116.55246 
L 53.018047 123.1912 
L 62.404096 132.699135 
L 65.712086 136.0804 
L 78.168192 148.494085 
L 78.641824 148.9696 
L 91.777471 161.8588 
L 93.932288 163.935736 
L 105.117946 174.748 
L 109.696384 179.1032 
L 118.657836 187.6372 
L 125.46048 194.025398 
L 132.388802 200.5264 
L 141.224576 208.719952 
L 146.302911 213.4156 
L 156.988672 223.202876 
L 160.392791 226.3048 
L 172.752768 237.48858 
L 174.651815 239.194 
L 188.516864 251.589842 
L 189.074297 252.0832 
L 203.659106 264.9724 
L 204.28096 265.521329 
L 218.410034 277.8616 
L 220.045056 279.290529 
L 233.325169 290.7508 
z
M 361.92192 255.875159 
L 361.92192 252.0832 
L 361.92192 239.194 
L 361.92192 239.149771 
L 349.508169 226.3048 
L 346.157824 222.879902 
L 336.914554 213.4156 
L 330.393728 206.820726 
L 324.173784 200.5264 
L 314.629632 190.9863 
L 311.276506 187.6372 
L 298.865536 175.388991 
L 298.214361 174.748 
L 284.962014 161.8588 
L 283.10144 160.064437 
L 271.522076 148.9696 
L 267.337344 144.989156 
L 257.888332 136.0804 
L 251.573248 130.162501 
L 244.04765 123.1912 
L 235.809152 115.593993 
L 229.985488 110.302 
L 220.045056 101.292788 
L 215.685056 97.4128 
L 204.28096 87.268164 
L 201.12616 84.5236 
L 188.516864 73.530151 
L 186.283724 71.6344 
L 172.752768 60.090249 
L 171.125986 58.7452 
L 156.988672 46.962161 
L 155.61238 45.856 
L 141.224576 45.856 
L 137.138253 45.856 
L 141.224576 48.97415 
L 153.38713 58.7452 
L 156.988672 61.593973 
L 169.129764 71.6344 
L 172.752768 74.597503 
L 184.440435 84.5236 
L 188.516864 87.962307 
L 199.375405 97.4128 
L 204.28096 101.670701 
L 213.977055 110.302 
L 220.045056 115.708678 
L 228.277559 123.1912 
L 235.809152 130.064625 
L 242.301964 136.0804 
L 251.573248 144.728055 
L 256.070652 148.9696 
L 267.337344 159.688522 
L 269.601168 161.8588 
L 282.90767 174.748 
L 283.10144 174.938661 
L 295.98206 187.6372 
L 298.865536 190.525991 
L 308.854165 200.5264 
L 314.629632 206.405633 
L 321.533534 213.4156 
L 330.393728 222.56332 
L 334.031737 226.3048 
L 346.157824 238.981677 
L 346.361893 239.194 
L 358.441848 252.0832 
z
" clip-path="url(#p0d8f02b754)" style="fill: #38598c"/>
    <path d="M 220.045056 294.841686 
L 230.210542 303.64 
L 235.809152 303.64 
L 248.40446 303.64 
L 235.809152 292.900265 
L 233.325169 290.7508 
L 220.045056 279.290529 
L 218.410034 277.8616 
L 204.28096 265.521329 
L 203.659106 264.9724 
L 189.074297 252.0832 
L 188.516864 251.589842 
L 174.651815 239.194 
L 172.752768 237.48858 
L 160.392791 226.3048 
L 156.988672 223.202876 
L 146.302911 213.4156 
L 141.224576 208.719952 
L 132.388802 200.5264 
L 125.46048 194.025398 
L 118.657836 187.6372 
L 109.696384 179.1032 
L 105.117946 174.748 
L 93.932288 163.935736 
L 91.777471 161.8588 
L 78.641824 148.9696 
L 78.168192 148.494085 
L 65.712086 136.0804 
L 62.404096 132.699135 
L 53.018047 123.1912 
L 46.64 116.55246 
L 46.64 123.1912 
L 46.64 134.204819 
L 48.493215 136.0804 
L 61.503251 148.9696 
L 62.404096 149.847023 
L 74.690903 161.8588 
L 78.168192 165.205219 
L 88.059362 174.748 
L 93.932288 180.334249 
L 101.600788 187.6372 
L 109.696384 195.250531 
L 115.307585 200.5264 
L 125.46048 209.969136 
L 129.172475 213.4156 
L 141.224576 224.503845 
L 143.188575 226.3048 
L 156.988672 238.867194 
L 157.34948 239.194 
L 171.646834 252.0832 
L 172.752768 253.076176 
L 186.083693 264.9724 
L 188.516864 267.137758 
L 200.658304 277.8616 
L 204.28096 281.057532 
L 215.367943 290.7508 
z
M 361.92192 239.149771 
L 361.92192 226.3048 
L 361.92192 223.416238 
L 352.105935 213.4156 
L 346.157824 207.412082 
L 339.331297 200.5264 
L 330.393728 191.595544 
L 326.425765 187.6372 
L 314.629632 175.977607 
L 313.381924 174.748 
L 300.180266 161.8588 
L 298.865536 160.584239 
L 286.814313 148.9696 
L 283.10144 145.41283 
L 273.285741 136.0804 
L 267.337344 130.454763 
L 259.583968 123.1912 
L 251.573248 115.718964 
L 245.697606 110.302 
L 235.809152 101.213947 
L 231.614025 97.4128 
L 220.045056 86.94804 
L 217.318754 84.5236 
L 204.28096 72.929701 
L 202.794707 71.6344 
L 188.516864 59.167908 
L 188.021216 58.7452 
L 172.965376 45.856 
L 172.752768 45.856 
L 156.988672 45.856 
L 155.61238 45.856 
L 156.988672 46.962161 
L 171.125986 58.7452 
L 172.752768 60.090249 
L 186.283724 71.6344 
L 188.516864 73.530151 
L 201.12616 84.5236 
L 204.28096 87.268164 
L 215.685056 97.4128 
L 220.045056 101.292788 
L 229.985488 110.302 
L 235.809152 115.593993 
L 244.04765 123.1912 
L 251.573248 130.162501 
L 257.888332 136.0804 
L 267.337344 144.989156 
L 271.522076 148.9696 
L 283.10144 160.064437 
L 284.962014 161.8588 
L 298.214361 174.748 
L 298.865536 175.388991 
L 311.276506 187.6372 
L 314.629632 190.9863 
L 324.173784 200.5264 
L 330.393728 206.820726 
L 336.914554 213.4156 
L 346.157824 222.879902 
L 349.508169 226.3048 
z
" clip-path="url(#p0d8f02b754)" style="fill: #31668e"/>
    <path d="M 204.28096 296.717303 
L 212.192354 303.64 
L 220.045056 303.64 
L 230.210542 303.64 
L 220.045056 294.841686 
L 215.367943 290.7508 
L 204.28096 281.057532 
L 200.658304 277.8616 
L 188.516864 267.137758 
L 186.083693 264.9724 
L 172.752768 253.076176 
L 171.646834 252.0832 
L 157.34948 239.194 
L 156.988672 238.867194 
L 143.188575 226.3048 
L 141.224576 224.503845 
L 129.172475 213.4156 
L 125.46048 209.969136 
L 115.307585 200.5264 
L 109.696384 195.250531 
L 101.600788 187.6372 
L 93.932288 180.334249 
L 88.059362 174.748 
L 78.168192 165.205219 
L 74.690903 161.8588 
L 62.404096 149.847023 
L 61.503251 148.9696 
L 48.493215 136.0804 
L 46.64 134.204819 
L 46.64 136.0804 
L 46.64 148.9696 
L 46.64 151.312832 
L 57.458975 161.8588 
L 62.404096 166.611999 
L 70.849885 174.748 
L 78.168192 181.708508 
L 84.3941 187.6372 
L 93.932288 196.61667 
L 98.084698 200.5264 
L 109.696384 211.349652 
L 111.915026 213.4156 
L 125.46048 225.919543 
L 125.878741 226.3048 
L 139.962721 239.194 
L 141.224576 240.342315 
L 154.170578 252.0832 
L 156.988672 254.626964 
L 168.501002 264.9724 
L 172.752768 268.77992 
L 182.950257 277.8616 
L 188.516864 282.808 
L 197.515009 290.7508 
z
M 361.92192 223.416238 
L 361.92192 213.4156 
L 361.92192 208.164522 
L 354.337097 200.5264 
L 346.157824 192.349171 
L 341.433869 187.6372 
L 330.393728 176.703882 
L 328.412265 174.748 
L 315.259872 161.8588 
L 314.629632 161.244914 
L 301.957887 148.9696 
L 298.865536 145.988855 
L 288.516535 136.0804 
L 283.10144 130.919108 
L 274.926894 123.1912 
L 267.337344 116.044118 
L 261.179521 110.302 
L 251.573248 101.371972 
L 247.264207 97.4128 
L 235.809152 86.910505 
L 233.169643 84.5236 
L 220.045056 72.667454 
L 218.882976 71.6344 
L 204.386888 58.7452 
L 204.28096 58.651001 
L 189.641081 45.856 
L 188.516864 45.856 
L 172.965376 45.856 
L 188.021216 58.7452 
L 188.516864 59.167908 
L 202.794707 71.6344 
L 204.28096 72.929701 
L 217.318754 84.5236 
L 220.045056 86.94804 
L 231.614025 97.4128 
L 235.809152 101.213947 
L 245.697606 110.302 
L 251.573248 115.718964 
L 259.583968 123.1912 
L 267.337344 130.454763 
L 273.285741 136.0804 
L 283.10144 145.41283 
L 286.814313 148.9696 
L 298.865536 160.584239 
L 300.180266 161.8588 
L 313.381924 174.748 
L 314.629632 175.977607 
L 326.425765 187.6372 
L 330.393728 191.595544 
L 339.331297 200.5264 
L 346.157824 207.412082 
L 352.105935 213.4156 
z
" clip-path="url(#p0d8f02b754)" style="fill: #2c728e"/>
    <path d="M 188.516864 298.603807 
L 194.224573 303.64 
L 204.28096 303.64 
L 212.192354 303.64 
L 204.28096 296.717303 
L 197.515009 290.7508 
L 188.516864 282.808 
L 182.950257 277.8616 
L 172.752768 268.77992 
L 168.501002 264.9724 
L 156.988672 254.626964 
L 154.170578 252.0832 
L 141.224576 240.342315 
L 139.962721 239.194 
L 125.878741 226.3048 
L 125.46048 225.919543 
L 111.915026 213.4156 
L 109.696384 211.349652 
L 98.084698 200.5264 
L 93.932288 196.61667 
L 84.3941 187.6372 
L 78.168192 181.708508 
L 70.849885 174.748 
L 62.404096 166.611999 
L 57.458975 161.8588 
L 46.64 151.312832 
L 46.64 161.8588 
L 46.64 168.158179 
L 53.488909 174.748 
L 62.404096 183.226888 
L 67.035924 187.6372 
L 78.168192 198.126157 
L 80.714794 200.5264 
L 93.932288 212.867693 
L 94.519414 213.4156 
L 108.434971 226.3048 
L 109.696384 227.465604 
L 122.463524 239.194 
L 125.46048 241.930964 
L 136.605164 252.0832 
L 141.224576 256.270699 
L 150.85577 264.9724 
L 156.988672 270.491881 
L 165.211512 277.8616 
L 172.752768 284.600964 
L 179.668854 290.7508 
z
M 361.92192 208.164522 
L 361.92192 200.5264 
L 361.92192 193.244594 
L 356.303819 187.6372 
L 346.157824 177.567341 
L 343.307185 174.748 
L 330.393728 162.04665 
L 330.201895 161.8588 
L 316.959244 148.9696 
L 314.629632 146.711452 
L 303.593489 136.0804 
L 298.865536 131.543027 
L 290.098712 123.1912 
L 283.10144 116.547444 
L 276.466795 110.302 
L 267.337344 101.732445 
L 262.689098 97.4128 
L 251.573248 87.105532 
L 248.756261 84.5236 
L 235.809152 72.674043 
L 234.657942 71.6344 
L 220.376405 58.7452 
L 220.045056 58.446289 
L 205.8827 45.856 
L 204.28096 45.856 
L 189.641081 45.856 
L 204.28096 58.651001 
L 204.386888 58.7452 
L 218.882976 71.6344 
L 220.045056 72.667454 
L 233.169643 84.5236 
L 235.809152 86.910505 
L 247.264207 97.4128 
L 251.573248 101.371972 
L 261.179521 110.302 
L 267.337344 116.044118 
L 274.926894 123.1912 
L 283.10144 130.919108 
L 288.516535 136.0804 
L 298.865536 145.988855 
L 301.957887 148.9696 
L 314.629632 161.244914 
L 315.259872 161.8588 
L 328.412265 174.748 
L 330.393728 176.703882 
L 341.433869 187.6372 
L 346.157824 192.349171 
L 354.337097 200.5264 
z
" clip-path="url(#p0d8f02b754)" style="fill: #277e8e"/>
    <path d="M 172.752768 300.547385 
L 176.234847 303.64 
L 188.516864 303.64 
L 194.224573 303.64 
L 188.516864 298.603807 
L 179.668854 290.7508 
L 172.752768 284.600964 
L 165.211512 277.8616 
L 156.988672 270.491881 
L 150.85577 264.9724 
L 141.224576 256.270699 
L 136.605164 252.0832 
L 125.46048 241.930964 
L 122.463524 239.194 
L 109.696384 227.465604 
L 108.434971 226.3048 
L 94.519414 213.4156 
L 93.932288 212.867693 
L 80.714794 200.5264 
L 78.168192 198.126157 
L 67.035924 187.6372 
L 62.404096 183.226888 
L 53.488909 174.748 
L 46.64 168.158179 
L 46.64 174.748 
L 46.64 184.890277 
L 49.52505 187.6372 
L 62.404096 199.780777 
L 63.194536 200.5264 
L 76.969637 213.4156 
L 78.168192 214.529272 
L 90.849833 226.3048 
L 93.932288 229.148141 
L 104.836906 239.194 
L 109.696384 243.644961 
L 118.926611 252.0832 
L 125.46048 258.026935 
L 133.114927 264.9724 
L 141.224576 272.30069 
L 147.398066 277.8616 
L 156.988672 286.472313 
L 161.772476 290.7508 
z
M 361.92192 193.244594 
L 361.92192 187.6372 
L 361.92192 178.567587 
L 358.068457 174.748 
L 346.157824 162.993311 
L 345.00316 161.8588 
L 331.822853 148.9696 
L 330.393728 147.577089 
L 318.52476 136.0804 
L 314.629632 132.318942 
L 305.113078 123.1912 
L 298.865536 117.215662 
L 291.580652 110.302 
L 283.10144 102.274681 
L 277.919945 97.4128 
L 267.337344 87.503233 
L 264.122913 84.5236 
L 251.573248 72.908386 
L 250.180838 71.6344 
L 236.079852 58.7452 
L 235.809152 58.49795 
L 221.791084 45.856 
L 220.045056 45.856 
L 205.8827 45.856 
L 220.045056 58.446289 
L 220.376405 58.7452 
L 234.657942 71.6344 
L 235.809152 72.674043 
L 248.756261 84.5236 
L 251.573248 87.105532 
L 262.689098 97.4128 
L 267.337344 101.732445 
L 276.466795 110.302 
L 283.10144 116.547444 
L 290.098712 123.1912 
L 298.865536 131.543027 
L 303.593489 136.0804 
L 314.629632 146.711452 
L 316.959244 148.9696 
L 330.201895 161.8588 
L 330.393728 162.04665 
L 343.307185 174.748 
L 346.157824 177.567341 
L 356.303819 187.6372 
z
" clip-path="url(#p0d8f02b754)" style="fill: #238a8d"/>
    <path d="M 156.988672 302.577823 
L 158.178283 303.64 
L 172.752768 303.64 
L 176.234847 303.64 
L 172.752768 300.547385 
L 161.772476 290.7508 
L 156.988672 286.472313 
L 147.398066 277.8616 
L 141.224576 272.30069 
L 133.114927 264.9724 
L 125.46048 258.026935 
L 118.926611 252.0832 
L 109.696384 243.644961 
L 104.836906 239.194 
L 93.932288 229.148141 
L 90.849833 226.3048 
L 78.168192 214.529272 
L 76.969637 213.4156 
L 63.194536 200.5264 
L 62.404096 199.780777 
L 49.52505 187.6372 
L 46.64 184.890277 
L 46.64 187.6372 
L 46.64 200.5264 
L 46.64 201.582788 
L 59.264658 213.4156 
L 62.404096 216.337383 
L 73.11914 226.3048 
L 78.168192 230.971787 
L 87.072104 239.194 
L 93.932288 245.493299 
L 101.119471 252.0832 
L 109.696384 259.908666 
L 115.257359 264.9724 
L 125.46048 274.224117 
L 129.482083 277.8616 
L 141.224576 288.445402 
L 143.790153 290.7508 
z
M 361.92192 178.567587 
L 361.92192 174.748 
L 361.92192 164.077032 
L 359.671846 161.8588 
L 346.552145 148.9696 
L 346.157824 148.583482 
L 333.316065 136.0804 
L 330.393728 133.241997 
L 319.979099 123.1912 
L 314.629632 118.040283 
L 306.534833 110.302 
L 298.865536 102.985485 
L 292.976554 97.4128 
L 283.10144 88.084598 
L 279.297165 84.5236 
L 267.337344 73.344474 
L 265.489081 71.6344 
L 251.573248 58.771851 
L 251.544084 58.7452 
L 237.428111 45.856 
L 235.809152 45.856 
L 221.791084 45.856 
L 235.809152 58.49795 
L 236.079852 58.7452 
L 250.180838 71.6344 
L 251.573248 72.908386 
L 264.122913 84.5236 
L 267.337344 87.503233 
L 277.919945 97.4128 
L 283.10144 102.274681 
L 291.580652 110.302 
L 298.865536 117.215662 
L 305.113078 123.1912 
L 314.629632 132.318942 
L 318.52476 136.0804 
L 330.393728 147.577089 
L 331.822853 148.9696 
L 345.00316 161.8588 
L 346.157824 162.993311 
L 358.068457 174.748 
z
" clip-path="url(#p0d8f02b754)" style="fill: #1f968b"/>
    <path d="M 141.224576 303.64 
L 156.988672 303.64 
L 158.178283 303.64 
L 156.988672 302.577823 
L 143.790153 290.7508 
L 141.224576 288.445402 
L 129.482083 277.8616 
L 125.46048 274.224117 
L 115.257359 264.9724 
L 109.696384 259.908666 
L 101.119471 252.0832 
L 93.932288 245.493299 
L 87.072104 239.194 
L 78.168192 230.971787 
L 73.11914 226.3048 
L 62.404096 216.337383 
L 59.264658 213.4156 
L 46.64 201.582788 
L 46.64 213.4156 
L 46.64 218.2938 
L 55.238102 226.3048 
L 62.404096 232.940812 
L 69.161784 239.194 
L 78.168192 247.482447 
L 83.173288 252.0832 
L 93.932288 261.925058 
L 97.268878 264.9724 
L 109.696384 276.274531 
L 111.44499 277.8616 
L 125.46048 290.536315 
L 125.698235 290.7508 
L 140.018534 303.64 
z
M 361.92192 164.077032 
L 361.92192 161.8588 
L 361.92192 149.734822 
L 361.142399 148.9696 
L 347.971736 136.0804 
L 346.157824 134.308939 
L 334.703309 123.1912 
L 330.393728 119.015636 
L 321.338866 110.302 
L 314.629632 103.856052 
L 307.872337 97.4128 
L 298.865536 88.836957 
L 294.297347 84.5236 
L 283.10144 73.965013 
L 280.607147 71.6344 
L 267.337344 59.246777 
L 266.794514 58.7452 
L 252.834044 45.856 
L 251.573248 45.856 
L 237.428111 45.856 
L 251.544084 58.7452 
L 251.573248 58.771851 
L 265.489081 71.6344 
L 267.337344 73.344474 
L 279.297165 84.5236 
L 283.10144 88.084598 
L 292.976554 97.4128 
L 298.865536 102.985485 
L 306.534833 110.302 
L 314.629632 118.040283 
L 319.979099 123.1912 
L 330.393728 133.241997 
L 333.316065 136.0804 
L 346.157824 148.583482 
L 346.552145 148.9696 
L 359.671846 161.8588 
z
" clip-path="url(#p0d8f02b754)" style="fill: #1fa287"/>
    <path d="M 109.696384 292.769547 
L 121.732634 303.64 
L 125.46048 303.64 
L 140.018534 303.64 
L 125.698235 290.7508 
L 125.46048 290.536315 
L 111.44499 277.8616 
L 109.696384 276.274531 
L 97.268878 264.9724 
L 93.932288 261.925058 
L 83.173288 252.0832 
L 78.168192 247.482447 
L 69.161784 239.194 
L 62.404096 232.940812 
L 55.238102 226.3048 
L 46.64 218.2938 
L 46.64 226.3048 
L 46.64 235.058591 
L 51.10077 239.194 
L 62.404096 249.617329 
L 65.080707 252.0832 
L 78.168192 264.082934 
L 79.139548 264.9724 
L 93.269255 277.8616 
L 93.932288 278.464554 
L 107.465577 290.7508 
z
M 361.92192 149.734822 
L 361.92192 148.9696 
L 361.92192 136.0804 
L 361.92192 135.517517 
L 349.290702 123.1912 
L 346.157824 120.137806 
L 335.999759 110.302 
L 330.393728 104.880301 
L 322.616905 97.4128 
L 314.629632 89.75156 
L 309.13634 84.5236 
L 298.865536 74.758064 
L 295.55196 71.6344 
L 283.10144 59.906216 
L 281.85729 58.7452 
L 268.03639 45.856 
L 267.337344 45.856 
L 252.834044 45.856 
L 266.794514 58.7452 
L 267.337344 59.246777 
L 280.607147 71.6344 
L 283.10144 73.965013 
L 294.297347 84.5236 
L 298.865536 88.836957 
L 307.872337 97.4128 
L 314.629632 103.856052 
L 321.338866 110.302 
L 330.393728 119.015636 
L 334.703309 123.1912 
L 346.157824 134.308939 
L 347.971736 136.0804 
L 361.142399 148.9696 
z
" clip-path="url(#p0d8f02b754)" style="fill: #28ae80"/>
    <path d="M 93.932288 295.143165 
L 103.312975 303.64 
L 109.696384 303.64 
L 121.732634 303.64 
L 109.696384 292.769547 
L 107.465577 290.7508 
L 93.932288 278.464554 
L 93.269255 277.8616 
L 79.139548 264.9724 
L 78.168192 264.082934 
L 65.080707 252.0832 
L 62.404096 249.617329 
L 51.10077 239.194 
L 46.64 235.058591 
L 46.64 239.194 
L 46.64 251.9019 
L 46.836395 252.0832 
L 60.850807 264.9724 
L 62.404096 266.395302 
L 74.936271 277.8616 
L 78.168192 280.807814 
L 89.091279 290.7508 
z
M 361.92192 135.517517 
L 361.92192 123.1912 
L 361.92192 121.404015 
L 350.522943 110.302 
L 346.157824 106.053918 
L 337.217497 97.4128 
L 330.393728 90.822192 
L 323.823639 84.5236 
L 314.629632 75.715148 
L 310.335785 71.6344 
L 298.865536 60.739041 
L 296.748047 58.7452 
L 283.10144 45.900069 
L 283.054175 45.856 
L 268.03639 45.856 
L 281.85729 58.7452 
L 283.10144 59.906216 
L 295.55196 71.6344 
L 298.865536 74.758064 
L 309.13634 84.5236 
L 314.629632 89.75156 
L 322.616905 97.4128 
L 330.393728 104.880301 
L 335.999759 110.302 
L 346.157824 120.137806 
L 349.290702 123.1912 
z
" clip-path="url(#p0d8f02b754)" style="fill: #38b977"/>
    <path d="M 78.168192 297.662923 
L 84.74951 303.64 
L 93.932288 303.64 
L 103.312975 303.64 
L 93.932288 295.143165 
L 89.091279 290.7508 
L 78.168192 280.807814 
L 74.936271 277.8616 
L 62.404096 266.395302 
L 60.850807 264.9724 
L 46.836395 252.0832 
L 46.64 251.9019 
L 46.64 252.0832 
L 46.64 264.9724 
L 46.64 268.864646 
L 56.451272 277.8616 
L 62.404096 283.300587 
L 70.568679 290.7508 
z
M 361.92192 121.404015 
L 361.92192 110.302 
L 361.92192 107.373777 
L 351.679809 97.4128 
L 346.157824 92.044346 
L 338.366546 84.5236 
L 330.393728 76.830103 
L 324.967884 71.6344 
L 314.629632 61.737163 
L 311.478414 58.7452 
L 298.865536 46.771604 
L 297.892425 45.856 
L 283.10144 45.856 
L 283.054175 45.856 
L 283.10144 45.900069 
L 296.748047 58.7452 
L 298.865536 60.739041 
L 310.335785 71.6344 
L 314.629632 75.715148 
L 323.823639 84.5236 
L 330.393728 90.822192 
L 337.217497 97.4128 
L 346.157824 106.053918 
L 350.522943 110.302 
z
" clip-path="url(#p0d8f02b754)" style="fill: #50c46a"/>
    <path d="M 62.404096 300.334679 
L 66.034583 303.64 
L 78.168192 303.64 
L 84.74951 303.64 
L 78.168192 297.662923 
L 70.568679 290.7508 
L 62.404096 283.300587 
L 56.451272 277.8616 
L 46.64 268.864646 
L 46.64 277.8616 
L 46.64 285.947686 
L 51.891564 290.7508 
z
M 361.92192 107.373777 
L 361.92192 97.4128 
L 361.92192 93.414695 
L 352.770896 84.5236 
L 346.157824 78.098374 
L 339.455519 71.6344 
L 330.393728 62.894593 
L 326.057361 58.7452 
L 314.629632 47.809312 
L 312.57116 45.856 
L 298.865536 45.856 
L 297.892425 45.856 
L 298.865536 46.771604 
L 311.478414 58.7452 
L 314.629632 61.737163 
L 324.967884 71.6344 
L 330.393728 76.830103 
L 338.366546 84.5236 
L 346.157824 92.044346 
L 351.679809 97.4128 
z
" clip-path="url(#p0d8f02b754)" style="fill: #6ccd5a"/>
    <path d="M 62.404096 303.64 
L 66.034583 303.64 
L 62.404096 300.334679 
L 51.891564 290.7508 
L 46.64 285.947686 
L 46.64 290.7508 
L 46.64 303.163405 
L 47.162255 303.64 
z
M 361.92192 93.414695 
L 361.92192 84.5236 
L 361.92192 79.51655 
L 353.80457 71.6344 
L 346.157824 64.206833 
L 340.492039 58.7452 
L 330.393728 49.00745 
L 327.09903 45.856 
L 314.629632 45.856 
L 312.57116 45.856 
L 314.629632 47.809312 
L 326.057361 58.7452 
L 330.393728 62.894593 
L 339.455519 71.6344 
L 346.157824 78.098374 
L 352.770896 84.5236 
z
" clip-path="url(#p0d8f02b754)" style="fill: #8bd646"/>
    <path d="M 46.64 303.163405 
L 46.64 303.64 
L 47.162255 303.64 
z
M 361.92192 79.51655 
L 361.92192 71.6344 
L 361.92192 65.670473 
L 354.788313 58.7452 
L 346.157824 50.361649 
L 341.48303 45.856 
L 330.393728 45.856 
L 327.09903 45.856 
L 330.393728 49.00745 
L 340.492039 58.7452 
L 346.157824 64.206833 
L 353.80457 71.6344 
z
" clip-path="url(#p0d8f02b754)" style="fill: #aadc32"/>
    <path d="M 361.92192 65.670473 
L 361.92192 58.7452 
L 361.92192 51.868564 
L 355.72897 45.856 
L 346.157824 45.856 
L 341.48303 45.856 
L 346.157824 50.361649 
L 354.788313 58.7452 
z
" clip-path="url(#p0d8f02b754)" style="fill: #cde11d"/>
    <path d="M 361.92192 51.868564 
L 361.92192 45.856 
L 355.72897 45.856 
z
" clip-path="url(#p0d8f02b754)" style="fill: #efe51c"/>
   </g>
   <g id="PathCollection_1">
    <defs>
     <path id="mba8601f5da" d="M 0 3 
C 0.795609 3 1.55874 2.683901 2.12132 2.12132 
C 2.683901 1.55874 3 0.795609 3 0 
C 3 -0.795609 2.683901 -1.55874 2.12132 -2.12132 
C 1.55874 -2.683901 0.795609 -3 0 -3 
C -0.795609 -3 -1.55874 -2.683901 -2.12132 -2.12132 
C -2.683901 -1.55874 -3 -0.795609 -3 0 
C -3 0.795609 -2.683901 1.55874 -2.12132 2.12132 
C -1.55874 2.683901 -0.795609 3 0 3 
z
" style="stroke: #ff0000"/>
    </defs>
    <g clip-path="url(#p0d8f02b754)">
     <use xlink:href="#mba8601f5da" x="290.983488" y="190.8595" style="fill: #ff0000; stroke: #ff0000"/>
    </g>
   </g>
   <g id="matplotlib.axis_1">
    <g id="xtick_1">
     <g id="line2d_1">
      <defs>
       <path id="mf721448a22" d="M 0 0 
L 0 3.5 
" style="stroke: #000000; stroke-width: 0.8"/>
      </defs>
      <g>
       <use xlink:href="#mf721448a22" x="46.64" y="303.64" style="stroke: #000000; stroke-width: 0.8"/>
      </g>
     </g>
     <g id="text_1">
      <!-- −4 -->
      <g transform="translate(39.268906 318.238437) scale(0.1 -0.1)">
       <defs>
        <path id="DejaVuSans-2212" d="M 678 2272 
L 4684 2272 
L 4684 1741 
L 678 1741 
L 678 2272 
z
" transform="scale(0.015625)"/>
        <path id="DejaVuSans-34" d="M 2419 4116 
L 825 1625 
L 2419 1625 
L 2419 4116 
z
M 2253 4666 
L 3047 4666 
L 3047 1625 
L 3713 1625 
L 3713 1100 
L 3047 1100 
L 3047 0 
L 2419 0 
L 2419 1100 
L 313 1100 
L 313 1709 
L 2253 4666 
z
" transform="scale(0.015625)"/>
       </defs>
       <use xlink:href="#DejaVuSans-2212"/>
       <use xlink:href="#DejaVuSans-34" transform="translate(83.789062 0)"/>
      </g>
     </g>
    </g>
    <g id="xtick_2">
     <g id="line2d_2">
      <g>
       <use xlink:href="#mf721448a22" x="86.05024" y="303.64" style="stroke: #000000; stroke-width: 0.8"/>
      </g>
     </g>
     <g id="text_2">
      <!-- −3 -->
      <g transform="translate(78.679146 318.238437) scale(0.1 -0.1)">
       <defs>
        <path id="DejaVuSans-33" d="M 2597 2516 
Q 3050 2419 3304 2112 
Q 3559 1806 3559 1356 
Q 3559 666 3084 287 
Q 2609 -91 1734 -91 
Q 1441 -91 1130 -33 
Q 819 25 488 141 
L 488 750 
Q 750 597 1062 519 
Q 1375 441 1716 441 
Q 2309 441 2620 675 
Q 2931 909 2931 1356 
Q 2931 1769 2642 2001 
Q 2353 2234 1838 2234 
L 1294 2234 
L 1294 2753 
L 1863 2753 
Q 2328 2753 2575 2939 
Q 2822 3125 2822 3475 
Q 2822 3834 2567 4026 
Q 2313 4219 1838 4219 
Q 1578 4219 1281 4162 
Q 984 4106 628 3988 
L 628 4550 
Q 988 4650 1302 4700 
Q 1616 4750 1894 4750 
Q 2613 4750 3031 4423 
Q 3450 4097 3450 3541 
Q 3450 3153 3228 2886 
Q 3006 2619 2597 2516 
z
" transform="scale(0.015625)"/>
       </defs>
       <use xlink:href="#DejaVuSans-2212"/>
       <use xlink:href="#DejaVuSans-33" transform="translate(83.789062 0)"/>
      </g>
     </g>
    </g>
    <g id="xtick_3">
     <g id="line2d_3">
      <g>
       <use xlink:href="#mf721448a22" x="125.46048" y="303.64" style="stroke: #000000; stroke-width: 0.8"/>
      </g>
     </g>
     <g id="text_3">
      <!-- −2 -->
      <g transform="translate(118.089386 318.238437) scale(0.1 -0.1)">
       <defs>
        <path id="DejaVuSans-32" d="M 1228 531 
L 3431 531 
L 3431 0 
L 469 0 
L 469 531 
Q 828 903 1448 1529 
Q 2069 2156 2228 2338 
Q 2531 2678 2651 2914 
Q 2772 3150 2772 3378 
Q 2772 3750 2511 3984 
Q 2250 4219 1831 4219 
Q 1534 4219 1204 4116 
Q 875 4013 500 3803 
L 500 4441 
Q 881 4594 1212 4672 
Q 1544 4750 1819 4750 
Q 2544 4750 2975 4387 
Q 3406 4025 3406 3419 
Q 3406 3131 3298 2873 
Q 3191 2616 2906 2266 
Q 2828 2175 2409 1742 
Q 1991 1309 1228 531 
z
" transform="scale(0.015625)"/>
       </defs>
       <use xlink:href="#DejaVuSans-2212"/>
       <use xlink:href="#DejaVuSans-32" transform="translate(83.789062 0)"/>
      </g>
     </g>
    </g>
    <g id="xtick_4">
     <g id="line2d_4">
      <g>
       <use xlink:href="#mf721448a22" x="164.87072" y="303.64" style="stroke: #000000; stroke-width: 0.8"/>
      </g>
     </g>
     <g id="text_4">
      <!-- −1 -->
      <g transform="translate(157.499626 318.238437) scale(0.1 -0.1)">
       <defs>
        <path id="DejaVuSans-31" d="M 794 531 
L 1825 531 
L 1825 4091 
L 703 3866 
L 703 4441 
L 1819 4666 
L 2450 4666 
L 2450 531 
L 3481 531 
L 3481 0 
L 794 0 
L 794 531 
z
" transform="scale(0.015625)"/>
       </defs>
       <use xlink:href="#DejaVuSans-2212"/>
       <use xlink:href="#DejaVuSans-31" transform="translate(83.789062 0)"/>
      </g>
     </g>
    </g>
    <g id="xtick_5">
     <g id="line2d_5">
      <g>
       <use xlink:href="#mf721448a22" x="204.28096" y="303.64" style="stroke: #000000; stroke-width: 0.8"/>
      </g>
     </g>
     <g id="text_5">
      <!-- 0 -->
      <g transform="translate(201.09971 318.238437) scale(0.1 -0.1)">
       <defs>
        <path id="DejaVuSans-30" d="M 2034 4250 
Q 1547 4250 1301 3770 
Q 1056 3291 1056 2328 
Q 1056 1369 1301 889 
Q 1547 409 2034 409 
Q 2525 409 2770 889 
Q 3016 1369 3016 2328 
Q 3016 3291 2770 3770 
Q 2525 4250 2034 4250 
z
M 2034 4750 
Q 2819 4750 3233 4129 
Q 3647 3509 3647 2328 
Q 3647 1150 3233 529 
Q 2819 -91 2034 -91 
Q 1250 -91 836 529 
Q 422 1150 422 2328 
Q 422 3509 836 4129 
Q 1250 4750 2034 4750 
z
" transform="scale(0.015625)"/>
       </defs>
       <use xlink:href="#DejaVuSans-30"/>
      </g>
     </g>
    </g>
    <g id="xtick_6">
     <g id="line2d_6">
      <g>
       <use xlink:href="#mf721448a22" x="243.6912" y="303.64" style="stroke: #000000; stroke-width: 0.8"/>
      </g>
     </g>
     <g id="text_6">
      <!-- 1 -->
      <g transform="translate(240.50995 318.238437) scale(0.1 -0.1)">
       <use xlink:href="#DejaVuSans-31"/>
      </g>
     </g>
    </g>
    <g id="xtick_7">
     <g id="line2d_7">
      <g>
       <use xlink:href="#mf721448a22" x="283.10144" y="303.64" style="stroke: #000000; stroke-width: 0.8"/>
      </g>
     </g>
     <g id="text_7">
      <!-- 2 -->
      <g transform="translate(279.92019 318.238437) scale(0.1 -0.1)">
       <use xlink:href="#DejaVuSans-32"/>
      </g>
     </g>
    </g>
    <g id="xtick_8">
     <g id="line2d_8">
      <g>
       <use xlink:href="#mf721448a22" x="322.51168" y="303.64" style="stroke: #000000; stroke-width: 0.8"/>
      </g>
     </g>
     <g id="text_8">
      <!-- 3 -->
      <g transform="translate(319.33043 318.238437) scale(0.1 -0.1)">
       <use xlink:href="#DejaVuSans-33"/>
      </g>
     </g>
    </g>
    <g id="xtick_9">
     <g id="line2d_9">
      <g>
       <use xlink:href="#mf721448a22" x="361.92192" y="303.64" style="stroke: #000000; stroke-width: 0.8"/>
      </g>
     </g>
     <g id="text_9">
      <!-- 4 -->
      <g transform="translate(358.74067 318.238437) scale(0.1 -0.1)">
       <use xlink:href="#DejaVuSans-34"/>
      </g>
     </g>
    </g>
    <g id="text_10">
     <!-- Relative distance in first direction -->
     <g transform="translate(120.33721 331.916562) scale(0.1 -0.1)">
      <defs>
       <path id="DejaVuSans-52" d="M 2841 2188 
Q 3044 2119 3236 1894 
Q 3428 1669 3622 1275 
L 4263 0 
L 3584 0 
L 2988 1197 
Q 2756 1666 2539 1819 
Q 2322 1972 1947 1972 
L 1259 1972 
L 1259 0 
L 628 0 
L 628 4666 
L 2053 4666 
Q 2853 4666 3247 4331 
Q 3641 3997 3641 3322 
Q 3641 2881 3436 2590 
Q 3231 2300 2841 2188 
z
M 1259 4147 
L 1259 2491 
L 2053 2491 
Q 2509 2491 2742 2702 
Q 2975 2913 2975 3322 
Q 2975 3731 2742 3939 
Q 2509 4147 2053 4147 
L 1259 4147 
z
" transform="scale(0.015625)"/>
       <path id="DejaVuSans-65" d="M 3597 1894 
L 3597 1613 
L 953 1613 
Q 991 1019 1311 708 
Q 1631 397 2203 397 
Q 2534 397 2845 478 
Q 3156 559 3463 722 
L 3463 178 
Q 3153 47 2828 -22 
Q 2503 -91 2169 -91 
Q 1331 -91 842 396 
Q 353 884 353 1716 
Q 353 2575 817 3079 
Q 1281 3584 2069 3584 
Q 2775 3584 3186 3129 
Q 3597 2675 3597 1894 
z
M 3022 2063 
Q 3016 2534 2758 2815 
Q 2500 3097 2075 3097 
Q 1594 3097 1305 2825 
Q 1016 2553 972 2059 
L 3022 2063 
z
" transform="scale(0.015625)"/>
       <path id="DejaVuSans-6c" d="M 603 4863 
L 1178 4863 
L 1178 0 
L 603 0 
L 603 4863 
z
" transform="scale(0.015625)"/>
       <path id="DejaVuSans-61" d="M 2194 1759 
Q 1497 1759 1228 1600 
Q 959 1441 959 1056 
Q 959 750 1161 570 
Q 1363 391 1709 391 
Q 2188 391 2477 730 
Q 2766 1069 2766 1631 
L 2766 1759 
L 2194 1759 
z
M 3341 1997 
L 3341 0 
L 2766 0 
L 2766 531 
Q 2569 213 2275 61 
Q 1981 -91 1556 -91 
Q 1019 -91 701 211 
Q 384 513 384 1019 
Q 384 1609 779 1909 
Q 1175 2209 1959 2209 
L 2766 2209 
L 2766 2266 
Q 2766 2663 2505 2880 
Q 2244 3097 1772 3097 
Q 1472 3097 1187 3025 
Q 903 2953 641 2809 
L 641 3341 
Q 956 3463 1253 3523 
Q 1550 3584 1831 3584 
Q 2591 3584 2966 3190 
Q 3341 2797 3341 1997 
z
" transform="scale(0.015625)"/>
       <path id="DejaVuSans-74" d="M 1172 4494 
L 1172 3500 
L 2356 3500 
L 2356 3053 
L 1172 3053 
L 1172 1153 
Q 1172 725 1289 603 
Q 1406 481 1766 481 
L 2356 481 
L 2356 0 
L 1766 0 
Q 1100 0 847 248 
Q 594 497 594 1153 
L 594 3053 
L 172 3053 
L 172 3500 
L 594 3500 
L 594 4494 
L 1172 4494 
z
" transform="scale(0.015625)"/>
       <path id="DejaVuSans-69" d="M 603 3500 
L 1178 3500 
L 1178 0 
L 603 0 
L 603 3500 
z
M 603 4863 
L 1178 4863 
L 1178 4134 
L 603 4134 
L 603 4863 
z
" transform="scale(0.015625)"/>
       <path id="DejaVuSans-76" d="M 191 3500 
L 800 3500 
L 1894 563 
L 2988 3500 
L 3597 3500 
L 2284 0 
L 1503 0 
L 191 3500 
z
" transform="scale(0.015625)"/>
       <path id="DejaVuSans-20" transform="scale(0.015625)"/>
       <path id="DejaVuSans-64" d="M 2906 2969 
L 2906 4863 
L 3481 4863 
L 3481 0 
L 2906 0 
L 2906 525 
Q 2725 213 2448 61 
Q 2172 -91 1784 -91 
Q 1150 -91 751 415 
Q 353 922 353 1747 
Q 353 2572 751 3078 
Q 1150 3584 1784 3584 
Q 2172 3584 2448 3432 
Q 2725 3281 2906 2969 
z
M 947 1747 
Q 947 1113 1208 752 
Q 1469 391 1925 391 
Q 2381 391 2643 752 
Q 2906 1113 2906 1747 
Q 2906 2381 2643 2742 
Q 2381 3103 1925 3103 
Q 1469 3103 1208 2742 
Q 947 2381 947 1747 
z
" transform="scale(0.015625)"/>
       <path id="DejaVuSans-73" d="M 2834 3397 
L 2834 2853 
Q 2591 2978 2328 3040 
Q 2066 3103 1784 3103 
Q 1356 3103 1142 2972 
Q 928 2841 928 2578 
Q 928 2378 1081 2264 
Q 1234 2150 1697 2047 
L 1894 2003 
Q 2506 1872 2764 1633 
Q 3022 1394 3022 966 
Q 3022 478 2636 193 
Q 2250 -91 1575 -91 
Q 1294 -91 989 -36 
Q 684 19 347 128 
L 347 722 
Q 666 556 975 473 
Q 1284 391 1588 391 
Q 1994 391 2212 530 
Q 2431 669 2431 922 
Q 2431 1156 2273 1281 
Q 2116 1406 1581 1522 
L 1381 1569 
Q 847 1681 609 1914 
Q 372 2147 372 2553 
Q 372 3047 722 3315 
Q 1072 3584 1716 3584 
Q 2034 3584 2315 3537 
Q 2597 3491 2834 3397 
z
" transform="scale(0.015625)"/>
       <path id="DejaVuSans-6e" d="M 3513 2113 
L 3513 0 
L 2938 0 
L 2938 2094 
Q 2938 2591 2744 2837 
Q 2550 3084 2163 3084 
Q 1697 3084 1428 2787 
Q 1159 2491 1159 1978 
L 1159 0 
L 581 0 
L 581 3500 
L 1159 3500 
L 1159 2956 
Q 1366 3272 1645 3428 
Q 1925 3584 2291 3584 
Q 2894 3584 3203 3211 
Q 3513 2838 3513 2113 
z
" transform="scale(0.015625)"/>
       <path id="DejaVuSans-63" d="M 3122 3366 
L 3122 2828 
Q 2878 2963 2633 3030 
Q 2388 3097 2138 3097 
Q 1578 3097 1268 2742 
Q 959 2388 959 1747 
Q 959 1106 1268 751 
Q 1578 397 2138 397 
Q 2388 397 2633 464 
Q 2878 531 3122 666 
L 3122 134 
Q 2881 22 2623 -34 
Q 2366 -91 2075 -91 
Q 1284 -91 818 406 
Q 353 903 353 1747 
Q 353 2603 823 3093 
Q 1294 3584 2113 3584 
Q 2378 3584 2631 3529 
Q 2884 3475 3122 3366 
z
" transform="scale(0.015625)"/>
       <path id="DejaVuSans-66" d="M 2375 4863 
L 2375 4384 
L 1825 4384 
Q 1516 4384 1395 4259 
Q 1275 4134 1275 3809 
L 1275 3500 
L 2222 3500 
L 2222 3053 
L 1275 3053 
L 1275 0 
L 697 0 
L 697 3053 
L 147 3053 
L 147 3500 
L 697 3500 
L 697 3744 
Q 697 4328 969 4595 
Q 1241 4863 1831 4863 
L 2375 4863 
z
" transform="scale(0.015625)"/>
       <path id="DejaVuSans-72" d="M 2631 2963 
Q 2534 3019 2420 3045 
Q 2306 3072 2169 3072 
Q 1681 3072 1420 2755 
Q 1159 2438 1159 1844 
L 1159 0 
L 581 0 
L 581 3500 
L 1159 3500 
L 1159 2956 
Q 1341 3275 1631 3429 
Q 1922 3584 2338 3584 
Q 2397 3584 2469 3576 
Q 2541 3569 2628 3553 
L 2631 2963 
z
" transform="scale(0.015625)"/>
       <path id="DejaVuSans-6f" d="M 1959 3097 
Q 1497 3097 1228 2736 
Q 959 2375 959 1747 
Q 959 1119 1226 758 
Q 1494 397 1959 397 
Q 2419 397 2687 759 
Q 2956 1122 2956 1747 
Q 2956 2369 2687 2733 
Q 2419 3097 1959 3097 
z
M 1959 3584 
Q 2709 3584 3137 3096 
Q 3566 2609 3566 1747 
Q 3566 888 3137 398 
Q 2709 -91 1959 -91 
Q 1206 -91 779 398 
Q 353 888 353 1747 
Q 353 2609 779 3096 
Q 1206 3584 1959 3584 
z
" transform="scale(0.015625)"/>
      </defs>
      <use xlink:href="#DejaVuSans-52"/>
      <use xlink:href="#DejaVuSans-65" transform="translate(64.982422 0)"/>
      <use xlink:href="#DejaVuSans-6c" transform="translate(126.505859 0)"/>
      <use xlink:href="#DejaVuSans-61" transform="translate(154.289062 0)"/>
      <use xlink:href="#DejaVuSans-74" transform="translate(215.568359 0)"/>
      <use xlink:href="#DejaVuSans-69" transform="translate(254.777344 0)"/>
      <use xlink:href="#DejaVuSans-76" transform="translate(282.560547 0)"/>
      <use xlink:href="#DejaVuSans-65" transform="translate(341.740234 0)"/>
      <use xlink:href="#DejaVuSans-20" transform="translate(403.263672 0)"/>
      <use xlink:href="#DejaVuSans-64" transform="translate(435.050781 0)"/>
      <use xlink:href="#DejaVuSans-69" transform="translate(498.527344 0)"/>
      <use xlink:href="#DejaVuSans-73" transform="translate(526.310547 0)"/>
      <use xlink:href="#DejaVuSans-74" transform="translate(578.410156 0)"/>
      <use xlink:href="#DejaVuSans-61" transform="translate(617.619141 0)"/>
      <use xlink:href="#DejaVuSans-6e" transform="translate(678.898438 0)"/>
      <use xlink:href="#DejaVuSans-63" transform="translate(742.277344 0)"/>
      <use xlink:href="#DejaVuSans-65" transform="translate(797.257812 0)"/>
      <use xlink:href="#DejaVuSans-20" transform="translate(858.78125 0)"/>
      <use xlink:href="#DejaVuSans-69" transform="translate(890.568359 0)"/>
      <use xlink:href="#DejaVuSans-6e" transform="translate(918.351562 0)"/>
      <use xlink:href="#DejaVuSans-20" transform="translate(981.730469 0)"/>
      <use xlink:href="#DejaVuSans-66" transform="translate(1013.517578 0)"/>
      <use xlink:href="#DejaVuSans-69" transform="translate(1048.722656 0)"/>
      <use xlink:href="#DejaVuSans-72" transform="translate(1076.505859 0)"/>
      <use xlink:href="#DejaVuSans-73" transform="translate(1117.619141 0)"/>
      <use xlink:href="#DejaVuSans-74" transform="translate(1169.71875 0)"/>
      <use xlink:href="#DejaVuSans-20" transform="translate(1208.927734 0)"/>
      <use xlink:href="#DejaVuSans-64" transform="translate(1240.714844 0)"/>
      <use xlink:href="#DejaVuSans-69" transform="translate(1304.191406 0)"/>
      <use xlink:href="#DejaVuSans-72" transform="translate(1331.974609 0)"/>
      <use xlink:href="#DejaVuSans-65" transform="translate(1370.837891 0)"/>
      <use xlink:href="#DejaVuSans-63" transform="translate(1432.361328 0)"/>
      <use xlink:href="#DejaVuSans-74" transform="translate(1487.341797 0)"/>
      <use xlink:href="#DejaVuSans-69" transform="translate(1526.550781 0)"/>
      <use xlink:href="#DejaVuSans-6f" transform="translate(1554.333984 0)"/>
      <use xlink:href="#DejaVuSans-6e" transform="translate(1615.515625 0)"/>
     </g>
    </g>
   </g>
   <g id="matplotlib.axis_2">
    <g id="ytick_1">
     <g id="line2d_10">
      <defs>
       <path id="m6647babe83" d="M 0 0 
L -3.5 0 
" style="stroke: #000000; stroke-width: 0.8"/>
      </defs>
      <g>
       <use xlink:href="#m6647babe83" x="46.64" y="303.64" style="stroke: #000000; stroke-width: 0.8"/>
      </g>
     </g>
     <g id="text_11">
      <!-- −4 -->
      <g transform="translate(24.897813 307.439219) scale(0.1 -0.1)">
       <use xlink:href="#DejaVuSans-2212"/>
       <use xlink:href="#DejaVuSans-34" transform="translate(83.789062 0)"/>
      </g>
     </g>
    </g>
    <g id="ytick_2">
     <g id="line2d_11">
      <g>
       <use xlink:href="#m6647babe83" x="46.64" y="271.417" style="stroke: #000000; stroke-width: 0.8"/>
      </g>
     </g>
     <g id="text_12">
      <!-- −3 -->
      <g transform="translate(24.897813 275.216219) scale(0.1 -0.1)">
       <use xlink:href="#DejaVuSans-2212"/>
       <use xlink:href="#DejaVuSans-33" transform="translate(83.789062 0)"/>
      </g>
     </g>
    </g>
    <g id="ytick_3">
     <g id="line2d_12">
      <g>
       <use xlink:href="#m6647babe83" x="46.64" y="239.194" style="stroke: #000000; stroke-width: 0.8"/>
      </g>
     </g>
     <g id="text_13">
      <!-- −2 -->
      <g transform="translate(24.897813 242.993219) scale(0.1 -0.1)">
       <use xlink:href="#DejaVuSans-2212"/>
       <use xlink:href="#DejaVuSans-32" transform="translate(83.789062 0)"/>
      </g>
     </g>
    </g>
    <g id="ytick_4">
     <g id="line2d_13">
      <g>
       <use xlink:href="#m6647babe83" x="46.64" y="206.971" style="stroke: #000000; stroke-width: 0.8"/>
      </g>
     </g>
     <g id="text_14">
      <!-- −1 -->
      <g transform="translate(24.897813 210.770219) scale(0.1 -0.1)">
       <use xlink:href="#DejaVuSans-2212"/>
       <use xlink:href="#DejaVuSans-31" transform="translate(83.789062 0)"/>
      </g>
     </g>
    </g>
    <g id="ytick_5">
     <g id="line2d_14">
      <g>
       <use xlink:href="#m6647babe83" x="46.64" y="174.748" style="stroke: #000000; stroke-width: 0.8"/>
      </g>
     </g>
     <g id="text_15">
      <!-- 0 -->
      <g transform="translate(33.2775 178.547219) scale(0.1 -0.1)">
       <use xlink:href="#DejaVuSans-30"/>
      </g>
     </g>
    </g>
    <g id="ytick_6">
     <g id="line2d_15">
      <g>
       <use xlink:href="#m6647babe83" x="46.64" y="142.525" style="stroke: #000000; stroke-width: 0.8"/>
      </g>
     </g>
     <g id="text_16">
      <!-- 1 -->
      <g transform="translate(33.2775 146.324219) scale(0.1 -0.1)">
       <use xlink:href="#DejaVuSans-31"/>
      </g>
     </g>
    </g>
    <g id="ytick_7">
     <g id="line2d_16">
      <g>
       <use xlink:href="#m6647babe83" x="46.64" y="110.302" style="stroke: #000000; stroke-width: 0.8"/>
      </g>
     </g>
     <g id="text_17">
      <!-- 2 -->
      <g transform="translate(33.2775 114.101219) scale(0.1 -0.1)">
       <use xlink:href="#DejaVuSans-32"/>
      </g>
     </g>
    </g>
    <g id="ytick_8">
     <g id="line2d_17">
      <g>
       <use xlink:href="#m6647babe83" x="46.64" y="78.079" style="stroke: #000000; stroke-width: 0.8"/>
      </g>
     </g>
     <g id="text_18">
      <!-- 3 -->
      <g transform="translate(33.2775 81.878219) scale(0.1 -0.1)">
       <use xlink:href="#DejaVuSans-33"/>
      </g>
     </g>
    </g>
    <g id="ytick_9">
     <g id="line2d_18">
      <g>
       <use xlink:href="#m6647babe83" x="46.64" y="45.856" style="stroke: #000000; stroke-width: 0.8"/>
      </g>
     </g>
     <g id="text_19">
      <!-- 4 -->
      <g transform="translate(33.2775 49.655219) scale(0.1 -0.1)">
       <use xlink:href="#DejaVuSans-34"/>
      </g>
     </g>
    </g>
    <g id="text_20">
     <!-- Relative distance in second direction -->
     <g transform="translate(18.818125 266.755031) rotate(-90) scale(0.1 -0.1)">
      <use xlink:href="#DejaVuSans-52"/>
      <use xlink:href="#DejaVuSans-65" transform="translate(64.982422 0)"/>
      <use xlink:href="#DejaVuSans-6c" transform="translate(126.505859 0)"/>
      <use xlink:href="#DejaVuSans-61" transform="translate(154.289062 0)"/>
      <use xlink:href="#DejaVuSans-74" transform="translate(215.568359 0)"/>
      <use xlink:href="#DejaVuSans-69" transform="translate(254.777344 0)"/>
      <use xlink:href="#DejaVuSans-76" transform="translate(282.560547 0)"/>
      <use xlink:href="#DejaVuSans-65" transform="translate(341.740234 0)"/>
      <use xlink:href="#DejaVuSans-20" transform="translate(403.263672 0)"/>
      <use xlink:href="#DejaVuSans-64" transform="translate(435.050781 0)"/>
      <use xlink:href="#DejaVuSans-69" transform="translate(498.527344 0)"/>
      <use xlink:href="#DejaVuSans-73" transform="translate(526.310547 0)"/>
      <use xlink:href="#DejaVuSans-74" transform="translate(578.410156 0)"/>
      <use xlink:href="#DejaVuSans-61" transform="translate(617.619141 0)"/>
      <use xlink:href="#DejaVuSans-6e" transform="translate(678.898438 0)"/>
      <use xlink:href="#DejaVuSans-63" transform="translate(742.277344 0)"/>
      <use xlink:href="#DejaVuSans-65" transform="translate(797.257812 0)"/>
      <use xlink:href="#DejaVuSans-20" transform="translate(858.78125 0)"/>
      <use xlink:href="#DejaVuSans-69" transform="translate(890.568359 0)"/>
      <use xlink:href="#DejaVuSans-6e" transform="translate(918.351562 0)"/>
      <use xlink:href="#DejaVuSans-20" transform="translate(981.730469 0)"/>
      <use xlink:href="#DejaVuSans-73" transform="translate(1013.517578 0)"/>
      <use xlink:href="#DejaVuSans-65" transform="translate(1065.617188 0)"/>
      <use xlink:href="#DejaVuSans-63" transform="translate(1127.140625 0)"/>
      <use xlink:href="#DejaVuSans-6f" transform="translate(1182.121094 0)"/>
      <use xlink:href="#DejaVuSans-6e" transform="translate(1243.302734 0)"/>
      <use xlink:href="#DejaVuSans-64" transform="translate(1306.681641 0)"/>
      <use xlink:href="#DejaVuSans-20" transform="translate(1370.158203 0)"/>
      <use xlink:href="#DejaVuSans-64" transform="translate(1401.945312 0)"/>
      <use xlink:href="#DejaVuSans-69" transform="translate(1465.421875 0)"/>
      <use xlink:href="#DejaVuSans-72" transform="translate(1493.205078 0)"/>
      <use xlink:href="#DejaVuSans-65" transform="translate(1532.068359 0)"/>
      <use xlink:href="#DejaVuSans-63" transform="translate(1593.591797 0)"/>
      <use xlink:href="#DejaVuSans-74" transform="translate(1648.572266 0)"/>
      <use xlink:href="#DejaVuSans-69" transform="translate(1687.78125 0)"/>
      <use xlink:href="#DejaVuSans-6f" transform="translate(1715.564453 0)"/>
      <use xlink:href="#DejaVuSans-6e" transform="translate(1776.746094 0)"/>
     </g>
    </g>
   </g>
   <g id="line2d_19">
    <path d="M 290.983488 190.8595 
L 289.211282 189.940247 
L 287.925247 189.462884 
L 285.974597 188.724024 
L 281.356175 187.264627 
L 280.99707 187.279197 
L 280.530509 187.186102 
L 279.973081 187.325565 
L 279.121687 187.163928 
L 277.670312 186.948499 
L 276.800813 186.725357 
L 275.236537 186.581183 
L 274.3146 187.072382 
L 274.034747 187.425199 
L 273.709917 188.248286 
L 273.598658 188.684452 
L 273.43185 189.815596 
L 270.381286 190.236441 
L 269.972153 190.329104 
L 269.409106 190.689523 
L 269.123269 190.876275 
L 268.993485 190.972606 
L 265.78049 190.134596 
L 263.956604 189.646665 
L 263.527518 189.639427 
L 262.175716 189.238358 
L 256.811135 186.494727 
L 251.070344 183.830935 
L 250.12109 183.688297 
L 249.594561 183.670023 
L 248.779133 184.196038 
L 248.53942 184.44292 
L 248.149435 184.554016 
L 247.602326 184.958434 
L 246.760127 185.782577 
L 245.875739 185.766429 
L 244.920128 185.472162 
L 241.179037 184.012045 
L 239.773768 183.488589 
L 238.082251 183.109174 
L 236.982326 183.098571 
L 236.21519 183.055249 
L 235.951154 183.165058 
L 229.958055 181.662197 
L 226.289946 180.031842 
L 225.455876 179.664117 
L 219.470556 177.310652 
L 217.799224 177.053071 
L 216.411787 177.476145 
L 215.709724 177.48475 
L 214.221732 176.846902 
L 212.245866 175.909631 
L 211.356669 175.740559 
L 210.821146 175.756981 
L 209.795857 175.425407 
L 209.021316 175.173122 
L 208.220552 175.115837 
L 208.025943 175.25786 
L 207.838229 175.273355 
L 207.168047 175.186561 
L 206.096506 174.956531 
L 205.604159 174.873184 
L 205.284195 175.016753 
L 204.280962 174.748001 
L 204.280962 174.748001 
" clip-path="url(#p0d8f02b754)" style="fill: none; stroke: #ff0000; stroke-width: 1.5; stroke-linecap: square"/>
   </g>
   <g id="patch_3">
    <path d="M 46.64 303.64 
L 46.64 45.856 
" style="fill: none; stroke: #000000; stroke-width: 0.8; stroke-linejoin: miter; stroke-linecap: square"/>
   </g>
   <g id="patch_4">
    <path d="M 361.92192 303.64 
L 361.92192 45.856 
" style="fill: none; stroke: #000000; stroke-width: 0.8; stroke-linejoin: miter; stroke-linecap: square"/>
   </g>
   <g id="patch_5">
    <path d="M 46.64 303.64 
L 361.92192 303.64 
" style="fill: none; stroke: #000000; stroke-width: 0.8; stroke-linejoin: miter; stroke-linecap: square"/>
   </g>
   <g id="patch_6">
    <path d="M 46.64 45.856 
L 361.92192 45.856 
" style="fill: none; stroke: #000000; stroke-width: 0.8; stroke-linejoin: miter; stroke-linecap: square"/>
   </g>
   <g id="text_21">
    <!-- Relative error across two random directions -->
    <g transform="translate(73.179085 22.418625) scale(0.12 -0.12)">
     <defs>
      <path id="DejaVuSans-77" d="M 269 3500 
L 844 3500 
L 1563 769 
L 2278 3500 
L 2956 3500 
L 3675 769 
L 4391 3500 
L 4966 3500 
L 4050 0 
L 3372 0 
L 2619 2869 
L 1863 0 
L 1184 0 
L 269 3500 
z
" transform="scale(0.015625)"/>
      <path id="DejaVuSans-6d" d="M 3328 2828 
Q 3544 3216 3844 3400 
Q 4144 3584 4550 3584 
Q 5097 3584 5394 3201 
Q 5691 2819 5691 2113 
L 5691 0 
L 5113 0 
L 5113 2094 
Q 5113 2597 4934 2840 
Q 4756 3084 4391 3084 
Q 3944 3084 3684 2787 
Q 3425 2491 3425 1978 
L 3425 0 
L 2847 0 
L 2847 2094 
Q 2847 2600 2669 2842 
Q 2491 3084 2119 3084 
Q 1678 3084 1418 2786 
Q 1159 2488 1159 1978 
L 1159 0 
L 581 0 
L 581 3500 
L 1159 3500 
L 1159 2956 
Q 1356 3278 1631 3431 
Q 1906 3584 2284 3584 
Q 2666 3584 2933 3390 
Q 3200 3197 3328 2828 
z
" transform="scale(0.015625)"/>
     </defs>
     <use xlink:href="#DejaVuSans-52"/>
     <use xlink:href="#DejaVuSans-65" transform="translate(64.982422 0)"/>
     <use xlink:href="#DejaVuSans-6c" transform="translate(126.505859 0)"/>
     <use xlink:href="#DejaVuSans-61" transform="translate(154.289062 0)"/>
     <use xlink:href="#DejaVuSans-74" transform="translate(215.568359 0)"/>
     <use xlink:href="#DejaVuSans-69" transform="translate(254.777344 0)"/>
     <use xlink:href="#DejaVuSans-76" transform="translate(282.560547 0)"/>
     <use xlink:href="#DejaVuSans-65" transform="translate(341.740234 0)"/>
     <use xlink:href="#DejaVuSans-20" transform="translate(403.263672 0)"/>
     <use xlink:href="#DejaVuSans-65" transform="translate(435.050781 0)"/>
     <use xlink:href="#DejaVuSans-72" transform="translate(496.574219 0)"/>
     <use xlink:href="#DejaVuSans-72" transform="translate(535.9375 0)"/>
     <use xlink:href="#DejaVuSans-6f" transform="translate(574.800781 0)"/>
     <use xlink:href="#DejaVuSans-72" transform="translate(635.982422 0)"/>
     <use xlink:href="#DejaVuSans-20" transform="translate(677.095703 0)"/>
     <use xlink:href="#DejaVuSans-61" transform="translate(708.882812 0)"/>
     <use xlink:href="#DejaVuSans-63" transform="translate(770.162109 0)"/>
     <use xlink:href="#DejaVuSans-72" transform="translate(825.142578 0)"/>
     <use xlink:href="#DejaVuSans-6f" transform="translate(864.005859 0)"/>
     <use xlink:href="#DejaVuSans-73" transform="translate(925.1875 0)"/>
     <use xlink:href="#DejaVuSans-73" transform="translate(977.287109 0)"/>
     <use xlink:href="#DejaVuSans-20" transform="translate(1029.386719 0)"/>
     <use xlink:href="#DejaVuSans-74" transform="translate(1061.173828 0)"/>
     <use xlink:href="#DejaVuSans-77" transform="translate(1100.382812 0)"/>
     <use xlink:href="#DejaVuSans-6f" transform="translate(1182.169922 0)"/>
     <use xlink:href="#DejaVuSans-20" transform="translate(1243.351562 0)"/>
     <use xlink:href="#DejaVuSans-72" transform="translate(1275.138672 0)"/>
     <use xlink:href="#DejaVuSans-61" transform="translate(1316.251953 0)"/>
     <use xlink:href="#DejaVuSans-6e" transform="translate(1377.53125 0)"/>
     <use xlink:href="#DejaVuSans-64" transform="translate(1440.910156 0)"/>
     <use xlink:href="#DejaVuSans-6f" transform="translate(1504.386719 0)"/>
     <use xlink:href="#DejaVuSans-6d" transform="translate(1565.568359 0)"/>
     <use xlink:href="#DejaVuSans-20" transform="translate(1662.980469 0)"/>
     <use xlink:href="#DejaVuSans-64" transform="translate(1694.767578 0)"/>
     <use xlink:href="#DejaVuSans-69" transform="translate(1758.244141 0)"/>
     <use xlink:href="#DejaVuSans-72" transform="translate(1786.027344 0)"/>
     <use xlink:href="#DejaVuSans-65" transform="translate(1824.890625 0)"/>
     <use xlink:href="#DejaVuSans-63" transform="translate(1886.414062 0)"/>
     <use xlink:href="#DejaVuSans-74" transform="translate(1941.394531 0)"/>
     <use xlink:href="#DejaVuSans-69" transform="translate(1980.603516 0)"/>
     <use xlink:href="#DejaVuSans-6f" transform="translate(2008.386719 0)"/>
     <use xlink:href="#DejaVuSans-6e" transform="translate(2069.568359 0)"/>
     <use xlink:href="#DejaVuSans-73" transform="translate(2132.947266 0)"/>
    </g>
    <!-- in unknown parameters -->
    <g transform="translate(132.93346 35.856) scale(0.12 -0.12)">
     <defs>
      <path id="DejaVuSans-75" d="M 544 1381 
L 544 3500 
L 1119 3500 
L 1119 1403 
Q 1119 906 1312 657 
Q 1506 409 1894 409 
Q 2359 409 2629 706 
Q 2900 1003 2900 1516 
L 2900 3500 
L 3475 3500 
L 3475 0 
L 2900 0 
L 2900 538 
Q 2691 219 2414 64 
Q 2138 -91 1772 -91 
Q 1169 -91 856 284 
Q 544 659 544 1381 
z
M 1991 3584 
L 1991 3584 
z
" transform="scale(0.015625)"/>
      <path id="DejaVuSans-6b" d="M 581 4863 
L 1159 4863 
L 1159 1991 
L 2875 3500 
L 3609 3500 
L 1753 1863 
L 3688 0 
L 2938 0 
L 1159 1709 
L 1159 0 
L 581 0 
L 581 4863 
z
" transform="scale(0.015625)"/>
      <path id="DejaVuSans-70" d="M 1159 525 
L 1159 -1331 
L 581 -1331 
L 581 3500 
L 1159 3500 
L 1159 2969 
Q 1341 3281 1617 3432 
Q 1894 3584 2278 3584 
Q 2916 3584 3314 3078 
Q 3713 2572 3713 1747 
Q 3713 922 3314 415 
Q 2916 -91 2278 -91 
Q 1894 -91 1617 61 
Q 1341 213 1159 525 
z
M 3116 1747 
Q 3116 2381 2855 2742 
Q 2594 3103 2138 3103 
Q 1681 3103 1420 2742 
Q 1159 2381 1159 1747 
Q 1159 1113 1420 752 
Q 1681 391 2138 391 
Q 2594 391 2855 752 
Q 3116 1113 3116 1747 
z
" transform="scale(0.015625)"/>
     </defs>
     <use xlink:href="#DejaVuSans-69"/>
     <use xlink:href="#DejaVuSans-6e" transform="translate(27.783203 0)"/>
     <use xlink:href="#DejaVuSans-20" transform="translate(91.162109 0)"/>
     <use xlink:href="#DejaVuSans-75" transform="translate(122.949219 0)"/>
     <use xlink:href="#DejaVuSans-6e" transform="translate(186.328125 0)"/>
     <use xlink:href="#DejaVuSans-6b" transform="translate(249.707031 0)"/>
     <use xlink:href="#DejaVuSans-6e" transform="translate(307.617188 0)"/>
     <use xlink:href="#DejaVuSans-6f" transform="translate(370.996094 0)"/>
     <use xlink:href="#DejaVuSans-77" transform="translate(432.177734 0)"/>
     <use xlink:href="#DejaVuSans-6e" transform="translate(513.964844 0)"/>
     <use xlink:href="#DejaVuSans-20" transform="translate(577.34375 0)"/>
     <use xlink:href="#DejaVuSans-70" transform="translate(609.130859 0)"/>
     <use xlink:href="#DejaVuSans-61" transform="translate(672.607422 0)"/>
     <use xlink:href="#DejaVuSans-72" transform="translate(733.886719 0)"/>
     <use xlink:href="#DejaVuSans-61" transform="translate(775 0)"/>
     <use xlink:href="#DejaVuSans-6d" transform="translate(836.279297 0)"/>
     <use xlink:href="#DejaVuSans-65" transform="translate(933.691406 0)"/>
     <use xlink:href="#DejaVuSans-74" transform="translate(995.214844 0)"/>
     <use xlink:href="#DejaVuSans-65" transform="translate(1034.423828 0)"/>
     <use xlink:href="#DejaVuSans-72" transform="translate(1095.947266 0)"/>
     <use xlink:href="#DejaVuSans-73" transform="translate(1137.060547 0)"/>
    </g>
   </g>
  </g>
  <g id="axes_2">
   <g id="patch_7">
    <path d="M 381.62704 303.64 
L 394.51624 303.64 
L 394.51624 45.856 
L 381.62704 45.856 
z
" style="fill: #ffffff"/>
   </g>
   <g id="QuadMesh_1">
    <path d="M 381.62704 303.64 
L 394.51624 303.64 
L 394.51624 290.7508 
L 381.62704 290.7508 
L 381.62704 303.64 
" clip-path="url(#pbf7402482e)" style="fill: #460a5d"/>
    <path d="M 381.62704 290.7508 
L 394.51624 290.7508 
L 394.51624 277.8616 
L 381.62704 277.8616 
L 381.62704 290.7508 
" clip-path="url(#pbf7402482e)" style="fill: #481c6e"/>
    <path d="M 381.62704 277.8616 
L 394.51624 277.8616 
L 394.51624 264.9724 
L 381.62704 264.9724 
L 381.62704 277.8616 
" clip-path="url(#pbf7402482e)" style="fill: #472d7b"/>
    <path d="M 381.62704 264.9724 
L 394.51624 264.9724 
L 394.51624 252.0832 
L 381.62704 252.0832 
L 381.62704 264.9724 
" clip-path="url(#pbf7402482e)" style="fill: #443b84"/>
    <path d="M 381.62704 252.0832 
L 394.51624 252.0832 
L 394.51624 239.194 
L 381.62704 239.194 
L 381.62704 252.0832 
" clip-path="url(#pbf7402482e)" style="fill: #3e4a89"/>
    <path d="M 381.62704 239.194 
L 394.51624 239.194 
L 394.51624 226.3048 
L 381.62704 226.3048 
L 381.62704 239.194 
" clip-path="url(#pbf7402482e)" style="fill: #38598c"/>
    <path d="M 381.62704 226.3048 
L 394.51624 226.3048 
L 394.51624 213.4156 
L 381.62704 213.4156 
L 381.62704 226.3048 
" clip-path="url(#pbf7402482e)" style="fill: #31668e"/>
    <path d="M 381.62704 213.4156 
L 394.51624 213.4156 
L 394.51624 200.5264 
L 381.62704 200.5264 
L 381.62704 213.4156 
" clip-path="url(#pbf7402482e)" style="fill: #2c728e"/>
    <path d="M 381.62704 200.5264 
L 394.51624 200.5264 
L 394.51624 187.6372 
L 381.62704 187.6372 
L 381.62704 200.5264 
" clip-path="url(#pbf7402482e)" style="fill: #277e8e"/>
    <path d="M 381.62704 187.6372 
L 394.51624 187.6372 
L 394.51624 174.748 
L 381.62704 174.748 
L 381.62704 187.6372 
" clip-path="url(#pbf7402482e)" style="fill: #238a8d"/>
    <path d="M 381.62704 174.748 
L 394.51624 174.748 
L 394.51624 161.8588 
L 381.62704 161.8588 
L 381.62704 174.748 
" clip-path="url(#pbf7402482e)" style="fill: #1f968b"/>
    <path d="M 381.62704 161.8588 
L 394.51624 161.8588 
L 394.51624 148.9696 
L 381.62704 148.9696 
L 381.62704 161.8588 
" clip-path="url(#pbf7402482e)" style="fill: #1fa287"/>
    <path d="M 381.62704 148.9696 
L 394.51624 148.9696 
L 394.51624 136.0804 
L 381.62704 136.0804 
L 381.62704 148.9696 
" clip-path="url(#pbf7402482e)" style="fill: #28ae80"/>
    <path d="M 381.62704 136.0804 
L 394.51624 136.0804 
L 394.51624 123.1912 
L 381.62704 123.1912 
L 381.62704 136.0804 
" clip-path="url(#pbf7402482e)" style="fill: #38b977"/>
    <path d="M 381.62704 123.1912 
L 394.51624 123.1912 
L 394.51624 110.302 
L 381.62704 110.302 
L 381.62704 123.1912 
" clip-path="url(#pbf7402482e)" style="fill: #50c46a"/>
    <path d="M 381.62704 110.302 
L 394.51624 110.302 
L 394.51624 97.4128 
L 381.62704 97.4128 
L 381.62704 110.302 
" clip-path="url(#pbf7402482e)" style="fill: #6ccd5a"/>
    <path d="M 381.62704 97.4128 
L 394.51624 97.4128 
L 394.51624 84.5236 
L 381.62704 84.5236 
L 381.62704 97.4128 
" clip-path="url(#pbf7402482e)" style="fill: #8bd646"/>
    <path d="M 381.62704 84.5236 
L 394.51624 84.5236 
L 394.51624 71.6344 
L 381.62704 71.6344 
L 381.62704 84.5236 
" clip-path="url(#pbf7402482e)" style="fill: #aadc32"/>
    <path d="M 381.62704 71.6344 
L 394.51624 71.6344 
L 394.51624 58.7452 
L 381.62704 58.7452 
L 381.62704 71.6344 
" clip-path="url(#pbf7402482e)" style="fill: #cde11d"/>
    <path d="M 381.62704 58.7452 
L 394.51624 58.7452 
L 394.51624 45.856 
L 381.62704 45.856 
L 381.62704 58.7452 
" clip-path="url(#pbf7402482e)" style="fill: #efe51c"/>
   </g>
   <g id="matplotlib.axis_3"/>
   <g id="matplotlib.axis_4">
    <g id="ytick_10">
     <g id="line2d_20">
      <defs>
       <path id="mac5b3b4afe" d="M 0 0 
L 3.5 0 
" style="stroke: #000000; stroke-width: 0.8"/>
      </defs>
      <g>
       <use xlink:href="#mac5b3b4afe" x="394.51624" y="303.64" style="stroke: #000000; stroke-width: 0.8"/>
      </g>
     </g>
     <g id="text_22">
      <!-- 0.000 -->
      <g transform="translate(401.51624 307.439219) scale(0.1 -0.1)">
       <defs>
        <path id="DejaVuSans-2e" d="M 684 794 
L 1344 794 
L 1344 0 
L 684 0 
L 684 794 
z
" transform="scale(0.015625)"/>
       </defs>
       <use xlink:href="#DejaVuSans-30"/>
       <use xlink:href="#DejaVuSans-2e" transform="translate(63.623047 0)"/>
       <use xlink:href="#DejaVuSans-30" transform="translate(95.410156 0)"/>
       <use xlink:href="#DejaVuSans-30" transform="translate(159.033203 0)"/>
       <use xlink:href="#DejaVuSans-30" transform="translate(222.65625 0)"/>
      </g>
     </g>
    </g>
    <g id="ytick_11">
     <g id="line2d_21">
      <g>
       <use xlink:href="#mac5b3b4afe" x="394.51624" y="264.9724" style="stroke: #000000; stroke-width: 0.8"/>
      </g>
     </g>
     <g id="text_23">
      <!-- 0.015 -->
      <g transform="translate(401.51624 268.771619) scale(0.1 -0.1)">
       <defs>
        <path id="DejaVuSans-35" d="M 691 4666 
L 3169 4666 
L 3169 4134 
L 1269 4134 
L 1269 2991 
Q 1406 3038 1543 3061 
Q 1681 3084 1819 3084 
Q 2600 3084 3056 2656 
Q 3513 2228 3513 1497 
Q 3513 744 3044 326 
Q 2575 -91 1722 -91 
Q 1428 -91 1123 -41 
Q 819 9 494 109 
L 494 744 
Q 775 591 1075 516 
Q 1375 441 1709 441 
Q 2250 441 2565 725 
Q 2881 1009 2881 1497 
Q 2881 1984 2565 2268 
Q 2250 2553 1709 2553 
Q 1456 2553 1204 2497 
Q 953 2441 691 2322 
L 691 4666 
z
" transform="scale(0.015625)"/>
       </defs>
       <use xlink:href="#DejaVuSans-30"/>
       <use xlink:href="#DejaVuSans-2e" transform="translate(63.623047 0)"/>
       <use xlink:href="#DejaVuSans-30" transform="translate(95.410156 0)"/>
       <use xlink:href="#DejaVuSans-31" transform="translate(159.033203 0)"/>
       <use xlink:href="#DejaVuSans-35" transform="translate(222.65625 0)"/>
      </g>
     </g>
    </g>
    <g id="ytick_12">
     <g id="line2d_22">
      <g>
       <use xlink:href="#mac5b3b4afe" x="394.51624" y="226.3048" style="stroke: #000000; stroke-width: 0.8"/>
      </g>
     </g>
     <g id="text_24">
      <!-- 0.030 -->
      <g transform="translate(401.51624 230.104019) scale(0.1 -0.1)">
       <use xlink:href="#DejaVuSans-30"/>
       <use xlink:href="#DejaVuSans-2e" transform="translate(63.623047 0)"/>
       <use xlink:href="#DejaVuSans-30" transform="translate(95.410156 0)"/>
       <use xlink:href="#DejaVuSans-33" transform="translate(159.033203 0)"/>
       <use xlink:href="#DejaVuSans-30" transform="translate(222.65625 0)"/>
      </g>
     </g>
    </g>
    <g id="ytick_13">
     <g id="line2d_23">
      <g>
       <use xlink:href="#mac5b3b4afe" x="394.51624" y="187.6372" style="stroke: #000000; stroke-width: 0.8"/>
      </g>
     </g>
     <g id="text_25">
      <!-- 0.045 -->
      <g transform="translate(401.51624 191.436419) scale(0.1 -0.1)">
       <use xlink:href="#DejaVuSans-30"/>
       <use xlink:href="#DejaVuSans-2e" transform="translate(63.623047 0)"/>
       <use xlink:href="#DejaVuSans-30" transform="translate(95.410156 0)"/>
       <use xlink:href="#DejaVuSans-34" transform="translate(159.033203 0)"/>
       <use xlink:href="#DejaVuSans-35" transform="translate(222.65625 0)"/>
      </g>
     </g>
    </g>
    <g id="ytick_14">
     <g id="line2d_24">
      <g>
       <use xlink:href="#mac5b3b4afe" x="394.51624" y="148.9696" style="stroke: #000000; stroke-width: 0.8"/>
      </g>
     </g>
     <g id="text_26">
      <!-- 0.060 -->
      <g transform="translate(401.51624 152.768819) scale(0.1 -0.1)">
       <defs>
        <path id="DejaVuSans-36" d="M 2113 2584 
Q 1688 2584 1439 2293 
Q 1191 2003 1191 1497 
Q 1191 994 1439 701 
Q 1688 409 2113 409 
Q 2538 409 2786 701 
Q 3034 994 3034 1497 
Q 3034 2003 2786 2293 
Q 2538 2584 2113 2584 
z
M 3366 4563 
L 3366 3988 
Q 3128 4100 2886 4159 
Q 2644 4219 2406 4219 
Q 1781 4219 1451 3797 
Q 1122 3375 1075 2522 
Q 1259 2794 1537 2939 
Q 1816 3084 2150 3084 
Q 2853 3084 3261 2657 
Q 3669 2231 3669 1497 
Q 3669 778 3244 343 
Q 2819 -91 2113 -91 
Q 1303 -91 875 529 
Q 447 1150 447 2328 
Q 447 3434 972 4092 
Q 1497 4750 2381 4750 
Q 2619 4750 2861 4703 
Q 3103 4656 3366 4563 
z
" transform="scale(0.015625)"/>
       </defs>
       <use xlink:href="#DejaVuSans-30"/>
       <use xlink:href="#DejaVuSans-2e" transform="translate(63.623047 0)"/>
       <use xlink:href="#DejaVuSans-30" transform="translate(95.410156 0)"/>
       <use xlink:href="#DejaVuSans-36" transform="translate(159.033203 0)"/>
       <use xlink:href="#DejaVuSans-30" transform="translate(222.65625 0)"/>
      </g>
     </g>
    </g>
    <g id="ytick_15">
     <g id="line2d_25">
      <g>
       <use xlink:href="#mac5b3b4afe" x="394.51624" y="110.302" style="stroke: #000000; stroke-width: 0.8"/>
      </g>
     </g>
     <g id="text_27">
      <!-- 0.075 -->
      <g transform="translate(401.51624 114.101219) scale(0.1 -0.1)">
       <defs>
        <path id="DejaVuSans-37" d="M 525 4666 
L 3525 4666 
L 3525 4397 
L 1831 0 
L 1172 0 
L 2766 4134 
L 525 4134 
L 525 4666 
z
" transform="scale(0.015625)"/>
       </defs>
       <use xlink:href="#DejaVuSans-30"/>
       <use xlink:href="#DejaVuSans-2e" transform="translate(63.623047 0)"/>
       <use xlink:href="#DejaVuSans-30" transform="translate(95.410156 0)"/>
       <use xlink:href="#DejaVuSans-37" transform="translate(159.033203 0)"/>
       <use xlink:href="#DejaVuSans-35" transform="translate(222.65625 0)"/>
      </g>
     </g>
    </g>
    <g id="ytick_16">
     <g id="line2d_26">
      <g>
       <use xlink:href="#mac5b3b4afe" x="394.51624" y="71.6344" style="stroke: #000000; stroke-width: 0.8"/>
      </g>
     </g>
     <g id="text_28">
      <!-- 0.090 -->
      <g transform="translate(401.51624 75.433619) scale(0.1 -0.1)">
       <defs>
        <path id="DejaVuSans-39" d="M 703 97 
L 703 672 
Q 941 559 1184 500 
Q 1428 441 1663 441 
Q 2288 441 2617 861 
Q 2947 1281 2994 2138 
Q 2813 1869 2534 1725 
Q 2256 1581 1919 1581 
Q 1219 1581 811 2004 
Q 403 2428 403 3163 
Q 403 3881 828 4315 
Q 1253 4750 1959 4750 
Q 2769 4750 3195 4129 
Q 3622 3509 3622 2328 
Q 3622 1225 3098 567 
Q 2575 -91 1691 -91 
Q 1453 -91 1209 -44 
Q 966 3 703 97 
z
M 1959 2075 
Q 2384 2075 2632 2365 
Q 2881 2656 2881 3163 
Q 2881 3666 2632 3958 
Q 2384 4250 1959 4250 
Q 1534 4250 1286 3958 
Q 1038 3666 1038 3163 
Q 1038 2656 1286 2365 
Q 1534 2075 1959 2075 
z
" transform="scale(0.015625)"/>
       </defs>
       <use xlink:href="#DejaVuSans-30"/>
       <use xlink:href="#DejaVuSans-2e" transform="translate(63.623047 0)"/>
       <use xlink:href="#DejaVuSans-30" transform="translate(95.410156 0)"/>
       <use xlink:href="#DejaVuSans-39" transform="translate(159.033203 0)"/>
       <use xlink:href="#DejaVuSans-30" transform="translate(222.65625 0)"/>
      </g>
     </g>
    </g>
    <g id="text_29">
     <!-- Relative error -->
     <g transform="translate(441.742802 208.603469) rotate(-90) scale(0.1 -0.1)">
      <use xlink:href="#DejaVuSans-52"/>
      <use xlink:href="#DejaVuSans-65" transform="translate(64.982422 0)"/>
      <use xlink:href="#DejaVuSans-6c" transform="translate(126.505859 0)"/>
      <use xlink:href="#DejaVuSans-61" transform="translate(154.289062 0)"/>
      <use xlink:href="#DejaVuSans-74" transform="translate(215.568359 0)"/>
      <use xlink:href="#DejaVuSans-69" transform="translate(254.777344 0)"/>
      <use xlink:href="#DejaVuSans-76" transform="translate(282.560547 0)"/>
      <use xlink:href="#DejaVuSans-65" transform="translate(341.740234 0)"/>
      <use xlink:href="#DejaVuSans-20" transform="translate(403.263672 0)"/>
      <use xlink:href="#DejaVuSans-65" transform="translate(435.050781 0)"/>
      <use xlink:href="#DejaVuSans-72" transform="translate(496.574219 0)"/>
      <use xlink:href="#DejaVuSans-72" transform="translate(535.9375 0)"/>
      <use xlink:href="#DejaVuSans-6f" transform="translate(574.800781 0)"/>
      <use xlink:href="#DejaVuSans-72" transform="translate(635.982422 0)"/>
     </g>
    </g>
   </g>
   <g id="LineCollection_1"/>
   <g id="patch_8">
    <path d="M 381.62704 303.64 
L 388.07164 303.64 
L 394.51624 303.64 
L 394.51624 45.856 
L 388.07164 45.856 
L 381.62704 45.856 
L 381.62704 303.64 
z
" style="fill: none; stroke: #000000; stroke-width: 0.8; stroke-linejoin: miter; stroke-linecap: square"/>
   </g>
  </g>
 </g>
 <defs>
  <clipPath id="p0d8f02b754">
   <rect x="46.64" y="45.856" width="315.28192" height="257.784"/>
  </clipPath>
  <clipPath id="pbf7402482e">
   <rect x="381.62704" y="45.856" width="12.8892" height="257.784"/>
  </clipPath>
 </defs>
</svg>
